%TF.GenerationSoftware,KiCad,Pcbnew,7.0.5*%
%TF.CreationDate,2023-06-07T01:28:02+08:00*%
%TF.ProjectId,JosEffigy-All-Keyboard-Mixbox,4a6f7345-6666-4696-9779-2d416c6c2d4b,rev?*%
%TF.SameCoordinates,Original*%
%TF.FileFunction,Copper,L1,Top*%
%TF.FilePolarity,Positive*%
%FSLAX46Y46*%
G04 Gerber Fmt 4.6, Leading zero omitted, Abs format (unit mm)*
G04 Created by KiCad (PCBNEW 7.0.5) date 2023-06-07 01:28:02*
%MOMM*%
%LPD*%
G01*
G04 APERTURE LIST*
%TA.AperFunction,ComponentPad*%
%ADD10C,3.600000*%
%TD*%
%TA.AperFunction,ComponentPad*%
%ADD11O,1.700000X1.700000*%
%TD*%
%TA.AperFunction,ComponentPad*%
%ADD12R,1.700000X1.700000*%
%TD*%
%TA.AperFunction,ViaPad*%
%ADD13C,0.800000*%
%TD*%
%TA.AperFunction,Conductor*%
%ADD14C,0.254000*%
%TD*%
%TA.AperFunction,Conductor*%
%ADD15C,0.381000*%
%TD*%
G04 APERTURE END LIST*
D10*
%TO.P,MX3,1,COL*%
%TO.N,GND*%
X98531700Y-105415400D03*
%TO.P,MX3,2,ROW*%
%TO.N,RIGHT*%
X104881700Y-102875400D03*
%TD*%
%TO.P,MX6,1,COL*%
%TO.N,GND*%
X79533700Y-58737500D03*
%TO.P,MX6,2,ROW*%
%TO.N,SELECT*%
X85883700Y-56197500D03*
%TD*%
%TO.P,MX1,1,COL*%
%TO.N,GND*%
X60431800Y-105415400D03*
%TO.P,MX1,2,ROW*%
%TO.N,LEFT*%
X66781800Y-102875400D03*
%TD*%
%TO.P,MX16,1,COL*%
%TO.N,GND*%
X211931200Y-92075000D03*
%TO.P,MX16,2,ROW*%
%TO.N,4P*%
X218281200Y-89535000D03*
%TD*%
%TO.P,MX2,1,COL*%
%TO.N,GND*%
X79533800Y-105410000D03*
%TO.P,MX2,2,ROW*%
%TO.N,DOWN*%
X85883800Y-102870000D03*
%TD*%
%TO.P,MX7,1,COL*%
%TO.N,GND*%
X98583700Y-58737500D03*
%TO.P,MX7,2,ROW*%
%TO.N,START*%
X104933700Y-56197500D03*
%TD*%
%TO.P,MX5,1,COL*%
%TO.N,GND*%
X60483700Y-58737500D03*
%TO.P,MX5,2,ROW*%
%TO.N,HOME*%
X66833700Y-56197500D03*
%TD*%
%TO.P,MX4,1,COL*%
%TO.N,GND*%
X79533800Y-86360000D03*
%TO.P,MX4,2,ROW*%
%TO.N,UP*%
X85883800Y-83820000D03*
%TD*%
%TO.P,MX12,1,COL*%
%TO.N,GND*%
X211931200Y-111125000D03*
%TO.P,MX12,2,ROW*%
%TO.N,4K*%
X218281200Y-108585000D03*
%TD*%
%TO.P,MX10,1,COL*%
%TO.N,GND*%
X173831200Y-105886200D03*
%TO.P,MX10,2,ROW*%
%TO.N,2K*%
X180181200Y-103346200D03*
%TD*%
%TO.P,MX8,2,ROW*%
%TO.N,UP*%
X133350000Y-141446200D03*
%TO.P,MX8,1,COL*%
%TO.N,GND*%
X127000000Y-143986200D03*
%TD*%
%TO.P,MX14,1,COL*%
%TO.N,GND*%
X173831200Y-86836200D03*
%TO.P,MX14,2,ROW*%
%TO.N,2P*%
X180181200Y-84296200D03*
%TD*%
%TO.P,MX11,1,COL*%
%TO.N,GND*%
X192881200Y-105886200D03*
%TO.P,MX11,2,ROW*%
%TO.N,3K*%
X199231200Y-103346200D03*
%TD*%
%TO.P,MX13,1,COL*%
%TO.N,GND*%
X154781200Y-92075000D03*
%TO.P,MX13,2,ROW*%
%TO.N,1P*%
X161131200Y-89535000D03*
%TD*%
%TO.P,MX15,1,COL*%
%TO.N,GND*%
X192881200Y-86836200D03*
%TO.P,MX15,2,ROW*%
%TO.N,3P*%
X199231200Y-84296200D03*
%TD*%
%TO.P,MX9,1,COL*%
%TO.N,GND*%
X154781200Y-111125000D03*
%TO.P,MX9,2,ROW*%
%TO.N,1K*%
X161131200Y-108585000D03*
%TD*%
D11*
%TO.P,U1,1,GPIO0*%
%TO.N,unconnected-(U1-GPIO0-Pad1)*%
X231140000Y-69215000D03*
%TO.P,U1,2,GPIO1*%
%TO.N,unconnected-(U1-GPIO1-Pad2)*%
X228600000Y-69215000D03*
D12*
%TO.P,U1,3,GND*%
%TO.N,GND*%
X226060000Y-69215000D03*
D11*
%TO.P,U1,4,GPIO2*%
%TO.N,UP*%
X223520000Y-69215000D03*
%TO.P,U1,5,GPIO3*%
%TO.N,DOWN*%
X220980000Y-69215000D03*
%TO.P,U1,6,GPIO4*%
%TO.N,RIGHT*%
X218440000Y-69215000D03*
%TO.P,U1,7,GPIO5*%
%TO.N,LEFT*%
X215900000Y-69215000D03*
D12*
%TO.P,U1,8,GND*%
%TO.N,unconnected-(U1-GND-Pad8)*%
X213360000Y-69215000D03*
D11*
%TO.P,U1,9,GPIO6*%
%TO.N,1K*%
X210820000Y-69215000D03*
%TO.P,U1,10,GPIO7*%
%TO.N,2K*%
X208280000Y-69215000D03*
%TO.P,U1,11,GPIO8*%
%TO.N,3K*%
X205740000Y-69215000D03*
%TO.P,U1,12,GPIO9*%
%TO.N,4K*%
X203200000Y-69215000D03*
D12*
%TO.P,U1,13,GND*%
%TO.N,GND*%
X200660000Y-69215000D03*
D11*
%TO.P,U1,14,GPIO10*%
%TO.N,1P*%
X198120000Y-69215000D03*
%TO.P,U1,15,GPIO11*%
%TO.N,2P*%
X195580000Y-69215000D03*
%TO.P,U1,16,GPIO12*%
%TO.N,3P*%
X193040000Y-69215000D03*
%TO.P,U1,17,GPIO13*%
%TO.N,4P*%
X190500000Y-69215000D03*
D12*
%TO.P,U1,18,GND*%
%TO.N,GND*%
X187960000Y-69215000D03*
D11*
%TO.P,U1,19,GPIO14*%
%TO.N,unconnected-(U1-GPIO14-Pad19)*%
X185420000Y-69215000D03*
%TO.P,U1,20,GPIO15*%
%TO.N,unconnected-(U1-GPIO15-Pad20)*%
X182880000Y-69215000D03*
%TO.P,U1,21,GPIO16*%
%TO.N,SELECT*%
X182880000Y-51435000D03*
%TO.P,U1,22,GPIO17*%
%TO.N,START*%
X185420000Y-51435000D03*
D12*
%TO.P,U1,23,GND*%
%TO.N,GND*%
X187960000Y-51435000D03*
D11*
%TO.P,U1,24,GPIO18*%
%TO.N,unconnected-(U1-GPIO18-Pad24)*%
X190500000Y-51435000D03*
%TO.P,U1,25,GPIO19*%
%TO.N,unconnected-(U1-GPIO19-Pad25)*%
X193040000Y-51435000D03*
%TO.P,U1,26,GPIO20*%
%TO.N,HOME*%
X195580000Y-51435000D03*
%TO.P,U1,27,GPIO21*%
%TO.N,unconnected-(U1-GPIO21-Pad27)*%
X198120000Y-51435000D03*
D12*
%TO.P,U1,28,GND*%
%TO.N,GND*%
X200660000Y-51435000D03*
D11*
%TO.P,U1,29,GPIO22*%
%TO.N,unconnected-(U1-GPIO22-Pad29)*%
X203200000Y-51435000D03*
%TO.P,U1,30,RUN*%
%TO.N,unconnected-(U1-RUN-Pad30)*%
X205740000Y-51435000D03*
%TO.P,U1,31,GPIO26_ADC0*%
%TO.N,unconnected-(U1-GPIO26_ADC0-Pad31)*%
X208280000Y-51435000D03*
%TO.P,U1,32,GPIO27_ADC1*%
%TO.N,unconnected-(U1-GPIO27_ADC1-Pad32)*%
X210820000Y-51435000D03*
D12*
%TO.P,U1,33,AGND*%
%TO.N,unconnected-(U1-AGND-Pad33)*%
X213360000Y-51435000D03*
D11*
%TO.P,U1,34,GPIO28_ADC2*%
%TO.N,unconnected-(U1-GPIO28_ADC2-Pad34)*%
X215900000Y-51435000D03*
%TO.P,U1,35,ADC_VREF*%
%TO.N,RGB0*%
X218440000Y-51435000D03*
%TO.P,U1,36,3V3*%
%TO.N,unconnected-(U1-3V3-Pad36)*%
X220980000Y-51435000D03*
%TO.P,U1,37,3V3_EN*%
%TO.N,unconnected-(U1-3V3_EN-Pad37)*%
X223520000Y-51435000D03*
D12*
%TO.P,U1,38,GND*%
%TO.N,GND*%
X226060000Y-51435000D03*
D11*
%TO.P,U1,39,VSYS*%
%TO.N,unconnected-(U1-VSYS-Pad39)*%
X228600000Y-51435000D03*
%TO.P,U1,40,VBUS*%
%TO.N,VCC*%
X231140000Y-51435000D03*
%TO.P,U1,41,SWCLK*%
%TO.N,unconnected-(U1-SWCLK-Pad41)*%
X183110000Y-62865000D03*
D12*
%TO.P,U1,42,GND*%
%TO.N,unconnected-(U1-GND-Pad42)*%
X183110000Y-60325000D03*
D11*
%TO.P,U1,43,SWDIO*%
%TO.N,unconnected-(U1-SWDIO-Pad43)*%
X183110000Y-57785000D03*
%TD*%
D13*
%TO.N,Net-(D15-DIN)*%
X200684200Y-98193000D03*
X212859100Y-98193000D03*
%TO.N,Net-(D14-DIN)*%
X180187500Y-96835100D03*
X193561300Y-92153200D03*
%TO.N,Net-(D13-DIN)*%
X167210100Y-91250600D03*
X174010500Y-91250600D03*
%TO.N,Net-(D7-DIN)*%
X109103200Y-66001600D03*
X211910600Y-66001600D03*
%TO.N,Net-(D5-DIN)*%
X67043800Y-68423000D03*
X80705300Y-64721200D03*
%TO.N,Net-(D12-DOUT)*%
X218455300Y-102072800D03*
X220217800Y-102072800D03*
%TO.N,VCC*%
X167945200Y-102050200D03*
X177828400Y-102050200D03*
%TO.N,4P*%
X190887300Y-73910200D03*
X208975300Y-73910200D03*
%TO.N,4K*%
X212276500Y-102609100D03*
%TO.N,3K*%
X209663800Y-98965700D03*
%TO.N,2K*%
X206435200Y-94443400D03*
%TO.N,UP*%
X137378000Y-67254600D03*
%TO.N,GND*%
X85258100Y-105307600D03*
X128369100Y-149470600D03*
X133131100Y-149470600D03*
X178247100Y-105285300D03*
X206663200Y-111188100D03*
X200962500Y-111188100D03*
X159175600Y-110504700D03*
X87690900Y-93694500D03*
X82827300Y-98558100D03*
X183682000Y-113753900D03*
X177890400Y-118648600D03*
X135145300Y-151587300D03*
X130523800Y-156501300D03*
X193422700Y-103416700D03*
X99857700Y-64694800D03*
X99857700Y-68399700D03*
X107052100Y-118648600D03*
X102519300Y-118648600D03*
X59593900Y-70561000D03*
X61643800Y-70561000D03*
X88645400Y-113240700D03*
X82664500Y-118325800D03*
X69112900Y-113240700D03*
X63614500Y-118325800D03*
X163057100Y-118859700D03*
X158775600Y-123141200D03*
X200996000Y-113537000D03*
X196941800Y-117591200D03*
X196304300Y-104003500D03*
X79687700Y-102446700D03*
X211910600Y-106384600D03*
X216210200Y-105453800D03*
X220045900Y-118734700D03*
X214549400Y-122136500D03*
%TD*%
D14*
%TO.N,Net-(D15-DIN)*%
X212859100Y-98193000D02*
X200684200Y-98193000D01*
%TO.N,Net-(D14-DIN)*%
X188879400Y-96835100D02*
X193561300Y-92153200D01*
X180187500Y-96835100D02*
X188879400Y-96835100D01*
%TO.N,Net-(D13-DIN)*%
X167210100Y-91250600D02*
X174010500Y-91250600D01*
%TO.N,Net-(D7-DIN)*%
X109103200Y-66001600D02*
X211910600Y-66001600D01*
%TO.N,Net-(D5-DIN)*%
X77003500Y-68423000D02*
X67043800Y-68423000D01*
X80705300Y-64721200D02*
X77003500Y-68423000D01*
%TO.N,Net-(D12-DOUT)*%
X218455300Y-102072800D02*
X220217800Y-102072800D01*
%TO.N,VCC*%
X167945200Y-102050200D02*
X177828400Y-102050200D01*
%TO.N,4P*%
X190887300Y-73910200D02*
X208975300Y-73910200D01*
%TO.N,1P*%
X180272300Y-70393900D02*
X161131200Y-89535000D01*
X196130700Y-70393900D02*
X180272300Y-70393900D01*
X196941100Y-69583500D02*
X196130700Y-70393900D01*
X196941100Y-69215000D02*
X196941100Y-69583500D01*
X198120000Y-69215000D02*
X196941100Y-69215000D01*
%TO.N,4K*%
X214398700Y-102609100D02*
X212276500Y-102609100D01*
X218281200Y-106491600D02*
X214398700Y-102609100D01*
X218281200Y-108585000D02*
X218281200Y-106491600D01*
%TO.N,3K*%
X205283300Y-103346200D02*
X209663800Y-98965700D01*
X199231200Y-103346200D02*
X205283300Y-103346200D01*
%TO.N,2K*%
X183926400Y-99601000D02*
X180181200Y-103346200D01*
X197051500Y-99601000D02*
X183926400Y-99601000D01*
X202209100Y-94443400D02*
X197051500Y-99601000D01*
X206435200Y-94443400D02*
X202209100Y-94443400D01*
%TO.N,START*%
X179847000Y-56197500D02*
X104933700Y-56197500D01*
X184241100Y-51803400D02*
X179847000Y-56197500D01*
X184241100Y-51435000D02*
X184241100Y-51803400D01*
X185420000Y-51435000D02*
X184241100Y-51435000D01*
%TO.N,SELECT*%
X181701100Y-51435100D02*
X181701100Y-51435000D01*
X90646100Y-51435100D02*
X181701100Y-51435100D01*
X85883700Y-56197500D02*
X90646100Y-51435100D01*
X182880000Y-51435000D02*
X181701100Y-51435000D01*
%TO.N,HOME*%
X72801100Y-50230100D02*
X66833700Y-56197500D01*
X193564600Y-50230100D02*
X72801100Y-50230100D01*
X194401100Y-51066600D02*
X193564600Y-50230100D01*
X194401100Y-51435000D02*
X194401100Y-51066600D01*
X195580000Y-51435000D02*
X194401100Y-51435000D01*
%TO.N,UP*%
X223520000Y-69215000D02*
X222341100Y-69215000D01*
X137378000Y-67539900D02*
X137378000Y-67254600D01*
X221034400Y-67539900D02*
X137378000Y-67539900D01*
X222341100Y-68846600D02*
X221034400Y-67539900D01*
X222341100Y-69215000D02*
X222341100Y-68846600D01*
X97364100Y-83820000D02*
X85883800Y-83820000D01*
X113644200Y-67539900D02*
X97364100Y-83820000D01*
X137378000Y-67539900D02*
X113644200Y-67539900D01*
%TO.N,RIGHT*%
X218440000Y-69215000D02*
X217261100Y-69215000D01*
X217261100Y-69582600D02*
X217261100Y-69215000D01*
X208909500Y-77934200D02*
X217261100Y-69582600D01*
X178248200Y-77934200D02*
X208909500Y-77934200D01*
X161454700Y-94727700D02*
X178248200Y-77934200D01*
X161454700Y-95462100D02*
X161454700Y-94727700D01*
X159302600Y-97614200D02*
X161454700Y-95462100D01*
X110142900Y-97614200D02*
X159302600Y-97614200D01*
X104881700Y-102875400D02*
X110142900Y-97614200D01*
%TO.N,DOWN*%
X220980000Y-69215000D02*
X219801100Y-69215000D01*
X219801100Y-69583400D02*
X219801100Y-69215000D01*
X208287200Y-81097300D02*
X219801100Y-69583400D01*
X193056200Y-81097300D02*
X208287200Y-81097300D01*
X181975500Y-92178000D02*
X193056200Y-81097300D01*
X173727800Y-92178000D02*
X181975500Y-92178000D01*
X160886900Y-105018900D02*
X173727800Y-92178000D01*
X103050300Y-105018900D02*
X160886900Y-105018900D01*
X100901400Y-102870000D02*
X103050300Y-105018900D01*
X85883800Y-102870000D02*
X100901400Y-102870000D01*
%TO.N,LEFT*%
X215900000Y-69215000D02*
X214721100Y-69215000D01*
X214721100Y-68404500D02*
X214721100Y-69215000D01*
X214324200Y-68007600D02*
X214721100Y-68404500D01*
X115157600Y-68007600D02*
X214324200Y-68007600D01*
X79989600Y-103175600D02*
X115157600Y-68007600D01*
X67082000Y-103175600D02*
X79989600Y-103175600D01*
X66781800Y-102875400D02*
X67082000Y-103175600D01*
D15*
%TO.N,GND*%
X79636200Y-105307600D02*
X85258100Y-105307600D01*
X79533800Y-105410000D02*
X79636200Y-105307600D01*
X128369100Y-149470600D02*
X133131100Y-149470600D01*
X174432100Y-105285300D02*
X178247100Y-105285300D01*
X173831200Y-105886200D02*
X174432100Y-105285300D01*
X206663200Y-111188100D02*
X200962500Y-111188100D01*
X155401500Y-110504700D02*
X159175600Y-110504700D01*
X154781200Y-111125000D02*
X155401500Y-110504700D01*
X87690900Y-93694500D02*
X82827300Y-98558100D01*
X135145300Y-151879800D02*
X135145300Y-151587300D01*
X130523800Y-156501300D02*
X135145300Y-151879800D01*
X99857700Y-64694800D02*
X99857700Y-68399700D01*
X102519300Y-118648600D02*
X107052100Y-118648600D01*
X83560300Y-118325800D02*
X82664500Y-118325800D01*
X88645400Y-113240700D02*
X83560300Y-118325800D01*
X64027800Y-118325800D02*
X63614500Y-118325800D01*
X69112900Y-113240700D02*
X64027800Y-118325800D01*
X158775600Y-123141200D02*
X163057100Y-118859700D01*
X200996000Y-113537000D02*
X196941800Y-117591200D01*
X178787300Y-118648600D02*
X177890400Y-118648600D01*
X183682000Y-113753900D02*
X178787300Y-118648600D01*
X163268200Y-118648600D02*
X163057100Y-118859700D01*
X177890400Y-118648600D02*
X163268200Y-118648600D01*
X193422700Y-105344700D02*
X193422700Y-104003500D01*
X192881200Y-105886200D02*
X193422700Y-105344700D01*
X193422700Y-104003500D02*
X196304300Y-104003500D01*
X79687700Y-101697700D02*
X82827300Y-98558100D01*
X79687700Y-102446700D02*
X79687700Y-101697700D01*
X98423900Y-105307600D02*
X85258100Y-105307600D01*
X98531700Y-105415400D02*
X98423900Y-105307600D01*
X193422700Y-104003500D02*
X193422700Y-103416700D01*
X215279400Y-106384600D02*
X216210200Y-105453800D01*
X211910600Y-106384600D02*
X215279400Y-106384600D01*
X59593900Y-70561000D02*
X61643800Y-70561000D01*
X216644100Y-122136500D02*
X220045900Y-118734700D01*
X214549400Y-122136500D02*
X216644100Y-122136500D01*
%TD*%
%TA.AperFunction,Conductor*%
%TO.N,GND*%
G36*
X200910000Y-70565000D02*
G01*
X201557828Y-70565000D01*
X201557844Y-70564999D01*
X201617372Y-70558598D01*
X201617379Y-70558596D01*
X201752086Y-70508354D01*
X201752093Y-70508350D01*
X201867187Y-70422190D01*
X201867190Y-70422187D01*
X201953350Y-70307093D01*
X201953354Y-70307086D01*
X202002422Y-70175529D01*
X202044293Y-70119595D01*
X202109757Y-70095178D01*
X202178030Y-70110030D01*
X202206285Y-70131181D01*
X202328599Y-70253495D01*
X202425384Y-70321265D01*
X202522165Y-70389032D01*
X202522167Y-70389033D01*
X202522170Y-70389035D01*
X202736337Y-70488903D01*
X202736343Y-70488904D01*
X202736344Y-70488905D01*
X202791285Y-70503626D01*
X202964592Y-70550063D01*
X203141034Y-70565500D01*
X203199999Y-70570659D01*
X203200000Y-70570659D01*
X203200001Y-70570659D01*
X203258966Y-70565500D01*
X203435408Y-70550063D01*
X203663663Y-70488903D01*
X203877830Y-70389035D01*
X204071401Y-70253495D01*
X204238495Y-70086401D01*
X204368426Y-69900841D01*
X204423002Y-69857217D01*
X204492500Y-69850023D01*
X204554855Y-69881546D01*
X204571575Y-69900842D01*
X204701500Y-70086395D01*
X204701505Y-70086401D01*
X204868599Y-70253495D01*
X204965384Y-70321265D01*
X205062165Y-70389032D01*
X205062167Y-70389033D01*
X205062170Y-70389035D01*
X205276337Y-70488903D01*
X205276343Y-70488904D01*
X205276344Y-70488905D01*
X205331285Y-70503626D01*
X205504592Y-70550063D01*
X205681034Y-70565500D01*
X205739999Y-70570659D01*
X205740000Y-70570659D01*
X205740001Y-70570659D01*
X205798966Y-70565500D01*
X205975408Y-70550063D01*
X206203663Y-70488903D01*
X206417830Y-70389035D01*
X206611401Y-70253495D01*
X206778495Y-70086401D01*
X206908426Y-69900841D01*
X206963002Y-69857217D01*
X207032500Y-69850023D01*
X207094855Y-69881546D01*
X207111575Y-69900842D01*
X207241500Y-70086395D01*
X207241505Y-70086401D01*
X207408599Y-70253495D01*
X207505384Y-70321265D01*
X207602165Y-70389032D01*
X207602167Y-70389033D01*
X207602170Y-70389035D01*
X207816337Y-70488903D01*
X207816343Y-70488904D01*
X207816344Y-70488905D01*
X207871285Y-70503626D01*
X208044592Y-70550063D01*
X208221034Y-70565500D01*
X208279999Y-70570659D01*
X208280000Y-70570659D01*
X208280001Y-70570659D01*
X208338966Y-70565500D01*
X208515408Y-70550063D01*
X208743663Y-70488903D01*
X208957830Y-70389035D01*
X209151401Y-70253495D01*
X209318495Y-70086401D01*
X209448426Y-69900841D01*
X209503002Y-69857217D01*
X209572500Y-69850023D01*
X209634855Y-69881546D01*
X209651575Y-69900842D01*
X209781500Y-70086395D01*
X209781505Y-70086401D01*
X209948599Y-70253495D01*
X210045384Y-70321265D01*
X210142165Y-70389032D01*
X210142167Y-70389033D01*
X210142170Y-70389035D01*
X210356337Y-70488903D01*
X210356343Y-70488904D01*
X210356344Y-70488905D01*
X210411285Y-70503626D01*
X210584592Y-70550063D01*
X210761034Y-70565500D01*
X210819999Y-70570659D01*
X210820000Y-70570659D01*
X210820001Y-70570659D01*
X210878966Y-70565500D01*
X211055408Y-70550063D01*
X211283663Y-70488903D01*
X211497830Y-70389035D01*
X211691401Y-70253495D01*
X211813329Y-70131566D01*
X211874648Y-70098084D01*
X211944340Y-70103068D01*
X212000274Y-70144939D01*
X212017189Y-70175917D01*
X212066202Y-70307328D01*
X212066206Y-70307335D01*
X212152452Y-70422544D01*
X212152455Y-70422547D01*
X212267664Y-70508793D01*
X212267671Y-70508797D01*
X212402517Y-70559091D01*
X212402516Y-70559091D01*
X212409444Y-70559835D01*
X212462127Y-70565500D01*
X214257872Y-70565499D01*
X214317483Y-70559091D01*
X214452331Y-70508796D01*
X214567546Y-70422546D01*
X214653796Y-70307331D01*
X214702810Y-70175916D01*
X214744681Y-70119984D01*
X214810145Y-70095566D01*
X214878418Y-70110417D01*
X214906673Y-70131569D01*
X215028599Y-70253495D01*
X215125384Y-70321265D01*
X215222165Y-70389032D01*
X215222167Y-70389033D01*
X215222170Y-70389035D01*
X215294037Y-70422547D01*
X215297007Y-70423932D01*
X215349447Y-70470104D01*
X215368599Y-70537297D01*
X215348383Y-70604179D01*
X215332284Y-70623995D01*
X212967599Y-72988681D01*
X212906276Y-73022166D01*
X212879918Y-73025000D01*
X209154958Y-73025000D01*
X209129178Y-73022290D01*
X209069946Y-73009700D01*
X208880654Y-73009700D01*
X208821421Y-73022290D01*
X208795642Y-73025000D01*
X191066958Y-73025000D01*
X191041178Y-73022290D01*
X190981946Y-73009700D01*
X190792654Y-73009700D01*
X190733421Y-73022290D01*
X190707642Y-73025000D01*
X179511500Y-73025000D01*
X179444461Y-73005315D01*
X179398706Y-72952511D01*
X179387500Y-72901000D01*
X179387500Y-72217481D01*
X179407185Y-72150442D01*
X179423819Y-72129800D01*
X180495900Y-71057719D01*
X180557223Y-71024234D01*
X180583581Y-71021400D01*
X196047733Y-71021400D01*
X196063381Y-71023127D01*
X196063408Y-71022846D01*
X196071175Y-71023580D01*
X196071176Y-71023579D01*
X196071177Y-71023580D01*
X196077804Y-71023371D01*
X196139592Y-71021431D01*
X196141539Y-71021400D01*
X196170173Y-71021400D01*
X196170176Y-71021400D01*
X196177078Y-71020527D01*
X196182890Y-71020069D01*
X196229643Y-71018601D01*
X196248972Y-71012984D01*
X196268028Y-71009037D01*
X196287993Y-71006516D01*
X196331470Y-70989301D01*
X196336976Y-70987416D01*
X196381891Y-70974368D01*
X196399215Y-70964121D01*
X196416683Y-70955563D01*
X196435403Y-70948153D01*
X196473242Y-70920659D01*
X196478091Y-70917474D01*
X196518356Y-70893663D01*
X196532597Y-70879420D01*
X196547378Y-70866797D01*
X196563667Y-70854963D01*
X196563669Y-70854959D01*
X196563671Y-70854959D01*
X196575545Y-70840603D01*
X196593476Y-70818928D01*
X196597389Y-70814628D01*
X197122048Y-70289969D01*
X197183369Y-70256486D01*
X197253061Y-70261470D01*
X197280844Y-70276073D01*
X197442170Y-70389035D01*
X197656337Y-70488903D01*
X197656343Y-70488904D01*
X197656344Y-70488905D01*
X197711285Y-70503626D01*
X197884592Y-70550063D01*
X198061034Y-70565500D01*
X198119999Y-70570659D01*
X198120000Y-70570659D01*
X198120001Y-70570659D01*
X198178966Y-70565500D01*
X198355408Y-70550063D01*
X198583663Y-70488903D01*
X198797830Y-70389035D01*
X198991401Y-70253495D01*
X199113717Y-70131178D01*
X199175036Y-70097696D01*
X199244728Y-70102680D01*
X199300662Y-70144551D01*
X199317577Y-70175528D01*
X199366646Y-70307088D01*
X199366649Y-70307093D01*
X199452809Y-70422187D01*
X199452812Y-70422190D01*
X199567906Y-70508350D01*
X199567913Y-70508354D01*
X199702620Y-70558596D01*
X199702627Y-70558598D01*
X199762155Y-70564999D01*
X199762172Y-70565000D01*
X200410000Y-70565000D01*
X200410000Y-69661494D01*
X200514839Y-69709373D01*
X200623527Y-69725000D01*
X200696473Y-69725000D01*
X200805161Y-69709373D01*
X200909999Y-69661494D01*
X200910000Y-70565000D01*
G37*
%TD.AperFunction*%
%TA.AperFunction,Conductor*%
G36*
X233305539Y-47644685D02*
G01*
X233351294Y-47697489D01*
X233362500Y-47749000D01*
X233362500Y-72901000D01*
X233342815Y-72968039D01*
X233290011Y-73013794D01*
X233238500Y-73025000D01*
X217546280Y-73025000D01*
X217479241Y-73005315D01*
X217433486Y-72952511D01*
X217423542Y-72883353D01*
X217452567Y-72819797D01*
X217458599Y-72813319D01*
X218142118Y-72129800D01*
X219981989Y-70289928D01*
X220043310Y-70256445D01*
X220113002Y-70261429D01*
X220140787Y-70276033D01*
X220302170Y-70389035D01*
X220516337Y-70488903D01*
X220516343Y-70488904D01*
X220516344Y-70488905D01*
X220571285Y-70503626D01*
X220744592Y-70550063D01*
X220921034Y-70565500D01*
X220979999Y-70570659D01*
X220980000Y-70570659D01*
X220980001Y-70570659D01*
X221038966Y-70565500D01*
X221215408Y-70550063D01*
X221443663Y-70488903D01*
X221657830Y-70389035D01*
X221851401Y-70253495D01*
X222018495Y-70086401D01*
X222148427Y-69900838D01*
X222203000Y-69857216D01*
X222272499Y-69850022D01*
X222334854Y-69881544D01*
X222351572Y-69900838D01*
X222481505Y-70086401D01*
X222648599Y-70253495D01*
X222745384Y-70321265D01*
X222842165Y-70389032D01*
X222842167Y-70389033D01*
X222842170Y-70389035D01*
X223056337Y-70488903D01*
X223056343Y-70488904D01*
X223056344Y-70488905D01*
X223111285Y-70503626D01*
X223284592Y-70550063D01*
X223461034Y-70565500D01*
X223519999Y-70570659D01*
X223520000Y-70570659D01*
X223520001Y-70570659D01*
X223578966Y-70565500D01*
X223755408Y-70550063D01*
X223983663Y-70488903D01*
X224197830Y-70389035D01*
X224391401Y-70253495D01*
X224513717Y-70131178D01*
X224575036Y-70097696D01*
X224644728Y-70102680D01*
X224700662Y-70144551D01*
X224717577Y-70175528D01*
X224766646Y-70307088D01*
X224766649Y-70307093D01*
X224852809Y-70422187D01*
X224852812Y-70422190D01*
X224967906Y-70508350D01*
X224967913Y-70508354D01*
X225102620Y-70558596D01*
X225102627Y-70558598D01*
X225162155Y-70564999D01*
X225162172Y-70565000D01*
X225810000Y-70565000D01*
X225810000Y-69661494D01*
X225914839Y-69709373D01*
X226023527Y-69725000D01*
X226096473Y-69725000D01*
X226205161Y-69709373D01*
X226310000Y-69661494D01*
X226310000Y-70565000D01*
X226957828Y-70565000D01*
X226957844Y-70564999D01*
X227017372Y-70558598D01*
X227017379Y-70558596D01*
X227152086Y-70508354D01*
X227152093Y-70508350D01*
X227267187Y-70422190D01*
X227267190Y-70422187D01*
X227353350Y-70307093D01*
X227353354Y-70307086D01*
X227402422Y-70175529D01*
X227444293Y-70119595D01*
X227509757Y-70095178D01*
X227578030Y-70110030D01*
X227606284Y-70131181D01*
X227728599Y-70253495D01*
X227825384Y-70321264D01*
X227922165Y-70389032D01*
X227922167Y-70389033D01*
X227922170Y-70389035D01*
X228136337Y-70488903D01*
X228136343Y-70488904D01*
X228136344Y-70488905D01*
X228191285Y-70503626D01*
X228364592Y-70550063D01*
X228541034Y-70565500D01*
X228599999Y-70570659D01*
X228600000Y-70570659D01*
X228600001Y-70570659D01*
X228658966Y-70565500D01*
X228835408Y-70550063D01*
X229063663Y-70488903D01*
X229277830Y-70389035D01*
X229471401Y-70253495D01*
X229638495Y-70086401D01*
X229768426Y-69900841D01*
X229823002Y-69857217D01*
X229892500Y-69850023D01*
X229954855Y-69881546D01*
X229971575Y-69900842D01*
X230101500Y-70086395D01*
X230101505Y-70086401D01*
X230268599Y-70253495D01*
X230365384Y-70321265D01*
X230462165Y-70389032D01*
X230462167Y-70389033D01*
X230462170Y-70389035D01*
X230676337Y-70488903D01*
X230676343Y-70488904D01*
X230676344Y-70488905D01*
X230731285Y-70503626D01*
X230904592Y-70550063D01*
X231081034Y-70565500D01*
X231139999Y-70570659D01*
X231140000Y-70570659D01*
X231140001Y-70570659D01*
X231198966Y-70565500D01*
X231375408Y-70550063D01*
X231603663Y-70488903D01*
X231817830Y-70389035D01*
X232011401Y-70253495D01*
X232178495Y-70086401D01*
X232314035Y-69892830D01*
X232413903Y-69678663D01*
X232475063Y-69450408D01*
X232495659Y-69215000D01*
X232475063Y-68979592D01*
X232413903Y-68751337D01*
X232314035Y-68537171D01*
X232308425Y-68529158D01*
X232178494Y-68343597D01*
X232011402Y-68176506D01*
X232011395Y-68176501D01*
X231817834Y-68040967D01*
X231817830Y-68040965D01*
X231746727Y-68007809D01*
X231603663Y-67941097D01*
X231603659Y-67941096D01*
X231603655Y-67941094D01*
X231375413Y-67879938D01*
X231375403Y-67879936D01*
X231140001Y-67859341D01*
X231139999Y-67859341D01*
X230904596Y-67879936D01*
X230904586Y-67879938D01*
X230676344Y-67941094D01*
X230676335Y-67941098D01*
X230462171Y-68040964D01*
X230462169Y-68040965D01*
X230268597Y-68176505D01*
X230101505Y-68343597D01*
X229971575Y-68529158D01*
X229916998Y-68572783D01*
X229847500Y-68579977D01*
X229785145Y-68548454D01*
X229768425Y-68529158D01*
X229638494Y-68343597D01*
X229471402Y-68176506D01*
X229471395Y-68176501D01*
X229277834Y-68040967D01*
X229277830Y-68040965D01*
X229206727Y-68007809D01*
X229063663Y-67941097D01*
X229063659Y-67941096D01*
X229063655Y-67941094D01*
X228835413Y-67879938D01*
X228835403Y-67879936D01*
X228600001Y-67859341D01*
X228599999Y-67859341D01*
X228364596Y-67879936D01*
X228364586Y-67879938D01*
X228136344Y-67941094D01*
X228136335Y-67941098D01*
X227922171Y-68040964D01*
X227922169Y-68040965D01*
X227728600Y-68176503D01*
X227606284Y-68298819D01*
X227544961Y-68332303D01*
X227475269Y-68327319D01*
X227419336Y-68285447D01*
X227402421Y-68254470D01*
X227353354Y-68122913D01*
X227353350Y-68122906D01*
X227267190Y-68007812D01*
X227267187Y-68007809D01*
X227152093Y-67921649D01*
X227152086Y-67921645D01*
X227017379Y-67871403D01*
X227017372Y-67871401D01*
X226957844Y-67865000D01*
X226310000Y-67865000D01*
X226310000Y-68768505D01*
X226205161Y-68720627D01*
X226096473Y-68705000D01*
X226023527Y-68705000D01*
X225914839Y-68720627D01*
X225810000Y-68768505D01*
X225810000Y-67865000D01*
X225162155Y-67865000D01*
X225102627Y-67871401D01*
X225102620Y-67871403D01*
X224967913Y-67921645D01*
X224967906Y-67921649D01*
X224852812Y-68007809D01*
X224852809Y-68007812D01*
X224766649Y-68122906D01*
X224766645Y-68122913D01*
X224717578Y-68254470D01*
X224675707Y-68310404D01*
X224610242Y-68334821D01*
X224541969Y-68319969D01*
X224513715Y-68298819D01*
X224454785Y-68239889D01*
X224391401Y-68176505D01*
X224391397Y-68176502D01*
X224391396Y-68176501D01*
X224197834Y-68040967D01*
X224197830Y-68040965D01*
X224126727Y-68007809D01*
X223983663Y-67941097D01*
X223983659Y-67941096D01*
X223983655Y-67941094D01*
X223755413Y-67879938D01*
X223755403Y-67879936D01*
X223520001Y-67859341D01*
X223519999Y-67859341D01*
X223284596Y-67879936D01*
X223284586Y-67879938D01*
X223056344Y-67941094D01*
X223056335Y-67941098D01*
X222842171Y-68040964D01*
X222842169Y-68040965D01*
X222680791Y-68153962D01*
X222614584Y-68176290D01*
X222546817Y-68159278D01*
X222521987Y-68140068D01*
X221536776Y-67154857D01*
X221526931Y-67142568D01*
X221526713Y-67142749D01*
X221521740Y-67136737D01*
X221471843Y-67089881D01*
X221470443Y-67088524D01*
X221450197Y-67068277D01*
X221444696Y-67064011D01*
X221440248Y-67060212D01*
X221406168Y-67028208D01*
X221406163Y-67028204D01*
X221388522Y-67018506D01*
X221372257Y-67007822D01*
X221356363Y-66995493D01*
X221356362Y-66995492D01*
X221333612Y-66985647D01*
X221313454Y-66976923D01*
X221308207Y-66974353D01*
X221267237Y-66951829D01*
X221267228Y-66951826D01*
X221247734Y-66946820D01*
X221229333Y-66940520D01*
X221210859Y-66932526D01*
X221210852Y-66932524D01*
X221164687Y-66925213D01*
X221158963Y-66924028D01*
X221113679Y-66912400D01*
X221113672Y-66912400D01*
X221093542Y-66912400D01*
X221074143Y-66910873D01*
X221054268Y-66907725D01*
X221054267Y-66907725D01*
X221007721Y-66912125D01*
X221001883Y-66912400D01*
X212570646Y-66912400D01*
X212503607Y-66892715D01*
X212457852Y-66839911D01*
X212447908Y-66770753D01*
X212476933Y-66707197D01*
X212497760Y-66688082D01*
X212516471Y-66674488D01*
X212643133Y-66533816D01*
X212737779Y-66369884D01*
X212796274Y-66189856D01*
X212816060Y-66001600D01*
X212796274Y-65813344D01*
X212737779Y-65633316D01*
X212643133Y-65469384D01*
X212516471Y-65328712D01*
X212516470Y-65328711D01*
X212363334Y-65217451D01*
X212363329Y-65217448D01*
X212190407Y-65140457D01*
X212190402Y-65140455D01*
X212044601Y-65109465D01*
X212005246Y-65101100D01*
X211815954Y-65101100D01*
X211783497Y-65107998D01*
X211630797Y-65140455D01*
X211630792Y-65140457D01*
X211457870Y-65217448D01*
X211457865Y-65217451D01*
X211304735Y-65328706D01*
X211304732Y-65328708D01*
X211302775Y-65330881D01*
X211300800Y-65333074D01*
X211241314Y-65369721D01*
X211208653Y-65374100D01*
X179511500Y-65374100D01*
X179444461Y-65354415D01*
X179398706Y-65301611D01*
X179387500Y-65250100D01*
X179387500Y-62865000D01*
X181754341Y-62865000D01*
X181774936Y-63100403D01*
X181774938Y-63100413D01*
X181836094Y-63328655D01*
X181836096Y-63328659D01*
X181836097Y-63328663D01*
X181918930Y-63506299D01*
X181935965Y-63542830D01*
X181935967Y-63542834D01*
X182033965Y-63682788D01*
X182071505Y-63736401D01*
X182238599Y-63903495D01*
X182319735Y-63960307D01*
X182432165Y-64039032D01*
X182432167Y-64039033D01*
X182432170Y-64039035D01*
X182646337Y-64138903D01*
X182646343Y-64138904D01*
X182646344Y-64138905D01*
X182663788Y-64143579D01*
X182874592Y-64200063D01*
X183057480Y-64216064D01*
X183109999Y-64220659D01*
X183110000Y-64220659D01*
X183110001Y-64220659D01*
X183162520Y-64216064D01*
X183345408Y-64200063D01*
X183573663Y-64138903D01*
X183787830Y-64039035D01*
X183981401Y-63903495D01*
X184148495Y-63736401D01*
X184284035Y-63542830D01*
X184383903Y-63328663D01*
X184445063Y-63100408D01*
X184465659Y-62865000D01*
X184462824Y-62832602D01*
X184459257Y-62791830D01*
X184455598Y-62750003D01*
X226724723Y-62750003D01*
X226726688Y-62772470D01*
X226726862Y-62780660D01*
X226725709Y-62806324D01*
X226725710Y-62806328D01*
X226736641Y-62887031D01*
X226736966Y-62889949D01*
X226743792Y-62967972D01*
X226743795Y-62967987D01*
X226750482Y-62992941D01*
X226752034Y-63000670D01*
X226755924Y-63029381D01*
X226755926Y-63029392D01*
X226780075Y-63103713D01*
X226780997Y-63106825D01*
X226800423Y-63179324D01*
X226800427Y-63179336D01*
X226812736Y-63205732D01*
X226815512Y-63212779D01*
X226825483Y-63243464D01*
X226860970Y-63309411D01*
X226862558Y-63312576D01*
X226892898Y-63377639D01*
X226911490Y-63404191D01*
X226915303Y-63410378D01*
X226932146Y-63441678D01*
X226932152Y-63441687D01*
X226976792Y-63497663D01*
X226979106Y-63500758D01*
X227002854Y-63534672D01*
X227018402Y-63556877D01*
X227018405Y-63556880D01*
X227043646Y-63582121D01*
X227048283Y-63587309D01*
X227072492Y-63617666D01*
X227123959Y-63662632D01*
X227127008Y-63665483D01*
X227173116Y-63711592D01*
X227173122Y-63711597D01*
X227173123Y-63711598D01*
X227183479Y-63718849D01*
X227205055Y-63733957D01*
X227210290Y-63738057D01*
X227242004Y-63765765D01*
X227242013Y-63765771D01*
X227297849Y-63799131D01*
X227301613Y-63801568D01*
X227352359Y-63837101D01*
X227352364Y-63837104D01*
X227374917Y-63847620D01*
X227390677Y-63854969D01*
X227396271Y-63857935D01*
X227433349Y-63880088D01*
X227435236Y-63881215D01*
X227447437Y-63885794D01*
X227493083Y-63902925D01*
X227497503Y-63904782D01*
X227550670Y-63929575D01*
X227550674Y-63929577D01*
X227581069Y-63937720D01*
X227594677Y-63941366D01*
X227600413Y-63943207D01*
X227607581Y-63945897D01*
X227645976Y-63960307D01*
X227703545Y-63970754D01*
X227708511Y-63971868D01*
X227762023Y-63986207D01*
X227810689Y-63990464D01*
X227816306Y-63991218D01*
X227867453Y-64000500D01*
X227922691Y-64000500D01*
X227928092Y-64000735D01*
X227956548Y-64003225D01*
X227979998Y-64005277D01*
X227980000Y-64005277D01*
X228031694Y-64000754D01*
X228034284Y-64000583D01*
X228036121Y-64000500D01*
X228036155Y-64000500D01*
X228089217Y-63995724D01*
X228090173Y-63995638D01*
X228090180Y-63995724D01*
X228090477Y-63995611D01*
X228197977Y-63986207D01*
X228198000Y-63986200D01*
X228198475Y-63986117D01*
X228203713Y-63985419D01*
X228204188Y-63985377D01*
X228307997Y-63956726D01*
X228409330Y-63929575D01*
X228409334Y-63929572D01*
X228416254Y-63927053D01*
X228420948Y-63925554D01*
X228421170Y-63925493D01*
X228421181Y-63925487D01*
X228421183Y-63925487D01*
X228446798Y-63913151D01*
X228515454Y-63880088D01*
X228607639Y-63837102D01*
X228607648Y-63837095D01*
X228612327Y-63834395D01*
X228612400Y-63834522D01*
X228623164Y-63828218D01*
X228623973Y-63827829D01*
X228706156Y-63768118D01*
X228786877Y-63711598D01*
X228787747Y-63710727D01*
X228802550Y-63698084D01*
X228806078Y-63695522D01*
X228873674Y-63624820D01*
X228874562Y-63623911D01*
X228941598Y-63556877D01*
X228944285Y-63553039D01*
X228956239Y-63538465D01*
X228961629Y-63532828D01*
X228961628Y-63532828D01*
X228961632Y-63532825D01*
X229013746Y-63453873D01*
X229014596Y-63452623D01*
X229067102Y-63377639D01*
X229070543Y-63370259D01*
X229079432Y-63354364D01*
X229085635Y-63344968D01*
X229121507Y-63261038D01*
X229122284Y-63259297D01*
X229159575Y-63179330D01*
X229162570Y-63168148D01*
X229168325Y-63151505D01*
X229174103Y-63137988D01*
X229174480Y-63136339D01*
X229193675Y-63052235D01*
X229194229Y-63050000D01*
X229604700Y-63050000D01*
X229604885Y-63052235D01*
X229611853Y-63136339D01*
X229612008Y-63138826D01*
X229615819Y-63228523D01*
X229615820Y-63228534D01*
X229620939Y-63252284D01*
X229622120Y-63260233D01*
X229623865Y-63281303D01*
X229623865Y-63281306D01*
X229645932Y-63368445D01*
X229646437Y-63370602D01*
X229666044Y-63461575D01*
X229666045Y-63461580D01*
X229673883Y-63481084D01*
X229676458Y-63488987D01*
X229680843Y-63506300D01*
X229718283Y-63591657D01*
X229719003Y-63593371D01*
X229731659Y-63624865D01*
X229754935Y-63682788D01*
X229764232Y-63697888D01*
X229768218Y-63705495D01*
X229774077Y-63718851D01*
X229826820Y-63799582D01*
X229827711Y-63800985D01*
X229879930Y-63885794D01*
X229886543Y-63893308D01*
X229897263Y-63907402D01*
X229901019Y-63913151D01*
X229901021Y-63913153D01*
X229968272Y-63986208D01*
X229968546Y-63986505D01*
X229969472Y-63987534D01*
X229981110Y-64000757D01*
X230037436Y-64064755D01*
X230042564Y-64068895D01*
X230055882Y-64081377D01*
X230058216Y-64083913D01*
X230139933Y-64147515D01*
X230222920Y-64214523D01*
X230222922Y-64214524D01*
X230225678Y-64216064D01*
X230241360Y-64226460D01*
X230241367Y-64226465D01*
X230241371Y-64226467D01*
X230241374Y-64226470D01*
X230335162Y-64277225D01*
X230413738Y-64321121D01*
X230431051Y-64330793D01*
X230433849Y-64332058D01*
X230440695Y-64335097D01*
X230440794Y-64334873D01*
X230445491Y-64336933D01*
X230445497Y-64336936D01*
X230549276Y-64372563D01*
X230655829Y-64410211D01*
X230656398Y-64410308D01*
X230661129Y-64411312D01*
X230665002Y-64412292D01*
X230665019Y-64412298D01*
X230755226Y-64427350D01*
X230776391Y-64430882D01*
X230802416Y-64435345D01*
X230890792Y-64450499D01*
X230890800Y-64450500D01*
X231126044Y-64450500D01*
X231126049Y-64450500D01*
X231159073Y-64444988D01*
X231182469Y-64441085D01*
X231187407Y-64440463D01*
X231247541Y-64435346D01*
X231299615Y-64421786D01*
X231305017Y-64420634D01*
X231354981Y-64412298D01*
X231412186Y-64392658D01*
X231416663Y-64391309D01*
X231478249Y-64375275D01*
X231484249Y-64372563D01*
X231489262Y-64370296D01*
X231524297Y-64354459D01*
X231529681Y-64352322D01*
X231574503Y-64336936D01*
X231630554Y-64306601D01*
X231634527Y-64304632D01*
X231643156Y-64300730D01*
X231695486Y-64277077D01*
X231734647Y-64250608D01*
X231739820Y-64247469D01*
X231778626Y-64226470D01*
X231831532Y-64185290D01*
X231834850Y-64182881D01*
X231893003Y-64143579D01*
X231924770Y-64113131D01*
X231929548Y-64109002D01*
X231961784Y-64083913D01*
X231964109Y-64081388D01*
X231979420Y-64064755D01*
X232009389Y-64032198D01*
X232012101Y-64029432D01*
X232065118Y-63978621D01*
X232089329Y-63945883D01*
X232093540Y-63940785D01*
X232118979Y-63913153D01*
X232159206Y-63851578D01*
X232161241Y-63848652D01*
X232206879Y-63786947D01*
X232223733Y-63753517D01*
X232227170Y-63747552D01*
X232245924Y-63718849D01*
X232276805Y-63648445D01*
X232278174Y-63645538D01*
X232314207Y-63574074D01*
X232324208Y-63541413D01*
X232326701Y-63534694D01*
X232339157Y-63506300D01*
X232358827Y-63428621D01*
X232359635Y-63425732D01*
X232384016Y-63346123D01*
X232387936Y-63315508D01*
X232389330Y-63308170D01*
X232396134Y-63281305D01*
X232403018Y-63198226D01*
X232403308Y-63195469D01*
X232405375Y-63179327D01*
X232414298Y-63109654D01*
X232413126Y-63082079D01*
X232413281Y-63074355D01*
X232415300Y-63050000D01*
X232413592Y-63029392D01*
X232408147Y-62963680D01*
X232407991Y-62961190D01*
X232407464Y-62948782D01*
X232404180Y-62871468D01*
X232399059Y-62847709D01*
X232397879Y-62839762D01*
X232397286Y-62832602D01*
X232396134Y-62818695D01*
X232374056Y-62731514D01*
X232373563Y-62729408D01*
X232361369Y-62672828D01*
X232353954Y-62638419D01*
X232346115Y-62618912D01*
X232343541Y-62611015D01*
X232339157Y-62593700D01*
X232301724Y-62508363D01*
X232301007Y-62506658D01*
X232265064Y-62417210D01*
X232255768Y-62402112D01*
X232251779Y-62394500D01*
X232245924Y-62381151D01*
X232193184Y-62300426D01*
X232192294Y-62299023D01*
X232140074Y-62214212D01*
X232140071Y-62214209D01*
X232140069Y-62214205D01*
X232133451Y-62206686D01*
X232122727Y-62192584D01*
X232118980Y-62186848D01*
X232110181Y-62177290D01*
X232051427Y-62113466D01*
X232050558Y-62112501D01*
X231982564Y-62035245D01*
X231977436Y-62031104D01*
X231964117Y-62018621D01*
X231961785Y-62016088D01*
X231961783Y-62016086D01*
X231880061Y-61952480D01*
X231797080Y-61885477D01*
X231797073Y-61885472D01*
X231794311Y-61883929D01*
X231778643Y-61873542D01*
X231778634Y-61873535D01*
X231778628Y-61873532D01*
X231778626Y-61873530D01*
X231684837Y-61822774D01*
X231635770Y-61795363D01*
X231588961Y-61769213D01*
X231586381Y-61768047D01*
X231579284Y-61764898D01*
X231579188Y-61765119D01*
X231574499Y-61763062D01*
X231470755Y-61727447D01*
X231364172Y-61689789D01*
X231364160Y-61689786D01*
X231363612Y-61689692D01*
X231358889Y-61688691D01*
X231354990Y-61687704D01*
X231354983Y-61687702D01*
X231354981Y-61687702D01*
X231305009Y-61679363D01*
X231243500Y-61669098D01*
X231129209Y-61649500D01*
X231129200Y-61649500D01*
X231126049Y-61649500D01*
X230893951Y-61649500D01*
X230893950Y-61649500D01*
X230837533Y-61658913D01*
X230832587Y-61659535D01*
X230830099Y-61659747D01*
X230772469Y-61664652D01*
X230772461Y-61664653D01*
X230720397Y-61678208D01*
X230714981Y-61679363D01*
X230665013Y-61687703D01*
X230607840Y-61707331D01*
X230603330Y-61708690D01*
X230541749Y-61724725D01*
X230541744Y-61724727D01*
X230495711Y-61745535D01*
X230490304Y-61747680D01*
X230445503Y-61763060D01*
X230445498Y-61763063D01*
X230389448Y-61793395D01*
X230385478Y-61795363D01*
X230324514Y-61822922D01*
X230285359Y-61849385D01*
X230280149Y-61852544D01*
X230241379Y-61873526D01*
X230241367Y-61873533D01*
X230188487Y-61914692D01*
X230185124Y-61917133D01*
X230127001Y-61956417D01*
X230126994Y-61956422D01*
X230095248Y-61986847D01*
X230090430Y-61991011D01*
X230058218Y-62016085D01*
X230058209Y-62016093D01*
X230010613Y-62067795D01*
X230007900Y-62070564D01*
X229954882Y-62121378D01*
X229954880Y-62121380D01*
X229930681Y-62154098D01*
X229926448Y-62159223D01*
X229901022Y-62186845D01*
X229860797Y-62248412D01*
X229858741Y-62251367D01*
X229813124Y-62313047D01*
X229813120Y-62313054D01*
X229796268Y-62346475D01*
X229792811Y-62352472D01*
X229774076Y-62381149D01*
X229743219Y-62451496D01*
X229741803Y-62454503D01*
X229705790Y-62525931D01*
X229695792Y-62558573D01*
X229693288Y-62565323D01*
X229680845Y-62593691D01*
X229680845Y-62593692D01*
X229661178Y-62671347D01*
X229660358Y-62674279D01*
X229635984Y-62753876D01*
X229635983Y-62753879D01*
X229632063Y-62784485D01*
X229630668Y-62791830D01*
X229623867Y-62818688D01*
X229623864Y-62818705D01*
X229616983Y-62901758D01*
X229616693Y-62904513D01*
X229605702Y-62990344D01*
X229605701Y-62990344D01*
X229606872Y-63017900D01*
X229606716Y-63025655D01*
X229606407Y-63029392D01*
X229604700Y-63050000D01*
X229194229Y-63050000D01*
X229194233Y-63049983D01*
X229216207Y-62967977D01*
X229217887Y-62948766D01*
X229219206Y-62940377D01*
X229219445Y-62939325D01*
X229224191Y-62918537D01*
X229227992Y-62833871D01*
X229228158Y-62831363D01*
X229235277Y-62750000D01*
X229233310Y-62727528D01*
X229233137Y-62719334D01*
X229234290Y-62693670D01*
X229223353Y-62612939D01*
X229223034Y-62610067D01*
X229216207Y-62532023D01*
X229209515Y-62507053D01*
X229207963Y-62499322D01*
X229204076Y-62470618D01*
X229204075Y-62470616D01*
X229204075Y-62470613D01*
X229181817Y-62402112D01*
X229179921Y-62396276D01*
X229178998Y-62393161D01*
X229159576Y-62320673D01*
X229147266Y-62294274D01*
X229144488Y-62287222D01*
X229134519Y-62256541D01*
X229134517Y-62256537D01*
X229134517Y-62256536D01*
X229121988Y-62233253D01*
X229099027Y-62190583D01*
X229097432Y-62187405D01*
X229096315Y-62185010D01*
X229067102Y-62122362D01*
X229048512Y-62095813D01*
X229044698Y-62089625D01*
X229033718Y-62069221D01*
X229027852Y-62058319D01*
X228983192Y-62002318D01*
X228980896Y-61999247D01*
X228941598Y-61943123D01*
X228916353Y-61917878D01*
X228911715Y-61912689D01*
X228887506Y-61882332D01*
X228836039Y-61837366D01*
X228832990Y-61834515D01*
X228786878Y-61788402D01*
X228754940Y-61766039D01*
X228749705Y-61761939D01*
X228717996Y-61734235D01*
X228717994Y-61734233D01*
X228717992Y-61734232D01*
X228662149Y-61700868D01*
X228658386Y-61698431D01*
X228607641Y-61662899D01*
X228569333Y-61645035D01*
X228563735Y-61642067D01*
X228524769Y-61618787D01*
X228524767Y-61618786D01*
X228466928Y-61597079D01*
X228462515Y-61595226D01*
X228409330Y-61570425D01*
X228365321Y-61558632D01*
X228359581Y-61556790D01*
X228314025Y-61539692D01*
X228256456Y-61529245D01*
X228251480Y-61528128D01*
X228197977Y-61513793D01*
X228149327Y-61509536D01*
X228143659Y-61508775D01*
X228092551Y-61499500D01*
X228092547Y-61499500D01*
X228037309Y-61499500D01*
X228031907Y-61499264D01*
X228003451Y-61496774D01*
X227980002Y-61494723D01*
X227979997Y-61494723D01*
X227928351Y-61499241D01*
X227925746Y-61499414D01*
X227923849Y-61499499D01*
X227869764Y-61504366D01*
X227762020Y-61513793D01*
X227761468Y-61513891D01*
X227756275Y-61514581D01*
X227755812Y-61514622D01*
X227755809Y-61514623D01*
X227690866Y-61532547D01*
X227652056Y-61543257D01*
X227550666Y-61570425D01*
X227543739Y-61572946D01*
X227539050Y-61574444D01*
X227538849Y-61574499D01*
X227538836Y-61574504D01*
X227444551Y-61619907D01*
X227352359Y-61662899D01*
X227347670Y-61665606D01*
X227347598Y-61665481D01*
X227336871Y-61671764D01*
X227336031Y-61672168D01*
X227253788Y-61731919D01*
X227173121Y-61788403D01*
X227172241Y-61789284D01*
X227157461Y-61801906D01*
X227153928Y-61804472D01*
X227153921Y-61804478D01*
X227086366Y-61875134D01*
X227085395Y-61876128D01*
X227018402Y-61943121D01*
X227015711Y-61946965D01*
X227003773Y-61961521D01*
X226998368Y-61967174D01*
X226976160Y-62000818D01*
X226946281Y-62046080D01*
X226945353Y-62047447D01*
X226892901Y-62122357D01*
X226892891Y-62122374D01*
X226889457Y-62129738D01*
X226880572Y-62145628D01*
X226874363Y-62155034D01*
X226838498Y-62238944D01*
X226837679Y-62240778D01*
X226800426Y-62320664D01*
X226800424Y-62320671D01*
X226797425Y-62331860D01*
X226791681Y-62348475D01*
X226785899Y-62362005D01*
X226785896Y-62362014D01*
X226766318Y-62447789D01*
X226765760Y-62450038D01*
X226743793Y-62532022D01*
X226743793Y-62532023D01*
X226742112Y-62551226D01*
X226740793Y-62559619D01*
X226739492Y-62565323D01*
X226735809Y-62581459D01*
X226735809Y-62581464D01*
X226732007Y-62666088D01*
X226731834Y-62668708D01*
X226724723Y-62749995D01*
X226724723Y-62750003D01*
X184455598Y-62750003D01*
X184445063Y-62629592D01*
X184383903Y-62401337D01*
X184284035Y-62187171D01*
X184283808Y-62186847D01*
X184148496Y-61993600D01*
X184098017Y-61943121D01*
X184026567Y-61871671D01*
X183993084Y-61810351D01*
X183998068Y-61740659D01*
X184039939Y-61684725D01*
X184070915Y-61667810D01*
X184202331Y-61618796D01*
X184317546Y-61532546D01*
X184403796Y-61417331D01*
X184454091Y-61282483D01*
X184460500Y-61222873D01*
X184460499Y-59427128D01*
X184454091Y-59367517D01*
X184403796Y-59232669D01*
X184403795Y-59232668D01*
X184403793Y-59232664D01*
X184317547Y-59117455D01*
X184317544Y-59117452D01*
X184202335Y-59031206D01*
X184202328Y-59031202D01*
X184070917Y-58982189D01*
X184014983Y-58940318D01*
X183990566Y-58874853D01*
X184005418Y-58806580D01*
X184026563Y-58778332D01*
X184148495Y-58656401D01*
X184284035Y-58462830D01*
X184383903Y-58248663D01*
X184445063Y-58020408D01*
X184455597Y-57900003D01*
X226724723Y-57900003D01*
X226726688Y-57922470D01*
X226726862Y-57930660D01*
X226725709Y-57956324D01*
X226725710Y-57956328D01*
X226736641Y-58037031D01*
X226736966Y-58039949D01*
X226743792Y-58117972D01*
X226743795Y-58117987D01*
X226750482Y-58142941D01*
X226752034Y-58150670D01*
X226755924Y-58179381D01*
X226755926Y-58179392D01*
X226780075Y-58253713D01*
X226780997Y-58256825D01*
X226800423Y-58329324D01*
X226800427Y-58329336D01*
X226812736Y-58355732D01*
X226815512Y-58362779D01*
X226825483Y-58393464D01*
X226860970Y-58459411D01*
X226862558Y-58462576D01*
X226892898Y-58527639D01*
X226899827Y-58537534D01*
X226911490Y-58554191D01*
X226915303Y-58560378D01*
X226932146Y-58591678D01*
X226932152Y-58591687D01*
X226976792Y-58647663D01*
X226979106Y-58650758D01*
X227010296Y-58695301D01*
X227018402Y-58706877D01*
X227018405Y-58706880D01*
X227043646Y-58732121D01*
X227048283Y-58737309D01*
X227072492Y-58767666D01*
X227123959Y-58812632D01*
X227127008Y-58815483D01*
X227173116Y-58861592D01*
X227173122Y-58861597D01*
X227173123Y-58861598D01*
X227184802Y-58869775D01*
X227205055Y-58883957D01*
X227210290Y-58888057D01*
X227242004Y-58915765D01*
X227242013Y-58915771D01*
X227297849Y-58949131D01*
X227301613Y-58951568D01*
X227352359Y-58987101D01*
X227352364Y-58987104D01*
X227360902Y-58991085D01*
X227390677Y-59004969D01*
X227396271Y-59007935D01*
X227435217Y-59031204D01*
X227435236Y-59031215D01*
X227453828Y-59038192D01*
X227493083Y-59052925D01*
X227497503Y-59054782D01*
X227550670Y-59079575D01*
X227550674Y-59079577D01*
X227581069Y-59087720D01*
X227594677Y-59091366D01*
X227600413Y-59093207D01*
X227617264Y-59099531D01*
X227645976Y-59110307D01*
X227703545Y-59120754D01*
X227708511Y-59121868D01*
X227762023Y-59136207D01*
X227810689Y-59140464D01*
X227816306Y-59141218D01*
X227867453Y-59150500D01*
X227922691Y-59150500D01*
X227928092Y-59150735D01*
X227956548Y-59153225D01*
X227979998Y-59155277D01*
X227980000Y-59155277D01*
X228031694Y-59150754D01*
X228034284Y-59150583D01*
X228036121Y-59150500D01*
X228036155Y-59150500D01*
X228089217Y-59145724D01*
X228090173Y-59145638D01*
X228090180Y-59145724D01*
X228090477Y-59145611D01*
X228197977Y-59136207D01*
X228198000Y-59136200D01*
X228198475Y-59136117D01*
X228203713Y-59135419D01*
X228204188Y-59135377D01*
X228307997Y-59106726D01*
X228409330Y-59079575D01*
X228409334Y-59079572D01*
X228416254Y-59077053D01*
X228420948Y-59075554D01*
X228421170Y-59075493D01*
X228421181Y-59075487D01*
X228421183Y-59075487D01*
X228434202Y-59069216D01*
X228515454Y-59030088D01*
X228607639Y-58987102D01*
X228607648Y-58987095D01*
X228612327Y-58984395D01*
X228612400Y-58984522D01*
X228623164Y-58978218D01*
X228623973Y-58977829D01*
X228706156Y-58918118D01*
X228786877Y-58861598D01*
X228787747Y-58860727D01*
X228802550Y-58848084D01*
X228806078Y-58845522D01*
X228873674Y-58774820D01*
X228874562Y-58773911D01*
X228941598Y-58706877D01*
X228944285Y-58703039D01*
X228956239Y-58688465D01*
X228961629Y-58682828D01*
X228961628Y-58682828D01*
X228961632Y-58682825D01*
X229013746Y-58603873D01*
X229014596Y-58602623D01*
X229067102Y-58527639D01*
X229070543Y-58520259D01*
X229079432Y-58504364D01*
X229085635Y-58494968D01*
X229121507Y-58411038D01*
X229122284Y-58409297D01*
X229159575Y-58329330D01*
X229162570Y-58318148D01*
X229168325Y-58301505D01*
X229170024Y-58297531D01*
X229174103Y-58287988D01*
X229183079Y-58248663D01*
X229193675Y-58202235D01*
X229194233Y-58199983D01*
X229195438Y-58195485D01*
X229216207Y-58117977D01*
X229217887Y-58098766D01*
X229219206Y-58090377D01*
X229220508Y-58084672D01*
X229224191Y-58068537D01*
X229227992Y-57983871D01*
X229228158Y-57981363D01*
X229235277Y-57900000D01*
X229233310Y-57877528D01*
X229233137Y-57869334D01*
X229234290Y-57843670D01*
X229223353Y-57762939D01*
X229223034Y-57760067D01*
X229216207Y-57682023D01*
X229209515Y-57657053D01*
X229207963Y-57649322D01*
X229204076Y-57620618D01*
X229204075Y-57620616D01*
X229204075Y-57620613D01*
X229197377Y-57599998D01*
X229604700Y-57599998D01*
X229611853Y-57686339D01*
X229612008Y-57688826D01*
X229615819Y-57778523D01*
X229615820Y-57778534D01*
X229620939Y-57802284D01*
X229622120Y-57810233D01*
X229623865Y-57831303D01*
X229623865Y-57831306D01*
X229645932Y-57918445D01*
X229646437Y-57920602D01*
X229666044Y-58011575D01*
X229666045Y-58011580D01*
X229673883Y-58031084D01*
X229676458Y-58038987D01*
X229680843Y-58056301D01*
X229693288Y-58084672D01*
X229718283Y-58141657D01*
X229719003Y-58143371D01*
X229739945Y-58195485D01*
X229754935Y-58232788D01*
X229764232Y-58247888D01*
X229768218Y-58255495D01*
X229774077Y-58268851D01*
X229826820Y-58349582D01*
X229827711Y-58350985D01*
X229879930Y-58435794D01*
X229886543Y-58443308D01*
X229897263Y-58457402D01*
X229901019Y-58463151D01*
X229901021Y-58463153D01*
X229945976Y-58511988D01*
X229968546Y-58536505D01*
X229969472Y-58537534D01*
X230037436Y-58614755D01*
X230042564Y-58618895D01*
X230055882Y-58631377D01*
X230058216Y-58633913D01*
X230139933Y-58697515D01*
X230222920Y-58764523D01*
X230222922Y-58764524D01*
X230225678Y-58766064D01*
X230241360Y-58776460D01*
X230241367Y-58776465D01*
X230241371Y-58776467D01*
X230241374Y-58776470D01*
X230335162Y-58827225D01*
X230413738Y-58871121D01*
X230431051Y-58880793D01*
X230433849Y-58882058D01*
X230440695Y-58885097D01*
X230440794Y-58884873D01*
X230445491Y-58886933D01*
X230445497Y-58886936D01*
X230549276Y-58922563D01*
X230655829Y-58960211D01*
X230656398Y-58960308D01*
X230661129Y-58961312D01*
X230665002Y-58962292D01*
X230665019Y-58962298D01*
X230755226Y-58977350D01*
X230776391Y-58980882D01*
X230796876Y-58984395D01*
X230890792Y-59000499D01*
X230890800Y-59000500D01*
X231126044Y-59000500D01*
X231126049Y-59000500D01*
X231159073Y-58994988D01*
X231182469Y-58991085D01*
X231187407Y-58990463D01*
X231247541Y-58985346D01*
X231299615Y-58971786D01*
X231305017Y-58970634D01*
X231354981Y-58962298D01*
X231412186Y-58942658D01*
X231416663Y-58941309D01*
X231478249Y-58925275D01*
X231484249Y-58922563D01*
X231494082Y-58918118D01*
X231524297Y-58904459D01*
X231529681Y-58902322D01*
X231574503Y-58886936D01*
X231630554Y-58856601D01*
X231634527Y-58854632D01*
X231643156Y-58850730D01*
X231695486Y-58827077D01*
X231734647Y-58800608D01*
X231739820Y-58797469D01*
X231778626Y-58776470D01*
X231831532Y-58735290D01*
X231834850Y-58732881D01*
X231893003Y-58693579D01*
X231924770Y-58663131D01*
X231929548Y-58659002D01*
X231961784Y-58633913D01*
X231964109Y-58631388D01*
X231979420Y-58614755D01*
X232009389Y-58582198D01*
X232012101Y-58579432D01*
X232065118Y-58528621D01*
X232089329Y-58495883D01*
X232093540Y-58490785D01*
X232118979Y-58463153D01*
X232119348Y-58462589D01*
X232159205Y-58401581D01*
X232161241Y-58398652D01*
X232206879Y-58336947D01*
X232223733Y-58303517D01*
X232227170Y-58297552D01*
X232245924Y-58268849D01*
X232276805Y-58198445D01*
X232278174Y-58195538D01*
X232314207Y-58124074D01*
X232324208Y-58091413D01*
X232326701Y-58084694D01*
X232339157Y-58056300D01*
X232358827Y-57978621D01*
X232359635Y-57975732D01*
X232384016Y-57896123D01*
X232387936Y-57865508D01*
X232389330Y-57858170D01*
X232396134Y-57831305D01*
X232401797Y-57762959D01*
X232403018Y-57748226D01*
X232403308Y-57745469D01*
X232414298Y-57659654D01*
X232413126Y-57632079D01*
X232413281Y-57624355D01*
X232415300Y-57600000D01*
X232415209Y-57598907D01*
X232408147Y-57513680D01*
X232407991Y-57511190D01*
X232406270Y-57470664D01*
X232404180Y-57421468D01*
X232399059Y-57397709D01*
X232397879Y-57389762D01*
X232396134Y-57368695D01*
X232374056Y-57281514D01*
X232373563Y-57279408D01*
X232372043Y-57272357D01*
X232353954Y-57188419D01*
X232346115Y-57168912D01*
X232343541Y-57161015D01*
X232339157Y-57143700D01*
X232301724Y-57058363D01*
X232301007Y-57056658D01*
X232265064Y-56967210D01*
X232255768Y-56952112D01*
X232251779Y-56944500D01*
X232245924Y-56931151D01*
X232193184Y-56850426D01*
X232192294Y-56849023D01*
X232140074Y-56764212D01*
X232140071Y-56764209D01*
X232140069Y-56764205D01*
X232133451Y-56756686D01*
X232122727Y-56742584D01*
X232118980Y-56736848D01*
X232103862Y-56720425D01*
X232051427Y-56663466D01*
X232050558Y-56662501D01*
X231982564Y-56585245D01*
X231977436Y-56581104D01*
X231964117Y-56568621D01*
X231961785Y-56566088D01*
X231961783Y-56566086D01*
X231880061Y-56502480D01*
X231835872Y-56466800D01*
X231797080Y-56435477D01*
X231797073Y-56435472D01*
X231794311Y-56433929D01*
X231778643Y-56423542D01*
X231778634Y-56423535D01*
X231778628Y-56423532D01*
X231778626Y-56423530D01*
X231684837Y-56372774D01*
X231635770Y-56345363D01*
X231588961Y-56319213D01*
X231586381Y-56318047D01*
X231579284Y-56314898D01*
X231579188Y-56315119D01*
X231574499Y-56313062D01*
X231470755Y-56277447D01*
X231364172Y-56239789D01*
X231364160Y-56239786D01*
X231363612Y-56239692D01*
X231358889Y-56238691D01*
X231354990Y-56237704D01*
X231354983Y-56237702D01*
X231354981Y-56237702D01*
X231305009Y-56229363D01*
X231243500Y-56219098D01*
X231129209Y-56199500D01*
X231129200Y-56199500D01*
X231126049Y-56199500D01*
X230893951Y-56199500D01*
X230893950Y-56199500D01*
X230837533Y-56208913D01*
X230832587Y-56209535D01*
X230830099Y-56209747D01*
X230772469Y-56214652D01*
X230772461Y-56214653D01*
X230720397Y-56228208D01*
X230714981Y-56229363D01*
X230665013Y-56237703D01*
X230607840Y-56257331D01*
X230603330Y-56258690D01*
X230541749Y-56274725D01*
X230541744Y-56274727D01*
X230495711Y-56295535D01*
X230490304Y-56297680D01*
X230445503Y-56313060D01*
X230445498Y-56313063D01*
X230389448Y-56343395D01*
X230385478Y-56345363D01*
X230324514Y-56372922D01*
X230285359Y-56399385D01*
X230280149Y-56402544D01*
X230241379Y-56423526D01*
X230241367Y-56423533D01*
X230188487Y-56464692D01*
X230185124Y-56467133D01*
X230127001Y-56506417D01*
X230126994Y-56506422D01*
X230095248Y-56536847D01*
X230090430Y-56541011D01*
X230058218Y-56566085D01*
X230058209Y-56566093D01*
X230010613Y-56617795D01*
X230007900Y-56620564D01*
X229954882Y-56671378D01*
X229954880Y-56671380D01*
X229930681Y-56704098D01*
X229926448Y-56709223D01*
X229901022Y-56736845D01*
X229860797Y-56798412D01*
X229858741Y-56801367D01*
X229813124Y-56863047D01*
X229813120Y-56863054D01*
X229796268Y-56896475D01*
X229792811Y-56902472D01*
X229774076Y-56931149D01*
X229743219Y-57001496D01*
X229741803Y-57004503D01*
X229705790Y-57075931D01*
X229695792Y-57108573D01*
X229693288Y-57115323D01*
X229680845Y-57143691D01*
X229680845Y-57143692D01*
X229661178Y-57221347D01*
X229660358Y-57224279D01*
X229635984Y-57303876D01*
X229635983Y-57303879D01*
X229632063Y-57334485D01*
X229630668Y-57341830D01*
X229623867Y-57368688D01*
X229623864Y-57368705D01*
X229616983Y-57451758D01*
X229616693Y-57454513D01*
X229605702Y-57540344D01*
X229605701Y-57540344D01*
X229606872Y-57567900D01*
X229606716Y-57575655D01*
X229604700Y-57599998D01*
X229197377Y-57599998D01*
X229186947Y-57567900D01*
X229179921Y-57546276D01*
X229178998Y-57543161D01*
X229159576Y-57470673D01*
X229147266Y-57444274D01*
X229144488Y-57437222D01*
X229134519Y-57406541D01*
X229134517Y-57406537D01*
X229134517Y-57406536D01*
X229121988Y-57383253D01*
X229099027Y-57340583D01*
X229097432Y-57337405D01*
X229082336Y-57305032D01*
X229067102Y-57272362D01*
X229048512Y-57245813D01*
X229044698Y-57239625D01*
X229034862Y-57221347D01*
X229027852Y-57208319D01*
X228983192Y-57152318D01*
X228980896Y-57149247D01*
X228941598Y-57093123D01*
X228916353Y-57067878D01*
X228911715Y-57062689D01*
X228887506Y-57032332D01*
X228836039Y-56987366D01*
X228832990Y-56984515D01*
X228786878Y-56938402D01*
X228754940Y-56916039D01*
X228749705Y-56911939D01*
X228735542Y-56899565D01*
X228717996Y-56884235D01*
X228717994Y-56884233D01*
X228717992Y-56884232D01*
X228662149Y-56850868D01*
X228658386Y-56848431D01*
X228607641Y-56812899D01*
X228582911Y-56801367D01*
X228569332Y-56795034D01*
X228563735Y-56792067D01*
X228524769Y-56768787D01*
X228524767Y-56768786D01*
X228466928Y-56747079D01*
X228462515Y-56745226D01*
X228409330Y-56720425D01*
X228365321Y-56708632D01*
X228359581Y-56706790D01*
X228314025Y-56689692D01*
X228256456Y-56679245D01*
X228251480Y-56678128D01*
X228197977Y-56663793D01*
X228149327Y-56659536D01*
X228143659Y-56658775D01*
X228142474Y-56658560D01*
X228138174Y-56657779D01*
X228092551Y-56649500D01*
X228092547Y-56649500D01*
X228037309Y-56649500D01*
X228031907Y-56649264D01*
X228003451Y-56646774D01*
X227980002Y-56644723D01*
X227979997Y-56644723D01*
X227928351Y-56649241D01*
X227925746Y-56649414D01*
X227923849Y-56649499D01*
X227869764Y-56654366D01*
X227762020Y-56663793D01*
X227761468Y-56663891D01*
X227756275Y-56664581D01*
X227755812Y-56664622D01*
X227755809Y-56664623D01*
X227667706Y-56688938D01*
X227652056Y-56693257D01*
X227550666Y-56720425D01*
X227543739Y-56722946D01*
X227539050Y-56724444D01*
X227538849Y-56724499D01*
X227538836Y-56724504D01*
X227444551Y-56769907D01*
X227352359Y-56812899D01*
X227347670Y-56815606D01*
X227347598Y-56815481D01*
X227336871Y-56821764D01*
X227336031Y-56822168D01*
X227253788Y-56881919D01*
X227173121Y-56938403D01*
X227172241Y-56939284D01*
X227157461Y-56951906D01*
X227153928Y-56954472D01*
X227153921Y-56954478D01*
X227086366Y-57025134D01*
X227085395Y-57026128D01*
X227018402Y-57093121D01*
X227015711Y-57096965D01*
X227003773Y-57111521D01*
X226998368Y-57117174D01*
X226976160Y-57150818D01*
X226946281Y-57196080D01*
X226945353Y-57197447D01*
X226892901Y-57272357D01*
X226892891Y-57272374D01*
X226889457Y-57279738D01*
X226880572Y-57295628D01*
X226874363Y-57305034D01*
X226838498Y-57388944D01*
X226837679Y-57390778D01*
X226800426Y-57470664D01*
X226800424Y-57470671D01*
X226797425Y-57481860D01*
X226791681Y-57498475D01*
X226785899Y-57512005D01*
X226785896Y-57512014D01*
X226766318Y-57597789D01*
X226765760Y-57600038D01*
X226743793Y-57682022D01*
X226743793Y-57682023D01*
X226742112Y-57701226D01*
X226740793Y-57709625D01*
X226735809Y-57731459D01*
X226735809Y-57731464D01*
X226732007Y-57816088D01*
X226731834Y-57818708D01*
X226724723Y-57899995D01*
X226724723Y-57900003D01*
X184455597Y-57900003D01*
X184465659Y-57785000D01*
X184445063Y-57549592D01*
X184383903Y-57321337D01*
X184284035Y-57107171D01*
X184282304Y-57104698D01*
X184148494Y-56913597D01*
X183981402Y-56746506D01*
X183981395Y-56746501D01*
X183787834Y-56610967D01*
X183787830Y-56610965D01*
X183765735Y-56600662D01*
X183573663Y-56511097D01*
X183573659Y-56511096D01*
X183573655Y-56511094D01*
X183345413Y-56449938D01*
X183345403Y-56449936D01*
X183110001Y-56429341D01*
X183109999Y-56429341D01*
X182874596Y-56449936D01*
X182874586Y-56449938D01*
X182646344Y-56511094D01*
X182646335Y-56511098D01*
X182432171Y-56610964D01*
X182432169Y-56610965D01*
X182238597Y-56746505D01*
X182071505Y-56913597D01*
X181935965Y-57107169D01*
X181935964Y-57107171D01*
X181836098Y-57321335D01*
X181836094Y-57321344D01*
X181774938Y-57549586D01*
X181774936Y-57549596D01*
X181754341Y-57784999D01*
X181754341Y-57785000D01*
X181774936Y-58020403D01*
X181774938Y-58020413D01*
X181836094Y-58248655D01*
X181836096Y-58248659D01*
X181836097Y-58248663D01*
X181903619Y-58393464D01*
X181935965Y-58462830D01*
X181935967Y-58462834D01*
X182026192Y-58591687D01*
X182071501Y-58656396D01*
X182071506Y-58656402D01*
X182193430Y-58778326D01*
X182226915Y-58839649D01*
X182221931Y-58909341D01*
X182180059Y-58965274D01*
X182149083Y-58982189D01*
X182017669Y-59031203D01*
X182017664Y-59031206D01*
X181902455Y-59117452D01*
X181902452Y-59117455D01*
X181816206Y-59232664D01*
X181816202Y-59232671D01*
X181765908Y-59367517D01*
X181759501Y-59427116D01*
X181759501Y-59427123D01*
X181759500Y-59427135D01*
X181759500Y-61222870D01*
X181759501Y-61222876D01*
X181765908Y-61282483D01*
X181816202Y-61417328D01*
X181816206Y-61417335D01*
X181902452Y-61532544D01*
X181902455Y-61532547D01*
X182017664Y-61618793D01*
X182017671Y-61618797D01*
X182149081Y-61667810D01*
X182205015Y-61709681D01*
X182229432Y-61775145D01*
X182214580Y-61843418D01*
X182193430Y-61871673D01*
X182071503Y-61993600D01*
X181935965Y-62187169D01*
X181935964Y-62187171D01*
X181836098Y-62401335D01*
X181836094Y-62401344D01*
X181774938Y-62629586D01*
X181774936Y-62629596D01*
X181754341Y-62864999D01*
X181754341Y-62865000D01*
X179387500Y-62865000D01*
X179387500Y-56949000D01*
X179407185Y-56881961D01*
X179459989Y-56836206D01*
X179511500Y-56825000D01*
X179764033Y-56825000D01*
X179779681Y-56826727D01*
X179779708Y-56826446D01*
X179787475Y-56827180D01*
X179787476Y-56827179D01*
X179787477Y-56827180D01*
X179794104Y-56826971D01*
X179855892Y-56825031D01*
X179857839Y-56825000D01*
X179886473Y-56825000D01*
X179886476Y-56825000D01*
X179893378Y-56824127D01*
X179899190Y-56823669D01*
X179945943Y-56822201D01*
X179965272Y-56816584D01*
X179984328Y-56812637D01*
X180004293Y-56810116D01*
X180047770Y-56792901D01*
X180053276Y-56791016D01*
X180098191Y-56777968D01*
X180115515Y-56767721D01*
X180132983Y-56759163D01*
X180151703Y-56751753D01*
X180189542Y-56724259D01*
X180194391Y-56721074D01*
X180234656Y-56697263D01*
X180248897Y-56683020D01*
X180263678Y-56670397D01*
X180279967Y-56658563D01*
X180279969Y-56658559D01*
X180279971Y-56658559D01*
X180291845Y-56644203D01*
X180309776Y-56622528D01*
X180313689Y-56618228D01*
X184421989Y-52509928D01*
X184483310Y-52476445D01*
X184553002Y-52481429D01*
X184580787Y-52496033D01*
X184742170Y-52609035D01*
X184956337Y-52708903D01*
X184956343Y-52708904D01*
X184956344Y-52708905D01*
X185011285Y-52723626D01*
X185184592Y-52770063D01*
X185361034Y-52785500D01*
X185419999Y-52790659D01*
X185420000Y-52790659D01*
X185420001Y-52790659D01*
X185478966Y-52785500D01*
X185655408Y-52770063D01*
X185883663Y-52708903D01*
X186097830Y-52609035D01*
X186291401Y-52473495D01*
X186413717Y-52351178D01*
X186475036Y-52317696D01*
X186544728Y-52322680D01*
X186600662Y-52364551D01*
X186617577Y-52395528D01*
X186666646Y-52527088D01*
X186666649Y-52527093D01*
X186752809Y-52642187D01*
X186752812Y-52642190D01*
X186867906Y-52728350D01*
X186867913Y-52728354D01*
X187002620Y-52778596D01*
X187002627Y-52778598D01*
X187062155Y-52784999D01*
X187062172Y-52785000D01*
X187709999Y-52785000D01*
X187709999Y-51881494D01*
X187814839Y-51929373D01*
X187923527Y-51945000D01*
X187996473Y-51945000D01*
X188105161Y-51929373D01*
X188210000Y-51881494D01*
X188210000Y-52785000D01*
X188857828Y-52785000D01*
X188857844Y-52784999D01*
X188917372Y-52778598D01*
X188917379Y-52778596D01*
X189052086Y-52728354D01*
X189052093Y-52728350D01*
X189167187Y-52642190D01*
X189167190Y-52642187D01*
X189253350Y-52527093D01*
X189253354Y-52527086D01*
X189302422Y-52395529D01*
X189344293Y-52339595D01*
X189409757Y-52315178D01*
X189478030Y-52330030D01*
X189506284Y-52351181D01*
X189628599Y-52473495D01*
X189725384Y-52541264D01*
X189822165Y-52609032D01*
X189822167Y-52609033D01*
X189822170Y-52609035D01*
X190036337Y-52708903D01*
X190036343Y-52708904D01*
X190036344Y-52708905D01*
X190091285Y-52723626D01*
X190264592Y-52770063D01*
X190441034Y-52785500D01*
X190499999Y-52790659D01*
X190500000Y-52790659D01*
X190500001Y-52790659D01*
X190558966Y-52785500D01*
X190735408Y-52770063D01*
X190963663Y-52708903D01*
X191177830Y-52609035D01*
X191371401Y-52473495D01*
X191538495Y-52306401D01*
X191668426Y-52120841D01*
X191723002Y-52077217D01*
X191792500Y-52070023D01*
X191854855Y-52101546D01*
X191871575Y-52120842D01*
X192001500Y-52306395D01*
X192001505Y-52306401D01*
X192168599Y-52473495D01*
X192265384Y-52541264D01*
X192362165Y-52609032D01*
X192362167Y-52609033D01*
X192362170Y-52609035D01*
X192576337Y-52708903D01*
X192576343Y-52708904D01*
X192576344Y-52708905D01*
X192631285Y-52723626D01*
X192804592Y-52770063D01*
X192981034Y-52785500D01*
X193039999Y-52790659D01*
X193040000Y-52790659D01*
X193040001Y-52790659D01*
X193098966Y-52785500D01*
X193275408Y-52770063D01*
X193503663Y-52708903D01*
X193717830Y-52609035D01*
X193911401Y-52473495D01*
X194078495Y-52306401D01*
X194208427Y-52120838D01*
X194263000Y-52077216D01*
X194332499Y-52070022D01*
X194394854Y-52101544D01*
X194411572Y-52120838D01*
X194541505Y-52306401D01*
X194708599Y-52473495D01*
X194805384Y-52541264D01*
X194902165Y-52609032D01*
X194902167Y-52609033D01*
X194902170Y-52609035D01*
X195116337Y-52708903D01*
X195116343Y-52708904D01*
X195116344Y-52708905D01*
X195171285Y-52723626D01*
X195344592Y-52770063D01*
X195521034Y-52785500D01*
X195579999Y-52790659D01*
X195580000Y-52790659D01*
X195580001Y-52790659D01*
X195638966Y-52785500D01*
X195815408Y-52770063D01*
X196043663Y-52708903D01*
X196257830Y-52609035D01*
X196451401Y-52473495D01*
X196618495Y-52306401D01*
X196748426Y-52120841D01*
X196803002Y-52077217D01*
X196872500Y-52070023D01*
X196934855Y-52101546D01*
X196951575Y-52120842D01*
X197081500Y-52306395D01*
X197081505Y-52306401D01*
X197248599Y-52473495D01*
X197345384Y-52541264D01*
X197442165Y-52609032D01*
X197442167Y-52609033D01*
X197442170Y-52609035D01*
X197656337Y-52708903D01*
X197656343Y-52708904D01*
X197656344Y-52708905D01*
X197711285Y-52723626D01*
X197884592Y-52770063D01*
X198061034Y-52785500D01*
X198119999Y-52790659D01*
X198120000Y-52790659D01*
X198120001Y-52790659D01*
X198178966Y-52785500D01*
X198355408Y-52770063D01*
X198583663Y-52708903D01*
X198797830Y-52609035D01*
X198991401Y-52473495D01*
X199113717Y-52351178D01*
X199175036Y-52317696D01*
X199244728Y-52322680D01*
X199300662Y-52364551D01*
X199317577Y-52395528D01*
X199366646Y-52527088D01*
X199366649Y-52527093D01*
X199452809Y-52642187D01*
X199452812Y-52642190D01*
X199567906Y-52728350D01*
X199567913Y-52728354D01*
X199702620Y-52778596D01*
X199702627Y-52778598D01*
X199762155Y-52784999D01*
X199762172Y-52785000D01*
X200409999Y-52785000D01*
X200409999Y-51881494D01*
X200514839Y-51929373D01*
X200623527Y-51945000D01*
X200696473Y-51945000D01*
X200805161Y-51929373D01*
X200910000Y-51881494D01*
X200910000Y-52785000D01*
X201557828Y-52785000D01*
X201557844Y-52784999D01*
X201617372Y-52778598D01*
X201617379Y-52778596D01*
X201752086Y-52728354D01*
X201752093Y-52728350D01*
X201867187Y-52642190D01*
X201867190Y-52642187D01*
X201953350Y-52527093D01*
X201953354Y-52527086D01*
X202002422Y-52395529D01*
X202044293Y-52339595D01*
X202109757Y-52315178D01*
X202178030Y-52330030D01*
X202206285Y-52351181D01*
X202328599Y-52473495D01*
X202425384Y-52541265D01*
X202522165Y-52609032D01*
X202522167Y-52609033D01*
X202522170Y-52609035D01*
X202736337Y-52708903D01*
X202736343Y-52708904D01*
X202736344Y-52708905D01*
X202791285Y-52723626D01*
X202964592Y-52770063D01*
X203141034Y-52785500D01*
X203199999Y-52790659D01*
X203200000Y-52790659D01*
X203200001Y-52790659D01*
X203258966Y-52785500D01*
X203435408Y-52770063D01*
X203663663Y-52708903D01*
X203877830Y-52609035D01*
X204071401Y-52473495D01*
X204238495Y-52306401D01*
X204368426Y-52120841D01*
X204423002Y-52077217D01*
X204492500Y-52070023D01*
X204554855Y-52101546D01*
X204571575Y-52120842D01*
X204701500Y-52306395D01*
X204701505Y-52306401D01*
X204868599Y-52473495D01*
X204965384Y-52541264D01*
X205062165Y-52609032D01*
X205062167Y-52609033D01*
X205062170Y-52609035D01*
X205276337Y-52708903D01*
X205276343Y-52708904D01*
X205276344Y-52708905D01*
X205331285Y-52723626D01*
X205504592Y-52770063D01*
X205681034Y-52785500D01*
X205739999Y-52790659D01*
X205740000Y-52790659D01*
X205740001Y-52790659D01*
X205798966Y-52785500D01*
X205975408Y-52770063D01*
X206203663Y-52708903D01*
X206417830Y-52609035D01*
X206611401Y-52473495D01*
X206778495Y-52306401D01*
X206908426Y-52120841D01*
X206963002Y-52077217D01*
X207032500Y-52070023D01*
X207094855Y-52101546D01*
X207111575Y-52120842D01*
X207241500Y-52306395D01*
X207241505Y-52306401D01*
X207408599Y-52473495D01*
X207505384Y-52541265D01*
X207602165Y-52609032D01*
X207602167Y-52609033D01*
X207602170Y-52609035D01*
X207816337Y-52708903D01*
X207816343Y-52708904D01*
X207816344Y-52708905D01*
X207871285Y-52723626D01*
X208044592Y-52770063D01*
X208221034Y-52785500D01*
X208279999Y-52790659D01*
X208280000Y-52790659D01*
X208280001Y-52790659D01*
X208338966Y-52785500D01*
X208515408Y-52770063D01*
X208743663Y-52708903D01*
X208957830Y-52609035D01*
X209151401Y-52473495D01*
X209318495Y-52306401D01*
X209448426Y-52120841D01*
X209503002Y-52077217D01*
X209572500Y-52070023D01*
X209634855Y-52101546D01*
X209651575Y-52120842D01*
X209781500Y-52306395D01*
X209781505Y-52306401D01*
X209948599Y-52473495D01*
X210045384Y-52541264D01*
X210142165Y-52609032D01*
X210142167Y-52609033D01*
X210142170Y-52609035D01*
X210356337Y-52708903D01*
X210356343Y-52708904D01*
X210356344Y-52708905D01*
X210411285Y-52723626D01*
X210584592Y-52770063D01*
X210761034Y-52785500D01*
X210819999Y-52790659D01*
X210820000Y-52790659D01*
X210820001Y-52790659D01*
X210878966Y-52785500D01*
X211055408Y-52770063D01*
X211283663Y-52708903D01*
X211497830Y-52609035D01*
X211691401Y-52473495D01*
X211813329Y-52351566D01*
X211874648Y-52318084D01*
X211944340Y-52323068D01*
X212000274Y-52364939D01*
X212017189Y-52395917D01*
X212066202Y-52527328D01*
X212066206Y-52527335D01*
X212152452Y-52642544D01*
X212152455Y-52642547D01*
X212267664Y-52728793D01*
X212267671Y-52728797D01*
X212402517Y-52779091D01*
X212402516Y-52779091D01*
X212409444Y-52779835D01*
X212462127Y-52785500D01*
X214257872Y-52785499D01*
X214317483Y-52779091D01*
X214452331Y-52728796D01*
X214567546Y-52642546D01*
X214653796Y-52527331D01*
X214702810Y-52395916D01*
X214744681Y-52339984D01*
X214810145Y-52315566D01*
X214878418Y-52330417D01*
X214906673Y-52351569D01*
X215028599Y-52473495D01*
X215125384Y-52541264D01*
X215222165Y-52609032D01*
X215222167Y-52609033D01*
X215222170Y-52609035D01*
X215436337Y-52708903D01*
X215436343Y-52708904D01*
X215436344Y-52708905D01*
X215491285Y-52723626D01*
X215664592Y-52770063D01*
X215841034Y-52785500D01*
X215899999Y-52790659D01*
X215900000Y-52790659D01*
X215900001Y-52790659D01*
X215958966Y-52785500D01*
X216135408Y-52770063D01*
X216363663Y-52708903D01*
X216577830Y-52609035D01*
X216771401Y-52473495D01*
X216938495Y-52306401D01*
X217068426Y-52120841D01*
X217123002Y-52077217D01*
X217192500Y-52070023D01*
X217254855Y-52101546D01*
X217271575Y-52120842D01*
X217401500Y-52306395D01*
X217401505Y-52306401D01*
X217568599Y-52473495D01*
X217665384Y-52541265D01*
X217762165Y-52609032D01*
X217762167Y-52609033D01*
X217762170Y-52609035D01*
X217976337Y-52708903D01*
X217976343Y-52708904D01*
X217976344Y-52708905D01*
X218031285Y-52723626D01*
X218204592Y-52770063D01*
X218381034Y-52785500D01*
X218439999Y-52790659D01*
X218440000Y-52790659D01*
X218440001Y-52790659D01*
X218498966Y-52785500D01*
X218675408Y-52770063D01*
X218903663Y-52708903D01*
X219117830Y-52609035D01*
X219311401Y-52473495D01*
X219478495Y-52306401D01*
X219608426Y-52120841D01*
X219663002Y-52077217D01*
X219732500Y-52070023D01*
X219794855Y-52101546D01*
X219811575Y-52120842D01*
X219941500Y-52306395D01*
X219941505Y-52306401D01*
X220108599Y-52473495D01*
X220205384Y-52541264D01*
X220302165Y-52609032D01*
X220302167Y-52609033D01*
X220302170Y-52609035D01*
X220516337Y-52708903D01*
X220516343Y-52708904D01*
X220516344Y-52708905D01*
X220571285Y-52723626D01*
X220744592Y-52770063D01*
X220921034Y-52785500D01*
X220979999Y-52790659D01*
X220980000Y-52790659D01*
X220980001Y-52790659D01*
X221038966Y-52785500D01*
X221215408Y-52770063D01*
X221443663Y-52708903D01*
X221657830Y-52609035D01*
X221851401Y-52473495D01*
X222018495Y-52306401D01*
X222148426Y-52120841D01*
X222203002Y-52077217D01*
X222272500Y-52070023D01*
X222334855Y-52101546D01*
X222351575Y-52120842D01*
X222481500Y-52306395D01*
X222481505Y-52306401D01*
X222648599Y-52473495D01*
X222745384Y-52541265D01*
X222842165Y-52609032D01*
X222842167Y-52609033D01*
X222842170Y-52609035D01*
X223056337Y-52708903D01*
X223056343Y-52708904D01*
X223056344Y-52708905D01*
X223111285Y-52723626D01*
X223284592Y-52770063D01*
X223461034Y-52785500D01*
X223519999Y-52790659D01*
X223520000Y-52790659D01*
X223520001Y-52790659D01*
X223578966Y-52785500D01*
X223755408Y-52770063D01*
X223983663Y-52708903D01*
X224197830Y-52609035D01*
X224391401Y-52473495D01*
X224513717Y-52351178D01*
X224575036Y-52317696D01*
X224644728Y-52322680D01*
X224700662Y-52364551D01*
X224717577Y-52395528D01*
X224766646Y-52527088D01*
X224766649Y-52527093D01*
X224852809Y-52642187D01*
X224852812Y-52642190D01*
X224967906Y-52728350D01*
X224967913Y-52728354D01*
X225102620Y-52778596D01*
X225102627Y-52778598D01*
X225162155Y-52784999D01*
X225162172Y-52785000D01*
X225810000Y-52785000D01*
X225810000Y-51881494D01*
X225914839Y-51929373D01*
X226023527Y-51945000D01*
X226096473Y-51945000D01*
X226205161Y-51929373D01*
X226310000Y-51881494D01*
X226310000Y-52785000D01*
X226957828Y-52785000D01*
X226957844Y-52784999D01*
X227017372Y-52778598D01*
X227017379Y-52778596D01*
X227152086Y-52728354D01*
X227152093Y-52728350D01*
X227267187Y-52642190D01*
X227267190Y-52642187D01*
X227353350Y-52527093D01*
X227353354Y-52527086D01*
X227402422Y-52395529D01*
X227444293Y-52339595D01*
X227509757Y-52315178D01*
X227578030Y-52330030D01*
X227606285Y-52351181D01*
X227728599Y-52473495D01*
X227825384Y-52541265D01*
X227922165Y-52609032D01*
X227922167Y-52609033D01*
X227922170Y-52609035D01*
X228136337Y-52708903D01*
X228136343Y-52708904D01*
X228136344Y-52708905D01*
X228191285Y-52723626D01*
X228364592Y-52770063D01*
X228541034Y-52785500D01*
X228599999Y-52790659D01*
X228600000Y-52790659D01*
X228600001Y-52790659D01*
X228658966Y-52785500D01*
X228835408Y-52770063D01*
X229063663Y-52708903D01*
X229277830Y-52609035D01*
X229471401Y-52473495D01*
X229638495Y-52306401D01*
X229768426Y-52120841D01*
X229823002Y-52077217D01*
X229892500Y-52070023D01*
X229954855Y-52101546D01*
X229971575Y-52120842D01*
X230101500Y-52306395D01*
X230101505Y-52306401D01*
X230268599Y-52473495D01*
X230365384Y-52541264D01*
X230462165Y-52609032D01*
X230462167Y-52609033D01*
X230462170Y-52609035D01*
X230676337Y-52708903D01*
X230676343Y-52708904D01*
X230676344Y-52708905D01*
X230731285Y-52723626D01*
X230904592Y-52770063D01*
X231081034Y-52785500D01*
X231139999Y-52790659D01*
X231140000Y-52790659D01*
X231140001Y-52790659D01*
X231198966Y-52785500D01*
X231375408Y-52770063D01*
X231603663Y-52708903D01*
X231817830Y-52609035D01*
X232011401Y-52473495D01*
X232178495Y-52306401D01*
X232314035Y-52112830D01*
X232413903Y-51898663D01*
X232475063Y-51670408D01*
X232495659Y-51435000D01*
X232475063Y-51199592D01*
X232421998Y-51001549D01*
X232413905Y-50971344D01*
X232413904Y-50971343D01*
X232413903Y-50971337D01*
X232314035Y-50757171D01*
X232308425Y-50749158D01*
X232178494Y-50563597D01*
X232011402Y-50396506D01*
X232011395Y-50396501D01*
X231817834Y-50260967D01*
X231817830Y-50260965D01*
X231746727Y-50227809D01*
X231603663Y-50161097D01*
X231603659Y-50161096D01*
X231603655Y-50161094D01*
X231375413Y-50099938D01*
X231375403Y-50099936D01*
X231140001Y-50079341D01*
X231139999Y-50079341D01*
X230904596Y-50099936D01*
X230904586Y-50099938D01*
X230676344Y-50161094D01*
X230676335Y-50161098D01*
X230462171Y-50260964D01*
X230462169Y-50260965D01*
X230268597Y-50396505D01*
X230101505Y-50563597D01*
X229971575Y-50749158D01*
X229916998Y-50792783D01*
X229847500Y-50799977D01*
X229785145Y-50768454D01*
X229768425Y-50749158D01*
X229638494Y-50563597D01*
X229471402Y-50396506D01*
X229471395Y-50396501D01*
X229277834Y-50260967D01*
X229277830Y-50260965D01*
X229206727Y-50227809D01*
X229063663Y-50161097D01*
X229063659Y-50161096D01*
X229063655Y-50161094D01*
X228835413Y-50099938D01*
X228835403Y-50099936D01*
X228600001Y-50079341D01*
X228599999Y-50079341D01*
X228364596Y-50099936D01*
X228364586Y-50099938D01*
X228136344Y-50161094D01*
X228136335Y-50161098D01*
X227922171Y-50260964D01*
X227922169Y-50260965D01*
X227728600Y-50396503D01*
X227606284Y-50518819D01*
X227544961Y-50552303D01*
X227475269Y-50547319D01*
X227419336Y-50505447D01*
X227402421Y-50474470D01*
X227353354Y-50342913D01*
X227353350Y-50342906D01*
X227267190Y-50227812D01*
X227267187Y-50227809D01*
X227152093Y-50141649D01*
X227152086Y-50141645D01*
X227017379Y-50091403D01*
X227017372Y-50091401D01*
X226957844Y-50085000D01*
X226310000Y-50085000D01*
X226310000Y-50988505D01*
X226205161Y-50940627D01*
X226096473Y-50925000D01*
X226023527Y-50925000D01*
X225914839Y-50940627D01*
X225810000Y-50988505D01*
X225810000Y-50085000D01*
X225162155Y-50085000D01*
X225102627Y-50091401D01*
X225102620Y-50091403D01*
X224967913Y-50141645D01*
X224967906Y-50141649D01*
X224852812Y-50227809D01*
X224852809Y-50227812D01*
X224766649Y-50342906D01*
X224766645Y-50342913D01*
X224717578Y-50474470D01*
X224675707Y-50530404D01*
X224610242Y-50554821D01*
X224541969Y-50539969D01*
X224513715Y-50518819D01*
X224468977Y-50474081D01*
X224391401Y-50396505D01*
X224391397Y-50396502D01*
X224391396Y-50396501D01*
X224197834Y-50260967D01*
X224197830Y-50260965D01*
X224126727Y-50227809D01*
X223983663Y-50161097D01*
X223983659Y-50161096D01*
X223983655Y-50161094D01*
X223755413Y-50099938D01*
X223755403Y-50099936D01*
X223520001Y-50079341D01*
X223519999Y-50079341D01*
X223284596Y-50099936D01*
X223284586Y-50099938D01*
X223056344Y-50161094D01*
X223056335Y-50161098D01*
X222842171Y-50260964D01*
X222842169Y-50260965D01*
X222648597Y-50396505D01*
X222481505Y-50563597D01*
X222351575Y-50749158D01*
X222296998Y-50792783D01*
X222227500Y-50799977D01*
X222165145Y-50768454D01*
X222148425Y-50749158D01*
X222018494Y-50563597D01*
X221851402Y-50396506D01*
X221851395Y-50396501D01*
X221657834Y-50260967D01*
X221657830Y-50260965D01*
X221586727Y-50227809D01*
X221443663Y-50161097D01*
X221443659Y-50161096D01*
X221443655Y-50161094D01*
X221215413Y-50099938D01*
X221215403Y-50099936D01*
X220980001Y-50079341D01*
X220979999Y-50079341D01*
X220744596Y-50099936D01*
X220744586Y-50099938D01*
X220516344Y-50161094D01*
X220516335Y-50161098D01*
X220302171Y-50260964D01*
X220302169Y-50260965D01*
X220108597Y-50396505D01*
X219941505Y-50563597D01*
X219811575Y-50749158D01*
X219756998Y-50792783D01*
X219687500Y-50799977D01*
X219625145Y-50768454D01*
X219608425Y-50749158D01*
X219478494Y-50563597D01*
X219311402Y-50396506D01*
X219311395Y-50396501D01*
X219117834Y-50260967D01*
X219117830Y-50260965D01*
X219046727Y-50227809D01*
X218903663Y-50161097D01*
X218903659Y-50161096D01*
X218903655Y-50161094D01*
X218675413Y-50099938D01*
X218675403Y-50099936D01*
X218440001Y-50079341D01*
X218439999Y-50079341D01*
X218204596Y-50099936D01*
X218204586Y-50099938D01*
X217976344Y-50161094D01*
X217976335Y-50161098D01*
X217762171Y-50260964D01*
X217762169Y-50260965D01*
X217568597Y-50396505D01*
X217401505Y-50563597D01*
X217271575Y-50749158D01*
X217216998Y-50792783D01*
X217147500Y-50799977D01*
X217085145Y-50768454D01*
X217068425Y-50749158D01*
X216938494Y-50563597D01*
X216771402Y-50396506D01*
X216771395Y-50396501D01*
X216577834Y-50260967D01*
X216577830Y-50260965D01*
X216506727Y-50227809D01*
X216363663Y-50161097D01*
X216363659Y-50161096D01*
X216363655Y-50161094D01*
X216135413Y-50099938D01*
X216135403Y-50099936D01*
X215900001Y-50079341D01*
X215899999Y-50079341D01*
X215664596Y-50099936D01*
X215664586Y-50099938D01*
X215436344Y-50161094D01*
X215436335Y-50161098D01*
X215222171Y-50260964D01*
X215222169Y-50260965D01*
X215028600Y-50396503D01*
X214906673Y-50518430D01*
X214845350Y-50551914D01*
X214775658Y-50546930D01*
X214719725Y-50505058D01*
X214702810Y-50474081D01*
X214653797Y-50342671D01*
X214653793Y-50342664D01*
X214567547Y-50227455D01*
X214567544Y-50227452D01*
X214452335Y-50141206D01*
X214452328Y-50141202D01*
X214317482Y-50090908D01*
X214317483Y-50090908D01*
X214257883Y-50084501D01*
X214257881Y-50084500D01*
X214257873Y-50084500D01*
X214257864Y-50084500D01*
X212462129Y-50084500D01*
X212462123Y-50084501D01*
X212402516Y-50090908D01*
X212267671Y-50141202D01*
X212267664Y-50141206D01*
X212152455Y-50227452D01*
X212152452Y-50227455D01*
X212066206Y-50342664D01*
X212066203Y-50342669D01*
X212017189Y-50474083D01*
X211975317Y-50530016D01*
X211909853Y-50554433D01*
X211841580Y-50539581D01*
X211813326Y-50518430D01*
X211691402Y-50396506D01*
X211691395Y-50396501D01*
X211497834Y-50260967D01*
X211497830Y-50260965D01*
X211426727Y-50227809D01*
X211283663Y-50161097D01*
X211283659Y-50161096D01*
X211283655Y-50161094D01*
X211055413Y-50099938D01*
X211055403Y-50099936D01*
X210820001Y-50079341D01*
X210819999Y-50079341D01*
X210584596Y-50099936D01*
X210584586Y-50099938D01*
X210356344Y-50161094D01*
X210356335Y-50161098D01*
X210142171Y-50260964D01*
X210142169Y-50260965D01*
X209948597Y-50396505D01*
X209781508Y-50563594D01*
X209651574Y-50749159D01*
X209596997Y-50792784D01*
X209527498Y-50799976D01*
X209465144Y-50768454D01*
X209448424Y-50749158D01*
X209318494Y-50563597D01*
X209151402Y-50396506D01*
X209151395Y-50396501D01*
X208957834Y-50260967D01*
X208957830Y-50260965D01*
X208886727Y-50227809D01*
X208743663Y-50161097D01*
X208743659Y-50161096D01*
X208743655Y-50161094D01*
X208515413Y-50099938D01*
X208515403Y-50099936D01*
X208280001Y-50079341D01*
X208279999Y-50079341D01*
X208044596Y-50099936D01*
X208044586Y-50099938D01*
X207816344Y-50161094D01*
X207816335Y-50161098D01*
X207602171Y-50260964D01*
X207602169Y-50260965D01*
X207408597Y-50396505D01*
X207241505Y-50563597D01*
X207111575Y-50749158D01*
X207056998Y-50792783D01*
X206987500Y-50799977D01*
X206925145Y-50768454D01*
X206908425Y-50749158D01*
X206778494Y-50563597D01*
X206611402Y-50396506D01*
X206611395Y-50396501D01*
X206417834Y-50260967D01*
X206417830Y-50260965D01*
X206346727Y-50227809D01*
X206203663Y-50161097D01*
X206203659Y-50161096D01*
X206203655Y-50161094D01*
X205975413Y-50099938D01*
X205975403Y-50099936D01*
X205740001Y-50079341D01*
X205739999Y-50079341D01*
X205504596Y-50099936D01*
X205504586Y-50099938D01*
X205276344Y-50161094D01*
X205276335Y-50161098D01*
X205062171Y-50260964D01*
X205062169Y-50260965D01*
X204868597Y-50396505D01*
X204701505Y-50563597D01*
X204571575Y-50749158D01*
X204516998Y-50792783D01*
X204447500Y-50799977D01*
X204385145Y-50768454D01*
X204368425Y-50749158D01*
X204238494Y-50563597D01*
X204071402Y-50396506D01*
X204071395Y-50396501D01*
X203877834Y-50260967D01*
X203877830Y-50260965D01*
X203806727Y-50227809D01*
X203663663Y-50161097D01*
X203663659Y-50161096D01*
X203663655Y-50161094D01*
X203435413Y-50099938D01*
X203435403Y-50099936D01*
X203200001Y-50079341D01*
X203199999Y-50079341D01*
X202964596Y-50099936D01*
X202964586Y-50099938D01*
X202736344Y-50161094D01*
X202736335Y-50161098D01*
X202522171Y-50260964D01*
X202522169Y-50260965D01*
X202328600Y-50396503D01*
X202206284Y-50518819D01*
X202144961Y-50552303D01*
X202075269Y-50547319D01*
X202019336Y-50505447D01*
X202002421Y-50474470D01*
X201953354Y-50342913D01*
X201953350Y-50342906D01*
X201867190Y-50227812D01*
X201867187Y-50227809D01*
X201752093Y-50141649D01*
X201752086Y-50141645D01*
X201617379Y-50091403D01*
X201617372Y-50091401D01*
X201557844Y-50085000D01*
X200910000Y-50085000D01*
X200910000Y-50988505D01*
X200805161Y-50940627D01*
X200696473Y-50925000D01*
X200623527Y-50925000D01*
X200514839Y-50940627D01*
X200409999Y-50988505D01*
X200410000Y-50085000D01*
X199762155Y-50085000D01*
X199702627Y-50091401D01*
X199702620Y-50091403D01*
X199567913Y-50141645D01*
X199567906Y-50141649D01*
X199452812Y-50227809D01*
X199452809Y-50227812D01*
X199366649Y-50342906D01*
X199366645Y-50342913D01*
X199317578Y-50474470D01*
X199275707Y-50530404D01*
X199210242Y-50554821D01*
X199141969Y-50539969D01*
X199113715Y-50518819D01*
X199068977Y-50474081D01*
X198991401Y-50396505D01*
X198991397Y-50396502D01*
X198991396Y-50396501D01*
X198797834Y-50260967D01*
X198797830Y-50260965D01*
X198726727Y-50227809D01*
X198583663Y-50161097D01*
X198583659Y-50161096D01*
X198583655Y-50161094D01*
X198355413Y-50099938D01*
X198355403Y-50099936D01*
X198120001Y-50079341D01*
X198119999Y-50079341D01*
X197884596Y-50099936D01*
X197884586Y-50099938D01*
X197656344Y-50161094D01*
X197656335Y-50161098D01*
X197442171Y-50260964D01*
X197442169Y-50260965D01*
X197248597Y-50396505D01*
X197081505Y-50563597D01*
X196951575Y-50749158D01*
X196896998Y-50792783D01*
X196827500Y-50799977D01*
X196765145Y-50768454D01*
X196748425Y-50749158D01*
X196618494Y-50563597D01*
X196451402Y-50396506D01*
X196451395Y-50396501D01*
X196257834Y-50260967D01*
X196257830Y-50260965D01*
X196186727Y-50227809D01*
X196043663Y-50161097D01*
X196043659Y-50161096D01*
X196043655Y-50161094D01*
X195815413Y-50099938D01*
X195815403Y-50099936D01*
X195580001Y-50079341D01*
X195579999Y-50079341D01*
X195344596Y-50099936D01*
X195344586Y-50099938D01*
X195116344Y-50161094D01*
X195116335Y-50161098D01*
X194902171Y-50260964D01*
X194902169Y-50260965D01*
X194740791Y-50373962D01*
X194674584Y-50396290D01*
X194606817Y-50379278D01*
X194581987Y-50360068D01*
X194066976Y-49845057D01*
X194057131Y-49832768D01*
X194056913Y-49832949D01*
X194051940Y-49826937D01*
X194002043Y-49780081D01*
X194000643Y-49778724D01*
X193980397Y-49758477D01*
X193974896Y-49754211D01*
X193970448Y-49750412D01*
X193936368Y-49718408D01*
X193936363Y-49718404D01*
X193918722Y-49708706D01*
X193902457Y-49698022D01*
X193886563Y-49685693D01*
X193886562Y-49685692D01*
X193863812Y-49675847D01*
X193843654Y-49667123D01*
X193838407Y-49664553D01*
X193797437Y-49642029D01*
X193797428Y-49642026D01*
X193777934Y-49637020D01*
X193759533Y-49630720D01*
X193741059Y-49622726D01*
X193741052Y-49622724D01*
X193694887Y-49615413D01*
X193689163Y-49614228D01*
X193643879Y-49602600D01*
X193643872Y-49602600D01*
X193623742Y-49602600D01*
X193604343Y-49601073D01*
X193584468Y-49597925D01*
X193584467Y-49597925D01*
X193537921Y-49602325D01*
X193532083Y-49602600D01*
X179511500Y-49602600D01*
X179444461Y-49582915D01*
X179398706Y-49530111D01*
X179387500Y-49478600D01*
X179387500Y-47749000D01*
X179407185Y-47681961D01*
X179459989Y-47636206D01*
X179511500Y-47625000D01*
X233238500Y-47625000D01*
X233305539Y-47644685D01*
G37*
%TD.AperFunction*%
%TD*%
M02*
