%TF.GenerationSoftware,KiCad,Pcbnew,7.0.5*%
%TF.CreationDate,2023-06-06T19:01:50+08:00*%
%TF.ProjectId,JosEffigy-All-Keyboard-Mixbox,4a6f7345-6666-4696-9779-2d416c6c2d4b,rev?*%
%TF.SameCoordinates,Original*%
%TF.FileFunction,Copper,L2,Bot*%
%TF.FilePolarity,Positive*%
%FSLAX46Y46*%
G04 Gerber Fmt 4.6, Leading zero omitted, Abs format (unit mm)*
G04 Created by KiCad (PCBNEW 7.0.5) date 2023-06-06 19:01:50*
%MOMM*%
%LPD*%
G01*
G04 APERTURE LIST*
G04 Aperture macros list*
%AMRoundRect*
0 Rectangle with rounded corners*
0 $1 Rounding radius*
0 $2 $3 $4 $5 $6 $7 $8 $9 X,Y pos of 4 corners*
0 Add a 4 corners polygon primitive as box body*
4,1,4,$2,$3,$4,$5,$6,$7,$8,$9,$2,$3,0*
0 Add four circle primitives for the rounded corners*
1,1,$1+$1,$2,$3*
1,1,$1+$1,$4,$5*
1,1,$1+$1,$6,$7*
1,1,$1+$1,$8,$9*
0 Add four rect primitives between the rounded corners*
20,1,$1+$1,$2,$3,$4,$5,0*
20,1,$1+$1,$4,$5,$6,$7,0*
20,1,$1+$1,$6,$7,$8,$9,0*
20,1,$1+$1,$8,$9,$2,$3,0*%
%AMRotRect*
0 Rectangle, with rotation*
0 The origin of the aperture is its center*
0 $1 length*
0 $2 width*
0 $3 Rotation angle, in degrees counterclockwise*
0 Add horizontal line*
21,1,$1,$2,0,0,$3*%
G04 Aperture macros list end*
%TA.AperFunction,ComponentPad*%
%ADD10C,3.100000*%
%TD*%
%TA.AperFunction,ConnectorPad*%
%ADD11C,4.500000*%
%TD*%
%TA.AperFunction,SMDPad,CuDef*%
%ADD12RoundRect,0.250000X-1.525000X-1.000000X1.525000X-1.000000X1.525000X1.000000X-1.525000X1.000000X0*%
%TD*%
%TA.AperFunction,ComponentPad*%
%ADD13C,3.600000*%
%TD*%
%TA.AperFunction,SMDPad,CuDef*%
%ADD14RoundRect,0.250000X-1.699587X-0.661082X1.283763X-1.295213X1.699587X0.661082X-1.283763X1.295213X0*%
%TD*%
%TA.AperFunction,SMDPad,CuDef*%
%ADD15R,1.700000X1.000000*%
%TD*%
%TA.AperFunction,SMDPad,CuDef*%
%ADD16RotRect,1.700000X1.000000X168.000000*%
%TD*%
%TA.AperFunction,ComponentPad*%
%ADD17O,1.700000X1.700000*%
%TD*%
%TA.AperFunction,SMDPad,CuDef*%
%ADD18R,1.700000X3.500000*%
%TD*%
%TA.AperFunction,ComponentPad*%
%ADD19R,1.700000X1.700000*%
%TD*%
%TA.AperFunction,SMDPad,CuDef*%
%ADD20R,3.500000X1.700000*%
%TD*%
%TA.AperFunction,ViaPad*%
%ADD21C,0.800000*%
%TD*%
%TA.AperFunction,Conductor*%
%ADD22C,0.254000*%
%TD*%
%TA.AperFunction,Conductor*%
%ADD23C,0.381000*%
%TD*%
G04 APERTURE END LIST*
D10*
%TO.P,REF\u002A\u002A,1*%
%TO.N,N/C*%
X229870000Y-156210000D03*
D11*
X229870000Y-156210000D03*
%TD*%
D10*
%TO.P,REF\u002A\u002A,1*%
%TO.N,N/C*%
X60960000Y-156210000D03*
D11*
X60960000Y-156210000D03*
%TD*%
D10*
%TO.P,REF\u002A\u002A,1*%
%TO.N,N/C*%
X60960000Y-40640000D03*
D11*
X60960000Y-40640000D03*
%TD*%
D10*
%TO.P,REF\u002A\u002A,1*%
%TO.N,N/C*%
X229870000Y-40640000D03*
D11*
X229870000Y-40640000D03*
%TD*%
D12*
%TO.P,MX16,2,ROW*%
%TO.N,4P*%
X227511300Y-89535000D03*
%TO.P,MX16,1,COL*%
%TO.N,GND*%
X215606300Y-92075000D03*
D13*
%TO.P,MX16,2,ROW*%
%TO.N,4P*%
X224731300Y-89535000D03*
%TO.P,MX16,1,COL*%
%TO.N,GND*%
X218381300Y-92075000D03*
%TD*%
D12*
%TO.P,MX15,2,ROW*%
%TO.N,3P*%
X208461300Y-84296200D03*
%TO.P,MX15,1,COL*%
%TO.N,GND*%
X196556300Y-86836200D03*
D13*
%TO.P,MX15,2,ROW*%
%TO.N,3P*%
X205681300Y-84296200D03*
%TO.P,MX15,1,COL*%
%TO.N,GND*%
X199331300Y-86836200D03*
%TD*%
D12*
%TO.P,MX14,2,ROW*%
%TO.N,2P*%
X189411300Y-84296200D03*
%TO.P,MX14,1,COL*%
%TO.N,GND*%
X177506300Y-86836200D03*
D13*
%TO.P,MX14,2,ROW*%
%TO.N,2P*%
X186631300Y-84296200D03*
%TO.P,MX14,1,COL*%
%TO.N,GND*%
X180281300Y-86836200D03*
%TD*%
D12*
%TO.P,MX13,2,ROW*%
%TO.N,1P*%
X170361300Y-89535000D03*
%TO.P,MX13,1,COL*%
%TO.N,GND*%
X158456300Y-92075000D03*
D13*
%TO.P,MX13,2,ROW*%
%TO.N,1P*%
X167581300Y-89535000D03*
%TO.P,MX13,1,COL*%
%TO.N,GND*%
X161231300Y-92075000D03*
%TD*%
D12*
%TO.P,MX12,2,ROW*%
%TO.N,4K*%
X227511300Y-108585000D03*
%TO.P,MX12,1,COL*%
%TO.N,GND*%
X215606300Y-111125000D03*
D13*
%TO.P,MX12,2,ROW*%
%TO.N,4K*%
X224731300Y-108585000D03*
%TO.P,MX12,1,COL*%
%TO.N,GND*%
X218381300Y-111125000D03*
%TD*%
D12*
%TO.P,MX11,2,ROW*%
%TO.N,3K*%
X208461300Y-103346200D03*
%TO.P,MX11,1,COL*%
%TO.N,GND*%
X196556300Y-105886200D03*
D13*
%TO.P,MX11,2,ROW*%
%TO.N,3K*%
X205681300Y-103346200D03*
%TO.P,MX11,1,COL*%
%TO.N,GND*%
X199331300Y-105886200D03*
%TD*%
D12*
%TO.P,MX10,2,ROW*%
%TO.N,2K*%
X189411300Y-103346200D03*
%TO.P,MX10,1,COL*%
%TO.N,GND*%
X177506300Y-105886200D03*
D13*
%TO.P,MX10,2,ROW*%
%TO.N,2K*%
X186631300Y-103346200D03*
%TO.P,MX10,1,COL*%
%TO.N,GND*%
X180281300Y-105886200D03*
%TD*%
D12*
%TO.P,MX9,2,ROW*%
%TO.N,1K*%
X170361300Y-108585000D03*
%TO.P,MX9,1,COL*%
%TO.N,GND*%
X158456300Y-111125000D03*
D13*
%TO.P,MX9,2,ROW*%
%TO.N,1K*%
X167581300Y-108585000D03*
%TO.P,MX9,1,COL*%
%TO.N,GND*%
X161231300Y-111125000D03*
%TD*%
%TO.P,MX8,1,COL*%
%TO.N,GND*%
X133450100Y-143986200D03*
%TO.P,MX8,2,ROW*%
%TO.N,UP*%
X139800100Y-141446200D03*
D12*
%TO.P,MX8,1,COL*%
%TO.N,GND*%
X130675100Y-143986200D03*
%TO.P,MX8,2,ROW*%
%TO.N,UP*%
X142580100Y-141446200D03*
%TD*%
%TO.P,MX7,2,ROW*%
%TO.N,START*%
X114163800Y-56197500D03*
%TO.P,MX7,1,COL*%
%TO.N,GND*%
X102258800Y-58737500D03*
D13*
%TO.P,MX7,2,ROW*%
%TO.N,START*%
X111383800Y-56197500D03*
%TO.P,MX7,1,COL*%
%TO.N,GND*%
X105033800Y-58737500D03*
%TD*%
D12*
%TO.P,MX6,2,ROW*%
%TO.N,SELECT*%
X95113800Y-56197500D03*
%TO.P,MX6,1,COL*%
%TO.N,GND*%
X83208800Y-58737500D03*
D13*
%TO.P,MX6,2,ROW*%
%TO.N,SELECT*%
X92333800Y-56197500D03*
%TO.P,MX6,1,COL*%
%TO.N,GND*%
X85983800Y-58737500D03*
%TD*%
D12*
%TO.P,MX5,2,ROW*%
%TO.N,HOME*%
X76063800Y-56197500D03*
%TO.P,MX5,1,COL*%
%TO.N,GND*%
X64158800Y-58737500D03*
D13*
%TO.P,MX5,2,ROW*%
%TO.N,HOME*%
X73283800Y-56197500D03*
%TO.P,MX5,1,COL*%
%TO.N,GND*%
X66933800Y-58737500D03*
%TD*%
%TO.P,MX4,1,COL*%
%TO.N,GND*%
X91150153Y-84175562D03*
%TO.P,MX4,2,ROW*%
%TO.N,UP*%
X97889486Y-83011306D03*
D14*
%TO.P,MX4,1,COL*%
%TO.N,GND*%
X88435794Y-83598607D03*
%TO.P,MX4,2,ROW*%
%TO.N,UP*%
X100608737Y-83589300D03*
%TD*%
D13*
%TO.P,MX3,1,COL*%
%TO.N,GND*%
X105771053Y-106764462D03*
%TO.P,MX3,2,ROW*%
%TO.N,RIGHT*%
X112510386Y-105600206D03*
D14*
%TO.P,MX3,1,COL*%
%TO.N,GND*%
X103056694Y-106187507D03*
%TO.P,MX3,2,ROW*%
%TO.N,RIGHT*%
X115229637Y-106178200D03*
%TD*%
%TO.P,MX2,2,ROW*%
%TO.N,DOWN*%
X96647937Y-102223000D03*
%TO.P,MX2,1,COL*%
%TO.N,GND*%
X84474994Y-102232307D03*
D13*
%TO.P,MX2,2,ROW*%
%TO.N,DOWN*%
X93928686Y-101645006D03*
%TO.P,MX2,1,COL*%
%TO.N,GND*%
X87189353Y-102809262D03*
%TD*%
D14*
%TO.P,MX1,2,ROW*%
%TO.N,LEFT*%
X77962237Y-98256800D03*
%TO.P,MX1,1,COL*%
%TO.N,GND*%
X65789294Y-98266107D03*
D13*
%TO.P,MX1,2,ROW*%
%TO.N,LEFT*%
X75242986Y-97678806D03*
%TO.P,MX1,1,COL*%
%TO.N,GND*%
X68503653Y-98843062D03*
%TD*%
D15*
%TO.P,D16,2,VSS*%
%TO.N,GND*%
X219500000Y-100714000D03*
%TO.P,D16,1,DOUT*%
%TO.N,unconnected-(D16-DOUT-Pad1)*%
X219500000Y-99314000D03*
%TO.P,D16,3,DIN*%
%TO.N,Net-(D15-DOUT)*%
X225000000Y-100714000D03*
%TO.P,D16,4,VDD*%
%TO.N,VCC*%
X225000000Y-99314000D03*
%TD*%
%TO.P,D15,2,VSS*%
%TO.N,GND*%
X200450000Y-95188000D03*
%TO.P,D15,1,DOUT*%
%TO.N,Net-(D15-DOUT)*%
X200450000Y-93788000D03*
%TO.P,D15,3,DIN*%
%TO.N,Net-(D14-DOUT)*%
X205950000Y-95188000D03*
%TO.P,D15,4,VDD*%
%TO.N,VCC*%
X205950000Y-93788000D03*
%TD*%
%TO.P,D14,2,VSS*%
%TO.N,GND*%
X181400000Y-95188000D03*
%TO.P,D14,1,DOUT*%
%TO.N,Net-(D14-DOUT)*%
X181400000Y-93788000D03*
%TO.P,D14,3,DIN*%
%TO.N,Net-(D13-DOUT)*%
X186900000Y-95188000D03*
%TO.P,D14,4,VDD*%
%TO.N,VCC*%
X186900000Y-93788000D03*
%TD*%
%TO.P,D13,2,VSS*%
%TO.N,GND*%
X167850000Y-99314000D03*
%TO.P,D13,1,DOUT*%
%TO.N,Net-(D13-DOUT)*%
X167850000Y-100714000D03*
%TO.P,D13,3,DIN*%
%TO.N,Net-(D12-DOUT)*%
X162350000Y-99314000D03*
%TO.P,D13,4,VDD*%
%TO.N,VCC*%
X162350000Y-100714000D03*
%TD*%
%TO.P,D12,2,VSS*%
%TO.N,GND*%
X219500000Y-119764000D03*
%TO.P,D12,1,DOUT*%
%TO.N,Net-(D12-DOUT)*%
X219500000Y-118364000D03*
%TO.P,D12,3,DIN*%
%TO.N,Net-(D11-DOUT)*%
X225000000Y-119764000D03*
%TO.P,D12,4,VDD*%
%TO.N,VCC*%
X225000000Y-118364000D03*
%TD*%
%TO.P,D11,2,VSS*%
%TO.N,GND*%
X205950000Y-113092000D03*
%TO.P,D11,1,DOUT*%
%TO.N,Net-(D11-DOUT)*%
X205950000Y-114492000D03*
%TO.P,D11,3,DIN*%
%TO.N,Net-(D10-DOUT)*%
X200450000Y-113092000D03*
%TO.P,D11,4,VDD*%
%TO.N,VCC*%
X200450000Y-114492000D03*
%TD*%
%TO.P,D10,2,VSS*%
%TO.N,GND*%
X181400000Y-114492000D03*
%TO.P,D10,1,DOUT*%
%TO.N,Net-(D10-DOUT)*%
X181400000Y-113092000D03*
%TO.P,D10,3,DIN*%
%TO.N,Net-(D10-DIN)*%
X186900000Y-114492000D03*
%TO.P,D10,4,VDD*%
%TO.N,VCC*%
X186900000Y-113092000D03*
%TD*%
%TO.P,D9,2,VSS*%
%TO.N,GND*%
X168012500Y-118364000D03*
%TO.P,D9,1,DOUT*%
%TO.N,Net-(D10-DIN)*%
X168012500Y-119764000D03*
%TO.P,D9,3,DIN*%
%TO.N,Net-(D8-DOUT)*%
X162512500Y-118364000D03*
%TO.P,D9,4,VDD*%
%TO.N,VCC*%
X162512500Y-119764000D03*
%TD*%
%TO.P,D8,4,VDD*%
%TO.N,VCC*%
X140085800Y-151463400D03*
%TO.P,D8,3,DIN*%
%TO.N,Net-(D7-DOUT)*%
X140085800Y-152863400D03*
%TO.P,D8,1,DOUT*%
%TO.N,Net-(D8-DOUT)*%
X134585800Y-151463400D03*
%TO.P,D8,2,VSS*%
%TO.N,GND*%
X134585800Y-152863400D03*
%TD*%
%TO.P,D7,4,VDD*%
%TO.N,VCC*%
X111462000Y-65848000D03*
%TO.P,D7,3,DIN*%
%TO.N,Net-(D6-DOUT)*%
X111462000Y-67248000D03*
%TO.P,D7,1,DOUT*%
%TO.N,Net-(D7-DOUT)*%
X105962000Y-65848000D03*
%TO.P,D7,2,VSS*%
%TO.N,GND*%
X105962000Y-67248000D03*
%TD*%
%TO.P,D6,4,VDD*%
%TO.N,VCC*%
X93043200Y-65848000D03*
%TO.P,D6,3,DIN*%
%TO.N,Net-(D5-DOUT)*%
X93043200Y-67248000D03*
%TO.P,D6,1,DOUT*%
%TO.N,Net-(D6-DOUT)*%
X87543200Y-65848000D03*
%TO.P,D6,2,VSS*%
%TO.N,GND*%
X87543200Y-67248000D03*
%TD*%
%TO.P,D5,4,VDD*%
%TO.N,VCC*%
X73362000Y-65848000D03*
%TO.P,D5,3,DIN*%
%TO.N,Net-(D4-DOUT)*%
X73362000Y-67248000D03*
%TO.P,D5,1,DOUT*%
%TO.N,Net-(D5-DOUT)*%
X67862000Y-65848000D03*
%TO.P,D5,2,VSS*%
%TO.N,GND*%
X67862000Y-67248000D03*
%TD*%
D16*
%TO.P,D4,2,VSS*%
%TO.N,GND*%
X90578456Y-92545346D03*
%TO.P,D4,1,DOUT*%
%TO.N,Net-(D4-DOUT)*%
X90869532Y-91175940D03*
%TO.P,D4,3,DIN*%
%TO.N,Net-(D3-DOUT)*%
X95958268Y-93688860D03*
%TO.P,D4,4,VDD*%
%TO.N,VCC*%
X96249344Y-92319454D03*
%TD*%
%TO.P,D3,4,VDD*%
%TO.N,VCC*%
X110822544Y-115249754D03*
%TO.P,D3,3,DIN*%
%TO.N,Net-(D2-DOUT)*%
X110531468Y-116619160D03*
%TO.P,D3,1,DOUT*%
%TO.N,Net-(D3-DOUT)*%
X105442732Y-114106240D03*
%TO.P,D3,2,VSS*%
%TO.N,GND*%
X105151656Y-115475646D03*
%TD*%
%TO.P,D2,2,VSS*%
%TO.N,GND*%
X86564956Y-111427546D03*
%TO.P,D2,1,DOUT*%
%TO.N,Net-(D2-DOUT)*%
X86856032Y-110058140D03*
%TO.P,D2,3,DIN*%
%TO.N,Net-(D1-DOUT)*%
X91944768Y-112571060D03*
%TO.P,D2,4,VDD*%
%TO.N,VCC*%
X92235844Y-111201654D03*
%TD*%
%TO.P,D1,2,VSS*%
%TO.N,GND*%
X67682756Y-107414046D03*
%TO.P,D1,1,DOUT*%
%TO.N,Net-(D1-DOUT)*%
X67973832Y-106044640D03*
%TO.P,D1,3,DIN*%
%TO.N,RGB0*%
X73062568Y-108557560D03*
%TO.P,D1,4,VDD*%
%TO.N,VCC*%
X73353644Y-107188154D03*
%TD*%
D17*
%TO.P,U1,1,IOVDD*%
%TO.N,unconnected-(U1-IOVDD-Pad1)*%
X231298800Y-69215000D03*
D18*
X231298800Y-70115000D03*
D17*
%TO.P,U1,2,GPIO0*%
%TO.N,unconnected-(U1-GPIO0-Pad2)*%
X228758800Y-69215000D03*
D18*
X228758800Y-70115000D03*
D19*
%TO.P,U1,3,GPIO1*%
%TO.N,GND*%
X226218800Y-69215000D03*
D18*
X226218800Y-70115000D03*
D17*
%TO.P,U1,4,GPIO2*%
%TO.N,UP*%
X223678800Y-69215000D03*
D18*
X223678800Y-70115000D03*
D17*
%TO.P,U1,5,GPIO3*%
%TO.N,DOWN*%
X221138800Y-69215000D03*
D18*
X221138800Y-70115000D03*
D17*
%TO.P,U1,6,GPIO4*%
%TO.N,RIGHT*%
X218598800Y-69215000D03*
D18*
X218598800Y-70115000D03*
D17*
%TO.P,U1,7,GPIO5*%
%TO.N,LEFT*%
X216058800Y-69215000D03*
D18*
X216058800Y-70115000D03*
D19*
%TO.P,U1,8,GPIO6*%
%TO.N,GND*%
X213518800Y-69215000D03*
D18*
X213518800Y-70115000D03*
D17*
%TO.P,U1,9,GPIO7*%
%TO.N,1K*%
X210978800Y-69215000D03*
D18*
X210978800Y-70115000D03*
D17*
%TO.P,U1,10,IOVDD*%
%TO.N,2K*%
X208438800Y-69215000D03*
D18*
X208438800Y-70115000D03*
D17*
%TO.P,U1,11,GPIO8*%
%TO.N,3K*%
X205898800Y-69215000D03*
D18*
X205898800Y-70115000D03*
D17*
%TO.P,U1,12,GPIO9*%
%TO.N,4K*%
X203358800Y-69215000D03*
D18*
X203358800Y-70115000D03*
D19*
%TO.P,U1,13,GPIO10*%
%TO.N,GND*%
X200818800Y-69215000D03*
D18*
X200818800Y-70115000D03*
D17*
%TO.P,U1,14,GPIO11*%
%TO.N,1P*%
X198278800Y-69215000D03*
D18*
X198278800Y-70115000D03*
D17*
%TO.P,U1,15,GPIO12*%
%TO.N,2P*%
X195738800Y-69215000D03*
D18*
X195738800Y-70115000D03*
D17*
%TO.P,U1,16,GPIO13*%
%TO.N,3P*%
X193198800Y-69215000D03*
D18*
X193198800Y-70115000D03*
D17*
%TO.P,U1,17,GPIO14*%
%TO.N,4P*%
X190658800Y-69215000D03*
D18*
X190658800Y-70115000D03*
D19*
%TO.P,U1,18,GPIO15*%
%TO.N,GND*%
X188118800Y-69215000D03*
D18*
X188118800Y-70115000D03*
D17*
%TO.P,U1,19,TESTEN*%
%TO.N,unconnected-(U1-TESTEN-Pad19)*%
X185578800Y-69215000D03*
D18*
X185578800Y-70115000D03*
D17*
%TO.P,U1,20,XIN*%
%TO.N,unconnected-(U1-XIN-Pad20)*%
X183038800Y-69215000D03*
D18*
X183038800Y-70115000D03*
D17*
%TO.P,U1,21,XOUT*%
%TO.N,SELECT*%
X183038800Y-51435000D03*
D18*
X183038800Y-50535000D03*
D17*
%TO.P,U1,22,IOVDD*%
%TO.N,START*%
X185578800Y-51435000D03*
D18*
X185578800Y-50535000D03*
D19*
%TO.P,U1,23,DVDD*%
%TO.N,GND*%
X188118800Y-51435000D03*
D18*
X188118800Y-50535000D03*
D17*
%TO.P,U1,24,SWCLK*%
%TO.N,unconnected-(U1-SWCLK-Pad24)*%
X190658800Y-51435000D03*
D18*
X190658800Y-50535000D03*
D17*
%TO.P,U1,25,SWD*%
%TO.N,unconnected-(U1-SWD-Pad25)*%
X193198800Y-51435000D03*
D18*
X193198800Y-50535000D03*
D17*
%TO.P,U1,26,RUN*%
%TO.N,HOME*%
X195738800Y-51435000D03*
D18*
X195738800Y-50535000D03*
D17*
%TO.P,U1,27,GPIO16*%
%TO.N,unconnected-(U1-GPIO16-Pad27)*%
X198278800Y-51435000D03*
D18*
X198278800Y-50535000D03*
D19*
%TO.P,U1,28,GPIO17*%
%TO.N,GND*%
X200818800Y-51435000D03*
D18*
X200818800Y-50535000D03*
D17*
%TO.P,U1,29,GPIO18*%
%TO.N,unconnected-(U1-GPIO18-Pad29)*%
X203358800Y-51435000D03*
D18*
X203358800Y-50535000D03*
D17*
%TO.P,U1,30,GPIO19*%
%TO.N,unconnected-(U1-GPIO19-Pad30)*%
X205898800Y-51435000D03*
D18*
X205898800Y-50535000D03*
D17*
%TO.P,U1,31,GPIO20*%
%TO.N,unconnected-(U1-GPIO20-Pad31)*%
X208438800Y-51435000D03*
D18*
X208438800Y-50535000D03*
D17*
%TO.P,U1,32,GPIO21*%
%TO.N,unconnected-(U1-GPIO21-Pad32)*%
X210978800Y-51435000D03*
D18*
X210978800Y-50535000D03*
D19*
%TO.P,U1,33,IOVDD*%
%TO.N,unconnected-(U1-IOVDD-Pad33)*%
X213518800Y-51435000D03*
D18*
X213518800Y-50535000D03*
D17*
%TO.P,U1,34,GPIO22*%
%TO.N,unconnected-(U1-GPIO22-Pad34)*%
X216058800Y-51435000D03*
D18*
X216058800Y-50535000D03*
D17*
%TO.P,U1,35,GPIO23*%
%TO.N,unconnected-(U1-GPIO23-Pad35)*%
X218598800Y-51435000D03*
D18*
X218598800Y-50535000D03*
D17*
%TO.P,U1,36,GPIO24*%
%TO.N,unconnected-(U1-GPIO24-Pad36)*%
X221138800Y-51435000D03*
D18*
X221138800Y-50535000D03*
D17*
%TO.P,U1,37,GPIO25*%
%TO.N,unconnected-(U1-GPIO25-Pad37)*%
X223678800Y-51435000D03*
D18*
X223678800Y-50535000D03*
D19*
%TO.P,U1,38,GPIO26_ADC0*%
%TO.N,GND*%
X226218800Y-51435000D03*
D18*
X226218800Y-50535000D03*
D17*
%TO.P,U1,39,GPIO27_ADC1*%
%TO.N,unconnected-(U1-GPIO27_ADC1-Pad39)*%
X228758800Y-51435000D03*
D18*
X228758800Y-50535000D03*
D17*
%TO.P,U1,40,GPIO28_ADC2*%
%TO.N,unconnected-(U1-GPIO28_ADC2-Pad40)*%
X231298800Y-51435000D03*
D18*
X231298800Y-50535000D03*
D17*
%TO.P,U1,41,GPIO29_ADC3*%
%TO.N,unconnected-(U1-GPIO29_ADC3-Pad41)*%
X183268800Y-62865000D03*
D20*
X182368800Y-62865000D03*
D19*
%TO.P,U1,42,IOVDD*%
%TO.N,unconnected-(U1-IOVDD-Pad42)*%
X183268800Y-60325000D03*
D20*
X182368800Y-60325000D03*
D17*
%TO.P,U1,43,ADC_AVDD*%
%TO.N,unconnected-(U1-ADC_AVDD-Pad43)*%
X183268800Y-57785000D03*
D20*
X182368800Y-57785000D03*
%TD*%
D21*
%TO.N,Net-(D15-DOUT)*%
X209690500Y-95177400D03*
X226474200Y-100714000D03*
%TO.N,Net-(D14-DOUT)*%
X191114100Y-94557900D03*
X203854800Y-97864300D03*
%TO.N,Net-(D12-DOUT)*%
X216934800Y-117412600D03*
X162628600Y-97873700D03*
%TO.N,VCC*%
X201836700Y-101182800D03*
X188467900Y-97225900D03*
X196760000Y-112641800D03*
%TO.N,4P*%
X209501400Y-74837200D03*
%TO.N,3P*%
X201661300Y-72996300D03*
%TO.N,2K*%
X200070800Y-73766700D03*
%TO.N,1K*%
X199113200Y-74535100D03*
%TO.N,UP*%
X128159800Y-109080800D03*
%TD*%
D22*
%TO.N,Net-(D15-DOUT)*%
X225000000Y-100714000D02*
X226178900Y-100714000D01*
X207122200Y-92609100D02*
X209690500Y-95177400D01*
X201244800Y-92609100D02*
X207122200Y-92609100D01*
X200450000Y-93403900D02*
X201244800Y-92609100D01*
X200450000Y-93788000D02*
X200450000Y-93403900D01*
X226178900Y-100714000D02*
X226474200Y-100714000D01*
%TO.N,Net-(D14-DOUT)*%
X205950000Y-95769100D02*
X205950000Y-95188000D01*
X203854800Y-97864300D02*
X205950000Y-95769100D01*
X189165300Y-92609100D02*
X191114100Y-94557900D01*
X182194800Y-92609100D02*
X189165300Y-92609100D01*
X181400000Y-93403900D02*
X182194800Y-92609100D01*
X181400000Y-93788000D02*
X181400000Y-93403900D01*
%TO.N,Net-(D13-DOUT)*%
X167850000Y-100714000D02*
X169028900Y-100714000D01*
X181763900Y-100714000D02*
X169028900Y-100714000D01*
X186900000Y-95577900D02*
X181763900Y-100714000D01*
X186900000Y-95188000D02*
X186900000Y-95577900D01*
%TO.N,Net-(D12-DOUT)*%
X217886200Y-118364000D02*
X216934800Y-117412600D01*
X219500000Y-118364000D02*
X217886200Y-118364000D01*
X162628600Y-99035400D02*
X162350000Y-99314000D01*
X162628600Y-97873700D02*
X162628600Y-99035400D01*
%TO.N,Net-(D11-DOUT)*%
X205950000Y-114492000D02*
X207128900Y-114492000D01*
X213590700Y-120953800D02*
X207128900Y-114492000D01*
X224223500Y-120953800D02*
X213590700Y-120953800D01*
X225000000Y-120177300D02*
X224223500Y-120953800D01*
X225000000Y-119764000D02*
X225000000Y-120177300D01*
%TO.N,Net-(D10-DOUT)*%
X198091600Y-111912500D02*
X199271100Y-113092000D01*
X182162700Y-111912500D02*
X198091600Y-111912500D01*
X181400000Y-112675200D02*
X182162700Y-111912500D01*
X181400000Y-113092000D02*
X181400000Y-112675200D01*
X200450000Y-113092000D02*
X199271100Y-113092000D01*
%TO.N,Net-(D10-DIN)*%
X168012500Y-119764000D02*
X169191400Y-119764000D01*
X182041100Y-119764000D02*
X169191400Y-119764000D01*
X186900000Y-114905100D02*
X182041100Y-119764000D01*
X186900000Y-114492000D02*
X186900000Y-114905100D01*
%TO.N,Net-(D8-DOUT)*%
X162512500Y-118364000D02*
X161333600Y-118364000D01*
X134585800Y-151084800D02*
X134585800Y-151463400D01*
X136489100Y-149181500D02*
X134585800Y-151084800D01*
X138320400Y-149181500D02*
X136489100Y-149181500D01*
X140595700Y-146906200D02*
X138320400Y-149181500D01*
X140595700Y-146175800D02*
X140595700Y-146906200D01*
X142685000Y-144086500D02*
X140595700Y-146175800D01*
X143309500Y-144086500D02*
X142685000Y-144086500D01*
X161333600Y-126062400D02*
X143309500Y-144086500D01*
X161333600Y-118364000D02*
X161333600Y-126062400D01*
%TO.N,Net-(D7-DOUT)*%
X105962000Y-65431200D02*
X105962000Y-65848000D01*
X106726300Y-64666900D02*
X105962000Y-65431200D01*
X112170200Y-64666900D02*
X106726300Y-64666900D01*
X128888700Y-81385400D02*
X112170200Y-64666900D01*
X128888700Y-109726900D02*
X128888700Y-81385400D01*
X128523800Y-110091800D02*
X128888700Y-109726900D01*
X128523800Y-148659400D02*
X128523800Y-110091800D01*
X133907900Y-154043500D02*
X128523800Y-148659400D01*
X139298200Y-154043500D02*
X133907900Y-154043500D01*
X140085800Y-153255900D02*
X139298200Y-154043500D01*
X140085800Y-152863400D02*
X140085800Y-153255900D01*
%TO.N,Net-(D6-DOUT)*%
X111462000Y-67620800D02*
X111462000Y-67248000D01*
X110615700Y-68467100D02*
X111462000Y-67620800D01*
X102982100Y-68467100D02*
X110615700Y-68467100D01*
X99182700Y-64667700D02*
X102982100Y-68467100D01*
X88306700Y-64667700D02*
X99182700Y-64667700D01*
X87543200Y-65431200D02*
X88306700Y-64667700D01*
X87543200Y-65848000D02*
X87543200Y-65431200D01*
%TO.N,Net-(D5-DOUT)*%
X93043200Y-67627200D02*
X93043200Y-67248000D01*
X92243500Y-68426900D02*
X93043200Y-67627200D01*
X80970600Y-68426900D02*
X92243500Y-68426900D01*
X77197000Y-64653300D02*
X80970600Y-68426900D01*
X68639900Y-64653300D02*
X77197000Y-64653300D01*
X67862000Y-65431200D02*
X68639900Y-64653300D01*
X67862000Y-65848000D02*
X67862000Y-65431200D01*
%TO.N,Net-(D4-DOUT)*%
X92006100Y-90039300D02*
X90869500Y-91175900D01*
X95433300Y-90039300D02*
X92006100Y-90039300D01*
X96934400Y-88538200D02*
X95433300Y-90039300D01*
X96934400Y-86344100D02*
X96934400Y-88538200D01*
X77838300Y-67248000D02*
X96934400Y-86344100D01*
X73362000Y-67248000D02*
X77838300Y-67248000D01*
%TO.N,Net-(D3-DOUT)*%
X97283700Y-94636100D02*
X97283700Y-93970600D01*
X111548600Y-108901000D02*
X97283700Y-94636100D01*
X111548600Y-111145800D02*
X111548600Y-108901000D01*
X109945200Y-112749200D02*
X111548600Y-111145800D01*
X106799700Y-112749200D02*
X109945200Y-112749200D01*
X105442700Y-114106200D02*
X106799700Y-112749200D01*
X95958300Y-93688900D02*
X97283700Y-93970600D01*
%TO.N,Net-(D2-DOUT)*%
X87838900Y-109075200D02*
X86856000Y-110058100D01*
X95937800Y-109075200D02*
X87838900Y-109075200D01*
X104448200Y-117585600D02*
X95937800Y-109075200D01*
X109565100Y-117585600D02*
X104448200Y-117585600D01*
X110531500Y-116619200D02*
X109565100Y-117585600D01*
%TO.N,VCC*%
X110822500Y-115249800D02*
X112148000Y-115531500D01*
X96249300Y-92319500D02*
X97574800Y-92601200D01*
X93043200Y-65848000D02*
X94222100Y-65848000D01*
X111462000Y-65848000D02*
X112640900Y-65848000D01*
X111574900Y-68963300D02*
X95751500Y-68963300D01*
X112640900Y-67897300D02*
X111574900Y-68963300D01*
X112640900Y-65848000D02*
X112640900Y-67897300D01*
X95751500Y-68963300D02*
X94483100Y-67694800D01*
X94222100Y-67433900D02*
X94222100Y-65848000D01*
X94483100Y-67694800D02*
X94222100Y-67433900D01*
X225000000Y-118364000D02*
X226178900Y-118364000D01*
X229633800Y-114909100D02*
X226178900Y-118364000D01*
X229633800Y-102768900D02*
X229633800Y-114909100D01*
X226178900Y-99314000D02*
X229633800Y-102768900D01*
X200450000Y-114913800D02*
X200450000Y-114492000D01*
X206946400Y-121410200D02*
X200450000Y-114913800D01*
X225212800Y-121410200D02*
X206946400Y-121410200D01*
X226178900Y-120444100D02*
X225212800Y-121410200D01*
X226178900Y-118364000D02*
X226178900Y-120444100D01*
X95751500Y-84469900D02*
X95751500Y-68963300D01*
X97397000Y-86115400D02*
X95751500Y-84469900D01*
X97397000Y-88008100D02*
X97397000Y-86115400D01*
X97398500Y-88009600D02*
X97397000Y-88008100D01*
X97398500Y-88311700D02*
X97398500Y-88009600D01*
X97400000Y-88313200D02*
X97398500Y-88311700D01*
X97400000Y-91579000D02*
X97400000Y-88313200D01*
X97574800Y-91753800D02*
X97400000Y-91579000D01*
X97574800Y-92601200D02*
X97574800Y-91753800D01*
X93246200Y-68931700D02*
X94483100Y-67694800D01*
X80816900Y-68931700D02*
X93246200Y-68931700D01*
X78566400Y-66681200D02*
X80816900Y-68931700D01*
X76985900Y-66681200D02*
X78566400Y-66681200D01*
X76567800Y-66263100D02*
X76985900Y-66681200D01*
X75840100Y-66263100D02*
X76567800Y-66263100D01*
X75425000Y-65848000D02*
X75840100Y-66263100D01*
X73362000Y-65848000D02*
X75425000Y-65848000D01*
X92235800Y-111201700D02*
X93561300Y-111483400D01*
X73353600Y-107188200D02*
X74679100Y-107469900D01*
X200450000Y-114492000D02*
X199271100Y-114492000D01*
X207128900Y-95890600D02*
X201836700Y-101182800D01*
X207128900Y-93788000D02*
X207128900Y-95890600D01*
X205950000Y-93788000D02*
X207128900Y-93788000D01*
X188467900Y-94177000D02*
X188078900Y-93788000D01*
X188467900Y-97225900D02*
X188467900Y-94177000D01*
X186900000Y-93788000D02*
X188078900Y-93788000D01*
X112148000Y-114684100D02*
X112148000Y-115531500D01*
X112117400Y-114653500D02*
X112148000Y-114684100D01*
X112117400Y-109028700D02*
X112117400Y-114653500D01*
X112070700Y-108982000D02*
X112117400Y-109028700D01*
X112070700Y-108852300D02*
X112070700Y-108982000D01*
X112069200Y-108850800D02*
X112070700Y-108852300D01*
X112069200Y-108705000D02*
X112069200Y-108850800D01*
X99014300Y-95650100D02*
X112069200Y-108705000D01*
X99014300Y-95009900D02*
X99014300Y-95650100D01*
X97574800Y-93570400D02*
X99014300Y-95009900D01*
X97574800Y-92601200D02*
X97574800Y-93570400D01*
X92407900Y-113993900D02*
X93561300Y-112840500D01*
X81203000Y-113993900D02*
X92407900Y-113993900D01*
X74679100Y-107470000D02*
X81203000Y-113993900D01*
X74679100Y-107469900D02*
X74679100Y-107470000D01*
X93561300Y-112840500D02*
X93561300Y-111483400D01*
X140085800Y-151463400D02*
X141150300Y-151463400D01*
X112148000Y-116934200D02*
X111040700Y-118041500D01*
X112148000Y-115531500D02*
X112148000Y-116934200D01*
X98762300Y-118041500D02*
X93561300Y-112840500D01*
X111040700Y-118041500D02*
X98762300Y-118041500D01*
X225000000Y-99314000D02*
X226178900Y-99314000D01*
X141264700Y-151577800D02*
X141150300Y-151463400D01*
X141264700Y-153533300D02*
X141264700Y-151577800D01*
X140286900Y-154511100D02*
X141264700Y-153533300D01*
X133713000Y-154511100D02*
X140286900Y-154511100D01*
X111040700Y-131838800D02*
X133713000Y-154511100D01*
X111040700Y-118041500D02*
X111040700Y-131838800D01*
X186900000Y-113092000D02*
X188078900Y-113092000D01*
X188078900Y-114120800D02*
X196760000Y-114120800D01*
X188078900Y-114120800D02*
X188078900Y-113092000D01*
X196760000Y-112641800D02*
X196760000Y-114120800D01*
X198899900Y-114120800D02*
X199271100Y-114492000D01*
X196760000Y-114120800D02*
X198899900Y-114120800D01*
X188078900Y-115149600D02*
X188078900Y-114120800D01*
X182273100Y-120955400D02*
X188078900Y-115149600D01*
X162512500Y-120955400D02*
X182273100Y-120955400D01*
X162512500Y-130101200D02*
X162512500Y-120955400D01*
X141150300Y-151463400D02*
X162512500Y-130101200D01*
X162512500Y-120955400D02*
X162512500Y-119764000D01*
X162350000Y-101130800D02*
X162350000Y-100714000D01*
X163159200Y-101940000D02*
X162350000Y-101130800D01*
X183753800Y-101940000D02*
X163159200Y-101940000D01*
X188467900Y-97225900D02*
X183753800Y-101940000D01*
%TO.N,Net-(D1-DOUT)*%
X68988800Y-105029600D02*
X67973800Y-106044600D01*
X77564200Y-105029600D02*
X68988800Y-105029600D01*
X86069700Y-113535100D02*
X77564200Y-105029600D01*
X90980800Y-113535100D02*
X86069700Y-113535100D01*
X91944800Y-112571100D02*
X90980800Y-113535100D01*
D23*
%TO.N,GND*%
X105771100Y-111161800D02*
X105771100Y-106764500D01*
X104107500Y-112825400D02*
X105771100Y-111161800D01*
X104107500Y-114358700D02*
X104107500Y-112825400D01*
X103750800Y-114715400D02*
X104107500Y-114358700D01*
X103750800Y-115177800D02*
X103750800Y-114715400D01*
X105151700Y-115475600D02*
X103750800Y-115177800D01*
X67862000Y-67248000D02*
X66619600Y-67248000D01*
X87543200Y-67248000D02*
X86300800Y-67248000D01*
X105962000Y-67248000D02*
X104719600Y-67248000D01*
X181400000Y-95188000D02*
X180157600Y-95188000D01*
X200450000Y-95188000D02*
X199207600Y-95188000D01*
X199207600Y-105886200D02*
X199207600Y-95188000D01*
X167850000Y-99314000D02*
X167850000Y-98855400D01*
X180577900Y-87132800D02*
X180281300Y-86836200D01*
X180577900Y-91511800D02*
X180577900Y-87132800D01*
X180157600Y-91932100D02*
X180577900Y-91511800D01*
X180157600Y-95188000D02*
X180157600Y-91932100D01*
X180281300Y-86836200D02*
X177506300Y-86836200D01*
X176490200Y-98855400D02*
X180157600Y-95188000D01*
X167850000Y-98855400D02*
X176490200Y-98855400D01*
X199627900Y-87132800D02*
X199331300Y-86836200D01*
X199627900Y-91511800D02*
X199627900Y-87132800D01*
X199207600Y-91932100D02*
X199627900Y-91511800D01*
X199207600Y-95188000D02*
X199207600Y-91932100D01*
X218381300Y-92075000D02*
X215606300Y-92075000D01*
X181400000Y-114492000D02*
X180157600Y-114492000D01*
X105330400Y-59034100D02*
X105033800Y-58737500D01*
X105330400Y-63468700D02*
X105330400Y-59034100D01*
X104719600Y-64079500D02*
X105330400Y-63468700D01*
X104719600Y-67248000D02*
X104719600Y-64079500D01*
X158456300Y-111125000D02*
X161057900Y-111125000D01*
X161057900Y-111125000D02*
X161231300Y-111125000D01*
X219500000Y-119764000D02*
X218257600Y-119764000D01*
X105033800Y-58737500D02*
X102258800Y-58737500D01*
X86768900Y-58586400D02*
X86300800Y-59054500D01*
X102107700Y-58586400D02*
X86768900Y-58586400D01*
X102258800Y-58737500D02*
X102107700Y-58586400D01*
X86300800Y-67248000D02*
X86300800Y-59054500D01*
X173126900Y-114492000D02*
X180157600Y-114492000D01*
X169254900Y-118364000D02*
X173126900Y-114492000D01*
X67682800Y-107414000D02*
X66281900Y-107116200D01*
X67678100Y-58586400D02*
X67230400Y-59034100D01*
X83057700Y-58586400D02*
X67678100Y-58586400D01*
X83208800Y-58737500D02*
X83057700Y-58586400D01*
X67230400Y-63468700D02*
X67230400Y-59034100D01*
X66619600Y-64079500D02*
X67230400Y-63468700D01*
X66619600Y-67248000D02*
X66619600Y-64079500D01*
X68503700Y-103493200D02*
X68503700Y-98843100D01*
X66615700Y-105381200D02*
X68503700Y-103493200D01*
X66615700Y-106320000D02*
X66615700Y-105381200D01*
X66281900Y-106653800D02*
X66615700Y-106320000D01*
X66281900Y-107116200D02*
X66281900Y-106653800D01*
X66366300Y-98843100D02*
X65789300Y-98266100D01*
X68503700Y-98843100D02*
X66366300Y-98843100D01*
X86565000Y-111427500D02*
X85164100Y-111129700D01*
X85164100Y-110667300D02*
X85164100Y-111129700D01*
X85489000Y-110342400D02*
X85164100Y-110667300D01*
X85489000Y-107325100D02*
X85489000Y-110342400D01*
X87189400Y-105624700D02*
X85489000Y-107325100D01*
X87189400Y-102809300D02*
X87189400Y-105624700D01*
X85052000Y-102809300D02*
X84475000Y-102232300D01*
X87189400Y-102809300D02*
X85052000Y-102809300D01*
X82462800Y-100220100D02*
X84475000Y-102232300D01*
X73793500Y-100220100D02*
X82462800Y-100220100D01*
X72416500Y-98843100D02*
X73793500Y-100220100D01*
X68503700Y-98843100D02*
X72416500Y-98843100D01*
X105194100Y-106187500D02*
X103056700Y-106187500D01*
X105771100Y-106764500D02*
X105194100Y-106187500D01*
X130675100Y-143986200D02*
X133450100Y-143986200D01*
X168012500Y-118364000D02*
X168454400Y-118364000D01*
X168454400Y-118364000D02*
X169254900Y-118364000D01*
X133735500Y-144271600D02*
X133592800Y-144128900D01*
X133735500Y-148937900D02*
X133735500Y-144271600D01*
X133343400Y-149330000D02*
X133735500Y-148937900D01*
X133343400Y-152125900D02*
X133343400Y-149330000D01*
X134080900Y-152863400D02*
X133343400Y-152125900D01*
X134585800Y-152863400D02*
X134080900Y-152863400D01*
X133592800Y-144128900D02*
X133450100Y-143986200D01*
X161706600Y-111600300D02*
X161231300Y-111125000D01*
X161706600Y-116015100D02*
X161706600Y-111600300D01*
X133592800Y-144128900D02*
X161706600Y-116015100D01*
X168454400Y-118351500D02*
X168454400Y-118364000D01*
X166683900Y-116581000D02*
X168454400Y-118351500D01*
X162272500Y-116581000D02*
X166683900Y-116581000D01*
X161706600Y-116015100D02*
X162272500Y-116581000D01*
X199207600Y-105886200D02*
X196556300Y-105886200D01*
X181001600Y-105759100D02*
X180577900Y-106182800D01*
X196429200Y-105759100D02*
X181001600Y-105759100D01*
X196556300Y-105886200D02*
X196429200Y-105759100D01*
X180577900Y-110688800D02*
X180577900Y-106182800D01*
X180157600Y-111109100D02*
X180577900Y-110688800D01*
X180157600Y-114492000D02*
X180157600Y-111109100D01*
X91102200Y-102809300D02*
X90578500Y-102809300D01*
X93105100Y-104812200D02*
X91102200Y-102809300D01*
X101681400Y-104812200D02*
X93105100Y-104812200D01*
X103056700Y-106187500D02*
X101681400Y-104812200D01*
X90578500Y-102809300D02*
X87189400Y-102809300D01*
X90573200Y-83598600D02*
X91150200Y-84175600D01*
X88435800Y-83598600D02*
X90573200Y-83598600D01*
X214105700Y-112625600D02*
X214105700Y-113092000D01*
X215606300Y-111125000D02*
X214105700Y-112625600D01*
X213518800Y-69215000D02*
X213518800Y-67972600D01*
X226218800Y-51435000D02*
X226218800Y-67972600D01*
X226218800Y-67972600D02*
X226218800Y-69215000D01*
X199331300Y-105886200D02*
X199207600Y-105886200D01*
X214105700Y-113092000D02*
X205950000Y-113092000D01*
X199805900Y-106360800D02*
X199331300Y-105886200D01*
X199805900Y-108861000D02*
X199805900Y-106360800D01*
X202302600Y-111357700D02*
X199805900Y-108861000D01*
X204670600Y-111357700D02*
X202302600Y-111357700D01*
X205950000Y-112637100D02*
X204670600Y-111357700D01*
X205950000Y-113092000D02*
X205950000Y-112637100D01*
X86300800Y-59054500D02*
X85983800Y-58737500D01*
X85983800Y-58737500D02*
X83208800Y-58737500D01*
X219500000Y-100714000D02*
X218257600Y-100714000D01*
X215730000Y-111001300D02*
X218257600Y-111001300D01*
X215606300Y-111125000D02*
X215730000Y-111001300D01*
X218257600Y-111001300D02*
X218381300Y-111125000D01*
X218257600Y-111001300D02*
X218257600Y-100714000D01*
X218677900Y-92371600D02*
X218381300Y-92075000D01*
X218677900Y-97342800D02*
X218677900Y-92371600D01*
X218257600Y-97763100D02*
X218677900Y-97342800D01*
X218257600Y-100714000D02*
X218257600Y-97763100D01*
X161231300Y-92075000D02*
X158456300Y-92075000D01*
X226218800Y-67972600D02*
X213518800Y-67972600D01*
X213518800Y-67972600D02*
X200818800Y-67972600D01*
X200818800Y-69215000D02*
X200818800Y-67972600D01*
X200818800Y-51435000D02*
X200818800Y-67972600D01*
X90578500Y-102809300D02*
X90578500Y-92545300D01*
X91150200Y-88941500D02*
X91150200Y-84175600D01*
X89529100Y-90562600D02*
X91150200Y-88941500D01*
X89529100Y-91433600D02*
X89529100Y-90562600D01*
X89177600Y-91785100D02*
X89529100Y-91433600D01*
X89177600Y-92247500D02*
X89177600Y-91785100D01*
X90578500Y-92545300D02*
X89177600Y-92247500D01*
X218165700Y-119764000D02*
X218257600Y-119764000D01*
X214105700Y-115704000D02*
X218165700Y-119764000D01*
X214105700Y-113092000D02*
X214105700Y-115704000D01*
X161057900Y-98276600D02*
X161057900Y-111125000D01*
X162992200Y-96342300D02*
X161057900Y-98276600D01*
X164219300Y-97569400D02*
X162992200Y-96342300D01*
X166564000Y-97569400D02*
X164219300Y-97569400D01*
X167850000Y-98855400D02*
X166564000Y-97569400D01*
X161705900Y-92549600D02*
X161231300Y-92075000D01*
X161705900Y-95056000D02*
X161705900Y-92549600D01*
X162992200Y-96342300D02*
X161705900Y-95056000D01*
X180577900Y-106182800D02*
X180281300Y-105886200D01*
X180281300Y-105886200D02*
X177506300Y-105886200D01*
X199331300Y-86836200D02*
X196556300Y-86836200D01*
X67230400Y-59034100D02*
X66933800Y-58737500D01*
X66933800Y-58737500D02*
X64158800Y-58737500D01*
X200863200Y-72301800D02*
X200818800Y-72257400D01*
X200863200Y-85304300D02*
X200863200Y-72301800D01*
X199331300Y-86836200D02*
X200863200Y-85304300D01*
X200818800Y-69215000D02*
X200818800Y-72257400D01*
D22*
%TO.N,4P*%
X227511300Y-89535000D02*
X224731300Y-89535000D01*
X210033500Y-74837200D02*
X209501400Y-74837200D01*
X224731300Y-89535000D02*
X210033500Y-74837200D01*
%TO.N,3P*%
X205681300Y-84296200D02*
X208461300Y-84296200D01*
X205681300Y-77016300D02*
X201661300Y-72996300D01*
X205681300Y-84296200D02*
X205681300Y-77016300D01*
%TO.N,2P*%
X195738800Y-69215000D02*
X195738800Y-72193900D01*
X189411300Y-78521400D02*
X189411300Y-84296200D01*
X195738800Y-72193900D02*
X189411300Y-78521400D01*
X189411300Y-84296200D02*
X186631300Y-84296200D01*
%TO.N,1P*%
X198278800Y-69215000D02*
X198278800Y-68036100D01*
X176657200Y-83239100D02*
X170361300Y-89535000D01*
X178072500Y-83239100D02*
X176657200Y-83239100D01*
X189479900Y-71831700D02*
X178072500Y-83239100D01*
X189479900Y-68179700D02*
X189479900Y-71831700D01*
X189623500Y-68036100D02*
X189479900Y-68179700D01*
X198278800Y-68036100D02*
X189623500Y-68036100D01*
X170361300Y-89535000D02*
X167581300Y-89535000D01*
%TO.N,4K*%
X224731300Y-108585000D02*
X227511300Y-108585000D01*
%TO.N,3K*%
X205681300Y-103346200D02*
X208461300Y-103346200D01*
X205898800Y-69215000D02*
X205898800Y-72193900D01*
X210572300Y-101235200D02*
X208461300Y-103346200D01*
X210572300Y-76938800D02*
X210572300Y-101235200D01*
X205898800Y-72265300D02*
X210572300Y-76938800D01*
X205898800Y-72193900D02*
X205898800Y-72265300D01*
%TO.N,2K*%
X186631300Y-103346200D02*
X189411300Y-103346200D01*
X193604800Y-99152700D02*
X189411300Y-103346200D01*
X193604800Y-84329300D02*
X193604800Y-99152700D01*
X200070800Y-77863300D02*
X193604800Y-84329300D01*
X200070800Y-73766700D02*
X200070800Y-77863300D01*
%TO.N,1K*%
X167581300Y-108585000D02*
X170361300Y-108585000D01*
X175492400Y-103453900D02*
X170361300Y-108585000D01*
X183274600Y-103453900D02*
X175492400Y-103453900D01*
X192167800Y-94560700D02*
X183274600Y-103453900D01*
X192167800Y-81480500D02*
X192167800Y-94560700D01*
X199113200Y-74535100D02*
X192167800Y-81480500D01*
%TO.N,START*%
X111383800Y-56197500D02*
X114163800Y-56197500D01*
X181995200Y-56197500D02*
X114163800Y-56197500D01*
X185578800Y-52613900D02*
X181995200Y-56197500D01*
X185578800Y-51435000D02*
X185578800Y-52613900D01*
%TO.N,SELECT*%
X183038800Y-51435000D02*
X183038800Y-52613900D01*
X98697400Y-52613900D02*
X95113800Y-56197500D01*
X183038800Y-52613900D02*
X98697400Y-52613900D01*
X95113800Y-56197500D02*
X92333800Y-56197500D01*
%TO.N,HOME*%
X73283800Y-56197500D02*
X76063800Y-56197500D01*
%TO.N,UP*%
X139800100Y-141446200D02*
X142580100Y-141446200D01*
X98467500Y-83589300D02*
X100608700Y-83589300D01*
X97889500Y-83011300D02*
X98467500Y-83589300D01*
X102668300Y-83589300D02*
X128159800Y-109080800D01*
X100608700Y-83589300D02*
X102668300Y-83589300D01*
%TO.N,RIGHT*%
X113088400Y-106178200D02*
X112510400Y-105600200D01*
X115229600Y-106178200D02*
X113088400Y-106178200D01*
%TO.N,DOWN*%
X96069900Y-101645000D02*
X96647900Y-102223000D01*
X93928700Y-101645000D02*
X96069900Y-101645000D01*
%TO.N,LEFT*%
X77384200Y-97678800D02*
X77962200Y-98256800D01*
X75243000Y-97678800D02*
X77384200Y-97678800D01*
%TD*%
%TA.AperFunction,Conductor*%
%TO.N,GND*%
G36*
X233305539Y-47644685D02*
G01*
X233351294Y-47697489D01*
X233362500Y-47749000D01*
X233362500Y-72901000D01*
X233342815Y-72968039D01*
X233290011Y-73013794D01*
X233238500Y-73025000D01*
X207597281Y-73025000D01*
X207530242Y-73005315D01*
X207509600Y-72988681D01*
X207000008Y-72479089D01*
X206966523Y-72417766D01*
X206971507Y-72348074D01*
X207013378Y-72292142D01*
X207094489Y-72231422D01*
X207159953Y-72207004D01*
X207228226Y-72221855D01*
X207243103Y-72231416D01*
X207345876Y-72308352D01*
X207346468Y-72308795D01*
X207346471Y-72308797D01*
X207481317Y-72359091D01*
X207481316Y-72359091D01*
X207488244Y-72359835D01*
X207540927Y-72365500D01*
X209336672Y-72365499D01*
X209396283Y-72359091D01*
X209531131Y-72308796D01*
X209634490Y-72231421D01*
X209699952Y-72207004D01*
X209768225Y-72221855D01*
X209783103Y-72231416D01*
X209885876Y-72308352D01*
X209886468Y-72308795D01*
X209886471Y-72308797D01*
X210021317Y-72359091D01*
X210021316Y-72359091D01*
X210028244Y-72359835D01*
X210080927Y-72365500D01*
X211876672Y-72365499D01*
X211936283Y-72359091D01*
X212071131Y-72308796D01*
X212174906Y-72231109D01*
X212240370Y-72206692D01*
X212308643Y-72221543D01*
X212323529Y-72231110D01*
X212426710Y-72308352D01*
X212426713Y-72308354D01*
X212561420Y-72358596D01*
X212561427Y-72358598D01*
X212620955Y-72364999D01*
X212620972Y-72365000D01*
X213268800Y-72365000D01*
X213268800Y-69661494D01*
X213373639Y-69709373D01*
X213482327Y-69725000D01*
X213555273Y-69725000D01*
X213663961Y-69709373D01*
X213768800Y-69661494D01*
X213768800Y-72365000D01*
X214416628Y-72365000D01*
X214416644Y-72364999D01*
X214476172Y-72358598D01*
X214476179Y-72358596D01*
X214610886Y-72308354D01*
X214610889Y-72308352D01*
X214714071Y-72231110D01*
X214779535Y-72206692D01*
X214847808Y-72221543D01*
X214862688Y-72231105D01*
X214965876Y-72308352D01*
X214966468Y-72308795D01*
X214966471Y-72308797D01*
X215101317Y-72359091D01*
X215101316Y-72359091D01*
X215108244Y-72359835D01*
X215160927Y-72365500D01*
X216956672Y-72365499D01*
X217016283Y-72359091D01*
X217151131Y-72308796D01*
X217254490Y-72231421D01*
X217319952Y-72207004D01*
X217388225Y-72221855D01*
X217403103Y-72231416D01*
X217505876Y-72308352D01*
X217506468Y-72308795D01*
X217506471Y-72308797D01*
X217641317Y-72359091D01*
X217641316Y-72359091D01*
X217648244Y-72359835D01*
X217700927Y-72365500D01*
X219496672Y-72365499D01*
X219556283Y-72359091D01*
X219691131Y-72308796D01*
X219794490Y-72231421D01*
X219859952Y-72207004D01*
X219928225Y-72221855D01*
X219943103Y-72231416D01*
X220045876Y-72308352D01*
X220046468Y-72308795D01*
X220046471Y-72308797D01*
X220181317Y-72359091D01*
X220181316Y-72359091D01*
X220188244Y-72359835D01*
X220240927Y-72365500D01*
X222036672Y-72365499D01*
X222096283Y-72359091D01*
X222231131Y-72308796D01*
X222334490Y-72231421D01*
X222399952Y-72207004D01*
X222468225Y-72221855D01*
X222483103Y-72231416D01*
X222585876Y-72308352D01*
X222586468Y-72308795D01*
X222586471Y-72308797D01*
X222721317Y-72359091D01*
X222721316Y-72359091D01*
X222728244Y-72359835D01*
X222780927Y-72365500D01*
X224576672Y-72365499D01*
X224636283Y-72359091D01*
X224771131Y-72308796D01*
X224874906Y-72231109D01*
X224940370Y-72206692D01*
X225008643Y-72221543D01*
X225023529Y-72231110D01*
X225126710Y-72308352D01*
X225126713Y-72308354D01*
X225261420Y-72358596D01*
X225261427Y-72358598D01*
X225320955Y-72364999D01*
X225320972Y-72365000D01*
X225968800Y-72365000D01*
X225968800Y-69661494D01*
X226073639Y-69709373D01*
X226182327Y-69725000D01*
X226255273Y-69725000D01*
X226363961Y-69709373D01*
X226468800Y-69661494D01*
X226468800Y-72365000D01*
X227116628Y-72365000D01*
X227116644Y-72364999D01*
X227176172Y-72358598D01*
X227176179Y-72358596D01*
X227310886Y-72308354D01*
X227310889Y-72308352D01*
X227414071Y-72231110D01*
X227479535Y-72206692D01*
X227547808Y-72221543D01*
X227562688Y-72231105D01*
X227665876Y-72308352D01*
X227666468Y-72308795D01*
X227666471Y-72308797D01*
X227801317Y-72359091D01*
X227801316Y-72359091D01*
X227808244Y-72359835D01*
X227860927Y-72365500D01*
X229656672Y-72365499D01*
X229716283Y-72359091D01*
X229851131Y-72308796D01*
X229954490Y-72231421D01*
X230019952Y-72207004D01*
X230088225Y-72221855D01*
X230103103Y-72231416D01*
X230205876Y-72308352D01*
X230206468Y-72308795D01*
X230206471Y-72308797D01*
X230341317Y-72359091D01*
X230341316Y-72359091D01*
X230348244Y-72359835D01*
X230400927Y-72365500D01*
X232196672Y-72365499D01*
X232256283Y-72359091D01*
X232391131Y-72308796D01*
X232506346Y-72222546D01*
X232592596Y-72107331D01*
X232642891Y-71972483D01*
X232649300Y-71912873D01*
X232649299Y-69276675D01*
X232649535Y-69271274D01*
X232649536Y-69271269D01*
X232654459Y-69215000D01*
X232649534Y-69158720D01*
X232649299Y-69153316D01*
X232649299Y-68317129D01*
X232649298Y-68317123D01*
X232649297Y-68317116D01*
X232642891Y-68257517D01*
X232606457Y-68159833D01*
X232592597Y-68122671D01*
X232592593Y-68122664D01*
X232506347Y-68007455D01*
X232506344Y-68007452D01*
X232391135Y-67921206D01*
X232391128Y-67921202D01*
X232256282Y-67870908D01*
X232256283Y-67870908D01*
X232196683Y-67864501D01*
X232196681Y-67864500D01*
X232196673Y-67864500D01*
X232196665Y-67864500D01*
X231360477Y-67864500D01*
X231355075Y-67864264D01*
X231324649Y-67861602D01*
X231298802Y-67859341D01*
X231298799Y-67859341D01*
X231281550Y-67860849D01*
X231242522Y-67864264D01*
X231237122Y-67864500D01*
X230400929Y-67864500D01*
X230400923Y-67864501D01*
X230341316Y-67870908D01*
X230206471Y-67921202D01*
X230206469Y-67921203D01*
X230103111Y-67998578D01*
X230037647Y-68022995D01*
X229969374Y-68008144D01*
X229954489Y-67998578D01*
X229851130Y-67921203D01*
X229851128Y-67921202D01*
X229716282Y-67870908D01*
X229716283Y-67870908D01*
X229656683Y-67864501D01*
X229656681Y-67864500D01*
X229656673Y-67864500D01*
X229656665Y-67864500D01*
X228820477Y-67864500D01*
X228815075Y-67864264D01*
X228784649Y-67861602D01*
X228758802Y-67859341D01*
X228758799Y-67859341D01*
X228741550Y-67860849D01*
X228702522Y-67864264D01*
X228697122Y-67864500D01*
X227860929Y-67864500D01*
X227860923Y-67864501D01*
X227801316Y-67870908D01*
X227666471Y-67921202D01*
X227666469Y-67921204D01*
X227562694Y-67998890D01*
X227497230Y-68023307D01*
X227428957Y-68008456D01*
X227414072Y-67998890D01*
X227310888Y-67921646D01*
X227310886Y-67921645D01*
X227176179Y-67871403D01*
X227176172Y-67871401D01*
X227116644Y-67865000D01*
X226468800Y-67865000D01*
X226468800Y-68768505D01*
X226363961Y-68720627D01*
X226255273Y-68705000D01*
X226182327Y-68705000D01*
X226073639Y-68720627D01*
X225968800Y-68768505D01*
X225968800Y-67865000D01*
X225320955Y-67865000D01*
X225261427Y-67871401D01*
X225261420Y-67871403D01*
X225126713Y-67921645D01*
X225126710Y-67921647D01*
X225023527Y-67998890D01*
X224958062Y-68023307D01*
X224889789Y-68008455D01*
X224874905Y-67998889D01*
X224771135Y-67921206D01*
X224771128Y-67921202D01*
X224636282Y-67870908D01*
X224636283Y-67870908D01*
X224576683Y-67864501D01*
X224576681Y-67864500D01*
X224576673Y-67864500D01*
X224576665Y-67864500D01*
X223740477Y-67864500D01*
X223735075Y-67864264D01*
X223704649Y-67861602D01*
X223678802Y-67859341D01*
X223678799Y-67859341D01*
X223661550Y-67860849D01*
X223622522Y-67864264D01*
X223617122Y-67864500D01*
X222780929Y-67864500D01*
X222780923Y-67864501D01*
X222721316Y-67870908D01*
X222586471Y-67921202D01*
X222586469Y-67921203D01*
X222483111Y-67998578D01*
X222417647Y-68022995D01*
X222349374Y-68008144D01*
X222334489Y-67998578D01*
X222231130Y-67921203D01*
X222231128Y-67921202D01*
X222096282Y-67870908D01*
X222096283Y-67870908D01*
X222036683Y-67864501D01*
X222036681Y-67864500D01*
X222036673Y-67864500D01*
X222036665Y-67864500D01*
X221200477Y-67864500D01*
X221195075Y-67864264D01*
X221164649Y-67861602D01*
X221138802Y-67859341D01*
X221138799Y-67859341D01*
X221121550Y-67860849D01*
X221082522Y-67864264D01*
X221077122Y-67864500D01*
X220240929Y-67864500D01*
X220240923Y-67864501D01*
X220181316Y-67870908D01*
X220046471Y-67921202D01*
X220046469Y-67921203D01*
X219943111Y-67998578D01*
X219877647Y-68022995D01*
X219809374Y-68008144D01*
X219794489Y-67998578D01*
X219691130Y-67921203D01*
X219691128Y-67921202D01*
X219556282Y-67870908D01*
X219556283Y-67870908D01*
X219496683Y-67864501D01*
X219496681Y-67864500D01*
X219496673Y-67864500D01*
X219496665Y-67864500D01*
X218660477Y-67864500D01*
X218655075Y-67864264D01*
X218624649Y-67861602D01*
X218598802Y-67859341D01*
X218598799Y-67859341D01*
X218581550Y-67860849D01*
X218542522Y-67864264D01*
X218537122Y-67864500D01*
X217700929Y-67864500D01*
X217700923Y-67864501D01*
X217641316Y-67870908D01*
X217506471Y-67921202D01*
X217506469Y-67921203D01*
X217403111Y-67998578D01*
X217337647Y-68022995D01*
X217269374Y-68008144D01*
X217254489Y-67998578D01*
X217151130Y-67921203D01*
X217151128Y-67921202D01*
X217016282Y-67870908D01*
X217016283Y-67870908D01*
X216956683Y-67864501D01*
X216956681Y-67864500D01*
X216956673Y-67864500D01*
X216956665Y-67864500D01*
X216120477Y-67864500D01*
X216115075Y-67864264D01*
X216084649Y-67861602D01*
X216058802Y-67859341D01*
X216058799Y-67859341D01*
X216041550Y-67860849D01*
X216002522Y-67864264D01*
X215997122Y-67864500D01*
X215160929Y-67864500D01*
X215160923Y-67864501D01*
X215101316Y-67870908D01*
X214966471Y-67921202D01*
X214966469Y-67921204D01*
X214862694Y-67998890D01*
X214797230Y-68023307D01*
X214728957Y-68008456D01*
X214714072Y-67998890D01*
X214610888Y-67921646D01*
X214610886Y-67921645D01*
X214476179Y-67871403D01*
X214476172Y-67871401D01*
X214416644Y-67865000D01*
X213768800Y-67865000D01*
X213768800Y-68768505D01*
X213663961Y-68720627D01*
X213555273Y-68705000D01*
X213482327Y-68705000D01*
X213373639Y-68720627D01*
X213268800Y-68768505D01*
X213268800Y-67865000D01*
X212620955Y-67865000D01*
X212561427Y-67871401D01*
X212561420Y-67871403D01*
X212426713Y-67921645D01*
X212426710Y-67921647D01*
X212323527Y-67998890D01*
X212258062Y-68023307D01*
X212189789Y-68008455D01*
X212174905Y-67998889D01*
X212071135Y-67921206D01*
X212071128Y-67921202D01*
X211936282Y-67870908D01*
X211936283Y-67870908D01*
X211876683Y-67864501D01*
X211876681Y-67864500D01*
X211876673Y-67864500D01*
X211876665Y-67864500D01*
X211040477Y-67864500D01*
X211035075Y-67864264D01*
X211004649Y-67861602D01*
X210978802Y-67859341D01*
X210978799Y-67859341D01*
X210961550Y-67860849D01*
X210922522Y-67864264D01*
X210917122Y-67864500D01*
X210080929Y-67864500D01*
X210080923Y-67864501D01*
X210021316Y-67870908D01*
X209886471Y-67921202D01*
X209886469Y-67921203D01*
X209783111Y-67998578D01*
X209717647Y-68022995D01*
X209649374Y-68008144D01*
X209634489Y-67998578D01*
X209531130Y-67921203D01*
X209531128Y-67921202D01*
X209396282Y-67870908D01*
X209396283Y-67870908D01*
X209336683Y-67864501D01*
X209336681Y-67864500D01*
X209336673Y-67864500D01*
X209336665Y-67864500D01*
X208500477Y-67864500D01*
X208495075Y-67864264D01*
X208464649Y-67861602D01*
X208438802Y-67859341D01*
X208438799Y-67859341D01*
X208421550Y-67860849D01*
X208382522Y-67864264D01*
X208377122Y-67864500D01*
X207540929Y-67864500D01*
X207540923Y-67864501D01*
X207481316Y-67870908D01*
X207346471Y-67921202D01*
X207346469Y-67921203D01*
X207243111Y-67998578D01*
X207177647Y-68022995D01*
X207109374Y-68008144D01*
X207094489Y-67998578D01*
X206991130Y-67921203D01*
X206991128Y-67921202D01*
X206856282Y-67870908D01*
X206856283Y-67870908D01*
X206796683Y-67864501D01*
X206796681Y-67864500D01*
X206796673Y-67864500D01*
X206796665Y-67864500D01*
X205960477Y-67864500D01*
X205955075Y-67864264D01*
X205924649Y-67861602D01*
X205898802Y-67859341D01*
X205898799Y-67859341D01*
X205881550Y-67860849D01*
X205842522Y-67864264D01*
X205837122Y-67864500D01*
X205000929Y-67864500D01*
X205000923Y-67864501D01*
X204941316Y-67870908D01*
X204806471Y-67921202D01*
X204806469Y-67921203D01*
X204703111Y-67998578D01*
X204637647Y-68022995D01*
X204569374Y-68008144D01*
X204554489Y-67998578D01*
X204451130Y-67921203D01*
X204451128Y-67921202D01*
X204316282Y-67870908D01*
X204316283Y-67870908D01*
X204256683Y-67864501D01*
X204256681Y-67864500D01*
X204256673Y-67864500D01*
X204256665Y-67864500D01*
X203420477Y-67864500D01*
X203415075Y-67864264D01*
X203384649Y-67861602D01*
X203358802Y-67859341D01*
X203358799Y-67859341D01*
X203341550Y-67860849D01*
X203302522Y-67864264D01*
X203297122Y-67864500D01*
X202460929Y-67864500D01*
X202460923Y-67864501D01*
X202401316Y-67870908D01*
X202266471Y-67921202D01*
X202266469Y-67921204D01*
X202162694Y-67998890D01*
X202097230Y-68023307D01*
X202028957Y-68008456D01*
X202014072Y-67998890D01*
X201910888Y-67921646D01*
X201910886Y-67921645D01*
X201776179Y-67871403D01*
X201776172Y-67871401D01*
X201716644Y-67865000D01*
X201068800Y-67865000D01*
X201068800Y-68768505D01*
X200963961Y-68720627D01*
X200855273Y-68705000D01*
X200782327Y-68705000D01*
X200673639Y-68720627D01*
X200568800Y-68768505D01*
X200568800Y-67865000D01*
X199920955Y-67865000D01*
X199861427Y-67871401D01*
X199861420Y-67871403D01*
X199726713Y-67921645D01*
X199726710Y-67921647D01*
X199623527Y-67998890D01*
X199558062Y-68023307D01*
X199489789Y-68008455D01*
X199474905Y-67998889D01*
X199371135Y-67921206D01*
X199371128Y-67921202D01*
X199236282Y-67870908D01*
X199236283Y-67870908D01*
X199176683Y-67864501D01*
X199176681Y-67864500D01*
X199176673Y-67864500D01*
X199176665Y-67864500D01*
X198972927Y-67864500D01*
X198905888Y-67844815D01*
X198860133Y-67792011D01*
X198854996Y-67778819D01*
X198851091Y-67766800D01*
X198846681Y-67759852D01*
X198836082Y-67739049D01*
X198833053Y-67731398D01*
X198833053Y-67731397D01*
X198804455Y-67692035D01*
X198799190Y-67684789D01*
X198797012Y-67681585D01*
X198766140Y-67632938D01*
X198760141Y-67627304D01*
X198744701Y-67609793D01*
X198739863Y-67603133D01*
X198695475Y-67566412D01*
X198692568Y-67563848D01*
X198650568Y-67524408D01*
X198650567Y-67524407D01*
X198643344Y-67520436D01*
X198624047Y-67507321D01*
X198617706Y-67502076D01*
X198617703Y-67502073D01*
X198565594Y-67477553D01*
X198562122Y-67475784D01*
X198525467Y-67455633D01*
X198511634Y-67448028D01*
X198511633Y-67448027D01*
X198511632Y-67448027D01*
X198503652Y-67445978D01*
X198481698Y-67438074D01*
X198474248Y-67434568D01*
X198474244Y-67434567D01*
X198417657Y-67423772D01*
X198413872Y-67422927D01*
X198393302Y-67417645D01*
X198358076Y-67408600D01*
X198358072Y-67408600D01*
X198349838Y-67408600D01*
X198326602Y-67406403D01*
X198318522Y-67404861D01*
X198318512Y-67404861D01*
X198309570Y-67405423D01*
X198261012Y-67408478D01*
X198257140Y-67408600D01*
X189706467Y-67408600D01*
X189690818Y-67406872D01*
X189690792Y-67407154D01*
X189683024Y-67406419D01*
X189614608Y-67408569D01*
X189612661Y-67408600D01*
X189584022Y-67408600D01*
X189577118Y-67409471D01*
X189571300Y-67409929D01*
X189524557Y-67411398D01*
X189505213Y-67417018D01*
X189486169Y-67420962D01*
X189483209Y-67421335D01*
X189466207Y-67423484D01*
X189466203Y-67423485D01*
X189466200Y-67423486D01*
X189422735Y-67440694D01*
X189417210Y-67442585D01*
X189372309Y-67455631D01*
X189372306Y-67455633D01*
X189354980Y-67465879D01*
X189337510Y-67474437D01*
X189318798Y-67481845D01*
X189280963Y-67509333D01*
X189276080Y-67512540D01*
X189235846Y-67536334D01*
X189221606Y-67550574D01*
X189206820Y-67563202D01*
X189190533Y-67575036D01*
X189190532Y-67575036D01*
X189160727Y-67611063D01*
X189156795Y-67615385D01*
X189094853Y-67677326D01*
X189082569Y-67687169D01*
X189082749Y-67687387D01*
X189076738Y-67692360D01*
X189029881Y-67742256D01*
X189028528Y-67743651D01*
X189008279Y-67763900D01*
X189008275Y-67763905D01*
X189004006Y-67769409D01*
X189000215Y-67773847D01*
X188968207Y-67807932D01*
X188963879Y-67813889D01*
X188908548Y-67856553D01*
X188863564Y-67865000D01*
X188368800Y-67865000D01*
X188368800Y-68768505D01*
X188263961Y-68720627D01*
X188155273Y-68705000D01*
X188082327Y-68705000D01*
X187973639Y-68720627D01*
X187868800Y-68768505D01*
X187868800Y-67865000D01*
X187220955Y-67865000D01*
X187161427Y-67871401D01*
X187161420Y-67871403D01*
X187026713Y-67921645D01*
X187026710Y-67921647D01*
X186923527Y-67998890D01*
X186858062Y-68023307D01*
X186789789Y-68008455D01*
X186774905Y-67998889D01*
X186671135Y-67921206D01*
X186671128Y-67921202D01*
X186536282Y-67870908D01*
X186536283Y-67870908D01*
X186476683Y-67864501D01*
X186476681Y-67864500D01*
X186476673Y-67864500D01*
X186476665Y-67864500D01*
X185640477Y-67864500D01*
X185635075Y-67864264D01*
X185604649Y-67861602D01*
X185578802Y-67859341D01*
X185578799Y-67859341D01*
X185561550Y-67860849D01*
X185522522Y-67864264D01*
X185517122Y-67864500D01*
X184680929Y-67864500D01*
X184680923Y-67864501D01*
X184621316Y-67870908D01*
X184486471Y-67921202D01*
X184486469Y-67921203D01*
X184383111Y-67998578D01*
X184317647Y-68022995D01*
X184249374Y-68008144D01*
X184234489Y-67998578D01*
X184131130Y-67921203D01*
X184131128Y-67921202D01*
X183996282Y-67870908D01*
X183996283Y-67870908D01*
X183936683Y-67864501D01*
X183936681Y-67864500D01*
X183936673Y-67864500D01*
X183936665Y-67864500D01*
X183100477Y-67864500D01*
X183095075Y-67864264D01*
X183064649Y-67861602D01*
X183038802Y-67859341D01*
X183038799Y-67859341D01*
X183021550Y-67860849D01*
X182982522Y-67864264D01*
X182977122Y-67864500D01*
X182140929Y-67864500D01*
X182140923Y-67864501D01*
X182081316Y-67870908D01*
X181946471Y-67921202D01*
X181946464Y-67921206D01*
X181831255Y-68007452D01*
X181831252Y-68007455D01*
X181745006Y-68122664D01*
X181745002Y-68122671D01*
X181694708Y-68257517D01*
X181688301Y-68317116D01*
X181688301Y-68317123D01*
X181688300Y-68317135D01*
X181688300Y-69153324D01*
X181688064Y-69158730D01*
X181683141Y-69214998D01*
X181683141Y-69215001D01*
X181688064Y-69271269D01*
X181688300Y-69276675D01*
X181688300Y-71912870D01*
X181688301Y-71912876D01*
X181694708Y-71972483D01*
X181745002Y-72107328D01*
X181745006Y-72107335D01*
X181831252Y-72222544D01*
X181831255Y-72222547D01*
X181946464Y-72308793D01*
X181946471Y-72308797D01*
X182081317Y-72359091D01*
X182081316Y-72359091D01*
X182088244Y-72359835D01*
X182140927Y-72365500D01*
X183936672Y-72365499D01*
X183996283Y-72359091D01*
X184131131Y-72308796D01*
X184234490Y-72231421D01*
X184299952Y-72207004D01*
X184368225Y-72221855D01*
X184383103Y-72231416D01*
X184485876Y-72308352D01*
X184486468Y-72308795D01*
X184486471Y-72308797D01*
X184621317Y-72359091D01*
X184621316Y-72359091D01*
X184628244Y-72359835D01*
X184680927Y-72365500D01*
X186476672Y-72365499D01*
X186536283Y-72359091D01*
X186671131Y-72308796D01*
X186774906Y-72231109D01*
X186840370Y-72206692D01*
X186908643Y-72221543D01*
X186923529Y-72231110D01*
X187026710Y-72308352D01*
X187026713Y-72308354D01*
X187161420Y-72358596D01*
X187161427Y-72358598D01*
X187220955Y-72364999D01*
X187220972Y-72365000D01*
X187759818Y-72365000D01*
X187826857Y-72384685D01*
X187872612Y-72437489D01*
X187882556Y-72506647D01*
X187853531Y-72570203D01*
X187847499Y-72576681D01*
X187435499Y-72988681D01*
X187374176Y-73022166D01*
X187347818Y-73025000D01*
X179511500Y-73025000D01*
X179444461Y-73005315D01*
X179398706Y-72952511D01*
X179387500Y-72901000D01*
X179387500Y-56949000D01*
X179407185Y-56881961D01*
X179459989Y-56836206D01*
X179511500Y-56825000D01*
X179994300Y-56825000D01*
X180061339Y-56844685D01*
X180107094Y-56897489D01*
X180118300Y-56949000D01*
X180118300Y-58682870D01*
X180118301Y-58682876D01*
X180124708Y-58742483D01*
X180175002Y-58877328D01*
X180175003Y-58877330D01*
X180252378Y-58980689D01*
X180276795Y-59046153D01*
X180261944Y-59114426D01*
X180252378Y-59129309D01*
X180247215Y-59136208D01*
X180175003Y-59232669D01*
X180175002Y-59232671D01*
X180124708Y-59367517D01*
X180118301Y-59427116D01*
X180118301Y-59427123D01*
X180118300Y-59427135D01*
X180118300Y-61222870D01*
X180118301Y-61222876D01*
X180124708Y-61282483D01*
X180175002Y-61417328D01*
X180175003Y-61417330D01*
X180175004Y-61417331D01*
X180247805Y-61514581D01*
X180252378Y-61520689D01*
X180276795Y-61586153D01*
X180261944Y-61654426D01*
X180252378Y-61669311D01*
X180175003Y-61772669D01*
X180175002Y-61772671D01*
X180124708Y-61907517D01*
X180118301Y-61967116D01*
X180118301Y-61967123D01*
X180118300Y-61967135D01*
X180118300Y-63762870D01*
X180118301Y-63762876D01*
X180124708Y-63822483D01*
X180175002Y-63957328D01*
X180175006Y-63957335D01*
X180261252Y-64072544D01*
X180261255Y-64072547D01*
X180376464Y-64158793D01*
X180376471Y-64158797D01*
X180511317Y-64209091D01*
X180511316Y-64209091D01*
X180518244Y-64209835D01*
X180570927Y-64215500D01*
X183207117Y-64215499D01*
X183212521Y-64215734D01*
X183216283Y-64216064D01*
X183268799Y-64220659D01*
X183268799Y-64220658D01*
X183268800Y-64220659D01*
X183325080Y-64215734D01*
X183330482Y-64215499D01*
X184166671Y-64215499D01*
X184166672Y-64215499D01*
X184226283Y-64209091D01*
X184361131Y-64158796D01*
X184476346Y-64072546D01*
X184562596Y-63957331D01*
X184612891Y-63822483D01*
X184619300Y-63762873D01*
X184619299Y-62926678D01*
X184619535Y-62921272D01*
X184619775Y-62918536D01*
X184624459Y-62865000D01*
X184619534Y-62808722D01*
X184619299Y-62803319D01*
X184619299Y-62750003D01*
X226883523Y-62750003D01*
X226885488Y-62772470D01*
X226885662Y-62780660D01*
X226884509Y-62806324D01*
X226884510Y-62806328D01*
X226895441Y-62887031D01*
X226895766Y-62889949D01*
X226902592Y-62967972D01*
X226902595Y-62967987D01*
X226909282Y-62992941D01*
X226910834Y-63000670D01*
X226914724Y-63029381D01*
X226914726Y-63029392D01*
X226938875Y-63103713D01*
X226939797Y-63106825D01*
X226959223Y-63179324D01*
X226959227Y-63179336D01*
X226971536Y-63205732D01*
X226974312Y-63212779D01*
X226984283Y-63243464D01*
X227019770Y-63309411D01*
X227021358Y-63312576D01*
X227051698Y-63377639D01*
X227070290Y-63404191D01*
X227074103Y-63410378D01*
X227090946Y-63441678D01*
X227090952Y-63441687D01*
X227135592Y-63497663D01*
X227137906Y-63500758D01*
X227161654Y-63534672D01*
X227177202Y-63556877D01*
X227177205Y-63556880D01*
X227202446Y-63582121D01*
X227207083Y-63587309D01*
X227231292Y-63617666D01*
X227282759Y-63662632D01*
X227285808Y-63665483D01*
X227331916Y-63711592D01*
X227331922Y-63711597D01*
X227331923Y-63711598D01*
X227342279Y-63718849D01*
X227363855Y-63733957D01*
X227369090Y-63738057D01*
X227400804Y-63765765D01*
X227400813Y-63765771D01*
X227456649Y-63799131D01*
X227460413Y-63801568D01*
X227511159Y-63837101D01*
X227511164Y-63837104D01*
X227533717Y-63847620D01*
X227549477Y-63854969D01*
X227555071Y-63857935D01*
X227592149Y-63880088D01*
X227594036Y-63881215D01*
X227606237Y-63885794D01*
X227651883Y-63902925D01*
X227656303Y-63904782D01*
X227709470Y-63929575D01*
X227709474Y-63929577D01*
X227739869Y-63937720D01*
X227753477Y-63941366D01*
X227759213Y-63943207D01*
X227766381Y-63945897D01*
X227804776Y-63960307D01*
X227862345Y-63970754D01*
X227867311Y-63971868D01*
X227920823Y-63986207D01*
X227969489Y-63990464D01*
X227975106Y-63991218D01*
X228026253Y-64000500D01*
X228081491Y-64000500D01*
X228086892Y-64000735D01*
X228115348Y-64003225D01*
X228138798Y-64005277D01*
X228138800Y-64005277D01*
X228190494Y-64000754D01*
X228193084Y-64000583D01*
X228194921Y-64000500D01*
X228194955Y-64000500D01*
X228248017Y-63995724D01*
X228248973Y-63995638D01*
X228248980Y-63995724D01*
X228249277Y-63995611D01*
X228356777Y-63986207D01*
X228356800Y-63986200D01*
X228357275Y-63986117D01*
X228362513Y-63985419D01*
X228362988Y-63985377D01*
X228466797Y-63956726D01*
X228568130Y-63929575D01*
X228568134Y-63929572D01*
X228575054Y-63927053D01*
X228579748Y-63925554D01*
X228579970Y-63925493D01*
X228579981Y-63925487D01*
X228579983Y-63925487D01*
X228605598Y-63913151D01*
X228674254Y-63880088D01*
X228766439Y-63837102D01*
X228766448Y-63837095D01*
X228771127Y-63834395D01*
X228771200Y-63834522D01*
X228781964Y-63828218D01*
X228782773Y-63827829D01*
X228864956Y-63768118D01*
X228945677Y-63711598D01*
X228946547Y-63710727D01*
X228961350Y-63698084D01*
X228964878Y-63695522D01*
X229032474Y-63624820D01*
X229033362Y-63623911D01*
X229100398Y-63556877D01*
X229103085Y-63553039D01*
X229115039Y-63538465D01*
X229120429Y-63532828D01*
X229120428Y-63532828D01*
X229120432Y-63532825D01*
X229172546Y-63453873D01*
X229173396Y-63452623D01*
X229225902Y-63377639D01*
X229229343Y-63370259D01*
X229238232Y-63354364D01*
X229244435Y-63344968D01*
X229280307Y-63261038D01*
X229281084Y-63259297D01*
X229318375Y-63179330D01*
X229321370Y-63168148D01*
X229327125Y-63151505D01*
X229332903Y-63137988D01*
X229333280Y-63136339D01*
X229352475Y-63052235D01*
X229353029Y-63050000D01*
X229763500Y-63050000D01*
X229763685Y-63052235D01*
X229770653Y-63136339D01*
X229770808Y-63138826D01*
X229774619Y-63228523D01*
X229774620Y-63228534D01*
X229779739Y-63252284D01*
X229780920Y-63260233D01*
X229782665Y-63281303D01*
X229782665Y-63281306D01*
X229804732Y-63368445D01*
X229805237Y-63370602D01*
X229824844Y-63461575D01*
X229824845Y-63461580D01*
X229832683Y-63481084D01*
X229835258Y-63488987D01*
X229839643Y-63506300D01*
X229877083Y-63591657D01*
X229877803Y-63593371D01*
X229890459Y-63624865D01*
X229913735Y-63682788D01*
X229923032Y-63697888D01*
X229927018Y-63705495D01*
X229932877Y-63718851D01*
X229985620Y-63799582D01*
X229986511Y-63800985D01*
X230038730Y-63885794D01*
X230045343Y-63893308D01*
X230056063Y-63907402D01*
X230059819Y-63913151D01*
X230059821Y-63913153D01*
X230127072Y-63986208D01*
X230127346Y-63986505D01*
X230128272Y-63987534D01*
X230139910Y-64000757D01*
X230196236Y-64064755D01*
X230201364Y-64068895D01*
X230214682Y-64081377D01*
X230217016Y-64083913D01*
X230298733Y-64147515D01*
X230381720Y-64214523D01*
X230381722Y-64214524D01*
X230384478Y-64216064D01*
X230400160Y-64226460D01*
X230400167Y-64226465D01*
X230400171Y-64226467D01*
X230400174Y-64226470D01*
X230493962Y-64277225D01*
X230572538Y-64321121D01*
X230589851Y-64330793D01*
X230592649Y-64332058D01*
X230599495Y-64335097D01*
X230599594Y-64334873D01*
X230604291Y-64336933D01*
X230604297Y-64336936D01*
X230708076Y-64372563D01*
X230814629Y-64410211D01*
X230815198Y-64410308D01*
X230819929Y-64411312D01*
X230823802Y-64412292D01*
X230823819Y-64412298D01*
X230914026Y-64427350D01*
X230935191Y-64430882D01*
X230961216Y-64435345D01*
X231049592Y-64450499D01*
X231049600Y-64450500D01*
X231284844Y-64450500D01*
X231284849Y-64450500D01*
X231317873Y-64444988D01*
X231341269Y-64441085D01*
X231346207Y-64440463D01*
X231406341Y-64435346D01*
X231458415Y-64421786D01*
X231463817Y-64420634D01*
X231513781Y-64412298D01*
X231570986Y-64392658D01*
X231575463Y-64391309D01*
X231637049Y-64375275D01*
X231643049Y-64372563D01*
X231648062Y-64370296D01*
X231683097Y-64354459D01*
X231688481Y-64352322D01*
X231733303Y-64336936D01*
X231789354Y-64306601D01*
X231793327Y-64304632D01*
X231801956Y-64300730D01*
X231854286Y-64277077D01*
X231893447Y-64250608D01*
X231898620Y-64247469D01*
X231937426Y-64226470D01*
X231990332Y-64185290D01*
X231993650Y-64182881D01*
X232051803Y-64143579D01*
X232083570Y-64113131D01*
X232088348Y-64109002D01*
X232120584Y-64083913D01*
X232122909Y-64081388D01*
X232138220Y-64064755D01*
X232168189Y-64032198D01*
X232170901Y-64029432D01*
X232223918Y-63978621D01*
X232248129Y-63945883D01*
X232252340Y-63940785D01*
X232277779Y-63913153D01*
X232318006Y-63851578D01*
X232320041Y-63848652D01*
X232365679Y-63786947D01*
X232382533Y-63753517D01*
X232385970Y-63747552D01*
X232404724Y-63718849D01*
X232435605Y-63648445D01*
X232436974Y-63645538D01*
X232473007Y-63574074D01*
X232483008Y-63541413D01*
X232485501Y-63534694D01*
X232497957Y-63506300D01*
X232517627Y-63428621D01*
X232518435Y-63425732D01*
X232542816Y-63346123D01*
X232546736Y-63315508D01*
X232548130Y-63308170D01*
X232554934Y-63281305D01*
X232561818Y-63198226D01*
X232562108Y-63195469D01*
X232564175Y-63179327D01*
X232573098Y-63109654D01*
X232571926Y-63082079D01*
X232572081Y-63074355D01*
X232574100Y-63050000D01*
X232572392Y-63029392D01*
X232566947Y-62963680D01*
X232566791Y-62961190D01*
X232566264Y-62948782D01*
X232562980Y-62871468D01*
X232557859Y-62847709D01*
X232556679Y-62839762D01*
X232556086Y-62832602D01*
X232554934Y-62818695D01*
X232552409Y-62808726D01*
X232547211Y-62788198D01*
X232532856Y-62731514D01*
X232532363Y-62729408D01*
X232520169Y-62672828D01*
X232512754Y-62638419D01*
X232504915Y-62618912D01*
X232502341Y-62611015D01*
X232497957Y-62593700D01*
X232460524Y-62508363D01*
X232459807Y-62506658D01*
X232423864Y-62417210D01*
X232414568Y-62402112D01*
X232410579Y-62394500D01*
X232404724Y-62381151D01*
X232351984Y-62300426D01*
X232351094Y-62299023D01*
X232298874Y-62214212D01*
X232298871Y-62214209D01*
X232298869Y-62214205D01*
X232292251Y-62206686D01*
X232281527Y-62192584D01*
X232277780Y-62186848D01*
X232268981Y-62177290D01*
X232210227Y-62113466D01*
X232209358Y-62112501D01*
X232141364Y-62035245D01*
X232136236Y-62031104D01*
X232122917Y-62018621D01*
X232120585Y-62016088D01*
X232120583Y-62016086D01*
X232038861Y-61952480D01*
X231955880Y-61885477D01*
X231955873Y-61885472D01*
X231953111Y-61883929D01*
X231937443Y-61873542D01*
X231937434Y-61873535D01*
X231937428Y-61873532D01*
X231937426Y-61873530D01*
X231843637Y-61822774D01*
X231794570Y-61795363D01*
X231747761Y-61769213D01*
X231745181Y-61768047D01*
X231738084Y-61764898D01*
X231737988Y-61765119D01*
X231733299Y-61763062D01*
X231629555Y-61727447D01*
X231522972Y-61689789D01*
X231522960Y-61689786D01*
X231522412Y-61689692D01*
X231517689Y-61688691D01*
X231513790Y-61687704D01*
X231513783Y-61687702D01*
X231513781Y-61687702D01*
X231463809Y-61679363D01*
X231402300Y-61669098D01*
X231288009Y-61649500D01*
X231288000Y-61649500D01*
X231284849Y-61649500D01*
X231052751Y-61649500D01*
X231052750Y-61649500D01*
X230996333Y-61658913D01*
X230991387Y-61659535D01*
X230988899Y-61659747D01*
X230931269Y-61664652D01*
X230931261Y-61664653D01*
X230879197Y-61678208D01*
X230873781Y-61679363D01*
X230823813Y-61687703D01*
X230766640Y-61707331D01*
X230762130Y-61708690D01*
X230700549Y-61724725D01*
X230700544Y-61724727D01*
X230654511Y-61745535D01*
X230649104Y-61747680D01*
X230604303Y-61763060D01*
X230604298Y-61763063D01*
X230548248Y-61793395D01*
X230544278Y-61795363D01*
X230483314Y-61822922D01*
X230444159Y-61849385D01*
X230438949Y-61852544D01*
X230400179Y-61873526D01*
X230400167Y-61873533D01*
X230347287Y-61914692D01*
X230343924Y-61917133D01*
X230285801Y-61956417D01*
X230285794Y-61956422D01*
X230254048Y-61986847D01*
X230249230Y-61991011D01*
X230217018Y-62016085D01*
X230217009Y-62016093D01*
X230169413Y-62067795D01*
X230166700Y-62070564D01*
X230113682Y-62121378D01*
X230113680Y-62121380D01*
X230089481Y-62154098D01*
X230085248Y-62159223D01*
X230059822Y-62186845D01*
X230019597Y-62248412D01*
X230017541Y-62251367D01*
X229971924Y-62313047D01*
X229971920Y-62313054D01*
X229955068Y-62346475D01*
X229951611Y-62352472D01*
X229932876Y-62381149D01*
X229902019Y-62451496D01*
X229900603Y-62454503D01*
X229864590Y-62525931D01*
X229854592Y-62558573D01*
X229852088Y-62565323D01*
X229839645Y-62593691D01*
X229839645Y-62593692D01*
X229819978Y-62671347D01*
X229819158Y-62674279D01*
X229794784Y-62753876D01*
X229794783Y-62753879D01*
X229790863Y-62784485D01*
X229789468Y-62791830D01*
X229782667Y-62818688D01*
X229782664Y-62818705D01*
X229775783Y-62901758D01*
X229775493Y-62904513D01*
X229764502Y-62990344D01*
X229764501Y-62990344D01*
X229765672Y-63017900D01*
X229765516Y-63025655D01*
X229765207Y-63029392D01*
X229763500Y-63050000D01*
X229353029Y-63050000D01*
X229353033Y-63049983D01*
X229375007Y-62967977D01*
X229376687Y-62948766D01*
X229378006Y-62940377D01*
X229378245Y-62939325D01*
X229382991Y-62918537D01*
X229386792Y-62833871D01*
X229386958Y-62831363D01*
X229394077Y-62750000D01*
X229392110Y-62727528D01*
X229391937Y-62719334D01*
X229393090Y-62693670D01*
X229382153Y-62612939D01*
X229381834Y-62610067D01*
X229375007Y-62532023D01*
X229368315Y-62507053D01*
X229366763Y-62499322D01*
X229362876Y-62470618D01*
X229362875Y-62470616D01*
X229362875Y-62470613D01*
X229338721Y-62396276D01*
X229337798Y-62393161D01*
X229318376Y-62320673D01*
X229306066Y-62294274D01*
X229303288Y-62287222D01*
X229293319Y-62256541D01*
X229293317Y-62256537D01*
X229293317Y-62256536D01*
X229280788Y-62233253D01*
X229257827Y-62190583D01*
X229256232Y-62187405D01*
X229255115Y-62185010D01*
X229225902Y-62122362D01*
X229207312Y-62095813D01*
X229203498Y-62089625D01*
X229192518Y-62069221D01*
X229186652Y-62058319D01*
X229141992Y-62002318D01*
X229139696Y-61999247D01*
X229100398Y-61943123D01*
X229075153Y-61917878D01*
X229070515Y-61912689D01*
X229046308Y-61882334D01*
X229039205Y-61876128D01*
X228994839Y-61837366D01*
X228991790Y-61834515D01*
X228945678Y-61788402D01*
X228913740Y-61766039D01*
X228908505Y-61761939D01*
X228876796Y-61734235D01*
X228876794Y-61734233D01*
X228876792Y-61734232D01*
X228820949Y-61700868D01*
X228817186Y-61698431D01*
X228766441Y-61662899D01*
X228728133Y-61645035D01*
X228722535Y-61642067D01*
X228683569Y-61618787D01*
X228683567Y-61618786D01*
X228625728Y-61597079D01*
X228621315Y-61595226D01*
X228568130Y-61570425D01*
X228524121Y-61558632D01*
X228518381Y-61556790D01*
X228472825Y-61539692D01*
X228415256Y-61529245D01*
X228410280Y-61528128D01*
X228356777Y-61513793D01*
X228308127Y-61509536D01*
X228302459Y-61508775D01*
X228251351Y-61499500D01*
X228251347Y-61499500D01*
X228196109Y-61499500D01*
X228190707Y-61499264D01*
X228162251Y-61496774D01*
X228138802Y-61494723D01*
X228138797Y-61494723D01*
X228087151Y-61499241D01*
X228084546Y-61499414D01*
X228082649Y-61499499D01*
X228028564Y-61504366D01*
X227920820Y-61513793D01*
X227920268Y-61513891D01*
X227915075Y-61514581D01*
X227914612Y-61514622D01*
X227914609Y-61514623D01*
X227826506Y-61538938D01*
X227810856Y-61543257D01*
X227709466Y-61570425D01*
X227702539Y-61572946D01*
X227697850Y-61574444D01*
X227697649Y-61574499D01*
X227697636Y-61574504D01*
X227603351Y-61619907D01*
X227511159Y-61662899D01*
X227506470Y-61665606D01*
X227506398Y-61665481D01*
X227495671Y-61671764D01*
X227494831Y-61672168D01*
X227412588Y-61731919D01*
X227331921Y-61788403D01*
X227331041Y-61789284D01*
X227316261Y-61801906D01*
X227312728Y-61804472D01*
X227312721Y-61804478D01*
X227245166Y-61875134D01*
X227244195Y-61876128D01*
X227177202Y-61943121D01*
X227174511Y-61946965D01*
X227162573Y-61961521D01*
X227157168Y-61967174D01*
X227134960Y-62000818D01*
X227105081Y-62046080D01*
X227104153Y-62047447D01*
X227051701Y-62122357D01*
X227051691Y-62122374D01*
X227048257Y-62129738D01*
X227039372Y-62145628D01*
X227033163Y-62155034D01*
X226997298Y-62238944D01*
X226996479Y-62240778D01*
X226959226Y-62320664D01*
X226959224Y-62320671D01*
X226956225Y-62331860D01*
X226950481Y-62348475D01*
X226944699Y-62362005D01*
X226944696Y-62362014D01*
X226925118Y-62447789D01*
X226924560Y-62450038D01*
X226902593Y-62532022D01*
X226902593Y-62532023D01*
X226900912Y-62551226D01*
X226899593Y-62559619D01*
X226898292Y-62565323D01*
X226894609Y-62581459D01*
X226894609Y-62581464D01*
X226890807Y-62666088D01*
X226890634Y-62668708D01*
X226883523Y-62749995D01*
X226883523Y-62750003D01*
X184619299Y-62750003D01*
X184619299Y-61967129D01*
X184619298Y-61967123D01*
X184619297Y-61967116D01*
X184612891Y-61907517D01*
X184604093Y-61883929D01*
X184562597Y-61772671D01*
X184562595Y-61772668D01*
X184560009Y-61769213D01*
X184485221Y-61669309D01*
X184460804Y-61603848D01*
X184475655Y-61535575D01*
X184485216Y-61520696D01*
X184562596Y-61417331D01*
X184612891Y-61282483D01*
X184619300Y-61222873D01*
X184619299Y-59427128D01*
X184612891Y-59367517D01*
X184562596Y-59232669D01*
X184485221Y-59129309D01*
X184460804Y-59063848D01*
X184475655Y-58995575D01*
X184485216Y-58980696D01*
X184562596Y-58877331D01*
X184612891Y-58742483D01*
X184619300Y-58682873D01*
X184619299Y-57900003D01*
X226883523Y-57900003D01*
X226885488Y-57922470D01*
X226885662Y-57930660D01*
X226884509Y-57956324D01*
X226884510Y-57956328D01*
X226895441Y-58037031D01*
X226895766Y-58039949D01*
X226902592Y-58117972D01*
X226902595Y-58117987D01*
X226909282Y-58142941D01*
X226910834Y-58150670D01*
X226914724Y-58179381D01*
X226914726Y-58179392D01*
X226938875Y-58253713D01*
X226939797Y-58256825D01*
X226959223Y-58329324D01*
X226959227Y-58329336D01*
X226971536Y-58355732D01*
X226974312Y-58362779D01*
X226984283Y-58393464D01*
X227019770Y-58459411D01*
X227021358Y-58462576D01*
X227051698Y-58527639D01*
X227058627Y-58537534D01*
X227070290Y-58554191D01*
X227074103Y-58560378D01*
X227090946Y-58591678D01*
X227090952Y-58591687D01*
X227135592Y-58647663D01*
X227137906Y-58650758D01*
X227169096Y-58695301D01*
X227177202Y-58706877D01*
X227177205Y-58706880D01*
X227202446Y-58732121D01*
X227207083Y-58737309D01*
X227231292Y-58767666D01*
X227282759Y-58812632D01*
X227285808Y-58815483D01*
X227331916Y-58861592D01*
X227331922Y-58861597D01*
X227331923Y-58861598D01*
X227343602Y-58869775D01*
X227363855Y-58883957D01*
X227369090Y-58888057D01*
X227400804Y-58915765D01*
X227400813Y-58915771D01*
X227456649Y-58949131D01*
X227460413Y-58951568D01*
X227511159Y-58987101D01*
X227511164Y-58987104D01*
X227529331Y-58995575D01*
X227549477Y-59004969D01*
X227555071Y-59007935D01*
X227592149Y-59030088D01*
X227594036Y-59031215D01*
X227612628Y-59038192D01*
X227651883Y-59052925D01*
X227656303Y-59054782D01*
X227709470Y-59079575D01*
X227709474Y-59079577D01*
X227739869Y-59087720D01*
X227753477Y-59091366D01*
X227759213Y-59093207D01*
X227776064Y-59099531D01*
X227804776Y-59110307D01*
X227862345Y-59120754D01*
X227867311Y-59121868D01*
X227920823Y-59136207D01*
X227969489Y-59140464D01*
X227975106Y-59141218D01*
X228026253Y-59150500D01*
X228081491Y-59150500D01*
X228086892Y-59150735D01*
X228115348Y-59153225D01*
X228138798Y-59155277D01*
X228138800Y-59155277D01*
X228190494Y-59150754D01*
X228193084Y-59150583D01*
X228194921Y-59150500D01*
X228194955Y-59150500D01*
X228248017Y-59145724D01*
X228248973Y-59145638D01*
X228248980Y-59145724D01*
X228249277Y-59145611D01*
X228356777Y-59136207D01*
X228356800Y-59136200D01*
X228357275Y-59136117D01*
X228362513Y-59135419D01*
X228362988Y-59135377D01*
X228466797Y-59106726D01*
X228568130Y-59079575D01*
X228568134Y-59079572D01*
X228575054Y-59077053D01*
X228579748Y-59075554D01*
X228579970Y-59075493D01*
X228579981Y-59075487D01*
X228579983Y-59075487D01*
X228604151Y-59063848D01*
X228674254Y-59030088D01*
X228766439Y-58987102D01*
X228766448Y-58987095D01*
X228771127Y-58984395D01*
X228771200Y-58984522D01*
X228781964Y-58978218D01*
X228782773Y-58977829D01*
X228864956Y-58918118D01*
X228945677Y-58861598D01*
X228946547Y-58860727D01*
X228961350Y-58848084D01*
X228964878Y-58845522D01*
X229032474Y-58774820D01*
X229033362Y-58773911D01*
X229100398Y-58706877D01*
X229103085Y-58703039D01*
X229115039Y-58688465D01*
X229120377Y-58682883D01*
X229120432Y-58682825D01*
X229172546Y-58603873D01*
X229173396Y-58602623D01*
X229225902Y-58527639D01*
X229229343Y-58520259D01*
X229238232Y-58504364D01*
X229244435Y-58494968D01*
X229280307Y-58411038D01*
X229281084Y-58409297D01*
X229318375Y-58329330D01*
X229321370Y-58318148D01*
X229327125Y-58301505D01*
X229328824Y-58297531D01*
X229332903Y-58287988D01*
X229352476Y-58202228D01*
X229353033Y-58199983D01*
X229354238Y-58195485D01*
X229375007Y-58117977D01*
X229376687Y-58098766D01*
X229378006Y-58090377D01*
X229379308Y-58084672D01*
X229382991Y-58068537D01*
X229386792Y-57983871D01*
X229386958Y-57981363D01*
X229394077Y-57900000D01*
X229392110Y-57877528D01*
X229391937Y-57869334D01*
X229393090Y-57843670D01*
X229382153Y-57762939D01*
X229381834Y-57760067D01*
X229375007Y-57682023D01*
X229368315Y-57657053D01*
X229366763Y-57649322D01*
X229362876Y-57620618D01*
X229362875Y-57620616D01*
X229362875Y-57620613D01*
X229356177Y-57599998D01*
X229763500Y-57599998D01*
X229770653Y-57686339D01*
X229770808Y-57688826D01*
X229774619Y-57778523D01*
X229774620Y-57778534D01*
X229779739Y-57802284D01*
X229780920Y-57810233D01*
X229782665Y-57831303D01*
X229782665Y-57831306D01*
X229804732Y-57918445D01*
X229805237Y-57920602D01*
X229824844Y-58011575D01*
X229824845Y-58011580D01*
X229832683Y-58031084D01*
X229835258Y-58038987D01*
X229839643Y-58056301D01*
X229852088Y-58084672D01*
X229877083Y-58141657D01*
X229877803Y-58143371D01*
X229898745Y-58195485D01*
X229913735Y-58232788D01*
X229923032Y-58247888D01*
X229927018Y-58255495D01*
X229932877Y-58268851D01*
X229985620Y-58349582D01*
X229986511Y-58350985D01*
X230038730Y-58435794D01*
X230045343Y-58443308D01*
X230056063Y-58457402D01*
X230059819Y-58463151D01*
X230059821Y-58463153D01*
X230104776Y-58511988D01*
X230127346Y-58536505D01*
X230128272Y-58537534D01*
X230196236Y-58614755D01*
X230201364Y-58618895D01*
X230214682Y-58631377D01*
X230217016Y-58633913D01*
X230298733Y-58697515D01*
X230381720Y-58764523D01*
X230381722Y-58764524D01*
X230384478Y-58766064D01*
X230400160Y-58776460D01*
X230400167Y-58776465D01*
X230400171Y-58776467D01*
X230400174Y-58776470D01*
X230493962Y-58827225D01*
X230572538Y-58871121D01*
X230589851Y-58880793D01*
X230592649Y-58882058D01*
X230599495Y-58885097D01*
X230599594Y-58884873D01*
X230604291Y-58886933D01*
X230604297Y-58886936D01*
X230708076Y-58922563D01*
X230814629Y-58960211D01*
X230815198Y-58960308D01*
X230819929Y-58961312D01*
X230823802Y-58962292D01*
X230823819Y-58962298D01*
X230914026Y-58977350D01*
X230935191Y-58980882D01*
X230955676Y-58984395D01*
X231049592Y-59000499D01*
X231049600Y-59000500D01*
X231284844Y-59000500D01*
X231284849Y-59000500D01*
X231317873Y-58994988D01*
X231341269Y-58991085D01*
X231346207Y-58990463D01*
X231406341Y-58985346D01*
X231458415Y-58971786D01*
X231463817Y-58970634D01*
X231513781Y-58962298D01*
X231570986Y-58942658D01*
X231575463Y-58941309D01*
X231637049Y-58925275D01*
X231643049Y-58922563D01*
X231652882Y-58918118D01*
X231683097Y-58904459D01*
X231688481Y-58902322D01*
X231733303Y-58886936D01*
X231789354Y-58856601D01*
X231793327Y-58854632D01*
X231801956Y-58850730D01*
X231854286Y-58827077D01*
X231893447Y-58800608D01*
X231898620Y-58797469D01*
X231937426Y-58776470D01*
X231990332Y-58735290D01*
X231993650Y-58732881D01*
X232051803Y-58693579D01*
X232083570Y-58663131D01*
X232088348Y-58659002D01*
X232120584Y-58633913D01*
X232122909Y-58631388D01*
X232138220Y-58614755D01*
X232168189Y-58582198D01*
X232170901Y-58579432D01*
X232223918Y-58528621D01*
X232248129Y-58495883D01*
X232252340Y-58490785D01*
X232277779Y-58463153D01*
X232278148Y-58462589D01*
X232318005Y-58401581D01*
X232320041Y-58398652D01*
X232365679Y-58336947D01*
X232382533Y-58303517D01*
X232385970Y-58297552D01*
X232404724Y-58268849D01*
X232435605Y-58198445D01*
X232436974Y-58195538D01*
X232473007Y-58124074D01*
X232483008Y-58091413D01*
X232485501Y-58084694D01*
X232497957Y-58056300D01*
X232517627Y-57978621D01*
X232518435Y-57975732D01*
X232542816Y-57896123D01*
X232546736Y-57865508D01*
X232548130Y-57858170D01*
X232554934Y-57831305D01*
X232560597Y-57762959D01*
X232561818Y-57748226D01*
X232562108Y-57745469D01*
X232573098Y-57659654D01*
X232571926Y-57632079D01*
X232572081Y-57624355D01*
X232574100Y-57600000D01*
X232574009Y-57598907D01*
X232566947Y-57513680D01*
X232566791Y-57511190D01*
X232565070Y-57470664D01*
X232562980Y-57421468D01*
X232557859Y-57397709D01*
X232556679Y-57389762D01*
X232554934Y-57368695D01*
X232532856Y-57281514D01*
X232532363Y-57279408D01*
X232530843Y-57272357D01*
X232512754Y-57188419D01*
X232504915Y-57168912D01*
X232502341Y-57161015D01*
X232497957Y-57143700D01*
X232460524Y-57058363D01*
X232459807Y-57056658D01*
X232423864Y-56967210D01*
X232414568Y-56952112D01*
X232410579Y-56944500D01*
X232404724Y-56931151D01*
X232351984Y-56850426D01*
X232351094Y-56849023D01*
X232298874Y-56764212D01*
X232298871Y-56764209D01*
X232298869Y-56764205D01*
X232292251Y-56756686D01*
X232281527Y-56742584D01*
X232277780Y-56736848D01*
X232262662Y-56720425D01*
X232210227Y-56663466D01*
X232209358Y-56662501D01*
X232141364Y-56585245D01*
X232136236Y-56581104D01*
X232122917Y-56568621D01*
X232120585Y-56566088D01*
X232120583Y-56566086D01*
X232038861Y-56502480D01*
X231994672Y-56466800D01*
X231955880Y-56435477D01*
X231955873Y-56435472D01*
X231953111Y-56433929D01*
X231937443Y-56423542D01*
X231937434Y-56423535D01*
X231937428Y-56423532D01*
X231937426Y-56423530D01*
X231843637Y-56372774D01*
X231794570Y-56345363D01*
X231747761Y-56319213D01*
X231745181Y-56318047D01*
X231738084Y-56314898D01*
X231737988Y-56315119D01*
X231733299Y-56313062D01*
X231629555Y-56277447D01*
X231522972Y-56239789D01*
X231522960Y-56239786D01*
X231522412Y-56239692D01*
X231517689Y-56238691D01*
X231513790Y-56237704D01*
X231513783Y-56237702D01*
X231513781Y-56237702D01*
X231463809Y-56229363D01*
X231402300Y-56219098D01*
X231288009Y-56199500D01*
X231288000Y-56199500D01*
X231284849Y-56199500D01*
X231052751Y-56199500D01*
X231052750Y-56199500D01*
X230996333Y-56208913D01*
X230991387Y-56209535D01*
X230988899Y-56209747D01*
X230931269Y-56214652D01*
X230931261Y-56214653D01*
X230879197Y-56228208D01*
X230873781Y-56229363D01*
X230823813Y-56237703D01*
X230766640Y-56257331D01*
X230762130Y-56258690D01*
X230700549Y-56274725D01*
X230700544Y-56274727D01*
X230654511Y-56295535D01*
X230649104Y-56297680D01*
X230604303Y-56313060D01*
X230604298Y-56313063D01*
X230548248Y-56343395D01*
X230544278Y-56345363D01*
X230483314Y-56372922D01*
X230444159Y-56399385D01*
X230438949Y-56402544D01*
X230400179Y-56423526D01*
X230400167Y-56423533D01*
X230347287Y-56464692D01*
X230343924Y-56467133D01*
X230285801Y-56506417D01*
X230285794Y-56506422D01*
X230254048Y-56536847D01*
X230249230Y-56541011D01*
X230217018Y-56566085D01*
X230217009Y-56566093D01*
X230169413Y-56617795D01*
X230166700Y-56620564D01*
X230113682Y-56671378D01*
X230113680Y-56671380D01*
X230089481Y-56704098D01*
X230085248Y-56709223D01*
X230059822Y-56736845D01*
X230019597Y-56798412D01*
X230017541Y-56801367D01*
X229971924Y-56863047D01*
X229971920Y-56863054D01*
X229955068Y-56896475D01*
X229951611Y-56902472D01*
X229932876Y-56931149D01*
X229902019Y-57001496D01*
X229900603Y-57004503D01*
X229864590Y-57075931D01*
X229854592Y-57108573D01*
X229852088Y-57115323D01*
X229839645Y-57143691D01*
X229839645Y-57143692D01*
X229819978Y-57221347D01*
X229819158Y-57224279D01*
X229794784Y-57303876D01*
X229794783Y-57303879D01*
X229790863Y-57334485D01*
X229789468Y-57341830D01*
X229782667Y-57368688D01*
X229782664Y-57368705D01*
X229775783Y-57451758D01*
X229775493Y-57454513D01*
X229764502Y-57540344D01*
X229764501Y-57540344D01*
X229765672Y-57567900D01*
X229765516Y-57575655D01*
X229763500Y-57599998D01*
X229356177Y-57599998D01*
X229338721Y-57546276D01*
X229337798Y-57543161D01*
X229318376Y-57470673D01*
X229306066Y-57444274D01*
X229303288Y-57437222D01*
X229293319Y-57406541D01*
X229293317Y-57406537D01*
X229293317Y-57406536D01*
X229280788Y-57383253D01*
X229257827Y-57340583D01*
X229256232Y-57337405D01*
X229241136Y-57305032D01*
X229225902Y-57272362D01*
X229207312Y-57245813D01*
X229203498Y-57239625D01*
X229193662Y-57221347D01*
X229186652Y-57208319D01*
X229141992Y-57152318D01*
X229139696Y-57149247D01*
X229100398Y-57093123D01*
X229075153Y-57067878D01*
X229070515Y-57062689D01*
X229046306Y-57032332D01*
X228994839Y-56987366D01*
X228991790Y-56984515D01*
X228945678Y-56938402D01*
X228913740Y-56916039D01*
X228908505Y-56911939D01*
X228891966Y-56897489D01*
X228876796Y-56884235D01*
X228876794Y-56884233D01*
X228876792Y-56884232D01*
X228820949Y-56850868D01*
X228817186Y-56848431D01*
X228766441Y-56812899D01*
X228741711Y-56801367D01*
X228728132Y-56795034D01*
X228722535Y-56792067D01*
X228683569Y-56768787D01*
X228683567Y-56768786D01*
X228625728Y-56747079D01*
X228621315Y-56745226D01*
X228568130Y-56720425D01*
X228524121Y-56708632D01*
X228518381Y-56706790D01*
X228472825Y-56689692D01*
X228415256Y-56679245D01*
X228410280Y-56678128D01*
X228356777Y-56663793D01*
X228308127Y-56659536D01*
X228302459Y-56658775D01*
X228251351Y-56649500D01*
X228251347Y-56649500D01*
X228196109Y-56649500D01*
X228190707Y-56649264D01*
X228162251Y-56646774D01*
X228138802Y-56644723D01*
X228138797Y-56644723D01*
X228087151Y-56649241D01*
X228084546Y-56649414D01*
X228082649Y-56649499D01*
X228028564Y-56654366D01*
X227920820Y-56663793D01*
X227920268Y-56663891D01*
X227915075Y-56664581D01*
X227914612Y-56664622D01*
X227914609Y-56664623D01*
X227826506Y-56688938D01*
X227810856Y-56693257D01*
X227709466Y-56720425D01*
X227702539Y-56722946D01*
X227697850Y-56724444D01*
X227697649Y-56724499D01*
X227697636Y-56724504D01*
X227603351Y-56769907D01*
X227511159Y-56812899D01*
X227506470Y-56815606D01*
X227506398Y-56815481D01*
X227495671Y-56821764D01*
X227494831Y-56822168D01*
X227412588Y-56881919D01*
X227331921Y-56938403D01*
X227331041Y-56939284D01*
X227316261Y-56951906D01*
X227312728Y-56954472D01*
X227312721Y-56954478D01*
X227245166Y-57025134D01*
X227244195Y-57026128D01*
X227177202Y-57093121D01*
X227174511Y-57096965D01*
X227162573Y-57111521D01*
X227157168Y-57117174D01*
X227134960Y-57150818D01*
X227105081Y-57196080D01*
X227104153Y-57197447D01*
X227051701Y-57272357D01*
X227051691Y-57272374D01*
X227048257Y-57279738D01*
X227039372Y-57295628D01*
X227033163Y-57305034D01*
X226997298Y-57388944D01*
X226996479Y-57390778D01*
X226959226Y-57470664D01*
X226959224Y-57470671D01*
X226956225Y-57481860D01*
X226950481Y-57498475D01*
X226944699Y-57512005D01*
X226944696Y-57512014D01*
X226925118Y-57597789D01*
X226924560Y-57600038D01*
X226902593Y-57682022D01*
X226902593Y-57682023D01*
X226900912Y-57701226D01*
X226899593Y-57709625D01*
X226894609Y-57731459D01*
X226894609Y-57731464D01*
X226890807Y-57816088D01*
X226890634Y-57818708D01*
X226883523Y-57899995D01*
X226883523Y-57900003D01*
X184619299Y-57900003D01*
X184619299Y-57846678D01*
X184619535Y-57841272D01*
X184620408Y-57831301D01*
X184624459Y-57785000D01*
X184619534Y-57728722D01*
X184619299Y-57723319D01*
X184619299Y-56887129D01*
X184619298Y-56887123D01*
X184618987Y-56884232D01*
X184612891Y-56827517D01*
X184611952Y-56825000D01*
X184562597Y-56692671D01*
X184562593Y-56692664D01*
X184476347Y-56577455D01*
X184476344Y-56577452D01*
X184361135Y-56491206D01*
X184361128Y-56491202D01*
X184226282Y-56440908D01*
X184226283Y-56440908D01*
X184166683Y-56434501D01*
X184166681Y-56434500D01*
X184166673Y-56434500D01*
X184166665Y-56434500D01*
X183330474Y-56434500D01*
X183325072Y-56434264D01*
X183284917Y-56430751D01*
X183268801Y-56429341D01*
X183268798Y-56429341D01*
X183243219Y-56431578D01*
X183212525Y-56434264D01*
X183207124Y-56434500D01*
X182944980Y-56434500D01*
X182877941Y-56414815D01*
X182832186Y-56362011D01*
X182822242Y-56292853D01*
X182851267Y-56229297D01*
X182857299Y-56222819D01*
X183634118Y-55446000D01*
X185963843Y-53116274D01*
X185976125Y-53106437D01*
X185975944Y-53106218D01*
X185981953Y-53101245D01*
X185981962Y-53101240D01*
X186028872Y-53051285D01*
X186030111Y-53050006D01*
X186050423Y-53029696D01*
X186054692Y-53024190D01*
X186058476Y-53019759D01*
X186090493Y-52985667D01*
X186100189Y-52968028D01*
X186110873Y-52951761D01*
X186123208Y-52935862D01*
X186141776Y-52892951D01*
X186144334Y-52887726D01*
X186154894Y-52868521D01*
X186165211Y-52849757D01*
X186214759Y-52800495D01*
X186273870Y-52785499D01*
X186476671Y-52785499D01*
X186476672Y-52785499D01*
X186536283Y-52779091D01*
X186671131Y-52728796D01*
X186774906Y-52651109D01*
X186840370Y-52626692D01*
X186908643Y-52641543D01*
X186923529Y-52651110D01*
X187026710Y-52728352D01*
X187026713Y-52728354D01*
X187161420Y-52778596D01*
X187161427Y-52778598D01*
X187220955Y-52784999D01*
X187220972Y-52785000D01*
X187868800Y-52785000D01*
X187868800Y-51881494D01*
X187973639Y-51929373D01*
X188082327Y-51945000D01*
X188155273Y-51945000D01*
X188263961Y-51929373D01*
X188368800Y-51881494D01*
X188368800Y-52785000D01*
X189016628Y-52785000D01*
X189016644Y-52784999D01*
X189076172Y-52778598D01*
X189076179Y-52778596D01*
X189210886Y-52728354D01*
X189210889Y-52728352D01*
X189314071Y-52651110D01*
X189379535Y-52626692D01*
X189447808Y-52641543D01*
X189462688Y-52651105D01*
X189503389Y-52681574D01*
X189566468Y-52728795D01*
X189566471Y-52728797D01*
X189701317Y-52779091D01*
X189701316Y-52779091D01*
X189708244Y-52779835D01*
X189760927Y-52785500D01*
X190597119Y-52785499D01*
X190602524Y-52785734D01*
X190628065Y-52787969D01*
X190658799Y-52790659D01*
X190658799Y-52790658D01*
X190658800Y-52790659D01*
X190715075Y-52785734D01*
X190720481Y-52785499D01*
X191556671Y-52785499D01*
X191556672Y-52785499D01*
X191616283Y-52779091D01*
X191751131Y-52728796D01*
X191854490Y-52651421D01*
X191919952Y-52627004D01*
X191988225Y-52641855D01*
X192003103Y-52651416D01*
X192043389Y-52681574D01*
X192106468Y-52728795D01*
X192106471Y-52728797D01*
X192241317Y-52779091D01*
X192241316Y-52779091D01*
X192248244Y-52779835D01*
X192300927Y-52785500D01*
X193137119Y-52785499D01*
X193142524Y-52785734D01*
X193168065Y-52787969D01*
X193198799Y-52790659D01*
X193198799Y-52790658D01*
X193198800Y-52790659D01*
X193255075Y-52785734D01*
X193260481Y-52785499D01*
X194096671Y-52785499D01*
X194096672Y-52785499D01*
X194156283Y-52779091D01*
X194291131Y-52728796D01*
X194394490Y-52651421D01*
X194459952Y-52627004D01*
X194528225Y-52641855D01*
X194543103Y-52651416D01*
X194583389Y-52681574D01*
X194646468Y-52728795D01*
X194646471Y-52728797D01*
X194781317Y-52779091D01*
X194781316Y-52779091D01*
X194788244Y-52779835D01*
X194840927Y-52785500D01*
X195677119Y-52785499D01*
X195682524Y-52785734D01*
X195708065Y-52787969D01*
X195738799Y-52790659D01*
X195738799Y-52790658D01*
X195738800Y-52790659D01*
X195795075Y-52785734D01*
X195800481Y-52785499D01*
X196636671Y-52785499D01*
X196636672Y-52785499D01*
X196696283Y-52779091D01*
X196831131Y-52728796D01*
X196934490Y-52651421D01*
X196999952Y-52627004D01*
X197068225Y-52641855D01*
X197083103Y-52651416D01*
X197123389Y-52681574D01*
X197186468Y-52728795D01*
X197186471Y-52728797D01*
X197321317Y-52779091D01*
X197321316Y-52779091D01*
X197328244Y-52779835D01*
X197380927Y-52785500D01*
X198217119Y-52785499D01*
X198222524Y-52785734D01*
X198248065Y-52787969D01*
X198278799Y-52790659D01*
X198278799Y-52790658D01*
X198278800Y-52790659D01*
X198335075Y-52785734D01*
X198340481Y-52785499D01*
X199176671Y-52785499D01*
X199176672Y-52785499D01*
X199236283Y-52779091D01*
X199371131Y-52728796D01*
X199474906Y-52651109D01*
X199540370Y-52626692D01*
X199608643Y-52641543D01*
X199623529Y-52651110D01*
X199726710Y-52728352D01*
X199726713Y-52728354D01*
X199861420Y-52778596D01*
X199861427Y-52778598D01*
X199920955Y-52784999D01*
X199920972Y-52785000D01*
X200568800Y-52785000D01*
X200568800Y-51881494D01*
X200673639Y-51929373D01*
X200782327Y-51945000D01*
X200855273Y-51945000D01*
X200963961Y-51929373D01*
X201068800Y-51881494D01*
X201068800Y-52785000D01*
X201716628Y-52785000D01*
X201716644Y-52784999D01*
X201776172Y-52778598D01*
X201776179Y-52778596D01*
X201910886Y-52728354D01*
X201910889Y-52728352D01*
X202014071Y-52651110D01*
X202079535Y-52626692D01*
X202147808Y-52641543D01*
X202162688Y-52651105D01*
X202203389Y-52681574D01*
X202266468Y-52728795D01*
X202266471Y-52728797D01*
X202401317Y-52779091D01*
X202401316Y-52779091D01*
X202408244Y-52779835D01*
X202460927Y-52785500D01*
X203297119Y-52785499D01*
X203302524Y-52785734D01*
X203328065Y-52787969D01*
X203358799Y-52790659D01*
X203358799Y-52790658D01*
X203358800Y-52790659D01*
X203415075Y-52785734D01*
X203420481Y-52785499D01*
X204256671Y-52785499D01*
X204256672Y-52785499D01*
X204316283Y-52779091D01*
X204451131Y-52728796D01*
X204554490Y-52651421D01*
X204619952Y-52627004D01*
X204688225Y-52641855D01*
X204703103Y-52651416D01*
X204743389Y-52681574D01*
X204806468Y-52728795D01*
X204806471Y-52728797D01*
X204941317Y-52779091D01*
X204941316Y-52779091D01*
X204948244Y-52779835D01*
X205000927Y-52785500D01*
X205837119Y-52785499D01*
X205842524Y-52785734D01*
X205868065Y-52787969D01*
X205898799Y-52790659D01*
X205898799Y-52790658D01*
X205898800Y-52790659D01*
X205955075Y-52785734D01*
X205960481Y-52785499D01*
X206796671Y-52785499D01*
X206796672Y-52785499D01*
X206856283Y-52779091D01*
X206991131Y-52728796D01*
X207094490Y-52651421D01*
X207159952Y-52627004D01*
X207228225Y-52641855D01*
X207243103Y-52651416D01*
X207283389Y-52681574D01*
X207346468Y-52728795D01*
X207346471Y-52728797D01*
X207481317Y-52779091D01*
X207481316Y-52779091D01*
X207488244Y-52779835D01*
X207540927Y-52785500D01*
X208377119Y-52785499D01*
X208382524Y-52785734D01*
X208408065Y-52787969D01*
X208438799Y-52790659D01*
X208438799Y-52790658D01*
X208438800Y-52790659D01*
X208495075Y-52785734D01*
X208500481Y-52785499D01*
X209336671Y-52785499D01*
X209336672Y-52785499D01*
X209396283Y-52779091D01*
X209531131Y-52728796D01*
X209634490Y-52651421D01*
X209699952Y-52627004D01*
X209768225Y-52641855D01*
X209783103Y-52651416D01*
X209823389Y-52681574D01*
X209886468Y-52728795D01*
X209886471Y-52728797D01*
X210021317Y-52779091D01*
X210021316Y-52779091D01*
X210028244Y-52779835D01*
X210080927Y-52785500D01*
X210917119Y-52785499D01*
X210922524Y-52785734D01*
X210948065Y-52787969D01*
X210978799Y-52790659D01*
X210978799Y-52790658D01*
X210978800Y-52790659D01*
X211035075Y-52785734D01*
X211040481Y-52785499D01*
X211876671Y-52785499D01*
X211876672Y-52785499D01*
X211936283Y-52779091D01*
X212071131Y-52728796D01*
X212174490Y-52651421D01*
X212239952Y-52627004D01*
X212308225Y-52641855D01*
X212323103Y-52651416D01*
X212363389Y-52681574D01*
X212426468Y-52728795D01*
X212426471Y-52728797D01*
X212561317Y-52779091D01*
X212561316Y-52779091D01*
X212568244Y-52779835D01*
X212620927Y-52785500D01*
X214416672Y-52785499D01*
X214476283Y-52779091D01*
X214611131Y-52728796D01*
X214714490Y-52651421D01*
X214779952Y-52627004D01*
X214848225Y-52641855D01*
X214863103Y-52651416D01*
X214903389Y-52681574D01*
X214966468Y-52728795D01*
X214966471Y-52728797D01*
X215101317Y-52779091D01*
X215101316Y-52779091D01*
X215108244Y-52779835D01*
X215160927Y-52785500D01*
X215997119Y-52785499D01*
X216002524Y-52785734D01*
X216028065Y-52787969D01*
X216058799Y-52790659D01*
X216058799Y-52790658D01*
X216058800Y-52790659D01*
X216115075Y-52785734D01*
X216120481Y-52785499D01*
X216956671Y-52785499D01*
X216956672Y-52785499D01*
X217016283Y-52779091D01*
X217151131Y-52728796D01*
X217254490Y-52651421D01*
X217319952Y-52627004D01*
X217388225Y-52641855D01*
X217403103Y-52651416D01*
X217443389Y-52681574D01*
X217506468Y-52728795D01*
X217506471Y-52728797D01*
X217641317Y-52779091D01*
X217641316Y-52779091D01*
X217648244Y-52779835D01*
X217700927Y-52785500D01*
X218537119Y-52785499D01*
X218542524Y-52785734D01*
X218598800Y-52790659D01*
X218655075Y-52785734D01*
X218660481Y-52785499D01*
X219496671Y-52785499D01*
X219496672Y-52785499D01*
X219556283Y-52779091D01*
X219691131Y-52728796D01*
X219794490Y-52651421D01*
X219859952Y-52627004D01*
X219928225Y-52641855D01*
X219943103Y-52651416D01*
X219983389Y-52681574D01*
X220046468Y-52728795D01*
X220046471Y-52728797D01*
X220181317Y-52779091D01*
X220181316Y-52779091D01*
X220188244Y-52779835D01*
X220240927Y-52785500D01*
X221077119Y-52785499D01*
X221082524Y-52785734D01*
X221138800Y-52790659D01*
X221195075Y-52785734D01*
X221200481Y-52785499D01*
X222036671Y-52785499D01*
X222036672Y-52785499D01*
X222096283Y-52779091D01*
X222231131Y-52728796D01*
X222334490Y-52651421D01*
X222399952Y-52627004D01*
X222468225Y-52641855D01*
X222483103Y-52651416D01*
X222523389Y-52681574D01*
X222586468Y-52728795D01*
X222586471Y-52728797D01*
X222721317Y-52779091D01*
X222721316Y-52779091D01*
X222728244Y-52779835D01*
X222780927Y-52785500D01*
X223617119Y-52785499D01*
X223622524Y-52785734D01*
X223678800Y-52790659D01*
X223735075Y-52785734D01*
X223740481Y-52785499D01*
X224576671Y-52785499D01*
X224576672Y-52785499D01*
X224636283Y-52779091D01*
X224771131Y-52728796D01*
X224874906Y-52651109D01*
X224940370Y-52626692D01*
X225008643Y-52641543D01*
X225023529Y-52651110D01*
X225126710Y-52728352D01*
X225126713Y-52728354D01*
X225261420Y-52778596D01*
X225261427Y-52778598D01*
X225320955Y-52784999D01*
X225320972Y-52785000D01*
X225968800Y-52785000D01*
X225968800Y-51881494D01*
X226073639Y-51929373D01*
X226182327Y-51945000D01*
X226255273Y-51945000D01*
X226363961Y-51929373D01*
X226468800Y-51881494D01*
X226468800Y-52785000D01*
X227116628Y-52785000D01*
X227116644Y-52784999D01*
X227176172Y-52778598D01*
X227176179Y-52778596D01*
X227310886Y-52728354D01*
X227310889Y-52728352D01*
X227414071Y-52651110D01*
X227479535Y-52626692D01*
X227547808Y-52641543D01*
X227562688Y-52651105D01*
X227603389Y-52681574D01*
X227666468Y-52728795D01*
X227666471Y-52728797D01*
X227801317Y-52779091D01*
X227801316Y-52779091D01*
X227808244Y-52779835D01*
X227860927Y-52785500D01*
X228697119Y-52785499D01*
X228702524Y-52785734D01*
X228758800Y-52790659D01*
X228815075Y-52785734D01*
X228820481Y-52785499D01*
X229656671Y-52785499D01*
X229656672Y-52785499D01*
X229716283Y-52779091D01*
X229851131Y-52728796D01*
X229954490Y-52651421D01*
X230019952Y-52627004D01*
X230088225Y-52641855D01*
X230103103Y-52651416D01*
X230143389Y-52681574D01*
X230206468Y-52728795D01*
X230206471Y-52728797D01*
X230341317Y-52779091D01*
X230341316Y-52779091D01*
X230348244Y-52779835D01*
X230400927Y-52785500D01*
X231237119Y-52785499D01*
X231242524Y-52785734D01*
X231298800Y-52790659D01*
X231355075Y-52785734D01*
X231360481Y-52785499D01*
X232196671Y-52785499D01*
X232196672Y-52785499D01*
X232256283Y-52779091D01*
X232391131Y-52728796D01*
X232506346Y-52642546D01*
X232592596Y-52527331D01*
X232642891Y-52392483D01*
X232649300Y-52332873D01*
X232649299Y-51496675D01*
X232649535Y-51491268D01*
X232654459Y-51435000D01*
X232649535Y-51378725D01*
X232649299Y-51373321D01*
X232649299Y-48737129D01*
X232649298Y-48737123D01*
X232649297Y-48737116D01*
X232642891Y-48677517D01*
X232592596Y-48542669D01*
X232592595Y-48542668D01*
X232592593Y-48542664D01*
X232506347Y-48427455D01*
X232506344Y-48427452D01*
X232391135Y-48341206D01*
X232391128Y-48341202D01*
X232256282Y-48290908D01*
X232256283Y-48290908D01*
X232196683Y-48284501D01*
X232196681Y-48284500D01*
X232196673Y-48284500D01*
X232196664Y-48284500D01*
X230400929Y-48284500D01*
X230400923Y-48284501D01*
X230341316Y-48290908D01*
X230206471Y-48341202D01*
X230206469Y-48341203D01*
X230103111Y-48418578D01*
X230037647Y-48442995D01*
X229969374Y-48428144D01*
X229954489Y-48418578D01*
X229851130Y-48341203D01*
X229851128Y-48341202D01*
X229716282Y-48290908D01*
X229716283Y-48290908D01*
X229656683Y-48284501D01*
X229656681Y-48284500D01*
X229656673Y-48284500D01*
X229656664Y-48284500D01*
X227860929Y-48284500D01*
X227860923Y-48284501D01*
X227801316Y-48290908D01*
X227666471Y-48341202D01*
X227666469Y-48341204D01*
X227562694Y-48418890D01*
X227497230Y-48443307D01*
X227428957Y-48428456D01*
X227414072Y-48418890D01*
X227310888Y-48341646D01*
X227310886Y-48341645D01*
X227176179Y-48291403D01*
X227176172Y-48291401D01*
X227116644Y-48285000D01*
X226468800Y-48285000D01*
X226468800Y-50988505D01*
X226363961Y-50940627D01*
X226255273Y-50925000D01*
X226182327Y-50925000D01*
X226073639Y-50940627D01*
X225968800Y-50988505D01*
X225968800Y-48285000D01*
X225320955Y-48285000D01*
X225261427Y-48291401D01*
X225261420Y-48291403D01*
X225126713Y-48341645D01*
X225126710Y-48341647D01*
X225023527Y-48418890D01*
X224958062Y-48443307D01*
X224889789Y-48428455D01*
X224874905Y-48418889D01*
X224771135Y-48341206D01*
X224771128Y-48341202D01*
X224636282Y-48290908D01*
X224636283Y-48290908D01*
X224576683Y-48284501D01*
X224576681Y-48284500D01*
X224576673Y-48284500D01*
X224576664Y-48284500D01*
X222780929Y-48284500D01*
X222780923Y-48284501D01*
X222721316Y-48290908D01*
X222586471Y-48341202D01*
X222586469Y-48341203D01*
X222483111Y-48418578D01*
X222417647Y-48442995D01*
X222349374Y-48428144D01*
X222334489Y-48418578D01*
X222231130Y-48341203D01*
X222231128Y-48341202D01*
X222096282Y-48290908D01*
X222096283Y-48290908D01*
X222036683Y-48284501D01*
X222036681Y-48284500D01*
X222036673Y-48284500D01*
X222036664Y-48284500D01*
X220240929Y-48284500D01*
X220240923Y-48284501D01*
X220181316Y-48290908D01*
X220046471Y-48341202D01*
X220046469Y-48341203D01*
X219943111Y-48418578D01*
X219877647Y-48442995D01*
X219809374Y-48428144D01*
X219794489Y-48418578D01*
X219691130Y-48341203D01*
X219691128Y-48341202D01*
X219556282Y-48290908D01*
X219556283Y-48290908D01*
X219496683Y-48284501D01*
X219496681Y-48284500D01*
X219496673Y-48284500D01*
X219496664Y-48284500D01*
X217700929Y-48284500D01*
X217700923Y-48284501D01*
X217641316Y-48290908D01*
X217506471Y-48341202D01*
X217506469Y-48341203D01*
X217403111Y-48418578D01*
X217337647Y-48442995D01*
X217269374Y-48428144D01*
X217254489Y-48418578D01*
X217151130Y-48341203D01*
X217151128Y-48341202D01*
X217016282Y-48290908D01*
X217016283Y-48290908D01*
X216956683Y-48284501D01*
X216956681Y-48284500D01*
X216956673Y-48284500D01*
X216956664Y-48284500D01*
X215160929Y-48284500D01*
X215160923Y-48284501D01*
X215101316Y-48290908D01*
X214966471Y-48341202D01*
X214966469Y-48341203D01*
X214863111Y-48418578D01*
X214797647Y-48442995D01*
X214729374Y-48428144D01*
X214714489Y-48418578D01*
X214611130Y-48341203D01*
X214611128Y-48341202D01*
X214476282Y-48290908D01*
X214476283Y-48290908D01*
X214416683Y-48284501D01*
X214416681Y-48284500D01*
X214416673Y-48284500D01*
X214416664Y-48284500D01*
X212620929Y-48284500D01*
X212620923Y-48284501D01*
X212561316Y-48290908D01*
X212426471Y-48341202D01*
X212426469Y-48341203D01*
X212323111Y-48418578D01*
X212257647Y-48442995D01*
X212189374Y-48428144D01*
X212174489Y-48418578D01*
X212071130Y-48341203D01*
X212071128Y-48341202D01*
X211936282Y-48290908D01*
X211936283Y-48290908D01*
X211876683Y-48284501D01*
X211876681Y-48284500D01*
X211876673Y-48284500D01*
X211876664Y-48284500D01*
X210080929Y-48284500D01*
X210080923Y-48284501D01*
X210021316Y-48290908D01*
X209886471Y-48341202D01*
X209886469Y-48341203D01*
X209783111Y-48418578D01*
X209717647Y-48442995D01*
X209649374Y-48428144D01*
X209634489Y-48418578D01*
X209531130Y-48341203D01*
X209531128Y-48341202D01*
X209396282Y-48290908D01*
X209396283Y-48290908D01*
X209336683Y-48284501D01*
X209336681Y-48284500D01*
X209336673Y-48284500D01*
X209336664Y-48284500D01*
X207540929Y-48284500D01*
X207540923Y-48284501D01*
X207481316Y-48290908D01*
X207346471Y-48341202D01*
X207346469Y-48341203D01*
X207243111Y-48418578D01*
X207177647Y-48442995D01*
X207109374Y-48428144D01*
X207094489Y-48418578D01*
X206991130Y-48341203D01*
X206991128Y-48341202D01*
X206856282Y-48290908D01*
X206856283Y-48290908D01*
X206796683Y-48284501D01*
X206796681Y-48284500D01*
X206796673Y-48284500D01*
X206796664Y-48284500D01*
X205000929Y-48284500D01*
X205000923Y-48284501D01*
X204941316Y-48290908D01*
X204806471Y-48341202D01*
X204806469Y-48341203D01*
X204703111Y-48418578D01*
X204637647Y-48442995D01*
X204569374Y-48428144D01*
X204554489Y-48418578D01*
X204451130Y-48341203D01*
X204451128Y-48341202D01*
X204316282Y-48290908D01*
X204316283Y-48290908D01*
X204256683Y-48284501D01*
X204256681Y-48284500D01*
X204256673Y-48284500D01*
X204256664Y-48284500D01*
X202460929Y-48284500D01*
X202460923Y-48284501D01*
X202401316Y-48290908D01*
X202266471Y-48341202D01*
X202266469Y-48341204D01*
X202162694Y-48418890D01*
X202097230Y-48443307D01*
X202028957Y-48428456D01*
X202014072Y-48418890D01*
X201910888Y-48341646D01*
X201910886Y-48341645D01*
X201776179Y-48291403D01*
X201776172Y-48291401D01*
X201716644Y-48285000D01*
X201068800Y-48285000D01*
X201068800Y-50988505D01*
X200963961Y-50940627D01*
X200855273Y-50925000D01*
X200782327Y-50925000D01*
X200673639Y-50940627D01*
X200568800Y-50988505D01*
X200568800Y-48285000D01*
X199920955Y-48285000D01*
X199861427Y-48291401D01*
X199861420Y-48291403D01*
X199726713Y-48341645D01*
X199726710Y-48341647D01*
X199623527Y-48418890D01*
X199558062Y-48443307D01*
X199489789Y-48428455D01*
X199474905Y-48418889D01*
X199371135Y-48341206D01*
X199371128Y-48341202D01*
X199236282Y-48290908D01*
X199236283Y-48290908D01*
X199176683Y-48284501D01*
X199176681Y-48284500D01*
X199176673Y-48284500D01*
X199176664Y-48284500D01*
X197380929Y-48284500D01*
X197380923Y-48284501D01*
X197321316Y-48290908D01*
X197186471Y-48341202D01*
X197186469Y-48341203D01*
X197083111Y-48418578D01*
X197017647Y-48442995D01*
X196949374Y-48428144D01*
X196934489Y-48418578D01*
X196831130Y-48341203D01*
X196831128Y-48341202D01*
X196696282Y-48290908D01*
X196696283Y-48290908D01*
X196636683Y-48284501D01*
X196636681Y-48284500D01*
X196636673Y-48284500D01*
X196636664Y-48284500D01*
X194840929Y-48284500D01*
X194840923Y-48284501D01*
X194781316Y-48290908D01*
X194646471Y-48341202D01*
X194646469Y-48341203D01*
X194543111Y-48418578D01*
X194477647Y-48442995D01*
X194409374Y-48428144D01*
X194394489Y-48418578D01*
X194291130Y-48341203D01*
X194291128Y-48341202D01*
X194156282Y-48290908D01*
X194156283Y-48290908D01*
X194096683Y-48284501D01*
X194096681Y-48284500D01*
X194096673Y-48284500D01*
X194096664Y-48284500D01*
X192300929Y-48284500D01*
X192300923Y-48284501D01*
X192241316Y-48290908D01*
X192106471Y-48341202D01*
X192106469Y-48341203D01*
X192003111Y-48418578D01*
X191937647Y-48442995D01*
X191869374Y-48428144D01*
X191854489Y-48418578D01*
X191751130Y-48341203D01*
X191751128Y-48341202D01*
X191616282Y-48290908D01*
X191616283Y-48290908D01*
X191556683Y-48284501D01*
X191556681Y-48284500D01*
X191556673Y-48284500D01*
X191556664Y-48284500D01*
X189760929Y-48284500D01*
X189760923Y-48284501D01*
X189701316Y-48290908D01*
X189566471Y-48341202D01*
X189566469Y-48341204D01*
X189462694Y-48418890D01*
X189397230Y-48443307D01*
X189328957Y-48428456D01*
X189314072Y-48418890D01*
X189210888Y-48341646D01*
X189210886Y-48341645D01*
X189076179Y-48291403D01*
X189076172Y-48291401D01*
X189016644Y-48285000D01*
X188368800Y-48285000D01*
X188368800Y-50988505D01*
X188263961Y-50940627D01*
X188155273Y-50925000D01*
X188082327Y-50925000D01*
X187973639Y-50940627D01*
X187868800Y-50988505D01*
X187868800Y-48285000D01*
X187220955Y-48285000D01*
X187161427Y-48291401D01*
X187161420Y-48291403D01*
X187026713Y-48341645D01*
X187026710Y-48341647D01*
X186923527Y-48418890D01*
X186858062Y-48443307D01*
X186789789Y-48428455D01*
X186774905Y-48418889D01*
X186671135Y-48341206D01*
X186671128Y-48341202D01*
X186536282Y-48290908D01*
X186536283Y-48290908D01*
X186476683Y-48284501D01*
X186476681Y-48284500D01*
X186476673Y-48284500D01*
X186476664Y-48284500D01*
X184680929Y-48284500D01*
X184680923Y-48284501D01*
X184621316Y-48290908D01*
X184486471Y-48341202D01*
X184486469Y-48341203D01*
X184383111Y-48418578D01*
X184317647Y-48442995D01*
X184249374Y-48428144D01*
X184234489Y-48418578D01*
X184131130Y-48341203D01*
X184131128Y-48341202D01*
X183996282Y-48290908D01*
X183996283Y-48290908D01*
X183936683Y-48284501D01*
X183936681Y-48284500D01*
X183936673Y-48284500D01*
X183936664Y-48284500D01*
X182140929Y-48284500D01*
X182140923Y-48284501D01*
X182081316Y-48290908D01*
X181946471Y-48341202D01*
X181946464Y-48341206D01*
X181831255Y-48427452D01*
X181831252Y-48427455D01*
X181745006Y-48542664D01*
X181745002Y-48542671D01*
X181694708Y-48677517D01*
X181688301Y-48737116D01*
X181688301Y-48737123D01*
X181688300Y-48737135D01*
X181688300Y-51373319D01*
X181688064Y-51378725D01*
X181683141Y-51434997D01*
X181683141Y-51435001D01*
X181688064Y-51491274D01*
X181688300Y-51496679D01*
X181688301Y-51862400D01*
X181668617Y-51929439D01*
X181615813Y-51975194D01*
X181564301Y-51986400D01*
X179511500Y-51986400D01*
X179444461Y-51966715D01*
X179398706Y-51913911D01*
X179387500Y-51862400D01*
X179387500Y-47749000D01*
X179407185Y-47681961D01*
X179459989Y-47636206D01*
X179511500Y-47625000D01*
X233238500Y-47625000D01*
X233305539Y-47644685D01*
G37*
%TD.AperFunction*%
%TA.AperFunction,Conductor*%
G36*
X201068800Y-72260962D02*
G01*
X201049115Y-72328001D01*
X201036950Y-72343934D01*
X200928766Y-72464085D01*
X200834121Y-72628015D01*
X200834118Y-72628022D01*
X200775627Y-72808040D01*
X200775626Y-72808044D01*
X200765377Y-72905557D01*
X200764494Y-72913962D01*
X200737909Y-72978576D01*
X200680612Y-73018561D01*
X200641173Y-73025000D01*
X200622249Y-73025000D01*
X200555210Y-73005315D01*
X200549363Y-73001318D01*
X200547916Y-73000267D01*
X200523530Y-72982549D01*
X200523529Y-72982548D01*
X200350607Y-72905557D01*
X200350602Y-72905555D01*
X200204800Y-72874565D01*
X200165446Y-72866200D01*
X199976154Y-72866200D01*
X199943697Y-72873098D01*
X199790997Y-72905555D01*
X199790992Y-72905557D01*
X199618070Y-72982548D01*
X199592237Y-73001318D01*
X199526430Y-73024798D01*
X199519351Y-73025000D01*
X196094480Y-73025000D01*
X196027441Y-73005315D01*
X195981686Y-72952511D01*
X195971742Y-72883353D01*
X196000767Y-72819797D01*
X196006784Y-72813333D01*
X196123847Y-72696270D01*
X196136125Y-72686437D01*
X196135944Y-72686218D01*
X196141953Y-72681245D01*
X196141962Y-72681240D01*
X196188872Y-72631285D01*
X196190111Y-72630006D01*
X196210423Y-72609696D01*
X196214692Y-72604190D01*
X196218476Y-72599759D01*
X196250493Y-72565667D01*
X196260189Y-72548028D01*
X196270873Y-72531761D01*
X196283208Y-72515862D01*
X196301778Y-72472946D01*
X196304339Y-72467719D01*
X196325210Y-72429756D01*
X196374760Y-72380494D01*
X196433870Y-72365499D01*
X196636671Y-72365499D01*
X196636672Y-72365499D01*
X196696283Y-72359091D01*
X196831131Y-72308796D01*
X196934490Y-72231421D01*
X196999952Y-72207004D01*
X197068225Y-72221855D01*
X197083103Y-72231416D01*
X197185876Y-72308352D01*
X197186468Y-72308795D01*
X197186471Y-72308797D01*
X197321317Y-72359091D01*
X197321316Y-72359091D01*
X197328244Y-72359835D01*
X197380927Y-72365500D01*
X199176672Y-72365499D01*
X199236283Y-72359091D01*
X199371131Y-72308796D01*
X199474906Y-72231109D01*
X199540370Y-72206692D01*
X199608643Y-72221543D01*
X199623529Y-72231110D01*
X199726710Y-72308352D01*
X199726713Y-72308354D01*
X199861420Y-72358596D01*
X199861427Y-72358598D01*
X199920955Y-72364999D01*
X199920972Y-72365000D01*
X200568800Y-72365000D01*
X200568800Y-69661494D01*
X200673639Y-69709373D01*
X200782327Y-69725000D01*
X200855273Y-69725000D01*
X200963961Y-69709373D01*
X201068800Y-69661494D01*
X201068800Y-72260962D01*
G37*
%TD.AperFunction*%
%TA.AperFunction,Conductor*%
G36*
X188368800Y-70241000D02*
G01*
X188349115Y-70308039D01*
X188296311Y-70353794D01*
X188244800Y-70365000D01*
X187992800Y-70365000D01*
X187925761Y-70345315D01*
X187880006Y-70292511D01*
X187868800Y-70241000D01*
X187868800Y-69661494D01*
X187973639Y-69709373D01*
X188082327Y-69725000D01*
X188155273Y-69725000D01*
X188263961Y-69709373D01*
X188368800Y-69661494D01*
X188368800Y-70241000D01*
G37*
%TD.AperFunction*%
%TD*%
M02*
