M48
; DRILL file {KiCad 7.0.5} date Wed Jun  7 16:44:31 2023
; FORMAT={-:-/ absolute / inch / decimal}
; #@! TF.CreationDate,2023-06-07T16:44:31+08:00
; #@! TF.GenerationSoftware,Kicad,Pcbnew,7.0.5
; #@! TF.FileFunction,Plated,1,2,PTH
FMAT,2
INCH
; #@! TA.AperFunction,Plated,PTH,ViaDrill
T1C0.0157
; #@! TA.AperFunction,Plated,PTH,ComponentDrill
T2C0.0402
; #@! TA.AperFunction,Plated,PTH,ComponentDrill
T3C0.1201
%
G90
G05
T1
X3.7623Y-3.3641
X4.1415Y-2.7064
X6.5768Y-4.5103
X6.7767Y-4.463
X7.4966Y-2.8671
X7.7167Y-2.9426
X7.8552Y-3.8124
X8.1864Y-1.8377
X8.2116Y-3.8312
X8.3388Y-3.409
T2
X7.2Y-2.025
X7.2Y-2.725
X7.2091Y-2.275
X7.2091Y-2.375
X7.2091Y-2.475
X7.3Y-2.025
X7.3Y-2.725
X7.4Y-2.025
X7.4Y-2.725
X7.5Y-2.025
X7.5Y-2.725
X7.6Y-2.025
X7.6Y-2.725
X7.7Y-2.025
X7.7Y-2.725
X7.8Y-2.025
X7.8Y-2.725
X7.9Y-2.025
X7.9Y-2.725
X8.0Y-2.025
X8.0Y-2.725
X8.1Y-2.025
X8.1Y-2.725
X8.2Y-2.025
X8.2Y-2.725
X8.3Y-2.025
X8.3Y-2.725
X8.4Y-2.025
X8.4Y-2.725
X8.5Y-2.025
X8.5Y-2.725
X8.6Y-2.025
X8.6Y-2.725
X8.7Y-2.025
X8.7Y-2.725
X8.8Y-2.025
X8.8Y-2.725
X8.9Y-2.025
X8.9Y-2.725
X9.0Y-2.025
X9.0Y-2.725
X9.1Y-2.025
X9.1Y-2.725
T3
X2.3792Y-4.1502
X2.3812Y-2.3125
X2.6292Y-4.0502
X2.6312Y-2.2125
X3.1312Y-2.3125
X3.1313Y-3.4
X3.1313Y-4.15
X3.3812Y-2.2125
X3.3813Y-3.3
X3.3813Y-4.05
X3.8792Y-4.1502
X3.8812Y-2.3125
X4.1292Y-4.0502
X4.1312Y-2.2125
X5.0Y-5.6687
X5.25Y-5.5687
X6.0937Y-3.625
X6.0937Y-4.375
X6.3437Y-3.525
X6.3437Y-4.275
X6.8437Y-3.4187
X6.8437Y-4.1687
X7.0937Y-3.3187
X7.0937Y-4.0687
X7.5937Y-3.4187
X7.5937Y-4.1687
X7.8437Y-3.3187
X7.8437Y-4.0687
X8.3437Y-3.625
X8.3437Y-4.375
X8.5937Y-3.525
X8.5937Y-4.275
T0
M30
