%TF.GenerationSoftware,KiCad,Pcbnew,7.0.5*%
%TF.CreationDate,2023-06-06T19:01:50+08:00*%
%TF.ProjectId,JosEffigy-All-Keyboard-Mixbox,4a6f7345-6666-4696-9779-2d416c6c2d4b,rev?*%
%TF.SameCoordinates,Original*%
%TF.FileFunction,Soldermask,Bot*%
%TF.FilePolarity,Negative*%
%FSLAX46Y46*%
G04 Gerber Fmt 4.6, Leading zero omitted, Abs format (unit mm)*
G04 Created by KiCad (PCBNEW 7.0.5) date 2023-06-06 19:01:50*
%MOMM*%
%LPD*%
G01*
G04 APERTURE LIST*
G04 Aperture macros list*
%AMRoundRect*
0 Rectangle with rounded corners*
0 $1 Rounding radius*
0 $2 $3 $4 $5 $6 $7 $8 $9 X,Y pos of 4 corners*
0 Add a 4 corners polygon primitive as box body*
4,1,4,$2,$3,$4,$5,$6,$7,$8,$9,$2,$3,0*
0 Add four circle primitives for the rounded corners*
1,1,$1+$1,$2,$3*
1,1,$1+$1,$4,$5*
1,1,$1+$1,$6,$7*
1,1,$1+$1,$8,$9*
0 Add four rect primitives between the rounded corners*
20,1,$1+$1,$2,$3,$4,$5,0*
20,1,$1+$1,$4,$5,$6,$7,0*
20,1,$1+$1,$6,$7,$8,$9,0*
20,1,$1+$1,$8,$9,$2,$3,0*%
%AMRotRect*
0 Rectangle, with rotation*
0 The origin of the aperture is its center*
0 $1 length*
0 $2 width*
0 $3 Rotation angle, in degrees counterclockwise*
0 Add horizontal line*
21,1,$1,$2,0,0,$3*%
G04 Aperture macros list end*
%ADD10C,3.100000*%
%ADD11C,4.500000*%
%ADD12C,1.750000*%
%ADD13C,4.000000*%
%ADD14RoundRect,0.250000X-1.025000X-1.000000X1.025000X-1.000000X1.025000X1.000000X-1.025000X1.000000X0*%
%ADD15C,3.600000*%
%ADD16RoundRect,0.250000X-1.210513X-0.765038X0.794690X-1.191257X1.210513X0.765038X-0.794690X1.191257X0*%
%ADD17R,1.700000X1.000000*%
%ADD18RotRect,1.700000X1.000000X168.000000*%
%ADD19O,1.800000X1.800000*%
%ADD20O,1.500000X1.500000*%
%ADD21O,1.700000X1.700000*%
%ADD22R,1.700000X3.500000*%
%ADD23R,1.700000X1.700000*%
%ADD24R,3.500000X1.700000*%
G04 APERTURE END LIST*
D10*
%TO.C,REF\u002A\u002A*%
X229870000Y-156210000D03*
D11*
X229870000Y-156210000D03*
%TD*%
D10*
%TO.C,REF\u002A\u002A*%
X60960000Y-156210000D03*
D11*
X60960000Y-156210000D03*
%TD*%
D10*
%TO.C,REF\u002A\u002A*%
X60960000Y-40640000D03*
D11*
X60960000Y-40640000D03*
%TD*%
D10*
%TO.C,REF\u002A\u002A*%
X229870000Y-40640000D03*
D11*
X229870000Y-40640000D03*
%TD*%
D12*
%TO.C,MX16*%
X227271300Y-94615000D03*
X217111300Y-94615000D03*
D13*
X222191300Y-94615000D03*
D14*
X228033300Y-89535000D03*
X215106300Y-92075000D03*
D15*
X224731300Y-89535000D03*
X218381300Y-92075000D03*
%TD*%
D12*
%TO.C,MX15*%
X208221300Y-89376200D03*
X198061300Y-89376200D03*
D13*
X203141300Y-89376200D03*
D14*
X208983300Y-84296200D03*
X196056300Y-86836200D03*
D15*
X205681300Y-84296200D03*
X199331300Y-86836200D03*
%TD*%
D12*
%TO.C,MX14*%
X189171300Y-89376200D03*
X179011300Y-89376200D03*
D13*
X184091300Y-89376200D03*
D14*
X189933300Y-84296200D03*
X177006300Y-86836200D03*
D15*
X186631300Y-84296200D03*
X180281300Y-86836200D03*
%TD*%
D12*
%TO.C,MX13*%
X170121300Y-94615000D03*
X159961300Y-94615000D03*
D13*
X165041300Y-94615000D03*
D14*
X170883300Y-89535000D03*
X157956300Y-92075000D03*
D15*
X167581300Y-89535000D03*
X161231300Y-92075000D03*
%TD*%
D12*
%TO.C,MX12*%
X227271300Y-113665000D03*
X217111300Y-113665000D03*
D13*
X222191300Y-113665000D03*
D14*
X228033300Y-108585000D03*
X215106300Y-111125000D03*
D15*
X224731300Y-108585000D03*
X218381300Y-111125000D03*
%TD*%
D12*
%TO.C,MX11*%
X208221300Y-108426200D03*
X198061300Y-108426200D03*
D13*
X203141300Y-108426200D03*
D14*
X208983300Y-103346200D03*
X196056300Y-105886200D03*
D15*
X205681300Y-103346200D03*
X199331300Y-105886200D03*
%TD*%
D12*
%TO.C,MX10*%
X189171300Y-108426200D03*
X179011300Y-108426200D03*
D13*
X184091300Y-108426200D03*
D14*
X189933300Y-103346200D03*
X177006300Y-105886200D03*
D15*
X186631300Y-103346200D03*
X180281300Y-105886200D03*
%TD*%
D12*
%TO.C,MX9*%
X170121300Y-113665000D03*
X159961300Y-113665000D03*
D13*
X165041300Y-113665000D03*
D14*
X170883300Y-108585000D03*
X157956300Y-111125000D03*
D15*
X167581300Y-108585000D03*
X161231300Y-111125000D03*
%TD*%
%TO.C,MX8*%
X133450100Y-143986200D03*
X139800100Y-141446200D03*
D14*
X130175100Y-143986200D03*
X143102100Y-141446200D03*
D13*
X137260100Y-146526200D03*
D12*
X132180100Y-146526200D03*
X142340100Y-146526200D03*
%TD*%
%TO.C,MX7*%
X113923800Y-61277500D03*
X103763800Y-61277500D03*
D13*
X108843800Y-61277500D03*
D14*
X114685800Y-56197500D03*
X101758800Y-58737500D03*
D15*
X111383800Y-56197500D03*
X105033800Y-58737500D03*
%TD*%
D12*
%TO.C,MX6*%
X94873800Y-61277500D03*
X84713800Y-61277500D03*
D13*
X89793800Y-61277500D03*
D14*
X95635800Y-56197500D03*
X82708800Y-58737500D03*
D15*
X92333800Y-56197500D03*
X85983800Y-58737500D03*
%TD*%
D12*
%TO.C,MX5*%
X75823800Y-61277500D03*
X65663800Y-61277500D03*
D13*
X70743800Y-61277500D03*
D14*
X76585800Y-56197500D03*
X63658800Y-58737500D03*
D15*
X73283800Y-56197500D03*
X66933800Y-58737500D03*
%TD*%
%TO.C,MX4*%
X91150153Y-84175562D03*
X97889486Y-83011306D03*
D16*
X87946720Y-83494651D03*
X101119330Y-83697830D03*
D13*
X94348800Y-87452200D03*
D12*
X89379810Y-86396009D03*
X99317790Y-88508391D03*
%TD*%
D15*
%TO.C,MX3*%
X105771053Y-106764462D03*
X112510386Y-105600206D03*
D16*
X102567620Y-106083551D03*
X115740230Y-106286730D03*
D13*
X108969700Y-110041100D03*
D12*
X104000710Y-108984909D03*
X113938690Y-111097291D03*
%TD*%
%TO.C,MX2*%
X95356990Y-107142091D03*
X85419010Y-105029709D03*
D13*
X90388000Y-106085900D03*
D16*
X97158530Y-102331530D03*
X83985920Y-102128351D03*
D15*
X93928686Y-101645006D03*
X87189353Y-102809262D03*
%TD*%
D12*
%TO.C,MX1*%
X76671290Y-103175891D03*
X66733310Y-101063509D03*
D13*
X71702300Y-102119700D03*
D16*
X78472830Y-98365330D03*
X65300220Y-98162151D03*
D15*
X75242986Y-97678806D03*
X68503653Y-98843062D03*
%TD*%
D17*
%TO.C,D16*%
X219500000Y-100714000D03*
X219500000Y-99314000D03*
X225000000Y-100714000D03*
X225000000Y-99314000D03*
%TD*%
%TO.C,D15*%
X200450000Y-95188000D03*
X200450000Y-93788000D03*
X205950000Y-95188000D03*
X205950000Y-93788000D03*
%TD*%
%TO.C,D14*%
X181400000Y-95188000D03*
X181400000Y-93788000D03*
X186900000Y-95188000D03*
X186900000Y-93788000D03*
%TD*%
%TO.C,D13*%
X167850000Y-99314000D03*
X167850000Y-100714000D03*
X162350000Y-99314000D03*
X162350000Y-100714000D03*
%TD*%
%TO.C,D12*%
X219500000Y-119764000D03*
X219500000Y-118364000D03*
X225000000Y-119764000D03*
X225000000Y-118364000D03*
%TD*%
%TO.C,D11*%
X205950000Y-113092000D03*
X205950000Y-114492000D03*
X200450000Y-113092000D03*
X200450000Y-114492000D03*
%TD*%
%TO.C,D10*%
X181400000Y-114492000D03*
X181400000Y-113092000D03*
X186900000Y-114492000D03*
X186900000Y-113092000D03*
%TD*%
%TO.C,D9*%
X168012500Y-118364000D03*
X168012500Y-119764000D03*
X162512500Y-118364000D03*
X162512500Y-119764000D03*
%TD*%
%TO.C,D8*%
X140085800Y-151463400D03*
X140085800Y-152863400D03*
X134585800Y-151463400D03*
X134585800Y-152863400D03*
%TD*%
%TO.C,D7*%
X111462000Y-65848000D03*
X111462000Y-67248000D03*
X105962000Y-65848000D03*
X105962000Y-67248000D03*
%TD*%
%TO.C,D6*%
X93043200Y-65848000D03*
X93043200Y-67248000D03*
X87543200Y-65848000D03*
X87543200Y-67248000D03*
%TD*%
%TO.C,D5*%
X73362000Y-65848000D03*
X73362000Y-67248000D03*
X67862000Y-65848000D03*
X67862000Y-67248000D03*
%TD*%
D18*
%TO.C,D4*%
X90578456Y-92545346D03*
X90869532Y-91175940D03*
X95958268Y-93688860D03*
X96249344Y-92319454D03*
%TD*%
%TO.C,D3*%
X110822544Y-115249754D03*
X110531468Y-116619160D03*
X105442732Y-114106240D03*
X105151656Y-115475646D03*
%TD*%
%TO.C,D2*%
X86564956Y-111427546D03*
X86856032Y-110058140D03*
X91944768Y-112571060D03*
X92235844Y-111201654D03*
%TD*%
%TO.C,D1*%
X67682756Y-107414046D03*
X67973832Y-106044640D03*
X73062568Y-108557560D03*
X73353644Y-107188154D03*
%TD*%
D19*
%TO.C,U1*%
X231168800Y-63050000D03*
D20*
X228138800Y-62750000D03*
X228138800Y-57900000D03*
D19*
X231168800Y-57600000D03*
D21*
X231298800Y-69215000D03*
D22*
X231298800Y-70115000D03*
D21*
X228758800Y-69215000D03*
D22*
X228758800Y-70115000D03*
D23*
X226218800Y-69215000D03*
D22*
X226218800Y-70115000D03*
D21*
X223678800Y-69215000D03*
D22*
X223678800Y-70115000D03*
D21*
X221138800Y-69215000D03*
D22*
X221138800Y-70115000D03*
D21*
X218598800Y-69215000D03*
D22*
X218598800Y-70115000D03*
D21*
X216058800Y-69215000D03*
D22*
X216058800Y-70115000D03*
D23*
X213518800Y-69215000D03*
D22*
X213518800Y-70115000D03*
D21*
X210978800Y-69215000D03*
D22*
X210978800Y-70115000D03*
D21*
X208438800Y-69215000D03*
D22*
X208438800Y-70115000D03*
D21*
X205898800Y-69215000D03*
D22*
X205898800Y-70115000D03*
D21*
X203358800Y-69215000D03*
D22*
X203358800Y-70115000D03*
D23*
X200818800Y-69215000D03*
D22*
X200818800Y-70115000D03*
D21*
X198278800Y-69215000D03*
D22*
X198278800Y-70115000D03*
D21*
X195738800Y-69215000D03*
D22*
X195738800Y-70115000D03*
D21*
X193198800Y-69215000D03*
D22*
X193198800Y-70115000D03*
D21*
X190658800Y-69215000D03*
D22*
X190658800Y-70115000D03*
D23*
X188118800Y-69215000D03*
D22*
X188118800Y-70115000D03*
D21*
X185578800Y-69215000D03*
D22*
X185578800Y-70115000D03*
D21*
X183038800Y-69215000D03*
D22*
X183038800Y-70115000D03*
D21*
X183038800Y-51435000D03*
D22*
X183038800Y-50535000D03*
D21*
X185578800Y-51435000D03*
D22*
X185578800Y-50535000D03*
D23*
X188118800Y-51435000D03*
D22*
X188118800Y-50535000D03*
D21*
X190658800Y-51435000D03*
D22*
X190658800Y-50535000D03*
D21*
X193198800Y-51435000D03*
D22*
X193198800Y-50535000D03*
D21*
X195738800Y-51435000D03*
D22*
X195738800Y-50535000D03*
D21*
X198278800Y-51435000D03*
D22*
X198278800Y-50535000D03*
D23*
X200818800Y-51435000D03*
D22*
X200818800Y-50535000D03*
D21*
X203358800Y-51435000D03*
D22*
X203358800Y-50535000D03*
D21*
X205898800Y-51435000D03*
D22*
X205898800Y-50535000D03*
D21*
X208438800Y-51435000D03*
D22*
X208438800Y-50535000D03*
D21*
X210978800Y-51435000D03*
D22*
X210978800Y-50535000D03*
D23*
X213518800Y-51435000D03*
D22*
X213518800Y-50535000D03*
D21*
X216058800Y-51435000D03*
D22*
X216058800Y-50535000D03*
D21*
X218598800Y-51435000D03*
D22*
X218598800Y-50535000D03*
D21*
X221138800Y-51435000D03*
D22*
X221138800Y-50535000D03*
D21*
X223678800Y-51435000D03*
D22*
X223678800Y-50535000D03*
D23*
X226218800Y-51435000D03*
D22*
X226218800Y-50535000D03*
D21*
X228758800Y-51435000D03*
D22*
X228758800Y-50535000D03*
D21*
X231298800Y-51435000D03*
D22*
X231298800Y-50535000D03*
D21*
X183268800Y-62865000D03*
D24*
X182368800Y-62865000D03*
D23*
X183268800Y-60325000D03*
D24*
X182368800Y-60325000D03*
D21*
X183268800Y-57785000D03*
D24*
X182368800Y-57785000D03*
%TD*%
M02*
