%TF.GenerationSoftware,KiCad,Pcbnew,7.0.5*%
%TF.CreationDate,2023-06-06T19:01:50+08:00*%
%TF.ProjectId,JosEffigy-All-Keyboard-Mixbox,4a6f7345-6666-4696-9779-2d416c6c2d4b,rev?*%
%TF.SameCoordinates,Original*%
%TF.FileFunction,Copper,L1,Top*%
%TF.FilePolarity,Positive*%
%FSLAX46Y46*%
G04 Gerber Fmt 4.6, Leading zero omitted, Abs format (unit mm)*
G04 Created by KiCad (PCBNEW 7.0.5) date 2023-06-06 19:01:50*
%MOMM*%
%LPD*%
G01*
G04 APERTURE LIST*
%TA.AperFunction,ComponentPad*%
%ADD10C,3.100000*%
%TD*%
%TA.AperFunction,ConnectorPad*%
%ADD11C,4.500000*%
%TD*%
%TA.AperFunction,ComponentPad*%
%ADD12C,3.600000*%
%TD*%
%TA.AperFunction,ComponentPad*%
%ADD13O,1.700000X1.700000*%
%TD*%
%TA.AperFunction,ComponentPad*%
%ADD14R,1.700000X1.700000*%
%TD*%
%TA.AperFunction,ViaPad*%
%ADD15C,0.800000*%
%TD*%
%TA.AperFunction,Conductor*%
%ADD16C,0.254000*%
%TD*%
%TA.AperFunction,Conductor*%
%ADD17C,0.381000*%
%TD*%
G04 APERTURE END LIST*
D10*
%TO.P,REF\u002A\u002A,1*%
%TO.N,N/C*%
X229870000Y-156210000D03*
D11*
X229870000Y-156210000D03*
%TD*%
D10*
%TO.P,REF\u002A\u002A,1*%
%TO.N,N/C*%
X60960000Y-156210000D03*
D11*
X60960000Y-156210000D03*
%TD*%
D10*
%TO.P,REF\u002A\u002A,1*%
%TO.N,N/C*%
X60960000Y-40640000D03*
D11*
X60960000Y-40640000D03*
%TD*%
%TO.P,REF\u002A\u002A,1*%
%TO.N,N/C*%
X229870000Y-40640000D03*
D10*
X229870000Y-40640000D03*
%TD*%
D12*
%TO.P,MX16,2,ROW*%
%TO.N,4P*%
X224731300Y-89535000D03*
%TO.P,MX16,1,COL*%
%TO.N,GND*%
X218381300Y-92075000D03*
%TD*%
%TO.P,MX15,2,ROW*%
%TO.N,3P*%
X205681300Y-84296200D03*
%TO.P,MX15,1,COL*%
%TO.N,GND*%
X199331300Y-86836200D03*
%TD*%
%TO.P,MX14,2,ROW*%
%TO.N,2P*%
X186631300Y-84296200D03*
%TO.P,MX14,1,COL*%
%TO.N,GND*%
X180281300Y-86836200D03*
%TD*%
%TO.P,MX13,2,ROW*%
%TO.N,1P*%
X167581300Y-89535000D03*
%TO.P,MX13,1,COL*%
%TO.N,GND*%
X161231300Y-92075000D03*
%TD*%
%TO.P,MX12,2,ROW*%
%TO.N,4K*%
X224731300Y-108585000D03*
%TO.P,MX12,1,COL*%
%TO.N,GND*%
X218381300Y-111125000D03*
%TD*%
%TO.P,MX11,2,ROW*%
%TO.N,3K*%
X205681300Y-103346200D03*
%TO.P,MX11,1,COL*%
%TO.N,GND*%
X199331300Y-105886200D03*
%TD*%
%TO.P,MX10,2,ROW*%
%TO.N,2K*%
X186631300Y-103346200D03*
%TO.P,MX10,1,COL*%
%TO.N,GND*%
X180281300Y-105886200D03*
%TD*%
%TO.P,MX9,2,ROW*%
%TO.N,1K*%
X167581300Y-108585000D03*
%TO.P,MX9,1,COL*%
%TO.N,GND*%
X161231300Y-111125000D03*
%TD*%
%TO.P,MX8,1,COL*%
%TO.N,GND*%
X133450100Y-143986200D03*
%TO.P,MX8,2,ROW*%
%TO.N,UP*%
X139800100Y-141446200D03*
%TD*%
%TO.P,MX7,2,ROW*%
%TO.N,START*%
X111383800Y-56197500D03*
%TO.P,MX7,1,COL*%
%TO.N,GND*%
X105033800Y-58737500D03*
%TD*%
%TO.P,MX6,2,ROW*%
%TO.N,SELECT*%
X92333800Y-56197500D03*
%TO.P,MX6,1,COL*%
%TO.N,GND*%
X85983800Y-58737500D03*
%TD*%
%TO.P,MX5,2,ROW*%
%TO.N,HOME*%
X73283800Y-56197500D03*
%TO.P,MX5,1,COL*%
%TO.N,GND*%
X66933800Y-58737500D03*
%TD*%
%TO.P,MX4,1,COL*%
%TO.N,GND*%
X91150153Y-84175562D03*
%TO.P,MX4,2,ROW*%
%TO.N,UP*%
X97889486Y-83011306D03*
%TD*%
%TO.P,MX3,1,COL*%
%TO.N,GND*%
X105771053Y-106764462D03*
%TO.P,MX3,2,ROW*%
%TO.N,RIGHT*%
X112510386Y-105600206D03*
%TD*%
%TO.P,MX2,2,ROW*%
%TO.N,DOWN*%
X93928686Y-101645006D03*
%TO.P,MX2,1,COL*%
%TO.N,GND*%
X87189353Y-102809262D03*
%TD*%
%TO.P,MX1,2,ROW*%
%TO.N,LEFT*%
X75242986Y-97678806D03*
%TO.P,MX1,1,COL*%
%TO.N,GND*%
X68503653Y-98843062D03*
%TD*%
D13*
%TO.P,U1,1,IOVDD*%
%TO.N,unconnected-(U1-IOVDD-Pad1)*%
X231298800Y-69215000D03*
%TO.P,U1,2,GPIO0*%
%TO.N,unconnected-(U1-GPIO0-Pad2)*%
X228758800Y-69215000D03*
D14*
%TO.P,U1,3,GPIO1*%
%TO.N,GND*%
X226218800Y-69215000D03*
D13*
%TO.P,U1,4,GPIO2*%
%TO.N,UP*%
X223678800Y-69215000D03*
%TO.P,U1,5,GPIO3*%
%TO.N,DOWN*%
X221138800Y-69215000D03*
%TO.P,U1,6,GPIO4*%
%TO.N,RIGHT*%
X218598800Y-69215000D03*
%TO.P,U1,7,GPIO5*%
%TO.N,LEFT*%
X216058800Y-69215000D03*
D14*
%TO.P,U1,8,GPIO6*%
%TO.N,GND*%
X213518800Y-69215000D03*
D13*
%TO.P,U1,9,GPIO7*%
%TO.N,1K*%
X210978800Y-69215000D03*
%TO.P,U1,10,IOVDD*%
%TO.N,2K*%
X208438800Y-69215000D03*
%TO.P,U1,11,GPIO8*%
%TO.N,3K*%
X205898800Y-69215000D03*
%TO.P,U1,12,GPIO9*%
%TO.N,4K*%
X203358800Y-69215000D03*
D14*
%TO.P,U1,13,GPIO10*%
%TO.N,GND*%
X200818800Y-69215000D03*
D13*
%TO.P,U1,14,GPIO11*%
%TO.N,1P*%
X198278800Y-69215000D03*
%TO.P,U1,15,GPIO12*%
%TO.N,2P*%
X195738800Y-69215000D03*
%TO.P,U1,16,GPIO13*%
%TO.N,3P*%
X193198800Y-69215000D03*
%TO.P,U1,17,GPIO14*%
%TO.N,4P*%
X190658800Y-69215000D03*
D14*
%TO.P,U1,18,GPIO15*%
%TO.N,GND*%
X188118800Y-69215000D03*
D13*
%TO.P,U1,19,TESTEN*%
%TO.N,unconnected-(U1-TESTEN-Pad19)*%
X185578800Y-69215000D03*
%TO.P,U1,20,XIN*%
%TO.N,unconnected-(U1-XIN-Pad20)*%
X183038800Y-69215000D03*
%TO.P,U1,21,XOUT*%
%TO.N,SELECT*%
X183038800Y-51435000D03*
%TO.P,U1,22,IOVDD*%
%TO.N,START*%
X185578800Y-51435000D03*
D14*
%TO.P,U1,23,DVDD*%
%TO.N,GND*%
X188118800Y-51435000D03*
D13*
%TO.P,U1,24,SWCLK*%
%TO.N,unconnected-(U1-SWCLK-Pad24)*%
X190658800Y-51435000D03*
%TO.P,U1,25,SWD*%
%TO.N,unconnected-(U1-SWD-Pad25)*%
X193198800Y-51435000D03*
%TO.P,U1,26,RUN*%
%TO.N,HOME*%
X195738800Y-51435000D03*
%TO.P,U1,27,GPIO16*%
%TO.N,unconnected-(U1-GPIO16-Pad27)*%
X198278800Y-51435000D03*
D14*
%TO.P,U1,28,GPIO17*%
%TO.N,GND*%
X200818800Y-51435000D03*
D13*
%TO.P,U1,29,GPIO18*%
%TO.N,unconnected-(U1-GPIO18-Pad29)*%
X203358800Y-51435000D03*
%TO.P,U1,30,GPIO19*%
%TO.N,unconnected-(U1-GPIO19-Pad30)*%
X205898800Y-51435000D03*
%TO.P,U1,31,GPIO20*%
%TO.N,unconnected-(U1-GPIO20-Pad31)*%
X208438800Y-51435000D03*
%TO.P,U1,32,GPIO21*%
%TO.N,unconnected-(U1-GPIO21-Pad32)*%
X210978800Y-51435000D03*
D14*
%TO.P,U1,33,IOVDD*%
%TO.N,unconnected-(U1-IOVDD-Pad33)*%
X213518800Y-51435000D03*
D13*
%TO.P,U1,34,GPIO22*%
%TO.N,unconnected-(U1-GPIO22-Pad34)*%
X216058800Y-51435000D03*
%TO.P,U1,35,GPIO23*%
%TO.N,unconnected-(U1-GPIO23-Pad35)*%
X218598800Y-51435000D03*
%TO.P,U1,36,GPIO24*%
%TO.N,unconnected-(U1-GPIO24-Pad36)*%
X221138800Y-51435000D03*
%TO.P,U1,37,GPIO25*%
%TO.N,unconnected-(U1-GPIO25-Pad37)*%
X223678800Y-51435000D03*
D14*
%TO.P,U1,38,GPIO26_ADC0*%
%TO.N,GND*%
X226218800Y-51435000D03*
D13*
%TO.P,U1,39,GPIO27_ADC1*%
%TO.N,unconnected-(U1-GPIO27_ADC1-Pad39)*%
X228758800Y-51435000D03*
%TO.P,U1,40,GPIO28_ADC2*%
%TO.N,unconnected-(U1-GPIO28_ADC2-Pad40)*%
X231298800Y-51435000D03*
%TO.P,U1,41,GPIO29_ADC3*%
%TO.N,unconnected-(U1-GPIO29_ADC3-Pad41)*%
X183268800Y-62865000D03*
D14*
%TO.P,U1,42,IOVDD*%
%TO.N,unconnected-(U1-IOVDD-Pad42)*%
X183268800Y-60325000D03*
D13*
%TO.P,U1,43,ADC_AVDD*%
%TO.N,unconnected-(U1-ADC_AVDD-Pad43)*%
X183268800Y-57785000D03*
%TD*%
D15*
%TO.N,Net-(D15-DOUT)*%
X209690500Y-95177400D03*
X226474200Y-100714000D03*
%TO.N,Net-(D14-DOUT)*%
X191114100Y-94557900D03*
X203854800Y-97864300D03*
%TO.N,Net-(D12-DOUT)*%
X216934800Y-117412600D03*
X162628600Y-97873700D03*
%TO.N,VCC*%
X201836700Y-101182800D03*
X188467900Y-97225900D03*
X196760000Y-112641800D03*
%TO.N,4P*%
X209501400Y-74837200D03*
%TO.N,3P*%
X201661300Y-72996300D03*
%TO.N,2K*%
X200070800Y-73766700D03*
%TO.N,1K*%
X199113200Y-74535100D03*
%TO.N,UP*%
X128159800Y-109080800D03*
%TD*%
D16*
%TO.N,Net-(D15-DOUT)*%
X226474200Y-100420400D02*
X226474200Y-100714000D01*
X223247700Y-97193900D02*
X226474200Y-100420400D01*
X211707000Y-97193900D02*
X223247700Y-97193900D01*
X209690500Y-95177400D02*
X211707000Y-97193900D01*
%TO.N,Net-(D14-DOUT)*%
X194420500Y-97864300D02*
X191114100Y-94557900D01*
X203854800Y-97864300D02*
X194420500Y-97864300D01*
%TO.N,Net-(D12-DOUT)*%
X200500100Y-117412600D02*
X216934800Y-117412600D01*
X188936300Y-105848800D02*
X200500100Y-117412600D01*
X185300100Y-105848800D02*
X188936300Y-105848800D01*
X177325000Y-97873700D02*
X185300100Y-105848800D01*
X162628600Y-97873700D02*
X177325000Y-97873700D01*
%TO.N,VCC*%
X199509500Y-101182800D02*
X196607400Y-104084900D01*
X201836700Y-101182800D02*
X199509500Y-101182800D01*
X196607400Y-112489200D02*
X196760000Y-112641800D01*
X196607400Y-104084900D02*
X196607400Y-112489200D01*
X195326900Y-104084900D02*
X188467900Y-97225900D01*
X196607400Y-104084900D02*
X195326900Y-104084900D01*
D17*
%TO.N,GND*%
X199576400Y-50969000D02*
X199576400Y-51435000D01*
X198800000Y-50192600D02*
X199576400Y-50969000D01*
X190137700Y-50192600D02*
X198800000Y-50192600D01*
X189361200Y-50969100D02*
X190137700Y-50192600D01*
X189361200Y-51435000D02*
X189361200Y-50969100D01*
X188118800Y-51435000D02*
X189361200Y-51435000D01*
X86280300Y-79305700D02*
X91150200Y-84175600D01*
X86280300Y-59034000D02*
X86280300Y-79305700D01*
X85983800Y-58737500D02*
X86280300Y-59034000D01*
X132829100Y-143986200D02*
X133450100Y-143986200D01*
X105485800Y-116642900D02*
X132829100Y-143986200D01*
X105485800Y-115318200D02*
X105485800Y-116642900D01*
X105771100Y-115032900D02*
X105485800Y-115318200D01*
X105771100Y-106764500D02*
X105771100Y-115032900D01*
X200818800Y-51435000D02*
X199576400Y-51435000D01*
X199576400Y-68749000D02*
X199576400Y-69215000D01*
X198800000Y-67972600D02*
X199576400Y-68749000D01*
X190137700Y-67972600D02*
X198800000Y-67972600D01*
X189361200Y-68749100D02*
X190137700Y-67972600D01*
X189361200Y-69215000D02*
X189361200Y-68749100D01*
X188118800Y-69215000D02*
X189361200Y-69215000D01*
X200818800Y-69215000D02*
X199576400Y-69215000D01*
D16*
%TO.N,4P*%
X190658800Y-69215000D02*
X191837700Y-69215000D01*
X209074600Y-75264000D02*
X209501400Y-74837200D01*
X197518300Y-75264000D02*
X209074600Y-75264000D01*
X191837700Y-69583400D02*
X197518300Y-75264000D01*
X191837700Y-69215000D02*
X191837700Y-69583400D01*
%TO.N,3P*%
X197790600Y-72996300D02*
X201661300Y-72996300D01*
X194377700Y-69583400D02*
X197790600Y-72996300D01*
X194377700Y-69215000D02*
X194377700Y-69583400D01*
X193198800Y-69215000D02*
X194377700Y-69215000D01*
%TO.N,4K*%
X204537700Y-68848600D02*
X204537700Y-69215000D01*
X205370700Y-68015600D02*
X204537700Y-68848600D01*
X224179100Y-68015600D02*
X205370700Y-68015600D01*
X224948900Y-68785400D02*
X224179100Y-68015600D01*
X224948900Y-72426800D02*
X224948900Y-68785400D01*
X228742500Y-76220400D02*
X224948900Y-72426800D01*
X228742500Y-104573800D02*
X228742500Y-76220400D01*
X224731300Y-108585000D02*
X228742500Y-104573800D01*
X203358800Y-69215000D02*
X204537700Y-69215000D01*
%TO.N,2K*%
X208438800Y-69215000D02*
X207259900Y-69215000D01*
X207259900Y-69583400D02*
X207259900Y-69215000D01*
X203076600Y-73766700D02*
X207259900Y-69583400D01*
X200070800Y-73766700D02*
X203076600Y-73766700D01*
%TO.N,1K*%
X210978800Y-69215000D02*
X209799900Y-69215000D01*
X209799900Y-69583400D02*
X209799900Y-69215000D01*
X204848200Y-74535100D02*
X209799900Y-69583400D01*
X199113200Y-74535100D02*
X204848200Y-74535100D01*
%TO.N,HOME*%
X76867400Y-52613900D02*
X73283800Y-56197500D01*
X193749500Y-52613900D02*
X76867400Y-52613900D01*
X194559900Y-51803500D02*
X193749500Y-52613900D01*
X194559900Y-51435000D02*
X194559900Y-51803500D01*
X195738800Y-51435000D02*
X194559900Y-51435000D01*
%TO.N,UP*%
X223678800Y-69215000D02*
X222499900Y-69215000D01*
X129288300Y-109080800D02*
X139800100Y-119592600D01*
X128159800Y-109080800D02*
X129288300Y-109080800D01*
X162269600Y-97123100D02*
X139800100Y-119592600D01*
X163632900Y-97123100D02*
X162269600Y-97123100D01*
X163703700Y-97193900D02*
X163632900Y-97123100D01*
X169598500Y-97193900D02*
X163703700Y-97193900D01*
X174614400Y-92178000D02*
X169598500Y-97193900D01*
X188425600Y-92178000D02*
X174614400Y-92178000D01*
X198436300Y-82167300D02*
X188425600Y-92178000D01*
X209916000Y-82167300D02*
X198436300Y-82167300D01*
X222499900Y-69583400D02*
X209916000Y-82167300D01*
X222499900Y-69215000D02*
X222499900Y-69583400D01*
X139800100Y-119592600D02*
X139800100Y-141446200D01*
%TO.N,RIGHT*%
X141767600Y-76343000D02*
X112510400Y-105600200D01*
X210660300Y-76343000D02*
X141767600Y-76343000D01*
X217419900Y-69583400D02*
X210660300Y-76343000D01*
X217419900Y-69215000D02*
X217419900Y-69583400D01*
X218598800Y-69215000D02*
X217419900Y-69215000D01*
%TO.N,DOWN*%
X221138800Y-69215000D02*
X219959900Y-69215000D01*
X219959900Y-69583400D02*
X219959900Y-69215000D01*
X212742900Y-76800400D02*
X219959900Y-69583400D01*
X168280800Y-76800400D02*
X212742900Y-76800400D01*
X137328600Y-107752600D02*
X168280800Y-76800400D01*
X111599000Y-107752600D02*
X137328600Y-107752600D01*
X105491400Y-101645000D02*
X111599000Y-107752600D01*
X93928700Y-101645000D02*
X105491400Y-101645000D01*
%TO.N,LEFT*%
X92889700Y-97678800D02*
X75243000Y-97678800D01*
X114681400Y-75887100D02*
X92889700Y-97678800D01*
X209482700Y-75887100D02*
X114681400Y-75887100D01*
X216058800Y-69311000D02*
X209482700Y-75887100D01*
X216058800Y-69215000D02*
X216058800Y-69311000D01*
%TD*%
%TA.AperFunction,Conductor*%
%TO.N,GND*%
G36*
X233305539Y-47644685D02*
G01*
X233351294Y-47697489D01*
X233362500Y-47749000D01*
X233362500Y-72901000D01*
X233342815Y-72968039D01*
X233290011Y-73013794D01*
X233238500Y-73025000D01*
X226485882Y-73025000D01*
X226418843Y-73005315D01*
X226398201Y-72988681D01*
X225612719Y-72203199D01*
X225579234Y-72141876D01*
X225576400Y-72115518D01*
X225576400Y-70689000D01*
X225596085Y-70621961D01*
X225648889Y-70576206D01*
X225700400Y-70565000D01*
X225968800Y-70565000D01*
X225968800Y-69661494D01*
X226073639Y-69709373D01*
X226182327Y-69725000D01*
X226255273Y-69725000D01*
X226363961Y-69709373D01*
X226468800Y-69661494D01*
X226468800Y-70565000D01*
X227116628Y-70565000D01*
X227116644Y-70564999D01*
X227176172Y-70558598D01*
X227176179Y-70558596D01*
X227310886Y-70508354D01*
X227310893Y-70508350D01*
X227425987Y-70422190D01*
X227425990Y-70422187D01*
X227512150Y-70307093D01*
X227512154Y-70307086D01*
X227561222Y-70175529D01*
X227603093Y-70119595D01*
X227668557Y-70095178D01*
X227736830Y-70110030D01*
X227765085Y-70131181D01*
X227887399Y-70253495D01*
X227939434Y-70289930D01*
X228080965Y-70389032D01*
X228080967Y-70389033D01*
X228080970Y-70389035D01*
X228295137Y-70488903D01*
X228295143Y-70488904D01*
X228295144Y-70488905D01*
X228350085Y-70503626D01*
X228523392Y-70550063D01*
X228694119Y-70565000D01*
X228758799Y-70570659D01*
X228758800Y-70570659D01*
X228758801Y-70570659D01*
X228823481Y-70565000D01*
X228994208Y-70550063D01*
X229222463Y-70488903D01*
X229436630Y-70389035D01*
X229630201Y-70253495D01*
X229797295Y-70086401D01*
X229927226Y-69900841D01*
X229981802Y-69857217D01*
X230051300Y-69850023D01*
X230113655Y-69881546D01*
X230130375Y-69900842D01*
X230260300Y-70086395D01*
X230260305Y-70086401D01*
X230427399Y-70253495D01*
X230479434Y-70289930D01*
X230620965Y-70389032D01*
X230620967Y-70389033D01*
X230620970Y-70389035D01*
X230835137Y-70488903D01*
X230835143Y-70488904D01*
X230835144Y-70488905D01*
X230890085Y-70503626D01*
X231063392Y-70550063D01*
X231234119Y-70565000D01*
X231298799Y-70570659D01*
X231298800Y-70570659D01*
X231298801Y-70570659D01*
X231363481Y-70565000D01*
X231534208Y-70550063D01*
X231762463Y-70488903D01*
X231976630Y-70389035D01*
X232170201Y-70253495D01*
X232337295Y-70086401D01*
X232472835Y-69892830D01*
X232572703Y-69678663D01*
X232633863Y-69450408D01*
X232654459Y-69215000D01*
X232633863Y-68979592D01*
X232572703Y-68751337D01*
X232472835Y-68537171D01*
X232467225Y-68529158D01*
X232337294Y-68343597D01*
X232170202Y-68176506D01*
X232170195Y-68176501D01*
X231976634Y-68040967D01*
X231976630Y-68040965D01*
X231905527Y-68007809D01*
X231762463Y-67941097D01*
X231762459Y-67941096D01*
X231762455Y-67941094D01*
X231534213Y-67879938D01*
X231534203Y-67879936D01*
X231298801Y-67859341D01*
X231298799Y-67859341D01*
X231063396Y-67879936D01*
X231063386Y-67879938D01*
X230835144Y-67941094D01*
X230835135Y-67941098D01*
X230620971Y-68040964D01*
X230620969Y-68040965D01*
X230427397Y-68176505D01*
X230260305Y-68343597D01*
X230130375Y-68529158D01*
X230075798Y-68572783D01*
X230006300Y-68579977D01*
X229943945Y-68548454D01*
X229927225Y-68529158D01*
X229797294Y-68343597D01*
X229630202Y-68176506D01*
X229630195Y-68176501D01*
X229436634Y-68040967D01*
X229436630Y-68040965D01*
X229365527Y-68007809D01*
X229222463Y-67941097D01*
X229222459Y-67941096D01*
X229222455Y-67941094D01*
X228994213Y-67879938D01*
X228994203Y-67879936D01*
X228758801Y-67859341D01*
X228758799Y-67859341D01*
X228523396Y-67879936D01*
X228523386Y-67879938D01*
X228295144Y-67941094D01*
X228295135Y-67941098D01*
X228080971Y-68040964D01*
X228080969Y-68040965D01*
X227887400Y-68176503D01*
X227765084Y-68298819D01*
X227703761Y-68332303D01*
X227634069Y-68327319D01*
X227578136Y-68285447D01*
X227561221Y-68254470D01*
X227512154Y-68122913D01*
X227512150Y-68122906D01*
X227425990Y-68007812D01*
X227425987Y-68007809D01*
X227310893Y-67921649D01*
X227310886Y-67921645D01*
X227176179Y-67871403D01*
X227176172Y-67871401D01*
X227116644Y-67865000D01*
X226468800Y-67865000D01*
X226468800Y-68768505D01*
X226363961Y-68720627D01*
X226255273Y-68705000D01*
X226182327Y-68705000D01*
X226073639Y-68720627D01*
X225968800Y-68768505D01*
X225968800Y-67865000D01*
X225320955Y-67865000D01*
X225261427Y-67871401D01*
X225261420Y-67871403D01*
X225126713Y-67921645D01*
X225126702Y-67921651D01*
X225124563Y-67923253D01*
X225122062Y-67924185D01*
X225118928Y-67925897D01*
X225118681Y-67925446D01*
X225059097Y-67947665D01*
X224990825Y-67932807D01*
X224962580Y-67911661D01*
X224681476Y-67630557D01*
X224671631Y-67618268D01*
X224671413Y-67618449D01*
X224666440Y-67612437D01*
X224616543Y-67565581D01*
X224615143Y-67564224D01*
X224594897Y-67543977D01*
X224589396Y-67539711D01*
X224584948Y-67535912D01*
X224550868Y-67503908D01*
X224550863Y-67503904D01*
X224533222Y-67494206D01*
X224516957Y-67483522D01*
X224501063Y-67471193D01*
X224501062Y-67471192D01*
X224478312Y-67461347D01*
X224458154Y-67452623D01*
X224452907Y-67450053D01*
X224411937Y-67427529D01*
X224411928Y-67427526D01*
X224392434Y-67422520D01*
X224374033Y-67416220D01*
X224355559Y-67408226D01*
X224355552Y-67408224D01*
X224309387Y-67400913D01*
X224303663Y-67399728D01*
X224258379Y-67388100D01*
X224258372Y-67388100D01*
X224238242Y-67388100D01*
X224218843Y-67386573D01*
X224198968Y-67383425D01*
X224198967Y-67383425D01*
X224152421Y-67387825D01*
X224146583Y-67388100D01*
X205453667Y-67388100D01*
X205438018Y-67386372D01*
X205437992Y-67386654D01*
X205430224Y-67385919D01*
X205361808Y-67388069D01*
X205359861Y-67388100D01*
X205331222Y-67388100D01*
X205324318Y-67388971D01*
X205318500Y-67389429D01*
X205271757Y-67390898D01*
X205252413Y-67396518D01*
X205233369Y-67400462D01*
X205230409Y-67400835D01*
X205213407Y-67402984D01*
X205213403Y-67402985D01*
X205213400Y-67402986D01*
X205169935Y-67420194D01*
X205164410Y-67422085D01*
X205119509Y-67435131D01*
X205119506Y-67435133D01*
X205102180Y-67445379D01*
X205084710Y-67453937D01*
X205065998Y-67461345D01*
X205028163Y-67488833D01*
X205023280Y-67492040D01*
X204983046Y-67515834D01*
X204968806Y-67530074D01*
X204954020Y-67542702D01*
X204937733Y-67554536D01*
X204937732Y-67554536D01*
X204907927Y-67590563D01*
X204903995Y-67594885D01*
X204357987Y-68140892D01*
X204296664Y-68174377D01*
X204226972Y-68169393D01*
X204199186Y-68154788D01*
X204036630Y-68040965D01*
X204036631Y-68040965D01*
X204036629Y-68040964D01*
X203929546Y-67991031D01*
X203822463Y-67941097D01*
X203822459Y-67941096D01*
X203822455Y-67941094D01*
X203594213Y-67879938D01*
X203594203Y-67879936D01*
X203358801Y-67859341D01*
X203358799Y-67859341D01*
X203123396Y-67879936D01*
X203123386Y-67879938D01*
X202895144Y-67941094D01*
X202895135Y-67941098D01*
X202680971Y-68040964D01*
X202680969Y-68040965D01*
X202487400Y-68176503D01*
X202365084Y-68298819D01*
X202303761Y-68332303D01*
X202234069Y-68327319D01*
X202178136Y-68285447D01*
X202161221Y-68254470D01*
X202112154Y-68122913D01*
X202112150Y-68122906D01*
X202025990Y-68007812D01*
X202025987Y-68007809D01*
X201910893Y-67921649D01*
X201910886Y-67921645D01*
X201776179Y-67871403D01*
X201776172Y-67871401D01*
X201716644Y-67865000D01*
X201068800Y-67865000D01*
X201068800Y-68768505D01*
X200963961Y-68720627D01*
X200855273Y-68705000D01*
X200782327Y-68705000D01*
X200673639Y-68720627D01*
X200568800Y-68768505D01*
X200568800Y-67865000D01*
X199920955Y-67865000D01*
X199861427Y-67871401D01*
X199861420Y-67871403D01*
X199726713Y-67921645D01*
X199726706Y-67921649D01*
X199611612Y-68007809D01*
X199611609Y-68007812D01*
X199525449Y-68122906D01*
X199525445Y-68122913D01*
X199476378Y-68254470D01*
X199434507Y-68310404D01*
X199369042Y-68334821D01*
X199300769Y-68319969D01*
X199272515Y-68298819D01*
X199228166Y-68254470D01*
X199150201Y-68176505D01*
X199150197Y-68176502D01*
X199150196Y-68176501D01*
X198956634Y-68040967D01*
X198956630Y-68040965D01*
X198885527Y-68007809D01*
X198742463Y-67941097D01*
X198742459Y-67941096D01*
X198742455Y-67941094D01*
X198514213Y-67879938D01*
X198514203Y-67879936D01*
X198278801Y-67859341D01*
X198278799Y-67859341D01*
X198043396Y-67879936D01*
X198043386Y-67879938D01*
X197815144Y-67941094D01*
X197815135Y-67941098D01*
X197600971Y-68040964D01*
X197600969Y-68040965D01*
X197407397Y-68176505D01*
X197240305Y-68343597D01*
X197110375Y-68529158D01*
X197055798Y-68572783D01*
X196986300Y-68579977D01*
X196923945Y-68548454D01*
X196907225Y-68529158D01*
X196777294Y-68343597D01*
X196610202Y-68176506D01*
X196610195Y-68176501D01*
X196416634Y-68040967D01*
X196416630Y-68040965D01*
X196345527Y-68007809D01*
X196202463Y-67941097D01*
X196202459Y-67941096D01*
X196202455Y-67941094D01*
X195974213Y-67879938D01*
X195974203Y-67879936D01*
X195738801Y-67859341D01*
X195738799Y-67859341D01*
X195503396Y-67879936D01*
X195503386Y-67879938D01*
X195275144Y-67941094D01*
X195275135Y-67941098D01*
X195060971Y-68040964D01*
X195060969Y-68040965D01*
X194867397Y-68176505D01*
X194700308Y-68343594D01*
X194570374Y-68529160D01*
X194515797Y-68572784D01*
X194446298Y-68579977D01*
X194383944Y-68548455D01*
X194367229Y-68529164D01*
X194237295Y-68343599D01*
X194237293Y-68343596D01*
X194070202Y-68176506D01*
X194070195Y-68176501D01*
X193876634Y-68040967D01*
X193876630Y-68040965D01*
X193805527Y-68007809D01*
X193662463Y-67941097D01*
X193662459Y-67941096D01*
X193662455Y-67941094D01*
X193434213Y-67879938D01*
X193434203Y-67879936D01*
X193198801Y-67859341D01*
X193198799Y-67859341D01*
X192963396Y-67879936D01*
X192963386Y-67879938D01*
X192735144Y-67941094D01*
X192735135Y-67941098D01*
X192520971Y-68040964D01*
X192520969Y-68040965D01*
X192327397Y-68176505D01*
X192160308Y-68343594D01*
X192030374Y-68529160D01*
X191975797Y-68572784D01*
X191906298Y-68579977D01*
X191843944Y-68548455D01*
X191827229Y-68529164D01*
X191697295Y-68343599D01*
X191697293Y-68343596D01*
X191530202Y-68176506D01*
X191530195Y-68176501D01*
X191336634Y-68040967D01*
X191336630Y-68040965D01*
X191265527Y-68007809D01*
X191122463Y-67941097D01*
X191122459Y-67941096D01*
X191122455Y-67941094D01*
X190894213Y-67879938D01*
X190894203Y-67879936D01*
X190658801Y-67859341D01*
X190658799Y-67859341D01*
X190423396Y-67879936D01*
X190423386Y-67879938D01*
X190195144Y-67941094D01*
X190195135Y-67941098D01*
X189980971Y-68040964D01*
X189980969Y-68040965D01*
X189787400Y-68176503D01*
X189665084Y-68298819D01*
X189603761Y-68332303D01*
X189534069Y-68327319D01*
X189478136Y-68285447D01*
X189461221Y-68254470D01*
X189412154Y-68122913D01*
X189412150Y-68122906D01*
X189325990Y-68007812D01*
X189325987Y-68007809D01*
X189210893Y-67921649D01*
X189210886Y-67921645D01*
X189076179Y-67871403D01*
X189076172Y-67871401D01*
X189016644Y-67865000D01*
X188368800Y-67865000D01*
X188368800Y-68768505D01*
X188263961Y-68720627D01*
X188155273Y-68705000D01*
X188082327Y-68705000D01*
X187973639Y-68720627D01*
X187868799Y-68768505D01*
X187868800Y-67865000D01*
X187220955Y-67865000D01*
X187161427Y-67871401D01*
X187161420Y-67871403D01*
X187026713Y-67921645D01*
X187026706Y-67921649D01*
X186911612Y-68007809D01*
X186911609Y-68007812D01*
X186825449Y-68122906D01*
X186825445Y-68122913D01*
X186776378Y-68254470D01*
X186734507Y-68310404D01*
X186669042Y-68334821D01*
X186600769Y-68319969D01*
X186572515Y-68298819D01*
X186528166Y-68254470D01*
X186450201Y-68176505D01*
X186450197Y-68176502D01*
X186450196Y-68176501D01*
X186256634Y-68040967D01*
X186256630Y-68040965D01*
X186185527Y-68007809D01*
X186042463Y-67941097D01*
X186042459Y-67941096D01*
X186042455Y-67941094D01*
X185814213Y-67879938D01*
X185814203Y-67879936D01*
X185578801Y-67859341D01*
X185578799Y-67859341D01*
X185343396Y-67879936D01*
X185343386Y-67879938D01*
X185115144Y-67941094D01*
X185115135Y-67941098D01*
X184900971Y-68040964D01*
X184900969Y-68040965D01*
X184707397Y-68176505D01*
X184540308Y-68343594D01*
X184410374Y-68529160D01*
X184355797Y-68572784D01*
X184286298Y-68579977D01*
X184223944Y-68548455D01*
X184207229Y-68529164D01*
X184077295Y-68343599D01*
X184077293Y-68343596D01*
X183910202Y-68176506D01*
X183910195Y-68176501D01*
X183716634Y-68040967D01*
X183716630Y-68040965D01*
X183645527Y-68007809D01*
X183502463Y-67941097D01*
X183502459Y-67941096D01*
X183502455Y-67941094D01*
X183274213Y-67879938D01*
X183274203Y-67879936D01*
X183038801Y-67859341D01*
X183038799Y-67859341D01*
X182803396Y-67879936D01*
X182803386Y-67879938D01*
X182575144Y-67941094D01*
X182575135Y-67941098D01*
X182360971Y-68040964D01*
X182360969Y-68040965D01*
X182167397Y-68176505D01*
X182000305Y-68343597D01*
X181864765Y-68537169D01*
X181864764Y-68537171D01*
X181764898Y-68751335D01*
X181764894Y-68751344D01*
X181703738Y-68979586D01*
X181703736Y-68979596D01*
X181683141Y-69214999D01*
X181683141Y-69215000D01*
X181703736Y-69450403D01*
X181703738Y-69450413D01*
X181764894Y-69678655D01*
X181764896Y-69678659D01*
X181764897Y-69678663D01*
X181834391Y-69827692D01*
X181864765Y-69892830D01*
X181864767Y-69892834D01*
X181973081Y-70047521D01*
X182000305Y-70086401D01*
X182167399Y-70253495D01*
X182219434Y-70289930D01*
X182360965Y-70389032D01*
X182360967Y-70389033D01*
X182360970Y-70389035D01*
X182575137Y-70488903D01*
X182575143Y-70488904D01*
X182575144Y-70488905D01*
X182630085Y-70503626D01*
X182803392Y-70550063D01*
X182974119Y-70565000D01*
X183038799Y-70570659D01*
X183038800Y-70570659D01*
X183038801Y-70570659D01*
X183103481Y-70565000D01*
X183274208Y-70550063D01*
X183502463Y-70488903D01*
X183716630Y-70389035D01*
X183910201Y-70253495D01*
X184077295Y-70086401D01*
X184207226Y-69900841D01*
X184261802Y-69857217D01*
X184331300Y-69850023D01*
X184393655Y-69881546D01*
X184410375Y-69900842D01*
X184540300Y-70086395D01*
X184540305Y-70086401D01*
X184707399Y-70253495D01*
X184759434Y-70289930D01*
X184900965Y-70389032D01*
X184900967Y-70389033D01*
X184900970Y-70389035D01*
X185115137Y-70488903D01*
X185115143Y-70488904D01*
X185115144Y-70488905D01*
X185170085Y-70503626D01*
X185343392Y-70550063D01*
X185514119Y-70565000D01*
X185578799Y-70570659D01*
X185578800Y-70570659D01*
X185578801Y-70570659D01*
X185643481Y-70565000D01*
X185814208Y-70550063D01*
X186042463Y-70488903D01*
X186256630Y-70389035D01*
X186450201Y-70253495D01*
X186572517Y-70131178D01*
X186633836Y-70097696D01*
X186703528Y-70102680D01*
X186759462Y-70144551D01*
X186776377Y-70175528D01*
X186825446Y-70307088D01*
X186825449Y-70307093D01*
X186911609Y-70422187D01*
X186911612Y-70422190D01*
X187026706Y-70508350D01*
X187026713Y-70508354D01*
X187161420Y-70558596D01*
X187161427Y-70558598D01*
X187220955Y-70564999D01*
X187220972Y-70565000D01*
X187868799Y-70565000D01*
X187868799Y-69661494D01*
X187973639Y-69709373D01*
X188082327Y-69725000D01*
X188155273Y-69725000D01*
X188263961Y-69709373D01*
X188368800Y-69661494D01*
X188368800Y-70565000D01*
X189016628Y-70565000D01*
X189016644Y-70564999D01*
X189076172Y-70558598D01*
X189076179Y-70558596D01*
X189210886Y-70508354D01*
X189210893Y-70508350D01*
X189325987Y-70422190D01*
X189325990Y-70422187D01*
X189412150Y-70307093D01*
X189412154Y-70307086D01*
X189461222Y-70175529D01*
X189503093Y-70119595D01*
X189568557Y-70095178D01*
X189636830Y-70110030D01*
X189665085Y-70131181D01*
X189787399Y-70253495D01*
X189839434Y-70289930D01*
X189980965Y-70389032D01*
X189980967Y-70389033D01*
X189980970Y-70389035D01*
X190195137Y-70488903D01*
X190195143Y-70488904D01*
X190195144Y-70488905D01*
X190250085Y-70503626D01*
X190423392Y-70550063D01*
X190594119Y-70565000D01*
X190658799Y-70570659D01*
X190658800Y-70570659D01*
X190658801Y-70570659D01*
X190723481Y-70565000D01*
X190894208Y-70550063D01*
X191122463Y-70488903D01*
X191336630Y-70389035D01*
X191498009Y-70276035D01*
X191564212Y-70253709D01*
X191631979Y-70270719D01*
X191656811Y-70289930D01*
X194180200Y-72813319D01*
X194213685Y-72874642D01*
X194208701Y-72944334D01*
X194166829Y-73000267D01*
X194101365Y-73024684D01*
X194092519Y-73025000D01*
X179511500Y-73025000D01*
X179444461Y-73005315D01*
X179398706Y-72952511D01*
X179387500Y-72901000D01*
X179387500Y-62865000D01*
X181913141Y-62865000D01*
X181933736Y-63100403D01*
X181933738Y-63100413D01*
X181994894Y-63328655D01*
X181994896Y-63328659D01*
X181994897Y-63328663D01*
X182077730Y-63506299D01*
X182094765Y-63542830D01*
X182094767Y-63542834D01*
X182192765Y-63682788D01*
X182230305Y-63736401D01*
X182397399Y-63903495D01*
X182478535Y-63960307D01*
X182590965Y-64039032D01*
X182590967Y-64039033D01*
X182590970Y-64039035D01*
X182805137Y-64138903D01*
X182805143Y-64138904D01*
X182805144Y-64138905D01*
X182822588Y-64143579D01*
X183033392Y-64200063D01*
X183216280Y-64216064D01*
X183268799Y-64220659D01*
X183268800Y-64220659D01*
X183268801Y-64220659D01*
X183321320Y-64216064D01*
X183504208Y-64200063D01*
X183732463Y-64138903D01*
X183946630Y-64039035D01*
X184140201Y-63903495D01*
X184307295Y-63736401D01*
X184442835Y-63542830D01*
X184542703Y-63328663D01*
X184603863Y-63100408D01*
X184624459Y-62865000D01*
X184621624Y-62832602D01*
X184618057Y-62791830D01*
X184614398Y-62750003D01*
X226883523Y-62750003D01*
X226885488Y-62772470D01*
X226885662Y-62780660D01*
X226884509Y-62806324D01*
X226884510Y-62806328D01*
X226895441Y-62887031D01*
X226895766Y-62889949D01*
X226902592Y-62967972D01*
X226902595Y-62967987D01*
X226909282Y-62992941D01*
X226910834Y-63000670D01*
X226914724Y-63029381D01*
X226914726Y-63029392D01*
X226938875Y-63103713D01*
X226939797Y-63106825D01*
X226959223Y-63179324D01*
X226959227Y-63179336D01*
X226971536Y-63205732D01*
X226974312Y-63212779D01*
X226984283Y-63243464D01*
X227019770Y-63309411D01*
X227021358Y-63312576D01*
X227051698Y-63377639D01*
X227070290Y-63404191D01*
X227074103Y-63410378D01*
X227090946Y-63441678D01*
X227090952Y-63441687D01*
X227135592Y-63497663D01*
X227137906Y-63500758D01*
X227161654Y-63534672D01*
X227177202Y-63556877D01*
X227177205Y-63556880D01*
X227202446Y-63582121D01*
X227207083Y-63587309D01*
X227231292Y-63617666D01*
X227282759Y-63662632D01*
X227285808Y-63665483D01*
X227331916Y-63711592D01*
X227331922Y-63711597D01*
X227331923Y-63711598D01*
X227342279Y-63718849D01*
X227363855Y-63733957D01*
X227369090Y-63738057D01*
X227400804Y-63765765D01*
X227400813Y-63765771D01*
X227456649Y-63799131D01*
X227460413Y-63801568D01*
X227511159Y-63837101D01*
X227511164Y-63837104D01*
X227533717Y-63847620D01*
X227549477Y-63854969D01*
X227555071Y-63857935D01*
X227592149Y-63880088D01*
X227594036Y-63881215D01*
X227606237Y-63885794D01*
X227651883Y-63902925D01*
X227656303Y-63904782D01*
X227709470Y-63929575D01*
X227709474Y-63929577D01*
X227739869Y-63937720D01*
X227753477Y-63941366D01*
X227759213Y-63943207D01*
X227766381Y-63945897D01*
X227804776Y-63960307D01*
X227862345Y-63970754D01*
X227867311Y-63971868D01*
X227920823Y-63986207D01*
X227969489Y-63990464D01*
X227975106Y-63991218D01*
X228026253Y-64000500D01*
X228081491Y-64000500D01*
X228086892Y-64000735D01*
X228115348Y-64003225D01*
X228138798Y-64005277D01*
X228138800Y-64005277D01*
X228190494Y-64000754D01*
X228193084Y-64000583D01*
X228194921Y-64000500D01*
X228194955Y-64000500D01*
X228248017Y-63995724D01*
X228248973Y-63995638D01*
X228248980Y-63995724D01*
X228249277Y-63995611D01*
X228356777Y-63986207D01*
X228356800Y-63986200D01*
X228357275Y-63986117D01*
X228362513Y-63985419D01*
X228362988Y-63985377D01*
X228466797Y-63956726D01*
X228568130Y-63929575D01*
X228568134Y-63929572D01*
X228575054Y-63927053D01*
X228579748Y-63925554D01*
X228579970Y-63925493D01*
X228579981Y-63925487D01*
X228579983Y-63925487D01*
X228605598Y-63913151D01*
X228674254Y-63880088D01*
X228766439Y-63837102D01*
X228766448Y-63837095D01*
X228771127Y-63834395D01*
X228771200Y-63834522D01*
X228781964Y-63828218D01*
X228782773Y-63827829D01*
X228864956Y-63768118D01*
X228945677Y-63711598D01*
X228946547Y-63710727D01*
X228961350Y-63698084D01*
X228964878Y-63695522D01*
X229032474Y-63624820D01*
X229033362Y-63623911D01*
X229100398Y-63556877D01*
X229103085Y-63553039D01*
X229115039Y-63538465D01*
X229120429Y-63532828D01*
X229120428Y-63532828D01*
X229120432Y-63532825D01*
X229172546Y-63453873D01*
X229173396Y-63452623D01*
X229225902Y-63377639D01*
X229229343Y-63370259D01*
X229238232Y-63354364D01*
X229244435Y-63344968D01*
X229280307Y-63261038D01*
X229281084Y-63259297D01*
X229318375Y-63179330D01*
X229321370Y-63168148D01*
X229327125Y-63151505D01*
X229332903Y-63137988D01*
X229333280Y-63136339D01*
X229352475Y-63052235D01*
X229353029Y-63050000D01*
X229763500Y-63050000D01*
X229763685Y-63052235D01*
X229770653Y-63136339D01*
X229770808Y-63138826D01*
X229774619Y-63228523D01*
X229774620Y-63228534D01*
X229779739Y-63252284D01*
X229780920Y-63260233D01*
X229782665Y-63281303D01*
X229782665Y-63281306D01*
X229804732Y-63368445D01*
X229805237Y-63370602D01*
X229824844Y-63461575D01*
X229824845Y-63461580D01*
X229832683Y-63481084D01*
X229835258Y-63488987D01*
X229839643Y-63506300D01*
X229877083Y-63591657D01*
X229877803Y-63593371D01*
X229890459Y-63624865D01*
X229913735Y-63682788D01*
X229923032Y-63697888D01*
X229927018Y-63705495D01*
X229932877Y-63718851D01*
X229985620Y-63799582D01*
X229986511Y-63800985D01*
X230038730Y-63885794D01*
X230045343Y-63893308D01*
X230056063Y-63907402D01*
X230059819Y-63913151D01*
X230059821Y-63913153D01*
X230127072Y-63986208D01*
X230127346Y-63986505D01*
X230128272Y-63987534D01*
X230139910Y-64000757D01*
X230196236Y-64064755D01*
X230201364Y-64068895D01*
X230214682Y-64081377D01*
X230217016Y-64083913D01*
X230298733Y-64147515D01*
X230381720Y-64214523D01*
X230381722Y-64214524D01*
X230384478Y-64216064D01*
X230400160Y-64226460D01*
X230400167Y-64226465D01*
X230400171Y-64226467D01*
X230400174Y-64226470D01*
X230493962Y-64277225D01*
X230572538Y-64321121D01*
X230589851Y-64330793D01*
X230592649Y-64332058D01*
X230599495Y-64335097D01*
X230599594Y-64334873D01*
X230604291Y-64336933D01*
X230604297Y-64336936D01*
X230708076Y-64372563D01*
X230814629Y-64410211D01*
X230815198Y-64410308D01*
X230819929Y-64411312D01*
X230823802Y-64412292D01*
X230823819Y-64412298D01*
X230914026Y-64427350D01*
X230935191Y-64430882D01*
X230961216Y-64435345D01*
X231049592Y-64450499D01*
X231049600Y-64450500D01*
X231284844Y-64450500D01*
X231284849Y-64450500D01*
X231317873Y-64444988D01*
X231341269Y-64441085D01*
X231346207Y-64440463D01*
X231406341Y-64435346D01*
X231458415Y-64421786D01*
X231463817Y-64420634D01*
X231513781Y-64412298D01*
X231570986Y-64392658D01*
X231575463Y-64391309D01*
X231637049Y-64375275D01*
X231643049Y-64372563D01*
X231648062Y-64370296D01*
X231683097Y-64354459D01*
X231688481Y-64352322D01*
X231733303Y-64336936D01*
X231789354Y-64306601D01*
X231793327Y-64304632D01*
X231801956Y-64300730D01*
X231854286Y-64277077D01*
X231893447Y-64250608D01*
X231898620Y-64247469D01*
X231937426Y-64226470D01*
X231990332Y-64185290D01*
X231993650Y-64182881D01*
X232051803Y-64143579D01*
X232083570Y-64113131D01*
X232088348Y-64109002D01*
X232120584Y-64083913D01*
X232122909Y-64081388D01*
X232138220Y-64064755D01*
X232168189Y-64032198D01*
X232170901Y-64029432D01*
X232223918Y-63978621D01*
X232248129Y-63945883D01*
X232252340Y-63940785D01*
X232277779Y-63913153D01*
X232318006Y-63851578D01*
X232320041Y-63848652D01*
X232365679Y-63786947D01*
X232382533Y-63753517D01*
X232385970Y-63747552D01*
X232404724Y-63718849D01*
X232435605Y-63648445D01*
X232436974Y-63645538D01*
X232473007Y-63574074D01*
X232483008Y-63541413D01*
X232485501Y-63534694D01*
X232497957Y-63506300D01*
X232517627Y-63428621D01*
X232518435Y-63425732D01*
X232542816Y-63346123D01*
X232546736Y-63315508D01*
X232548130Y-63308170D01*
X232554934Y-63281305D01*
X232561818Y-63198226D01*
X232562108Y-63195469D01*
X232564175Y-63179327D01*
X232573098Y-63109654D01*
X232571926Y-63082079D01*
X232572081Y-63074355D01*
X232574100Y-63050000D01*
X232572392Y-63029392D01*
X232566947Y-62963680D01*
X232566791Y-62961190D01*
X232566264Y-62948782D01*
X232562980Y-62871468D01*
X232557859Y-62847709D01*
X232556679Y-62839762D01*
X232556086Y-62832602D01*
X232554934Y-62818695D01*
X232532856Y-62731514D01*
X232532363Y-62729408D01*
X232520169Y-62672828D01*
X232512754Y-62638419D01*
X232504915Y-62618912D01*
X232502341Y-62611015D01*
X232497957Y-62593700D01*
X232460524Y-62508363D01*
X232459807Y-62506658D01*
X232423864Y-62417210D01*
X232414568Y-62402112D01*
X232410579Y-62394500D01*
X232404724Y-62381151D01*
X232351984Y-62300426D01*
X232351094Y-62299023D01*
X232298874Y-62214212D01*
X232298871Y-62214209D01*
X232298869Y-62214205D01*
X232292251Y-62206686D01*
X232281527Y-62192584D01*
X232277780Y-62186848D01*
X232268981Y-62177290D01*
X232210227Y-62113466D01*
X232209358Y-62112501D01*
X232141364Y-62035245D01*
X232136236Y-62031104D01*
X232122917Y-62018621D01*
X232120585Y-62016088D01*
X232120583Y-62016086D01*
X232038861Y-61952480D01*
X231955880Y-61885477D01*
X231955873Y-61885472D01*
X231953111Y-61883929D01*
X231937443Y-61873542D01*
X231937434Y-61873535D01*
X231937428Y-61873532D01*
X231937426Y-61873530D01*
X231843637Y-61822774D01*
X231794570Y-61795363D01*
X231747761Y-61769213D01*
X231745181Y-61768047D01*
X231738084Y-61764898D01*
X231737988Y-61765119D01*
X231733299Y-61763062D01*
X231629555Y-61727447D01*
X231522972Y-61689789D01*
X231522960Y-61689786D01*
X231522412Y-61689692D01*
X231517689Y-61688691D01*
X231513790Y-61687704D01*
X231513783Y-61687702D01*
X231513781Y-61687702D01*
X231463809Y-61679363D01*
X231402300Y-61669098D01*
X231288009Y-61649500D01*
X231288000Y-61649500D01*
X231284849Y-61649500D01*
X231052751Y-61649500D01*
X231052750Y-61649500D01*
X230996333Y-61658913D01*
X230991387Y-61659535D01*
X230988899Y-61659747D01*
X230931269Y-61664652D01*
X230931261Y-61664653D01*
X230879197Y-61678208D01*
X230873781Y-61679363D01*
X230823813Y-61687703D01*
X230766640Y-61707331D01*
X230762130Y-61708690D01*
X230700549Y-61724725D01*
X230700544Y-61724727D01*
X230654511Y-61745535D01*
X230649104Y-61747680D01*
X230604303Y-61763060D01*
X230604298Y-61763063D01*
X230548248Y-61793395D01*
X230544278Y-61795363D01*
X230483314Y-61822922D01*
X230444159Y-61849385D01*
X230438949Y-61852544D01*
X230400179Y-61873526D01*
X230400167Y-61873533D01*
X230347287Y-61914692D01*
X230343924Y-61917133D01*
X230285801Y-61956417D01*
X230285794Y-61956422D01*
X230254048Y-61986847D01*
X230249230Y-61991011D01*
X230217018Y-62016085D01*
X230217009Y-62016093D01*
X230169413Y-62067795D01*
X230166700Y-62070564D01*
X230113682Y-62121378D01*
X230113680Y-62121380D01*
X230089481Y-62154098D01*
X230085248Y-62159223D01*
X230059822Y-62186845D01*
X230019597Y-62248412D01*
X230017541Y-62251367D01*
X229971924Y-62313047D01*
X229971920Y-62313054D01*
X229955068Y-62346475D01*
X229951611Y-62352472D01*
X229932876Y-62381149D01*
X229902019Y-62451496D01*
X229900603Y-62454503D01*
X229864590Y-62525931D01*
X229854592Y-62558573D01*
X229852088Y-62565323D01*
X229839645Y-62593691D01*
X229839645Y-62593692D01*
X229819978Y-62671347D01*
X229819158Y-62674279D01*
X229794784Y-62753876D01*
X229794783Y-62753879D01*
X229790863Y-62784485D01*
X229789468Y-62791830D01*
X229782667Y-62818688D01*
X229782664Y-62818705D01*
X229775783Y-62901758D01*
X229775493Y-62904513D01*
X229764502Y-62990344D01*
X229764501Y-62990344D01*
X229765672Y-63017900D01*
X229765516Y-63025655D01*
X229765207Y-63029392D01*
X229763500Y-63050000D01*
X229353029Y-63050000D01*
X229353033Y-63049983D01*
X229375007Y-62967977D01*
X229376687Y-62948766D01*
X229378006Y-62940377D01*
X229378245Y-62939325D01*
X229382991Y-62918537D01*
X229386792Y-62833871D01*
X229386958Y-62831363D01*
X229394077Y-62750000D01*
X229392110Y-62727528D01*
X229391937Y-62719334D01*
X229393090Y-62693670D01*
X229382153Y-62612939D01*
X229381834Y-62610067D01*
X229375007Y-62532023D01*
X229368315Y-62507053D01*
X229366763Y-62499322D01*
X229362876Y-62470618D01*
X229362875Y-62470616D01*
X229362875Y-62470613D01*
X229340617Y-62402112D01*
X229338721Y-62396276D01*
X229337798Y-62393161D01*
X229318376Y-62320673D01*
X229306066Y-62294274D01*
X229303288Y-62287222D01*
X229293319Y-62256541D01*
X229293317Y-62256537D01*
X229293317Y-62256536D01*
X229280788Y-62233253D01*
X229257827Y-62190583D01*
X229256232Y-62187405D01*
X229255115Y-62185010D01*
X229225902Y-62122362D01*
X229207312Y-62095813D01*
X229203498Y-62089625D01*
X229192518Y-62069221D01*
X229186652Y-62058319D01*
X229141992Y-62002318D01*
X229139696Y-61999247D01*
X229100398Y-61943123D01*
X229075153Y-61917878D01*
X229070515Y-61912689D01*
X229046306Y-61882332D01*
X228994839Y-61837366D01*
X228991790Y-61834515D01*
X228945678Y-61788402D01*
X228913740Y-61766039D01*
X228908505Y-61761939D01*
X228876796Y-61734235D01*
X228876794Y-61734233D01*
X228876792Y-61734232D01*
X228820949Y-61700868D01*
X228817186Y-61698431D01*
X228766441Y-61662899D01*
X228728133Y-61645035D01*
X228722535Y-61642067D01*
X228683569Y-61618787D01*
X228683567Y-61618786D01*
X228625728Y-61597079D01*
X228621315Y-61595226D01*
X228568130Y-61570425D01*
X228524121Y-61558632D01*
X228518381Y-61556790D01*
X228472825Y-61539692D01*
X228415256Y-61529245D01*
X228410280Y-61528128D01*
X228356777Y-61513793D01*
X228308127Y-61509536D01*
X228302459Y-61508775D01*
X228251351Y-61499500D01*
X228251347Y-61499500D01*
X228196109Y-61499500D01*
X228190707Y-61499264D01*
X228162251Y-61496774D01*
X228138802Y-61494723D01*
X228138797Y-61494723D01*
X228087151Y-61499241D01*
X228084546Y-61499414D01*
X228082649Y-61499499D01*
X228028564Y-61504366D01*
X227920820Y-61513793D01*
X227920268Y-61513891D01*
X227915075Y-61514581D01*
X227914612Y-61514622D01*
X227914609Y-61514623D01*
X227849666Y-61532547D01*
X227810856Y-61543257D01*
X227709466Y-61570425D01*
X227702539Y-61572946D01*
X227697850Y-61574444D01*
X227697649Y-61574499D01*
X227697636Y-61574504D01*
X227603351Y-61619907D01*
X227511159Y-61662899D01*
X227506470Y-61665606D01*
X227506398Y-61665481D01*
X227495671Y-61671764D01*
X227494831Y-61672168D01*
X227412588Y-61731919D01*
X227331921Y-61788403D01*
X227331041Y-61789284D01*
X227316261Y-61801906D01*
X227312728Y-61804472D01*
X227312721Y-61804478D01*
X227245166Y-61875134D01*
X227244195Y-61876128D01*
X227177202Y-61943121D01*
X227174511Y-61946965D01*
X227162573Y-61961521D01*
X227157168Y-61967174D01*
X227134960Y-62000818D01*
X227105081Y-62046080D01*
X227104153Y-62047447D01*
X227051701Y-62122357D01*
X227051691Y-62122374D01*
X227048257Y-62129738D01*
X227039372Y-62145628D01*
X227033163Y-62155034D01*
X226997298Y-62238944D01*
X226996479Y-62240778D01*
X226959226Y-62320664D01*
X226959224Y-62320671D01*
X226956225Y-62331860D01*
X226950481Y-62348475D01*
X226944699Y-62362005D01*
X226944696Y-62362014D01*
X226925118Y-62447789D01*
X226924560Y-62450038D01*
X226902593Y-62532022D01*
X226902593Y-62532023D01*
X226900912Y-62551226D01*
X226899593Y-62559619D01*
X226898292Y-62565323D01*
X226894609Y-62581459D01*
X226894609Y-62581464D01*
X226890807Y-62666088D01*
X226890634Y-62668708D01*
X226883523Y-62749995D01*
X226883523Y-62750003D01*
X184614398Y-62750003D01*
X184603863Y-62629592D01*
X184542703Y-62401337D01*
X184442835Y-62187171D01*
X184442608Y-62186847D01*
X184307296Y-61993600D01*
X184256817Y-61943121D01*
X184185367Y-61871671D01*
X184151884Y-61810351D01*
X184156868Y-61740659D01*
X184198739Y-61684725D01*
X184229715Y-61667810D01*
X184361131Y-61618796D01*
X184476346Y-61532546D01*
X184562596Y-61417331D01*
X184612891Y-61282483D01*
X184619300Y-61222873D01*
X184619299Y-59427128D01*
X184612891Y-59367517D01*
X184562596Y-59232669D01*
X184562595Y-59232668D01*
X184562593Y-59232664D01*
X184476347Y-59117455D01*
X184476344Y-59117452D01*
X184361135Y-59031206D01*
X184361128Y-59031202D01*
X184229717Y-58982189D01*
X184173783Y-58940318D01*
X184149366Y-58874853D01*
X184164218Y-58806580D01*
X184185363Y-58778332D01*
X184307295Y-58656401D01*
X184442835Y-58462830D01*
X184542703Y-58248663D01*
X184603863Y-58020408D01*
X184614397Y-57900003D01*
X226883523Y-57900003D01*
X226885488Y-57922470D01*
X226885662Y-57930660D01*
X226884509Y-57956324D01*
X226884510Y-57956328D01*
X226895441Y-58037031D01*
X226895766Y-58039949D01*
X226902592Y-58117972D01*
X226902595Y-58117987D01*
X226909282Y-58142941D01*
X226910834Y-58150670D01*
X226914724Y-58179381D01*
X226914726Y-58179392D01*
X226938875Y-58253713D01*
X226939797Y-58256825D01*
X226959223Y-58329324D01*
X226959227Y-58329336D01*
X226971536Y-58355732D01*
X226974312Y-58362779D01*
X226984283Y-58393464D01*
X227019770Y-58459411D01*
X227021358Y-58462576D01*
X227051698Y-58527639D01*
X227058627Y-58537534D01*
X227070290Y-58554191D01*
X227074103Y-58560378D01*
X227090946Y-58591678D01*
X227090952Y-58591687D01*
X227135592Y-58647663D01*
X227137906Y-58650758D01*
X227169096Y-58695301D01*
X227177202Y-58706877D01*
X227177205Y-58706880D01*
X227202446Y-58732121D01*
X227207083Y-58737309D01*
X227231292Y-58767666D01*
X227282759Y-58812632D01*
X227285808Y-58815483D01*
X227331916Y-58861592D01*
X227331922Y-58861597D01*
X227331923Y-58861598D01*
X227343602Y-58869775D01*
X227363855Y-58883957D01*
X227369090Y-58888057D01*
X227400804Y-58915765D01*
X227400813Y-58915771D01*
X227456649Y-58949131D01*
X227460413Y-58951568D01*
X227511159Y-58987101D01*
X227511164Y-58987104D01*
X227519702Y-58991085D01*
X227549477Y-59004969D01*
X227555071Y-59007935D01*
X227594017Y-59031204D01*
X227594036Y-59031215D01*
X227612628Y-59038192D01*
X227651883Y-59052925D01*
X227656303Y-59054782D01*
X227709470Y-59079575D01*
X227709474Y-59079577D01*
X227739869Y-59087720D01*
X227753477Y-59091366D01*
X227759213Y-59093207D01*
X227776064Y-59099531D01*
X227804776Y-59110307D01*
X227862345Y-59120754D01*
X227867311Y-59121868D01*
X227920823Y-59136207D01*
X227969489Y-59140464D01*
X227975106Y-59141218D01*
X228026253Y-59150500D01*
X228081491Y-59150500D01*
X228086892Y-59150735D01*
X228115348Y-59153225D01*
X228138798Y-59155277D01*
X228138800Y-59155277D01*
X228190494Y-59150754D01*
X228193084Y-59150583D01*
X228194921Y-59150500D01*
X228194955Y-59150500D01*
X228248017Y-59145724D01*
X228248973Y-59145638D01*
X228248980Y-59145724D01*
X228249277Y-59145611D01*
X228356777Y-59136207D01*
X228356800Y-59136200D01*
X228357275Y-59136117D01*
X228362513Y-59135419D01*
X228362988Y-59135377D01*
X228466797Y-59106726D01*
X228568130Y-59079575D01*
X228568134Y-59079572D01*
X228575054Y-59077053D01*
X228579748Y-59075554D01*
X228579970Y-59075493D01*
X228579981Y-59075487D01*
X228579983Y-59075487D01*
X228593002Y-59069216D01*
X228674254Y-59030088D01*
X228766439Y-58987102D01*
X228766448Y-58987095D01*
X228771127Y-58984395D01*
X228771200Y-58984522D01*
X228781964Y-58978218D01*
X228782773Y-58977829D01*
X228864956Y-58918118D01*
X228945677Y-58861598D01*
X228946547Y-58860727D01*
X228961350Y-58848084D01*
X228964878Y-58845522D01*
X229032474Y-58774820D01*
X229033362Y-58773911D01*
X229100398Y-58706877D01*
X229103085Y-58703039D01*
X229115039Y-58688465D01*
X229120429Y-58682828D01*
X229120428Y-58682828D01*
X229120432Y-58682825D01*
X229172546Y-58603873D01*
X229173396Y-58602623D01*
X229225902Y-58527639D01*
X229229343Y-58520259D01*
X229238232Y-58504364D01*
X229244435Y-58494968D01*
X229280307Y-58411038D01*
X229281084Y-58409297D01*
X229318375Y-58329330D01*
X229321370Y-58318148D01*
X229327125Y-58301505D01*
X229328824Y-58297531D01*
X229332903Y-58287988D01*
X229341879Y-58248663D01*
X229352475Y-58202235D01*
X229353033Y-58199983D01*
X229354238Y-58195485D01*
X229375007Y-58117977D01*
X229376687Y-58098766D01*
X229378006Y-58090377D01*
X229379308Y-58084672D01*
X229382991Y-58068537D01*
X229386792Y-57983871D01*
X229386958Y-57981363D01*
X229394077Y-57900000D01*
X229392110Y-57877528D01*
X229391937Y-57869334D01*
X229393090Y-57843670D01*
X229382153Y-57762939D01*
X229381834Y-57760067D01*
X229375007Y-57682023D01*
X229368315Y-57657053D01*
X229366763Y-57649322D01*
X229362876Y-57620618D01*
X229362875Y-57620616D01*
X229362875Y-57620613D01*
X229356177Y-57599998D01*
X229763500Y-57599998D01*
X229770653Y-57686339D01*
X229770808Y-57688826D01*
X229774619Y-57778523D01*
X229774620Y-57778534D01*
X229779739Y-57802284D01*
X229780920Y-57810233D01*
X229782665Y-57831303D01*
X229782665Y-57831306D01*
X229804732Y-57918445D01*
X229805237Y-57920602D01*
X229824844Y-58011575D01*
X229824845Y-58011580D01*
X229832683Y-58031084D01*
X229835258Y-58038987D01*
X229839643Y-58056301D01*
X229852088Y-58084672D01*
X229877083Y-58141657D01*
X229877803Y-58143371D01*
X229898745Y-58195485D01*
X229913735Y-58232788D01*
X229923032Y-58247888D01*
X229927018Y-58255495D01*
X229932877Y-58268851D01*
X229985620Y-58349582D01*
X229986511Y-58350985D01*
X230038730Y-58435794D01*
X230045343Y-58443308D01*
X230056063Y-58457402D01*
X230059819Y-58463151D01*
X230059821Y-58463153D01*
X230104776Y-58511988D01*
X230127346Y-58536505D01*
X230128272Y-58537534D01*
X230196236Y-58614755D01*
X230201364Y-58618895D01*
X230214682Y-58631377D01*
X230217016Y-58633913D01*
X230298733Y-58697515D01*
X230381720Y-58764523D01*
X230381722Y-58764524D01*
X230384478Y-58766064D01*
X230400160Y-58776460D01*
X230400167Y-58776465D01*
X230400171Y-58776467D01*
X230400174Y-58776470D01*
X230493962Y-58827225D01*
X230572538Y-58871121D01*
X230589851Y-58880793D01*
X230592649Y-58882058D01*
X230599495Y-58885097D01*
X230599594Y-58884873D01*
X230604291Y-58886933D01*
X230604297Y-58886936D01*
X230708076Y-58922563D01*
X230814629Y-58960211D01*
X230815198Y-58960308D01*
X230819929Y-58961312D01*
X230823802Y-58962292D01*
X230823819Y-58962298D01*
X230914026Y-58977350D01*
X230935191Y-58980882D01*
X230955676Y-58984395D01*
X231049592Y-59000499D01*
X231049600Y-59000500D01*
X231284844Y-59000500D01*
X231284849Y-59000500D01*
X231317873Y-58994988D01*
X231341269Y-58991085D01*
X231346207Y-58990463D01*
X231406341Y-58985346D01*
X231458415Y-58971786D01*
X231463817Y-58970634D01*
X231513781Y-58962298D01*
X231570986Y-58942658D01*
X231575463Y-58941309D01*
X231637049Y-58925275D01*
X231643049Y-58922563D01*
X231652882Y-58918118D01*
X231683097Y-58904459D01*
X231688481Y-58902322D01*
X231733303Y-58886936D01*
X231789354Y-58856601D01*
X231793327Y-58854632D01*
X231801956Y-58850730D01*
X231854286Y-58827077D01*
X231893447Y-58800608D01*
X231898620Y-58797469D01*
X231937426Y-58776470D01*
X231990332Y-58735290D01*
X231993650Y-58732881D01*
X232051803Y-58693579D01*
X232083570Y-58663131D01*
X232088348Y-58659002D01*
X232120584Y-58633913D01*
X232122909Y-58631388D01*
X232138220Y-58614755D01*
X232168189Y-58582198D01*
X232170901Y-58579432D01*
X232223918Y-58528621D01*
X232248129Y-58495883D01*
X232252340Y-58490785D01*
X232277779Y-58463153D01*
X232278148Y-58462589D01*
X232318005Y-58401581D01*
X232320041Y-58398652D01*
X232365679Y-58336947D01*
X232382533Y-58303517D01*
X232385970Y-58297552D01*
X232404724Y-58268849D01*
X232435605Y-58198445D01*
X232436974Y-58195538D01*
X232473007Y-58124074D01*
X232483008Y-58091413D01*
X232485501Y-58084694D01*
X232497957Y-58056300D01*
X232517627Y-57978621D01*
X232518435Y-57975732D01*
X232542816Y-57896123D01*
X232546736Y-57865508D01*
X232548130Y-57858170D01*
X232554934Y-57831305D01*
X232560597Y-57762959D01*
X232561818Y-57748226D01*
X232562108Y-57745469D01*
X232573098Y-57659654D01*
X232571926Y-57632079D01*
X232572081Y-57624355D01*
X232574100Y-57600000D01*
X232574009Y-57598907D01*
X232566947Y-57513680D01*
X232566791Y-57511190D01*
X232565070Y-57470664D01*
X232562980Y-57421468D01*
X232557859Y-57397709D01*
X232556679Y-57389762D01*
X232554934Y-57368695D01*
X232532856Y-57281514D01*
X232532363Y-57279408D01*
X232530843Y-57272357D01*
X232512754Y-57188419D01*
X232504915Y-57168912D01*
X232502341Y-57161015D01*
X232497957Y-57143700D01*
X232460524Y-57058363D01*
X232459807Y-57056658D01*
X232423864Y-56967210D01*
X232414568Y-56952112D01*
X232410579Y-56944500D01*
X232404724Y-56931151D01*
X232351984Y-56850426D01*
X232351094Y-56849023D01*
X232298874Y-56764212D01*
X232298871Y-56764209D01*
X232298869Y-56764205D01*
X232292251Y-56756686D01*
X232281527Y-56742584D01*
X232277780Y-56736848D01*
X232262662Y-56720425D01*
X232210227Y-56663466D01*
X232209358Y-56662501D01*
X232141364Y-56585245D01*
X232136236Y-56581104D01*
X232122917Y-56568621D01*
X232120585Y-56566088D01*
X232120583Y-56566086D01*
X232038861Y-56502480D01*
X231955880Y-56435477D01*
X231955873Y-56435472D01*
X231953111Y-56433929D01*
X231937443Y-56423542D01*
X231937434Y-56423535D01*
X231937428Y-56423532D01*
X231937426Y-56423530D01*
X231843637Y-56372774D01*
X231794570Y-56345363D01*
X231747761Y-56319213D01*
X231745181Y-56318047D01*
X231738084Y-56314898D01*
X231737988Y-56315119D01*
X231733299Y-56313062D01*
X231629555Y-56277447D01*
X231522972Y-56239789D01*
X231522960Y-56239786D01*
X231522412Y-56239692D01*
X231517689Y-56238691D01*
X231513790Y-56237704D01*
X231513783Y-56237702D01*
X231513781Y-56237702D01*
X231463809Y-56229363D01*
X231402300Y-56219098D01*
X231288009Y-56199500D01*
X231288000Y-56199500D01*
X231284849Y-56199500D01*
X231052751Y-56199500D01*
X231052750Y-56199500D01*
X230996333Y-56208913D01*
X230991387Y-56209535D01*
X230988899Y-56209747D01*
X230931269Y-56214652D01*
X230931261Y-56214653D01*
X230879197Y-56228208D01*
X230873781Y-56229363D01*
X230823813Y-56237703D01*
X230766640Y-56257331D01*
X230762130Y-56258690D01*
X230700549Y-56274725D01*
X230700544Y-56274727D01*
X230654511Y-56295535D01*
X230649104Y-56297680D01*
X230604303Y-56313060D01*
X230604298Y-56313063D01*
X230548248Y-56343395D01*
X230544278Y-56345363D01*
X230483314Y-56372922D01*
X230444159Y-56399385D01*
X230438949Y-56402544D01*
X230400179Y-56423526D01*
X230400167Y-56423533D01*
X230347287Y-56464692D01*
X230343924Y-56467133D01*
X230285801Y-56506417D01*
X230285794Y-56506422D01*
X230254048Y-56536847D01*
X230249230Y-56541011D01*
X230217018Y-56566085D01*
X230217009Y-56566093D01*
X230169413Y-56617795D01*
X230166700Y-56620564D01*
X230113682Y-56671378D01*
X230113680Y-56671380D01*
X230089481Y-56704098D01*
X230085248Y-56709223D01*
X230059822Y-56736845D01*
X230019597Y-56798412D01*
X230017541Y-56801367D01*
X229971924Y-56863047D01*
X229971920Y-56863054D01*
X229955068Y-56896475D01*
X229951611Y-56902472D01*
X229932876Y-56931149D01*
X229902019Y-57001496D01*
X229900603Y-57004503D01*
X229864590Y-57075931D01*
X229854592Y-57108573D01*
X229852088Y-57115323D01*
X229839645Y-57143691D01*
X229839645Y-57143692D01*
X229819978Y-57221347D01*
X229819158Y-57224279D01*
X229794784Y-57303876D01*
X229794783Y-57303879D01*
X229790863Y-57334485D01*
X229789468Y-57341830D01*
X229782667Y-57368688D01*
X229782664Y-57368705D01*
X229775783Y-57451758D01*
X229775493Y-57454513D01*
X229764502Y-57540344D01*
X229764501Y-57540344D01*
X229765672Y-57567900D01*
X229765516Y-57575655D01*
X229763500Y-57599998D01*
X229356177Y-57599998D01*
X229345747Y-57567900D01*
X229338721Y-57546276D01*
X229337798Y-57543161D01*
X229318376Y-57470673D01*
X229306066Y-57444274D01*
X229303288Y-57437222D01*
X229293319Y-57406541D01*
X229293317Y-57406537D01*
X229293317Y-57406536D01*
X229280788Y-57383253D01*
X229257827Y-57340583D01*
X229256232Y-57337405D01*
X229241136Y-57305032D01*
X229225902Y-57272362D01*
X229207312Y-57245813D01*
X229203498Y-57239625D01*
X229193662Y-57221347D01*
X229186652Y-57208319D01*
X229141992Y-57152318D01*
X229139696Y-57149247D01*
X229100398Y-57093123D01*
X229075153Y-57067878D01*
X229070515Y-57062689D01*
X229046306Y-57032332D01*
X228994839Y-56987366D01*
X228991790Y-56984515D01*
X228945678Y-56938402D01*
X228913740Y-56916039D01*
X228908505Y-56911939D01*
X228894342Y-56899565D01*
X228876796Y-56884235D01*
X228876794Y-56884233D01*
X228876792Y-56884232D01*
X228820949Y-56850868D01*
X228817186Y-56848431D01*
X228766441Y-56812899D01*
X228741711Y-56801367D01*
X228728132Y-56795034D01*
X228722535Y-56792067D01*
X228683569Y-56768787D01*
X228683567Y-56768786D01*
X228625728Y-56747079D01*
X228621315Y-56745226D01*
X228568130Y-56720425D01*
X228524121Y-56708632D01*
X228518381Y-56706790D01*
X228472825Y-56689692D01*
X228415256Y-56679245D01*
X228410280Y-56678128D01*
X228356777Y-56663793D01*
X228308127Y-56659536D01*
X228302459Y-56658775D01*
X228251351Y-56649500D01*
X228251347Y-56649500D01*
X228196109Y-56649500D01*
X228190707Y-56649264D01*
X228162251Y-56646774D01*
X228138802Y-56644723D01*
X228138797Y-56644723D01*
X228087151Y-56649241D01*
X228084546Y-56649414D01*
X228082649Y-56649499D01*
X228028564Y-56654366D01*
X227920820Y-56663793D01*
X227920268Y-56663891D01*
X227915075Y-56664581D01*
X227914612Y-56664622D01*
X227914609Y-56664623D01*
X227826506Y-56688938D01*
X227810856Y-56693257D01*
X227709466Y-56720425D01*
X227702539Y-56722946D01*
X227697850Y-56724444D01*
X227697649Y-56724499D01*
X227697636Y-56724504D01*
X227603351Y-56769907D01*
X227511159Y-56812899D01*
X227506470Y-56815606D01*
X227506398Y-56815481D01*
X227495671Y-56821764D01*
X227494831Y-56822168D01*
X227412588Y-56881919D01*
X227331921Y-56938403D01*
X227331041Y-56939284D01*
X227316261Y-56951906D01*
X227312728Y-56954472D01*
X227312721Y-56954478D01*
X227245166Y-57025134D01*
X227244195Y-57026128D01*
X227177202Y-57093121D01*
X227174511Y-57096965D01*
X227162573Y-57111521D01*
X227157168Y-57117174D01*
X227134960Y-57150818D01*
X227105081Y-57196080D01*
X227104153Y-57197447D01*
X227051701Y-57272357D01*
X227051691Y-57272374D01*
X227048257Y-57279738D01*
X227039372Y-57295628D01*
X227033163Y-57305034D01*
X226997298Y-57388944D01*
X226996479Y-57390778D01*
X226959226Y-57470664D01*
X226959224Y-57470671D01*
X226956225Y-57481860D01*
X226950481Y-57498475D01*
X226944699Y-57512005D01*
X226944696Y-57512014D01*
X226925118Y-57597789D01*
X226924560Y-57600038D01*
X226902593Y-57682022D01*
X226902593Y-57682023D01*
X226900912Y-57701226D01*
X226899593Y-57709625D01*
X226894609Y-57731459D01*
X226894609Y-57731464D01*
X226890807Y-57816088D01*
X226890634Y-57818708D01*
X226883523Y-57899995D01*
X226883523Y-57900003D01*
X184614397Y-57900003D01*
X184624459Y-57785000D01*
X184603863Y-57549592D01*
X184542703Y-57321337D01*
X184442835Y-57107171D01*
X184441104Y-57104698D01*
X184307294Y-56913597D01*
X184140202Y-56746506D01*
X184140195Y-56746501D01*
X183946634Y-56610967D01*
X183946630Y-56610965D01*
X183946628Y-56610964D01*
X183732463Y-56511097D01*
X183732459Y-56511096D01*
X183732455Y-56511094D01*
X183504213Y-56449938D01*
X183504203Y-56449936D01*
X183268801Y-56429341D01*
X183268799Y-56429341D01*
X183033396Y-56449936D01*
X183033386Y-56449938D01*
X182805144Y-56511094D01*
X182805135Y-56511098D01*
X182590971Y-56610964D01*
X182590969Y-56610965D01*
X182397397Y-56746505D01*
X182230305Y-56913597D01*
X182094765Y-57107169D01*
X182094764Y-57107171D01*
X181994898Y-57321335D01*
X181994894Y-57321344D01*
X181933738Y-57549586D01*
X181933736Y-57549596D01*
X181913141Y-57784999D01*
X181913141Y-57785000D01*
X181933736Y-58020403D01*
X181933738Y-58020413D01*
X181994894Y-58248655D01*
X181994896Y-58248659D01*
X181994897Y-58248663D01*
X182062419Y-58393464D01*
X182094765Y-58462830D01*
X182094767Y-58462834D01*
X182184992Y-58591687D01*
X182230301Y-58656396D01*
X182230306Y-58656402D01*
X182352230Y-58778326D01*
X182385715Y-58839649D01*
X182380731Y-58909341D01*
X182338859Y-58965274D01*
X182307883Y-58982189D01*
X182176469Y-59031203D01*
X182176464Y-59031206D01*
X182061255Y-59117452D01*
X182061252Y-59117455D01*
X181975006Y-59232664D01*
X181975002Y-59232671D01*
X181924708Y-59367517D01*
X181918301Y-59427116D01*
X181918301Y-59427123D01*
X181918300Y-59427135D01*
X181918300Y-61222870D01*
X181918301Y-61222876D01*
X181924708Y-61282483D01*
X181975002Y-61417328D01*
X181975006Y-61417335D01*
X182061252Y-61532544D01*
X182061255Y-61532547D01*
X182176464Y-61618793D01*
X182176471Y-61618797D01*
X182307881Y-61667810D01*
X182363815Y-61709681D01*
X182388232Y-61775145D01*
X182373380Y-61843418D01*
X182352230Y-61871673D01*
X182230303Y-61993600D01*
X182094765Y-62187169D01*
X182094764Y-62187171D01*
X181994898Y-62401335D01*
X181994894Y-62401344D01*
X181933738Y-62629586D01*
X181933736Y-62629596D01*
X181913141Y-62864999D01*
X181913141Y-62865000D01*
X179387500Y-62865000D01*
X179387500Y-53365400D01*
X179407185Y-53298361D01*
X179459989Y-53252606D01*
X179511500Y-53241400D01*
X193666533Y-53241400D01*
X193682181Y-53243127D01*
X193682208Y-53242846D01*
X193689975Y-53243580D01*
X193689976Y-53243579D01*
X193689977Y-53243580D01*
X193696604Y-53243371D01*
X193758392Y-53241431D01*
X193760339Y-53241400D01*
X193788973Y-53241400D01*
X193788976Y-53241400D01*
X193795878Y-53240527D01*
X193801690Y-53240069D01*
X193848443Y-53238601D01*
X193867772Y-53232984D01*
X193886828Y-53229037D01*
X193906793Y-53226516D01*
X193950270Y-53209301D01*
X193955776Y-53207416D01*
X194000691Y-53194368D01*
X194018015Y-53184121D01*
X194035483Y-53175563D01*
X194054203Y-53168153D01*
X194092042Y-53140659D01*
X194096891Y-53137474D01*
X194137156Y-53113663D01*
X194151397Y-53099420D01*
X194166178Y-53086797D01*
X194182467Y-53074963D01*
X194182469Y-53074959D01*
X194182471Y-53074959D01*
X194194345Y-53060603D01*
X194212276Y-53038928D01*
X194216189Y-53034628D01*
X194740848Y-52509969D01*
X194802169Y-52476486D01*
X194871861Y-52481470D01*
X194899644Y-52496073D01*
X195060970Y-52609035D01*
X195275137Y-52708903D01*
X195503392Y-52770063D01*
X195679834Y-52785500D01*
X195738799Y-52790659D01*
X195738800Y-52790659D01*
X195738801Y-52790659D01*
X195797766Y-52785500D01*
X195974208Y-52770063D01*
X196202463Y-52708903D01*
X196416630Y-52609035D01*
X196610201Y-52473495D01*
X196777295Y-52306401D01*
X196907226Y-52120840D01*
X196961801Y-52077217D01*
X197031299Y-52070023D01*
X197093654Y-52101546D01*
X197110374Y-52120841D01*
X197240305Y-52306401D01*
X197407399Y-52473495D01*
X197504184Y-52541265D01*
X197600965Y-52609032D01*
X197600967Y-52609033D01*
X197600970Y-52609035D01*
X197815137Y-52708903D01*
X198043392Y-52770063D01*
X198219834Y-52785500D01*
X198278799Y-52790659D01*
X198278800Y-52790659D01*
X198278801Y-52790659D01*
X198337766Y-52785500D01*
X198514208Y-52770063D01*
X198742463Y-52708903D01*
X198956630Y-52609035D01*
X199150201Y-52473495D01*
X199272517Y-52351178D01*
X199333836Y-52317696D01*
X199403528Y-52322680D01*
X199459462Y-52364551D01*
X199476377Y-52395528D01*
X199525446Y-52527088D01*
X199525449Y-52527093D01*
X199611609Y-52642187D01*
X199611612Y-52642190D01*
X199726706Y-52728350D01*
X199726713Y-52728354D01*
X199861420Y-52778596D01*
X199861427Y-52778598D01*
X199920955Y-52784999D01*
X199920972Y-52785000D01*
X200568800Y-52785000D01*
X200568800Y-51881494D01*
X200673639Y-51929373D01*
X200782327Y-51945000D01*
X200855273Y-51945000D01*
X200963961Y-51929373D01*
X201068800Y-51881494D01*
X201068800Y-52785000D01*
X201716628Y-52785000D01*
X201716644Y-52784999D01*
X201776172Y-52778598D01*
X201776179Y-52778596D01*
X201910886Y-52728354D01*
X201910893Y-52728350D01*
X202025987Y-52642190D01*
X202025990Y-52642187D01*
X202112150Y-52527093D01*
X202112154Y-52527086D01*
X202161222Y-52395529D01*
X202203093Y-52339595D01*
X202268557Y-52315178D01*
X202336830Y-52330030D01*
X202365085Y-52351181D01*
X202487399Y-52473495D01*
X202584184Y-52541264D01*
X202680965Y-52609032D01*
X202680967Y-52609033D01*
X202680970Y-52609035D01*
X202895137Y-52708903D01*
X203123392Y-52770063D01*
X203299834Y-52785500D01*
X203358799Y-52790659D01*
X203358800Y-52790659D01*
X203358801Y-52790659D01*
X203417766Y-52785500D01*
X203594208Y-52770063D01*
X203822463Y-52708903D01*
X204036630Y-52609035D01*
X204230201Y-52473495D01*
X204397295Y-52306401D01*
X204527226Y-52120841D01*
X204581802Y-52077217D01*
X204651300Y-52070023D01*
X204713655Y-52101546D01*
X204730375Y-52120842D01*
X204860300Y-52306395D01*
X204860305Y-52306401D01*
X205027399Y-52473495D01*
X205124184Y-52541264D01*
X205220965Y-52609032D01*
X205220967Y-52609033D01*
X205220970Y-52609035D01*
X205435137Y-52708903D01*
X205663392Y-52770063D01*
X205839834Y-52785500D01*
X205898799Y-52790659D01*
X205898800Y-52790659D01*
X205898801Y-52790659D01*
X205957766Y-52785500D01*
X206134208Y-52770063D01*
X206362463Y-52708903D01*
X206576630Y-52609035D01*
X206770201Y-52473495D01*
X206937295Y-52306401D01*
X207067226Y-52120841D01*
X207121802Y-52077217D01*
X207191300Y-52070023D01*
X207253655Y-52101546D01*
X207270375Y-52120842D01*
X207400300Y-52306395D01*
X207400305Y-52306401D01*
X207567399Y-52473495D01*
X207664184Y-52541264D01*
X207760965Y-52609032D01*
X207760967Y-52609033D01*
X207760970Y-52609035D01*
X207975137Y-52708903D01*
X208203392Y-52770063D01*
X208379834Y-52785500D01*
X208438799Y-52790659D01*
X208438800Y-52790659D01*
X208438801Y-52790659D01*
X208497766Y-52785500D01*
X208674208Y-52770063D01*
X208902463Y-52708903D01*
X209116630Y-52609035D01*
X209310201Y-52473495D01*
X209477295Y-52306401D01*
X209607226Y-52120841D01*
X209661802Y-52077217D01*
X209731300Y-52070023D01*
X209793655Y-52101546D01*
X209810375Y-52120842D01*
X209940300Y-52306395D01*
X209940305Y-52306401D01*
X210107399Y-52473495D01*
X210204184Y-52541264D01*
X210300965Y-52609032D01*
X210300967Y-52609033D01*
X210300970Y-52609035D01*
X210515137Y-52708903D01*
X210743392Y-52770063D01*
X210919834Y-52785500D01*
X210978799Y-52790659D01*
X210978800Y-52790659D01*
X210978801Y-52790659D01*
X211037766Y-52785500D01*
X211214208Y-52770063D01*
X211442463Y-52708903D01*
X211656630Y-52609035D01*
X211850201Y-52473495D01*
X211972129Y-52351566D01*
X212033448Y-52318084D01*
X212103140Y-52323068D01*
X212159074Y-52364939D01*
X212175989Y-52395917D01*
X212225002Y-52527328D01*
X212225006Y-52527335D01*
X212311252Y-52642544D01*
X212311255Y-52642547D01*
X212426464Y-52728793D01*
X212426471Y-52728797D01*
X212561317Y-52779091D01*
X212561316Y-52779091D01*
X212568244Y-52779835D01*
X212620927Y-52785500D01*
X214416672Y-52785499D01*
X214476283Y-52779091D01*
X214611131Y-52728796D01*
X214726346Y-52642546D01*
X214812596Y-52527331D01*
X214861610Y-52395916D01*
X214903481Y-52339984D01*
X214968945Y-52315566D01*
X215037218Y-52330417D01*
X215065473Y-52351569D01*
X215187399Y-52473495D01*
X215284184Y-52541264D01*
X215380965Y-52609032D01*
X215380967Y-52609033D01*
X215380970Y-52609035D01*
X215595137Y-52708903D01*
X215823392Y-52770063D01*
X215999834Y-52785500D01*
X216058799Y-52790659D01*
X216058800Y-52790659D01*
X216058801Y-52790659D01*
X216117766Y-52785500D01*
X216294208Y-52770063D01*
X216522463Y-52708903D01*
X216736630Y-52609035D01*
X216930201Y-52473495D01*
X217097295Y-52306401D01*
X217227226Y-52120841D01*
X217281802Y-52077217D01*
X217351300Y-52070023D01*
X217413655Y-52101546D01*
X217430375Y-52120842D01*
X217560300Y-52306395D01*
X217560305Y-52306401D01*
X217727399Y-52473495D01*
X217824184Y-52541264D01*
X217920965Y-52609032D01*
X217920967Y-52609033D01*
X217920970Y-52609035D01*
X218135137Y-52708903D01*
X218363392Y-52770063D01*
X218539834Y-52785500D01*
X218598799Y-52790659D01*
X218598800Y-52790659D01*
X218598801Y-52790659D01*
X218657766Y-52785500D01*
X218834208Y-52770063D01*
X219062463Y-52708903D01*
X219276630Y-52609035D01*
X219470201Y-52473495D01*
X219637295Y-52306401D01*
X219767226Y-52120841D01*
X219821802Y-52077217D01*
X219891300Y-52070023D01*
X219953655Y-52101546D01*
X219970375Y-52120842D01*
X220100300Y-52306395D01*
X220100305Y-52306401D01*
X220267399Y-52473495D01*
X220364184Y-52541264D01*
X220460965Y-52609032D01*
X220460967Y-52609033D01*
X220460970Y-52609035D01*
X220675137Y-52708903D01*
X220903392Y-52770063D01*
X221079834Y-52785500D01*
X221138799Y-52790659D01*
X221138800Y-52790659D01*
X221138801Y-52790659D01*
X221197766Y-52785500D01*
X221374208Y-52770063D01*
X221602463Y-52708903D01*
X221816630Y-52609035D01*
X222010201Y-52473495D01*
X222177295Y-52306401D01*
X222307226Y-52120840D01*
X222361801Y-52077217D01*
X222431299Y-52070023D01*
X222493654Y-52101546D01*
X222510374Y-52120841D01*
X222640305Y-52306401D01*
X222807399Y-52473495D01*
X222904184Y-52541264D01*
X223000965Y-52609032D01*
X223000967Y-52609033D01*
X223000970Y-52609035D01*
X223215137Y-52708903D01*
X223443392Y-52770063D01*
X223619834Y-52785500D01*
X223678799Y-52790659D01*
X223678800Y-52790659D01*
X223678801Y-52790659D01*
X223737766Y-52785500D01*
X223914208Y-52770063D01*
X224142463Y-52708903D01*
X224356630Y-52609035D01*
X224550201Y-52473495D01*
X224672517Y-52351178D01*
X224733836Y-52317696D01*
X224803528Y-52322680D01*
X224859462Y-52364551D01*
X224876377Y-52395528D01*
X224925446Y-52527088D01*
X224925449Y-52527093D01*
X225011609Y-52642187D01*
X225011612Y-52642190D01*
X225126706Y-52728350D01*
X225126713Y-52728354D01*
X225261420Y-52778596D01*
X225261427Y-52778598D01*
X225320955Y-52784999D01*
X225320972Y-52785000D01*
X225968800Y-52785000D01*
X225968800Y-51881494D01*
X226073639Y-51929373D01*
X226182327Y-51945000D01*
X226255273Y-51945000D01*
X226363961Y-51929373D01*
X226468800Y-51881494D01*
X226468800Y-52785000D01*
X227116628Y-52785000D01*
X227116644Y-52784999D01*
X227176172Y-52778598D01*
X227176179Y-52778596D01*
X227310886Y-52728354D01*
X227310893Y-52728350D01*
X227425987Y-52642190D01*
X227425990Y-52642187D01*
X227512150Y-52527093D01*
X227512154Y-52527086D01*
X227561222Y-52395529D01*
X227603093Y-52339595D01*
X227668557Y-52315178D01*
X227736830Y-52330030D01*
X227765085Y-52351181D01*
X227887399Y-52473495D01*
X227984184Y-52541264D01*
X228080965Y-52609032D01*
X228080967Y-52609033D01*
X228080970Y-52609035D01*
X228295137Y-52708903D01*
X228523392Y-52770063D01*
X228699834Y-52785500D01*
X228758799Y-52790659D01*
X228758800Y-52790659D01*
X228758801Y-52790659D01*
X228817766Y-52785500D01*
X228994208Y-52770063D01*
X229222463Y-52708903D01*
X229436630Y-52609035D01*
X229630201Y-52473495D01*
X229797295Y-52306401D01*
X229927226Y-52120841D01*
X229981802Y-52077217D01*
X230051300Y-52070023D01*
X230113655Y-52101546D01*
X230130375Y-52120842D01*
X230260300Y-52306395D01*
X230260305Y-52306401D01*
X230427399Y-52473495D01*
X230524184Y-52541264D01*
X230620965Y-52609032D01*
X230620967Y-52609033D01*
X230620970Y-52609035D01*
X230835137Y-52708903D01*
X231063392Y-52770063D01*
X231239834Y-52785500D01*
X231298799Y-52790659D01*
X231298800Y-52790659D01*
X231298801Y-52790659D01*
X231357766Y-52785500D01*
X231534208Y-52770063D01*
X231762463Y-52708903D01*
X231976630Y-52609035D01*
X232170201Y-52473495D01*
X232337295Y-52306401D01*
X232472835Y-52112830D01*
X232572703Y-51898663D01*
X232633863Y-51670408D01*
X232654459Y-51435000D01*
X232633863Y-51199592D01*
X232572703Y-50971337D01*
X232472835Y-50757171D01*
X232467225Y-50749158D01*
X232337294Y-50563597D01*
X232170202Y-50396506D01*
X232170195Y-50396501D01*
X231976634Y-50260967D01*
X231976630Y-50260965D01*
X231905527Y-50227809D01*
X231762463Y-50161097D01*
X231762459Y-50161096D01*
X231762455Y-50161094D01*
X231534213Y-50099938D01*
X231534203Y-50099936D01*
X231298801Y-50079341D01*
X231298799Y-50079341D01*
X231063396Y-50099936D01*
X231063386Y-50099938D01*
X230835144Y-50161094D01*
X230835135Y-50161098D01*
X230620971Y-50260964D01*
X230620969Y-50260965D01*
X230427397Y-50396505D01*
X230260305Y-50563597D01*
X230130375Y-50749158D01*
X230075798Y-50792783D01*
X230006300Y-50799977D01*
X229943945Y-50768454D01*
X229927225Y-50749158D01*
X229797294Y-50563597D01*
X229630202Y-50396506D01*
X229630195Y-50396501D01*
X229436634Y-50260967D01*
X229436630Y-50260965D01*
X229365527Y-50227809D01*
X229222463Y-50161097D01*
X229222459Y-50161096D01*
X229222455Y-50161094D01*
X228994213Y-50099938D01*
X228994203Y-50099936D01*
X228758801Y-50079341D01*
X228758799Y-50079341D01*
X228523396Y-50099936D01*
X228523386Y-50099938D01*
X228295144Y-50161094D01*
X228295135Y-50161098D01*
X228080971Y-50260964D01*
X228080969Y-50260965D01*
X227887400Y-50396503D01*
X227765084Y-50518819D01*
X227703761Y-50552303D01*
X227634069Y-50547319D01*
X227578136Y-50505447D01*
X227561221Y-50474470D01*
X227512154Y-50342913D01*
X227512150Y-50342906D01*
X227425990Y-50227812D01*
X227425987Y-50227809D01*
X227310893Y-50141649D01*
X227310886Y-50141645D01*
X227176179Y-50091403D01*
X227176172Y-50091401D01*
X227116644Y-50085000D01*
X226468800Y-50085000D01*
X226468800Y-50988505D01*
X226363961Y-50940627D01*
X226255273Y-50925000D01*
X226182327Y-50925000D01*
X226073639Y-50940627D01*
X225968800Y-50988505D01*
X225968800Y-50085000D01*
X225320955Y-50085000D01*
X225261427Y-50091401D01*
X225261420Y-50091403D01*
X225126713Y-50141645D01*
X225126706Y-50141649D01*
X225011612Y-50227809D01*
X225011609Y-50227812D01*
X224925449Y-50342906D01*
X224925445Y-50342913D01*
X224876378Y-50474470D01*
X224834507Y-50530404D01*
X224769042Y-50554821D01*
X224700769Y-50539969D01*
X224672515Y-50518819D01*
X224627777Y-50474081D01*
X224550201Y-50396505D01*
X224550197Y-50396502D01*
X224550196Y-50396501D01*
X224356634Y-50260967D01*
X224356630Y-50260965D01*
X224285527Y-50227809D01*
X224142463Y-50161097D01*
X224142459Y-50161096D01*
X224142455Y-50161094D01*
X223914213Y-50099938D01*
X223914203Y-50099936D01*
X223678801Y-50079341D01*
X223678799Y-50079341D01*
X223443396Y-50099936D01*
X223443386Y-50099938D01*
X223215144Y-50161094D01*
X223215135Y-50161098D01*
X223000971Y-50260964D01*
X223000969Y-50260965D01*
X222807397Y-50396505D01*
X222640305Y-50563597D01*
X222510375Y-50749158D01*
X222455798Y-50792783D01*
X222386300Y-50799977D01*
X222323945Y-50768454D01*
X222307225Y-50749158D01*
X222177294Y-50563597D01*
X222010202Y-50396506D01*
X222010195Y-50396501D01*
X221816634Y-50260967D01*
X221816630Y-50260965D01*
X221745527Y-50227809D01*
X221602463Y-50161097D01*
X221602459Y-50161096D01*
X221602455Y-50161094D01*
X221374213Y-50099938D01*
X221374203Y-50099936D01*
X221138801Y-50079341D01*
X221138799Y-50079341D01*
X220903396Y-50099936D01*
X220903386Y-50099938D01*
X220675144Y-50161094D01*
X220675135Y-50161098D01*
X220460971Y-50260964D01*
X220460969Y-50260965D01*
X220267397Y-50396505D01*
X220100305Y-50563597D01*
X219970375Y-50749158D01*
X219915798Y-50792783D01*
X219846300Y-50799977D01*
X219783945Y-50768454D01*
X219767225Y-50749158D01*
X219637294Y-50563597D01*
X219470202Y-50396506D01*
X219470195Y-50396501D01*
X219276634Y-50260967D01*
X219276630Y-50260965D01*
X219205527Y-50227809D01*
X219062463Y-50161097D01*
X219062459Y-50161096D01*
X219062455Y-50161094D01*
X218834213Y-50099938D01*
X218834203Y-50099936D01*
X218598801Y-50079341D01*
X218598799Y-50079341D01*
X218363396Y-50099936D01*
X218363386Y-50099938D01*
X218135144Y-50161094D01*
X218135135Y-50161098D01*
X217920971Y-50260964D01*
X217920969Y-50260965D01*
X217727397Y-50396505D01*
X217560305Y-50563597D01*
X217430375Y-50749158D01*
X217375798Y-50792783D01*
X217306300Y-50799977D01*
X217243945Y-50768454D01*
X217227225Y-50749158D01*
X217097294Y-50563597D01*
X216930202Y-50396506D01*
X216930195Y-50396501D01*
X216736634Y-50260967D01*
X216736630Y-50260965D01*
X216665527Y-50227809D01*
X216522463Y-50161097D01*
X216522459Y-50161096D01*
X216522455Y-50161094D01*
X216294213Y-50099938D01*
X216294203Y-50099936D01*
X216058801Y-50079341D01*
X216058799Y-50079341D01*
X215823396Y-50099936D01*
X215823386Y-50099938D01*
X215595144Y-50161094D01*
X215595135Y-50161098D01*
X215380971Y-50260964D01*
X215380969Y-50260965D01*
X215187400Y-50396503D01*
X215065473Y-50518430D01*
X215004150Y-50551914D01*
X214934458Y-50546930D01*
X214878525Y-50505058D01*
X214861610Y-50474081D01*
X214812597Y-50342671D01*
X214812593Y-50342664D01*
X214726347Y-50227455D01*
X214726344Y-50227452D01*
X214611135Y-50141206D01*
X214611128Y-50141202D01*
X214476282Y-50090908D01*
X214476283Y-50090908D01*
X214416683Y-50084501D01*
X214416681Y-50084500D01*
X214416673Y-50084500D01*
X214416664Y-50084500D01*
X212620929Y-50084500D01*
X212620923Y-50084501D01*
X212561316Y-50090908D01*
X212426471Y-50141202D01*
X212426464Y-50141206D01*
X212311255Y-50227452D01*
X212311252Y-50227455D01*
X212225006Y-50342664D01*
X212225003Y-50342669D01*
X212175989Y-50474083D01*
X212134117Y-50530016D01*
X212068653Y-50554433D01*
X212000380Y-50539581D01*
X211972126Y-50518430D01*
X211850202Y-50396506D01*
X211850195Y-50396501D01*
X211656634Y-50260967D01*
X211656630Y-50260965D01*
X211585527Y-50227809D01*
X211442463Y-50161097D01*
X211442459Y-50161096D01*
X211442455Y-50161094D01*
X211214213Y-50099938D01*
X211214203Y-50099936D01*
X210978801Y-50079341D01*
X210978799Y-50079341D01*
X210743396Y-50099936D01*
X210743386Y-50099938D01*
X210515144Y-50161094D01*
X210515135Y-50161098D01*
X210300971Y-50260964D01*
X210300969Y-50260965D01*
X210107397Y-50396505D01*
X209940308Y-50563594D01*
X209810374Y-50749159D01*
X209755797Y-50792784D01*
X209686298Y-50799976D01*
X209623944Y-50768454D01*
X209607224Y-50749158D01*
X209477294Y-50563597D01*
X209310202Y-50396506D01*
X209310195Y-50396501D01*
X209116634Y-50260967D01*
X209116630Y-50260965D01*
X209045527Y-50227809D01*
X208902463Y-50161097D01*
X208902459Y-50161096D01*
X208902455Y-50161094D01*
X208674213Y-50099938D01*
X208674203Y-50099936D01*
X208438801Y-50079341D01*
X208438799Y-50079341D01*
X208203396Y-50099936D01*
X208203386Y-50099938D01*
X207975144Y-50161094D01*
X207975135Y-50161098D01*
X207760971Y-50260964D01*
X207760969Y-50260965D01*
X207567397Y-50396505D01*
X207400305Y-50563597D01*
X207270375Y-50749158D01*
X207215798Y-50792783D01*
X207146300Y-50799977D01*
X207083945Y-50768454D01*
X207067225Y-50749158D01*
X206937294Y-50563597D01*
X206770202Y-50396506D01*
X206770195Y-50396501D01*
X206576634Y-50260967D01*
X206576630Y-50260965D01*
X206505527Y-50227809D01*
X206362463Y-50161097D01*
X206362459Y-50161096D01*
X206362455Y-50161094D01*
X206134213Y-50099938D01*
X206134203Y-50099936D01*
X205898801Y-50079341D01*
X205898799Y-50079341D01*
X205663396Y-50099936D01*
X205663386Y-50099938D01*
X205435144Y-50161094D01*
X205435135Y-50161098D01*
X205220971Y-50260964D01*
X205220969Y-50260965D01*
X205027397Y-50396505D01*
X204860305Y-50563597D01*
X204730375Y-50749158D01*
X204675798Y-50792783D01*
X204606300Y-50799977D01*
X204543945Y-50768454D01*
X204527225Y-50749158D01*
X204397294Y-50563597D01*
X204230202Y-50396506D01*
X204230195Y-50396501D01*
X204036634Y-50260967D01*
X204036630Y-50260965D01*
X203965527Y-50227809D01*
X203822463Y-50161097D01*
X203822459Y-50161096D01*
X203822455Y-50161094D01*
X203594213Y-50099938D01*
X203594203Y-50099936D01*
X203358801Y-50079341D01*
X203358799Y-50079341D01*
X203123396Y-50099936D01*
X203123386Y-50099938D01*
X202895144Y-50161094D01*
X202895135Y-50161098D01*
X202680971Y-50260964D01*
X202680969Y-50260965D01*
X202487400Y-50396503D01*
X202365084Y-50518819D01*
X202303761Y-50552303D01*
X202234069Y-50547319D01*
X202178136Y-50505447D01*
X202161221Y-50474470D01*
X202112154Y-50342913D01*
X202112150Y-50342906D01*
X202025990Y-50227812D01*
X202025987Y-50227809D01*
X201910893Y-50141649D01*
X201910886Y-50141645D01*
X201776179Y-50091403D01*
X201776172Y-50091401D01*
X201716644Y-50085000D01*
X201068800Y-50085000D01*
X201068800Y-50988505D01*
X200963961Y-50940627D01*
X200855273Y-50925000D01*
X200782327Y-50925000D01*
X200673639Y-50940627D01*
X200568800Y-50988505D01*
X200568800Y-50085000D01*
X199920955Y-50085000D01*
X199861427Y-50091401D01*
X199861420Y-50091403D01*
X199726713Y-50141645D01*
X199726706Y-50141649D01*
X199611612Y-50227809D01*
X199611609Y-50227812D01*
X199525449Y-50342906D01*
X199525445Y-50342913D01*
X199476378Y-50474470D01*
X199434507Y-50530404D01*
X199369042Y-50554821D01*
X199300769Y-50539969D01*
X199272515Y-50518819D01*
X199227777Y-50474081D01*
X199150201Y-50396505D01*
X199150197Y-50396502D01*
X199150196Y-50396501D01*
X198956634Y-50260967D01*
X198956630Y-50260965D01*
X198885527Y-50227809D01*
X198742463Y-50161097D01*
X198742459Y-50161096D01*
X198742455Y-50161094D01*
X198514213Y-50099938D01*
X198514203Y-50099936D01*
X198278801Y-50079341D01*
X198278799Y-50079341D01*
X198043396Y-50099936D01*
X198043386Y-50099938D01*
X197815144Y-50161094D01*
X197815135Y-50161098D01*
X197600971Y-50260964D01*
X197600969Y-50260965D01*
X197407397Y-50396505D01*
X197240305Y-50563597D01*
X197110375Y-50749158D01*
X197055798Y-50792783D01*
X196986300Y-50799977D01*
X196923945Y-50768454D01*
X196907225Y-50749158D01*
X196777294Y-50563597D01*
X196610202Y-50396506D01*
X196610195Y-50396501D01*
X196416634Y-50260967D01*
X196416630Y-50260965D01*
X196345527Y-50227809D01*
X196202463Y-50161097D01*
X196202459Y-50161096D01*
X196202455Y-50161094D01*
X195974213Y-50099938D01*
X195974203Y-50099936D01*
X195738801Y-50079341D01*
X195738799Y-50079341D01*
X195503396Y-50099936D01*
X195503386Y-50099938D01*
X195275144Y-50161094D01*
X195275135Y-50161098D01*
X195060971Y-50260964D01*
X195060969Y-50260965D01*
X194867397Y-50396505D01*
X194700305Y-50563597D01*
X194570375Y-50749158D01*
X194515798Y-50792783D01*
X194446300Y-50799977D01*
X194383945Y-50768454D01*
X194367225Y-50749158D01*
X194237294Y-50563597D01*
X194070202Y-50396506D01*
X194070195Y-50396501D01*
X193876634Y-50260967D01*
X193876630Y-50260965D01*
X193805527Y-50227809D01*
X193662463Y-50161097D01*
X193662459Y-50161096D01*
X193662455Y-50161094D01*
X193434213Y-50099938D01*
X193434203Y-50099936D01*
X193198801Y-50079341D01*
X193198799Y-50079341D01*
X192963396Y-50099936D01*
X192963386Y-50099938D01*
X192735144Y-50161094D01*
X192735135Y-50161098D01*
X192520971Y-50260964D01*
X192520969Y-50260965D01*
X192327397Y-50396505D01*
X192160305Y-50563597D01*
X192030375Y-50749158D01*
X191975798Y-50792783D01*
X191906300Y-50799977D01*
X191843945Y-50768454D01*
X191827225Y-50749158D01*
X191697294Y-50563597D01*
X191530202Y-50396506D01*
X191530195Y-50396501D01*
X191336634Y-50260967D01*
X191336630Y-50260965D01*
X191265527Y-50227809D01*
X191122463Y-50161097D01*
X191122459Y-50161096D01*
X191122455Y-50161094D01*
X190894213Y-50099938D01*
X190894203Y-50099936D01*
X190658801Y-50079341D01*
X190658799Y-50079341D01*
X190423396Y-50099936D01*
X190423386Y-50099938D01*
X190195144Y-50161094D01*
X190195135Y-50161098D01*
X189980971Y-50260964D01*
X189980969Y-50260965D01*
X189787400Y-50396503D01*
X189665084Y-50518819D01*
X189603761Y-50552303D01*
X189534069Y-50547319D01*
X189478136Y-50505447D01*
X189461221Y-50474470D01*
X189412154Y-50342913D01*
X189412150Y-50342906D01*
X189325990Y-50227812D01*
X189325987Y-50227809D01*
X189210893Y-50141649D01*
X189210886Y-50141645D01*
X189076179Y-50091403D01*
X189076172Y-50091401D01*
X189016644Y-50085000D01*
X188368800Y-50085000D01*
X188368800Y-50988505D01*
X188263961Y-50940627D01*
X188155273Y-50925000D01*
X188082327Y-50925000D01*
X187973639Y-50940627D01*
X187868799Y-50988505D01*
X187868800Y-50085000D01*
X187220955Y-50085000D01*
X187161427Y-50091401D01*
X187161420Y-50091403D01*
X187026713Y-50141645D01*
X187026706Y-50141649D01*
X186911612Y-50227809D01*
X186911609Y-50227812D01*
X186825449Y-50342906D01*
X186825445Y-50342913D01*
X186776378Y-50474470D01*
X186734507Y-50530404D01*
X186669042Y-50554821D01*
X186600769Y-50539969D01*
X186572515Y-50518819D01*
X186527777Y-50474081D01*
X186450201Y-50396505D01*
X186450197Y-50396502D01*
X186450196Y-50396501D01*
X186256634Y-50260967D01*
X186256630Y-50260965D01*
X186185527Y-50227809D01*
X186042463Y-50161097D01*
X186042459Y-50161096D01*
X186042455Y-50161094D01*
X185814213Y-50099938D01*
X185814203Y-50099936D01*
X185578801Y-50079341D01*
X185578799Y-50079341D01*
X185343396Y-50099936D01*
X185343386Y-50099938D01*
X185115144Y-50161094D01*
X185115135Y-50161098D01*
X184900971Y-50260964D01*
X184900969Y-50260965D01*
X184707397Y-50396505D01*
X184540305Y-50563597D01*
X184410375Y-50749158D01*
X184355798Y-50792783D01*
X184286300Y-50799977D01*
X184223945Y-50768454D01*
X184207225Y-50749158D01*
X184077294Y-50563597D01*
X183910202Y-50396506D01*
X183910195Y-50396501D01*
X183716634Y-50260967D01*
X183716630Y-50260965D01*
X183645527Y-50227809D01*
X183502463Y-50161097D01*
X183502459Y-50161096D01*
X183502455Y-50161094D01*
X183274213Y-50099938D01*
X183274203Y-50099936D01*
X183038801Y-50079341D01*
X183038799Y-50079341D01*
X182803396Y-50099936D01*
X182803386Y-50099938D01*
X182575144Y-50161094D01*
X182575135Y-50161098D01*
X182360971Y-50260964D01*
X182360969Y-50260965D01*
X182167397Y-50396505D01*
X182000305Y-50563597D01*
X181864765Y-50757169D01*
X181864764Y-50757171D01*
X181764898Y-50971335D01*
X181764894Y-50971344D01*
X181703738Y-51199586D01*
X181703736Y-51199596D01*
X181683141Y-51434999D01*
X181683141Y-51435000D01*
X181703736Y-51670403D01*
X181703738Y-51670413D01*
X181746581Y-51830307D01*
X181744918Y-51900157D01*
X181705755Y-51958019D01*
X181641527Y-51985523D01*
X181626806Y-51986400D01*
X179511500Y-51986400D01*
X179444461Y-51966715D01*
X179398706Y-51913911D01*
X179387500Y-51862400D01*
X179387500Y-47749000D01*
X179407185Y-47681961D01*
X179459989Y-47636206D01*
X179511500Y-47625000D01*
X233238500Y-47625000D01*
X233305539Y-47644685D01*
G37*
%TD.AperFunction*%
%TA.AperFunction,Conductor*%
G36*
X201068800Y-70565000D02*
G01*
X201716628Y-70565000D01*
X201716644Y-70564999D01*
X201776172Y-70558598D01*
X201776179Y-70558596D01*
X201910886Y-70508354D01*
X201910893Y-70508350D01*
X202025987Y-70422190D01*
X202025990Y-70422187D01*
X202112150Y-70307093D01*
X202112154Y-70307086D01*
X202161222Y-70175529D01*
X202203093Y-70119595D01*
X202268557Y-70095178D01*
X202336830Y-70110030D01*
X202365085Y-70131181D01*
X202487399Y-70253495D01*
X202539434Y-70289930D01*
X202680965Y-70389032D01*
X202680967Y-70389033D01*
X202680970Y-70389035D01*
X202895137Y-70488903D01*
X202895143Y-70488904D01*
X202895144Y-70488905D01*
X202950085Y-70503626D01*
X203123392Y-70550063D01*
X203294119Y-70565000D01*
X203358799Y-70570659D01*
X203358800Y-70570659D01*
X203358801Y-70570659D01*
X203423481Y-70565000D01*
X203594208Y-70550063D01*
X203822463Y-70488903D01*
X204036630Y-70389035D01*
X204230201Y-70253495D01*
X204397295Y-70086401D01*
X204527227Y-69900838D01*
X204581800Y-69857216D01*
X204651299Y-69850022D01*
X204713654Y-69881544D01*
X204730372Y-69900838D01*
X204860305Y-70086401D01*
X205027399Y-70253495D01*
X205079434Y-70289930D01*
X205220965Y-70389032D01*
X205220966Y-70389032D01*
X205220970Y-70389035D01*
X205282331Y-70417648D01*
X205296353Y-70424187D01*
X205348792Y-70470360D01*
X205367944Y-70537554D01*
X205347728Y-70604435D01*
X205331629Y-70624250D01*
X202967200Y-72988681D01*
X202905877Y-73022166D01*
X202879519Y-73025000D01*
X202681427Y-73025000D01*
X202614388Y-73005315D01*
X202568633Y-72952511D01*
X202558106Y-72913962D01*
X202546974Y-72808044D01*
X202488479Y-72628016D01*
X202393833Y-72464084D01*
X202267171Y-72323412D01*
X202267170Y-72323411D01*
X202114034Y-72212151D01*
X202114029Y-72212148D01*
X201941107Y-72135157D01*
X201941102Y-72135155D01*
X201795301Y-72104165D01*
X201755946Y-72095800D01*
X201566654Y-72095800D01*
X201534197Y-72102698D01*
X201381497Y-72135155D01*
X201381492Y-72135157D01*
X201208570Y-72212148D01*
X201208565Y-72212151D01*
X201055435Y-72323406D01*
X201055432Y-72323408D01*
X201053475Y-72325581D01*
X201051500Y-72327774D01*
X200992014Y-72364421D01*
X200959353Y-72368800D01*
X198101881Y-72368800D01*
X198034842Y-72349115D01*
X198014200Y-72332481D01*
X196305969Y-70624250D01*
X196272484Y-70562927D01*
X196277468Y-70493235D01*
X196319340Y-70437302D01*
X196341244Y-70424188D01*
X196416630Y-70389035D01*
X196610201Y-70253495D01*
X196777295Y-70086401D01*
X196907226Y-69900841D01*
X196961802Y-69857217D01*
X197031300Y-69850023D01*
X197093655Y-69881546D01*
X197110375Y-69900842D01*
X197240300Y-70086395D01*
X197240305Y-70086401D01*
X197407399Y-70253495D01*
X197459434Y-70289930D01*
X197600965Y-70389032D01*
X197600967Y-70389033D01*
X197600970Y-70389035D01*
X197815137Y-70488903D01*
X197815143Y-70488904D01*
X197815144Y-70488905D01*
X197870085Y-70503626D01*
X198043392Y-70550063D01*
X198214119Y-70565000D01*
X198278799Y-70570659D01*
X198278800Y-70570659D01*
X198278801Y-70570659D01*
X198343481Y-70565000D01*
X198514208Y-70550063D01*
X198742463Y-70488903D01*
X198956630Y-70389035D01*
X199150201Y-70253495D01*
X199272517Y-70131178D01*
X199333836Y-70097696D01*
X199403528Y-70102680D01*
X199459462Y-70144551D01*
X199476377Y-70175528D01*
X199525446Y-70307088D01*
X199525449Y-70307093D01*
X199611609Y-70422187D01*
X199611612Y-70422190D01*
X199726706Y-70508350D01*
X199726713Y-70508354D01*
X199861420Y-70558596D01*
X199861427Y-70558598D01*
X199920955Y-70564999D01*
X199920972Y-70565000D01*
X200568800Y-70565000D01*
X200568800Y-69661494D01*
X200673639Y-69709373D01*
X200782327Y-69725000D01*
X200855273Y-69725000D01*
X200963961Y-69709373D01*
X201068800Y-69661494D01*
X201068800Y-70565000D01*
G37*
%TD.AperFunction*%
%TA.AperFunction,Conductor*%
G36*
X213768800Y-70576132D02*
G01*
X213788894Y-70612932D01*
X213783910Y-70682624D01*
X213755408Y-70726971D01*
X211918252Y-72564129D01*
X211493700Y-72988681D01*
X211432377Y-73022166D01*
X211406019Y-73025000D01*
X207545081Y-73025000D01*
X207478042Y-73005315D01*
X207432287Y-72952511D01*
X207422343Y-72883353D01*
X207451368Y-72819797D01*
X207457400Y-72813319D01*
X208243681Y-72027036D01*
X209980789Y-70289928D01*
X210042110Y-70256445D01*
X210111802Y-70261429D01*
X210139587Y-70276033D01*
X210300970Y-70389035D01*
X210515137Y-70488903D01*
X210515143Y-70488904D01*
X210515144Y-70488905D01*
X210570085Y-70503626D01*
X210743392Y-70550063D01*
X210914119Y-70565000D01*
X210978799Y-70570659D01*
X210978800Y-70570659D01*
X210978801Y-70570659D01*
X211043481Y-70565000D01*
X211214208Y-70550063D01*
X211442463Y-70488903D01*
X211656630Y-70389035D01*
X211850201Y-70253495D01*
X211972517Y-70131178D01*
X212033836Y-70097696D01*
X212103528Y-70102680D01*
X212159462Y-70144551D01*
X212176377Y-70175528D01*
X212225446Y-70307088D01*
X212225449Y-70307093D01*
X212311609Y-70422187D01*
X212311612Y-70422190D01*
X212426706Y-70508350D01*
X212426713Y-70508354D01*
X212561420Y-70558596D01*
X212561427Y-70558598D01*
X212620955Y-70564999D01*
X212620972Y-70565000D01*
X213268800Y-70565000D01*
X213268800Y-69661494D01*
X213373639Y-69709373D01*
X213482327Y-69725000D01*
X213555273Y-69725000D01*
X213663961Y-69709373D01*
X213768800Y-69661494D01*
X213768800Y-70576132D01*
G37*
%TD.AperFunction*%
%TD*%
M02*
