M48
; DRILL file {KiCad 7.0.5} date Wed Jun  7 01:27:58 2023
; FORMAT={-:-/ absolute / inch / decimal}
; #@! TF.CreationDate,2023-06-07T01:27:58+08:00
; #@! TF.GenerationSoftware,Kicad,Pcbnew,7.0.5
; #@! TF.FileFunction,NonPlated,1,2,NPTH
FMAT,2
INCH
; #@! TA.AperFunction,NonPlated,NPTH,ComponentDrill
T1C0.0591
; #@! TA.AperFunction,NonPlated,NPTH,ComponentDrill
T2C0.0689
; #@! TA.AperFunction,NonPlated,NPTH,ComponentDrill
T3C0.0709
; #@! TA.AperFunction,NonPlated,NPTH,ComponentDrill
T4C0.1575
%
G90
G05
T1
X8.9756Y-2.2795
X8.9756Y-2.4705
T2
X2.3292Y-4.2502
X2.3312Y-2.4125
X2.7292Y-4.2502
X2.7312Y-2.4125
X3.0812Y-2.4125
X3.0813Y-3.5
X3.0813Y-4.25
X3.4812Y-2.4125
X3.4813Y-3.5
X3.4813Y-4.25
X3.8292Y-4.2502
X3.8312Y-2.4125
X4.2292Y-4.2502
X4.2312Y-2.4125
X4.95Y-5.7687
X5.35Y-5.7687
X6.0437Y-3.725
X6.0437Y-4.475
X6.4437Y-3.725
X6.4437Y-4.475
X6.7937Y-3.5187
X6.7937Y-4.2687
X7.1937Y-3.5187
X7.1937Y-4.2687
X7.5437Y-3.5187
X7.5437Y-4.2687
X7.9437Y-3.5187
X7.9437Y-4.2687
X8.2937Y-3.725
X8.2937Y-4.475
X8.6937Y-3.725
X8.6937Y-4.475
T3
X9.0949Y-2.2677
X9.0949Y-2.4823
T4
X2.5292Y-4.2502
X2.5312Y-2.4125
X3.2812Y-2.4125
X3.2813Y-3.5
X3.2813Y-4.25
X4.0292Y-4.2502
X4.0312Y-2.4125
X5.15Y-5.7687
X6.2437Y-3.725
X6.2437Y-4.475
X6.9937Y-3.5187
X6.9937Y-4.2687
X7.7437Y-3.5187
X7.7437Y-4.2687
X8.4937Y-3.725
X8.4937Y-4.475
T0
M30
