M48
; DRILL file {KiCad 7.0.5} date Tue Jun  6 19:01:46 2023
; FORMAT={-:-/ absolute / inch / decimal}
; #@! TF.CreationDate,2023-06-06T19:01:46+08:00
; #@! TF.GenerationSoftware,Kicad,Pcbnew,7.0.5
; #@! TF.FileFunction,NonPlated,1,2,NPTH
FMAT,2
INCH
; #@! TA.AperFunction,NonPlated,NPTH,ComponentDrill
T1C0.0591
; #@! TA.AperFunction,NonPlated,NPTH,ComponentDrill
T2C0.0689
; #@! TA.AperFunction,NonPlated,NPTH,ComponentDrill
T3C0.0709
; #@! TA.AperFunction,NonPlated,NPTH,ComponentDrill
T4C0.1575
%
G90
G05
T1
X8.9818Y-2.2795
X8.9818Y-2.4705
T2
X2.5852Y-2.4125
X2.6273Y-3.9789
X2.9852Y-2.4125
X3.0186Y-4.062
X3.3352Y-2.4125
X3.363Y-4.135
X3.5189Y-3.4014
X3.7352Y-2.4125
X3.7542Y-4.2182
X3.9101Y-3.4846
X4.0852Y-2.4125
X4.0945Y-4.2907
X4.4852Y-2.4125
X4.4858Y-4.3739
X5.2039Y-5.7687
X5.6039Y-5.7687
X6.2977Y-3.725
X6.2977Y-4.475
X6.6977Y-3.725
X6.6977Y-4.475
X7.0477Y-3.5187
X7.0477Y-4.2687
X7.4477Y-3.5187
X7.4477Y-4.2687
X7.7977Y-3.5187
X7.7977Y-4.2687
X8.1977Y-3.5187
X8.1977Y-4.2687
X8.5477Y-3.725
X8.5477Y-4.475
X8.9477Y-3.725
X8.9477Y-4.475
T3
X9.1011Y-2.2677
X9.1011Y-2.4823
T4
X2.7852Y-2.4125
X2.8229Y-4.0205
X3.5352Y-2.4125
X3.5586Y-4.1766
X3.7145Y-3.443
X4.2852Y-2.4125
X4.2901Y-4.3323
X5.4039Y-5.7687
X6.4977Y-3.725
X6.4977Y-4.475
X7.2477Y-3.5187
X7.2477Y-4.2687
X7.9977Y-3.5187
X7.9977Y-4.2687
X8.7477Y-3.725
X8.7477Y-4.475
T0
M30
