%TF.GenerationSoftware,KiCad,Pcbnew,7.0.5*%
%TF.CreationDate,2023-06-07T16:44:32+08:00*%
%TF.ProjectId,JosEffigy-All-Keyboard-Mixbox,4a6f7345-6666-4696-9779-2d416c6c2d4b,rev?*%
%TF.SameCoordinates,Original*%
%TF.FileFunction,Soldermask,Bot*%
%TF.FilePolarity,Negative*%
%FSLAX46Y46*%
G04 Gerber Fmt 4.6, Leading zero omitted, Abs format (unit mm)*
G04 Created by KiCad (PCBNEW 7.0.5) date 2023-06-07 16:44:32*
%MOMM*%
%LPD*%
G01*
G04 APERTURE LIST*
G04 Aperture macros list*
%AMRoundRect*
0 Rectangle with rounded corners*
0 $1 Rounding radius*
0 $2 $3 $4 $5 $6 $7 $8 $9 X,Y pos of 4 corners*
0 Add a 4 corners polygon primitive as box body*
4,1,4,$2,$3,$4,$5,$6,$7,$8,$9,$2,$3,0*
0 Add four circle primitives for the rounded corners*
1,1,$1+$1,$2,$3*
1,1,$1+$1,$4,$5*
1,1,$1+$1,$6,$7*
1,1,$1+$1,$8,$9*
0 Add four rect primitives between the rounded corners*
20,1,$1+$1,$2,$3,$4,$5,0*
20,1,$1+$1,$4,$5,$6,$7,0*
20,1,$1+$1,$6,$7,$8,$9,0*
20,1,$1+$1,$8,$9,$2,$3,0*%
G04 Aperture macros list end*
%ADD10C,2.200000*%
%ADD11RoundRect,0.250000X-1.025000X-1.000000X1.025000X-1.000000X1.025000X1.000000X-1.025000X1.000000X0*%
%ADD12C,1.750000*%
%ADD13C,4.000000*%
%ADD14C,3.600000*%
%ADD15O,1.800000X1.800000*%
%ADD16O,1.500000X1.500000*%
%ADD17O,1.700000X1.700000*%
%ADD18R,1.700000X3.500000*%
%ADD19R,1.700000X1.700000*%
%ADD20R,3.500000X1.700000*%
%ADD21R,0.510000X0.600000*%
%ADD22R,1.700000X1.000000*%
%ADD23RoundRect,0.150000X0.512500X0.150000X-0.512500X0.150000X-0.512500X-0.150000X0.512500X-0.150000X0*%
G04 APERTURE END LIST*
D10*
%TO.C,REF\u002A\u002A*%
X229870000Y-156210000D03*
%TD*%
%TO.C,REF\u002A\u002A*%
X50800000Y-156210000D03*
%TD*%
%TO.C,REF\u002A\u002A*%
X229870000Y-40640000D03*
%TD*%
%TO.C,REF\u002A\u002A*%
X50800000Y-40640000D03*
%TD*%
D11*
%TO.C,MX3*%
X95256700Y-105415400D03*
D12*
X97261700Y-107955400D03*
D13*
X102341700Y-107955400D03*
D12*
X107421700Y-107955400D03*
D11*
X108183700Y-102875400D03*
D14*
X98531700Y-105415400D03*
X104881700Y-102875400D03*
%TD*%
D11*
%TO.C,MX6*%
X76258700Y-58737500D03*
D12*
X78263700Y-61277500D03*
D13*
X83343700Y-61277500D03*
D12*
X88423700Y-61277500D03*
D11*
X89185700Y-56197500D03*
D14*
X79533700Y-58737500D03*
X85883700Y-56197500D03*
%TD*%
D11*
%TO.C,MX1*%
X57156800Y-105415400D03*
D12*
X59161800Y-107955400D03*
D13*
X64241800Y-107955400D03*
D12*
X69321800Y-107955400D03*
D11*
X70083800Y-102875400D03*
D14*
X60431800Y-105415400D03*
X66781800Y-102875400D03*
%TD*%
D11*
%TO.C,MX16*%
X208656200Y-92075000D03*
D12*
X210661200Y-94615000D03*
D13*
X215741200Y-94615000D03*
D12*
X220821200Y-94615000D03*
D11*
X221583200Y-89535000D03*
D14*
X211931200Y-92075000D03*
X218281200Y-89535000D03*
%TD*%
D11*
%TO.C,MX2*%
X76258800Y-105410000D03*
D12*
X78263800Y-107950000D03*
D13*
X83343800Y-107950000D03*
D12*
X88423800Y-107950000D03*
D11*
X89185800Y-102870000D03*
D14*
X79533800Y-105410000D03*
X85883800Y-102870000D03*
%TD*%
D11*
%TO.C,MX7*%
X95308700Y-58737500D03*
D12*
X97313700Y-61277500D03*
D13*
X102393700Y-61277500D03*
D12*
X107473700Y-61277500D03*
D11*
X108235700Y-56197500D03*
D14*
X98583700Y-58737500D03*
X104933700Y-56197500D03*
%TD*%
D11*
%TO.C,MX5*%
X57208700Y-58737500D03*
D12*
X59213700Y-61277500D03*
D13*
X64293700Y-61277500D03*
D12*
X69373700Y-61277500D03*
D11*
X70135700Y-56197500D03*
D14*
X60483700Y-58737500D03*
X66833700Y-56197500D03*
%TD*%
D11*
%TO.C,MX4*%
X76258800Y-86360000D03*
D12*
X78263800Y-88900000D03*
D13*
X83343800Y-88900000D03*
D12*
X88423800Y-88900000D03*
D11*
X89185800Y-83820000D03*
D14*
X79533800Y-86360000D03*
X85883800Y-83820000D03*
%TD*%
D11*
%TO.C,MX12*%
X208656200Y-111125000D03*
D12*
X210661200Y-113665000D03*
D13*
X215741200Y-113665000D03*
D12*
X220821200Y-113665000D03*
D11*
X221583200Y-108585000D03*
D14*
X211931200Y-111125000D03*
X218281200Y-108585000D03*
%TD*%
D11*
%TO.C,MX10*%
X170556200Y-105886200D03*
D12*
X172561200Y-108426200D03*
D13*
X177641200Y-108426200D03*
D12*
X182721200Y-108426200D03*
D11*
X183483200Y-103346200D03*
D14*
X173831200Y-105886200D03*
X180181200Y-103346200D03*
%TD*%
D11*
%TO.C,MX8*%
X123725000Y-143986200D03*
D12*
X125730000Y-146526200D03*
D13*
X130810000Y-146526200D03*
D12*
X135890000Y-146526200D03*
D11*
X136652000Y-141446200D03*
D14*
X127000000Y-143986200D03*
X133350000Y-141446200D03*
%TD*%
D11*
%TO.C,MX14*%
X170556200Y-86836200D03*
D12*
X172561200Y-89376200D03*
D13*
X177641200Y-89376200D03*
D12*
X182721200Y-89376200D03*
D11*
X183483200Y-84296200D03*
D14*
X173831200Y-86836200D03*
X180181200Y-84296200D03*
%TD*%
D11*
%TO.C,MX11*%
X189606200Y-105886200D03*
D12*
X191611200Y-108426200D03*
D13*
X196691200Y-108426200D03*
D12*
X201771200Y-108426200D03*
D11*
X202533200Y-103346200D03*
D14*
X192881200Y-105886200D03*
X199231200Y-103346200D03*
%TD*%
D11*
%TO.C,MX13*%
X151506200Y-92075000D03*
D12*
X153511200Y-94615000D03*
D13*
X158591200Y-94615000D03*
D12*
X163671200Y-94615000D03*
D11*
X164433200Y-89535000D03*
D14*
X154781200Y-92075000D03*
X161131200Y-89535000D03*
%TD*%
D11*
%TO.C,MX15*%
X189606200Y-86836200D03*
D12*
X191611200Y-89376200D03*
D13*
X196691200Y-89376200D03*
D12*
X201771200Y-89376200D03*
D11*
X202533200Y-84296200D03*
D14*
X192881200Y-86836200D03*
X199231200Y-84296200D03*
%TD*%
D11*
%TO.C,MX9*%
X151506200Y-111125000D03*
D12*
X153511200Y-113665000D03*
D13*
X158591200Y-113665000D03*
D12*
X163671200Y-113665000D03*
D11*
X164433200Y-108585000D03*
D14*
X154781200Y-111125000D03*
X161131200Y-108585000D03*
%TD*%
D15*
%TO.C,U1*%
X231010000Y-63050000D03*
D16*
X227980000Y-62750000D03*
X227980000Y-57900000D03*
D15*
X231010000Y-57600000D03*
D17*
X231140000Y-69215000D03*
D18*
X231140000Y-70115000D03*
D17*
X228600000Y-69215000D03*
D18*
X228600000Y-70115000D03*
D19*
X226060000Y-69215000D03*
D18*
X226060000Y-70115000D03*
D17*
X223520000Y-69215000D03*
D18*
X223520000Y-70115000D03*
D17*
X220980000Y-69215000D03*
D18*
X220980000Y-70115000D03*
D17*
X218440000Y-69215000D03*
D18*
X218440000Y-70115000D03*
D17*
X215900000Y-69215000D03*
D18*
X215900000Y-70115000D03*
D19*
X213360000Y-69215000D03*
D18*
X213360000Y-70115000D03*
D17*
X210820000Y-69215000D03*
D18*
X210820000Y-70115000D03*
D17*
X208280000Y-69215000D03*
D18*
X208280000Y-70115000D03*
D17*
X205740000Y-69215000D03*
D18*
X205740000Y-70115000D03*
D17*
X203200000Y-69215000D03*
D18*
X203200000Y-70115000D03*
D19*
X200660000Y-69215000D03*
D18*
X200660000Y-70115000D03*
D17*
X198120000Y-69215000D03*
D18*
X198120000Y-70115000D03*
D17*
X195580000Y-69215000D03*
D18*
X195580000Y-70115000D03*
D17*
X193040000Y-69215000D03*
D18*
X193040000Y-70115000D03*
D17*
X190500000Y-69215000D03*
D18*
X190500000Y-70115000D03*
D19*
X187960000Y-69215000D03*
D18*
X187960000Y-70115000D03*
D17*
X185420000Y-69215000D03*
D18*
X185420000Y-70115000D03*
D17*
X182880000Y-69215000D03*
D18*
X182880000Y-70115000D03*
D17*
X182880000Y-51435000D03*
D18*
X182880000Y-50535000D03*
D17*
X185420000Y-51435000D03*
D18*
X185420000Y-50535000D03*
D19*
X187960000Y-51435000D03*
D18*
X187960000Y-50535000D03*
D17*
X190500000Y-51435000D03*
D18*
X190500000Y-50535000D03*
D17*
X193040000Y-51435000D03*
D18*
X193040000Y-50535000D03*
D17*
X195580000Y-51435000D03*
D18*
X195580000Y-50535000D03*
D17*
X198120000Y-51435000D03*
D18*
X198120000Y-50535000D03*
D19*
X200660000Y-51435000D03*
D18*
X200660000Y-50535000D03*
D17*
X203200000Y-51435000D03*
D18*
X203200000Y-50535000D03*
D17*
X205740000Y-51435000D03*
D18*
X205740000Y-50535000D03*
D17*
X208280000Y-51435000D03*
D18*
X208280000Y-50535000D03*
D17*
X210820000Y-51435000D03*
D18*
X210820000Y-50535000D03*
D19*
X213360000Y-51435000D03*
D18*
X213360000Y-50535000D03*
D17*
X215900000Y-51435000D03*
D18*
X215900000Y-50535000D03*
D17*
X218440000Y-51435000D03*
D18*
X218440000Y-50535000D03*
D17*
X220980000Y-51435000D03*
D18*
X220980000Y-50535000D03*
D17*
X223520000Y-51435000D03*
D18*
X223520000Y-50535000D03*
D19*
X226060000Y-51435000D03*
D18*
X226060000Y-50535000D03*
D17*
X228600000Y-51435000D03*
D18*
X228600000Y-50535000D03*
D17*
X231140000Y-51435000D03*
D18*
X231140000Y-50535000D03*
D17*
X183110000Y-62865000D03*
D20*
X182210000Y-62865000D03*
D19*
X183110000Y-60325000D03*
D20*
X182210000Y-60325000D03*
D17*
X183110000Y-57785000D03*
D20*
X182210000Y-57785000D03*
%TD*%
D21*
%TO.C,C13*%
X159195000Y-103187500D03*
X158305000Y-103187500D03*
%TD*%
%TO.C,C11*%
X197295000Y-116681200D03*
X196405000Y-116681200D03*
%TD*%
D22*
%TO.C,D12*%
X218549900Y-119764000D03*
X218549900Y-118364000D03*
X213049900Y-118364000D03*
X213049900Y-119764000D03*
%TD*%
%TO.C,D7*%
X99643800Y-65848000D03*
X99643800Y-67248000D03*
X105143800Y-67248000D03*
X105143800Y-65848000D03*
%TD*%
D21*
%TO.C,C9*%
X159195000Y-122237500D03*
X158305000Y-122237500D03*
%TD*%
D22*
%TO.C,D6*%
X80593800Y-65848000D03*
X80593800Y-67248000D03*
X86093800Y-67248000D03*
X86093800Y-65848000D03*
%TD*%
%TO.C,D5*%
X61543800Y-65848000D03*
X61543800Y-67248000D03*
X67043800Y-67248000D03*
X67043800Y-65848000D03*
%TD*%
D21*
%TO.C,C4*%
X64738800Y-116681200D03*
X63848800Y-116681200D03*
%TD*%
D22*
%TO.C,D9*%
X161562400Y-119764000D03*
X161562400Y-118364000D03*
X156062400Y-118364000D03*
X156062400Y-119764000D03*
%TD*%
D21*
%TO.C,C14*%
X178245000Y-97631200D03*
X177355000Y-97631200D03*
%TD*%
%TO.C,C5*%
X83788800Y-116681200D03*
X82898800Y-116681200D03*
%TD*%
D22*
%TO.C,D13*%
X155899900Y-99314000D03*
X155899900Y-100714000D03*
X161399900Y-100714000D03*
X161399900Y-99314000D03*
%TD*%
D21*
%TO.C,C12*%
X216345000Y-122237500D03*
X215455000Y-122237500D03*
%TD*%
D22*
%TO.C,D11*%
X199499900Y-114492000D03*
X199499900Y-113092000D03*
X193999900Y-113092000D03*
X193999900Y-114492000D03*
%TD*%
%TO.C,D10*%
X180449900Y-114492000D03*
X180449900Y-113092000D03*
X174949900Y-113092000D03*
X174949900Y-114492000D03*
%TD*%
%TO.C,D16*%
X213049900Y-99314000D03*
X213049900Y-100714000D03*
X218549900Y-100714000D03*
X218549900Y-99314000D03*
%TD*%
%TO.C,D8*%
X133635700Y-152863400D03*
X133635700Y-151463400D03*
X128135700Y-151463400D03*
X128135700Y-152863400D03*
%TD*%
D21*
%TO.C,C3*%
X64738800Y-69850000D03*
X63848800Y-69850000D03*
%TD*%
%TO.C,C7*%
X131413800Y-155575000D03*
X130523800Y-155575000D03*
%TD*%
D22*
%TO.C,D4*%
X86214800Y-94665700D03*
X86214800Y-93265700D03*
X80714800Y-93265700D03*
X80714800Y-94665700D03*
%TD*%
%TO.C,D3*%
X105143800Y-114065000D03*
X105143800Y-112665000D03*
X99643800Y-112665000D03*
X99643800Y-114065000D03*
%TD*%
%TO.C,D15*%
X193999900Y-93788000D03*
X193999900Y-95188000D03*
X199499900Y-95188000D03*
X199499900Y-93788000D03*
%TD*%
%TO.C,D1*%
X66910800Y-113969800D03*
X66910800Y-112569800D03*
X61410800Y-112569800D03*
X61410800Y-113969800D03*
%TD*%
D21*
%TO.C,C6*%
X102838800Y-116681200D03*
X101948800Y-116681200D03*
%TD*%
%TO.C,C2*%
X83788800Y-69850000D03*
X82898800Y-69850000D03*
%TD*%
D22*
%TO.C,D14*%
X174949900Y-93788000D03*
X174949900Y-95188000D03*
X180449900Y-95188000D03*
X180449900Y-93788000D03*
%TD*%
D21*
%TO.C,C10*%
X178245000Y-116681200D03*
X177355000Y-116681200D03*
%TD*%
D23*
%TO.C,U2*%
X220212500Y-43500000D03*
X220212500Y-44450000D03*
X220212500Y-45400000D03*
X217937500Y-45400000D03*
X217937500Y-43500000D03*
%TD*%
D22*
%TO.C,D2*%
X86093800Y-113969800D03*
X86093800Y-112569800D03*
X80593800Y-112569800D03*
X80593800Y-113969800D03*
%TD*%
D21*
%TO.C,C1*%
X102838800Y-69850000D03*
X101948800Y-69850000D03*
%TD*%
%TO.C,C15*%
X197295000Y-97631200D03*
X196405000Y-97631200D03*
%TD*%
%TO.C,C8*%
X83788800Y-97631200D03*
X82898800Y-97631200D03*
%TD*%
%TO.C,C16*%
X216345000Y-103187500D03*
X215455000Y-103187500D03*
%TD*%
M02*
