%TF.GenerationSoftware,KiCad,Pcbnew,7.0.5*%
%TF.CreationDate,2023-06-06T19:01:50+08:00*%
%TF.ProjectId,JosEffigy-All-Keyboard-Mixbox,4a6f7345-6666-4696-9779-2d416c6c2d4b,rev?*%
%TF.SameCoordinates,Original*%
%TF.FileFunction,Legend,Bot*%
%TF.FilePolarity,Positive*%
%FSLAX46Y46*%
G04 Gerber Fmt 4.6, Leading zero omitted, Abs format (unit mm)*
G04 Created by KiCad (PCBNEW 7.0.5) date 2023-06-06 19:01:50*
%MOMM*%
%LPD*%
G01*
G04 APERTURE LIST*
G04 Aperture macros list*
%AMRoundRect*
0 Rectangle with rounded corners*
0 $1 Rounding radius*
0 $2 $3 $4 $5 $6 $7 $8 $9 X,Y pos of 4 corners*
0 Add a 4 corners polygon primitive as box body*
4,1,4,$2,$3,$4,$5,$6,$7,$8,$9,$2,$3,0*
0 Add four circle primitives for the rounded corners*
1,1,$1+$1,$2,$3*
1,1,$1+$1,$4,$5*
1,1,$1+$1,$6,$7*
1,1,$1+$1,$8,$9*
0 Add four rect primitives between the rounded corners*
20,1,$1+$1,$2,$3,$4,$5,0*
20,1,$1+$1,$4,$5,$6,$7,0*
20,1,$1+$1,$6,$7,$8,$9,0*
20,1,$1+$1,$8,$9,$2,$3,0*%
%AMRotRect*
0 Rectangle, with rotation*
0 The origin of the aperture is its center*
0 $1 length*
0 $2 width*
0 $3 Rotation angle, in degrees counterclockwise*
0 Add horizontal line*
21,1,$1,$2,0,0,$3*%
G04 Aperture macros list end*
%ADD10C,0.150000*%
%ADD11C,0.120000*%
%ADD12C,3.100000*%
%ADD13C,4.500000*%
%ADD14C,1.750000*%
%ADD15C,4.000000*%
%ADD16RoundRect,0.250000X-1.025000X-1.000000X1.025000X-1.000000X1.025000X1.000000X-1.025000X1.000000X0*%
%ADD17C,3.600000*%
%ADD18RoundRect,0.250000X-1.210513X-0.765038X0.794690X-1.191257X1.210513X0.765038X-0.794690X1.191257X0*%
%ADD19R,1.700000X1.000000*%
%ADD20RotRect,1.700000X1.000000X168.000000*%
%ADD21O,1.800000X1.800000*%
%ADD22O,1.500000X1.500000*%
%ADD23O,1.700000X1.700000*%
%ADD24R,1.700000X3.500000*%
%ADD25R,1.700000X1.700000*%
%ADD26R,3.500000X1.700000*%
G04 APERTURE END LIST*
D10*
%TO.C,D16*%
X223264285Y-111668819D02*
X223264285Y-110668819D01*
X223264285Y-110668819D02*
X223026190Y-110668819D01*
X223026190Y-110668819D02*
X222883333Y-110716438D01*
X222883333Y-110716438D02*
X222788095Y-110811676D01*
X222788095Y-110811676D02*
X222740476Y-110906914D01*
X222740476Y-110906914D02*
X222692857Y-111097390D01*
X222692857Y-111097390D02*
X222692857Y-111240247D01*
X222692857Y-111240247D02*
X222740476Y-111430723D01*
X222740476Y-111430723D02*
X222788095Y-111525961D01*
X222788095Y-111525961D02*
X222883333Y-111621200D01*
X222883333Y-111621200D02*
X223026190Y-111668819D01*
X223026190Y-111668819D02*
X223264285Y-111668819D01*
X221740476Y-111668819D02*
X222311904Y-111668819D01*
X222026190Y-111668819D02*
X222026190Y-110668819D01*
X222026190Y-110668819D02*
X222121428Y-110811676D01*
X222121428Y-110811676D02*
X222216666Y-110906914D01*
X222216666Y-110906914D02*
X222311904Y-110954533D01*
X220883333Y-110668819D02*
X221073809Y-110668819D01*
X221073809Y-110668819D02*
X221169047Y-110716438D01*
X221169047Y-110716438D02*
X221216666Y-110764057D01*
X221216666Y-110764057D02*
X221311904Y-110906914D01*
X221311904Y-110906914D02*
X221359523Y-111097390D01*
X221359523Y-111097390D02*
X221359523Y-111478342D01*
X221359523Y-111478342D02*
X221311904Y-111573580D01*
X221311904Y-111573580D02*
X221264285Y-111621200D01*
X221264285Y-111621200D02*
X221169047Y-111668819D01*
X221169047Y-111668819D02*
X220978571Y-111668819D01*
X220978571Y-111668819D02*
X220883333Y-111621200D01*
X220883333Y-111621200D02*
X220835714Y-111573580D01*
X220835714Y-111573580D02*
X220788095Y-111478342D01*
X220788095Y-111478342D02*
X220788095Y-111240247D01*
X220788095Y-111240247D02*
X220835714Y-111145009D01*
X220835714Y-111145009D02*
X220883333Y-111097390D01*
X220883333Y-111097390D02*
X220978571Y-111049771D01*
X220978571Y-111049771D02*
X221169047Y-111049771D01*
X221169047Y-111049771D02*
X221264285Y-111097390D01*
X221264285Y-111097390D02*
X221311904Y-111145009D01*
X221311904Y-111145009D02*
X221359523Y-111240247D01*
%TO.C,D15*%
X204214285Y-106142819D02*
X204214285Y-105142819D01*
X204214285Y-105142819D02*
X203976190Y-105142819D01*
X203976190Y-105142819D02*
X203833333Y-105190438D01*
X203833333Y-105190438D02*
X203738095Y-105285676D01*
X203738095Y-105285676D02*
X203690476Y-105380914D01*
X203690476Y-105380914D02*
X203642857Y-105571390D01*
X203642857Y-105571390D02*
X203642857Y-105714247D01*
X203642857Y-105714247D02*
X203690476Y-105904723D01*
X203690476Y-105904723D02*
X203738095Y-105999961D01*
X203738095Y-105999961D02*
X203833333Y-106095200D01*
X203833333Y-106095200D02*
X203976190Y-106142819D01*
X203976190Y-106142819D02*
X204214285Y-106142819D01*
X202690476Y-106142819D02*
X203261904Y-106142819D01*
X202976190Y-106142819D02*
X202976190Y-105142819D01*
X202976190Y-105142819D02*
X203071428Y-105285676D01*
X203071428Y-105285676D02*
X203166666Y-105380914D01*
X203166666Y-105380914D02*
X203261904Y-105428533D01*
X201785714Y-105142819D02*
X202261904Y-105142819D01*
X202261904Y-105142819D02*
X202309523Y-105619009D01*
X202309523Y-105619009D02*
X202261904Y-105571390D01*
X202261904Y-105571390D02*
X202166666Y-105523771D01*
X202166666Y-105523771D02*
X201928571Y-105523771D01*
X201928571Y-105523771D02*
X201833333Y-105571390D01*
X201833333Y-105571390D02*
X201785714Y-105619009D01*
X201785714Y-105619009D02*
X201738095Y-105714247D01*
X201738095Y-105714247D02*
X201738095Y-105952342D01*
X201738095Y-105952342D02*
X201785714Y-106047580D01*
X201785714Y-106047580D02*
X201833333Y-106095200D01*
X201833333Y-106095200D02*
X201928571Y-106142819D01*
X201928571Y-106142819D02*
X202166666Y-106142819D01*
X202166666Y-106142819D02*
X202261904Y-106095200D01*
X202261904Y-106095200D02*
X202309523Y-106047580D01*
%TO.C,D14*%
X185164285Y-106142819D02*
X185164285Y-105142819D01*
X185164285Y-105142819D02*
X184926190Y-105142819D01*
X184926190Y-105142819D02*
X184783333Y-105190438D01*
X184783333Y-105190438D02*
X184688095Y-105285676D01*
X184688095Y-105285676D02*
X184640476Y-105380914D01*
X184640476Y-105380914D02*
X184592857Y-105571390D01*
X184592857Y-105571390D02*
X184592857Y-105714247D01*
X184592857Y-105714247D02*
X184640476Y-105904723D01*
X184640476Y-105904723D02*
X184688095Y-105999961D01*
X184688095Y-105999961D02*
X184783333Y-106095200D01*
X184783333Y-106095200D02*
X184926190Y-106142819D01*
X184926190Y-106142819D02*
X185164285Y-106142819D01*
X183640476Y-106142819D02*
X184211904Y-106142819D01*
X183926190Y-106142819D02*
X183926190Y-105142819D01*
X183926190Y-105142819D02*
X184021428Y-105285676D01*
X184021428Y-105285676D02*
X184116666Y-105380914D01*
X184116666Y-105380914D02*
X184211904Y-105428533D01*
X182783333Y-105476152D02*
X182783333Y-106142819D01*
X183021428Y-105095200D02*
X183259523Y-105809485D01*
X183259523Y-105809485D02*
X182640476Y-105809485D01*
%TO.C,D13*%
X166314285Y-98618819D02*
X166314285Y-97618819D01*
X166314285Y-97618819D02*
X166076190Y-97618819D01*
X166076190Y-97618819D02*
X165933333Y-97666438D01*
X165933333Y-97666438D02*
X165838095Y-97761676D01*
X165838095Y-97761676D02*
X165790476Y-97856914D01*
X165790476Y-97856914D02*
X165742857Y-98047390D01*
X165742857Y-98047390D02*
X165742857Y-98190247D01*
X165742857Y-98190247D02*
X165790476Y-98380723D01*
X165790476Y-98380723D02*
X165838095Y-98475961D01*
X165838095Y-98475961D02*
X165933333Y-98571200D01*
X165933333Y-98571200D02*
X166076190Y-98618819D01*
X166076190Y-98618819D02*
X166314285Y-98618819D01*
X164790476Y-98618819D02*
X165361904Y-98618819D01*
X165076190Y-98618819D02*
X165076190Y-97618819D01*
X165076190Y-97618819D02*
X165171428Y-97761676D01*
X165171428Y-97761676D02*
X165266666Y-97856914D01*
X165266666Y-97856914D02*
X165361904Y-97904533D01*
X164457142Y-97618819D02*
X163838095Y-97618819D01*
X163838095Y-97618819D02*
X164171428Y-97999771D01*
X164171428Y-97999771D02*
X164028571Y-97999771D01*
X164028571Y-97999771D02*
X163933333Y-98047390D01*
X163933333Y-98047390D02*
X163885714Y-98095009D01*
X163885714Y-98095009D02*
X163838095Y-98190247D01*
X163838095Y-98190247D02*
X163838095Y-98428342D01*
X163838095Y-98428342D02*
X163885714Y-98523580D01*
X163885714Y-98523580D02*
X163933333Y-98571200D01*
X163933333Y-98571200D02*
X164028571Y-98618819D01*
X164028571Y-98618819D02*
X164314285Y-98618819D01*
X164314285Y-98618819D02*
X164409523Y-98571200D01*
X164409523Y-98571200D02*
X164457142Y-98523580D01*
%TO.C,D12*%
X223464285Y-124914819D02*
X223464285Y-123914819D01*
X223464285Y-123914819D02*
X223226190Y-123914819D01*
X223226190Y-123914819D02*
X223083333Y-123962438D01*
X223083333Y-123962438D02*
X222988095Y-124057676D01*
X222988095Y-124057676D02*
X222940476Y-124152914D01*
X222940476Y-124152914D02*
X222892857Y-124343390D01*
X222892857Y-124343390D02*
X222892857Y-124486247D01*
X222892857Y-124486247D02*
X222940476Y-124676723D01*
X222940476Y-124676723D02*
X222988095Y-124771961D01*
X222988095Y-124771961D02*
X223083333Y-124867200D01*
X223083333Y-124867200D02*
X223226190Y-124914819D01*
X223226190Y-124914819D02*
X223464285Y-124914819D01*
X221940476Y-124914819D02*
X222511904Y-124914819D01*
X222226190Y-124914819D02*
X222226190Y-123914819D01*
X222226190Y-123914819D02*
X222321428Y-124057676D01*
X222321428Y-124057676D02*
X222416666Y-124152914D01*
X222416666Y-124152914D02*
X222511904Y-124200533D01*
X221559523Y-124010057D02*
X221511904Y-123962438D01*
X221511904Y-123962438D02*
X221416666Y-123914819D01*
X221416666Y-123914819D02*
X221178571Y-123914819D01*
X221178571Y-123914819D02*
X221083333Y-123962438D01*
X221083333Y-123962438D02*
X221035714Y-124010057D01*
X221035714Y-124010057D02*
X220988095Y-124105295D01*
X220988095Y-124105295D02*
X220988095Y-124200533D01*
X220988095Y-124200533D02*
X221035714Y-124343390D01*
X221035714Y-124343390D02*
X221607142Y-124914819D01*
X221607142Y-124914819D02*
X220988095Y-124914819D01*
%TO.C,D11*%
X204614285Y-103046819D02*
X204614285Y-102046819D01*
X204614285Y-102046819D02*
X204376190Y-102046819D01*
X204376190Y-102046819D02*
X204233333Y-102094438D01*
X204233333Y-102094438D02*
X204138095Y-102189676D01*
X204138095Y-102189676D02*
X204090476Y-102284914D01*
X204090476Y-102284914D02*
X204042857Y-102475390D01*
X204042857Y-102475390D02*
X204042857Y-102618247D01*
X204042857Y-102618247D02*
X204090476Y-102808723D01*
X204090476Y-102808723D02*
X204138095Y-102903961D01*
X204138095Y-102903961D02*
X204233333Y-102999200D01*
X204233333Y-102999200D02*
X204376190Y-103046819D01*
X204376190Y-103046819D02*
X204614285Y-103046819D01*
X203090476Y-103046819D02*
X203661904Y-103046819D01*
X203376190Y-103046819D02*
X203376190Y-102046819D01*
X203376190Y-102046819D02*
X203471428Y-102189676D01*
X203471428Y-102189676D02*
X203566666Y-102284914D01*
X203566666Y-102284914D02*
X203661904Y-102332533D01*
X202138095Y-103046819D02*
X202709523Y-103046819D01*
X202423809Y-103046819D02*
X202423809Y-102046819D01*
X202423809Y-102046819D02*
X202519047Y-102189676D01*
X202519047Y-102189676D02*
X202614285Y-102284914D01*
X202614285Y-102284914D02*
X202709523Y-102332533D01*
%TO.C,D10*%
X185364285Y-122374819D02*
X185364285Y-121374819D01*
X185364285Y-121374819D02*
X185126190Y-121374819D01*
X185126190Y-121374819D02*
X184983333Y-121422438D01*
X184983333Y-121422438D02*
X184888095Y-121517676D01*
X184888095Y-121517676D02*
X184840476Y-121612914D01*
X184840476Y-121612914D02*
X184792857Y-121803390D01*
X184792857Y-121803390D02*
X184792857Y-121946247D01*
X184792857Y-121946247D02*
X184840476Y-122136723D01*
X184840476Y-122136723D02*
X184888095Y-122231961D01*
X184888095Y-122231961D02*
X184983333Y-122327200D01*
X184983333Y-122327200D02*
X185126190Y-122374819D01*
X185126190Y-122374819D02*
X185364285Y-122374819D01*
X183840476Y-122374819D02*
X184411904Y-122374819D01*
X184126190Y-122374819D02*
X184126190Y-121374819D01*
X184126190Y-121374819D02*
X184221428Y-121517676D01*
X184221428Y-121517676D02*
X184316666Y-121612914D01*
X184316666Y-121612914D02*
X184411904Y-121660533D01*
X183221428Y-121374819D02*
X183126190Y-121374819D01*
X183126190Y-121374819D02*
X183030952Y-121422438D01*
X183030952Y-121422438D02*
X182983333Y-121470057D01*
X182983333Y-121470057D02*
X182935714Y-121565295D01*
X182935714Y-121565295D02*
X182888095Y-121755771D01*
X182888095Y-121755771D02*
X182888095Y-121993866D01*
X182888095Y-121993866D02*
X182935714Y-122184342D01*
X182935714Y-122184342D02*
X182983333Y-122279580D01*
X182983333Y-122279580D02*
X183030952Y-122327200D01*
X183030952Y-122327200D02*
X183126190Y-122374819D01*
X183126190Y-122374819D02*
X183221428Y-122374819D01*
X183221428Y-122374819D02*
X183316666Y-122327200D01*
X183316666Y-122327200D02*
X183364285Y-122279580D01*
X183364285Y-122279580D02*
X183411904Y-122184342D01*
X183411904Y-122184342D02*
X183459523Y-121993866D01*
X183459523Y-121993866D02*
X183459523Y-121755771D01*
X183459523Y-121755771D02*
X183411904Y-121565295D01*
X183411904Y-121565295D02*
X183364285Y-121470057D01*
X183364285Y-121470057D02*
X183316666Y-121422438D01*
X183316666Y-121422438D02*
X183221428Y-121374819D01*
%TO.C,D9*%
X166200594Y-108318819D02*
X166200594Y-107318819D01*
X166200594Y-107318819D02*
X165962499Y-107318819D01*
X165962499Y-107318819D02*
X165819642Y-107366438D01*
X165819642Y-107366438D02*
X165724404Y-107461676D01*
X165724404Y-107461676D02*
X165676785Y-107556914D01*
X165676785Y-107556914D02*
X165629166Y-107747390D01*
X165629166Y-107747390D02*
X165629166Y-107890247D01*
X165629166Y-107890247D02*
X165676785Y-108080723D01*
X165676785Y-108080723D02*
X165724404Y-108175961D01*
X165724404Y-108175961D02*
X165819642Y-108271200D01*
X165819642Y-108271200D02*
X165962499Y-108318819D01*
X165962499Y-108318819D02*
X166200594Y-108318819D01*
X165152975Y-108318819D02*
X164962499Y-108318819D01*
X164962499Y-108318819D02*
X164867261Y-108271200D01*
X164867261Y-108271200D02*
X164819642Y-108223580D01*
X164819642Y-108223580D02*
X164724404Y-108080723D01*
X164724404Y-108080723D02*
X164676785Y-107890247D01*
X164676785Y-107890247D02*
X164676785Y-107509295D01*
X164676785Y-107509295D02*
X164724404Y-107414057D01*
X164724404Y-107414057D02*
X164772023Y-107366438D01*
X164772023Y-107366438D02*
X164867261Y-107318819D01*
X164867261Y-107318819D02*
X165057737Y-107318819D01*
X165057737Y-107318819D02*
X165152975Y-107366438D01*
X165152975Y-107366438D02*
X165200594Y-107414057D01*
X165200594Y-107414057D02*
X165248213Y-107509295D01*
X165248213Y-107509295D02*
X165248213Y-107747390D01*
X165248213Y-107747390D02*
X165200594Y-107842628D01*
X165200594Y-107842628D02*
X165152975Y-107890247D01*
X165152975Y-107890247D02*
X165057737Y-107937866D01*
X165057737Y-107937866D02*
X164867261Y-107937866D01*
X164867261Y-107937866D02*
X164772023Y-107890247D01*
X164772023Y-107890247D02*
X164724404Y-107842628D01*
X164724404Y-107842628D02*
X164676785Y-107747390D01*
%TO.C,D8*%
X137873894Y-163818219D02*
X137873894Y-162818219D01*
X137873894Y-162818219D02*
X137635799Y-162818219D01*
X137635799Y-162818219D02*
X137492942Y-162865838D01*
X137492942Y-162865838D02*
X137397704Y-162961076D01*
X137397704Y-162961076D02*
X137350085Y-163056314D01*
X137350085Y-163056314D02*
X137302466Y-163246790D01*
X137302466Y-163246790D02*
X137302466Y-163389647D01*
X137302466Y-163389647D02*
X137350085Y-163580123D01*
X137350085Y-163580123D02*
X137397704Y-163675361D01*
X137397704Y-163675361D02*
X137492942Y-163770600D01*
X137492942Y-163770600D02*
X137635799Y-163818219D01*
X137635799Y-163818219D02*
X137873894Y-163818219D01*
X136731037Y-163246790D02*
X136826275Y-163199171D01*
X136826275Y-163199171D02*
X136873894Y-163151552D01*
X136873894Y-163151552D02*
X136921513Y-163056314D01*
X136921513Y-163056314D02*
X136921513Y-163008695D01*
X136921513Y-163008695D02*
X136873894Y-162913457D01*
X136873894Y-162913457D02*
X136826275Y-162865838D01*
X136826275Y-162865838D02*
X136731037Y-162818219D01*
X136731037Y-162818219D02*
X136540561Y-162818219D01*
X136540561Y-162818219D02*
X136445323Y-162865838D01*
X136445323Y-162865838D02*
X136397704Y-162913457D01*
X136397704Y-162913457D02*
X136350085Y-163008695D01*
X136350085Y-163008695D02*
X136350085Y-163056314D01*
X136350085Y-163056314D02*
X136397704Y-163151552D01*
X136397704Y-163151552D02*
X136445323Y-163199171D01*
X136445323Y-163199171D02*
X136540561Y-163246790D01*
X136540561Y-163246790D02*
X136731037Y-163246790D01*
X136731037Y-163246790D02*
X136826275Y-163294409D01*
X136826275Y-163294409D02*
X136873894Y-163342028D01*
X136873894Y-163342028D02*
X136921513Y-163437266D01*
X136921513Y-163437266D02*
X136921513Y-163627742D01*
X136921513Y-163627742D02*
X136873894Y-163722980D01*
X136873894Y-163722980D02*
X136826275Y-163770600D01*
X136826275Y-163770600D02*
X136731037Y-163818219D01*
X136731037Y-163818219D02*
X136540561Y-163818219D01*
X136540561Y-163818219D02*
X136445323Y-163770600D01*
X136445323Y-163770600D02*
X136397704Y-163722980D01*
X136397704Y-163722980D02*
X136350085Y-163627742D01*
X136350085Y-163627742D02*
X136350085Y-163437266D01*
X136350085Y-163437266D02*
X136397704Y-163342028D01*
X136397704Y-163342028D02*
X136445323Y-163294409D01*
X136445323Y-163294409D02*
X136540561Y-163246790D01*
%TO.C,D7*%
X113301284Y-82088017D02*
X113509196Y-81109870D01*
X113509196Y-81109870D02*
X113276303Y-81060367D01*
X113276303Y-81060367D02*
X113126667Y-81077244D01*
X113126667Y-81077244D02*
X113013709Y-81150599D01*
X113013709Y-81150599D02*
X112947330Y-81233856D01*
X112947330Y-81233856D02*
X112861149Y-81410269D01*
X112861149Y-81410269D02*
X112831447Y-81550004D01*
X112831447Y-81550004D02*
X112838424Y-81746219D01*
X112838424Y-81746219D02*
X112865201Y-81849276D01*
X112865201Y-81849276D02*
X112938557Y-81962234D01*
X112938557Y-81962234D02*
X113068392Y-82038514D01*
X113068392Y-82038514D02*
X113301284Y-82088017D01*
X112624205Y-80921759D02*
X111972107Y-80783151D01*
X111972107Y-80783151D02*
X112183401Y-81850404D01*
%TO.C,D6*%
X95284979Y-78258534D02*
X95492891Y-77280387D01*
X95492891Y-77280387D02*
X95259998Y-77230884D01*
X95259998Y-77230884D02*
X95110362Y-77247761D01*
X95110362Y-77247761D02*
X94997404Y-77321116D01*
X94997404Y-77321116D02*
X94931025Y-77404373D01*
X94931025Y-77404373D02*
X94844844Y-77580786D01*
X94844844Y-77580786D02*
X94815142Y-77720521D01*
X94815142Y-77720521D02*
X94822119Y-77916736D01*
X94822119Y-77916736D02*
X94848896Y-78019793D01*
X94848896Y-78019793D02*
X94922252Y-78132751D01*
X94922252Y-78132751D02*
X95052087Y-78209031D01*
X95052087Y-78209031D02*
X95284979Y-78258534D01*
X94095537Y-76983370D02*
X94281851Y-77022972D01*
X94281851Y-77022972D02*
X94365107Y-77089352D01*
X94365107Y-77089352D02*
X94401785Y-77145831D01*
X94401785Y-77145831D02*
X94465240Y-77305367D01*
X94465240Y-77305367D02*
X94472216Y-77501582D01*
X94472216Y-77501582D02*
X94393012Y-77874209D01*
X94393012Y-77874209D02*
X94326632Y-77957466D01*
X94326632Y-77957466D02*
X94270153Y-77994143D01*
X94270153Y-77994143D02*
X94167096Y-78020921D01*
X94167096Y-78020921D02*
X93980782Y-77981319D01*
X93980782Y-77981319D02*
X93897526Y-77914939D01*
X93897526Y-77914939D02*
X93860848Y-77858460D01*
X93860848Y-77858460D02*
X93834071Y-77755403D01*
X93834071Y-77755403D02*
X93883573Y-77522510D01*
X93883573Y-77522510D02*
X93949953Y-77439254D01*
X93949953Y-77439254D02*
X94006432Y-77402576D01*
X94006432Y-77402576D02*
X94109489Y-77375799D01*
X94109489Y-77375799D02*
X94295803Y-77415401D01*
X94295803Y-77415401D02*
X94379060Y-77481780D01*
X94379060Y-77481780D02*
X94415737Y-77538259D01*
X94415737Y-77538259D02*
X94442515Y-77641317D01*
%TO.C,D5*%
X76033861Y-74166581D02*
X76241773Y-73188434D01*
X76241773Y-73188434D02*
X76008880Y-73138931D01*
X76008880Y-73138931D02*
X75859244Y-73155808D01*
X75859244Y-73155808D02*
X75746286Y-73229163D01*
X75746286Y-73229163D02*
X75679907Y-73312420D01*
X75679907Y-73312420D02*
X75593726Y-73488833D01*
X75593726Y-73488833D02*
X75564024Y-73628568D01*
X75564024Y-73628568D02*
X75571001Y-73824783D01*
X75571001Y-73824783D02*
X75597778Y-73927840D01*
X75597778Y-73927840D02*
X75671134Y-74040798D01*
X75671134Y-74040798D02*
X75800969Y-74117078D01*
X75800969Y-74117078D02*
X76033861Y-74166581D01*
X74797840Y-72881516D02*
X75263625Y-72980522D01*
X75263625Y-72980522D02*
X75211198Y-73456207D01*
X75211198Y-73456207D02*
X75174520Y-73399728D01*
X75174520Y-73399728D02*
X75091264Y-73333348D01*
X75091264Y-73333348D02*
X74858371Y-73283846D01*
X74858371Y-73283846D02*
X74755314Y-73310623D01*
X74755314Y-73310623D02*
X74698835Y-73347301D01*
X74698835Y-73347301D02*
X74632455Y-73430557D01*
X74632455Y-73430557D02*
X74582953Y-73663450D01*
X74582953Y-73663450D02*
X74609730Y-73766507D01*
X74609730Y-73766507D02*
X74646408Y-73822986D01*
X74646408Y-73822986D02*
X74729664Y-73889366D01*
X74729664Y-73889366D02*
X74962556Y-73938868D01*
X74962556Y-73938868D02*
X75065614Y-73912091D01*
X75065614Y-73912091D02*
X75122093Y-73875413D01*
%TO.C,D4*%
X91517063Y-103944409D02*
X91724975Y-102966262D01*
X91724975Y-102966262D02*
X91492082Y-102916759D01*
X91492082Y-102916759D02*
X91342446Y-102933636D01*
X91342446Y-102933636D02*
X91229488Y-103006991D01*
X91229488Y-103006991D02*
X91163109Y-103090248D01*
X91163109Y-103090248D02*
X91076928Y-103266661D01*
X91076928Y-103266661D02*
X91047226Y-103406396D01*
X91047226Y-103406396D02*
X91054203Y-103602611D01*
X91054203Y-103602611D02*
X91080980Y-103705668D01*
X91080980Y-103705668D02*
X91154336Y-103818626D01*
X91154336Y-103818626D02*
X91284171Y-103894906D01*
X91284171Y-103894906D02*
X91517063Y-103944409D01*
X90258317Y-102995294D02*
X90119709Y-103647392D01*
X90570414Y-102672169D02*
X90654798Y-103420349D01*
X90654798Y-103420349D02*
X90049278Y-103291642D01*
%TO.C,D3*%
X106090263Y-126874709D02*
X106298175Y-125896562D01*
X106298175Y-125896562D02*
X106065282Y-125847059D01*
X106065282Y-125847059D02*
X105915646Y-125863936D01*
X105915646Y-125863936D02*
X105802688Y-125937291D01*
X105802688Y-125937291D02*
X105736309Y-126020548D01*
X105736309Y-126020548D02*
X105650128Y-126196961D01*
X105650128Y-126196961D02*
X105620426Y-126336696D01*
X105620426Y-126336696D02*
X105627403Y-126532911D01*
X105627403Y-126532911D02*
X105654180Y-126635968D01*
X105654180Y-126635968D02*
X105727536Y-126748926D01*
X105727536Y-126748926D02*
X105857371Y-126825206D01*
X105857371Y-126825206D02*
X106090263Y-126874709D01*
X105413184Y-125708451D02*
X104807664Y-125579744D01*
X104807664Y-125579744D02*
X105054509Y-126021675D01*
X105054509Y-126021675D02*
X104914773Y-125991974D01*
X104914773Y-125991974D02*
X104811716Y-126018751D01*
X104811716Y-126018751D02*
X104755237Y-126055429D01*
X104755237Y-126055429D02*
X104688857Y-126138685D01*
X104688857Y-126138685D02*
X104639355Y-126371578D01*
X104639355Y-126371578D02*
X104666132Y-126474635D01*
X104666132Y-126474635D02*
X104702810Y-126531114D01*
X104702810Y-126531114D02*
X104786066Y-126597494D01*
X104786066Y-126597494D02*
X105065537Y-126656897D01*
X105065537Y-126656897D02*
X105168594Y-126630120D01*
X105168594Y-126630120D02*
X105225073Y-126593442D01*
%TO.C,D2*%
X87503563Y-122826609D02*
X87711475Y-121848462D01*
X87711475Y-121848462D02*
X87478582Y-121798959D01*
X87478582Y-121798959D02*
X87328946Y-121815836D01*
X87328946Y-121815836D02*
X87215988Y-121889191D01*
X87215988Y-121889191D02*
X87149609Y-121972448D01*
X87149609Y-121972448D02*
X87063428Y-122148861D01*
X87063428Y-122148861D02*
X87033726Y-122288596D01*
X87033726Y-122288596D02*
X87040703Y-122484811D01*
X87040703Y-122484811D02*
X87067480Y-122587868D01*
X87067480Y-122587868D02*
X87140836Y-122700826D01*
X87140836Y-122700826D02*
X87270671Y-122777106D01*
X87270671Y-122777106D02*
X87503563Y-122826609D01*
X86760104Y-121743607D02*
X86723426Y-121687128D01*
X86723426Y-121687128D02*
X86640170Y-121620749D01*
X86640170Y-121620749D02*
X86407278Y-121571246D01*
X86407278Y-121571246D02*
X86304220Y-121598023D01*
X86304220Y-121598023D02*
X86247741Y-121634701D01*
X86247741Y-121634701D02*
X86181362Y-121717958D01*
X86181362Y-121717958D02*
X86161561Y-121811115D01*
X86161561Y-121811115D02*
X86178437Y-121960750D01*
X86178437Y-121960750D02*
X86618572Y-122638499D01*
X86618572Y-122638499D02*
X86013052Y-122509791D01*
%TO.C,D1*%
X68621363Y-118813109D02*
X68829275Y-117834962D01*
X68829275Y-117834962D02*
X68596382Y-117785459D01*
X68596382Y-117785459D02*
X68446746Y-117802336D01*
X68446746Y-117802336D02*
X68333788Y-117875691D01*
X68333788Y-117875691D02*
X68267409Y-117958948D01*
X68267409Y-117958948D02*
X68181228Y-118135361D01*
X68181228Y-118135361D02*
X68151526Y-118275096D01*
X68151526Y-118275096D02*
X68158503Y-118471311D01*
X68158503Y-118471311D02*
X68185280Y-118574368D01*
X68185280Y-118574368D02*
X68258636Y-118687326D01*
X68258636Y-118687326D02*
X68388471Y-118763606D01*
X68388471Y-118763606D02*
X68621363Y-118813109D01*
X67130852Y-118496291D02*
X67689794Y-118615098D01*
X67410323Y-118555695D02*
X67618235Y-117577547D01*
X67618235Y-117577547D02*
X67681690Y-117737084D01*
X67681690Y-117737084D02*
X67755046Y-117850042D01*
X67755046Y-117850042D02*
X67838302Y-117916421D01*
%TO.C,U1*%
X206623619Y-59563095D02*
X207433142Y-59563095D01*
X207433142Y-59563095D02*
X207528380Y-59610714D01*
X207528380Y-59610714D02*
X207576000Y-59658333D01*
X207576000Y-59658333D02*
X207623619Y-59753571D01*
X207623619Y-59753571D02*
X207623619Y-59944047D01*
X207623619Y-59944047D02*
X207576000Y-60039285D01*
X207576000Y-60039285D02*
X207528380Y-60086904D01*
X207528380Y-60086904D02*
X207433142Y-60134523D01*
X207433142Y-60134523D02*
X206623619Y-60134523D01*
X207623619Y-61134523D02*
X207623619Y-60563095D01*
X207623619Y-60848809D02*
X206623619Y-60848809D01*
X206623619Y-60848809D02*
X206766476Y-60753571D01*
X206766476Y-60753571D02*
X206861714Y-60658333D01*
X206861714Y-60658333D02*
X206909333Y-60563095D01*
X206020294Y-72438372D02*
X206047231Y-72357560D01*
X206047231Y-72357560D02*
X206128043Y-72276748D01*
X206128043Y-72276748D02*
X206235793Y-72222873D01*
X206235793Y-72222873D02*
X206343542Y-72222873D01*
X206343542Y-72222873D02*
X206424355Y-72249810D01*
X206424355Y-72249810D02*
X206559042Y-72330623D01*
X206559042Y-72330623D02*
X206639854Y-72411435D01*
X206639854Y-72411435D02*
X206720666Y-72546122D01*
X206720666Y-72546122D02*
X206747603Y-72626934D01*
X206747603Y-72626934D02*
X206747603Y-72734684D01*
X206747603Y-72734684D02*
X206693729Y-72842433D01*
X206693729Y-72842433D02*
X206639854Y-72896308D01*
X206639854Y-72896308D02*
X206532104Y-72950183D01*
X206532104Y-72950183D02*
X206478229Y-72950183D01*
X206478229Y-72950183D02*
X206289668Y-72761621D01*
X206289668Y-72761621D02*
X206397417Y-72653871D01*
X206289668Y-73246494D02*
X205723982Y-72680809D01*
X205723982Y-72680809D02*
X205508483Y-72896308D01*
X205508483Y-72896308D02*
X205481546Y-72977120D01*
X205481546Y-72977120D02*
X205481546Y-73030995D01*
X205481546Y-73030995D02*
X205508483Y-73111807D01*
X205508483Y-73111807D02*
X205589295Y-73192619D01*
X205589295Y-73192619D02*
X205670107Y-73219557D01*
X205670107Y-73219557D02*
X205723982Y-73219557D01*
X205723982Y-73219557D02*
X205804794Y-73192619D01*
X205804794Y-73192619D02*
X206020294Y-72977120D01*
X205319921Y-73569743D02*
X205346859Y-73488931D01*
X205346859Y-73488931D02*
X205346859Y-73435056D01*
X205346859Y-73435056D02*
X205319921Y-73354244D01*
X205319921Y-73354244D02*
X205292984Y-73327306D01*
X205292984Y-73327306D02*
X205212172Y-73300369D01*
X205212172Y-73300369D02*
X205158297Y-73300369D01*
X205158297Y-73300369D02*
X205077485Y-73327306D01*
X205077485Y-73327306D02*
X204969735Y-73435056D01*
X204969735Y-73435056D02*
X204942798Y-73515868D01*
X204942798Y-73515868D02*
X204942798Y-73569743D01*
X204942798Y-73569743D02*
X204969735Y-73650555D01*
X204969735Y-73650555D02*
X204996672Y-73677493D01*
X204996672Y-73677493D02*
X205077485Y-73704430D01*
X205077485Y-73704430D02*
X205131359Y-73704430D01*
X205131359Y-73704430D02*
X205212172Y-73677493D01*
X205212172Y-73677493D02*
X205319921Y-73569743D01*
X205319921Y-73569743D02*
X205400733Y-73542806D01*
X205400733Y-73542806D02*
X205454608Y-73542806D01*
X205454608Y-73542806D02*
X205535420Y-73569743D01*
X205535420Y-73569743D02*
X205643170Y-73677493D01*
X205643170Y-73677493D02*
X205670107Y-73758305D01*
X205670107Y-73758305D02*
X205670107Y-73812180D01*
X205670107Y-73812180D02*
X205643170Y-73892992D01*
X205643170Y-73892992D02*
X205535420Y-74000741D01*
X205535420Y-74000741D02*
X205454608Y-74027679D01*
X205454608Y-74027679D02*
X205400733Y-74027679D01*
X205400733Y-74027679D02*
X205319921Y-74000741D01*
X205319921Y-74000741D02*
X205212172Y-73892992D01*
X205212172Y-73892992D02*
X205185234Y-73812180D01*
X205185234Y-73812180D02*
X205185234Y-73758305D01*
X205185234Y-73758305D02*
X205212172Y-73677493D01*
X183429668Y-72422998D02*
X183456605Y-72342185D01*
X183456605Y-72342185D02*
X183537418Y-72261373D01*
X183537418Y-72261373D02*
X183645167Y-72207498D01*
X183645167Y-72207498D02*
X183752917Y-72207498D01*
X183752917Y-72207498D02*
X183833729Y-72234436D01*
X183833729Y-72234436D02*
X183968416Y-72315248D01*
X183968416Y-72315248D02*
X184049228Y-72396060D01*
X184049228Y-72396060D02*
X184130041Y-72530747D01*
X184130041Y-72530747D02*
X184156978Y-72611560D01*
X184156978Y-72611560D02*
X184156978Y-72719309D01*
X184156978Y-72719309D02*
X184103103Y-72827059D01*
X184103103Y-72827059D02*
X184049228Y-72880934D01*
X184049228Y-72880934D02*
X183941479Y-72934808D01*
X183941479Y-72934808D02*
X183887604Y-72934808D01*
X183887604Y-72934808D02*
X183699042Y-72746247D01*
X183699042Y-72746247D02*
X183806792Y-72638497D01*
X183699042Y-73231120D02*
X183133357Y-72665434D01*
X183133357Y-72665434D02*
X182917857Y-72880934D01*
X182917857Y-72880934D02*
X182890920Y-72961746D01*
X182890920Y-72961746D02*
X182890920Y-73015621D01*
X182890920Y-73015621D02*
X182917857Y-73096433D01*
X182917857Y-73096433D02*
X182998670Y-73177245D01*
X182998670Y-73177245D02*
X183079482Y-73204182D01*
X183079482Y-73204182D02*
X183133357Y-73204182D01*
X183133357Y-73204182D02*
X183214169Y-73177245D01*
X183214169Y-73177245D02*
X183429668Y-72961746D01*
X182837045Y-74093117D02*
X183160294Y-73769868D01*
X182998670Y-73931492D02*
X182432984Y-73365807D01*
X182432984Y-73365807D02*
X182567671Y-73392744D01*
X182567671Y-73392744D02*
X182675421Y-73392744D01*
X182675421Y-73392744D02*
X182756233Y-73365807D01*
X181759549Y-74039242D02*
X182028923Y-73769868D01*
X182028923Y-73769868D02*
X182325234Y-74012305D01*
X182325234Y-74012305D02*
X182271360Y-74012305D01*
X182271360Y-74012305D02*
X182190547Y-74039242D01*
X182190547Y-74039242D02*
X182055860Y-74173929D01*
X182055860Y-74173929D02*
X182028923Y-74254741D01*
X182028923Y-74254741D02*
X182028923Y-74308616D01*
X182028923Y-74308616D02*
X182055860Y-74389428D01*
X182055860Y-74389428D02*
X182190547Y-74524115D01*
X182190547Y-74524115D02*
X182271360Y-74551053D01*
X182271360Y-74551053D02*
X182325234Y-74551053D01*
X182325234Y-74551053D02*
X182406047Y-74524115D01*
X182406047Y-74524115D02*
X182540734Y-74389428D01*
X182540734Y-74389428D02*
X182567671Y-74308616D01*
X182567671Y-74308616D02*
X182567671Y-74254741D01*
X231420294Y-72438372D02*
X231447231Y-72357560D01*
X231447231Y-72357560D02*
X231528043Y-72276748D01*
X231528043Y-72276748D02*
X231635793Y-72222873D01*
X231635793Y-72222873D02*
X231743542Y-72222873D01*
X231743542Y-72222873D02*
X231824355Y-72249810D01*
X231824355Y-72249810D02*
X231959042Y-72330623D01*
X231959042Y-72330623D02*
X232039854Y-72411435D01*
X232039854Y-72411435D02*
X232120666Y-72546122D01*
X232120666Y-72546122D02*
X232147603Y-72626934D01*
X232147603Y-72626934D02*
X232147603Y-72734684D01*
X232147603Y-72734684D02*
X232093729Y-72842433D01*
X232093729Y-72842433D02*
X232039854Y-72896308D01*
X232039854Y-72896308D02*
X231932104Y-72950183D01*
X231932104Y-72950183D02*
X231878229Y-72950183D01*
X231878229Y-72950183D02*
X231689668Y-72761621D01*
X231689668Y-72761621D02*
X231797417Y-72653871D01*
X231689668Y-73246494D02*
X231123982Y-72680809D01*
X231123982Y-72680809D02*
X230908483Y-72896308D01*
X230908483Y-72896308D02*
X230881546Y-72977120D01*
X230881546Y-72977120D02*
X230881546Y-73030995D01*
X230881546Y-73030995D02*
X230908483Y-73111807D01*
X230908483Y-73111807D02*
X230989295Y-73192619D01*
X230989295Y-73192619D02*
X231070107Y-73219557D01*
X231070107Y-73219557D02*
X231123982Y-73219557D01*
X231123982Y-73219557D02*
X231204794Y-73192619D01*
X231204794Y-73192619D02*
X231420294Y-72977120D01*
X230450547Y-73354244D02*
X230396672Y-73408119D01*
X230396672Y-73408119D02*
X230369735Y-73488931D01*
X230369735Y-73488931D02*
X230369735Y-73542806D01*
X230369735Y-73542806D02*
X230396672Y-73623618D01*
X230396672Y-73623618D02*
X230477485Y-73758305D01*
X230477485Y-73758305D02*
X230612172Y-73892992D01*
X230612172Y-73892992D02*
X230746859Y-73973804D01*
X230746859Y-73973804D02*
X230827671Y-74000741D01*
X230827671Y-74000741D02*
X230881546Y-74000741D01*
X230881546Y-74000741D02*
X230962358Y-73973804D01*
X230962358Y-73973804D02*
X231016233Y-73919929D01*
X231016233Y-73919929D02*
X231043170Y-73839117D01*
X231043170Y-73839117D02*
X231043170Y-73785242D01*
X231043170Y-73785242D02*
X231016233Y-73704430D01*
X231016233Y-73704430D02*
X230935420Y-73569743D01*
X230935420Y-73569743D02*
X230800733Y-73435056D01*
X230800733Y-73435056D02*
X230666046Y-73354244D01*
X230666046Y-73354244D02*
X230585234Y-73327306D01*
X230585234Y-73327306D02*
X230531359Y-73327306D01*
X230531359Y-73327306D02*
X230450547Y-73354244D01*
X185969668Y-46314998D02*
X185996605Y-46234185D01*
X185996605Y-46234185D02*
X186077418Y-46153373D01*
X186077418Y-46153373D02*
X186185167Y-46099498D01*
X186185167Y-46099498D02*
X186292917Y-46099498D01*
X186292917Y-46099498D02*
X186373729Y-46126436D01*
X186373729Y-46126436D02*
X186508416Y-46207248D01*
X186508416Y-46207248D02*
X186589228Y-46288060D01*
X186589228Y-46288060D02*
X186670041Y-46422747D01*
X186670041Y-46422747D02*
X186696978Y-46503560D01*
X186696978Y-46503560D02*
X186696978Y-46611309D01*
X186696978Y-46611309D02*
X186643103Y-46719059D01*
X186643103Y-46719059D02*
X186589228Y-46772934D01*
X186589228Y-46772934D02*
X186481479Y-46826808D01*
X186481479Y-46826808D02*
X186427604Y-46826808D01*
X186427604Y-46826808D02*
X186239042Y-46638247D01*
X186239042Y-46638247D02*
X186346792Y-46530497D01*
X186239042Y-47123120D02*
X185673357Y-46557434D01*
X185673357Y-46557434D02*
X185457857Y-46772934D01*
X185457857Y-46772934D02*
X185430920Y-46853746D01*
X185430920Y-46853746D02*
X185430920Y-46907621D01*
X185430920Y-46907621D02*
X185457857Y-46988433D01*
X185457857Y-46988433D02*
X185538670Y-47069245D01*
X185538670Y-47069245D02*
X185619482Y-47096182D01*
X185619482Y-47096182D02*
X185673357Y-47096182D01*
X185673357Y-47096182D02*
X185754169Y-47069245D01*
X185754169Y-47069245D02*
X185969668Y-46853746D01*
X185377045Y-47985117D02*
X185700294Y-47661868D01*
X185538670Y-47823492D02*
X184972984Y-47257807D01*
X184972984Y-47257807D02*
X185107671Y-47284744D01*
X185107671Y-47284744D02*
X185215421Y-47284744D01*
X185215421Y-47284744D02*
X185296233Y-47257807D01*
X184622798Y-47607993D02*
X184245674Y-47985117D01*
X184245674Y-47985117D02*
X185053796Y-48308366D01*
X213667231Y-72411435D02*
X213694168Y-72330623D01*
X213694168Y-72330623D02*
X213774980Y-72249811D01*
X213774980Y-72249811D02*
X213882730Y-72195936D01*
X213882730Y-72195936D02*
X213990480Y-72195936D01*
X213990480Y-72195936D02*
X214071292Y-72222873D01*
X214071292Y-72222873D02*
X214205979Y-72303685D01*
X214205979Y-72303685D02*
X214286791Y-72384498D01*
X214286791Y-72384498D02*
X214367603Y-72519185D01*
X214367603Y-72519185D02*
X214394541Y-72599997D01*
X214394541Y-72599997D02*
X214394541Y-72707746D01*
X214394541Y-72707746D02*
X214340666Y-72815496D01*
X214340666Y-72815496D02*
X214286791Y-72869371D01*
X214286791Y-72869371D02*
X214179041Y-72923246D01*
X214179041Y-72923246D02*
X214125167Y-72923246D01*
X214125167Y-72923246D02*
X213936605Y-72734684D01*
X213936605Y-72734684D02*
X214044354Y-72626934D01*
X213936605Y-73219557D02*
X213370919Y-72653872D01*
X213370919Y-72653872D02*
X213613356Y-73542806D01*
X213613356Y-73542806D02*
X213047671Y-72977120D01*
X213343982Y-73812180D02*
X212778297Y-73246494D01*
X212778297Y-73246494D02*
X212643610Y-73381181D01*
X212643610Y-73381181D02*
X212589735Y-73488931D01*
X212589735Y-73488931D02*
X212589735Y-73596680D01*
X212589735Y-73596680D02*
X212616672Y-73677493D01*
X212616672Y-73677493D02*
X212697485Y-73812180D01*
X212697485Y-73812180D02*
X212778297Y-73892992D01*
X212778297Y-73892992D02*
X212912984Y-73973804D01*
X212912984Y-73973804D02*
X212993796Y-74000741D01*
X212993796Y-74000741D02*
X213101546Y-74000741D01*
X213101546Y-74000741D02*
X213209295Y-73946867D01*
X213209295Y-73946867D02*
X213343982Y-73812180D01*
X211359668Y-46314998D02*
X211386605Y-46234185D01*
X211386605Y-46234185D02*
X211467418Y-46153373D01*
X211467418Y-46153373D02*
X211575167Y-46099498D01*
X211575167Y-46099498D02*
X211682917Y-46099498D01*
X211682917Y-46099498D02*
X211763729Y-46126436D01*
X211763729Y-46126436D02*
X211898416Y-46207248D01*
X211898416Y-46207248D02*
X211979228Y-46288060D01*
X211979228Y-46288060D02*
X212060041Y-46422747D01*
X212060041Y-46422747D02*
X212086978Y-46503560D01*
X212086978Y-46503560D02*
X212086978Y-46611309D01*
X212086978Y-46611309D02*
X212033103Y-46719059D01*
X212033103Y-46719059D02*
X211979228Y-46772934D01*
X211979228Y-46772934D02*
X211871479Y-46826808D01*
X211871479Y-46826808D02*
X211817604Y-46826808D01*
X211817604Y-46826808D02*
X211629042Y-46638247D01*
X211629042Y-46638247D02*
X211736792Y-46530497D01*
X211629042Y-47123120D02*
X211063357Y-46557434D01*
X211063357Y-46557434D02*
X210847857Y-46772934D01*
X210847857Y-46772934D02*
X210820920Y-46853746D01*
X210820920Y-46853746D02*
X210820920Y-46907621D01*
X210820920Y-46907621D02*
X210847857Y-46988433D01*
X210847857Y-46988433D02*
X210928670Y-47069245D01*
X210928670Y-47069245D02*
X211009482Y-47096182D01*
X211009482Y-47096182D02*
X211063357Y-47096182D01*
X211063357Y-47096182D02*
X211144169Y-47069245D01*
X211144169Y-47069245D02*
X211359668Y-46853746D01*
X210578483Y-47150057D02*
X210524609Y-47150057D01*
X210524609Y-47150057D02*
X210443796Y-47176995D01*
X210443796Y-47176995D02*
X210309109Y-47311682D01*
X210309109Y-47311682D02*
X210282172Y-47392494D01*
X210282172Y-47392494D02*
X210282172Y-47446369D01*
X210282172Y-47446369D02*
X210309109Y-47527181D01*
X210309109Y-47527181D02*
X210362984Y-47581056D01*
X210362984Y-47581056D02*
X210470734Y-47634930D01*
X210470734Y-47634930D02*
X211117231Y-47634930D01*
X211117231Y-47634930D02*
X210767045Y-47985117D01*
X210012798Y-47607993D02*
X209635674Y-47985117D01*
X209635674Y-47985117D02*
X210443796Y-48308366D01*
X181293000Y-64215475D02*
X181331095Y-64329761D01*
X181331095Y-64329761D02*
X181331095Y-64520237D01*
X181331095Y-64520237D02*
X181293000Y-64596428D01*
X181293000Y-64596428D02*
X181254904Y-64634523D01*
X181254904Y-64634523D02*
X181178714Y-64672618D01*
X181178714Y-64672618D02*
X181102523Y-64672618D01*
X181102523Y-64672618D02*
X181026333Y-64634523D01*
X181026333Y-64634523D02*
X180988238Y-64596428D01*
X180988238Y-64596428D02*
X180950142Y-64520237D01*
X180950142Y-64520237D02*
X180912047Y-64367856D01*
X180912047Y-64367856D02*
X180873952Y-64291666D01*
X180873952Y-64291666D02*
X180835857Y-64253571D01*
X180835857Y-64253571D02*
X180759666Y-64215475D01*
X180759666Y-64215475D02*
X180683476Y-64215475D01*
X180683476Y-64215475D02*
X180607285Y-64253571D01*
X180607285Y-64253571D02*
X180569190Y-64291666D01*
X180569190Y-64291666D02*
X180531095Y-64367856D01*
X180531095Y-64367856D02*
X180531095Y-64558333D01*
X180531095Y-64558333D02*
X180569190Y-64672618D01*
X180531095Y-64939285D02*
X181331095Y-65129761D01*
X181331095Y-65129761D02*
X180759666Y-65282142D01*
X180759666Y-65282142D02*
X181331095Y-65434523D01*
X181331095Y-65434523D02*
X180531095Y-65625000D01*
X181254904Y-66386905D02*
X181293000Y-66348809D01*
X181293000Y-66348809D02*
X181331095Y-66234524D01*
X181331095Y-66234524D02*
X181331095Y-66158333D01*
X181331095Y-66158333D02*
X181293000Y-66044047D01*
X181293000Y-66044047D02*
X181216809Y-65967857D01*
X181216809Y-65967857D02*
X181140619Y-65929762D01*
X181140619Y-65929762D02*
X180988238Y-65891666D01*
X180988238Y-65891666D02*
X180873952Y-65891666D01*
X180873952Y-65891666D02*
X180721571Y-65929762D01*
X180721571Y-65929762D02*
X180645380Y-65967857D01*
X180645380Y-65967857D02*
X180569190Y-66044047D01*
X180569190Y-66044047D02*
X180531095Y-66158333D01*
X180531095Y-66158333D02*
X180531095Y-66234524D01*
X180531095Y-66234524D02*
X180569190Y-66348809D01*
X180569190Y-66348809D02*
X180607285Y-66386905D01*
X181331095Y-67110714D02*
X181331095Y-66729762D01*
X181331095Y-66729762D02*
X180531095Y-66729762D01*
X181331095Y-67377381D02*
X180531095Y-67377381D01*
X181331095Y-67834524D02*
X180873952Y-67491666D01*
X180531095Y-67834524D02*
X180988238Y-67377381D01*
X221702849Y-41335064D02*
X221433475Y-41604438D01*
X221918349Y-41442813D02*
X221164101Y-41065690D01*
X221164101Y-41065690D02*
X221541225Y-41819937D01*
X221352663Y-42008499D02*
X220786978Y-41442813D01*
X220786978Y-41442813D02*
X220652291Y-41577500D01*
X220652291Y-41577500D02*
X220598416Y-41685250D01*
X220598416Y-41685250D02*
X220598416Y-41792999D01*
X220598416Y-41792999D02*
X220625353Y-41873812D01*
X220625353Y-41873812D02*
X220706166Y-42008499D01*
X220706166Y-42008499D02*
X220786978Y-42089311D01*
X220786978Y-42089311D02*
X220921665Y-42170123D01*
X220921665Y-42170123D02*
X221002477Y-42197060D01*
X221002477Y-42197060D02*
X221110227Y-42197060D01*
X221110227Y-42197060D02*
X221217976Y-42143186D01*
X221217976Y-42143186D02*
X221352663Y-42008499D01*
X220409854Y-42843558D02*
X220463729Y-42843558D01*
X220463729Y-42843558D02*
X220571479Y-42789683D01*
X220571479Y-42789683D02*
X220625353Y-42735808D01*
X220625353Y-42735808D02*
X220679228Y-42628059D01*
X220679228Y-42628059D02*
X220679228Y-42520309D01*
X220679228Y-42520309D02*
X220652291Y-42439497D01*
X220652291Y-42439497D02*
X220571479Y-42304810D01*
X220571479Y-42304810D02*
X220490666Y-42223998D01*
X220490666Y-42223998D02*
X220355979Y-42143186D01*
X220355979Y-42143186D02*
X220275167Y-42116248D01*
X220275167Y-42116248D02*
X220167418Y-42116248D01*
X220167418Y-42116248D02*
X220059668Y-42170123D01*
X220059668Y-42170123D02*
X220005793Y-42223998D01*
X220005793Y-42223998D02*
X219951918Y-42331747D01*
X219951918Y-42331747D02*
X219951918Y-42385622D01*
X220409854Y-43059057D02*
X219978856Y-43490056D01*
X219305421Y-42924370D02*
X219682544Y-43678618D01*
X219682544Y-43678618D02*
X218928297Y-43301494D01*
X218982172Y-44378990D02*
X218901360Y-43921054D01*
X219305421Y-44055741D02*
X218739735Y-43490056D01*
X218739735Y-43490056D02*
X218524236Y-43705555D01*
X218524236Y-43705555D02*
X218497299Y-43786367D01*
X218497299Y-43786367D02*
X218497299Y-43840242D01*
X218497299Y-43840242D02*
X218524236Y-43921054D01*
X218524236Y-43921054D02*
X218605048Y-44001866D01*
X218605048Y-44001866D02*
X218685861Y-44028804D01*
X218685861Y-44028804D02*
X218739735Y-44028804D01*
X218739735Y-44028804D02*
X218820548Y-44001866D01*
X218820548Y-44001866D02*
X219036047Y-43786367D01*
X218443424Y-44325115D02*
X218254862Y-44513677D01*
X218470361Y-44890800D02*
X218739735Y-44621426D01*
X218739735Y-44621426D02*
X218174050Y-44055741D01*
X218174050Y-44055741D02*
X217904676Y-44325115D01*
X217743051Y-45025488D02*
X217931613Y-44836926D01*
X218227925Y-45133237D02*
X217662239Y-44567552D01*
X217662239Y-44567552D02*
X217392865Y-44836926D01*
X196129668Y-46314998D02*
X196156605Y-46234185D01*
X196156605Y-46234185D02*
X196237418Y-46153373D01*
X196237418Y-46153373D02*
X196345167Y-46099498D01*
X196345167Y-46099498D02*
X196452917Y-46099498D01*
X196452917Y-46099498D02*
X196533729Y-46126436D01*
X196533729Y-46126436D02*
X196668416Y-46207248D01*
X196668416Y-46207248D02*
X196749228Y-46288060D01*
X196749228Y-46288060D02*
X196830041Y-46422747D01*
X196830041Y-46422747D02*
X196856978Y-46503560D01*
X196856978Y-46503560D02*
X196856978Y-46611309D01*
X196856978Y-46611309D02*
X196803103Y-46719059D01*
X196803103Y-46719059D02*
X196749228Y-46772934D01*
X196749228Y-46772934D02*
X196641479Y-46826808D01*
X196641479Y-46826808D02*
X196587604Y-46826808D01*
X196587604Y-46826808D02*
X196399042Y-46638247D01*
X196399042Y-46638247D02*
X196506792Y-46530497D01*
X196399042Y-47123120D02*
X195833357Y-46557434D01*
X195833357Y-46557434D02*
X195617857Y-46772934D01*
X195617857Y-46772934D02*
X195590920Y-46853746D01*
X195590920Y-46853746D02*
X195590920Y-46907621D01*
X195590920Y-46907621D02*
X195617857Y-46988433D01*
X195617857Y-46988433D02*
X195698670Y-47069245D01*
X195698670Y-47069245D02*
X195779482Y-47096182D01*
X195779482Y-47096182D02*
X195833357Y-47096182D01*
X195833357Y-47096182D02*
X195914169Y-47069245D01*
X195914169Y-47069245D02*
X196129668Y-46853746D01*
X195348483Y-47150057D02*
X195294609Y-47150057D01*
X195294609Y-47150057D02*
X195213796Y-47176995D01*
X195213796Y-47176995D02*
X195079109Y-47311682D01*
X195079109Y-47311682D02*
X195052172Y-47392494D01*
X195052172Y-47392494D02*
X195052172Y-47446369D01*
X195052172Y-47446369D02*
X195079109Y-47527181D01*
X195079109Y-47527181D02*
X195132984Y-47581056D01*
X195132984Y-47581056D02*
X195240734Y-47634930D01*
X195240734Y-47634930D02*
X195887231Y-47634930D01*
X195887231Y-47634930D02*
X195537045Y-47985117D01*
X194621173Y-47769618D02*
X194567299Y-47823492D01*
X194567299Y-47823492D02*
X194540361Y-47904305D01*
X194540361Y-47904305D02*
X194540361Y-47958179D01*
X194540361Y-47958179D02*
X194567299Y-48038992D01*
X194567299Y-48038992D02*
X194648111Y-48173679D01*
X194648111Y-48173679D02*
X194782798Y-48308366D01*
X194782798Y-48308366D02*
X194917485Y-48389178D01*
X194917485Y-48389178D02*
X194998297Y-48416115D01*
X194998297Y-48416115D02*
X195052172Y-48416115D01*
X195052172Y-48416115D02*
X195132984Y-48389178D01*
X195132984Y-48389178D02*
X195186859Y-48335303D01*
X195186859Y-48335303D02*
X195213796Y-48254491D01*
X195213796Y-48254491D02*
X195213796Y-48200616D01*
X195213796Y-48200616D02*
X195186859Y-48119804D01*
X195186859Y-48119804D02*
X195106047Y-47985117D01*
X195106047Y-47985117D02*
X194971360Y-47850430D01*
X194971360Y-47850430D02*
X194836673Y-47769618D01*
X194836673Y-47769618D02*
X194755860Y-47742680D01*
X194755860Y-47742680D02*
X194701986Y-47742680D01*
X194701986Y-47742680D02*
X194621173Y-47769618D01*
X200967231Y-72411435D02*
X200994168Y-72330623D01*
X200994168Y-72330623D02*
X201074980Y-72249811D01*
X201074980Y-72249811D02*
X201182730Y-72195936D01*
X201182730Y-72195936D02*
X201290480Y-72195936D01*
X201290480Y-72195936D02*
X201371292Y-72222873D01*
X201371292Y-72222873D02*
X201505979Y-72303685D01*
X201505979Y-72303685D02*
X201586791Y-72384498D01*
X201586791Y-72384498D02*
X201667603Y-72519185D01*
X201667603Y-72519185D02*
X201694541Y-72599997D01*
X201694541Y-72599997D02*
X201694541Y-72707746D01*
X201694541Y-72707746D02*
X201640666Y-72815496D01*
X201640666Y-72815496D02*
X201586791Y-72869371D01*
X201586791Y-72869371D02*
X201479041Y-72923246D01*
X201479041Y-72923246D02*
X201425167Y-72923246D01*
X201425167Y-72923246D02*
X201236605Y-72734684D01*
X201236605Y-72734684D02*
X201344354Y-72626934D01*
X201236605Y-73219557D02*
X200670919Y-72653872D01*
X200670919Y-72653872D02*
X200913356Y-73542806D01*
X200913356Y-73542806D02*
X200347671Y-72977120D01*
X200643982Y-73812180D02*
X200078297Y-73246494D01*
X200078297Y-73246494D02*
X199943610Y-73381181D01*
X199943610Y-73381181D02*
X199889735Y-73488931D01*
X199889735Y-73488931D02*
X199889735Y-73596680D01*
X199889735Y-73596680D02*
X199916672Y-73677493D01*
X199916672Y-73677493D02*
X199997485Y-73812180D01*
X199997485Y-73812180D02*
X200078297Y-73892992D01*
X200078297Y-73892992D02*
X200212984Y-73973804D01*
X200212984Y-73973804D02*
X200293796Y-74000741D01*
X200293796Y-74000741D02*
X200401546Y-74000741D01*
X200401546Y-74000741D02*
X200509295Y-73946867D01*
X200509295Y-73946867D02*
X200643982Y-73812180D01*
X221459668Y-46415123D02*
X221109482Y-46765309D01*
X221109482Y-46765309D02*
X221513543Y-46792247D01*
X221513543Y-46792247D02*
X221432731Y-46873059D01*
X221432731Y-46873059D02*
X221405793Y-46953871D01*
X221405793Y-46953871D02*
X221405793Y-47007746D01*
X221405793Y-47007746D02*
X221432731Y-47088558D01*
X221432731Y-47088558D02*
X221567418Y-47223245D01*
X221567418Y-47223245D02*
X221648230Y-47250182D01*
X221648230Y-47250182D02*
X221702105Y-47250182D01*
X221702105Y-47250182D02*
X221782917Y-47223245D01*
X221782917Y-47223245D02*
X221944541Y-47061621D01*
X221944541Y-47061621D02*
X221971479Y-46980808D01*
X221971479Y-46980808D02*
X221971479Y-46926934D01*
X220947857Y-46926934D02*
X221324981Y-47681181D01*
X221324981Y-47681181D02*
X220570734Y-47304057D01*
X220436047Y-47438744D02*
X220085861Y-47788930D01*
X220085861Y-47788930D02*
X220489922Y-47815868D01*
X220489922Y-47815868D02*
X220409109Y-47896680D01*
X220409109Y-47896680D02*
X220382172Y-47977492D01*
X220382172Y-47977492D02*
X220382172Y-48031367D01*
X220382172Y-48031367D02*
X220409109Y-48112179D01*
X220409109Y-48112179D02*
X220543796Y-48246866D01*
X220543796Y-48246866D02*
X220624609Y-48273804D01*
X220624609Y-48273804D02*
X220678483Y-48273804D01*
X220678483Y-48273804D02*
X220759296Y-48246866D01*
X220759296Y-48246866D02*
X220920920Y-48085242D01*
X220920920Y-48085242D02*
X220947857Y-48004430D01*
X220947857Y-48004430D02*
X220947857Y-47950555D01*
X200967231Y-46811435D02*
X200994168Y-46730623D01*
X200994168Y-46730623D02*
X201074980Y-46649811D01*
X201074980Y-46649811D02*
X201182730Y-46595936D01*
X201182730Y-46595936D02*
X201290480Y-46595936D01*
X201290480Y-46595936D02*
X201371292Y-46622873D01*
X201371292Y-46622873D02*
X201505979Y-46703685D01*
X201505979Y-46703685D02*
X201586791Y-46784498D01*
X201586791Y-46784498D02*
X201667603Y-46919185D01*
X201667603Y-46919185D02*
X201694541Y-46999997D01*
X201694541Y-46999997D02*
X201694541Y-47107746D01*
X201694541Y-47107746D02*
X201640666Y-47215496D01*
X201640666Y-47215496D02*
X201586791Y-47269371D01*
X201586791Y-47269371D02*
X201479041Y-47323246D01*
X201479041Y-47323246D02*
X201425167Y-47323246D01*
X201425167Y-47323246D02*
X201236605Y-47134684D01*
X201236605Y-47134684D02*
X201344354Y-47026934D01*
X201236605Y-47619557D02*
X200670919Y-47053872D01*
X200670919Y-47053872D02*
X200913356Y-47942806D01*
X200913356Y-47942806D02*
X200347671Y-47377120D01*
X200643982Y-48212180D02*
X200078297Y-47646494D01*
X200078297Y-47646494D02*
X199943610Y-47781181D01*
X199943610Y-47781181D02*
X199889735Y-47888931D01*
X199889735Y-47888931D02*
X199889735Y-47996680D01*
X199889735Y-47996680D02*
X199916672Y-48077493D01*
X199916672Y-48077493D02*
X199997485Y-48212180D01*
X199997485Y-48212180D02*
X200078297Y-48292992D01*
X200078297Y-48292992D02*
X200212984Y-48373804D01*
X200212984Y-48373804D02*
X200293796Y-48400741D01*
X200293796Y-48400741D02*
X200401546Y-48400741D01*
X200401546Y-48400741D02*
X200509295Y-48346867D01*
X200509295Y-48346867D02*
X200643982Y-48212180D01*
X188267231Y-46811435D02*
X188294168Y-46730623D01*
X188294168Y-46730623D02*
X188374980Y-46649811D01*
X188374980Y-46649811D02*
X188482730Y-46595936D01*
X188482730Y-46595936D02*
X188590480Y-46595936D01*
X188590480Y-46595936D02*
X188671292Y-46622873D01*
X188671292Y-46622873D02*
X188805979Y-46703685D01*
X188805979Y-46703685D02*
X188886791Y-46784498D01*
X188886791Y-46784498D02*
X188967603Y-46919185D01*
X188967603Y-46919185D02*
X188994541Y-46999997D01*
X188994541Y-46999997D02*
X188994541Y-47107746D01*
X188994541Y-47107746D02*
X188940666Y-47215496D01*
X188940666Y-47215496D02*
X188886791Y-47269371D01*
X188886791Y-47269371D02*
X188779041Y-47323246D01*
X188779041Y-47323246D02*
X188725167Y-47323246D01*
X188725167Y-47323246D02*
X188536605Y-47134684D01*
X188536605Y-47134684D02*
X188644354Y-47026934D01*
X188536605Y-47619557D02*
X187970919Y-47053872D01*
X187970919Y-47053872D02*
X188213356Y-47942806D01*
X188213356Y-47942806D02*
X187647671Y-47377120D01*
X187943982Y-48212180D02*
X187378297Y-47646494D01*
X187378297Y-47646494D02*
X187243610Y-47781181D01*
X187243610Y-47781181D02*
X187189735Y-47888931D01*
X187189735Y-47888931D02*
X187189735Y-47996680D01*
X187189735Y-47996680D02*
X187216672Y-48077493D01*
X187216672Y-48077493D02*
X187297485Y-48212180D01*
X187297485Y-48212180D02*
X187378297Y-48292992D01*
X187378297Y-48292992D02*
X187512984Y-48373804D01*
X187512984Y-48373804D02*
X187593796Y-48400741D01*
X187593796Y-48400741D02*
X187701546Y-48400741D01*
X187701546Y-48400741D02*
X187809295Y-48346867D01*
X187809295Y-48346867D02*
X187943982Y-48212180D01*
X206572510Y-47163651D02*
X206491698Y-46705716D01*
X206895759Y-46840403D02*
X206330074Y-46274717D01*
X206330074Y-46274717D02*
X206114575Y-46490216D01*
X206114575Y-46490216D02*
X206087637Y-46571029D01*
X206087637Y-46571029D02*
X206087637Y-46624903D01*
X206087637Y-46624903D02*
X206114575Y-46705716D01*
X206114575Y-46705716D02*
X206195387Y-46786528D01*
X206195387Y-46786528D02*
X206276199Y-46813465D01*
X206276199Y-46813465D02*
X206330074Y-46813465D01*
X206330074Y-46813465D02*
X206410886Y-46786528D01*
X206410886Y-46786528D02*
X206626385Y-46571029D01*
X205764388Y-46840403D02*
X206222324Y-47298338D01*
X206222324Y-47298338D02*
X206249262Y-47379151D01*
X206249262Y-47379151D02*
X206249262Y-47433025D01*
X206249262Y-47433025D02*
X206222324Y-47513838D01*
X206222324Y-47513838D02*
X206114575Y-47621587D01*
X206114575Y-47621587D02*
X206033762Y-47648525D01*
X206033762Y-47648525D02*
X205979888Y-47648525D01*
X205979888Y-47648525D02*
X205899075Y-47621587D01*
X205899075Y-47621587D02*
X205441140Y-47163651D01*
X205737451Y-47998711D02*
X205171766Y-47433025D01*
X205171766Y-47433025D02*
X205414202Y-48321959D01*
X205414202Y-48321959D02*
X204848517Y-47756274D01*
X185969668Y-72468998D02*
X185996605Y-72388185D01*
X185996605Y-72388185D02*
X186077418Y-72307373D01*
X186077418Y-72307373D02*
X186185167Y-72253498D01*
X186185167Y-72253498D02*
X186292917Y-72253498D01*
X186292917Y-72253498D02*
X186373729Y-72280436D01*
X186373729Y-72280436D02*
X186508416Y-72361248D01*
X186508416Y-72361248D02*
X186589228Y-72442060D01*
X186589228Y-72442060D02*
X186670041Y-72576747D01*
X186670041Y-72576747D02*
X186696978Y-72657560D01*
X186696978Y-72657560D02*
X186696978Y-72765309D01*
X186696978Y-72765309D02*
X186643103Y-72873059D01*
X186643103Y-72873059D02*
X186589228Y-72926934D01*
X186589228Y-72926934D02*
X186481479Y-72980808D01*
X186481479Y-72980808D02*
X186427604Y-72980808D01*
X186427604Y-72980808D02*
X186239042Y-72792247D01*
X186239042Y-72792247D02*
X186346792Y-72684497D01*
X186239042Y-73277120D02*
X185673357Y-72711434D01*
X185673357Y-72711434D02*
X185457857Y-72926934D01*
X185457857Y-72926934D02*
X185430920Y-73007746D01*
X185430920Y-73007746D02*
X185430920Y-73061621D01*
X185430920Y-73061621D02*
X185457857Y-73142433D01*
X185457857Y-73142433D02*
X185538670Y-73223245D01*
X185538670Y-73223245D02*
X185619482Y-73250182D01*
X185619482Y-73250182D02*
X185673357Y-73250182D01*
X185673357Y-73250182D02*
X185754169Y-73223245D01*
X185754169Y-73223245D02*
X185969668Y-73007746D01*
X185377045Y-74139117D02*
X185700294Y-73815868D01*
X185538670Y-73977492D02*
X184972984Y-73411807D01*
X184972984Y-73411807D02*
X185107671Y-73438744D01*
X185107671Y-73438744D02*
X185215421Y-73438744D01*
X185215421Y-73438744D02*
X185296233Y-73411807D01*
X184515048Y-74246866D02*
X184892172Y-74623990D01*
X184434236Y-73896680D02*
X184972984Y-74166054D01*
X184972984Y-74166054D02*
X184622798Y-74516240D01*
X193589668Y-72568998D02*
X193616605Y-72488185D01*
X193616605Y-72488185D02*
X193697418Y-72407373D01*
X193697418Y-72407373D02*
X193805167Y-72353498D01*
X193805167Y-72353498D02*
X193912917Y-72353498D01*
X193912917Y-72353498D02*
X193993729Y-72380436D01*
X193993729Y-72380436D02*
X194128416Y-72461248D01*
X194128416Y-72461248D02*
X194209228Y-72542060D01*
X194209228Y-72542060D02*
X194290041Y-72676747D01*
X194290041Y-72676747D02*
X194316978Y-72757560D01*
X194316978Y-72757560D02*
X194316978Y-72865309D01*
X194316978Y-72865309D02*
X194263103Y-72973059D01*
X194263103Y-72973059D02*
X194209228Y-73026934D01*
X194209228Y-73026934D02*
X194101479Y-73080808D01*
X194101479Y-73080808D02*
X194047604Y-73080808D01*
X194047604Y-73080808D02*
X193859042Y-72892247D01*
X193859042Y-72892247D02*
X193966792Y-72784497D01*
X193859042Y-73377120D02*
X193293357Y-72811434D01*
X193293357Y-72811434D02*
X193077857Y-73026934D01*
X193077857Y-73026934D02*
X193050920Y-73107746D01*
X193050920Y-73107746D02*
X193050920Y-73161621D01*
X193050920Y-73161621D02*
X193077857Y-73242433D01*
X193077857Y-73242433D02*
X193158670Y-73323245D01*
X193158670Y-73323245D02*
X193239482Y-73350182D01*
X193239482Y-73350182D02*
X193293357Y-73350182D01*
X193293357Y-73350182D02*
X193374169Y-73323245D01*
X193374169Y-73323245D02*
X193589668Y-73107746D01*
X192997045Y-74239117D02*
X193320294Y-73915868D01*
X193158670Y-74077492D02*
X192592984Y-73511807D01*
X192592984Y-73511807D02*
X192727671Y-73538744D01*
X192727671Y-73538744D02*
X192835421Y-73538744D01*
X192835421Y-73538744D02*
X192916233Y-73511807D01*
X192269735Y-73942805D02*
X192215860Y-73942805D01*
X192215860Y-73942805D02*
X192135048Y-73969743D01*
X192135048Y-73969743D02*
X192000361Y-74104430D01*
X192000361Y-74104430D02*
X191973424Y-74185242D01*
X191973424Y-74185242D02*
X191973424Y-74239117D01*
X191973424Y-74239117D02*
X192000361Y-74319929D01*
X192000361Y-74319929D02*
X192054236Y-74373804D01*
X192054236Y-74373804D02*
X192161986Y-74427679D01*
X192161986Y-74427679D02*
X192808483Y-74427679D01*
X192808483Y-74427679D02*
X192458297Y-74777865D01*
X226367231Y-46811435D02*
X226394168Y-46730623D01*
X226394168Y-46730623D02*
X226474980Y-46649811D01*
X226474980Y-46649811D02*
X226582730Y-46595936D01*
X226582730Y-46595936D02*
X226690480Y-46595936D01*
X226690480Y-46595936D02*
X226771292Y-46622873D01*
X226771292Y-46622873D02*
X226905979Y-46703685D01*
X226905979Y-46703685D02*
X226986791Y-46784498D01*
X226986791Y-46784498D02*
X227067603Y-46919185D01*
X227067603Y-46919185D02*
X227094541Y-46999997D01*
X227094541Y-46999997D02*
X227094541Y-47107746D01*
X227094541Y-47107746D02*
X227040666Y-47215496D01*
X227040666Y-47215496D02*
X226986791Y-47269371D01*
X226986791Y-47269371D02*
X226879041Y-47323246D01*
X226879041Y-47323246D02*
X226825167Y-47323246D01*
X226825167Y-47323246D02*
X226636605Y-47134684D01*
X226636605Y-47134684D02*
X226744354Y-47026934D01*
X226636605Y-47619557D02*
X226070919Y-47053872D01*
X226070919Y-47053872D02*
X226313356Y-47942806D01*
X226313356Y-47942806D02*
X225747671Y-47377120D01*
X226043982Y-48212180D02*
X225478297Y-47646494D01*
X225478297Y-47646494D02*
X225343610Y-47781181D01*
X225343610Y-47781181D02*
X225289735Y-47888931D01*
X225289735Y-47888931D02*
X225289735Y-47996680D01*
X225289735Y-47996680D02*
X225316672Y-48077493D01*
X225316672Y-48077493D02*
X225397485Y-48212180D01*
X225397485Y-48212180D02*
X225478297Y-48292992D01*
X225478297Y-48292992D02*
X225612984Y-48373804D01*
X225612984Y-48373804D02*
X225693796Y-48400741D01*
X225693796Y-48400741D02*
X225801546Y-48400741D01*
X225801546Y-48400741D02*
X225909295Y-48346867D01*
X225909295Y-48346867D02*
X226043982Y-48212180D01*
X183429668Y-46314998D02*
X183456605Y-46234185D01*
X183456605Y-46234185D02*
X183537418Y-46153373D01*
X183537418Y-46153373D02*
X183645167Y-46099498D01*
X183645167Y-46099498D02*
X183752917Y-46099498D01*
X183752917Y-46099498D02*
X183833729Y-46126436D01*
X183833729Y-46126436D02*
X183968416Y-46207248D01*
X183968416Y-46207248D02*
X184049228Y-46288060D01*
X184049228Y-46288060D02*
X184130041Y-46422747D01*
X184130041Y-46422747D02*
X184156978Y-46503560D01*
X184156978Y-46503560D02*
X184156978Y-46611309D01*
X184156978Y-46611309D02*
X184103103Y-46719059D01*
X184103103Y-46719059D02*
X184049228Y-46772934D01*
X184049228Y-46772934D02*
X183941479Y-46826808D01*
X183941479Y-46826808D02*
X183887604Y-46826808D01*
X183887604Y-46826808D02*
X183699042Y-46638247D01*
X183699042Y-46638247D02*
X183806792Y-46530497D01*
X183699042Y-47123120D02*
X183133357Y-46557434D01*
X183133357Y-46557434D02*
X182917857Y-46772934D01*
X182917857Y-46772934D02*
X182890920Y-46853746D01*
X182890920Y-46853746D02*
X182890920Y-46907621D01*
X182890920Y-46907621D02*
X182917857Y-46988433D01*
X182917857Y-46988433D02*
X182998670Y-47069245D01*
X182998670Y-47069245D02*
X183079482Y-47096182D01*
X183079482Y-47096182D02*
X183133357Y-47096182D01*
X183133357Y-47096182D02*
X183214169Y-47069245D01*
X183214169Y-47069245D02*
X183429668Y-46853746D01*
X182837045Y-47985117D02*
X183160294Y-47661868D01*
X182998670Y-47823492D02*
X182432984Y-47257807D01*
X182432984Y-47257807D02*
X182567671Y-47284744D01*
X182567671Y-47284744D02*
X182675421Y-47284744D01*
X182675421Y-47284744D02*
X182756233Y-47257807D01*
X181786486Y-47904305D02*
X181894236Y-47796555D01*
X181894236Y-47796555D02*
X181975048Y-47769618D01*
X181975048Y-47769618D02*
X182028923Y-47769618D01*
X182028923Y-47769618D02*
X182163610Y-47796555D01*
X182163610Y-47796555D02*
X182298297Y-47877367D01*
X182298297Y-47877367D02*
X182513796Y-48092866D01*
X182513796Y-48092866D02*
X182540734Y-48173679D01*
X182540734Y-48173679D02*
X182540734Y-48227553D01*
X182540734Y-48227553D02*
X182513796Y-48308366D01*
X182513796Y-48308366D02*
X182406047Y-48416115D01*
X182406047Y-48416115D02*
X182325234Y-48443053D01*
X182325234Y-48443053D02*
X182271360Y-48443053D01*
X182271360Y-48443053D02*
X182190547Y-48416115D01*
X182190547Y-48416115D02*
X182055860Y-48281428D01*
X182055860Y-48281428D02*
X182028923Y-48200616D01*
X182028923Y-48200616D02*
X182028923Y-48146741D01*
X182028923Y-48146741D02*
X182055860Y-48065929D01*
X182055860Y-48065929D02*
X182163610Y-47958179D01*
X182163610Y-47958179D02*
X182244422Y-47931242D01*
X182244422Y-47931242D02*
X182298297Y-47931242D01*
X182298297Y-47931242D02*
X182379109Y-47958179D01*
X216703668Y-46314998D02*
X216730605Y-46234185D01*
X216730605Y-46234185D02*
X216811418Y-46153373D01*
X216811418Y-46153373D02*
X216919167Y-46099498D01*
X216919167Y-46099498D02*
X217026917Y-46099498D01*
X217026917Y-46099498D02*
X217107729Y-46126436D01*
X217107729Y-46126436D02*
X217242416Y-46207248D01*
X217242416Y-46207248D02*
X217323228Y-46288060D01*
X217323228Y-46288060D02*
X217404041Y-46422747D01*
X217404041Y-46422747D02*
X217430978Y-46503560D01*
X217430978Y-46503560D02*
X217430978Y-46611309D01*
X217430978Y-46611309D02*
X217377103Y-46719059D01*
X217377103Y-46719059D02*
X217323228Y-46772934D01*
X217323228Y-46772934D02*
X217215479Y-46826808D01*
X217215479Y-46826808D02*
X217161604Y-46826808D01*
X217161604Y-46826808D02*
X216973042Y-46638247D01*
X216973042Y-46638247D02*
X217080792Y-46530497D01*
X216973042Y-47123120D02*
X216407357Y-46557434D01*
X216407357Y-46557434D02*
X216191857Y-46772934D01*
X216191857Y-46772934D02*
X216164920Y-46853746D01*
X216164920Y-46853746D02*
X216164920Y-46907621D01*
X216164920Y-46907621D02*
X216191857Y-46988433D01*
X216191857Y-46988433D02*
X216272670Y-47069245D01*
X216272670Y-47069245D02*
X216353482Y-47096182D01*
X216353482Y-47096182D02*
X216407357Y-47096182D01*
X216407357Y-47096182D02*
X216488169Y-47069245D01*
X216488169Y-47069245D02*
X216703668Y-46853746D01*
X215922483Y-47150057D02*
X215868609Y-47150057D01*
X215868609Y-47150057D02*
X215787796Y-47176995D01*
X215787796Y-47176995D02*
X215653109Y-47311682D01*
X215653109Y-47311682D02*
X215626172Y-47392494D01*
X215626172Y-47392494D02*
X215626172Y-47446369D01*
X215626172Y-47446369D02*
X215653109Y-47527181D01*
X215653109Y-47527181D02*
X215706984Y-47581056D01*
X215706984Y-47581056D02*
X215814734Y-47634930D01*
X215814734Y-47634930D02*
X216461231Y-47634930D01*
X216461231Y-47634930D02*
X216111045Y-47985117D01*
X215464547Y-47985117D02*
X215491485Y-47904305D01*
X215491485Y-47904305D02*
X215491485Y-47850430D01*
X215491485Y-47850430D02*
X215464547Y-47769618D01*
X215464547Y-47769618D02*
X215437610Y-47742680D01*
X215437610Y-47742680D02*
X215356798Y-47715743D01*
X215356798Y-47715743D02*
X215302923Y-47715743D01*
X215302923Y-47715743D02*
X215222111Y-47742680D01*
X215222111Y-47742680D02*
X215114361Y-47850430D01*
X215114361Y-47850430D02*
X215087424Y-47931242D01*
X215087424Y-47931242D02*
X215087424Y-47985117D01*
X215087424Y-47985117D02*
X215114361Y-48065929D01*
X215114361Y-48065929D02*
X215141299Y-48092866D01*
X215141299Y-48092866D02*
X215222111Y-48119804D01*
X215222111Y-48119804D02*
X215275986Y-48119804D01*
X215275986Y-48119804D02*
X215356798Y-48092866D01*
X215356798Y-48092866D02*
X215464547Y-47985117D01*
X215464547Y-47985117D02*
X215545360Y-47958179D01*
X215545360Y-47958179D02*
X215599234Y-47958179D01*
X215599234Y-47958179D02*
X215680047Y-47985117D01*
X215680047Y-47985117D02*
X215787796Y-48092866D01*
X215787796Y-48092866D02*
X215814734Y-48173679D01*
X215814734Y-48173679D02*
X215814734Y-48227553D01*
X215814734Y-48227553D02*
X215787796Y-48308366D01*
X215787796Y-48308366D02*
X215680047Y-48416115D01*
X215680047Y-48416115D02*
X215599234Y-48443053D01*
X215599234Y-48443053D02*
X215545360Y-48443053D01*
X215545360Y-48443053D02*
X215464547Y-48416115D01*
X215464547Y-48416115D02*
X215356798Y-48308366D01*
X215356798Y-48308366D02*
X215329860Y-48227553D01*
X215329860Y-48227553D02*
X215329860Y-48173679D01*
X215329860Y-48173679D02*
X215356798Y-48092866D01*
X198659668Y-46314998D02*
X198686605Y-46234185D01*
X198686605Y-46234185D02*
X198767418Y-46153373D01*
X198767418Y-46153373D02*
X198875167Y-46099498D01*
X198875167Y-46099498D02*
X198982917Y-46099498D01*
X198982917Y-46099498D02*
X199063729Y-46126436D01*
X199063729Y-46126436D02*
X199198416Y-46207248D01*
X199198416Y-46207248D02*
X199279228Y-46288060D01*
X199279228Y-46288060D02*
X199360041Y-46422747D01*
X199360041Y-46422747D02*
X199386978Y-46503560D01*
X199386978Y-46503560D02*
X199386978Y-46611309D01*
X199386978Y-46611309D02*
X199333103Y-46719059D01*
X199333103Y-46719059D02*
X199279228Y-46772934D01*
X199279228Y-46772934D02*
X199171479Y-46826808D01*
X199171479Y-46826808D02*
X199117604Y-46826808D01*
X199117604Y-46826808D02*
X198929042Y-46638247D01*
X198929042Y-46638247D02*
X199036792Y-46530497D01*
X198929042Y-47123120D02*
X198363357Y-46557434D01*
X198363357Y-46557434D02*
X198147857Y-46772934D01*
X198147857Y-46772934D02*
X198120920Y-46853746D01*
X198120920Y-46853746D02*
X198120920Y-46907621D01*
X198120920Y-46907621D02*
X198147857Y-46988433D01*
X198147857Y-46988433D02*
X198228670Y-47069245D01*
X198228670Y-47069245D02*
X198309482Y-47096182D01*
X198309482Y-47096182D02*
X198363357Y-47096182D01*
X198363357Y-47096182D02*
X198444169Y-47069245D01*
X198444169Y-47069245D02*
X198659668Y-46853746D01*
X197878483Y-47150057D02*
X197824609Y-47150057D01*
X197824609Y-47150057D02*
X197743796Y-47176995D01*
X197743796Y-47176995D02*
X197609109Y-47311682D01*
X197609109Y-47311682D02*
X197582172Y-47392494D01*
X197582172Y-47392494D02*
X197582172Y-47446369D01*
X197582172Y-47446369D02*
X197609109Y-47527181D01*
X197609109Y-47527181D02*
X197662984Y-47581056D01*
X197662984Y-47581056D02*
X197770734Y-47634930D01*
X197770734Y-47634930D02*
X198417231Y-47634930D01*
X198417231Y-47634930D02*
X198067045Y-47985117D01*
X197528297Y-48523865D02*
X197851546Y-48200616D01*
X197689921Y-48362240D02*
X197124236Y-47796555D01*
X197124236Y-47796555D02*
X197258923Y-47823492D01*
X197258923Y-47823492D02*
X197366673Y-47823492D01*
X197366673Y-47823492D02*
X197447485Y-47796555D01*
X181293000Y-53029761D02*
X181331095Y-53144047D01*
X181331095Y-53144047D02*
X181331095Y-53334523D01*
X181331095Y-53334523D02*
X181293000Y-53410714D01*
X181293000Y-53410714D02*
X181254904Y-53448809D01*
X181254904Y-53448809D02*
X181178714Y-53486904D01*
X181178714Y-53486904D02*
X181102523Y-53486904D01*
X181102523Y-53486904D02*
X181026333Y-53448809D01*
X181026333Y-53448809D02*
X180988238Y-53410714D01*
X180988238Y-53410714D02*
X180950142Y-53334523D01*
X180950142Y-53334523D02*
X180912047Y-53182142D01*
X180912047Y-53182142D02*
X180873952Y-53105952D01*
X180873952Y-53105952D02*
X180835857Y-53067857D01*
X180835857Y-53067857D02*
X180759666Y-53029761D01*
X180759666Y-53029761D02*
X180683476Y-53029761D01*
X180683476Y-53029761D02*
X180607285Y-53067857D01*
X180607285Y-53067857D02*
X180569190Y-53105952D01*
X180569190Y-53105952D02*
X180531095Y-53182142D01*
X180531095Y-53182142D02*
X180531095Y-53372619D01*
X180531095Y-53372619D02*
X180569190Y-53486904D01*
X180531095Y-53753571D02*
X181331095Y-53944047D01*
X181331095Y-53944047D02*
X180759666Y-54096428D01*
X180759666Y-54096428D02*
X181331095Y-54248809D01*
X181331095Y-54248809D02*
X180531095Y-54439286D01*
X181331095Y-54744048D02*
X180531095Y-54744048D01*
X180531095Y-54744048D02*
X180531095Y-54934524D01*
X180531095Y-54934524D02*
X180569190Y-55048810D01*
X180569190Y-55048810D02*
X180645380Y-55125000D01*
X180645380Y-55125000D02*
X180721571Y-55163095D01*
X180721571Y-55163095D02*
X180873952Y-55201191D01*
X180873952Y-55201191D02*
X180988238Y-55201191D01*
X180988238Y-55201191D02*
X181140619Y-55163095D01*
X181140619Y-55163095D02*
X181216809Y-55125000D01*
X181216809Y-55125000D02*
X181293000Y-55048810D01*
X181293000Y-55048810D02*
X181331095Y-54934524D01*
X181331095Y-54934524D02*
X181331095Y-54744048D01*
X181331095Y-55544048D02*
X180531095Y-55544048D01*
X180531095Y-56077381D02*
X180531095Y-56229762D01*
X180531095Y-56229762D02*
X180569190Y-56305952D01*
X180569190Y-56305952D02*
X180645380Y-56382143D01*
X180645380Y-56382143D02*
X180797761Y-56420238D01*
X180797761Y-56420238D02*
X181064428Y-56420238D01*
X181064428Y-56420238D02*
X181216809Y-56382143D01*
X181216809Y-56382143D02*
X181293000Y-56305952D01*
X181293000Y-56305952D02*
X181331095Y-56229762D01*
X181331095Y-56229762D02*
X181331095Y-56077381D01*
X181331095Y-56077381D02*
X181293000Y-56001190D01*
X181293000Y-56001190D02*
X181216809Y-55925000D01*
X181216809Y-55925000D02*
X181064428Y-55886904D01*
X181064428Y-55886904D02*
X180797761Y-55886904D01*
X180797761Y-55886904D02*
X180645380Y-55925000D01*
X180645380Y-55925000D02*
X180569190Y-56001190D01*
X180569190Y-56001190D02*
X180531095Y-56077381D01*
X191049668Y-72422998D02*
X191076605Y-72342185D01*
X191076605Y-72342185D02*
X191157418Y-72261373D01*
X191157418Y-72261373D02*
X191265167Y-72207498D01*
X191265167Y-72207498D02*
X191372917Y-72207498D01*
X191372917Y-72207498D02*
X191453729Y-72234436D01*
X191453729Y-72234436D02*
X191588416Y-72315248D01*
X191588416Y-72315248D02*
X191669228Y-72396060D01*
X191669228Y-72396060D02*
X191750041Y-72530747D01*
X191750041Y-72530747D02*
X191776978Y-72611560D01*
X191776978Y-72611560D02*
X191776978Y-72719309D01*
X191776978Y-72719309D02*
X191723103Y-72827059D01*
X191723103Y-72827059D02*
X191669228Y-72880934D01*
X191669228Y-72880934D02*
X191561479Y-72934808D01*
X191561479Y-72934808D02*
X191507604Y-72934808D01*
X191507604Y-72934808D02*
X191319042Y-72746247D01*
X191319042Y-72746247D02*
X191426792Y-72638497D01*
X191319042Y-73231120D02*
X190753357Y-72665434D01*
X190753357Y-72665434D02*
X190537857Y-72880934D01*
X190537857Y-72880934D02*
X190510920Y-72961746D01*
X190510920Y-72961746D02*
X190510920Y-73015621D01*
X190510920Y-73015621D02*
X190537857Y-73096433D01*
X190537857Y-73096433D02*
X190618670Y-73177245D01*
X190618670Y-73177245D02*
X190699482Y-73204182D01*
X190699482Y-73204182D02*
X190753357Y-73204182D01*
X190753357Y-73204182D02*
X190834169Y-73177245D01*
X190834169Y-73177245D02*
X191049668Y-72961746D01*
X190457045Y-74093117D02*
X190780294Y-73769868D01*
X190618670Y-73931492D02*
X190052984Y-73365807D01*
X190052984Y-73365807D02*
X190187671Y-73392744D01*
X190187671Y-73392744D02*
X190295421Y-73392744D01*
X190295421Y-73392744D02*
X190376233Y-73365807D01*
X189702798Y-73715993D02*
X189352612Y-74066179D01*
X189352612Y-74066179D02*
X189756673Y-74093117D01*
X189756673Y-74093117D02*
X189675860Y-74173929D01*
X189675860Y-74173929D02*
X189648923Y-74254741D01*
X189648923Y-74254741D02*
X189648923Y-74308616D01*
X189648923Y-74308616D02*
X189675860Y-74389428D01*
X189675860Y-74389428D02*
X189810547Y-74524115D01*
X189810547Y-74524115D02*
X189891360Y-74551053D01*
X189891360Y-74551053D02*
X189945234Y-74551053D01*
X189945234Y-74551053D02*
X190026047Y-74524115D01*
X190026047Y-74524115D02*
X190187671Y-74362491D01*
X190187671Y-74362491D02*
X190214608Y-74281679D01*
X190214608Y-74281679D02*
X190214608Y-74227804D01*
X228890294Y-72538372D02*
X228917231Y-72457560D01*
X228917231Y-72457560D02*
X228998043Y-72376748D01*
X228998043Y-72376748D02*
X229105793Y-72322873D01*
X229105793Y-72322873D02*
X229213542Y-72322873D01*
X229213542Y-72322873D02*
X229294355Y-72349810D01*
X229294355Y-72349810D02*
X229429042Y-72430623D01*
X229429042Y-72430623D02*
X229509854Y-72511435D01*
X229509854Y-72511435D02*
X229590666Y-72646122D01*
X229590666Y-72646122D02*
X229617603Y-72726934D01*
X229617603Y-72726934D02*
X229617603Y-72834684D01*
X229617603Y-72834684D02*
X229563729Y-72942433D01*
X229563729Y-72942433D02*
X229509854Y-72996308D01*
X229509854Y-72996308D02*
X229402104Y-73050183D01*
X229402104Y-73050183D02*
X229348229Y-73050183D01*
X229348229Y-73050183D02*
X229159668Y-72861621D01*
X229159668Y-72861621D02*
X229267417Y-72753871D01*
X229159668Y-73346494D02*
X228593982Y-72780809D01*
X228593982Y-72780809D02*
X228378483Y-72996308D01*
X228378483Y-72996308D02*
X228351546Y-73077120D01*
X228351546Y-73077120D02*
X228351546Y-73130995D01*
X228351546Y-73130995D02*
X228378483Y-73211807D01*
X228378483Y-73211807D02*
X228459295Y-73292619D01*
X228459295Y-73292619D02*
X228540107Y-73319557D01*
X228540107Y-73319557D02*
X228593982Y-73319557D01*
X228593982Y-73319557D02*
X228674794Y-73292619D01*
X228674794Y-73292619D02*
X228890294Y-73077120D01*
X228297671Y-74208491D02*
X228620920Y-73885242D01*
X228459295Y-74046867D02*
X227893610Y-73481181D01*
X227893610Y-73481181D02*
X228028297Y-73508119D01*
X228028297Y-73508119D02*
X228136046Y-73508119D01*
X228136046Y-73508119D02*
X228216859Y-73481181D01*
X232096385Y-45678406D02*
X232473509Y-46432653D01*
X232473509Y-46432653D02*
X231719262Y-46055529D01*
X231611512Y-46702027D02*
X231557638Y-46809776D01*
X231557638Y-46809776D02*
X231557638Y-46863651D01*
X231557638Y-46863651D02*
X231584575Y-46944463D01*
X231584575Y-46944463D02*
X231665387Y-47025276D01*
X231665387Y-47025276D02*
X231746199Y-47052213D01*
X231746199Y-47052213D02*
X231800074Y-47052213D01*
X231800074Y-47052213D02*
X231880886Y-47025276D01*
X231880886Y-47025276D02*
X232096386Y-46809776D01*
X232096386Y-46809776D02*
X231530700Y-46244091D01*
X231530700Y-46244091D02*
X231342138Y-46432653D01*
X231342138Y-46432653D02*
X231315201Y-46513465D01*
X231315201Y-46513465D02*
X231315201Y-46567340D01*
X231315201Y-46567340D02*
X231342138Y-46648152D01*
X231342138Y-46648152D02*
X231396013Y-46702027D01*
X231396013Y-46702027D02*
X231476825Y-46728964D01*
X231476825Y-46728964D02*
X231530700Y-46728964D01*
X231530700Y-46728964D02*
X231611512Y-46702027D01*
X231611512Y-46702027D02*
X231800074Y-46513465D01*
X230965015Y-46809776D02*
X231422951Y-47267712D01*
X231422951Y-47267712D02*
X231449888Y-47348524D01*
X231449888Y-47348524D02*
X231449888Y-47402399D01*
X231449888Y-47402399D02*
X231422951Y-47483211D01*
X231422951Y-47483211D02*
X231315201Y-47590961D01*
X231315201Y-47590961D02*
X231234389Y-47617898D01*
X231234389Y-47617898D02*
X231180514Y-47617898D01*
X231180514Y-47617898D02*
X231099702Y-47590961D01*
X231099702Y-47590961D02*
X230641766Y-47133025D01*
X230938077Y-47914210D02*
X230884203Y-48021959D01*
X230884203Y-48021959D02*
X230749516Y-48156646D01*
X230749516Y-48156646D02*
X230668703Y-48183584D01*
X230668703Y-48183584D02*
X230614829Y-48183584D01*
X230614829Y-48183584D02*
X230534016Y-48156646D01*
X230534016Y-48156646D02*
X230480142Y-48102771D01*
X230480142Y-48102771D02*
X230453204Y-48021959D01*
X230453204Y-48021959D02*
X230453204Y-47968084D01*
X230453204Y-47968084D02*
X230480142Y-47887272D01*
X230480142Y-47887272D02*
X230560954Y-47752585D01*
X230560954Y-47752585D02*
X230587891Y-47671773D01*
X230587891Y-47671773D02*
X230587891Y-47617898D01*
X230587891Y-47617898D02*
X230560954Y-47537086D01*
X230560954Y-47537086D02*
X230507079Y-47483211D01*
X230507079Y-47483211D02*
X230426267Y-47456274D01*
X230426267Y-47456274D02*
X230372392Y-47456274D01*
X230372392Y-47456274D02*
X230291580Y-47483211D01*
X230291580Y-47483211D02*
X230156893Y-47617898D01*
X230156893Y-47617898D02*
X230103018Y-47725648D01*
X211100294Y-72438372D02*
X211127231Y-72357560D01*
X211127231Y-72357560D02*
X211208043Y-72276748D01*
X211208043Y-72276748D02*
X211315793Y-72222873D01*
X211315793Y-72222873D02*
X211423542Y-72222873D01*
X211423542Y-72222873D02*
X211504355Y-72249810D01*
X211504355Y-72249810D02*
X211639042Y-72330623D01*
X211639042Y-72330623D02*
X211719854Y-72411435D01*
X211719854Y-72411435D02*
X211800666Y-72546122D01*
X211800666Y-72546122D02*
X211827603Y-72626934D01*
X211827603Y-72626934D02*
X211827603Y-72734684D01*
X211827603Y-72734684D02*
X211773729Y-72842433D01*
X211773729Y-72842433D02*
X211719854Y-72896308D01*
X211719854Y-72896308D02*
X211612104Y-72950183D01*
X211612104Y-72950183D02*
X211558229Y-72950183D01*
X211558229Y-72950183D02*
X211369668Y-72761621D01*
X211369668Y-72761621D02*
X211477417Y-72653871D01*
X211369668Y-73246494D02*
X210803982Y-72680809D01*
X210803982Y-72680809D02*
X210588483Y-72896308D01*
X210588483Y-72896308D02*
X210561546Y-72977120D01*
X210561546Y-72977120D02*
X210561546Y-73030995D01*
X210561546Y-73030995D02*
X210588483Y-73111807D01*
X210588483Y-73111807D02*
X210669295Y-73192619D01*
X210669295Y-73192619D02*
X210750107Y-73219557D01*
X210750107Y-73219557D02*
X210803982Y-73219557D01*
X210803982Y-73219557D02*
X210884794Y-73192619D01*
X210884794Y-73192619D02*
X211100294Y-72977120D01*
X209995860Y-73488931D02*
X210103610Y-73381181D01*
X210103610Y-73381181D02*
X210184422Y-73354244D01*
X210184422Y-73354244D02*
X210238297Y-73354244D01*
X210238297Y-73354244D02*
X210372984Y-73381181D01*
X210372984Y-73381181D02*
X210507671Y-73461993D01*
X210507671Y-73461993D02*
X210723170Y-73677493D01*
X210723170Y-73677493D02*
X210750107Y-73758305D01*
X210750107Y-73758305D02*
X210750107Y-73812180D01*
X210750107Y-73812180D02*
X210723170Y-73892992D01*
X210723170Y-73892992D02*
X210615420Y-74000741D01*
X210615420Y-74000741D02*
X210534608Y-74027679D01*
X210534608Y-74027679D02*
X210480733Y-74027679D01*
X210480733Y-74027679D02*
X210399921Y-74000741D01*
X210399921Y-74000741D02*
X210265234Y-73866054D01*
X210265234Y-73866054D02*
X210238297Y-73785242D01*
X210238297Y-73785242D02*
X210238297Y-73731367D01*
X210238297Y-73731367D02*
X210265234Y-73650555D01*
X210265234Y-73650555D02*
X210372984Y-73542806D01*
X210372984Y-73542806D02*
X210453796Y-73515868D01*
X210453796Y-73515868D02*
X210507671Y-73515868D01*
X210507671Y-73515868D02*
X210588483Y-73542806D01*
X214610040Y-46368873D02*
X214340666Y-46638247D01*
X214825539Y-46476623D02*
X214071292Y-46099499D01*
X214071292Y-46099499D02*
X214448415Y-46853746D01*
X213424794Y-46799871D02*
X213451732Y-46719059D01*
X213451732Y-46719059D02*
X213532544Y-46638247D01*
X213532544Y-46638247D02*
X213640294Y-46584372D01*
X213640294Y-46584372D02*
X213748043Y-46584372D01*
X213748043Y-46584372D02*
X213828855Y-46611310D01*
X213828855Y-46611310D02*
X213963542Y-46692122D01*
X213963542Y-46692122D02*
X214044355Y-46772934D01*
X214044355Y-46772934D02*
X214125167Y-46907621D01*
X214125167Y-46907621D02*
X214152104Y-46988433D01*
X214152104Y-46988433D02*
X214152104Y-47096183D01*
X214152104Y-47096183D02*
X214098229Y-47203932D01*
X214098229Y-47203932D02*
X214044355Y-47257807D01*
X214044355Y-47257807D02*
X213936605Y-47311682D01*
X213936605Y-47311682D02*
X213882730Y-47311682D01*
X213882730Y-47311682D02*
X213694168Y-47123120D01*
X213694168Y-47123120D02*
X213801918Y-47015371D01*
X213694168Y-47607993D02*
X213128483Y-47042308D01*
X213128483Y-47042308D02*
X213370920Y-47931242D01*
X213370920Y-47931242D02*
X212805234Y-47365557D01*
X213101546Y-48200616D02*
X212535860Y-47634931D01*
X212535860Y-47634931D02*
X212401173Y-47769618D01*
X212401173Y-47769618D02*
X212347298Y-47877367D01*
X212347298Y-47877367D02*
X212347298Y-47985117D01*
X212347298Y-47985117D02*
X212374236Y-48065929D01*
X212374236Y-48065929D02*
X212455048Y-48200616D01*
X212455048Y-48200616D02*
X212535860Y-48281428D01*
X212535860Y-48281428D02*
X212670547Y-48362241D01*
X212670547Y-48362241D02*
X212751360Y-48389178D01*
X212751360Y-48389178D02*
X212859109Y-48389178D01*
X212859109Y-48389178D02*
X212966859Y-48335303D01*
X212966859Y-48335303D02*
X213101546Y-48200616D01*
X208590294Y-72338372D02*
X208617231Y-72257560D01*
X208617231Y-72257560D02*
X208698043Y-72176748D01*
X208698043Y-72176748D02*
X208805793Y-72122873D01*
X208805793Y-72122873D02*
X208913542Y-72122873D01*
X208913542Y-72122873D02*
X208994355Y-72149810D01*
X208994355Y-72149810D02*
X209129042Y-72230623D01*
X209129042Y-72230623D02*
X209209854Y-72311435D01*
X209209854Y-72311435D02*
X209290666Y-72446122D01*
X209290666Y-72446122D02*
X209317603Y-72526934D01*
X209317603Y-72526934D02*
X209317603Y-72634684D01*
X209317603Y-72634684D02*
X209263729Y-72742433D01*
X209263729Y-72742433D02*
X209209854Y-72796308D01*
X209209854Y-72796308D02*
X209102104Y-72850183D01*
X209102104Y-72850183D02*
X209048229Y-72850183D01*
X209048229Y-72850183D02*
X208859668Y-72661621D01*
X208859668Y-72661621D02*
X208967417Y-72553871D01*
X208859668Y-73146494D02*
X208293982Y-72580809D01*
X208293982Y-72580809D02*
X208078483Y-72796308D01*
X208078483Y-72796308D02*
X208051546Y-72877120D01*
X208051546Y-72877120D02*
X208051546Y-72930995D01*
X208051546Y-72930995D02*
X208078483Y-73011807D01*
X208078483Y-73011807D02*
X208159295Y-73092619D01*
X208159295Y-73092619D02*
X208240107Y-73119557D01*
X208240107Y-73119557D02*
X208293982Y-73119557D01*
X208293982Y-73119557D02*
X208374794Y-73092619D01*
X208374794Y-73092619D02*
X208590294Y-72877120D01*
X207782172Y-73092619D02*
X207405048Y-73469743D01*
X207405048Y-73469743D02*
X208213170Y-73792992D01*
X218720294Y-72438372D02*
X218747231Y-72357560D01*
X218747231Y-72357560D02*
X218828043Y-72276748D01*
X218828043Y-72276748D02*
X218935793Y-72222873D01*
X218935793Y-72222873D02*
X219043542Y-72222873D01*
X219043542Y-72222873D02*
X219124355Y-72249810D01*
X219124355Y-72249810D02*
X219259042Y-72330623D01*
X219259042Y-72330623D02*
X219339854Y-72411435D01*
X219339854Y-72411435D02*
X219420666Y-72546122D01*
X219420666Y-72546122D02*
X219447603Y-72626934D01*
X219447603Y-72626934D02*
X219447603Y-72734684D01*
X219447603Y-72734684D02*
X219393729Y-72842433D01*
X219393729Y-72842433D02*
X219339854Y-72896308D01*
X219339854Y-72896308D02*
X219232104Y-72950183D01*
X219232104Y-72950183D02*
X219178229Y-72950183D01*
X219178229Y-72950183D02*
X218989668Y-72761621D01*
X218989668Y-72761621D02*
X219097417Y-72653871D01*
X218989668Y-73246494D02*
X218423982Y-72680809D01*
X218423982Y-72680809D02*
X218208483Y-72896308D01*
X218208483Y-72896308D02*
X218181546Y-72977120D01*
X218181546Y-72977120D02*
X218181546Y-73030995D01*
X218181546Y-73030995D02*
X218208483Y-73111807D01*
X218208483Y-73111807D02*
X218289295Y-73192619D01*
X218289295Y-73192619D02*
X218370107Y-73219557D01*
X218370107Y-73219557D02*
X218423982Y-73219557D01*
X218423982Y-73219557D02*
X218504794Y-73192619D01*
X218504794Y-73192619D02*
X218720294Y-72977120D01*
X217804422Y-73677493D02*
X218181546Y-74054616D01*
X217723610Y-73327306D02*
X218262358Y-73596680D01*
X218262358Y-73596680D02*
X217912172Y-73946867D01*
X193589668Y-46314998D02*
X193616605Y-46234185D01*
X193616605Y-46234185D02*
X193697418Y-46153373D01*
X193697418Y-46153373D02*
X193805167Y-46099498D01*
X193805167Y-46099498D02*
X193912917Y-46099498D01*
X193912917Y-46099498D02*
X193993729Y-46126436D01*
X193993729Y-46126436D02*
X194128416Y-46207248D01*
X194128416Y-46207248D02*
X194209228Y-46288060D01*
X194209228Y-46288060D02*
X194290041Y-46422747D01*
X194290041Y-46422747D02*
X194316978Y-46503560D01*
X194316978Y-46503560D02*
X194316978Y-46611309D01*
X194316978Y-46611309D02*
X194263103Y-46719059D01*
X194263103Y-46719059D02*
X194209228Y-46772934D01*
X194209228Y-46772934D02*
X194101479Y-46826808D01*
X194101479Y-46826808D02*
X194047604Y-46826808D01*
X194047604Y-46826808D02*
X193859042Y-46638247D01*
X193859042Y-46638247D02*
X193966792Y-46530497D01*
X193859042Y-47123120D02*
X193293357Y-46557434D01*
X193293357Y-46557434D02*
X193077857Y-46772934D01*
X193077857Y-46772934D02*
X193050920Y-46853746D01*
X193050920Y-46853746D02*
X193050920Y-46907621D01*
X193050920Y-46907621D02*
X193077857Y-46988433D01*
X193077857Y-46988433D02*
X193158670Y-47069245D01*
X193158670Y-47069245D02*
X193239482Y-47096182D01*
X193239482Y-47096182D02*
X193293357Y-47096182D01*
X193293357Y-47096182D02*
X193374169Y-47069245D01*
X193374169Y-47069245D02*
X193589668Y-46853746D01*
X192997045Y-47985117D02*
X193320294Y-47661868D01*
X193158670Y-47823492D02*
X192592984Y-47257807D01*
X192592984Y-47257807D02*
X192727671Y-47284744D01*
X192727671Y-47284744D02*
X192835421Y-47284744D01*
X192835421Y-47284744D02*
X192916233Y-47257807D01*
X192727671Y-48254491D02*
X192619921Y-48362240D01*
X192619921Y-48362240D02*
X192539109Y-48389178D01*
X192539109Y-48389178D02*
X192485234Y-48389178D01*
X192485234Y-48389178D02*
X192350547Y-48362240D01*
X192350547Y-48362240D02*
X192215860Y-48281428D01*
X192215860Y-48281428D02*
X192000361Y-48065929D01*
X192000361Y-48065929D02*
X191973424Y-47985117D01*
X191973424Y-47985117D02*
X191973424Y-47931242D01*
X191973424Y-47931242D02*
X192000361Y-47850430D01*
X192000361Y-47850430D02*
X192108111Y-47742680D01*
X192108111Y-47742680D02*
X192188923Y-47715743D01*
X192188923Y-47715743D02*
X192242798Y-47715743D01*
X192242798Y-47715743D02*
X192323610Y-47742680D01*
X192323610Y-47742680D02*
X192458297Y-47877367D01*
X192458297Y-47877367D02*
X192485234Y-47958179D01*
X192485234Y-47958179D02*
X192485234Y-48012054D01*
X192485234Y-48012054D02*
X192458297Y-48092866D01*
X192458297Y-48092866D02*
X192350547Y-48200616D01*
X192350547Y-48200616D02*
X192269735Y-48227553D01*
X192269735Y-48227553D02*
X192215860Y-48227553D01*
X192215860Y-48227553D02*
X192135048Y-48200616D01*
X226367231Y-72411435D02*
X226394168Y-72330623D01*
X226394168Y-72330623D02*
X226474980Y-72249811D01*
X226474980Y-72249811D02*
X226582730Y-72195936D01*
X226582730Y-72195936D02*
X226690480Y-72195936D01*
X226690480Y-72195936D02*
X226771292Y-72222873D01*
X226771292Y-72222873D02*
X226905979Y-72303685D01*
X226905979Y-72303685D02*
X226986791Y-72384498D01*
X226986791Y-72384498D02*
X227067603Y-72519185D01*
X227067603Y-72519185D02*
X227094541Y-72599997D01*
X227094541Y-72599997D02*
X227094541Y-72707746D01*
X227094541Y-72707746D02*
X227040666Y-72815496D01*
X227040666Y-72815496D02*
X226986791Y-72869371D01*
X226986791Y-72869371D02*
X226879041Y-72923246D01*
X226879041Y-72923246D02*
X226825167Y-72923246D01*
X226825167Y-72923246D02*
X226636605Y-72734684D01*
X226636605Y-72734684D02*
X226744354Y-72626934D01*
X226636605Y-73219557D02*
X226070919Y-72653872D01*
X226070919Y-72653872D02*
X226313356Y-73542806D01*
X226313356Y-73542806D02*
X225747671Y-72977120D01*
X226043982Y-73812180D02*
X225478297Y-73246494D01*
X225478297Y-73246494D02*
X225343610Y-73381181D01*
X225343610Y-73381181D02*
X225289735Y-73488931D01*
X225289735Y-73488931D02*
X225289735Y-73596680D01*
X225289735Y-73596680D02*
X225316672Y-73677493D01*
X225316672Y-73677493D02*
X225397485Y-73812180D01*
X225397485Y-73812180D02*
X225478297Y-73892992D01*
X225478297Y-73892992D02*
X225612984Y-73973804D01*
X225612984Y-73973804D02*
X225693796Y-74000741D01*
X225693796Y-74000741D02*
X225801546Y-74000741D01*
X225801546Y-74000741D02*
X225909295Y-73946867D01*
X225909295Y-73946867D02*
X226043982Y-73812180D01*
X196129668Y-72568998D02*
X196156605Y-72488185D01*
X196156605Y-72488185D02*
X196237418Y-72407373D01*
X196237418Y-72407373D02*
X196345167Y-72353498D01*
X196345167Y-72353498D02*
X196452917Y-72353498D01*
X196452917Y-72353498D02*
X196533729Y-72380436D01*
X196533729Y-72380436D02*
X196668416Y-72461248D01*
X196668416Y-72461248D02*
X196749228Y-72542060D01*
X196749228Y-72542060D02*
X196830041Y-72676747D01*
X196830041Y-72676747D02*
X196856978Y-72757560D01*
X196856978Y-72757560D02*
X196856978Y-72865309D01*
X196856978Y-72865309D02*
X196803103Y-72973059D01*
X196803103Y-72973059D02*
X196749228Y-73026934D01*
X196749228Y-73026934D02*
X196641479Y-73080808D01*
X196641479Y-73080808D02*
X196587604Y-73080808D01*
X196587604Y-73080808D02*
X196399042Y-72892247D01*
X196399042Y-72892247D02*
X196506792Y-72784497D01*
X196399042Y-73377120D02*
X195833357Y-72811434D01*
X195833357Y-72811434D02*
X195617857Y-73026934D01*
X195617857Y-73026934D02*
X195590920Y-73107746D01*
X195590920Y-73107746D02*
X195590920Y-73161621D01*
X195590920Y-73161621D02*
X195617857Y-73242433D01*
X195617857Y-73242433D02*
X195698670Y-73323245D01*
X195698670Y-73323245D02*
X195779482Y-73350182D01*
X195779482Y-73350182D02*
X195833357Y-73350182D01*
X195833357Y-73350182D02*
X195914169Y-73323245D01*
X195914169Y-73323245D02*
X196129668Y-73107746D01*
X195537045Y-74239117D02*
X195860294Y-73915868D01*
X195698670Y-74077492D02*
X195132984Y-73511807D01*
X195132984Y-73511807D02*
X195267671Y-73538744D01*
X195267671Y-73538744D02*
X195375421Y-73538744D01*
X195375421Y-73538744D02*
X195456233Y-73511807D01*
X194998297Y-74777865D02*
X195321546Y-74454616D01*
X195159921Y-74616240D02*
X194594236Y-74050555D01*
X194594236Y-74050555D02*
X194728923Y-74077492D01*
X194728923Y-74077492D02*
X194836673Y-74077492D01*
X194836673Y-74077492D02*
X194917485Y-74050555D01*
X216180294Y-72438372D02*
X216207231Y-72357560D01*
X216207231Y-72357560D02*
X216288043Y-72276748D01*
X216288043Y-72276748D02*
X216395793Y-72222873D01*
X216395793Y-72222873D02*
X216503542Y-72222873D01*
X216503542Y-72222873D02*
X216584355Y-72249810D01*
X216584355Y-72249810D02*
X216719042Y-72330623D01*
X216719042Y-72330623D02*
X216799854Y-72411435D01*
X216799854Y-72411435D02*
X216880666Y-72546122D01*
X216880666Y-72546122D02*
X216907603Y-72626934D01*
X216907603Y-72626934D02*
X216907603Y-72734684D01*
X216907603Y-72734684D02*
X216853729Y-72842433D01*
X216853729Y-72842433D02*
X216799854Y-72896308D01*
X216799854Y-72896308D02*
X216692104Y-72950183D01*
X216692104Y-72950183D02*
X216638229Y-72950183D01*
X216638229Y-72950183D02*
X216449668Y-72761621D01*
X216449668Y-72761621D02*
X216557417Y-72653871D01*
X216449668Y-73246494D02*
X215883982Y-72680809D01*
X215883982Y-72680809D02*
X215668483Y-72896308D01*
X215668483Y-72896308D02*
X215641546Y-72977120D01*
X215641546Y-72977120D02*
X215641546Y-73030995D01*
X215641546Y-73030995D02*
X215668483Y-73111807D01*
X215668483Y-73111807D02*
X215749295Y-73192619D01*
X215749295Y-73192619D02*
X215830107Y-73219557D01*
X215830107Y-73219557D02*
X215883982Y-73219557D01*
X215883982Y-73219557D02*
X215964794Y-73192619D01*
X215964794Y-73192619D02*
X216180294Y-72977120D01*
X215048923Y-73515868D02*
X215318297Y-73246494D01*
X215318297Y-73246494D02*
X215614608Y-73488931D01*
X215614608Y-73488931D02*
X215560733Y-73488931D01*
X215560733Y-73488931D02*
X215479921Y-73515868D01*
X215479921Y-73515868D02*
X215345234Y-73650555D01*
X215345234Y-73650555D02*
X215318297Y-73731367D01*
X215318297Y-73731367D02*
X215318297Y-73785242D01*
X215318297Y-73785242D02*
X215345234Y-73866054D01*
X215345234Y-73866054D02*
X215479921Y-74000741D01*
X215479921Y-74000741D02*
X215560733Y-74027679D01*
X215560733Y-74027679D02*
X215614608Y-74027679D01*
X215614608Y-74027679D02*
X215695420Y-74000741D01*
X215695420Y-74000741D02*
X215830107Y-73866054D01*
X215830107Y-73866054D02*
X215857045Y-73785242D01*
X215857045Y-73785242D02*
X215857045Y-73731367D01*
X203480294Y-72438372D02*
X203507231Y-72357560D01*
X203507231Y-72357560D02*
X203588043Y-72276748D01*
X203588043Y-72276748D02*
X203695793Y-72222873D01*
X203695793Y-72222873D02*
X203803542Y-72222873D01*
X203803542Y-72222873D02*
X203884355Y-72249810D01*
X203884355Y-72249810D02*
X204019042Y-72330623D01*
X204019042Y-72330623D02*
X204099854Y-72411435D01*
X204099854Y-72411435D02*
X204180666Y-72546122D01*
X204180666Y-72546122D02*
X204207603Y-72626934D01*
X204207603Y-72626934D02*
X204207603Y-72734684D01*
X204207603Y-72734684D02*
X204153729Y-72842433D01*
X204153729Y-72842433D02*
X204099854Y-72896308D01*
X204099854Y-72896308D02*
X203992104Y-72950183D01*
X203992104Y-72950183D02*
X203938229Y-72950183D01*
X203938229Y-72950183D02*
X203749668Y-72761621D01*
X203749668Y-72761621D02*
X203857417Y-72653871D01*
X203749668Y-73246494D02*
X203183982Y-72680809D01*
X203183982Y-72680809D02*
X202968483Y-72896308D01*
X202968483Y-72896308D02*
X202941546Y-72977120D01*
X202941546Y-72977120D02*
X202941546Y-73030995D01*
X202941546Y-73030995D02*
X202968483Y-73111807D01*
X202968483Y-73111807D02*
X203049295Y-73192619D01*
X203049295Y-73192619D02*
X203130107Y-73219557D01*
X203130107Y-73219557D02*
X203183982Y-73219557D01*
X203183982Y-73219557D02*
X203264794Y-73192619D01*
X203264794Y-73192619D02*
X203480294Y-72977120D01*
X203157045Y-73839117D02*
X203049295Y-73946867D01*
X203049295Y-73946867D02*
X202968483Y-73973804D01*
X202968483Y-73973804D02*
X202914608Y-73973804D01*
X202914608Y-73973804D02*
X202779921Y-73946867D01*
X202779921Y-73946867D02*
X202645234Y-73866054D01*
X202645234Y-73866054D02*
X202429735Y-73650555D01*
X202429735Y-73650555D02*
X202402798Y-73569743D01*
X202402798Y-73569743D02*
X202402798Y-73515868D01*
X202402798Y-73515868D02*
X202429735Y-73435056D01*
X202429735Y-73435056D02*
X202537485Y-73327306D01*
X202537485Y-73327306D02*
X202618297Y-73300369D01*
X202618297Y-73300369D02*
X202672172Y-73300369D01*
X202672172Y-73300369D02*
X202752984Y-73327306D01*
X202752984Y-73327306D02*
X202887671Y-73461993D01*
X202887671Y-73461993D02*
X202914608Y-73542806D01*
X202914608Y-73542806D02*
X202914608Y-73596680D01*
X202914608Y-73596680D02*
X202887671Y-73677493D01*
X202887671Y-73677493D02*
X202779921Y-73785242D01*
X202779921Y-73785242D02*
X202699109Y-73812180D01*
X202699109Y-73812180D02*
X202645234Y-73812180D01*
X202645234Y-73812180D02*
X202564422Y-73785242D01*
X225527384Y-41402407D02*
X225177198Y-41752593D01*
X225177198Y-41752593D02*
X225581259Y-41779531D01*
X225581259Y-41779531D02*
X225500446Y-41860343D01*
X225500446Y-41860343D02*
X225473509Y-41941155D01*
X225473509Y-41941155D02*
X225473509Y-41995030D01*
X225473509Y-41995030D02*
X225500446Y-42075842D01*
X225500446Y-42075842D02*
X225635133Y-42210529D01*
X225635133Y-42210529D02*
X225715946Y-42237467D01*
X225715946Y-42237467D02*
X225769820Y-42237467D01*
X225769820Y-42237467D02*
X225850633Y-42210529D01*
X225850633Y-42210529D02*
X226012257Y-42048905D01*
X226012257Y-42048905D02*
X226039194Y-41968093D01*
X226039194Y-41968093D02*
X226039194Y-41914218D01*
X225015573Y-41914218D02*
X225392697Y-42668465D01*
X225392697Y-42668465D02*
X224638449Y-42291342D01*
X224503763Y-42426028D02*
X224153576Y-42776215D01*
X224153576Y-42776215D02*
X224557637Y-42803152D01*
X224557637Y-42803152D02*
X224476825Y-42883964D01*
X224476825Y-42883964D02*
X224449888Y-42964776D01*
X224449888Y-42964776D02*
X224449888Y-43018651D01*
X224449888Y-43018651D02*
X224476825Y-43099464D01*
X224476825Y-43099464D02*
X224611512Y-43234151D01*
X224611512Y-43234151D02*
X224692324Y-43261088D01*
X224692324Y-43261088D02*
X224746199Y-43261088D01*
X224746199Y-43261088D02*
X224827011Y-43234151D01*
X224827011Y-43234151D02*
X224988636Y-43072526D01*
X224988636Y-43072526D02*
X225015573Y-42991714D01*
X225015573Y-42991714D02*
X225015573Y-42937839D01*
X224665387Y-43503525D02*
X224234388Y-43934523D01*
X223749515Y-43719024D02*
X223560953Y-43907586D01*
X223776452Y-44284709D02*
X224045826Y-44015335D01*
X224045826Y-44015335D02*
X223480141Y-43449650D01*
X223480141Y-43449650D02*
X223210767Y-43719024D01*
X223534015Y-44527146D02*
X222968330Y-43961461D01*
X222968330Y-43961461D02*
X223210767Y-44850395D01*
X223210767Y-44850395D02*
X222645081Y-44284710D01*
X203749668Y-46314998D02*
X203776605Y-46234185D01*
X203776605Y-46234185D02*
X203857418Y-46153373D01*
X203857418Y-46153373D02*
X203965167Y-46099498D01*
X203965167Y-46099498D02*
X204072917Y-46099498D01*
X204072917Y-46099498D02*
X204153729Y-46126436D01*
X204153729Y-46126436D02*
X204288416Y-46207248D01*
X204288416Y-46207248D02*
X204369228Y-46288060D01*
X204369228Y-46288060D02*
X204450041Y-46422747D01*
X204450041Y-46422747D02*
X204476978Y-46503560D01*
X204476978Y-46503560D02*
X204476978Y-46611309D01*
X204476978Y-46611309D02*
X204423103Y-46719059D01*
X204423103Y-46719059D02*
X204369228Y-46772934D01*
X204369228Y-46772934D02*
X204261479Y-46826808D01*
X204261479Y-46826808D02*
X204207604Y-46826808D01*
X204207604Y-46826808D02*
X204019042Y-46638247D01*
X204019042Y-46638247D02*
X204126792Y-46530497D01*
X204019042Y-47123120D02*
X203453357Y-46557434D01*
X203453357Y-46557434D02*
X203237857Y-46772934D01*
X203237857Y-46772934D02*
X203210920Y-46853746D01*
X203210920Y-46853746D02*
X203210920Y-46907621D01*
X203210920Y-46907621D02*
X203237857Y-46988433D01*
X203237857Y-46988433D02*
X203318670Y-47069245D01*
X203318670Y-47069245D02*
X203399482Y-47096182D01*
X203399482Y-47096182D02*
X203453357Y-47096182D01*
X203453357Y-47096182D02*
X203534169Y-47069245D01*
X203534169Y-47069245D02*
X203749668Y-46853746D01*
X202968483Y-47150057D02*
X202914609Y-47150057D01*
X202914609Y-47150057D02*
X202833796Y-47176995D01*
X202833796Y-47176995D02*
X202699109Y-47311682D01*
X202699109Y-47311682D02*
X202672172Y-47392494D01*
X202672172Y-47392494D02*
X202672172Y-47446369D01*
X202672172Y-47446369D02*
X202699109Y-47527181D01*
X202699109Y-47527181D02*
X202752984Y-47581056D01*
X202752984Y-47581056D02*
X202860734Y-47634930D01*
X202860734Y-47634930D02*
X203507231Y-47634930D01*
X203507231Y-47634930D02*
X203157045Y-47985117D01*
X202429735Y-47688805D02*
X202375860Y-47688805D01*
X202375860Y-47688805D02*
X202295048Y-47715743D01*
X202295048Y-47715743D02*
X202160361Y-47850430D01*
X202160361Y-47850430D02*
X202133424Y-47931242D01*
X202133424Y-47931242D02*
X202133424Y-47985117D01*
X202133424Y-47985117D02*
X202160361Y-48065929D01*
X202160361Y-48065929D02*
X202214236Y-48119804D01*
X202214236Y-48119804D02*
X202321986Y-48173679D01*
X202321986Y-48173679D02*
X202968483Y-48173679D01*
X202968483Y-48173679D02*
X202618297Y-48523865D01*
X208829668Y-46314998D02*
X208856605Y-46234185D01*
X208856605Y-46234185D02*
X208937418Y-46153373D01*
X208937418Y-46153373D02*
X209045167Y-46099498D01*
X209045167Y-46099498D02*
X209152917Y-46099498D01*
X209152917Y-46099498D02*
X209233729Y-46126436D01*
X209233729Y-46126436D02*
X209368416Y-46207248D01*
X209368416Y-46207248D02*
X209449228Y-46288060D01*
X209449228Y-46288060D02*
X209530041Y-46422747D01*
X209530041Y-46422747D02*
X209556978Y-46503560D01*
X209556978Y-46503560D02*
X209556978Y-46611309D01*
X209556978Y-46611309D02*
X209503103Y-46719059D01*
X209503103Y-46719059D02*
X209449228Y-46772934D01*
X209449228Y-46772934D02*
X209341479Y-46826808D01*
X209341479Y-46826808D02*
X209287604Y-46826808D01*
X209287604Y-46826808D02*
X209099042Y-46638247D01*
X209099042Y-46638247D02*
X209206792Y-46530497D01*
X209099042Y-47123120D02*
X208533357Y-46557434D01*
X208533357Y-46557434D02*
X208317857Y-46772934D01*
X208317857Y-46772934D02*
X208290920Y-46853746D01*
X208290920Y-46853746D02*
X208290920Y-46907621D01*
X208290920Y-46907621D02*
X208317857Y-46988433D01*
X208317857Y-46988433D02*
X208398670Y-47069245D01*
X208398670Y-47069245D02*
X208479482Y-47096182D01*
X208479482Y-47096182D02*
X208533357Y-47096182D01*
X208533357Y-47096182D02*
X208614169Y-47069245D01*
X208614169Y-47069245D02*
X208829668Y-46853746D01*
X208048483Y-47150057D02*
X207994609Y-47150057D01*
X207994609Y-47150057D02*
X207913796Y-47176995D01*
X207913796Y-47176995D02*
X207779109Y-47311682D01*
X207779109Y-47311682D02*
X207752172Y-47392494D01*
X207752172Y-47392494D02*
X207752172Y-47446369D01*
X207752172Y-47446369D02*
X207779109Y-47527181D01*
X207779109Y-47527181D02*
X207832984Y-47581056D01*
X207832984Y-47581056D02*
X207940734Y-47634930D01*
X207940734Y-47634930D02*
X208587231Y-47634930D01*
X208587231Y-47634930D02*
X208237045Y-47985117D01*
X207186486Y-47904305D02*
X207294236Y-47796555D01*
X207294236Y-47796555D02*
X207375048Y-47769618D01*
X207375048Y-47769618D02*
X207428923Y-47769618D01*
X207428923Y-47769618D02*
X207563610Y-47796555D01*
X207563610Y-47796555D02*
X207698297Y-47877367D01*
X207698297Y-47877367D02*
X207913796Y-48092866D01*
X207913796Y-48092866D02*
X207940734Y-48173679D01*
X207940734Y-48173679D02*
X207940734Y-48227553D01*
X207940734Y-48227553D02*
X207913796Y-48308366D01*
X207913796Y-48308366D02*
X207806047Y-48416115D01*
X207806047Y-48416115D02*
X207725234Y-48443053D01*
X207725234Y-48443053D02*
X207671360Y-48443053D01*
X207671360Y-48443053D02*
X207590547Y-48416115D01*
X207590547Y-48416115D02*
X207455860Y-48281428D01*
X207455860Y-48281428D02*
X207428923Y-48200616D01*
X207428923Y-48200616D02*
X207428923Y-48146741D01*
X207428923Y-48146741D02*
X207455860Y-48065929D01*
X207455860Y-48065929D02*
X207563610Y-47958179D01*
X207563610Y-47958179D02*
X207644422Y-47931242D01*
X207644422Y-47931242D02*
X207698297Y-47931242D01*
X207698297Y-47931242D02*
X207779109Y-47958179D01*
X191049668Y-46314998D02*
X191076605Y-46234185D01*
X191076605Y-46234185D02*
X191157418Y-46153373D01*
X191157418Y-46153373D02*
X191265167Y-46099498D01*
X191265167Y-46099498D02*
X191372917Y-46099498D01*
X191372917Y-46099498D02*
X191453729Y-46126436D01*
X191453729Y-46126436D02*
X191588416Y-46207248D01*
X191588416Y-46207248D02*
X191669228Y-46288060D01*
X191669228Y-46288060D02*
X191750041Y-46422747D01*
X191750041Y-46422747D02*
X191776978Y-46503560D01*
X191776978Y-46503560D02*
X191776978Y-46611309D01*
X191776978Y-46611309D02*
X191723103Y-46719059D01*
X191723103Y-46719059D02*
X191669228Y-46772934D01*
X191669228Y-46772934D02*
X191561479Y-46826808D01*
X191561479Y-46826808D02*
X191507604Y-46826808D01*
X191507604Y-46826808D02*
X191319042Y-46638247D01*
X191319042Y-46638247D02*
X191426792Y-46530497D01*
X191319042Y-47123120D02*
X190753357Y-46557434D01*
X190753357Y-46557434D02*
X190537857Y-46772934D01*
X190537857Y-46772934D02*
X190510920Y-46853746D01*
X190510920Y-46853746D02*
X190510920Y-46907621D01*
X190510920Y-46907621D02*
X190537857Y-46988433D01*
X190537857Y-46988433D02*
X190618670Y-47069245D01*
X190618670Y-47069245D02*
X190699482Y-47096182D01*
X190699482Y-47096182D02*
X190753357Y-47096182D01*
X190753357Y-47096182D02*
X190834169Y-47069245D01*
X190834169Y-47069245D02*
X191049668Y-46853746D01*
X190457045Y-47985117D02*
X190780294Y-47661868D01*
X190618670Y-47823492D02*
X190052984Y-47257807D01*
X190052984Y-47257807D02*
X190187671Y-47284744D01*
X190187671Y-47284744D02*
X190295421Y-47284744D01*
X190295421Y-47284744D02*
X190376233Y-47257807D01*
X189810547Y-47985117D02*
X189837485Y-47904305D01*
X189837485Y-47904305D02*
X189837485Y-47850430D01*
X189837485Y-47850430D02*
X189810547Y-47769618D01*
X189810547Y-47769618D02*
X189783610Y-47742680D01*
X189783610Y-47742680D02*
X189702798Y-47715743D01*
X189702798Y-47715743D02*
X189648923Y-47715743D01*
X189648923Y-47715743D02*
X189568111Y-47742680D01*
X189568111Y-47742680D02*
X189460361Y-47850430D01*
X189460361Y-47850430D02*
X189433424Y-47931242D01*
X189433424Y-47931242D02*
X189433424Y-47985117D01*
X189433424Y-47985117D02*
X189460361Y-48065929D01*
X189460361Y-48065929D02*
X189487299Y-48092866D01*
X189487299Y-48092866D02*
X189568111Y-48119804D01*
X189568111Y-48119804D02*
X189621986Y-48119804D01*
X189621986Y-48119804D02*
X189702798Y-48092866D01*
X189702798Y-48092866D02*
X189810547Y-47985117D01*
X189810547Y-47985117D02*
X189891360Y-47958179D01*
X189891360Y-47958179D02*
X189945234Y-47958179D01*
X189945234Y-47958179D02*
X190026047Y-47985117D01*
X190026047Y-47985117D02*
X190133796Y-48092866D01*
X190133796Y-48092866D02*
X190160734Y-48173679D01*
X190160734Y-48173679D02*
X190160734Y-48227553D01*
X190160734Y-48227553D02*
X190133796Y-48308366D01*
X190133796Y-48308366D02*
X190026047Y-48416115D01*
X190026047Y-48416115D02*
X189945234Y-48443053D01*
X189945234Y-48443053D02*
X189891360Y-48443053D01*
X189891360Y-48443053D02*
X189810547Y-48416115D01*
X189810547Y-48416115D02*
X189702798Y-48308366D01*
X189702798Y-48308366D02*
X189675860Y-48227553D01*
X189675860Y-48227553D02*
X189675860Y-48173679D01*
X189675860Y-48173679D02*
X189702798Y-48092866D01*
X221260294Y-72438372D02*
X221287231Y-72357560D01*
X221287231Y-72357560D02*
X221368043Y-72276748D01*
X221368043Y-72276748D02*
X221475793Y-72222873D01*
X221475793Y-72222873D02*
X221583542Y-72222873D01*
X221583542Y-72222873D02*
X221664355Y-72249810D01*
X221664355Y-72249810D02*
X221799042Y-72330623D01*
X221799042Y-72330623D02*
X221879854Y-72411435D01*
X221879854Y-72411435D02*
X221960666Y-72546122D01*
X221960666Y-72546122D02*
X221987603Y-72626934D01*
X221987603Y-72626934D02*
X221987603Y-72734684D01*
X221987603Y-72734684D02*
X221933729Y-72842433D01*
X221933729Y-72842433D02*
X221879854Y-72896308D01*
X221879854Y-72896308D02*
X221772104Y-72950183D01*
X221772104Y-72950183D02*
X221718229Y-72950183D01*
X221718229Y-72950183D02*
X221529668Y-72761621D01*
X221529668Y-72761621D02*
X221637417Y-72653871D01*
X221529668Y-73246494D02*
X220963982Y-72680809D01*
X220963982Y-72680809D02*
X220748483Y-72896308D01*
X220748483Y-72896308D02*
X220721546Y-72977120D01*
X220721546Y-72977120D02*
X220721546Y-73030995D01*
X220721546Y-73030995D02*
X220748483Y-73111807D01*
X220748483Y-73111807D02*
X220829295Y-73192619D01*
X220829295Y-73192619D02*
X220910107Y-73219557D01*
X220910107Y-73219557D02*
X220963982Y-73219557D01*
X220963982Y-73219557D02*
X221044794Y-73192619D01*
X221044794Y-73192619D02*
X221260294Y-72977120D01*
X220452172Y-73192619D02*
X220101985Y-73542806D01*
X220101985Y-73542806D02*
X220506046Y-73569743D01*
X220506046Y-73569743D02*
X220425234Y-73650555D01*
X220425234Y-73650555D02*
X220398297Y-73731367D01*
X220398297Y-73731367D02*
X220398297Y-73785242D01*
X220398297Y-73785242D02*
X220425234Y-73866054D01*
X220425234Y-73866054D02*
X220559921Y-74000741D01*
X220559921Y-74000741D02*
X220640733Y-74027679D01*
X220640733Y-74027679D02*
X220694608Y-74027679D01*
X220694608Y-74027679D02*
X220775420Y-74000741D01*
X220775420Y-74000741D02*
X220937045Y-73839117D01*
X220937045Y-73839117D02*
X220963982Y-73758305D01*
X220963982Y-73758305D02*
X220963982Y-73704430D01*
X188267231Y-72411435D02*
X188294168Y-72330623D01*
X188294168Y-72330623D02*
X188374980Y-72249811D01*
X188374980Y-72249811D02*
X188482730Y-72195936D01*
X188482730Y-72195936D02*
X188590480Y-72195936D01*
X188590480Y-72195936D02*
X188671292Y-72222873D01*
X188671292Y-72222873D02*
X188805979Y-72303685D01*
X188805979Y-72303685D02*
X188886791Y-72384498D01*
X188886791Y-72384498D02*
X188967603Y-72519185D01*
X188967603Y-72519185D02*
X188994541Y-72599997D01*
X188994541Y-72599997D02*
X188994541Y-72707746D01*
X188994541Y-72707746D02*
X188940666Y-72815496D01*
X188940666Y-72815496D02*
X188886791Y-72869371D01*
X188886791Y-72869371D02*
X188779041Y-72923246D01*
X188779041Y-72923246D02*
X188725167Y-72923246D01*
X188725167Y-72923246D02*
X188536605Y-72734684D01*
X188536605Y-72734684D02*
X188644354Y-72626934D01*
X188536605Y-73219557D02*
X187970919Y-72653872D01*
X187970919Y-72653872D02*
X188213356Y-73542806D01*
X188213356Y-73542806D02*
X187647671Y-72977120D01*
X187943982Y-73812180D02*
X187378297Y-73246494D01*
X187378297Y-73246494D02*
X187243610Y-73381181D01*
X187243610Y-73381181D02*
X187189735Y-73488931D01*
X187189735Y-73488931D02*
X187189735Y-73596680D01*
X187189735Y-73596680D02*
X187216672Y-73677493D01*
X187216672Y-73677493D02*
X187297485Y-73812180D01*
X187297485Y-73812180D02*
X187378297Y-73892992D01*
X187378297Y-73892992D02*
X187512984Y-73973804D01*
X187512984Y-73973804D02*
X187593796Y-74000741D01*
X187593796Y-74000741D02*
X187701546Y-74000741D01*
X187701546Y-74000741D02*
X187809295Y-73946867D01*
X187809295Y-73946867D02*
X187943982Y-73812180D01*
X223800294Y-72538372D02*
X223827231Y-72457560D01*
X223827231Y-72457560D02*
X223908043Y-72376748D01*
X223908043Y-72376748D02*
X224015793Y-72322873D01*
X224015793Y-72322873D02*
X224123542Y-72322873D01*
X224123542Y-72322873D02*
X224204355Y-72349810D01*
X224204355Y-72349810D02*
X224339042Y-72430623D01*
X224339042Y-72430623D02*
X224419854Y-72511435D01*
X224419854Y-72511435D02*
X224500666Y-72646122D01*
X224500666Y-72646122D02*
X224527603Y-72726934D01*
X224527603Y-72726934D02*
X224527603Y-72834684D01*
X224527603Y-72834684D02*
X224473729Y-72942433D01*
X224473729Y-72942433D02*
X224419854Y-72996308D01*
X224419854Y-72996308D02*
X224312104Y-73050183D01*
X224312104Y-73050183D02*
X224258229Y-73050183D01*
X224258229Y-73050183D02*
X224069668Y-72861621D01*
X224069668Y-72861621D02*
X224177417Y-72753871D01*
X224069668Y-73346494D02*
X223503982Y-72780809D01*
X223503982Y-72780809D02*
X223288483Y-72996308D01*
X223288483Y-72996308D02*
X223261546Y-73077120D01*
X223261546Y-73077120D02*
X223261546Y-73130995D01*
X223261546Y-73130995D02*
X223288483Y-73211807D01*
X223288483Y-73211807D02*
X223369295Y-73292619D01*
X223369295Y-73292619D02*
X223450107Y-73319557D01*
X223450107Y-73319557D02*
X223503982Y-73319557D01*
X223503982Y-73319557D02*
X223584794Y-73292619D01*
X223584794Y-73292619D02*
X223800294Y-73077120D01*
X223019109Y-73373432D02*
X222965234Y-73373432D01*
X222965234Y-73373432D02*
X222884422Y-73400369D01*
X222884422Y-73400369D02*
X222749735Y-73535056D01*
X222749735Y-73535056D02*
X222722798Y-73615868D01*
X222722798Y-73615868D02*
X222722798Y-73669743D01*
X222722798Y-73669743D02*
X222749735Y-73750555D01*
X222749735Y-73750555D02*
X222803610Y-73804430D01*
X222803610Y-73804430D02*
X222911359Y-73858305D01*
X222911359Y-73858305D02*
X223557857Y-73858305D01*
X223557857Y-73858305D02*
X223207671Y-74208491D01*
X198669668Y-72422998D02*
X198696605Y-72342185D01*
X198696605Y-72342185D02*
X198777418Y-72261373D01*
X198777418Y-72261373D02*
X198885167Y-72207498D01*
X198885167Y-72207498D02*
X198992917Y-72207498D01*
X198992917Y-72207498D02*
X199073729Y-72234436D01*
X199073729Y-72234436D02*
X199208416Y-72315248D01*
X199208416Y-72315248D02*
X199289228Y-72396060D01*
X199289228Y-72396060D02*
X199370041Y-72530747D01*
X199370041Y-72530747D02*
X199396978Y-72611560D01*
X199396978Y-72611560D02*
X199396978Y-72719309D01*
X199396978Y-72719309D02*
X199343103Y-72827059D01*
X199343103Y-72827059D02*
X199289228Y-72880934D01*
X199289228Y-72880934D02*
X199181479Y-72934808D01*
X199181479Y-72934808D02*
X199127604Y-72934808D01*
X199127604Y-72934808D02*
X198939042Y-72746247D01*
X198939042Y-72746247D02*
X199046792Y-72638497D01*
X198939042Y-73231120D02*
X198373357Y-72665434D01*
X198373357Y-72665434D02*
X198157857Y-72880934D01*
X198157857Y-72880934D02*
X198130920Y-72961746D01*
X198130920Y-72961746D02*
X198130920Y-73015621D01*
X198130920Y-73015621D02*
X198157857Y-73096433D01*
X198157857Y-73096433D02*
X198238670Y-73177245D01*
X198238670Y-73177245D02*
X198319482Y-73204182D01*
X198319482Y-73204182D02*
X198373357Y-73204182D01*
X198373357Y-73204182D02*
X198454169Y-73177245D01*
X198454169Y-73177245D02*
X198669668Y-72961746D01*
X198077045Y-74093117D02*
X198400294Y-73769868D01*
X198238670Y-73931492D02*
X197672984Y-73365807D01*
X197672984Y-73365807D02*
X197807671Y-73392744D01*
X197807671Y-73392744D02*
X197915421Y-73392744D01*
X197915421Y-73392744D02*
X197996233Y-73365807D01*
X197161173Y-73877618D02*
X197107299Y-73931492D01*
X197107299Y-73931492D02*
X197080361Y-74012305D01*
X197080361Y-74012305D02*
X197080361Y-74066179D01*
X197080361Y-74066179D02*
X197107299Y-74146992D01*
X197107299Y-74146992D02*
X197188111Y-74281679D01*
X197188111Y-74281679D02*
X197322798Y-74416366D01*
X197322798Y-74416366D02*
X197457485Y-74497178D01*
X197457485Y-74497178D02*
X197538297Y-74524115D01*
X197538297Y-74524115D02*
X197592172Y-74524115D01*
X197592172Y-74524115D02*
X197672984Y-74497178D01*
X197672984Y-74497178D02*
X197726859Y-74443303D01*
X197726859Y-74443303D02*
X197753796Y-74362491D01*
X197753796Y-74362491D02*
X197753796Y-74308616D01*
X197753796Y-74308616D02*
X197726859Y-74227804D01*
X197726859Y-74227804D02*
X197646047Y-74093117D01*
X197646047Y-74093117D02*
X197511360Y-73958430D01*
X197511360Y-73958430D02*
X197376673Y-73877618D01*
X197376673Y-73877618D02*
X197295860Y-73850680D01*
X197295860Y-73850680D02*
X197241986Y-73850680D01*
X197241986Y-73850680D02*
X197161173Y-73877618D01*
X229419042Y-45845749D02*
X229796166Y-46599996D01*
X229796166Y-46599996D02*
X229041918Y-46222873D01*
X229419042Y-46923245D02*
X229365167Y-47030995D01*
X229365167Y-47030995D02*
X229230480Y-47165682D01*
X229230480Y-47165682D02*
X229149668Y-47192619D01*
X229149668Y-47192619D02*
X229095793Y-47192619D01*
X229095793Y-47192619D02*
X229014981Y-47165682D01*
X229014981Y-47165682D02*
X228961106Y-47111807D01*
X228961106Y-47111807D02*
X228934169Y-47030995D01*
X228934169Y-47030995D02*
X228934169Y-46977120D01*
X228934169Y-46977120D02*
X228961106Y-46896308D01*
X228961106Y-46896308D02*
X229041918Y-46761621D01*
X229041918Y-46761621D02*
X229068856Y-46680808D01*
X229068856Y-46680808D02*
X229068856Y-46626934D01*
X229068856Y-46626934D02*
X229041918Y-46546121D01*
X229041918Y-46546121D02*
X228988044Y-46492247D01*
X228988044Y-46492247D02*
X228907231Y-46465309D01*
X228907231Y-46465309D02*
X228853357Y-46465309D01*
X228853357Y-46465309D02*
X228772544Y-46492247D01*
X228772544Y-46492247D02*
X228637857Y-46626934D01*
X228637857Y-46626934D02*
X228583983Y-46734683D01*
X228503170Y-47354244D02*
X228772544Y-47623618D01*
X228395421Y-46869370D02*
X228503170Y-47354244D01*
X228503170Y-47354244D02*
X228018297Y-47246494D01*
X228395421Y-47946866D02*
X228341546Y-48054616D01*
X228341546Y-48054616D02*
X228206859Y-48189303D01*
X228206859Y-48189303D02*
X228126047Y-48216240D01*
X228126047Y-48216240D02*
X228072172Y-48216240D01*
X228072172Y-48216240D02*
X227991360Y-48189303D01*
X227991360Y-48189303D02*
X227937485Y-48135428D01*
X227937485Y-48135428D02*
X227910548Y-48054616D01*
X227910548Y-48054616D02*
X227910548Y-48000741D01*
X227910548Y-48000741D02*
X227937485Y-47919929D01*
X227937485Y-47919929D02*
X228018297Y-47785242D01*
X228018297Y-47785242D02*
X228045235Y-47704430D01*
X228045235Y-47704430D02*
X228045235Y-47650555D01*
X228045235Y-47650555D02*
X228018297Y-47569743D01*
X228018297Y-47569743D02*
X227964422Y-47515868D01*
X227964422Y-47515868D02*
X227883610Y-47488930D01*
X227883610Y-47488930D02*
X227829735Y-47488930D01*
X227829735Y-47488930D02*
X227748923Y-47515868D01*
X227748923Y-47515868D02*
X227614236Y-47650555D01*
X227614236Y-47650555D02*
X227560361Y-47758304D01*
D11*
%TO.C,MX16*%
X221991300Y-91915000D02*
X227091300Y-91915000D01*
X218091300Y-87715000D02*
X223191300Y-87715000D01*
X221991300Y-91915000D02*
G75*
G03*
X219991300Y-93915000I0J-2000000D01*
G01*
X218091300Y-87715000D02*
G75*
G03*
X216091300Y-89715000I0J-2000000D01*
G01*
%TO.C,MX15*%
X202941300Y-86676200D02*
X208041300Y-86676200D01*
X199041300Y-82476200D02*
X204141300Y-82476200D01*
X202941300Y-86676200D02*
G75*
G03*
X200941300Y-88676200I0J-2000000D01*
G01*
X199041300Y-82476200D02*
G75*
G03*
X197041300Y-84476200I0J-2000000D01*
G01*
%TO.C,MX14*%
X183891300Y-86676200D02*
X188991300Y-86676200D01*
X179991300Y-82476200D02*
X185091300Y-82476200D01*
X183891300Y-86676200D02*
G75*
G03*
X181891300Y-88676200I0J-2000000D01*
G01*
X179991300Y-82476200D02*
G75*
G03*
X177991300Y-84476200I0J-2000000D01*
G01*
%TO.C,MX13*%
X164841300Y-91915000D02*
X169941300Y-91915000D01*
X160941300Y-87715000D02*
X166041300Y-87715000D01*
X164841300Y-91915000D02*
G75*
G03*
X162841300Y-93915000I0J-2000000D01*
G01*
X160941300Y-87715000D02*
G75*
G03*
X158941300Y-89715000I0J-2000000D01*
G01*
%TO.C,MX12*%
X221991300Y-110965000D02*
X227091300Y-110965000D01*
X218091300Y-106765000D02*
X223191300Y-106765000D01*
X221991300Y-110965000D02*
G75*
G03*
X219991300Y-112965000I0J-2000000D01*
G01*
X218091300Y-106765000D02*
G75*
G03*
X216091300Y-108765000I0J-2000000D01*
G01*
%TO.C,MX11*%
X202941300Y-105726200D02*
X208041300Y-105726200D01*
X199041300Y-101526200D02*
X204141300Y-101526200D01*
X202941300Y-105726200D02*
G75*
G03*
X200941300Y-107726200I0J-2000000D01*
G01*
X199041300Y-101526200D02*
G75*
G03*
X197041300Y-103526200I0J-2000000D01*
G01*
%TO.C,MX10*%
X183891300Y-105726200D02*
X188991300Y-105726200D01*
X179991300Y-101526200D02*
X185091300Y-101526200D01*
X183891300Y-105726200D02*
G75*
G03*
X181891300Y-107726200I0J-2000000D01*
G01*
X179991300Y-101526200D02*
G75*
G03*
X177991300Y-103526200I0J-2000000D01*
G01*
%TO.C,MX9*%
X164841300Y-110965000D02*
X169941300Y-110965000D01*
X160941300Y-106765000D02*
X166041300Y-106765000D01*
X164841300Y-110965000D02*
G75*
G03*
X162841300Y-112965000I0J-2000000D01*
G01*
X160941300Y-106765000D02*
G75*
G03*
X158941300Y-108765000I0J-2000000D01*
G01*
%TO.C,MX8*%
X133160100Y-139626200D02*
G75*
G03*
X131160100Y-141626200I0J-2000000D01*
G01*
X137060100Y-143826200D02*
G75*
G03*
X135060100Y-145826200I0J-2000000D01*
G01*
X133160100Y-139626200D02*
X138260100Y-139626200D01*
X137060100Y-143826200D02*
X142160100Y-143826200D01*
%TO.C,MX7*%
X108643800Y-58577500D02*
X113743800Y-58577500D01*
X104743800Y-54377500D02*
X109843800Y-54377500D01*
X108643800Y-58577500D02*
G75*
G03*
X106643800Y-60577500I0J-2000000D01*
G01*
X104743800Y-54377500D02*
G75*
G03*
X102743800Y-56377500I0J-2000000D01*
G01*
%TO.C,MX6*%
X89593800Y-58577500D02*
X94693800Y-58577500D01*
X85693800Y-54377500D02*
X90793800Y-54377500D01*
X89593800Y-58577500D02*
G75*
G03*
X87593800Y-60577500I0J-2000000D01*
G01*
X85693800Y-54377500D02*
G75*
G03*
X83693800Y-56377500I0J-2000000D01*
G01*
%TO.C,MX5*%
X70543800Y-58577500D02*
X75643800Y-58577500D01*
X66643800Y-54377500D02*
X71743800Y-54377500D01*
X70543800Y-58577500D02*
G75*
G03*
X68543800Y-60577500I0J-2000000D01*
G01*
X66643800Y-54377500D02*
G75*
G03*
X64643800Y-56377500I0J-2000000D01*
G01*
%TO.C,MX4*%
X91772986Y-79850545D02*
G75*
G03*
X89400868Y-81391015I-415824J-1956294D01*
G01*
X94714532Y-84769619D02*
G75*
G03*
X92342414Y-86310091I-415823J-1956295D01*
G01*
X91772986Y-79850544D02*
X96761538Y-80910893D01*
X94714532Y-84769619D02*
X99703085Y-85829969D01*
%TO.C,MX3*%
X106393886Y-102439445D02*
G75*
G03*
X104021768Y-103979915I-415824J-1956294D01*
G01*
X109335432Y-107358519D02*
G75*
G03*
X106963314Y-108898991I-415823J-1956295D01*
G01*
X106393886Y-102439444D02*
X111382438Y-103499793D01*
X109335432Y-107358519D02*
X114323985Y-108418869D01*
%TO.C,MX2*%
X90753732Y-103403319D02*
X95742285Y-104463669D01*
X87812186Y-98484244D02*
X92800738Y-99544593D01*
X90753732Y-103403319D02*
G75*
G03*
X88381614Y-104943791I-415823J-1956295D01*
G01*
X87812186Y-98484245D02*
G75*
G03*
X85440068Y-100024715I-415824J-1956294D01*
G01*
%TO.C,MX1*%
X72068032Y-99437119D02*
X77056585Y-100497469D01*
X69126486Y-94518044D02*
X74115038Y-95578393D01*
X72068032Y-99437119D02*
G75*
G03*
X69695914Y-100977591I-415823J-1956295D01*
G01*
X69126486Y-94518045D02*
G75*
G03*
X66754368Y-96058515I-415824J-1956294D01*
G01*
%TO.C,D16*%
X226150000Y-100264000D02*
X226150000Y-101864000D01*
X218350000Y-98164000D02*
X226150000Y-98164000D01*
X226150000Y-101864000D02*
X218350000Y-101864000D01*
%TO.C,D15*%
X207100000Y-94738000D02*
X207100000Y-96338000D01*
X199300000Y-92638000D02*
X207100000Y-92638000D01*
X207100000Y-96338000D02*
X199300000Y-96338000D01*
%TO.C,D14*%
X188050000Y-94738000D02*
X188050000Y-96338000D01*
X180250000Y-92638000D02*
X188050000Y-92638000D01*
X188050000Y-96338000D02*
X180250000Y-96338000D01*
%TO.C,D13*%
X161200000Y-99764000D02*
X161200000Y-98164000D01*
X169000000Y-101864000D02*
X161200000Y-101864000D01*
X161200000Y-98164000D02*
X169000000Y-98164000D01*
%TO.C,D12*%
X226150000Y-119314000D02*
X226150000Y-120914000D01*
X218350000Y-117214000D02*
X226150000Y-117214000D01*
X226150000Y-120914000D02*
X218350000Y-120914000D01*
%TO.C,D11*%
X199300000Y-113542000D02*
X199300000Y-111942000D01*
X207100000Y-115642000D02*
X199300000Y-115642000D01*
X199300000Y-111942000D02*
X207100000Y-111942000D01*
%TO.C,D10*%
X188050000Y-114042000D02*
X188050000Y-115642000D01*
X180250000Y-111942000D02*
X188050000Y-111942000D01*
X188050000Y-115642000D02*
X180250000Y-115642000D01*
%TO.C,D9*%
X161362500Y-118814000D02*
X161362500Y-117214000D01*
X169162500Y-120914000D02*
X161362500Y-120914000D01*
X161362500Y-117214000D02*
X169162500Y-117214000D01*
%TO.C,D8*%
X141235800Y-154013400D02*
X133435800Y-154013400D01*
X133435800Y-150313400D02*
X141235800Y-150313400D01*
X141235800Y-152413400D02*
X141235800Y-154013400D01*
%TO.C,D7*%
X112612000Y-68398000D02*
X104812000Y-68398000D01*
X104812000Y-64698000D02*
X112612000Y-64698000D01*
X112612000Y-66798000D02*
X112612000Y-68398000D01*
%TO.C,D6*%
X94193200Y-68398000D02*
X86393200Y-68398000D01*
X86393200Y-64698000D02*
X94193200Y-64698000D01*
X94193200Y-66798000D02*
X94193200Y-68398000D01*
%TO.C,D5*%
X74512000Y-68398000D02*
X66712000Y-68398000D01*
X66712000Y-64698000D02*
X74512000Y-64698000D01*
X74512000Y-66798000D02*
X74512000Y-68398000D01*
%TO.C,D4*%
X97176698Y-93487792D02*
X96844039Y-95052829D01*
X89983761Y-89811971D02*
X97613312Y-91433683D01*
X96844039Y-95052829D02*
X89214488Y-93431117D01*
%TO.C,D3*%
X111417239Y-117983129D02*
X103787688Y-116361417D01*
X104556961Y-112742271D02*
X112186512Y-114363983D01*
X111749898Y-116418092D02*
X111417239Y-117983129D01*
%TO.C,D2*%
X93163198Y-112369992D02*
X92830539Y-113935029D01*
X85970261Y-108694171D02*
X93599812Y-110315883D01*
X92830539Y-113935029D02*
X85200988Y-112313317D01*
%TO.C,D1*%
X74280998Y-108356492D02*
X73948339Y-109921529D01*
X67088061Y-104680671D02*
X74717612Y-106302383D01*
X73948339Y-109921529D02*
X66318788Y-108299817D01*
%TO.C,U1*%
X184468800Y-70825000D02*
X184068800Y-70825000D01*
X187068800Y-70825000D02*
X186668800Y-70825000D01*
X189568800Y-70825000D02*
X189168800Y-70825000D01*
X192068800Y-70825000D02*
X191668800Y-70825000D01*
X194668800Y-70825000D02*
X194268800Y-70825000D01*
X197168800Y-70825000D02*
X196768800Y-70825000D01*
X199768800Y-70825000D02*
X199368800Y-70825000D01*
X202268800Y-70825000D02*
X201868800Y-70825000D01*
X204868800Y-70825000D02*
X204468800Y-70825000D01*
X207368800Y-70825000D02*
X206968800Y-70825000D01*
X209868800Y-70825000D02*
X209468800Y-70825000D01*
X212468800Y-70825000D02*
X212068800Y-70825000D01*
X214968800Y-70825000D02*
X214568800Y-70825000D01*
X217568800Y-70825000D02*
X217168800Y-70825000D01*
X220068800Y-70825000D02*
X219668800Y-70825000D01*
X222568800Y-70825000D02*
X222168800Y-70825000D01*
X225168800Y-70825000D02*
X224768800Y-70825000D01*
X227668800Y-70825000D02*
X227268800Y-70825000D01*
X230001800Y-70825000D02*
X230001800Y-67818000D01*
X230268800Y-70825000D02*
X229868800Y-70825000D01*
X232668800Y-70825000D02*
X232368800Y-70825000D01*
X232668800Y-70825000D02*
X232668800Y-49825000D01*
X230001800Y-67818000D02*
X232668800Y-67818000D01*
X181668800Y-64025000D02*
X181668800Y-70825000D01*
X181668800Y-61825000D02*
X181668800Y-61425000D01*
X181668800Y-59225000D02*
X181668800Y-58825000D01*
X181668800Y-49825000D02*
X181668800Y-56625000D01*
X184468800Y-49825000D02*
X184068800Y-49825000D01*
X187068800Y-49825000D02*
X186668800Y-49825000D01*
X189568800Y-49825000D02*
X189168800Y-49825000D01*
X192068800Y-49825000D02*
X191668800Y-49825000D01*
X194668800Y-49825000D02*
X194268800Y-49825000D01*
X197168800Y-49825000D02*
X196768800Y-49825000D01*
X199768800Y-49825000D02*
X199368800Y-49825000D01*
X202268800Y-49825000D02*
X201868800Y-49825000D01*
X204868800Y-49825000D02*
X204468800Y-49825000D01*
X207368800Y-49825000D02*
X206968800Y-49825000D01*
X209868800Y-49825000D02*
X209468800Y-49825000D01*
X212468800Y-49825000D02*
X212068800Y-49825000D01*
X214968800Y-49825000D02*
X214568800Y-49825000D01*
X217568800Y-49825000D02*
X217168800Y-49825000D01*
X220068800Y-49825000D02*
X219668800Y-49825000D01*
X222568800Y-49825000D02*
X222168800Y-49825000D01*
X225168800Y-49825000D02*
X224768800Y-49825000D01*
X227668800Y-49825000D02*
X227268800Y-49825000D01*
X230268800Y-49825000D02*
X229868800Y-49825000D01*
X232668800Y-49825000D02*
X232368800Y-49825000D01*
%TD*%
%LPC*%
D12*
%TO.C,REF\u002A\u002A*%
X229870000Y-156210000D03*
D13*
X229870000Y-156210000D03*
%TD*%
D12*
%TO.C,REF\u002A\u002A*%
X60960000Y-156210000D03*
D13*
X60960000Y-156210000D03*
%TD*%
D12*
%TO.C,REF\u002A\u002A*%
X60960000Y-40640000D03*
D13*
X60960000Y-40640000D03*
%TD*%
D12*
%TO.C,REF\u002A\u002A*%
X229870000Y-40640000D03*
D13*
X229870000Y-40640000D03*
%TD*%
D14*
%TO.C,MX16*%
X227271300Y-94615000D03*
X217111300Y-94615000D03*
D15*
X222191300Y-94615000D03*
D16*
X228033300Y-89535000D03*
X215106300Y-92075000D03*
D17*
X224731300Y-89535000D03*
X218381300Y-92075000D03*
%TD*%
D14*
%TO.C,MX15*%
X208221300Y-89376200D03*
X198061300Y-89376200D03*
D15*
X203141300Y-89376200D03*
D16*
X208983300Y-84296200D03*
X196056300Y-86836200D03*
D17*
X205681300Y-84296200D03*
X199331300Y-86836200D03*
%TD*%
D14*
%TO.C,MX14*%
X189171300Y-89376200D03*
X179011300Y-89376200D03*
D15*
X184091300Y-89376200D03*
D16*
X189933300Y-84296200D03*
X177006300Y-86836200D03*
D17*
X186631300Y-84296200D03*
X180281300Y-86836200D03*
%TD*%
D14*
%TO.C,MX13*%
X170121300Y-94615000D03*
X159961300Y-94615000D03*
D15*
X165041300Y-94615000D03*
D16*
X170883300Y-89535000D03*
X157956300Y-92075000D03*
D17*
X167581300Y-89535000D03*
X161231300Y-92075000D03*
%TD*%
D14*
%TO.C,MX12*%
X227271300Y-113665000D03*
X217111300Y-113665000D03*
D15*
X222191300Y-113665000D03*
D16*
X228033300Y-108585000D03*
X215106300Y-111125000D03*
D17*
X224731300Y-108585000D03*
X218381300Y-111125000D03*
%TD*%
D14*
%TO.C,MX11*%
X208221300Y-108426200D03*
X198061300Y-108426200D03*
D15*
X203141300Y-108426200D03*
D16*
X208983300Y-103346200D03*
X196056300Y-105886200D03*
D17*
X205681300Y-103346200D03*
X199331300Y-105886200D03*
%TD*%
D14*
%TO.C,MX10*%
X189171300Y-108426200D03*
X179011300Y-108426200D03*
D15*
X184091300Y-108426200D03*
D16*
X189933300Y-103346200D03*
X177006300Y-105886200D03*
D17*
X186631300Y-103346200D03*
X180281300Y-105886200D03*
%TD*%
D14*
%TO.C,MX9*%
X170121300Y-113665000D03*
X159961300Y-113665000D03*
D15*
X165041300Y-113665000D03*
D16*
X170883300Y-108585000D03*
X157956300Y-111125000D03*
D17*
X167581300Y-108585000D03*
X161231300Y-111125000D03*
%TD*%
%TO.C,MX8*%
X133450100Y-143986200D03*
X139800100Y-141446200D03*
D16*
X130175100Y-143986200D03*
X143102100Y-141446200D03*
D15*
X137260100Y-146526200D03*
D14*
X132180100Y-146526200D03*
X142340100Y-146526200D03*
%TD*%
%TO.C,MX7*%
X113923800Y-61277500D03*
X103763800Y-61277500D03*
D15*
X108843800Y-61277500D03*
D16*
X114685800Y-56197500D03*
X101758800Y-58737500D03*
D17*
X111383800Y-56197500D03*
X105033800Y-58737500D03*
%TD*%
D14*
%TO.C,MX6*%
X94873800Y-61277500D03*
X84713800Y-61277500D03*
D15*
X89793800Y-61277500D03*
D16*
X95635800Y-56197500D03*
X82708800Y-58737500D03*
D17*
X92333800Y-56197500D03*
X85983800Y-58737500D03*
%TD*%
D14*
%TO.C,MX5*%
X75823800Y-61277500D03*
X65663800Y-61277500D03*
D15*
X70743800Y-61277500D03*
D16*
X76585800Y-56197500D03*
X63658800Y-58737500D03*
D17*
X73283800Y-56197500D03*
X66933800Y-58737500D03*
%TD*%
%TO.C,MX4*%
X91150153Y-84175562D03*
X97889486Y-83011306D03*
D18*
X87946720Y-83494651D03*
X101119330Y-83697830D03*
D15*
X94348800Y-87452200D03*
D14*
X89379810Y-86396009D03*
X99317790Y-88508391D03*
%TD*%
D17*
%TO.C,MX3*%
X105771053Y-106764462D03*
X112510386Y-105600206D03*
D18*
X102567620Y-106083551D03*
X115740230Y-106286730D03*
D15*
X108969700Y-110041100D03*
D14*
X104000710Y-108984909D03*
X113938690Y-111097291D03*
%TD*%
%TO.C,MX2*%
X95356990Y-107142091D03*
X85419010Y-105029709D03*
D15*
X90388000Y-106085900D03*
D18*
X97158530Y-102331530D03*
X83985920Y-102128351D03*
D17*
X93928686Y-101645006D03*
X87189353Y-102809262D03*
%TD*%
D14*
%TO.C,MX1*%
X76671290Y-103175891D03*
X66733310Y-101063509D03*
D15*
X71702300Y-102119700D03*
D18*
X78472830Y-98365330D03*
X65300220Y-98162151D03*
D17*
X75242986Y-97678806D03*
X68503653Y-98843062D03*
%TD*%
D19*
%TO.C,D16*%
X219500000Y-100714000D03*
X219500000Y-99314000D03*
X225000000Y-100714000D03*
X225000000Y-99314000D03*
%TD*%
%TO.C,D15*%
X200450000Y-95188000D03*
X200450000Y-93788000D03*
X205950000Y-95188000D03*
X205950000Y-93788000D03*
%TD*%
%TO.C,D14*%
X181400000Y-95188000D03*
X181400000Y-93788000D03*
X186900000Y-95188000D03*
X186900000Y-93788000D03*
%TD*%
%TO.C,D13*%
X167850000Y-99314000D03*
X167850000Y-100714000D03*
X162350000Y-99314000D03*
X162350000Y-100714000D03*
%TD*%
%TO.C,D12*%
X219500000Y-119764000D03*
X219500000Y-118364000D03*
X225000000Y-119764000D03*
X225000000Y-118364000D03*
%TD*%
%TO.C,D11*%
X205950000Y-113092000D03*
X205950000Y-114492000D03*
X200450000Y-113092000D03*
X200450000Y-114492000D03*
%TD*%
%TO.C,D10*%
X181400000Y-114492000D03*
X181400000Y-113092000D03*
X186900000Y-114492000D03*
X186900000Y-113092000D03*
%TD*%
%TO.C,D9*%
X168012500Y-118364000D03*
X168012500Y-119764000D03*
X162512500Y-118364000D03*
X162512500Y-119764000D03*
%TD*%
%TO.C,D8*%
X140085800Y-151463400D03*
X140085800Y-152863400D03*
X134585800Y-151463400D03*
X134585800Y-152863400D03*
%TD*%
%TO.C,D7*%
X111462000Y-65848000D03*
X111462000Y-67248000D03*
X105962000Y-65848000D03*
X105962000Y-67248000D03*
%TD*%
%TO.C,D6*%
X93043200Y-65848000D03*
X93043200Y-67248000D03*
X87543200Y-65848000D03*
X87543200Y-67248000D03*
%TD*%
%TO.C,D5*%
X73362000Y-65848000D03*
X73362000Y-67248000D03*
X67862000Y-65848000D03*
X67862000Y-67248000D03*
%TD*%
D20*
%TO.C,D4*%
X90578456Y-92545346D03*
X90869532Y-91175940D03*
X95958268Y-93688860D03*
X96249344Y-92319454D03*
%TD*%
%TO.C,D3*%
X110822544Y-115249754D03*
X110531468Y-116619160D03*
X105442732Y-114106240D03*
X105151656Y-115475646D03*
%TD*%
%TO.C,D2*%
X86564956Y-111427546D03*
X86856032Y-110058140D03*
X91944768Y-112571060D03*
X92235844Y-111201654D03*
%TD*%
%TO.C,D1*%
X67682756Y-107414046D03*
X67973832Y-106044640D03*
X73062568Y-108557560D03*
X73353644Y-107188154D03*
%TD*%
D21*
%TO.C,U1*%
X231168800Y-63050000D03*
D22*
X228138800Y-62750000D03*
X228138800Y-57900000D03*
D21*
X231168800Y-57600000D03*
D23*
X231298800Y-69215000D03*
D24*
X231298800Y-70115000D03*
D23*
X228758800Y-69215000D03*
D24*
X228758800Y-70115000D03*
D25*
X226218800Y-69215000D03*
D24*
X226218800Y-70115000D03*
D23*
X223678800Y-69215000D03*
D24*
X223678800Y-70115000D03*
D23*
X221138800Y-69215000D03*
D24*
X221138800Y-70115000D03*
D23*
X218598800Y-69215000D03*
D24*
X218598800Y-70115000D03*
D23*
X216058800Y-69215000D03*
D24*
X216058800Y-70115000D03*
D25*
X213518800Y-69215000D03*
D24*
X213518800Y-70115000D03*
D23*
X210978800Y-69215000D03*
D24*
X210978800Y-70115000D03*
D23*
X208438800Y-69215000D03*
D24*
X208438800Y-70115000D03*
D23*
X205898800Y-69215000D03*
D24*
X205898800Y-70115000D03*
D23*
X203358800Y-69215000D03*
D24*
X203358800Y-70115000D03*
D25*
X200818800Y-69215000D03*
D24*
X200818800Y-70115000D03*
D23*
X198278800Y-69215000D03*
D24*
X198278800Y-70115000D03*
D23*
X195738800Y-69215000D03*
D24*
X195738800Y-70115000D03*
D23*
X193198800Y-69215000D03*
D24*
X193198800Y-70115000D03*
D23*
X190658800Y-69215000D03*
D24*
X190658800Y-70115000D03*
D25*
X188118800Y-69215000D03*
D24*
X188118800Y-70115000D03*
D23*
X185578800Y-69215000D03*
D24*
X185578800Y-70115000D03*
D23*
X183038800Y-69215000D03*
D24*
X183038800Y-70115000D03*
D23*
X183038800Y-51435000D03*
D24*
X183038800Y-50535000D03*
D23*
X185578800Y-51435000D03*
D24*
X185578800Y-50535000D03*
D25*
X188118800Y-51435000D03*
D24*
X188118800Y-50535000D03*
D23*
X190658800Y-51435000D03*
D24*
X190658800Y-50535000D03*
D23*
X193198800Y-51435000D03*
D24*
X193198800Y-50535000D03*
D23*
X195738800Y-51435000D03*
D24*
X195738800Y-50535000D03*
D23*
X198278800Y-51435000D03*
D24*
X198278800Y-50535000D03*
D25*
X200818800Y-51435000D03*
D24*
X200818800Y-50535000D03*
D23*
X203358800Y-51435000D03*
D24*
X203358800Y-50535000D03*
D23*
X205898800Y-51435000D03*
D24*
X205898800Y-50535000D03*
D23*
X208438800Y-51435000D03*
D24*
X208438800Y-50535000D03*
D23*
X210978800Y-51435000D03*
D24*
X210978800Y-50535000D03*
D25*
X213518800Y-51435000D03*
D24*
X213518800Y-50535000D03*
D23*
X216058800Y-51435000D03*
D24*
X216058800Y-50535000D03*
D23*
X218598800Y-51435000D03*
D24*
X218598800Y-50535000D03*
D23*
X221138800Y-51435000D03*
D24*
X221138800Y-50535000D03*
D23*
X223678800Y-51435000D03*
D24*
X223678800Y-50535000D03*
D25*
X226218800Y-51435000D03*
D24*
X226218800Y-50535000D03*
D23*
X228758800Y-51435000D03*
D24*
X228758800Y-50535000D03*
D23*
X231298800Y-51435000D03*
D24*
X231298800Y-50535000D03*
D23*
X183268800Y-62865000D03*
D26*
X182368800Y-62865000D03*
D25*
X183268800Y-60325000D03*
D26*
X182368800Y-60325000D03*
D23*
X183268800Y-57785000D03*
D26*
X182368800Y-57785000D03*
%TD*%
%LPD*%
M02*
