%TF.GenerationSoftware,KiCad,Pcbnew,7.0.5*%
%TF.CreationDate,2023-06-06T19:01:50+08:00*%
%TF.ProjectId,JosEffigy-All-Keyboard-Mixbox,4a6f7345-6666-4696-9779-2d416c6c2d4b,rev?*%
%TF.SameCoordinates,Original*%
%TF.FileFunction,Legend,Top*%
%TF.FilePolarity,Positive*%
%FSLAX46Y46*%
G04 Gerber Fmt 4.6, Leading zero omitted, Abs format (unit mm)*
G04 Created by KiCad (PCBNEW 7.0.5) date 2023-06-06 19:01:50*
%MOMM*%
%LPD*%
G01*
G04 APERTURE LIST*
%ADD10C,0.150000*%
%ADD11C,0.120000*%
%ADD12C,3.100000*%
%ADD13C,4.500000*%
%ADD14C,1.750000*%
%ADD15C,4.000000*%
%ADD16C,3.600000*%
%ADD17O,1.800000X1.800000*%
%ADD18O,1.500000X1.500000*%
%ADD19O,1.700000X1.700000*%
%ADD20R,1.700000X1.700000*%
G04 APERTURE END LIST*
D10*
%TO.C,REF\u002A\u002A*%
X228536666Y-153414819D02*
X228203333Y-152938628D01*
X227965238Y-153414819D02*
X227965238Y-152414819D01*
X227965238Y-152414819D02*
X228346190Y-152414819D01*
X228346190Y-152414819D02*
X228441428Y-152462438D01*
X228441428Y-152462438D02*
X228489047Y-152510057D01*
X228489047Y-152510057D02*
X228536666Y-152605295D01*
X228536666Y-152605295D02*
X228536666Y-152748152D01*
X228536666Y-152748152D02*
X228489047Y-152843390D01*
X228489047Y-152843390D02*
X228441428Y-152891009D01*
X228441428Y-152891009D02*
X228346190Y-152938628D01*
X228346190Y-152938628D02*
X227965238Y-152938628D01*
X228965238Y-152891009D02*
X229298571Y-152891009D01*
X229441428Y-153414819D02*
X228965238Y-153414819D01*
X228965238Y-153414819D02*
X228965238Y-152414819D01*
X228965238Y-152414819D02*
X229441428Y-152414819D01*
X230203333Y-152891009D02*
X229870000Y-152891009D01*
X229870000Y-153414819D02*
X229870000Y-152414819D01*
X229870000Y-152414819D02*
X230346190Y-152414819D01*
X230870000Y-152414819D02*
X230870000Y-152652914D01*
X230631905Y-152557676D02*
X230870000Y-152652914D01*
X230870000Y-152652914D02*
X231108095Y-152557676D01*
X230727143Y-152843390D02*
X230870000Y-152652914D01*
X230870000Y-152652914D02*
X231012857Y-152843390D01*
X231631905Y-152414819D02*
X231631905Y-152652914D01*
X231393810Y-152557676D02*
X231631905Y-152652914D01*
X231631905Y-152652914D02*
X231870000Y-152557676D01*
X231489048Y-152843390D02*
X231631905Y-152652914D01*
X231631905Y-152652914D02*
X231774762Y-152843390D01*
X59626666Y-153414819D02*
X59293333Y-152938628D01*
X59055238Y-153414819D02*
X59055238Y-152414819D01*
X59055238Y-152414819D02*
X59436190Y-152414819D01*
X59436190Y-152414819D02*
X59531428Y-152462438D01*
X59531428Y-152462438D02*
X59579047Y-152510057D01*
X59579047Y-152510057D02*
X59626666Y-152605295D01*
X59626666Y-152605295D02*
X59626666Y-152748152D01*
X59626666Y-152748152D02*
X59579047Y-152843390D01*
X59579047Y-152843390D02*
X59531428Y-152891009D01*
X59531428Y-152891009D02*
X59436190Y-152938628D01*
X59436190Y-152938628D02*
X59055238Y-152938628D01*
X60055238Y-152891009D02*
X60388571Y-152891009D01*
X60531428Y-153414819D02*
X60055238Y-153414819D01*
X60055238Y-153414819D02*
X60055238Y-152414819D01*
X60055238Y-152414819D02*
X60531428Y-152414819D01*
X61293333Y-152891009D02*
X60960000Y-152891009D01*
X60960000Y-153414819D02*
X60960000Y-152414819D01*
X60960000Y-152414819D02*
X61436190Y-152414819D01*
X61960000Y-152414819D02*
X61960000Y-152652914D01*
X61721905Y-152557676D02*
X61960000Y-152652914D01*
X61960000Y-152652914D02*
X62198095Y-152557676D01*
X61817143Y-152843390D02*
X61960000Y-152652914D01*
X61960000Y-152652914D02*
X62102857Y-152843390D01*
X62721905Y-152414819D02*
X62721905Y-152652914D01*
X62483810Y-152557676D02*
X62721905Y-152652914D01*
X62721905Y-152652914D02*
X62960000Y-152557676D01*
X62579048Y-152843390D02*
X62721905Y-152652914D01*
X62721905Y-152652914D02*
X62864762Y-152843390D01*
X59626666Y-37844819D02*
X59293333Y-37368628D01*
X59055238Y-37844819D02*
X59055238Y-36844819D01*
X59055238Y-36844819D02*
X59436190Y-36844819D01*
X59436190Y-36844819D02*
X59531428Y-36892438D01*
X59531428Y-36892438D02*
X59579047Y-36940057D01*
X59579047Y-36940057D02*
X59626666Y-37035295D01*
X59626666Y-37035295D02*
X59626666Y-37178152D01*
X59626666Y-37178152D02*
X59579047Y-37273390D01*
X59579047Y-37273390D02*
X59531428Y-37321009D01*
X59531428Y-37321009D02*
X59436190Y-37368628D01*
X59436190Y-37368628D02*
X59055238Y-37368628D01*
X60055238Y-37321009D02*
X60388571Y-37321009D01*
X60531428Y-37844819D02*
X60055238Y-37844819D01*
X60055238Y-37844819D02*
X60055238Y-36844819D01*
X60055238Y-36844819D02*
X60531428Y-36844819D01*
X61293333Y-37321009D02*
X60960000Y-37321009D01*
X60960000Y-37844819D02*
X60960000Y-36844819D01*
X60960000Y-36844819D02*
X61436190Y-36844819D01*
X61960000Y-36844819D02*
X61960000Y-37082914D01*
X61721905Y-36987676D02*
X61960000Y-37082914D01*
X61960000Y-37082914D02*
X62198095Y-36987676D01*
X61817143Y-37273390D02*
X61960000Y-37082914D01*
X61960000Y-37082914D02*
X62102857Y-37273390D01*
X62721905Y-36844819D02*
X62721905Y-37082914D01*
X62483810Y-36987676D02*
X62721905Y-37082914D01*
X62721905Y-37082914D02*
X62960000Y-36987676D01*
X62579048Y-37273390D02*
X62721905Y-37082914D01*
X62721905Y-37082914D02*
X62864762Y-37273390D01*
X228536666Y-37844819D02*
X228203333Y-37368628D01*
X227965238Y-37844819D02*
X227965238Y-36844819D01*
X227965238Y-36844819D02*
X228346190Y-36844819D01*
X228346190Y-36844819D02*
X228441428Y-36892438D01*
X228441428Y-36892438D02*
X228489047Y-36940057D01*
X228489047Y-36940057D02*
X228536666Y-37035295D01*
X228536666Y-37035295D02*
X228536666Y-37178152D01*
X228536666Y-37178152D02*
X228489047Y-37273390D01*
X228489047Y-37273390D02*
X228441428Y-37321009D01*
X228441428Y-37321009D02*
X228346190Y-37368628D01*
X228346190Y-37368628D02*
X227965238Y-37368628D01*
X228965238Y-37321009D02*
X229298571Y-37321009D01*
X229441428Y-37844819D02*
X228965238Y-37844819D01*
X228965238Y-37844819D02*
X228965238Y-36844819D01*
X228965238Y-36844819D02*
X229441428Y-36844819D01*
X230203333Y-37321009D02*
X229870000Y-37321009D01*
X229870000Y-37844819D02*
X229870000Y-36844819D01*
X229870000Y-36844819D02*
X230346190Y-36844819D01*
X230870000Y-36844819D02*
X230870000Y-37082914D01*
X230631905Y-36987676D02*
X230870000Y-37082914D01*
X230870000Y-37082914D02*
X231108095Y-36987676D01*
X230727143Y-37273390D02*
X230870000Y-37082914D01*
X230870000Y-37082914D02*
X231012857Y-37273390D01*
X231631905Y-36844819D02*
X231631905Y-37082914D01*
X231393810Y-36987676D02*
X231631905Y-37082914D01*
X231631905Y-37082914D02*
X231870000Y-36987676D01*
X231489048Y-37273390D02*
X231631905Y-37082914D01*
X231631905Y-37082914D02*
X231774762Y-37273390D01*
%TO.C,MX16*%
X220429395Y-87069819D02*
X220429395Y-86069819D01*
X220429395Y-86069819D02*
X220762728Y-86784104D01*
X220762728Y-86784104D02*
X221096061Y-86069819D01*
X221096061Y-86069819D02*
X221096061Y-87069819D01*
X221477014Y-86069819D02*
X222143680Y-87069819D01*
X222143680Y-86069819D02*
X221477014Y-87069819D01*
X223048442Y-87069819D02*
X222477014Y-87069819D01*
X222762728Y-87069819D02*
X222762728Y-86069819D01*
X222762728Y-86069819D02*
X222667490Y-86212676D01*
X222667490Y-86212676D02*
X222572252Y-86307914D01*
X222572252Y-86307914D02*
X222477014Y-86355533D01*
X223905585Y-86069819D02*
X223715109Y-86069819D01*
X223715109Y-86069819D02*
X223619871Y-86117438D01*
X223619871Y-86117438D02*
X223572252Y-86165057D01*
X223572252Y-86165057D02*
X223477014Y-86307914D01*
X223477014Y-86307914D02*
X223429395Y-86498390D01*
X223429395Y-86498390D02*
X223429395Y-86879342D01*
X223429395Y-86879342D02*
X223477014Y-86974580D01*
X223477014Y-86974580D02*
X223524633Y-87022200D01*
X223524633Y-87022200D02*
X223619871Y-87069819D01*
X223619871Y-87069819D02*
X223810347Y-87069819D01*
X223810347Y-87069819D02*
X223905585Y-87022200D01*
X223905585Y-87022200D02*
X223953204Y-86974580D01*
X223953204Y-86974580D02*
X224000823Y-86879342D01*
X224000823Y-86879342D02*
X224000823Y-86641247D01*
X224000823Y-86641247D02*
X223953204Y-86546009D01*
X223953204Y-86546009D02*
X223905585Y-86498390D01*
X223905585Y-86498390D02*
X223810347Y-86450771D01*
X223810347Y-86450771D02*
X223619871Y-86450771D01*
X223619871Y-86450771D02*
X223524633Y-86498390D01*
X223524633Y-86498390D02*
X223477014Y-86546009D01*
X223477014Y-86546009D02*
X223429395Y-86641247D01*
%TO.C,MX15*%
X201379395Y-81831019D02*
X201379395Y-80831019D01*
X201379395Y-80831019D02*
X201712728Y-81545304D01*
X201712728Y-81545304D02*
X202046061Y-80831019D01*
X202046061Y-80831019D02*
X202046061Y-81831019D01*
X202427014Y-80831019D02*
X203093680Y-81831019D01*
X203093680Y-80831019D02*
X202427014Y-81831019D01*
X203998442Y-81831019D02*
X203427014Y-81831019D01*
X203712728Y-81831019D02*
X203712728Y-80831019D01*
X203712728Y-80831019D02*
X203617490Y-80973876D01*
X203617490Y-80973876D02*
X203522252Y-81069114D01*
X203522252Y-81069114D02*
X203427014Y-81116733D01*
X204903204Y-80831019D02*
X204427014Y-80831019D01*
X204427014Y-80831019D02*
X204379395Y-81307209D01*
X204379395Y-81307209D02*
X204427014Y-81259590D01*
X204427014Y-81259590D02*
X204522252Y-81211971D01*
X204522252Y-81211971D02*
X204760347Y-81211971D01*
X204760347Y-81211971D02*
X204855585Y-81259590D01*
X204855585Y-81259590D02*
X204903204Y-81307209D01*
X204903204Y-81307209D02*
X204950823Y-81402447D01*
X204950823Y-81402447D02*
X204950823Y-81640542D01*
X204950823Y-81640542D02*
X204903204Y-81735780D01*
X204903204Y-81735780D02*
X204855585Y-81783400D01*
X204855585Y-81783400D02*
X204760347Y-81831019D01*
X204760347Y-81831019D02*
X204522252Y-81831019D01*
X204522252Y-81831019D02*
X204427014Y-81783400D01*
X204427014Y-81783400D02*
X204379395Y-81735780D01*
%TO.C,MX14*%
X182329395Y-81831019D02*
X182329395Y-80831019D01*
X182329395Y-80831019D02*
X182662728Y-81545304D01*
X182662728Y-81545304D02*
X182996061Y-80831019D01*
X182996061Y-80831019D02*
X182996061Y-81831019D01*
X183377014Y-80831019D02*
X184043680Y-81831019D01*
X184043680Y-80831019D02*
X183377014Y-81831019D01*
X184948442Y-81831019D02*
X184377014Y-81831019D01*
X184662728Y-81831019D02*
X184662728Y-80831019D01*
X184662728Y-80831019D02*
X184567490Y-80973876D01*
X184567490Y-80973876D02*
X184472252Y-81069114D01*
X184472252Y-81069114D02*
X184377014Y-81116733D01*
X185805585Y-81164352D02*
X185805585Y-81831019D01*
X185567490Y-80783400D02*
X185329395Y-81497685D01*
X185329395Y-81497685D02*
X185948442Y-81497685D01*
%TO.C,MX13*%
X163279395Y-87069819D02*
X163279395Y-86069819D01*
X163279395Y-86069819D02*
X163612728Y-86784104D01*
X163612728Y-86784104D02*
X163946061Y-86069819D01*
X163946061Y-86069819D02*
X163946061Y-87069819D01*
X164327014Y-86069819D02*
X164993680Y-87069819D01*
X164993680Y-86069819D02*
X164327014Y-87069819D01*
X165898442Y-87069819D02*
X165327014Y-87069819D01*
X165612728Y-87069819D02*
X165612728Y-86069819D01*
X165612728Y-86069819D02*
X165517490Y-86212676D01*
X165517490Y-86212676D02*
X165422252Y-86307914D01*
X165422252Y-86307914D02*
X165327014Y-86355533D01*
X166231776Y-86069819D02*
X166850823Y-86069819D01*
X166850823Y-86069819D02*
X166517490Y-86450771D01*
X166517490Y-86450771D02*
X166660347Y-86450771D01*
X166660347Y-86450771D02*
X166755585Y-86498390D01*
X166755585Y-86498390D02*
X166803204Y-86546009D01*
X166803204Y-86546009D02*
X166850823Y-86641247D01*
X166850823Y-86641247D02*
X166850823Y-86879342D01*
X166850823Y-86879342D02*
X166803204Y-86974580D01*
X166803204Y-86974580D02*
X166755585Y-87022200D01*
X166755585Y-87022200D02*
X166660347Y-87069819D01*
X166660347Y-87069819D02*
X166374633Y-87069819D01*
X166374633Y-87069819D02*
X166279395Y-87022200D01*
X166279395Y-87022200D02*
X166231776Y-86974580D01*
%TO.C,MX12*%
X220429395Y-106119819D02*
X220429395Y-105119819D01*
X220429395Y-105119819D02*
X220762728Y-105834104D01*
X220762728Y-105834104D02*
X221096061Y-105119819D01*
X221096061Y-105119819D02*
X221096061Y-106119819D01*
X221477014Y-105119819D02*
X222143680Y-106119819D01*
X222143680Y-105119819D02*
X221477014Y-106119819D01*
X223048442Y-106119819D02*
X222477014Y-106119819D01*
X222762728Y-106119819D02*
X222762728Y-105119819D01*
X222762728Y-105119819D02*
X222667490Y-105262676D01*
X222667490Y-105262676D02*
X222572252Y-105357914D01*
X222572252Y-105357914D02*
X222477014Y-105405533D01*
X223429395Y-105215057D02*
X223477014Y-105167438D01*
X223477014Y-105167438D02*
X223572252Y-105119819D01*
X223572252Y-105119819D02*
X223810347Y-105119819D01*
X223810347Y-105119819D02*
X223905585Y-105167438D01*
X223905585Y-105167438D02*
X223953204Y-105215057D01*
X223953204Y-105215057D02*
X224000823Y-105310295D01*
X224000823Y-105310295D02*
X224000823Y-105405533D01*
X224000823Y-105405533D02*
X223953204Y-105548390D01*
X223953204Y-105548390D02*
X223381776Y-106119819D01*
X223381776Y-106119819D02*
X224000823Y-106119819D01*
%TO.C,MX11*%
X201379395Y-100881019D02*
X201379395Y-99881019D01*
X201379395Y-99881019D02*
X201712728Y-100595304D01*
X201712728Y-100595304D02*
X202046061Y-99881019D01*
X202046061Y-99881019D02*
X202046061Y-100881019D01*
X202427014Y-99881019D02*
X203093680Y-100881019D01*
X203093680Y-99881019D02*
X202427014Y-100881019D01*
X203998442Y-100881019D02*
X203427014Y-100881019D01*
X203712728Y-100881019D02*
X203712728Y-99881019D01*
X203712728Y-99881019D02*
X203617490Y-100023876D01*
X203617490Y-100023876D02*
X203522252Y-100119114D01*
X203522252Y-100119114D02*
X203427014Y-100166733D01*
X204950823Y-100881019D02*
X204379395Y-100881019D01*
X204665109Y-100881019D02*
X204665109Y-99881019D01*
X204665109Y-99881019D02*
X204569871Y-100023876D01*
X204569871Y-100023876D02*
X204474633Y-100119114D01*
X204474633Y-100119114D02*
X204379395Y-100166733D01*
%TO.C,MX10*%
X182329395Y-100881019D02*
X182329395Y-99881019D01*
X182329395Y-99881019D02*
X182662728Y-100595304D01*
X182662728Y-100595304D02*
X182996061Y-99881019D01*
X182996061Y-99881019D02*
X182996061Y-100881019D01*
X183377014Y-99881019D02*
X184043680Y-100881019D01*
X184043680Y-99881019D02*
X183377014Y-100881019D01*
X184948442Y-100881019D02*
X184377014Y-100881019D01*
X184662728Y-100881019D02*
X184662728Y-99881019D01*
X184662728Y-99881019D02*
X184567490Y-100023876D01*
X184567490Y-100023876D02*
X184472252Y-100119114D01*
X184472252Y-100119114D02*
X184377014Y-100166733D01*
X185567490Y-99881019D02*
X185662728Y-99881019D01*
X185662728Y-99881019D02*
X185757966Y-99928638D01*
X185757966Y-99928638D02*
X185805585Y-99976257D01*
X185805585Y-99976257D02*
X185853204Y-100071495D01*
X185853204Y-100071495D02*
X185900823Y-100261971D01*
X185900823Y-100261971D02*
X185900823Y-100500066D01*
X185900823Y-100500066D02*
X185853204Y-100690542D01*
X185853204Y-100690542D02*
X185805585Y-100785780D01*
X185805585Y-100785780D02*
X185757966Y-100833400D01*
X185757966Y-100833400D02*
X185662728Y-100881019D01*
X185662728Y-100881019D02*
X185567490Y-100881019D01*
X185567490Y-100881019D02*
X185472252Y-100833400D01*
X185472252Y-100833400D02*
X185424633Y-100785780D01*
X185424633Y-100785780D02*
X185377014Y-100690542D01*
X185377014Y-100690542D02*
X185329395Y-100500066D01*
X185329395Y-100500066D02*
X185329395Y-100261971D01*
X185329395Y-100261971D02*
X185377014Y-100071495D01*
X185377014Y-100071495D02*
X185424633Y-99976257D01*
X185424633Y-99976257D02*
X185472252Y-99928638D01*
X185472252Y-99928638D02*
X185567490Y-99881019D01*
%TO.C,MX9*%
X163755586Y-106119819D02*
X163755586Y-105119819D01*
X163755586Y-105119819D02*
X164088919Y-105834104D01*
X164088919Y-105834104D02*
X164422252Y-105119819D01*
X164422252Y-105119819D02*
X164422252Y-106119819D01*
X164803205Y-105119819D02*
X165469871Y-106119819D01*
X165469871Y-105119819D02*
X164803205Y-106119819D01*
X165898443Y-106119819D02*
X166088919Y-106119819D01*
X166088919Y-106119819D02*
X166184157Y-106072200D01*
X166184157Y-106072200D02*
X166231776Y-106024580D01*
X166231776Y-106024580D02*
X166327014Y-105881723D01*
X166327014Y-105881723D02*
X166374633Y-105691247D01*
X166374633Y-105691247D02*
X166374633Y-105310295D01*
X166374633Y-105310295D02*
X166327014Y-105215057D01*
X166327014Y-105215057D02*
X166279395Y-105167438D01*
X166279395Y-105167438D02*
X166184157Y-105119819D01*
X166184157Y-105119819D02*
X165993681Y-105119819D01*
X165993681Y-105119819D02*
X165898443Y-105167438D01*
X165898443Y-105167438D02*
X165850824Y-105215057D01*
X165850824Y-105215057D02*
X165803205Y-105310295D01*
X165803205Y-105310295D02*
X165803205Y-105548390D01*
X165803205Y-105548390D02*
X165850824Y-105643628D01*
X165850824Y-105643628D02*
X165898443Y-105691247D01*
X165898443Y-105691247D02*
X165993681Y-105738866D01*
X165993681Y-105738866D02*
X166184157Y-105738866D01*
X166184157Y-105738866D02*
X166279395Y-105691247D01*
X166279395Y-105691247D02*
X166327014Y-105643628D01*
X166327014Y-105643628D02*
X166374633Y-105548390D01*
%TO.C,MX8*%
X135974386Y-138981019D02*
X135974386Y-137981019D01*
X135974386Y-137981019D02*
X136307719Y-138695304D01*
X136307719Y-138695304D02*
X136641052Y-137981019D01*
X136641052Y-137981019D02*
X136641052Y-138981019D01*
X137022005Y-137981019D02*
X137688671Y-138981019D01*
X137688671Y-137981019D02*
X137022005Y-138981019D01*
X138212481Y-138409590D02*
X138117243Y-138361971D01*
X138117243Y-138361971D02*
X138069624Y-138314352D01*
X138069624Y-138314352D02*
X138022005Y-138219114D01*
X138022005Y-138219114D02*
X138022005Y-138171495D01*
X138022005Y-138171495D02*
X138069624Y-138076257D01*
X138069624Y-138076257D02*
X138117243Y-138028638D01*
X138117243Y-138028638D02*
X138212481Y-137981019D01*
X138212481Y-137981019D02*
X138402957Y-137981019D01*
X138402957Y-137981019D02*
X138498195Y-138028638D01*
X138498195Y-138028638D02*
X138545814Y-138076257D01*
X138545814Y-138076257D02*
X138593433Y-138171495D01*
X138593433Y-138171495D02*
X138593433Y-138219114D01*
X138593433Y-138219114D02*
X138545814Y-138314352D01*
X138545814Y-138314352D02*
X138498195Y-138361971D01*
X138498195Y-138361971D02*
X138402957Y-138409590D01*
X138402957Y-138409590D02*
X138212481Y-138409590D01*
X138212481Y-138409590D02*
X138117243Y-138457209D01*
X138117243Y-138457209D02*
X138069624Y-138504828D01*
X138069624Y-138504828D02*
X138022005Y-138600066D01*
X138022005Y-138600066D02*
X138022005Y-138790542D01*
X138022005Y-138790542D02*
X138069624Y-138885780D01*
X138069624Y-138885780D02*
X138117243Y-138933400D01*
X138117243Y-138933400D02*
X138212481Y-138981019D01*
X138212481Y-138981019D02*
X138402957Y-138981019D01*
X138402957Y-138981019D02*
X138498195Y-138933400D01*
X138498195Y-138933400D02*
X138545814Y-138885780D01*
X138545814Y-138885780D02*
X138593433Y-138790542D01*
X138593433Y-138790542D02*
X138593433Y-138600066D01*
X138593433Y-138600066D02*
X138545814Y-138504828D01*
X138545814Y-138504828D02*
X138498195Y-138457209D01*
X138498195Y-138457209D02*
X138402957Y-138409590D01*
%TO.C,MX7*%
X107558086Y-53732319D02*
X107558086Y-52732319D01*
X107558086Y-52732319D02*
X107891419Y-53446604D01*
X107891419Y-53446604D02*
X108224752Y-52732319D01*
X108224752Y-52732319D02*
X108224752Y-53732319D01*
X108605705Y-52732319D02*
X109272371Y-53732319D01*
X109272371Y-52732319D02*
X108605705Y-53732319D01*
X109558086Y-52732319D02*
X110224752Y-52732319D01*
X110224752Y-52732319D02*
X109796181Y-53732319D01*
%TO.C,MX6*%
X88508086Y-53732319D02*
X88508086Y-52732319D01*
X88508086Y-52732319D02*
X88841419Y-53446604D01*
X88841419Y-53446604D02*
X89174752Y-52732319D01*
X89174752Y-52732319D02*
X89174752Y-53732319D01*
X89555705Y-52732319D02*
X90222371Y-53732319D01*
X90222371Y-52732319D02*
X89555705Y-53732319D01*
X91031895Y-52732319D02*
X90841419Y-52732319D01*
X90841419Y-52732319D02*
X90746181Y-52779938D01*
X90746181Y-52779938D02*
X90698562Y-52827557D01*
X90698562Y-52827557D02*
X90603324Y-52970414D01*
X90603324Y-52970414D02*
X90555705Y-53160890D01*
X90555705Y-53160890D02*
X90555705Y-53541842D01*
X90555705Y-53541842D02*
X90603324Y-53637080D01*
X90603324Y-53637080D02*
X90650943Y-53684700D01*
X90650943Y-53684700D02*
X90746181Y-53732319D01*
X90746181Y-53732319D02*
X90936657Y-53732319D01*
X90936657Y-53732319D02*
X91031895Y-53684700D01*
X91031895Y-53684700D02*
X91079514Y-53637080D01*
X91079514Y-53637080D02*
X91127133Y-53541842D01*
X91127133Y-53541842D02*
X91127133Y-53303747D01*
X91127133Y-53303747D02*
X91079514Y-53208509D01*
X91079514Y-53208509D02*
X91031895Y-53160890D01*
X91031895Y-53160890D02*
X90936657Y-53113271D01*
X90936657Y-53113271D02*
X90746181Y-53113271D01*
X90746181Y-53113271D02*
X90650943Y-53160890D01*
X90650943Y-53160890D02*
X90603324Y-53208509D01*
X90603324Y-53208509D02*
X90555705Y-53303747D01*
%TO.C,MX5*%
X69458086Y-53732319D02*
X69458086Y-52732319D01*
X69458086Y-52732319D02*
X69791419Y-53446604D01*
X69791419Y-53446604D02*
X70124752Y-52732319D01*
X70124752Y-52732319D02*
X70124752Y-53732319D01*
X70505705Y-52732319D02*
X71172371Y-53732319D01*
X71172371Y-52732319D02*
X70505705Y-53732319D01*
X72029514Y-52732319D02*
X71553324Y-52732319D01*
X71553324Y-52732319D02*
X71505705Y-53208509D01*
X71505705Y-53208509D02*
X71553324Y-53160890D01*
X71553324Y-53160890D02*
X71648562Y-53113271D01*
X71648562Y-53113271D02*
X71886657Y-53113271D01*
X71886657Y-53113271D02*
X71981895Y-53160890D01*
X71981895Y-53160890D02*
X72029514Y-53208509D01*
X72029514Y-53208509D02*
X72077133Y-53303747D01*
X72077133Y-53303747D02*
X72077133Y-53541842D01*
X72077133Y-53541842D02*
X72029514Y-53637080D01*
X72029514Y-53637080D02*
X71981895Y-53684700D01*
X71981895Y-53684700D02*
X71886657Y-53732319D01*
X71886657Y-53732319D02*
X71648562Y-53732319D01*
X71648562Y-53732319D02*
X71553324Y-53684700D01*
X71553324Y-53684700D02*
X71505705Y-53637080D01*
%TO.C,MX4*%
X94659913Y-79804584D02*
X94867825Y-78826436D01*
X94867825Y-78826436D02*
X95045366Y-79594417D01*
X95045366Y-79594417D02*
X95519924Y-78965044D01*
X95519924Y-78965044D02*
X95312012Y-79943192D01*
X95892551Y-79044248D02*
X96336738Y-80161004D01*
X96544649Y-79182856D02*
X95684639Y-80022396D01*
X97267179Y-79677215D02*
X97128572Y-80329313D01*
X97113492Y-79255084D02*
X96732091Y-79904258D01*
X96732091Y-79904258D02*
X97337611Y-80032966D01*
%TO.C,MX3*%
X109280813Y-102393484D02*
X109488725Y-101415336D01*
X109488725Y-101415336D02*
X109666266Y-102183317D01*
X109666266Y-102183317D02*
X110140824Y-101553944D01*
X110140824Y-101553944D02*
X109932912Y-102532092D01*
X110513451Y-101633148D02*
X110957638Y-102749904D01*
X111165549Y-101771756D02*
X110305539Y-102611296D01*
X111445020Y-101831159D02*
X112050540Y-101959867D01*
X112050540Y-101959867D02*
X111645287Y-102263190D01*
X111645287Y-102263190D02*
X111785022Y-102292892D01*
X111785022Y-102292892D02*
X111868278Y-102359272D01*
X111868278Y-102359272D02*
X111904956Y-102415751D01*
X111904956Y-102415751D02*
X111931734Y-102518808D01*
X111931734Y-102518808D02*
X111882231Y-102751701D01*
X111882231Y-102751701D02*
X111815851Y-102834957D01*
X111815851Y-102834957D02*
X111759372Y-102871635D01*
X111759372Y-102871635D02*
X111656315Y-102898412D01*
X111656315Y-102898412D02*
X111376844Y-102839009D01*
X111376844Y-102839009D02*
X111293588Y-102772629D01*
X111293588Y-102772629D02*
X111256910Y-102716150D01*
%TO.C,MX2*%
X90699113Y-98438284D02*
X90907025Y-97460136D01*
X90907025Y-97460136D02*
X91084566Y-98228117D01*
X91084566Y-98228117D02*
X91559124Y-97598744D01*
X91559124Y-97598744D02*
X91351212Y-98576892D01*
X91931751Y-97677948D02*
X92375938Y-98794704D01*
X92583849Y-97816556D02*
X91723839Y-98656096D01*
X92890098Y-97979017D02*
X92946577Y-97942339D01*
X92946577Y-97942339D02*
X93049634Y-97915562D01*
X93049634Y-97915562D02*
X93282526Y-97965065D01*
X93282526Y-97965065D02*
X93365783Y-98031444D01*
X93365783Y-98031444D02*
X93402461Y-98087923D01*
X93402461Y-98087923D02*
X93429238Y-98190981D01*
X93429238Y-98190981D02*
X93409437Y-98284137D01*
X93409437Y-98284137D02*
X93333157Y-98413972D01*
X93333157Y-98413972D02*
X92655409Y-98854107D01*
X92655409Y-98854107D02*
X93260929Y-98982814D01*
%TO.C,MX1*%
X72013413Y-94472084D02*
X72221325Y-93493936D01*
X72221325Y-93493936D02*
X72398866Y-94261917D01*
X72398866Y-94261917D02*
X72873424Y-93632544D01*
X72873424Y-93632544D02*
X72665512Y-94610692D01*
X73246051Y-93711748D02*
X73690238Y-94828504D01*
X73898149Y-93850356D02*
X73038139Y-94689896D01*
X74575229Y-95016614D02*
X74016287Y-94897808D01*
X74295758Y-94957211D02*
X74503669Y-93979063D01*
X74503669Y-93979063D02*
X74380811Y-94098998D01*
X74380811Y-94098998D02*
X74267853Y-94172353D01*
X74267853Y-94172353D02*
X74164795Y-94199131D01*
D11*
%TO.C,MX16*%
X229291300Y-87515000D02*
X215091300Y-87515000D01*
X229291300Y-101715000D02*
X229291300Y-87515000D01*
X215091300Y-101715000D02*
X229291300Y-101715000D01*
X215091300Y-87515000D02*
X215091300Y-101715000D01*
%TO.C,MX15*%
X210241300Y-82276200D02*
X196041300Y-82276200D01*
X210241300Y-96476200D02*
X210241300Y-82276200D01*
X196041300Y-96476200D02*
X210241300Y-96476200D01*
X196041300Y-82276200D02*
X196041300Y-96476200D01*
%TO.C,MX14*%
X191191300Y-82276200D02*
X176991300Y-82276200D01*
X191191300Y-96476200D02*
X191191300Y-82276200D01*
X176991300Y-96476200D02*
X191191300Y-96476200D01*
X176991300Y-82276200D02*
X176991300Y-96476200D01*
%TO.C,MX13*%
X172141300Y-87515000D02*
X157941300Y-87515000D01*
X172141300Y-101715000D02*
X172141300Y-87515000D01*
X157941300Y-101715000D02*
X172141300Y-101715000D01*
X157941300Y-87515000D02*
X157941300Y-101715000D01*
%TO.C,MX12*%
X229291300Y-106565000D02*
X215091300Y-106565000D01*
X229291300Y-120765000D02*
X229291300Y-106565000D01*
X215091300Y-120765000D02*
X229291300Y-120765000D01*
X215091300Y-106565000D02*
X215091300Y-120765000D01*
%TO.C,MX11*%
X210241300Y-101326200D02*
X196041300Y-101326200D01*
X210241300Y-115526200D02*
X210241300Y-101326200D01*
X196041300Y-115526200D02*
X210241300Y-115526200D01*
X196041300Y-101326200D02*
X196041300Y-115526200D01*
%TO.C,MX10*%
X191191300Y-101326200D02*
X176991300Y-101326200D01*
X191191300Y-115526200D02*
X191191300Y-101326200D01*
X176991300Y-115526200D02*
X191191300Y-115526200D01*
X176991300Y-101326200D02*
X176991300Y-115526200D01*
%TO.C,MX9*%
X172141300Y-106565000D02*
X157941300Y-106565000D01*
X172141300Y-120765000D02*
X172141300Y-106565000D01*
X157941300Y-120765000D02*
X172141300Y-120765000D01*
X157941300Y-106565000D02*
X157941300Y-120765000D01*
%TO.C,MX8*%
X130160100Y-139426200D02*
X130160100Y-153626200D01*
X130160100Y-153626200D02*
X144360100Y-153626200D01*
X144360100Y-153626200D02*
X144360100Y-139426200D01*
X144360100Y-139426200D02*
X130160100Y-139426200D01*
%TO.C,MX7*%
X115943800Y-54177500D02*
X101743800Y-54177500D01*
X115943800Y-68377500D02*
X115943800Y-54177500D01*
X101743800Y-68377500D02*
X115943800Y-68377500D01*
X101743800Y-54177500D02*
X101743800Y-68377500D01*
%TO.C,MX6*%
X96893800Y-54177500D02*
X82693800Y-54177500D01*
X96893800Y-68377500D02*
X96893800Y-54177500D01*
X82693800Y-68377500D02*
X96893800Y-68377500D01*
X82693800Y-54177500D02*
X82693800Y-68377500D01*
%TO.C,MX5*%
X77843800Y-54177500D02*
X63643800Y-54177500D01*
X77843800Y-68377500D02*
X77843800Y-54177500D01*
X63643800Y-68377500D02*
X77843800Y-68377500D01*
X63643800Y-54177500D02*
X63643800Y-68377500D01*
%TO.C,MX4*%
X88880125Y-79031179D02*
X85927779Y-92920875D01*
X85927779Y-92920875D02*
X99817475Y-95873221D01*
X99817475Y-95873221D02*
X102769821Y-81983525D01*
X102769821Y-81983525D02*
X88880125Y-79031179D01*
%TO.C,MX3*%
X103501025Y-101620079D02*
X100548679Y-115509775D01*
X100548679Y-115509775D02*
X114438375Y-118462121D01*
X114438375Y-118462121D02*
X117390721Y-104572425D01*
X117390721Y-104572425D02*
X103501025Y-101620079D01*
%TO.C,MX2*%
X98809021Y-100617225D02*
X84919325Y-97664879D01*
X95856675Y-114506921D02*
X98809021Y-100617225D01*
X81966979Y-111554575D02*
X95856675Y-114506921D01*
X84919325Y-97664879D02*
X81966979Y-111554575D01*
%TO.C,MX1*%
X80123321Y-96651025D02*
X66233625Y-93698679D01*
X77170975Y-110540721D02*
X80123321Y-96651025D01*
X63281279Y-107588375D02*
X77170975Y-110540721D01*
X66233625Y-93698679D02*
X63281279Y-107588375D01*
%TD*%
%LPC*%
D12*
%TO.C,REF\u002A\u002A*%
X229870000Y-156210000D03*
D13*
X229870000Y-156210000D03*
%TD*%
D12*
%TO.C,REF\u002A\u002A*%
X60960000Y-156210000D03*
D13*
X60960000Y-156210000D03*
%TD*%
D12*
%TO.C,REF\u002A\u002A*%
X60960000Y-40640000D03*
D13*
X60960000Y-40640000D03*
%TD*%
%TO.C,REF\u002A\u002A*%
X229870000Y-40640000D03*
D12*
X229870000Y-40640000D03*
%TD*%
D14*
%TO.C,MX16*%
X227271300Y-94615000D03*
X217111300Y-94615000D03*
D15*
X222191300Y-94615000D03*
D16*
X224731300Y-89535000D03*
X218381300Y-92075000D03*
%TD*%
D14*
%TO.C,MX15*%
X208221300Y-89376200D03*
X198061300Y-89376200D03*
D15*
X203141300Y-89376200D03*
D16*
X205681300Y-84296200D03*
X199331300Y-86836200D03*
%TD*%
D14*
%TO.C,MX14*%
X189171300Y-89376200D03*
X179011300Y-89376200D03*
D15*
X184091300Y-89376200D03*
D16*
X186631300Y-84296200D03*
X180281300Y-86836200D03*
%TD*%
D14*
%TO.C,MX13*%
X170121300Y-94615000D03*
X159961300Y-94615000D03*
D15*
X165041300Y-94615000D03*
D16*
X167581300Y-89535000D03*
X161231300Y-92075000D03*
%TD*%
D14*
%TO.C,MX12*%
X227271300Y-113665000D03*
X217111300Y-113665000D03*
D15*
X222191300Y-113665000D03*
D16*
X224731300Y-108585000D03*
X218381300Y-111125000D03*
%TD*%
D14*
%TO.C,MX11*%
X208221300Y-108426200D03*
X198061300Y-108426200D03*
D15*
X203141300Y-108426200D03*
D16*
X205681300Y-103346200D03*
X199331300Y-105886200D03*
%TD*%
D14*
%TO.C,MX10*%
X189171300Y-108426200D03*
X179011300Y-108426200D03*
D15*
X184091300Y-108426200D03*
D16*
X186631300Y-103346200D03*
X180281300Y-105886200D03*
%TD*%
D14*
%TO.C,MX9*%
X170121300Y-113665000D03*
X159961300Y-113665000D03*
D15*
X165041300Y-113665000D03*
D16*
X167581300Y-108585000D03*
X161231300Y-111125000D03*
%TD*%
%TO.C,MX8*%
X133450100Y-143986200D03*
X139800100Y-141446200D03*
D15*
X137260100Y-146526200D03*
D14*
X132180100Y-146526200D03*
X142340100Y-146526200D03*
%TD*%
%TO.C,MX7*%
X113923800Y-61277500D03*
X103763800Y-61277500D03*
D15*
X108843800Y-61277500D03*
D16*
X111383800Y-56197500D03*
X105033800Y-58737500D03*
%TD*%
D14*
%TO.C,MX6*%
X94873800Y-61277500D03*
X84713800Y-61277500D03*
D15*
X89793800Y-61277500D03*
D16*
X92333800Y-56197500D03*
X85983800Y-58737500D03*
%TD*%
D14*
%TO.C,MX5*%
X75823800Y-61277500D03*
X65663800Y-61277500D03*
D15*
X70743800Y-61277500D03*
D16*
X73283800Y-56197500D03*
X66933800Y-58737500D03*
%TD*%
%TO.C,MX4*%
X91150153Y-84175562D03*
X97889486Y-83011306D03*
D15*
X94348800Y-87452200D03*
D14*
X89379810Y-86396009D03*
X99317790Y-88508391D03*
%TD*%
D16*
%TO.C,MX3*%
X105771053Y-106764462D03*
X112510386Y-105600206D03*
D15*
X108969700Y-110041100D03*
D14*
X104000710Y-108984909D03*
X113938690Y-111097291D03*
%TD*%
%TO.C,MX2*%
X95356990Y-107142091D03*
X85419010Y-105029709D03*
D15*
X90388000Y-106085900D03*
D16*
X93928686Y-101645006D03*
X87189353Y-102809262D03*
%TD*%
D14*
%TO.C,MX1*%
X76671290Y-103175891D03*
X66733310Y-101063509D03*
D15*
X71702300Y-102119700D03*
D16*
X75242986Y-97678806D03*
X68503653Y-98843062D03*
%TD*%
D17*
%TO.C,U1*%
X231168800Y-63050000D03*
D18*
X228138800Y-62750000D03*
X228138800Y-57900000D03*
D17*
X231168800Y-57600000D03*
D19*
X231298800Y-69215000D03*
X228758800Y-69215000D03*
D20*
X226218800Y-69215000D03*
D19*
X223678800Y-69215000D03*
X221138800Y-69215000D03*
X218598800Y-69215000D03*
X216058800Y-69215000D03*
D20*
X213518800Y-69215000D03*
D19*
X210978800Y-69215000D03*
X208438800Y-69215000D03*
X205898800Y-69215000D03*
X203358800Y-69215000D03*
D20*
X200818800Y-69215000D03*
D19*
X198278800Y-69215000D03*
X195738800Y-69215000D03*
X193198800Y-69215000D03*
X190658800Y-69215000D03*
D20*
X188118800Y-69215000D03*
D19*
X185578800Y-69215000D03*
X183038800Y-69215000D03*
X183038800Y-51435000D03*
X185578800Y-51435000D03*
D20*
X188118800Y-51435000D03*
D19*
X190658800Y-51435000D03*
X193198800Y-51435000D03*
X195738800Y-51435000D03*
X198278800Y-51435000D03*
D20*
X200818800Y-51435000D03*
D19*
X203358800Y-51435000D03*
X205898800Y-51435000D03*
X208438800Y-51435000D03*
X210978800Y-51435000D03*
D20*
X213518800Y-51435000D03*
D19*
X216058800Y-51435000D03*
X218598800Y-51435000D03*
X221138800Y-51435000D03*
X223678800Y-51435000D03*
D20*
X226218800Y-51435000D03*
D19*
X228758800Y-51435000D03*
X231298800Y-51435000D03*
X183268800Y-62865000D03*
D20*
X183268800Y-60325000D03*
D19*
X183268800Y-57785000D03*
%TD*%
%LPD*%
M02*
