%TF.GenerationSoftware,KiCad,Pcbnew,7.0.5*%
%TF.CreationDate,2023-06-06T19:01:50+08:00*%
%TF.ProjectId,JosEffigy-All-Keyboard-Mixbox,4a6f7345-6666-4696-9779-2d416c6c2d4b,rev?*%
%TF.SameCoordinates,Original*%
%TF.FileFunction,Profile,NP*%
%FSLAX46Y46*%
G04 Gerber Fmt 4.6, Leading zero omitted, Abs format (unit mm)*
G04 Created by KiCad (PCBNEW 7.0.5) date 2023-06-06 19:01:50*
%MOMM*%
%LPD*%
G01*
G04 APERTURE LIST*
%TA.AperFunction,Profile*%
%ADD10C,0.100000*%
%TD*%
%TA.AperFunction,Profile*%
%ADD11C,0.120000*%
%TD*%
G04 APERTURE END LIST*
D10*
X228600000Y-36830000D02*
X62230000Y-36830000D01*
X57150000Y-154940000D02*
G75*
G03*
X62230000Y-160020000I5080000J0D01*
G01*
X62230000Y-160020000D02*
X228600000Y-160020000D01*
X62230000Y-36830000D02*
G75*
G03*
X57150000Y-41910000I0J-5080000D01*
G01*
X228600000Y-160020000D02*
G75*
G03*
X233680000Y-154940000I0J5080000D01*
G01*
X57150000Y-41910000D02*
X57150000Y-154940000D01*
X233680000Y-41910000D02*
G75*
G03*
X228600000Y-36830000I-5080000J0D01*
G01*
X233680000Y-154940000D02*
X233680000Y-41910000D01*
D11*
%TO.C,D16*%
X220450000Y-98464000D02*
X224050000Y-98464000D01*
X220450000Y-101564000D02*
X220450000Y-98464000D01*
X224050000Y-101564000D02*
X220450000Y-101564000D01*
X224050000Y-98464000D02*
X224050000Y-101564000D01*
%TO.C,D15*%
X201400000Y-92938000D02*
X205000000Y-92938000D01*
X201400000Y-96038000D02*
X201400000Y-92938000D01*
X205000000Y-96038000D02*
X201400000Y-96038000D01*
X205000000Y-92938000D02*
X205000000Y-96038000D01*
%TO.C,D14*%
X182350000Y-92938000D02*
X185950000Y-92938000D01*
X182350000Y-96038000D02*
X182350000Y-92938000D01*
X185950000Y-96038000D02*
X182350000Y-96038000D01*
X185950000Y-92938000D02*
X185950000Y-96038000D01*
%TO.C,D13*%
X166900000Y-101564000D02*
X163300000Y-101564000D01*
X166900000Y-98464000D02*
X166900000Y-101564000D01*
X163300000Y-98464000D02*
X166900000Y-98464000D01*
X163300000Y-101564000D02*
X163300000Y-98464000D01*
%TO.C,D12*%
X220450000Y-117514000D02*
X224050000Y-117514000D01*
X220450000Y-120614000D02*
X220450000Y-117514000D01*
X224050000Y-120614000D02*
X220450000Y-120614000D01*
X224050000Y-117514000D02*
X224050000Y-120614000D01*
%TO.C,D11*%
X205000000Y-115342000D02*
X201400000Y-115342000D01*
X205000000Y-112242000D02*
X205000000Y-115342000D01*
X201400000Y-112242000D02*
X205000000Y-112242000D01*
X201400000Y-115342000D02*
X201400000Y-112242000D01*
%TO.C,D10*%
X182350000Y-112242000D02*
X185950000Y-112242000D01*
X182350000Y-115342000D02*
X182350000Y-112242000D01*
X185950000Y-115342000D02*
X182350000Y-115342000D01*
X185950000Y-112242000D02*
X185950000Y-115342000D01*
%TO.C,D9*%
X167062500Y-120614000D02*
X163462500Y-120614000D01*
X167062500Y-117514000D02*
X167062500Y-120614000D01*
X163462500Y-117514000D02*
X167062500Y-117514000D01*
X163462500Y-120614000D02*
X163462500Y-117514000D01*
%TO.C,D8*%
X139135800Y-150613400D02*
X139135800Y-153713400D01*
X139135800Y-153713400D02*
X135535800Y-153713400D01*
X135535800Y-153713400D02*
X135535800Y-150613400D01*
X135535800Y-150613400D02*
X139135800Y-150613400D01*
%TO.C,D7*%
X110512000Y-64998000D02*
X110512000Y-68098000D01*
X110512000Y-68098000D02*
X106912000Y-68098000D01*
X106912000Y-68098000D02*
X106912000Y-64998000D01*
X106912000Y-64998000D02*
X110512000Y-64998000D01*
%TO.C,D6*%
X92093200Y-64998000D02*
X92093200Y-68098000D01*
X92093200Y-68098000D02*
X88493200Y-68098000D01*
X88493200Y-68098000D02*
X88493200Y-64998000D01*
X88493200Y-64998000D02*
X92093200Y-64998000D01*
%TO.C,D5*%
X72412000Y-64998000D02*
X72412000Y-68098000D01*
X72412000Y-68098000D02*
X68812000Y-68098000D01*
X68812000Y-68098000D02*
X68812000Y-64998000D01*
X68812000Y-64998000D02*
X72412000Y-64998000D01*
%TO.C,D4*%
X91975497Y-90542030D02*
X95496829Y-91290512D01*
X91330971Y-93574288D02*
X91975497Y-90542030D01*
X94852303Y-94322770D02*
X91330971Y-93574288D01*
X95496829Y-91290512D02*
X94852303Y-94322770D01*
%TO.C,D3*%
X110070029Y-114220812D02*
X109425503Y-117253070D01*
X109425503Y-117253070D02*
X105904171Y-116504588D01*
X105904171Y-116504588D02*
X106548697Y-113472330D01*
X106548697Y-113472330D02*
X110070029Y-114220812D01*
%TO.C,D2*%
X87961997Y-109424230D02*
X91483329Y-110172712D01*
X87317471Y-112456488D02*
X87961997Y-109424230D01*
X90838803Y-113204970D02*
X87317471Y-112456488D01*
X91483329Y-110172712D02*
X90838803Y-113204970D01*
%TO.C,D1*%
X69079797Y-105410730D02*
X72601129Y-106159212D01*
X68435271Y-108442988D02*
X69079797Y-105410730D01*
X71956603Y-109191470D02*
X68435271Y-108442988D01*
X72601129Y-106159212D02*
X71956603Y-109191470D01*
%TD*%
M02*
