M48
; DRILL file {KiCad 7.0.5} date Tue Jun  6 19:01:46 2023
; FORMAT={-:-/ absolute / inch / decimal}
; #@! TF.CreationDate,2023-06-06T19:01:46+08:00
; #@! TF.GenerationSoftware,Kicad,Pcbnew,7.0.5
; #@! TF.FileFunction,Plated,1,2,PTH
FMAT,2
INCH
; #@! TA.AperFunction,Plated,PTH,ViaDrill
T1C0.0157
; #@! TA.AperFunction,Plated,PTH,ComponentDrill
T2C0.0402
; #@! TA.AperFunction,Plated,PTH,ComponentDrill
T3C0.1063
; #@! TA.AperFunction,Plated,PTH,ComponentDrill
T4C0.1201
%
G90
G05
T1
X5.0457Y-4.2945
X6.4027Y-3.8533
X7.42Y-3.8278
X7.5242Y-3.7228
X7.7465Y-4.4347
X7.8391Y-2.9345
X7.8768Y-2.9042
X7.9394Y-2.8739
X7.9463Y-3.9836
X8.0258Y-3.8529
X8.2481Y-2.9463
X8.2555Y-3.7471
X8.5407Y-4.6225
X8.9163Y-3.9651
T2
X7.2063Y-2.025
X7.2063Y-2.725
X7.2153Y-2.275
X7.2153Y-2.375
X7.2153Y-2.475
X7.3063Y-2.025
X7.3063Y-2.725
X7.4063Y-2.025
X7.4063Y-2.725
X7.5063Y-2.025
X7.5063Y-2.725
X7.6063Y-2.025
X7.6063Y-2.725
X7.7063Y-2.025
X7.7063Y-2.725
X7.8063Y-2.025
X7.8063Y-2.725
X7.9063Y-2.025
X7.9063Y-2.725
X8.0063Y-2.025
X8.0063Y-2.725
X8.1063Y-2.025
X8.1063Y-2.725
X8.2063Y-2.025
X8.2063Y-2.725
X8.3063Y-2.025
X8.3063Y-2.725
X8.4063Y-2.025
X8.4063Y-2.725
X8.5063Y-2.025
X8.5063Y-2.725
X8.6063Y-2.025
X8.6063Y-2.725
X8.7063Y-2.025
X8.7063Y-2.725
X8.8063Y-2.025
X8.8063Y-2.725
X8.9063Y-2.025
X8.9063Y-2.725
X9.0063Y-2.025
X9.0063Y-2.725
X9.1063Y-2.025
X9.1063Y-2.725
T3
X2.4Y-1.6
X2.4Y-6.15
X9.05Y-1.6
X9.05Y-6.15
T4
X2.6352Y-2.3125
X2.697Y-3.8915
X2.8852Y-2.2125
X2.9623Y-3.8456
X3.3852Y-2.3125
X3.4327Y-4.0476
X3.5886Y-3.314
X3.6352Y-2.2125
X3.698Y-4.0018
X3.8539Y-3.2682
X4.1352Y-2.3125
X4.1642Y-4.2033
X4.3852Y-2.2125
X4.4295Y-4.1575
X5.2539Y-5.6687
X5.5039Y-5.5687
X6.3477Y-3.625
X6.3477Y-4.375
X6.5977Y-3.525
X6.5977Y-4.275
X7.0977Y-3.4187
X7.0977Y-4.1687
X7.3477Y-3.3187
X7.3477Y-4.0687
X7.8477Y-3.4187
X7.8477Y-4.1687
X8.0977Y-3.3187
X8.0977Y-4.0687
X8.5977Y-3.625
X8.5977Y-4.375
X8.8477Y-3.525
X8.8477Y-4.275
T0
M30
