%TF.GenerationSoftware,KiCad,Pcbnew,7.0.5*%
%TF.CreationDate,2023-06-07T16:44:32+08:00*%
%TF.ProjectId,JosEffigy-All-Keyboard-Mixbox,4a6f7345-6666-4696-9779-2d416c6c2d4b,rev?*%
%TF.SameCoordinates,Original*%
%TF.FileFunction,Legend,Bot*%
%TF.FilePolarity,Positive*%
%FSLAX46Y46*%
G04 Gerber Fmt 4.6, Leading zero omitted, Abs format (unit mm)*
G04 Created by KiCad (PCBNEW 7.0.5) date 2023-06-07 16:44:32*
%MOMM*%
%LPD*%
G01*
G04 APERTURE LIST*
G04 Aperture macros list*
%AMRoundRect*
0 Rectangle with rounded corners*
0 $1 Rounding radius*
0 $2 $3 $4 $5 $6 $7 $8 $9 X,Y pos of 4 corners*
0 Add a 4 corners polygon primitive as box body*
4,1,4,$2,$3,$4,$5,$6,$7,$8,$9,$2,$3,0*
0 Add four circle primitives for the rounded corners*
1,1,$1+$1,$2,$3*
1,1,$1+$1,$4,$5*
1,1,$1+$1,$6,$7*
1,1,$1+$1,$8,$9*
0 Add four rect primitives between the rounded corners*
20,1,$1+$1,$2,$3,$4,$5,0*
20,1,$1+$1,$4,$5,$6,$7,0*
20,1,$1+$1,$6,$7,$8,$9,0*
20,1,$1+$1,$8,$9,$2,$3,0*%
G04 Aperture macros list end*
%ADD10C,0.150000*%
%ADD11C,0.080000*%
%ADD12C,0.120000*%
%ADD13C,2.200000*%
%ADD14RoundRect,0.250000X-1.025000X-1.000000X1.025000X-1.000000X1.025000X1.000000X-1.025000X1.000000X0*%
%ADD15C,1.750000*%
%ADD16C,4.000000*%
%ADD17C,3.600000*%
%ADD18O,1.800000X1.800000*%
%ADD19O,1.500000X1.500000*%
%ADD20O,1.700000X1.700000*%
%ADD21R,1.700000X3.500000*%
%ADD22R,1.700000X1.700000*%
%ADD23R,3.500000X1.700000*%
%ADD24R,0.510000X0.600000*%
%ADD25R,1.700000X1.000000*%
%ADD26RoundRect,0.150000X0.512500X0.150000X-0.512500X0.150000X-0.512500X-0.150000X0.512500X-0.150000X0*%
G04 APERTURE END LIST*
D10*
%TO.C,U1*%
X206464819Y-59563095D02*
X207274342Y-59563095D01*
X207274342Y-59563095D02*
X207369580Y-59610714D01*
X207369580Y-59610714D02*
X207417200Y-59658333D01*
X207417200Y-59658333D02*
X207464819Y-59753571D01*
X207464819Y-59753571D02*
X207464819Y-59944047D01*
X207464819Y-59944047D02*
X207417200Y-60039285D01*
X207417200Y-60039285D02*
X207369580Y-60086904D01*
X207369580Y-60086904D02*
X207274342Y-60134523D01*
X207274342Y-60134523D02*
X206464819Y-60134523D01*
X207464819Y-61134523D02*
X207464819Y-60563095D01*
X207464819Y-60848809D02*
X206464819Y-60848809D01*
X206464819Y-60848809D02*
X206607676Y-60753571D01*
X206607676Y-60753571D02*
X206702914Y-60658333D01*
X206702914Y-60658333D02*
X206750533Y-60563095D01*
X205861494Y-72438372D02*
X205888431Y-72357560D01*
X205888431Y-72357560D02*
X205969243Y-72276748D01*
X205969243Y-72276748D02*
X206076993Y-72222873D01*
X206076993Y-72222873D02*
X206184742Y-72222873D01*
X206184742Y-72222873D02*
X206265555Y-72249810D01*
X206265555Y-72249810D02*
X206400242Y-72330623D01*
X206400242Y-72330623D02*
X206481054Y-72411435D01*
X206481054Y-72411435D02*
X206561866Y-72546122D01*
X206561866Y-72546122D02*
X206588803Y-72626934D01*
X206588803Y-72626934D02*
X206588803Y-72734684D01*
X206588803Y-72734684D02*
X206534929Y-72842433D01*
X206534929Y-72842433D02*
X206481054Y-72896308D01*
X206481054Y-72896308D02*
X206373304Y-72950183D01*
X206373304Y-72950183D02*
X206319429Y-72950183D01*
X206319429Y-72950183D02*
X206130868Y-72761621D01*
X206130868Y-72761621D02*
X206238617Y-72653871D01*
X206130868Y-73246494D02*
X205565182Y-72680809D01*
X205565182Y-72680809D02*
X205349683Y-72896308D01*
X205349683Y-72896308D02*
X205322746Y-72977120D01*
X205322746Y-72977120D02*
X205322746Y-73030995D01*
X205322746Y-73030995D02*
X205349683Y-73111807D01*
X205349683Y-73111807D02*
X205430495Y-73192619D01*
X205430495Y-73192619D02*
X205511307Y-73219557D01*
X205511307Y-73219557D02*
X205565182Y-73219557D01*
X205565182Y-73219557D02*
X205645994Y-73192619D01*
X205645994Y-73192619D02*
X205861494Y-72977120D01*
X205161121Y-73569743D02*
X205188059Y-73488931D01*
X205188059Y-73488931D02*
X205188059Y-73435056D01*
X205188059Y-73435056D02*
X205161121Y-73354244D01*
X205161121Y-73354244D02*
X205134184Y-73327306D01*
X205134184Y-73327306D02*
X205053372Y-73300369D01*
X205053372Y-73300369D02*
X204999497Y-73300369D01*
X204999497Y-73300369D02*
X204918685Y-73327306D01*
X204918685Y-73327306D02*
X204810935Y-73435056D01*
X204810935Y-73435056D02*
X204783998Y-73515868D01*
X204783998Y-73515868D02*
X204783998Y-73569743D01*
X204783998Y-73569743D02*
X204810935Y-73650555D01*
X204810935Y-73650555D02*
X204837872Y-73677493D01*
X204837872Y-73677493D02*
X204918685Y-73704430D01*
X204918685Y-73704430D02*
X204972559Y-73704430D01*
X204972559Y-73704430D02*
X205053372Y-73677493D01*
X205053372Y-73677493D02*
X205161121Y-73569743D01*
X205161121Y-73569743D02*
X205241933Y-73542806D01*
X205241933Y-73542806D02*
X205295808Y-73542806D01*
X205295808Y-73542806D02*
X205376620Y-73569743D01*
X205376620Y-73569743D02*
X205484370Y-73677493D01*
X205484370Y-73677493D02*
X205511307Y-73758305D01*
X205511307Y-73758305D02*
X205511307Y-73812180D01*
X205511307Y-73812180D02*
X205484370Y-73892992D01*
X205484370Y-73892992D02*
X205376620Y-74000741D01*
X205376620Y-74000741D02*
X205295808Y-74027679D01*
X205295808Y-74027679D02*
X205241933Y-74027679D01*
X205241933Y-74027679D02*
X205161121Y-74000741D01*
X205161121Y-74000741D02*
X205053372Y-73892992D01*
X205053372Y-73892992D02*
X205026434Y-73812180D01*
X205026434Y-73812180D02*
X205026434Y-73758305D01*
X205026434Y-73758305D02*
X205053372Y-73677493D01*
X183270868Y-72422998D02*
X183297805Y-72342185D01*
X183297805Y-72342185D02*
X183378618Y-72261373D01*
X183378618Y-72261373D02*
X183486367Y-72207498D01*
X183486367Y-72207498D02*
X183594117Y-72207498D01*
X183594117Y-72207498D02*
X183674929Y-72234436D01*
X183674929Y-72234436D02*
X183809616Y-72315248D01*
X183809616Y-72315248D02*
X183890428Y-72396060D01*
X183890428Y-72396060D02*
X183971241Y-72530747D01*
X183971241Y-72530747D02*
X183998178Y-72611560D01*
X183998178Y-72611560D02*
X183998178Y-72719309D01*
X183998178Y-72719309D02*
X183944303Y-72827059D01*
X183944303Y-72827059D02*
X183890428Y-72880934D01*
X183890428Y-72880934D02*
X183782679Y-72934808D01*
X183782679Y-72934808D02*
X183728804Y-72934808D01*
X183728804Y-72934808D02*
X183540242Y-72746247D01*
X183540242Y-72746247D02*
X183647992Y-72638497D01*
X183540242Y-73231120D02*
X182974557Y-72665434D01*
X182974557Y-72665434D02*
X182759057Y-72880934D01*
X182759057Y-72880934D02*
X182732120Y-72961746D01*
X182732120Y-72961746D02*
X182732120Y-73015621D01*
X182732120Y-73015621D02*
X182759057Y-73096433D01*
X182759057Y-73096433D02*
X182839870Y-73177245D01*
X182839870Y-73177245D02*
X182920682Y-73204182D01*
X182920682Y-73204182D02*
X182974557Y-73204182D01*
X182974557Y-73204182D02*
X183055369Y-73177245D01*
X183055369Y-73177245D02*
X183270868Y-72961746D01*
X182678245Y-74093117D02*
X183001494Y-73769868D01*
X182839870Y-73931492D02*
X182274184Y-73365807D01*
X182274184Y-73365807D02*
X182408871Y-73392744D01*
X182408871Y-73392744D02*
X182516621Y-73392744D01*
X182516621Y-73392744D02*
X182597433Y-73365807D01*
X181600749Y-74039242D02*
X181870123Y-73769868D01*
X181870123Y-73769868D02*
X182166434Y-74012305D01*
X182166434Y-74012305D02*
X182112560Y-74012305D01*
X182112560Y-74012305D02*
X182031747Y-74039242D01*
X182031747Y-74039242D02*
X181897060Y-74173929D01*
X181897060Y-74173929D02*
X181870123Y-74254741D01*
X181870123Y-74254741D02*
X181870123Y-74308616D01*
X181870123Y-74308616D02*
X181897060Y-74389428D01*
X181897060Y-74389428D02*
X182031747Y-74524115D01*
X182031747Y-74524115D02*
X182112560Y-74551053D01*
X182112560Y-74551053D02*
X182166434Y-74551053D01*
X182166434Y-74551053D02*
X182247247Y-74524115D01*
X182247247Y-74524115D02*
X182381934Y-74389428D01*
X182381934Y-74389428D02*
X182408871Y-74308616D01*
X182408871Y-74308616D02*
X182408871Y-74254741D01*
X231261494Y-72438372D02*
X231288431Y-72357560D01*
X231288431Y-72357560D02*
X231369243Y-72276748D01*
X231369243Y-72276748D02*
X231476993Y-72222873D01*
X231476993Y-72222873D02*
X231584742Y-72222873D01*
X231584742Y-72222873D02*
X231665555Y-72249810D01*
X231665555Y-72249810D02*
X231800242Y-72330623D01*
X231800242Y-72330623D02*
X231881054Y-72411435D01*
X231881054Y-72411435D02*
X231961866Y-72546122D01*
X231961866Y-72546122D02*
X231988803Y-72626934D01*
X231988803Y-72626934D02*
X231988803Y-72734684D01*
X231988803Y-72734684D02*
X231934929Y-72842433D01*
X231934929Y-72842433D02*
X231881054Y-72896308D01*
X231881054Y-72896308D02*
X231773304Y-72950183D01*
X231773304Y-72950183D02*
X231719429Y-72950183D01*
X231719429Y-72950183D02*
X231530868Y-72761621D01*
X231530868Y-72761621D02*
X231638617Y-72653871D01*
X231530868Y-73246494D02*
X230965182Y-72680809D01*
X230965182Y-72680809D02*
X230749683Y-72896308D01*
X230749683Y-72896308D02*
X230722746Y-72977120D01*
X230722746Y-72977120D02*
X230722746Y-73030995D01*
X230722746Y-73030995D02*
X230749683Y-73111807D01*
X230749683Y-73111807D02*
X230830495Y-73192619D01*
X230830495Y-73192619D02*
X230911307Y-73219557D01*
X230911307Y-73219557D02*
X230965182Y-73219557D01*
X230965182Y-73219557D02*
X231045994Y-73192619D01*
X231045994Y-73192619D02*
X231261494Y-72977120D01*
X230291747Y-73354244D02*
X230237872Y-73408119D01*
X230237872Y-73408119D02*
X230210935Y-73488931D01*
X230210935Y-73488931D02*
X230210935Y-73542806D01*
X230210935Y-73542806D02*
X230237872Y-73623618D01*
X230237872Y-73623618D02*
X230318685Y-73758305D01*
X230318685Y-73758305D02*
X230453372Y-73892992D01*
X230453372Y-73892992D02*
X230588059Y-73973804D01*
X230588059Y-73973804D02*
X230668871Y-74000741D01*
X230668871Y-74000741D02*
X230722746Y-74000741D01*
X230722746Y-74000741D02*
X230803558Y-73973804D01*
X230803558Y-73973804D02*
X230857433Y-73919929D01*
X230857433Y-73919929D02*
X230884370Y-73839117D01*
X230884370Y-73839117D02*
X230884370Y-73785242D01*
X230884370Y-73785242D02*
X230857433Y-73704430D01*
X230857433Y-73704430D02*
X230776620Y-73569743D01*
X230776620Y-73569743D02*
X230641933Y-73435056D01*
X230641933Y-73435056D02*
X230507246Y-73354244D01*
X230507246Y-73354244D02*
X230426434Y-73327306D01*
X230426434Y-73327306D02*
X230372559Y-73327306D01*
X230372559Y-73327306D02*
X230291747Y-73354244D01*
X185810868Y-46314998D02*
X185837805Y-46234185D01*
X185837805Y-46234185D02*
X185918618Y-46153373D01*
X185918618Y-46153373D02*
X186026367Y-46099498D01*
X186026367Y-46099498D02*
X186134117Y-46099498D01*
X186134117Y-46099498D02*
X186214929Y-46126436D01*
X186214929Y-46126436D02*
X186349616Y-46207248D01*
X186349616Y-46207248D02*
X186430428Y-46288060D01*
X186430428Y-46288060D02*
X186511241Y-46422747D01*
X186511241Y-46422747D02*
X186538178Y-46503560D01*
X186538178Y-46503560D02*
X186538178Y-46611309D01*
X186538178Y-46611309D02*
X186484303Y-46719059D01*
X186484303Y-46719059D02*
X186430428Y-46772934D01*
X186430428Y-46772934D02*
X186322679Y-46826808D01*
X186322679Y-46826808D02*
X186268804Y-46826808D01*
X186268804Y-46826808D02*
X186080242Y-46638247D01*
X186080242Y-46638247D02*
X186187992Y-46530497D01*
X186080242Y-47123120D02*
X185514557Y-46557434D01*
X185514557Y-46557434D02*
X185299057Y-46772934D01*
X185299057Y-46772934D02*
X185272120Y-46853746D01*
X185272120Y-46853746D02*
X185272120Y-46907621D01*
X185272120Y-46907621D02*
X185299057Y-46988433D01*
X185299057Y-46988433D02*
X185379870Y-47069245D01*
X185379870Y-47069245D02*
X185460682Y-47096182D01*
X185460682Y-47096182D02*
X185514557Y-47096182D01*
X185514557Y-47096182D02*
X185595369Y-47069245D01*
X185595369Y-47069245D02*
X185810868Y-46853746D01*
X185218245Y-47985117D02*
X185541494Y-47661868D01*
X185379870Y-47823492D02*
X184814184Y-47257807D01*
X184814184Y-47257807D02*
X184948871Y-47284744D01*
X184948871Y-47284744D02*
X185056621Y-47284744D01*
X185056621Y-47284744D02*
X185137433Y-47257807D01*
X184463998Y-47607993D02*
X184086874Y-47985117D01*
X184086874Y-47985117D02*
X184894996Y-48308366D01*
X213508431Y-72411435D02*
X213535368Y-72330623D01*
X213535368Y-72330623D02*
X213616180Y-72249811D01*
X213616180Y-72249811D02*
X213723930Y-72195936D01*
X213723930Y-72195936D02*
X213831680Y-72195936D01*
X213831680Y-72195936D02*
X213912492Y-72222873D01*
X213912492Y-72222873D02*
X214047179Y-72303685D01*
X214047179Y-72303685D02*
X214127991Y-72384498D01*
X214127991Y-72384498D02*
X214208803Y-72519185D01*
X214208803Y-72519185D02*
X214235741Y-72599997D01*
X214235741Y-72599997D02*
X214235741Y-72707746D01*
X214235741Y-72707746D02*
X214181866Y-72815496D01*
X214181866Y-72815496D02*
X214127991Y-72869371D01*
X214127991Y-72869371D02*
X214020241Y-72923246D01*
X214020241Y-72923246D02*
X213966367Y-72923246D01*
X213966367Y-72923246D02*
X213777805Y-72734684D01*
X213777805Y-72734684D02*
X213885554Y-72626934D01*
X213777805Y-73219557D02*
X213212119Y-72653872D01*
X213212119Y-72653872D02*
X213454556Y-73542806D01*
X213454556Y-73542806D02*
X212888871Y-72977120D01*
X213185182Y-73812180D02*
X212619497Y-73246494D01*
X212619497Y-73246494D02*
X212484810Y-73381181D01*
X212484810Y-73381181D02*
X212430935Y-73488931D01*
X212430935Y-73488931D02*
X212430935Y-73596680D01*
X212430935Y-73596680D02*
X212457872Y-73677493D01*
X212457872Y-73677493D02*
X212538685Y-73812180D01*
X212538685Y-73812180D02*
X212619497Y-73892992D01*
X212619497Y-73892992D02*
X212754184Y-73973804D01*
X212754184Y-73973804D02*
X212834996Y-74000741D01*
X212834996Y-74000741D02*
X212942746Y-74000741D01*
X212942746Y-74000741D02*
X213050495Y-73946867D01*
X213050495Y-73946867D02*
X213185182Y-73812180D01*
X211200868Y-46314998D02*
X211227805Y-46234185D01*
X211227805Y-46234185D02*
X211308618Y-46153373D01*
X211308618Y-46153373D02*
X211416367Y-46099498D01*
X211416367Y-46099498D02*
X211524117Y-46099498D01*
X211524117Y-46099498D02*
X211604929Y-46126436D01*
X211604929Y-46126436D02*
X211739616Y-46207248D01*
X211739616Y-46207248D02*
X211820428Y-46288060D01*
X211820428Y-46288060D02*
X211901241Y-46422747D01*
X211901241Y-46422747D02*
X211928178Y-46503560D01*
X211928178Y-46503560D02*
X211928178Y-46611309D01*
X211928178Y-46611309D02*
X211874303Y-46719059D01*
X211874303Y-46719059D02*
X211820428Y-46772934D01*
X211820428Y-46772934D02*
X211712679Y-46826808D01*
X211712679Y-46826808D02*
X211658804Y-46826808D01*
X211658804Y-46826808D02*
X211470242Y-46638247D01*
X211470242Y-46638247D02*
X211577992Y-46530497D01*
X211470242Y-47123120D02*
X210904557Y-46557434D01*
X210904557Y-46557434D02*
X210689057Y-46772934D01*
X210689057Y-46772934D02*
X210662120Y-46853746D01*
X210662120Y-46853746D02*
X210662120Y-46907621D01*
X210662120Y-46907621D02*
X210689057Y-46988433D01*
X210689057Y-46988433D02*
X210769870Y-47069245D01*
X210769870Y-47069245D02*
X210850682Y-47096182D01*
X210850682Y-47096182D02*
X210904557Y-47096182D01*
X210904557Y-47096182D02*
X210985369Y-47069245D01*
X210985369Y-47069245D02*
X211200868Y-46853746D01*
X210419683Y-47150057D02*
X210365809Y-47150057D01*
X210365809Y-47150057D02*
X210284996Y-47176995D01*
X210284996Y-47176995D02*
X210150309Y-47311682D01*
X210150309Y-47311682D02*
X210123372Y-47392494D01*
X210123372Y-47392494D02*
X210123372Y-47446369D01*
X210123372Y-47446369D02*
X210150309Y-47527181D01*
X210150309Y-47527181D02*
X210204184Y-47581056D01*
X210204184Y-47581056D02*
X210311934Y-47634930D01*
X210311934Y-47634930D02*
X210958431Y-47634930D01*
X210958431Y-47634930D02*
X210608245Y-47985117D01*
X209853998Y-47607993D02*
X209476874Y-47985117D01*
X209476874Y-47985117D02*
X210284996Y-48308366D01*
X181134200Y-64215475D02*
X181172295Y-64329761D01*
X181172295Y-64329761D02*
X181172295Y-64520237D01*
X181172295Y-64520237D02*
X181134200Y-64596428D01*
X181134200Y-64596428D02*
X181096104Y-64634523D01*
X181096104Y-64634523D02*
X181019914Y-64672618D01*
X181019914Y-64672618D02*
X180943723Y-64672618D01*
X180943723Y-64672618D02*
X180867533Y-64634523D01*
X180867533Y-64634523D02*
X180829438Y-64596428D01*
X180829438Y-64596428D02*
X180791342Y-64520237D01*
X180791342Y-64520237D02*
X180753247Y-64367856D01*
X180753247Y-64367856D02*
X180715152Y-64291666D01*
X180715152Y-64291666D02*
X180677057Y-64253571D01*
X180677057Y-64253571D02*
X180600866Y-64215475D01*
X180600866Y-64215475D02*
X180524676Y-64215475D01*
X180524676Y-64215475D02*
X180448485Y-64253571D01*
X180448485Y-64253571D02*
X180410390Y-64291666D01*
X180410390Y-64291666D02*
X180372295Y-64367856D01*
X180372295Y-64367856D02*
X180372295Y-64558333D01*
X180372295Y-64558333D02*
X180410390Y-64672618D01*
X180372295Y-64939285D02*
X181172295Y-65129761D01*
X181172295Y-65129761D02*
X180600866Y-65282142D01*
X180600866Y-65282142D02*
X181172295Y-65434523D01*
X181172295Y-65434523D02*
X180372295Y-65625000D01*
X181096104Y-66386905D02*
X181134200Y-66348809D01*
X181134200Y-66348809D02*
X181172295Y-66234524D01*
X181172295Y-66234524D02*
X181172295Y-66158333D01*
X181172295Y-66158333D02*
X181134200Y-66044047D01*
X181134200Y-66044047D02*
X181058009Y-65967857D01*
X181058009Y-65967857D02*
X180981819Y-65929762D01*
X180981819Y-65929762D02*
X180829438Y-65891666D01*
X180829438Y-65891666D02*
X180715152Y-65891666D01*
X180715152Y-65891666D02*
X180562771Y-65929762D01*
X180562771Y-65929762D02*
X180486580Y-65967857D01*
X180486580Y-65967857D02*
X180410390Y-66044047D01*
X180410390Y-66044047D02*
X180372295Y-66158333D01*
X180372295Y-66158333D02*
X180372295Y-66234524D01*
X180372295Y-66234524D02*
X180410390Y-66348809D01*
X180410390Y-66348809D02*
X180448485Y-66386905D01*
X181172295Y-67110714D02*
X181172295Y-66729762D01*
X181172295Y-66729762D02*
X180372295Y-66729762D01*
X181172295Y-67377381D02*
X180372295Y-67377381D01*
X181172295Y-67834524D02*
X180715152Y-67491666D01*
X180372295Y-67834524D02*
X180829438Y-67377381D01*
X221544049Y-41335064D02*
X221274675Y-41604438D01*
X221759549Y-41442813D02*
X221005301Y-41065690D01*
X221005301Y-41065690D02*
X221382425Y-41819937D01*
X221193863Y-42008499D02*
X220628178Y-41442813D01*
X220628178Y-41442813D02*
X220493491Y-41577500D01*
X220493491Y-41577500D02*
X220439616Y-41685250D01*
X220439616Y-41685250D02*
X220439616Y-41792999D01*
X220439616Y-41792999D02*
X220466553Y-41873812D01*
X220466553Y-41873812D02*
X220547366Y-42008499D01*
X220547366Y-42008499D02*
X220628178Y-42089311D01*
X220628178Y-42089311D02*
X220762865Y-42170123D01*
X220762865Y-42170123D02*
X220843677Y-42197060D01*
X220843677Y-42197060D02*
X220951427Y-42197060D01*
X220951427Y-42197060D02*
X221059176Y-42143186D01*
X221059176Y-42143186D02*
X221193863Y-42008499D01*
X220251054Y-42843558D02*
X220304929Y-42843558D01*
X220304929Y-42843558D02*
X220412679Y-42789683D01*
X220412679Y-42789683D02*
X220466553Y-42735808D01*
X220466553Y-42735808D02*
X220520428Y-42628059D01*
X220520428Y-42628059D02*
X220520428Y-42520309D01*
X220520428Y-42520309D02*
X220493491Y-42439497D01*
X220493491Y-42439497D02*
X220412679Y-42304810D01*
X220412679Y-42304810D02*
X220331866Y-42223998D01*
X220331866Y-42223998D02*
X220197179Y-42143186D01*
X220197179Y-42143186D02*
X220116367Y-42116248D01*
X220116367Y-42116248D02*
X220008618Y-42116248D01*
X220008618Y-42116248D02*
X219900868Y-42170123D01*
X219900868Y-42170123D02*
X219846993Y-42223998D01*
X219846993Y-42223998D02*
X219793118Y-42331747D01*
X219793118Y-42331747D02*
X219793118Y-42385622D01*
X220251054Y-43059057D02*
X219820056Y-43490056D01*
X219146621Y-42924370D02*
X219523744Y-43678618D01*
X219523744Y-43678618D02*
X218769497Y-43301494D01*
X218823372Y-44378990D02*
X218742560Y-43921054D01*
X219146621Y-44055741D02*
X218580935Y-43490056D01*
X218580935Y-43490056D02*
X218365436Y-43705555D01*
X218365436Y-43705555D02*
X218338499Y-43786367D01*
X218338499Y-43786367D02*
X218338499Y-43840242D01*
X218338499Y-43840242D02*
X218365436Y-43921054D01*
X218365436Y-43921054D02*
X218446248Y-44001866D01*
X218446248Y-44001866D02*
X218527061Y-44028804D01*
X218527061Y-44028804D02*
X218580935Y-44028804D01*
X218580935Y-44028804D02*
X218661748Y-44001866D01*
X218661748Y-44001866D02*
X218877247Y-43786367D01*
X218284624Y-44325115D02*
X218096062Y-44513677D01*
X218311561Y-44890800D02*
X218580935Y-44621426D01*
X218580935Y-44621426D02*
X218015250Y-44055741D01*
X218015250Y-44055741D02*
X217745876Y-44325115D01*
X217584251Y-45025488D02*
X217772813Y-44836926D01*
X218069125Y-45133237D02*
X217503439Y-44567552D01*
X217503439Y-44567552D02*
X217234065Y-44836926D01*
X195970868Y-46314998D02*
X195997805Y-46234185D01*
X195997805Y-46234185D02*
X196078618Y-46153373D01*
X196078618Y-46153373D02*
X196186367Y-46099498D01*
X196186367Y-46099498D02*
X196294117Y-46099498D01*
X196294117Y-46099498D02*
X196374929Y-46126436D01*
X196374929Y-46126436D02*
X196509616Y-46207248D01*
X196509616Y-46207248D02*
X196590428Y-46288060D01*
X196590428Y-46288060D02*
X196671241Y-46422747D01*
X196671241Y-46422747D02*
X196698178Y-46503560D01*
X196698178Y-46503560D02*
X196698178Y-46611309D01*
X196698178Y-46611309D02*
X196644303Y-46719059D01*
X196644303Y-46719059D02*
X196590428Y-46772934D01*
X196590428Y-46772934D02*
X196482679Y-46826808D01*
X196482679Y-46826808D02*
X196428804Y-46826808D01*
X196428804Y-46826808D02*
X196240242Y-46638247D01*
X196240242Y-46638247D02*
X196347992Y-46530497D01*
X196240242Y-47123120D02*
X195674557Y-46557434D01*
X195674557Y-46557434D02*
X195459057Y-46772934D01*
X195459057Y-46772934D02*
X195432120Y-46853746D01*
X195432120Y-46853746D02*
X195432120Y-46907621D01*
X195432120Y-46907621D02*
X195459057Y-46988433D01*
X195459057Y-46988433D02*
X195539870Y-47069245D01*
X195539870Y-47069245D02*
X195620682Y-47096182D01*
X195620682Y-47096182D02*
X195674557Y-47096182D01*
X195674557Y-47096182D02*
X195755369Y-47069245D01*
X195755369Y-47069245D02*
X195970868Y-46853746D01*
X195189683Y-47150057D02*
X195135809Y-47150057D01*
X195135809Y-47150057D02*
X195054996Y-47176995D01*
X195054996Y-47176995D02*
X194920309Y-47311682D01*
X194920309Y-47311682D02*
X194893372Y-47392494D01*
X194893372Y-47392494D02*
X194893372Y-47446369D01*
X194893372Y-47446369D02*
X194920309Y-47527181D01*
X194920309Y-47527181D02*
X194974184Y-47581056D01*
X194974184Y-47581056D02*
X195081934Y-47634930D01*
X195081934Y-47634930D02*
X195728431Y-47634930D01*
X195728431Y-47634930D02*
X195378245Y-47985117D01*
X194462373Y-47769618D02*
X194408499Y-47823492D01*
X194408499Y-47823492D02*
X194381561Y-47904305D01*
X194381561Y-47904305D02*
X194381561Y-47958179D01*
X194381561Y-47958179D02*
X194408499Y-48038992D01*
X194408499Y-48038992D02*
X194489311Y-48173679D01*
X194489311Y-48173679D02*
X194623998Y-48308366D01*
X194623998Y-48308366D02*
X194758685Y-48389178D01*
X194758685Y-48389178D02*
X194839497Y-48416115D01*
X194839497Y-48416115D02*
X194893372Y-48416115D01*
X194893372Y-48416115D02*
X194974184Y-48389178D01*
X194974184Y-48389178D02*
X195028059Y-48335303D01*
X195028059Y-48335303D02*
X195054996Y-48254491D01*
X195054996Y-48254491D02*
X195054996Y-48200616D01*
X195054996Y-48200616D02*
X195028059Y-48119804D01*
X195028059Y-48119804D02*
X194947247Y-47985117D01*
X194947247Y-47985117D02*
X194812560Y-47850430D01*
X194812560Y-47850430D02*
X194677873Y-47769618D01*
X194677873Y-47769618D02*
X194597060Y-47742680D01*
X194597060Y-47742680D02*
X194543186Y-47742680D01*
X194543186Y-47742680D02*
X194462373Y-47769618D01*
X200808431Y-72411435D02*
X200835368Y-72330623D01*
X200835368Y-72330623D02*
X200916180Y-72249811D01*
X200916180Y-72249811D02*
X201023930Y-72195936D01*
X201023930Y-72195936D02*
X201131680Y-72195936D01*
X201131680Y-72195936D02*
X201212492Y-72222873D01*
X201212492Y-72222873D02*
X201347179Y-72303685D01*
X201347179Y-72303685D02*
X201427991Y-72384498D01*
X201427991Y-72384498D02*
X201508803Y-72519185D01*
X201508803Y-72519185D02*
X201535741Y-72599997D01*
X201535741Y-72599997D02*
X201535741Y-72707746D01*
X201535741Y-72707746D02*
X201481866Y-72815496D01*
X201481866Y-72815496D02*
X201427991Y-72869371D01*
X201427991Y-72869371D02*
X201320241Y-72923246D01*
X201320241Y-72923246D02*
X201266367Y-72923246D01*
X201266367Y-72923246D02*
X201077805Y-72734684D01*
X201077805Y-72734684D02*
X201185554Y-72626934D01*
X201077805Y-73219557D02*
X200512119Y-72653872D01*
X200512119Y-72653872D02*
X200754556Y-73542806D01*
X200754556Y-73542806D02*
X200188871Y-72977120D01*
X200485182Y-73812180D02*
X199919497Y-73246494D01*
X199919497Y-73246494D02*
X199784810Y-73381181D01*
X199784810Y-73381181D02*
X199730935Y-73488931D01*
X199730935Y-73488931D02*
X199730935Y-73596680D01*
X199730935Y-73596680D02*
X199757872Y-73677493D01*
X199757872Y-73677493D02*
X199838685Y-73812180D01*
X199838685Y-73812180D02*
X199919497Y-73892992D01*
X199919497Y-73892992D02*
X200054184Y-73973804D01*
X200054184Y-73973804D02*
X200134996Y-74000741D01*
X200134996Y-74000741D02*
X200242746Y-74000741D01*
X200242746Y-74000741D02*
X200350495Y-73946867D01*
X200350495Y-73946867D02*
X200485182Y-73812180D01*
X221300868Y-46415123D02*
X220950682Y-46765309D01*
X220950682Y-46765309D02*
X221354743Y-46792247D01*
X221354743Y-46792247D02*
X221273931Y-46873059D01*
X221273931Y-46873059D02*
X221246993Y-46953871D01*
X221246993Y-46953871D02*
X221246993Y-47007746D01*
X221246993Y-47007746D02*
X221273931Y-47088558D01*
X221273931Y-47088558D02*
X221408618Y-47223245D01*
X221408618Y-47223245D02*
X221489430Y-47250182D01*
X221489430Y-47250182D02*
X221543305Y-47250182D01*
X221543305Y-47250182D02*
X221624117Y-47223245D01*
X221624117Y-47223245D02*
X221785741Y-47061621D01*
X221785741Y-47061621D02*
X221812679Y-46980808D01*
X221812679Y-46980808D02*
X221812679Y-46926934D01*
X220789057Y-46926934D02*
X221166181Y-47681181D01*
X221166181Y-47681181D02*
X220411934Y-47304057D01*
X220277247Y-47438744D02*
X219927061Y-47788930D01*
X219927061Y-47788930D02*
X220331122Y-47815868D01*
X220331122Y-47815868D02*
X220250309Y-47896680D01*
X220250309Y-47896680D02*
X220223372Y-47977492D01*
X220223372Y-47977492D02*
X220223372Y-48031367D01*
X220223372Y-48031367D02*
X220250309Y-48112179D01*
X220250309Y-48112179D02*
X220384996Y-48246866D01*
X220384996Y-48246866D02*
X220465809Y-48273804D01*
X220465809Y-48273804D02*
X220519683Y-48273804D01*
X220519683Y-48273804D02*
X220600496Y-48246866D01*
X220600496Y-48246866D02*
X220762120Y-48085242D01*
X220762120Y-48085242D02*
X220789057Y-48004430D01*
X220789057Y-48004430D02*
X220789057Y-47950555D01*
X200808431Y-46811435D02*
X200835368Y-46730623D01*
X200835368Y-46730623D02*
X200916180Y-46649811D01*
X200916180Y-46649811D02*
X201023930Y-46595936D01*
X201023930Y-46595936D02*
X201131680Y-46595936D01*
X201131680Y-46595936D02*
X201212492Y-46622873D01*
X201212492Y-46622873D02*
X201347179Y-46703685D01*
X201347179Y-46703685D02*
X201427991Y-46784498D01*
X201427991Y-46784498D02*
X201508803Y-46919185D01*
X201508803Y-46919185D02*
X201535741Y-46999997D01*
X201535741Y-46999997D02*
X201535741Y-47107746D01*
X201535741Y-47107746D02*
X201481866Y-47215496D01*
X201481866Y-47215496D02*
X201427991Y-47269371D01*
X201427991Y-47269371D02*
X201320241Y-47323246D01*
X201320241Y-47323246D02*
X201266367Y-47323246D01*
X201266367Y-47323246D02*
X201077805Y-47134684D01*
X201077805Y-47134684D02*
X201185554Y-47026934D01*
X201077805Y-47619557D02*
X200512119Y-47053872D01*
X200512119Y-47053872D02*
X200754556Y-47942806D01*
X200754556Y-47942806D02*
X200188871Y-47377120D01*
X200485182Y-48212180D02*
X199919497Y-47646494D01*
X199919497Y-47646494D02*
X199784810Y-47781181D01*
X199784810Y-47781181D02*
X199730935Y-47888931D01*
X199730935Y-47888931D02*
X199730935Y-47996680D01*
X199730935Y-47996680D02*
X199757872Y-48077493D01*
X199757872Y-48077493D02*
X199838685Y-48212180D01*
X199838685Y-48212180D02*
X199919497Y-48292992D01*
X199919497Y-48292992D02*
X200054184Y-48373804D01*
X200054184Y-48373804D02*
X200134996Y-48400741D01*
X200134996Y-48400741D02*
X200242746Y-48400741D01*
X200242746Y-48400741D02*
X200350495Y-48346867D01*
X200350495Y-48346867D02*
X200485182Y-48212180D01*
X188108431Y-46811435D02*
X188135368Y-46730623D01*
X188135368Y-46730623D02*
X188216180Y-46649811D01*
X188216180Y-46649811D02*
X188323930Y-46595936D01*
X188323930Y-46595936D02*
X188431680Y-46595936D01*
X188431680Y-46595936D02*
X188512492Y-46622873D01*
X188512492Y-46622873D02*
X188647179Y-46703685D01*
X188647179Y-46703685D02*
X188727991Y-46784498D01*
X188727991Y-46784498D02*
X188808803Y-46919185D01*
X188808803Y-46919185D02*
X188835741Y-46999997D01*
X188835741Y-46999997D02*
X188835741Y-47107746D01*
X188835741Y-47107746D02*
X188781866Y-47215496D01*
X188781866Y-47215496D02*
X188727991Y-47269371D01*
X188727991Y-47269371D02*
X188620241Y-47323246D01*
X188620241Y-47323246D02*
X188566367Y-47323246D01*
X188566367Y-47323246D02*
X188377805Y-47134684D01*
X188377805Y-47134684D02*
X188485554Y-47026934D01*
X188377805Y-47619557D02*
X187812119Y-47053872D01*
X187812119Y-47053872D02*
X188054556Y-47942806D01*
X188054556Y-47942806D02*
X187488871Y-47377120D01*
X187785182Y-48212180D02*
X187219497Y-47646494D01*
X187219497Y-47646494D02*
X187084810Y-47781181D01*
X187084810Y-47781181D02*
X187030935Y-47888931D01*
X187030935Y-47888931D02*
X187030935Y-47996680D01*
X187030935Y-47996680D02*
X187057872Y-48077493D01*
X187057872Y-48077493D02*
X187138685Y-48212180D01*
X187138685Y-48212180D02*
X187219497Y-48292992D01*
X187219497Y-48292992D02*
X187354184Y-48373804D01*
X187354184Y-48373804D02*
X187434996Y-48400741D01*
X187434996Y-48400741D02*
X187542746Y-48400741D01*
X187542746Y-48400741D02*
X187650495Y-48346867D01*
X187650495Y-48346867D02*
X187785182Y-48212180D01*
X206413710Y-47163651D02*
X206332898Y-46705716D01*
X206736959Y-46840403D02*
X206171274Y-46274717D01*
X206171274Y-46274717D02*
X205955775Y-46490216D01*
X205955775Y-46490216D02*
X205928837Y-46571029D01*
X205928837Y-46571029D02*
X205928837Y-46624903D01*
X205928837Y-46624903D02*
X205955775Y-46705716D01*
X205955775Y-46705716D02*
X206036587Y-46786528D01*
X206036587Y-46786528D02*
X206117399Y-46813465D01*
X206117399Y-46813465D02*
X206171274Y-46813465D01*
X206171274Y-46813465D02*
X206252086Y-46786528D01*
X206252086Y-46786528D02*
X206467585Y-46571029D01*
X205605588Y-46840403D02*
X206063524Y-47298338D01*
X206063524Y-47298338D02*
X206090462Y-47379151D01*
X206090462Y-47379151D02*
X206090462Y-47433025D01*
X206090462Y-47433025D02*
X206063524Y-47513838D01*
X206063524Y-47513838D02*
X205955775Y-47621587D01*
X205955775Y-47621587D02*
X205874962Y-47648525D01*
X205874962Y-47648525D02*
X205821088Y-47648525D01*
X205821088Y-47648525D02*
X205740275Y-47621587D01*
X205740275Y-47621587D02*
X205282340Y-47163651D01*
X205578651Y-47998711D02*
X205012966Y-47433025D01*
X205012966Y-47433025D02*
X205255402Y-48321959D01*
X205255402Y-48321959D02*
X204689717Y-47756274D01*
X185810868Y-72468998D02*
X185837805Y-72388185D01*
X185837805Y-72388185D02*
X185918618Y-72307373D01*
X185918618Y-72307373D02*
X186026367Y-72253498D01*
X186026367Y-72253498D02*
X186134117Y-72253498D01*
X186134117Y-72253498D02*
X186214929Y-72280436D01*
X186214929Y-72280436D02*
X186349616Y-72361248D01*
X186349616Y-72361248D02*
X186430428Y-72442060D01*
X186430428Y-72442060D02*
X186511241Y-72576747D01*
X186511241Y-72576747D02*
X186538178Y-72657560D01*
X186538178Y-72657560D02*
X186538178Y-72765309D01*
X186538178Y-72765309D02*
X186484303Y-72873059D01*
X186484303Y-72873059D02*
X186430428Y-72926934D01*
X186430428Y-72926934D02*
X186322679Y-72980808D01*
X186322679Y-72980808D02*
X186268804Y-72980808D01*
X186268804Y-72980808D02*
X186080242Y-72792247D01*
X186080242Y-72792247D02*
X186187992Y-72684497D01*
X186080242Y-73277120D02*
X185514557Y-72711434D01*
X185514557Y-72711434D02*
X185299057Y-72926934D01*
X185299057Y-72926934D02*
X185272120Y-73007746D01*
X185272120Y-73007746D02*
X185272120Y-73061621D01*
X185272120Y-73061621D02*
X185299057Y-73142433D01*
X185299057Y-73142433D02*
X185379870Y-73223245D01*
X185379870Y-73223245D02*
X185460682Y-73250182D01*
X185460682Y-73250182D02*
X185514557Y-73250182D01*
X185514557Y-73250182D02*
X185595369Y-73223245D01*
X185595369Y-73223245D02*
X185810868Y-73007746D01*
X185218245Y-74139117D02*
X185541494Y-73815868D01*
X185379870Y-73977492D02*
X184814184Y-73411807D01*
X184814184Y-73411807D02*
X184948871Y-73438744D01*
X184948871Y-73438744D02*
X185056621Y-73438744D01*
X185056621Y-73438744D02*
X185137433Y-73411807D01*
X184356248Y-74246866D02*
X184733372Y-74623990D01*
X184275436Y-73896680D02*
X184814184Y-74166054D01*
X184814184Y-74166054D02*
X184463998Y-74516240D01*
X193430868Y-72568998D02*
X193457805Y-72488185D01*
X193457805Y-72488185D02*
X193538618Y-72407373D01*
X193538618Y-72407373D02*
X193646367Y-72353498D01*
X193646367Y-72353498D02*
X193754117Y-72353498D01*
X193754117Y-72353498D02*
X193834929Y-72380436D01*
X193834929Y-72380436D02*
X193969616Y-72461248D01*
X193969616Y-72461248D02*
X194050428Y-72542060D01*
X194050428Y-72542060D02*
X194131241Y-72676747D01*
X194131241Y-72676747D02*
X194158178Y-72757560D01*
X194158178Y-72757560D02*
X194158178Y-72865309D01*
X194158178Y-72865309D02*
X194104303Y-72973059D01*
X194104303Y-72973059D02*
X194050428Y-73026934D01*
X194050428Y-73026934D02*
X193942679Y-73080808D01*
X193942679Y-73080808D02*
X193888804Y-73080808D01*
X193888804Y-73080808D02*
X193700242Y-72892247D01*
X193700242Y-72892247D02*
X193807992Y-72784497D01*
X193700242Y-73377120D02*
X193134557Y-72811434D01*
X193134557Y-72811434D02*
X192919057Y-73026934D01*
X192919057Y-73026934D02*
X192892120Y-73107746D01*
X192892120Y-73107746D02*
X192892120Y-73161621D01*
X192892120Y-73161621D02*
X192919057Y-73242433D01*
X192919057Y-73242433D02*
X192999870Y-73323245D01*
X192999870Y-73323245D02*
X193080682Y-73350182D01*
X193080682Y-73350182D02*
X193134557Y-73350182D01*
X193134557Y-73350182D02*
X193215369Y-73323245D01*
X193215369Y-73323245D02*
X193430868Y-73107746D01*
X192838245Y-74239117D02*
X193161494Y-73915868D01*
X192999870Y-74077492D02*
X192434184Y-73511807D01*
X192434184Y-73511807D02*
X192568871Y-73538744D01*
X192568871Y-73538744D02*
X192676621Y-73538744D01*
X192676621Y-73538744D02*
X192757433Y-73511807D01*
X192110935Y-73942805D02*
X192057060Y-73942805D01*
X192057060Y-73942805D02*
X191976248Y-73969743D01*
X191976248Y-73969743D02*
X191841561Y-74104430D01*
X191841561Y-74104430D02*
X191814624Y-74185242D01*
X191814624Y-74185242D02*
X191814624Y-74239117D01*
X191814624Y-74239117D02*
X191841561Y-74319929D01*
X191841561Y-74319929D02*
X191895436Y-74373804D01*
X191895436Y-74373804D02*
X192003186Y-74427679D01*
X192003186Y-74427679D02*
X192649683Y-74427679D01*
X192649683Y-74427679D02*
X192299497Y-74777865D01*
X226208431Y-46811435D02*
X226235368Y-46730623D01*
X226235368Y-46730623D02*
X226316180Y-46649811D01*
X226316180Y-46649811D02*
X226423930Y-46595936D01*
X226423930Y-46595936D02*
X226531680Y-46595936D01*
X226531680Y-46595936D02*
X226612492Y-46622873D01*
X226612492Y-46622873D02*
X226747179Y-46703685D01*
X226747179Y-46703685D02*
X226827991Y-46784498D01*
X226827991Y-46784498D02*
X226908803Y-46919185D01*
X226908803Y-46919185D02*
X226935741Y-46999997D01*
X226935741Y-46999997D02*
X226935741Y-47107746D01*
X226935741Y-47107746D02*
X226881866Y-47215496D01*
X226881866Y-47215496D02*
X226827991Y-47269371D01*
X226827991Y-47269371D02*
X226720241Y-47323246D01*
X226720241Y-47323246D02*
X226666367Y-47323246D01*
X226666367Y-47323246D02*
X226477805Y-47134684D01*
X226477805Y-47134684D02*
X226585554Y-47026934D01*
X226477805Y-47619557D02*
X225912119Y-47053872D01*
X225912119Y-47053872D02*
X226154556Y-47942806D01*
X226154556Y-47942806D02*
X225588871Y-47377120D01*
X225885182Y-48212180D02*
X225319497Y-47646494D01*
X225319497Y-47646494D02*
X225184810Y-47781181D01*
X225184810Y-47781181D02*
X225130935Y-47888931D01*
X225130935Y-47888931D02*
X225130935Y-47996680D01*
X225130935Y-47996680D02*
X225157872Y-48077493D01*
X225157872Y-48077493D02*
X225238685Y-48212180D01*
X225238685Y-48212180D02*
X225319497Y-48292992D01*
X225319497Y-48292992D02*
X225454184Y-48373804D01*
X225454184Y-48373804D02*
X225534996Y-48400741D01*
X225534996Y-48400741D02*
X225642746Y-48400741D01*
X225642746Y-48400741D02*
X225750495Y-48346867D01*
X225750495Y-48346867D02*
X225885182Y-48212180D01*
X183270868Y-46314998D02*
X183297805Y-46234185D01*
X183297805Y-46234185D02*
X183378618Y-46153373D01*
X183378618Y-46153373D02*
X183486367Y-46099498D01*
X183486367Y-46099498D02*
X183594117Y-46099498D01*
X183594117Y-46099498D02*
X183674929Y-46126436D01*
X183674929Y-46126436D02*
X183809616Y-46207248D01*
X183809616Y-46207248D02*
X183890428Y-46288060D01*
X183890428Y-46288060D02*
X183971241Y-46422747D01*
X183971241Y-46422747D02*
X183998178Y-46503560D01*
X183998178Y-46503560D02*
X183998178Y-46611309D01*
X183998178Y-46611309D02*
X183944303Y-46719059D01*
X183944303Y-46719059D02*
X183890428Y-46772934D01*
X183890428Y-46772934D02*
X183782679Y-46826808D01*
X183782679Y-46826808D02*
X183728804Y-46826808D01*
X183728804Y-46826808D02*
X183540242Y-46638247D01*
X183540242Y-46638247D02*
X183647992Y-46530497D01*
X183540242Y-47123120D02*
X182974557Y-46557434D01*
X182974557Y-46557434D02*
X182759057Y-46772934D01*
X182759057Y-46772934D02*
X182732120Y-46853746D01*
X182732120Y-46853746D02*
X182732120Y-46907621D01*
X182732120Y-46907621D02*
X182759057Y-46988433D01*
X182759057Y-46988433D02*
X182839870Y-47069245D01*
X182839870Y-47069245D02*
X182920682Y-47096182D01*
X182920682Y-47096182D02*
X182974557Y-47096182D01*
X182974557Y-47096182D02*
X183055369Y-47069245D01*
X183055369Y-47069245D02*
X183270868Y-46853746D01*
X182678245Y-47985117D02*
X183001494Y-47661868D01*
X182839870Y-47823492D02*
X182274184Y-47257807D01*
X182274184Y-47257807D02*
X182408871Y-47284744D01*
X182408871Y-47284744D02*
X182516621Y-47284744D01*
X182516621Y-47284744D02*
X182597433Y-47257807D01*
X181627686Y-47904305D02*
X181735436Y-47796555D01*
X181735436Y-47796555D02*
X181816248Y-47769618D01*
X181816248Y-47769618D02*
X181870123Y-47769618D01*
X181870123Y-47769618D02*
X182004810Y-47796555D01*
X182004810Y-47796555D02*
X182139497Y-47877367D01*
X182139497Y-47877367D02*
X182354996Y-48092866D01*
X182354996Y-48092866D02*
X182381934Y-48173679D01*
X182381934Y-48173679D02*
X182381934Y-48227553D01*
X182381934Y-48227553D02*
X182354996Y-48308366D01*
X182354996Y-48308366D02*
X182247247Y-48416115D01*
X182247247Y-48416115D02*
X182166434Y-48443053D01*
X182166434Y-48443053D02*
X182112560Y-48443053D01*
X182112560Y-48443053D02*
X182031747Y-48416115D01*
X182031747Y-48416115D02*
X181897060Y-48281428D01*
X181897060Y-48281428D02*
X181870123Y-48200616D01*
X181870123Y-48200616D02*
X181870123Y-48146741D01*
X181870123Y-48146741D02*
X181897060Y-48065929D01*
X181897060Y-48065929D02*
X182004810Y-47958179D01*
X182004810Y-47958179D02*
X182085622Y-47931242D01*
X182085622Y-47931242D02*
X182139497Y-47931242D01*
X182139497Y-47931242D02*
X182220309Y-47958179D01*
X216544868Y-46314998D02*
X216571805Y-46234185D01*
X216571805Y-46234185D02*
X216652618Y-46153373D01*
X216652618Y-46153373D02*
X216760367Y-46099498D01*
X216760367Y-46099498D02*
X216868117Y-46099498D01*
X216868117Y-46099498D02*
X216948929Y-46126436D01*
X216948929Y-46126436D02*
X217083616Y-46207248D01*
X217083616Y-46207248D02*
X217164428Y-46288060D01*
X217164428Y-46288060D02*
X217245241Y-46422747D01*
X217245241Y-46422747D02*
X217272178Y-46503560D01*
X217272178Y-46503560D02*
X217272178Y-46611309D01*
X217272178Y-46611309D02*
X217218303Y-46719059D01*
X217218303Y-46719059D02*
X217164428Y-46772934D01*
X217164428Y-46772934D02*
X217056679Y-46826808D01*
X217056679Y-46826808D02*
X217002804Y-46826808D01*
X217002804Y-46826808D02*
X216814242Y-46638247D01*
X216814242Y-46638247D02*
X216921992Y-46530497D01*
X216814242Y-47123120D02*
X216248557Y-46557434D01*
X216248557Y-46557434D02*
X216033057Y-46772934D01*
X216033057Y-46772934D02*
X216006120Y-46853746D01*
X216006120Y-46853746D02*
X216006120Y-46907621D01*
X216006120Y-46907621D02*
X216033057Y-46988433D01*
X216033057Y-46988433D02*
X216113870Y-47069245D01*
X216113870Y-47069245D02*
X216194682Y-47096182D01*
X216194682Y-47096182D02*
X216248557Y-47096182D01*
X216248557Y-47096182D02*
X216329369Y-47069245D01*
X216329369Y-47069245D02*
X216544868Y-46853746D01*
X215763683Y-47150057D02*
X215709809Y-47150057D01*
X215709809Y-47150057D02*
X215628996Y-47176995D01*
X215628996Y-47176995D02*
X215494309Y-47311682D01*
X215494309Y-47311682D02*
X215467372Y-47392494D01*
X215467372Y-47392494D02*
X215467372Y-47446369D01*
X215467372Y-47446369D02*
X215494309Y-47527181D01*
X215494309Y-47527181D02*
X215548184Y-47581056D01*
X215548184Y-47581056D02*
X215655934Y-47634930D01*
X215655934Y-47634930D02*
X216302431Y-47634930D01*
X216302431Y-47634930D02*
X215952245Y-47985117D01*
X215305747Y-47985117D02*
X215332685Y-47904305D01*
X215332685Y-47904305D02*
X215332685Y-47850430D01*
X215332685Y-47850430D02*
X215305747Y-47769618D01*
X215305747Y-47769618D02*
X215278810Y-47742680D01*
X215278810Y-47742680D02*
X215197998Y-47715743D01*
X215197998Y-47715743D02*
X215144123Y-47715743D01*
X215144123Y-47715743D02*
X215063311Y-47742680D01*
X215063311Y-47742680D02*
X214955561Y-47850430D01*
X214955561Y-47850430D02*
X214928624Y-47931242D01*
X214928624Y-47931242D02*
X214928624Y-47985117D01*
X214928624Y-47985117D02*
X214955561Y-48065929D01*
X214955561Y-48065929D02*
X214982499Y-48092866D01*
X214982499Y-48092866D02*
X215063311Y-48119804D01*
X215063311Y-48119804D02*
X215117186Y-48119804D01*
X215117186Y-48119804D02*
X215197998Y-48092866D01*
X215197998Y-48092866D02*
X215305747Y-47985117D01*
X215305747Y-47985117D02*
X215386560Y-47958179D01*
X215386560Y-47958179D02*
X215440434Y-47958179D01*
X215440434Y-47958179D02*
X215521247Y-47985117D01*
X215521247Y-47985117D02*
X215628996Y-48092866D01*
X215628996Y-48092866D02*
X215655934Y-48173679D01*
X215655934Y-48173679D02*
X215655934Y-48227553D01*
X215655934Y-48227553D02*
X215628996Y-48308366D01*
X215628996Y-48308366D02*
X215521247Y-48416115D01*
X215521247Y-48416115D02*
X215440434Y-48443053D01*
X215440434Y-48443053D02*
X215386560Y-48443053D01*
X215386560Y-48443053D02*
X215305747Y-48416115D01*
X215305747Y-48416115D02*
X215197998Y-48308366D01*
X215197998Y-48308366D02*
X215171060Y-48227553D01*
X215171060Y-48227553D02*
X215171060Y-48173679D01*
X215171060Y-48173679D02*
X215197998Y-48092866D01*
X198500868Y-46314998D02*
X198527805Y-46234185D01*
X198527805Y-46234185D02*
X198608618Y-46153373D01*
X198608618Y-46153373D02*
X198716367Y-46099498D01*
X198716367Y-46099498D02*
X198824117Y-46099498D01*
X198824117Y-46099498D02*
X198904929Y-46126436D01*
X198904929Y-46126436D02*
X199039616Y-46207248D01*
X199039616Y-46207248D02*
X199120428Y-46288060D01*
X199120428Y-46288060D02*
X199201241Y-46422747D01*
X199201241Y-46422747D02*
X199228178Y-46503560D01*
X199228178Y-46503560D02*
X199228178Y-46611309D01*
X199228178Y-46611309D02*
X199174303Y-46719059D01*
X199174303Y-46719059D02*
X199120428Y-46772934D01*
X199120428Y-46772934D02*
X199012679Y-46826808D01*
X199012679Y-46826808D02*
X198958804Y-46826808D01*
X198958804Y-46826808D02*
X198770242Y-46638247D01*
X198770242Y-46638247D02*
X198877992Y-46530497D01*
X198770242Y-47123120D02*
X198204557Y-46557434D01*
X198204557Y-46557434D02*
X197989057Y-46772934D01*
X197989057Y-46772934D02*
X197962120Y-46853746D01*
X197962120Y-46853746D02*
X197962120Y-46907621D01*
X197962120Y-46907621D02*
X197989057Y-46988433D01*
X197989057Y-46988433D02*
X198069870Y-47069245D01*
X198069870Y-47069245D02*
X198150682Y-47096182D01*
X198150682Y-47096182D02*
X198204557Y-47096182D01*
X198204557Y-47096182D02*
X198285369Y-47069245D01*
X198285369Y-47069245D02*
X198500868Y-46853746D01*
X197719683Y-47150057D02*
X197665809Y-47150057D01*
X197665809Y-47150057D02*
X197584996Y-47176995D01*
X197584996Y-47176995D02*
X197450309Y-47311682D01*
X197450309Y-47311682D02*
X197423372Y-47392494D01*
X197423372Y-47392494D02*
X197423372Y-47446369D01*
X197423372Y-47446369D02*
X197450309Y-47527181D01*
X197450309Y-47527181D02*
X197504184Y-47581056D01*
X197504184Y-47581056D02*
X197611934Y-47634930D01*
X197611934Y-47634930D02*
X198258431Y-47634930D01*
X198258431Y-47634930D02*
X197908245Y-47985117D01*
X197369497Y-48523865D02*
X197692746Y-48200616D01*
X197531121Y-48362240D02*
X196965436Y-47796555D01*
X196965436Y-47796555D02*
X197100123Y-47823492D01*
X197100123Y-47823492D02*
X197207873Y-47823492D01*
X197207873Y-47823492D02*
X197288685Y-47796555D01*
X181134200Y-53029761D02*
X181172295Y-53144047D01*
X181172295Y-53144047D02*
X181172295Y-53334523D01*
X181172295Y-53334523D02*
X181134200Y-53410714D01*
X181134200Y-53410714D02*
X181096104Y-53448809D01*
X181096104Y-53448809D02*
X181019914Y-53486904D01*
X181019914Y-53486904D02*
X180943723Y-53486904D01*
X180943723Y-53486904D02*
X180867533Y-53448809D01*
X180867533Y-53448809D02*
X180829438Y-53410714D01*
X180829438Y-53410714D02*
X180791342Y-53334523D01*
X180791342Y-53334523D02*
X180753247Y-53182142D01*
X180753247Y-53182142D02*
X180715152Y-53105952D01*
X180715152Y-53105952D02*
X180677057Y-53067857D01*
X180677057Y-53067857D02*
X180600866Y-53029761D01*
X180600866Y-53029761D02*
X180524676Y-53029761D01*
X180524676Y-53029761D02*
X180448485Y-53067857D01*
X180448485Y-53067857D02*
X180410390Y-53105952D01*
X180410390Y-53105952D02*
X180372295Y-53182142D01*
X180372295Y-53182142D02*
X180372295Y-53372619D01*
X180372295Y-53372619D02*
X180410390Y-53486904D01*
X180372295Y-53753571D02*
X181172295Y-53944047D01*
X181172295Y-53944047D02*
X180600866Y-54096428D01*
X180600866Y-54096428D02*
X181172295Y-54248809D01*
X181172295Y-54248809D02*
X180372295Y-54439286D01*
X181172295Y-54744048D02*
X180372295Y-54744048D01*
X180372295Y-54744048D02*
X180372295Y-54934524D01*
X180372295Y-54934524D02*
X180410390Y-55048810D01*
X180410390Y-55048810D02*
X180486580Y-55125000D01*
X180486580Y-55125000D02*
X180562771Y-55163095D01*
X180562771Y-55163095D02*
X180715152Y-55201191D01*
X180715152Y-55201191D02*
X180829438Y-55201191D01*
X180829438Y-55201191D02*
X180981819Y-55163095D01*
X180981819Y-55163095D02*
X181058009Y-55125000D01*
X181058009Y-55125000D02*
X181134200Y-55048810D01*
X181134200Y-55048810D02*
X181172295Y-54934524D01*
X181172295Y-54934524D02*
X181172295Y-54744048D01*
X181172295Y-55544048D02*
X180372295Y-55544048D01*
X180372295Y-56077381D02*
X180372295Y-56229762D01*
X180372295Y-56229762D02*
X180410390Y-56305952D01*
X180410390Y-56305952D02*
X180486580Y-56382143D01*
X180486580Y-56382143D02*
X180638961Y-56420238D01*
X180638961Y-56420238D02*
X180905628Y-56420238D01*
X180905628Y-56420238D02*
X181058009Y-56382143D01*
X181058009Y-56382143D02*
X181134200Y-56305952D01*
X181134200Y-56305952D02*
X181172295Y-56229762D01*
X181172295Y-56229762D02*
X181172295Y-56077381D01*
X181172295Y-56077381D02*
X181134200Y-56001190D01*
X181134200Y-56001190D02*
X181058009Y-55925000D01*
X181058009Y-55925000D02*
X180905628Y-55886904D01*
X180905628Y-55886904D02*
X180638961Y-55886904D01*
X180638961Y-55886904D02*
X180486580Y-55925000D01*
X180486580Y-55925000D02*
X180410390Y-56001190D01*
X180410390Y-56001190D02*
X180372295Y-56077381D01*
X190890868Y-72422998D02*
X190917805Y-72342185D01*
X190917805Y-72342185D02*
X190998618Y-72261373D01*
X190998618Y-72261373D02*
X191106367Y-72207498D01*
X191106367Y-72207498D02*
X191214117Y-72207498D01*
X191214117Y-72207498D02*
X191294929Y-72234436D01*
X191294929Y-72234436D02*
X191429616Y-72315248D01*
X191429616Y-72315248D02*
X191510428Y-72396060D01*
X191510428Y-72396060D02*
X191591241Y-72530747D01*
X191591241Y-72530747D02*
X191618178Y-72611560D01*
X191618178Y-72611560D02*
X191618178Y-72719309D01*
X191618178Y-72719309D02*
X191564303Y-72827059D01*
X191564303Y-72827059D02*
X191510428Y-72880934D01*
X191510428Y-72880934D02*
X191402679Y-72934808D01*
X191402679Y-72934808D02*
X191348804Y-72934808D01*
X191348804Y-72934808D02*
X191160242Y-72746247D01*
X191160242Y-72746247D02*
X191267992Y-72638497D01*
X191160242Y-73231120D02*
X190594557Y-72665434D01*
X190594557Y-72665434D02*
X190379057Y-72880934D01*
X190379057Y-72880934D02*
X190352120Y-72961746D01*
X190352120Y-72961746D02*
X190352120Y-73015621D01*
X190352120Y-73015621D02*
X190379057Y-73096433D01*
X190379057Y-73096433D02*
X190459870Y-73177245D01*
X190459870Y-73177245D02*
X190540682Y-73204182D01*
X190540682Y-73204182D02*
X190594557Y-73204182D01*
X190594557Y-73204182D02*
X190675369Y-73177245D01*
X190675369Y-73177245D02*
X190890868Y-72961746D01*
X190298245Y-74093117D02*
X190621494Y-73769868D01*
X190459870Y-73931492D02*
X189894184Y-73365807D01*
X189894184Y-73365807D02*
X190028871Y-73392744D01*
X190028871Y-73392744D02*
X190136621Y-73392744D01*
X190136621Y-73392744D02*
X190217433Y-73365807D01*
X189543998Y-73715993D02*
X189193812Y-74066179D01*
X189193812Y-74066179D02*
X189597873Y-74093117D01*
X189597873Y-74093117D02*
X189517060Y-74173929D01*
X189517060Y-74173929D02*
X189490123Y-74254741D01*
X189490123Y-74254741D02*
X189490123Y-74308616D01*
X189490123Y-74308616D02*
X189517060Y-74389428D01*
X189517060Y-74389428D02*
X189651747Y-74524115D01*
X189651747Y-74524115D02*
X189732560Y-74551053D01*
X189732560Y-74551053D02*
X189786434Y-74551053D01*
X189786434Y-74551053D02*
X189867247Y-74524115D01*
X189867247Y-74524115D02*
X190028871Y-74362491D01*
X190028871Y-74362491D02*
X190055808Y-74281679D01*
X190055808Y-74281679D02*
X190055808Y-74227804D01*
X228731494Y-72538372D02*
X228758431Y-72457560D01*
X228758431Y-72457560D02*
X228839243Y-72376748D01*
X228839243Y-72376748D02*
X228946993Y-72322873D01*
X228946993Y-72322873D02*
X229054742Y-72322873D01*
X229054742Y-72322873D02*
X229135555Y-72349810D01*
X229135555Y-72349810D02*
X229270242Y-72430623D01*
X229270242Y-72430623D02*
X229351054Y-72511435D01*
X229351054Y-72511435D02*
X229431866Y-72646122D01*
X229431866Y-72646122D02*
X229458803Y-72726934D01*
X229458803Y-72726934D02*
X229458803Y-72834684D01*
X229458803Y-72834684D02*
X229404929Y-72942433D01*
X229404929Y-72942433D02*
X229351054Y-72996308D01*
X229351054Y-72996308D02*
X229243304Y-73050183D01*
X229243304Y-73050183D02*
X229189429Y-73050183D01*
X229189429Y-73050183D02*
X229000868Y-72861621D01*
X229000868Y-72861621D02*
X229108617Y-72753871D01*
X229000868Y-73346494D02*
X228435182Y-72780809D01*
X228435182Y-72780809D02*
X228219683Y-72996308D01*
X228219683Y-72996308D02*
X228192746Y-73077120D01*
X228192746Y-73077120D02*
X228192746Y-73130995D01*
X228192746Y-73130995D02*
X228219683Y-73211807D01*
X228219683Y-73211807D02*
X228300495Y-73292619D01*
X228300495Y-73292619D02*
X228381307Y-73319557D01*
X228381307Y-73319557D02*
X228435182Y-73319557D01*
X228435182Y-73319557D02*
X228515994Y-73292619D01*
X228515994Y-73292619D02*
X228731494Y-73077120D01*
X228138871Y-74208491D02*
X228462120Y-73885242D01*
X228300495Y-74046867D02*
X227734810Y-73481181D01*
X227734810Y-73481181D02*
X227869497Y-73508119D01*
X227869497Y-73508119D02*
X227977246Y-73508119D01*
X227977246Y-73508119D02*
X228058059Y-73481181D01*
X231937585Y-45678406D02*
X232314709Y-46432653D01*
X232314709Y-46432653D02*
X231560462Y-46055529D01*
X231452712Y-46702027D02*
X231398838Y-46809776D01*
X231398838Y-46809776D02*
X231398838Y-46863651D01*
X231398838Y-46863651D02*
X231425775Y-46944463D01*
X231425775Y-46944463D02*
X231506587Y-47025276D01*
X231506587Y-47025276D02*
X231587399Y-47052213D01*
X231587399Y-47052213D02*
X231641274Y-47052213D01*
X231641274Y-47052213D02*
X231722086Y-47025276D01*
X231722086Y-47025276D02*
X231937586Y-46809776D01*
X231937586Y-46809776D02*
X231371900Y-46244091D01*
X231371900Y-46244091D02*
X231183338Y-46432653D01*
X231183338Y-46432653D02*
X231156401Y-46513465D01*
X231156401Y-46513465D02*
X231156401Y-46567340D01*
X231156401Y-46567340D02*
X231183338Y-46648152D01*
X231183338Y-46648152D02*
X231237213Y-46702027D01*
X231237213Y-46702027D02*
X231318025Y-46728964D01*
X231318025Y-46728964D02*
X231371900Y-46728964D01*
X231371900Y-46728964D02*
X231452712Y-46702027D01*
X231452712Y-46702027D02*
X231641274Y-46513465D01*
X230806215Y-46809776D02*
X231264151Y-47267712D01*
X231264151Y-47267712D02*
X231291088Y-47348524D01*
X231291088Y-47348524D02*
X231291088Y-47402399D01*
X231291088Y-47402399D02*
X231264151Y-47483211D01*
X231264151Y-47483211D02*
X231156401Y-47590961D01*
X231156401Y-47590961D02*
X231075589Y-47617898D01*
X231075589Y-47617898D02*
X231021714Y-47617898D01*
X231021714Y-47617898D02*
X230940902Y-47590961D01*
X230940902Y-47590961D02*
X230482966Y-47133025D01*
X230779277Y-47914210D02*
X230725403Y-48021959D01*
X230725403Y-48021959D02*
X230590716Y-48156646D01*
X230590716Y-48156646D02*
X230509903Y-48183584D01*
X230509903Y-48183584D02*
X230456029Y-48183584D01*
X230456029Y-48183584D02*
X230375216Y-48156646D01*
X230375216Y-48156646D02*
X230321342Y-48102771D01*
X230321342Y-48102771D02*
X230294404Y-48021959D01*
X230294404Y-48021959D02*
X230294404Y-47968084D01*
X230294404Y-47968084D02*
X230321342Y-47887272D01*
X230321342Y-47887272D02*
X230402154Y-47752585D01*
X230402154Y-47752585D02*
X230429091Y-47671773D01*
X230429091Y-47671773D02*
X230429091Y-47617898D01*
X230429091Y-47617898D02*
X230402154Y-47537086D01*
X230402154Y-47537086D02*
X230348279Y-47483211D01*
X230348279Y-47483211D02*
X230267467Y-47456274D01*
X230267467Y-47456274D02*
X230213592Y-47456274D01*
X230213592Y-47456274D02*
X230132780Y-47483211D01*
X230132780Y-47483211D02*
X229998093Y-47617898D01*
X229998093Y-47617898D02*
X229944218Y-47725648D01*
X210941494Y-72438372D02*
X210968431Y-72357560D01*
X210968431Y-72357560D02*
X211049243Y-72276748D01*
X211049243Y-72276748D02*
X211156993Y-72222873D01*
X211156993Y-72222873D02*
X211264742Y-72222873D01*
X211264742Y-72222873D02*
X211345555Y-72249810D01*
X211345555Y-72249810D02*
X211480242Y-72330623D01*
X211480242Y-72330623D02*
X211561054Y-72411435D01*
X211561054Y-72411435D02*
X211641866Y-72546122D01*
X211641866Y-72546122D02*
X211668803Y-72626934D01*
X211668803Y-72626934D02*
X211668803Y-72734684D01*
X211668803Y-72734684D02*
X211614929Y-72842433D01*
X211614929Y-72842433D02*
X211561054Y-72896308D01*
X211561054Y-72896308D02*
X211453304Y-72950183D01*
X211453304Y-72950183D02*
X211399429Y-72950183D01*
X211399429Y-72950183D02*
X211210868Y-72761621D01*
X211210868Y-72761621D02*
X211318617Y-72653871D01*
X211210868Y-73246494D02*
X210645182Y-72680809D01*
X210645182Y-72680809D02*
X210429683Y-72896308D01*
X210429683Y-72896308D02*
X210402746Y-72977120D01*
X210402746Y-72977120D02*
X210402746Y-73030995D01*
X210402746Y-73030995D02*
X210429683Y-73111807D01*
X210429683Y-73111807D02*
X210510495Y-73192619D01*
X210510495Y-73192619D02*
X210591307Y-73219557D01*
X210591307Y-73219557D02*
X210645182Y-73219557D01*
X210645182Y-73219557D02*
X210725994Y-73192619D01*
X210725994Y-73192619D02*
X210941494Y-72977120D01*
X209837060Y-73488931D02*
X209944810Y-73381181D01*
X209944810Y-73381181D02*
X210025622Y-73354244D01*
X210025622Y-73354244D02*
X210079497Y-73354244D01*
X210079497Y-73354244D02*
X210214184Y-73381181D01*
X210214184Y-73381181D02*
X210348871Y-73461993D01*
X210348871Y-73461993D02*
X210564370Y-73677493D01*
X210564370Y-73677493D02*
X210591307Y-73758305D01*
X210591307Y-73758305D02*
X210591307Y-73812180D01*
X210591307Y-73812180D02*
X210564370Y-73892992D01*
X210564370Y-73892992D02*
X210456620Y-74000741D01*
X210456620Y-74000741D02*
X210375808Y-74027679D01*
X210375808Y-74027679D02*
X210321933Y-74027679D01*
X210321933Y-74027679D02*
X210241121Y-74000741D01*
X210241121Y-74000741D02*
X210106434Y-73866054D01*
X210106434Y-73866054D02*
X210079497Y-73785242D01*
X210079497Y-73785242D02*
X210079497Y-73731367D01*
X210079497Y-73731367D02*
X210106434Y-73650555D01*
X210106434Y-73650555D02*
X210214184Y-73542806D01*
X210214184Y-73542806D02*
X210294996Y-73515868D01*
X210294996Y-73515868D02*
X210348871Y-73515868D01*
X210348871Y-73515868D02*
X210429683Y-73542806D01*
X214451240Y-46368873D02*
X214181866Y-46638247D01*
X214666739Y-46476623D02*
X213912492Y-46099499D01*
X213912492Y-46099499D02*
X214289615Y-46853746D01*
X213265994Y-46799871D02*
X213292932Y-46719059D01*
X213292932Y-46719059D02*
X213373744Y-46638247D01*
X213373744Y-46638247D02*
X213481494Y-46584372D01*
X213481494Y-46584372D02*
X213589243Y-46584372D01*
X213589243Y-46584372D02*
X213670055Y-46611310D01*
X213670055Y-46611310D02*
X213804742Y-46692122D01*
X213804742Y-46692122D02*
X213885555Y-46772934D01*
X213885555Y-46772934D02*
X213966367Y-46907621D01*
X213966367Y-46907621D02*
X213993304Y-46988433D01*
X213993304Y-46988433D02*
X213993304Y-47096183D01*
X213993304Y-47096183D02*
X213939429Y-47203932D01*
X213939429Y-47203932D02*
X213885555Y-47257807D01*
X213885555Y-47257807D02*
X213777805Y-47311682D01*
X213777805Y-47311682D02*
X213723930Y-47311682D01*
X213723930Y-47311682D02*
X213535368Y-47123120D01*
X213535368Y-47123120D02*
X213643118Y-47015371D01*
X213535368Y-47607993D02*
X212969683Y-47042308D01*
X212969683Y-47042308D02*
X213212120Y-47931242D01*
X213212120Y-47931242D02*
X212646434Y-47365557D01*
X212942746Y-48200616D02*
X212377060Y-47634931D01*
X212377060Y-47634931D02*
X212242373Y-47769618D01*
X212242373Y-47769618D02*
X212188498Y-47877367D01*
X212188498Y-47877367D02*
X212188498Y-47985117D01*
X212188498Y-47985117D02*
X212215436Y-48065929D01*
X212215436Y-48065929D02*
X212296248Y-48200616D01*
X212296248Y-48200616D02*
X212377060Y-48281428D01*
X212377060Y-48281428D02*
X212511747Y-48362241D01*
X212511747Y-48362241D02*
X212592560Y-48389178D01*
X212592560Y-48389178D02*
X212700309Y-48389178D01*
X212700309Y-48389178D02*
X212808059Y-48335303D01*
X212808059Y-48335303D02*
X212942746Y-48200616D01*
X208431494Y-72338372D02*
X208458431Y-72257560D01*
X208458431Y-72257560D02*
X208539243Y-72176748D01*
X208539243Y-72176748D02*
X208646993Y-72122873D01*
X208646993Y-72122873D02*
X208754742Y-72122873D01*
X208754742Y-72122873D02*
X208835555Y-72149810D01*
X208835555Y-72149810D02*
X208970242Y-72230623D01*
X208970242Y-72230623D02*
X209051054Y-72311435D01*
X209051054Y-72311435D02*
X209131866Y-72446122D01*
X209131866Y-72446122D02*
X209158803Y-72526934D01*
X209158803Y-72526934D02*
X209158803Y-72634684D01*
X209158803Y-72634684D02*
X209104929Y-72742433D01*
X209104929Y-72742433D02*
X209051054Y-72796308D01*
X209051054Y-72796308D02*
X208943304Y-72850183D01*
X208943304Y-72850183D02*
X208889429Y-72850183D01*
X208889429Y-72850183D02*
X208700868Y-72661621D01*
X208700868Y-72661621D02*
X208808617Y-72553871D01*
X208700868Y-73146494D02*
X208135182Y-72580809D01*
X208135182Y-72580809D02*
X207919683Y-72796308D01*
X207919683Y-72796308D02*
X207892746Y-72877120D01*
X207892746Y-72877120D02*
X207892746Y-72930995D01*
X207892746Y-72930995D02*
X207919683Y-73011807D01*
X207919683Y-73011807D02*
X208000495Y-73092619D01*
X208000495Y-73092619D02*
X208081307Y-73119557D01*
X208081307Y-73119557D02*
X208135182Y-73119557D01*
X208135182Y-73119557D02*
X208215994Y-73092619D01*
X208215994Y-73092619D02*
X208431494Y-72877120D01*
X207623372Y-73092619D02*
X207246248Y-73469743D01*
X207246248Y-73469743D02*
X208054370Y-73792992D01*
X218561494Y-72438372D02*
X218588431Y-72357560D01*
X218588431Y-72357560D02*
X218669243Y-72276748D01*
X218669243Y-72276748D02*
X218776993Y-72222873D01*
X218776993Y-72222873D02*
X218884742Y-72222873D01*
X218884742Y-72222873D02*
X218965555Y-72249810D01*
X218965555Y-72249810D02*
X219100242Y-72330623D01*
X219100242Y-72330623D02*
X219181054Y-72411435D01*
X219181054Y-72411435D02*
X219261866Y-72546122D01*
X219261866Y-72546122D02*
X219288803Y-72626934D01*
X219288803Y-72626934D02*
X219288803Y-72734684D01*
X219288803Y-72734684D02*
X219234929Y-72842433D01*
X219234929Y-72842433D02*
X219181054Y-72896308D01*
X219181054Y-72896308D02*
X219073304Y-72950183D01*
X219073304Y-72950183D02*
X219019429Y-72950183D01*
X219019429Y-72950183D02*
X218830868Y-72761621D01*
X218830868Y-72761621D02*
X218938617Y-72653871D01*
X218830868Y-73246494D02*
X218265182Y-72680809D01*
X218265182Y-72680809D02*
X218049683Y-72896308D01*
X218049683Y-72896308D02*
X218022746Y-72977120D01*
X218022746Y-72977120D02*
X218022746Y-73030995D01*
X218022746Y-73030995D02*
X218049683Y-73111807D01*
X218049683Y-73111807D02*
X218130495Y-73192619D01*
X218130495Y-73192619D02*
X218211307Y-73219557D01*
X218211307Y-73219557D02*
X218265182Y-73219557D01*
X218265182Y-73219557D02*
X218345994Y-73192619D01*
X218345994Y-73192619D02*
X218561494Y-72977120D01*
X217645622Y-73677493D02*
X218022746Y-74054616D01*
X217564810Y-73327306D02*
X218103558Y-73596680D01*
X218103558Y-73596680D02*
X217753372Y-73946867D01*
X193430868Y-46314998D02*
X193457805Y-46234185D01*
X193457805Y-46234185D02*
X193538618Y-46153373D01*
X193538618Y-46153373D02*
X193646367Y-46099498D01*
X193646367Y-46099498D02*
X193754117Y-46099498D01*
X193754117Y-46099498D02*
X193834929Y-46126436D01*
X193834929Y-46126436D02*
X193969616Y-46207248D01*
X193969616Y-46207248D02*
X194050428Y-46288060D01*
X194050428Y-46288060D02*
X194131241Y-46422747D01*
X194131241Y-46422747D02*
X194158178Y-46503560D01*
X194158178Y-46503560D02*
X194158178Y-46611309D01*
X194158178Y-46611309D02*
X194104303Y-46719059D01*
X194104303Y-46719059D02*
X194050428Y-46772934D01*
X194050428Y-46772934D02*
X193942679Y-46826808D01*
X193942679Y-46826808D02*
X193888804Y-46826808D01*
X193888804Y-46826808D02*
X193700242Y-46638247D01*
X193700242Y-46638247D02*
X193807992Y-46530497D01*
X193700242Y-47123120D02*
X193134557Y-46557434D01*
X193134557Y-46557434D02*
X192919057Y-46772934D01*
X192919057Y-46772934D02*
X192892120Y-46853746D01*
X192892120Y-46853746D02*
X192892120Y-46907621D01*
X192892120Y-46907621D02*
X192919057Y-46988433D01*
X192919057Y-46988433D02*
X192999870Y-47069245D01*
X192999870Y-47069245D02*
X193080682Y-47096182D01*
X193080682Y-47096182D02*
X193134557Y-47096182D01*
X193134557Y-47096182D02*
X193215369Y-47069245D01*
X193215369Y-47069245D02*
X193430868Y-46853746D01*
X192838245Y-47985117D02*
X193161494Y-47661868D01*
X192999870Y-47823492D02*
X192434184Y-47257807D01*
X192434184Y-47257807D02*
X192568871Y-47284744D01*
X192568871Y-47284744D02*
X192676621Y-47284744D01*
X192676621Y-47284744D02*
X192757433Y-47257807D01*
X192568871Y-48254491D02*
X192461121Y-48362240D01*
X192461121Y-48362240D02*
X192380309Y-48389178D01*
X192380309Y-48389178D02*
X192326434Y-48389178D01*
X192326434Y-48389178D02*
X192191747Y-48362240D01*
X192191747Y-48362240D02*
X192057060Y-48281428D01*
X192057060Y-48281428D02*
X191841561Y-48065929D01*
X191841561Y-48065929D02*
X191814624Y-47985117D01*
X191814624Y-47985117D02*
X191814624Y-47931242D01*
X191814624Y-47931242D02*
X191841561Y-47850430D01*
X191841561Y-47850430D02*
X191949311Y-47742680D01*
X191949311Y-47742680D02*
X192030123Y-47715743D01*
X192030123Y-47715743D02*
X192083998Y-47715743D01*
X192083998Y-47715743D02*
X192164810Y-47742680D01*
X192164810Y-47742680D02*
X192299497Y-47877367D01*
X192299497Y-47877367D02*
X192326434Y-47958179D01*
X192326434Y-47958179D02*
X192326434Y-48012054D01*
X192326434Y-48012054D02*
X192299497Y-48092866D01*
X192299497Y-48092866D02*
X192191747Y-48200616D01*
X192191747Y-48200616D02*
X192110935Y-48227553D01*
X192110935Y-48227553D02*
X192057060Y-48227553D01*
X192057060Y-48227553D02*
X191976248Y-48200616D01*
X226208431Y-72411435D02*
X226235368Y-72330623D01*
X226235368Y-72330623D02*
X226316180Y-72249811D01*
X226316180Y-72249811D02*
X226423930Y-72195936D01*
X226423930Y-72195936D02*
X226531680Y-72195936D01*
X226531680Y-72195936D02*
X226612492Y-72222873D01*
X226612492Y-72222873D02*
X226747179Y-72303685D01*
X226747179Y-72303685D02*
X226827991Y-72384498D01*
X226827991Y-72384498D02*
X226908803Y-72519185D01*
X226908803Y-72519185D02*
X226935741Y-72599997D01*
X226935741Y-72599997D02*
X226935741Y-72707746D01*
X226935741Y-72707746D02*
X226881866Y-72815496D01*
X226881866Y-72815496D02*
X226827991Y-72869371D01*
X226827991Y-72869371D02*
X226720241Y-72923246D01*
X226720241Y-72923246D02*
X226666367Y-72923246D01*
X226666367Y-72923246D02*
X226477805Y-72734684D01*
X226477805Y-72734684D02*
X226585554Y-72626934D01*
X226477805Y-73219557D02*
X225912119Y-72653872D01*
X225912119Y-72653872D02*
X226154556Y-73542806D01*
X226154556Y-73542806D02*
X225588871Y-72977120D01*
X225885182Y-73812180D02*
X225319497Y-73246494D01*
X225319497Y-73246494D02*
X225184810Y-73381181D01*
X225184810Y-73381181D02*
X225130935Y-73488931D01*
X225130935Y-73488931D02*
X225130935Y-73596680D01*
X225130935Y-73596680D02*
X225157872Y-73677493D01*
X225157872Y-73677493D02*
X225238685Y-73812180D01*
X225238685Y-73812180D02*
X225319497Y-73892992D01*
X225319497Y-73892992D02*
X225454184Y-73973804D01*
X225454184Y-73973804D02*
X225534996Y-74000741D01*
X225534996Y-74000741D02*
X225642746Y-74000741D01*
X225642746Y-74000741D02*
X225750495Y-73946867D01*
X225750495Y-73946867D02*
X225885182Y-73812180D01*
X195970868Y-72568998D02*
X195997805Y-72488185D01*
X195997805Y-72488185D02*
X196078618Y-72407373D01*
X196078618Y-72407373D02*
X196186367Y-72353498D01*
X196186367Y-72353498D02*
X196294117Y-72353498D01*
X196294117Y-72353498D02*
X196374929Y-72380436D01*
X196374929Y-72380436D02*
X196509616Y-72461248D01*
X196509616Y-72461248D02*
X196590428Y-72542060D01*
X196590428Y-72542060D02*
X196671241Y-72676747D01*
X196671241Y-72676747D02*
X196698178Y-72757560D01*
X196698178Y-72757560D02*
X196698178Y-72865309D01*
X196698178Y-72865309D02*
X196644303Y-72973059D01*
X196644303Y-72973059D02*
X196590428Y-73026934D01*
X196590428Y-73026934D02*
X196482679Y-73080808D01*
X196482679Y-73080808D02*
X196428804Y-73080808D01*
X196428804Y-73080808D02*
X196240242Y-72892247D01*
X196240242Y-72892247D02*
X196347992Y-72784497D01*
X196240242Y-73377120D02*
X195674557Y-72811434D01*
X195674557Y-72811434D02*
X195459057Y-73026934D01*
X195459057Y-73026934D02*
X195432120Y-73107746D01*
X195432120Y-73107746D02*
X195432120Y-73161621D01*
X195432120Y-73161621D02*
X195459057Y-73242433D01*
X195459057Y-73242433D02*
X195539870Y-73323245D01*
X195539870Y-73323245D02*
X195620682Y-73350182D01*
X195620682Y-73350182D02*
X195674557Y-73350182D01*
X195674557Y-73350182D02*
X195755369Y-73323245D01*
X195755369Y-73323245D02*
X195970868Y-73107746D01*
X195378245Y-74239117D02*
X195701494Y-73915868D01*
X195539870Y-74077492D02*
X194974184Y-73511807D01*
X194974184Y-73511807D02*
X195108871Y-73538744D01*
X195108871Y-73538744D02*
X195216621Y-73538744D01*
X195216621Y-73538744D02*
X195297433Y-73511807D01*
X194839497Y-74777865D02*
X195162746Y-74454616D01*
X195001121Y-74616240D02*
X194435436Y-74050555D01*
X194435436Y-74050555D02*
X194570123Y-74077492D01*
X194570123Y-74077492D02*
X194677873Y-74077492D01*
X194677873Y-74077492D02*
X194758685Y-74050555D01*
X216021494Y-72438372D02*
X216048431Y-72357560D01*
X216048431Y-72357560D02*
X216129243Y-72276748D01*
X216129243Y-72276748D02*
X216236993Y-72222873D01*
X216236993Y-72222873D02*
X216344742Y-72222873D01*
X216344742Y-72222873D02*
X216425555Y-72249810D01*
X216425555Y-72249810D02*
X216560242Y-72330623D01*
X216560242Y-72330623D02*
X216641054Y-72411435D01*
X216641054Y-72411435D02*
X216721866Y-72546122D01*
X216721866Y-72546122D02*
X216748803Y-72626934D01*
X216748803Y-72626934D02*
X216748803Y-72734684D01*
X216748803Y-72734684D02*
X216694929Y-72842433D01*
X216694929Y-72842433D02*
X216641054Y-72896308D01*
X216641054Y-72896308D02*
X216533304Y-72950183D01*
X216533304Y-72950183D02*
X216479429Y-72950183D01*
X216479429Y-72950183D02*
X216290868Y-72761621D01*
X216290868Y-72761621D02*
X216398617Y-72653871D01*
X216290868Y-73246494D02*
X215725182Y-72680809D01*
X215725182Y-72680809D02*
X215509683Y-72896308D01*
X215509683Y-72896308D02*
X215482746Y-72977120D01*
X215482746Y-72977120D02*
X215482746Y-73030995D01*
X215482746Y-73030995D02*
X215509683Y-73111807D01*
X215509683Y-73111807D02*
X215590495Y-73192619D01*
X215590495Y-73192619D02*
X215671307Y-73219557D01*
X215671307Y-73219557D02*
X215725182Y-73219557D01*
X215725182Y-73219557D02*
X215805994Y-73192619D01*
X215805994Y-73192619D02*
X216021494Y-72977120D01*
X214890123Y-73515868D02*
X215159497Y-73246494D01*
X215159497Y-73246494D02*
X215455808Y-73488931D01*
X215455808Y-73488931D02*
X215401933Y-73488931D01*
X215401933Y-73488931D02*
X215321121Y-73515868D01*
X215321121Y-73515868D02*
X215186434Y-73650555D01*
X215186434Y-73650555D02*
X215159497Y-73731367D01*
X215159497Y-73731367D02*
X215159497Y-73785242D01*
X215159497Y-73785242D02*
X215186434Y-73866054D01*
X215186434Y-73866054D02*
X215321121Y-74000741D01*
X215321121Y-74000741D02*
X215401933Y-74027679D01*
X215401933Y-74027679D02*
X215455808Y-74027679D01*
X215455808Y-74027679D02*
X215536620Y-74000741D01*
X215536620Y-74000741D02*
X215671307Y-73866054D01*
X215671307Y-73866054D02*
X215698245Y-73785242D01*
X215698245Y-73785242D02*
X215698245Y-73731367D01*
X203321494Y-72438372D02*
X203348431Y-72357560D01*
X203348431Y-72357560D02*
X203429243Y-72276748D01*
X203429243Y-72276748D02*
X203536993Y-72222873D01*
X203536993Y-72222873D02*
X203644742Y-72222873D01*
X203644742Y-72222873D02*
X203725555Y-72249810D01*
X203725555Y-72249810D02*
X203860242Y-72330623D01*
X203860242Y-72330623D02*
X203941054Y-72411435D01*
X203941054Y-72411435D02*
X204021866Y-72546122D01*
X204021866Y-72546122D02*
X204048803Y-72626934D01*
X204048803Y-72626934D02*
X204048803Y-72734684D01*
X204048803Y-72734684D02*
X203994929Y-72842433D01*
X203994929Y-72842433D02*
X203941054Y-72896308D01*
X203941054Y-72896308D02*
X203833304Y-72950183D01*
X203833304Y-72950183D02*
X203779429Y-72950183D01*
X203779429Y-72950183D02*
X203590868Y-72761621D01*
X203590868Y-72761621D02*
X203698617Y-72653871D01*
X203590868Y-73246494D02*
X203025182Y-72680809D01*
X203025182Y-72680809D02*
X202809683Y-72896308D01*
X202809683Y-72896308D02*
X202782746Y-72977120D01*
X202782746Y-72977120D02*
X202782746Y-73030995D01*
X202782746Y-73030995D02*
X202809683Y-73111807D01*
X202809683Y-73111807D02*
X202890495Y-73192619D01*
X202890495Y-73192619D02*
X202971307Y-73219557D01*
X202971307Y-73219557D02*
X203025182Y-73219557D01*
X203025182Y-73219557D02*
X203105994Y-73192619D01*
X203105994Y-73192619D02*
X203321494Y-72977120D01*
X202998245Y-73839117D02*
X202890495Y-73946867D01*
X202890495Y-73946867D02*
X202809683Y-73973804D01*
X202809683Y-73973804D02*
X202755808Y-73973804D01*
X202755808Y-73973804D02*
X202621121Y-73946867D01*
X202621121Y-73946867D02*
X202486434Y-73866054D01*
X202486434Y-73866054D02*
X202270935Y-73650555D01*
X202270935Y-73650555D02*
X202243998Y-73569743D01*
X202243998Y-73569743D02*
X202243998Y-73515868D01*
X202243998Y-73515868D02*
X202270935Y-73435056D01*
X202270935Y-73435056D02*
X202378685Y-73327306D01*
X202378685Y-73327306D02*
X202459497Y-73300369D01*
X202459497Y-73300369D02*
X202513372Y-73300369D01*
X202513372Y-73300369D02*
X202594184Y-73327306D01*
X202594184Y-73327306D02*
X202728871Y-73461993D01*
X202728871Y-73461993D02*
X202755808Y-73542806D01*
X202755808Y-73542806D02*
X202755808Y-73596680D01*
X202755808Y-73596680D02*
X202728871Y-73677493D01*
X202728871Y-73677493D02*
X202621121Y-73785242D01*
X202621121Y-73785242D02*
X202540309Y-73812180D01*
X202540309Y-73812180D02*
X202486434Y-73812180D01*
X202486434Y-73812180D02*
X202405622Y-73785242D01*
X225368584Y-41402407D02*
X225018398Y-41752593D01*
X225018398Y-41752593D02*
X225422459Y-41779531D01*
X225422459Y-41779531D02*
X225341646Y-41860343D01*
X225341646Y-41860343D02*
X225314709Y-41941155D01*
X225314709Y-41941155D02*
X225314709Y-41995030D01*
X225314709Y-41995030D02*
X225341646Y-42075842D01*
X225341646Y-42075842D02*
X225476333Y-42210529D01*
X225476333Y-42210529D02*
X225557146Y-42237467D01*
X225557146Y-42237467D02*
X225611020Y-42237467D01*
X225611020Y-42237467D02*
X225691833Y-42210529D01*
X225691833Y-42210529D02*
X225853457Y-42048905D01*
X225853457Y-42048905D02*
X225880394Y-41968093D01*
X225880394Y-41968093D02*
X225880394Y-41914218D01*
X224856773Y-41914218D02*
X225233897Y-42668465D01*
X225233897Y-42668465D02*
X224479649Y-42291342D01*
X224344963Y-42426028D02*
X223994776Y-42776215D01*
X223994776Y-42776215D02*
X224398837Y-42803152D01*
X224398837Y-42803152D02*
X224318025Y-42883964D01*
X224318025Y-42883964D02*
X224291088Y-42964776D01*
X224291088Y-42964776D02*
X224291088Y-43018651D01*
X224291088Y-43018651D02*
X224318025Y-43099464D01*
X224318025Y-43099464D02*
X224452712Y-43234151D01*
X224452712Y-43234151D02*
X224533524Y-43261088D01*
X224533524Y-43261088D02*
X224587399Y-43261088D01*
X224587399Y-43261088D02*
X224668211Y-43234151D01*
X224668211Y-43234151D02*
X224829836Y-43072526D01*
X224829836Y-43072526D02*
X224856773Y-42991714D01*
X224856773Y-42991714D02*
X224856773Y-42937839D01*
X224506587Y-43503525D02*
X224075588Y-43934523D01*
X223590715Y-43719024D02*
X223402153Y-43907586D01*
X223617652Y-44284709D02*
X223887026Y-44015335D01*
X223887026Y-44015335D02*
X223321341Y-43449650D01*
X223321341Y-43449650D02*
X223051967Y-43719024D01*
X223375215Y-44527146D02*
X222809530Y-43961461D01*
X222809530Y-43961461D02*
X223051967Y-44850395D01*
X223051967Y-44850395D02*
X222486281Y-44284710D01*
X203590868Y-46314998D02*
X203617805Y-46234185D01*
X203617805Y-46234185D02*
X203698618Y-46153373D01*
X203698618Y-46153373D02*
X203806367Y-46099498D01*
X203806367Y-46099498D02*
X203914117Y-46099498D01*
X203914117Y-46099498D02*
X203994929Y-46126436D01*
X203994929Y-46126436D02*
X204129616Y-46207248D01*
X204129616Y-46207248D02*
X204210428Y-46288060D01*
X204210428Y-46288060D02*
X204291241Y-46422747D01*
X204291241Y-46422747D02*
X204318178Y-46503560D01*
X204318178Y-46503560D02*
X204318178Y-46611309D01*
X204318178Y-46611309D02*
X204264303Y-46719059D01*
X204264303Y-46719059D02*
X204210428Y-46772934D01*
X204210428Y-46772934D02*
X204102679Y-46826808D01*
X204102679Y-46826808D02*
X204048804Y-46826808D01*
X204048804Y-46826808D02*
X203860242Y-46638247D01*
X203860242Y-46638247D02*
X203967992Y-46530497D01*
X203860242Y-47123120D02*
X203294557Y-46557434D01*
X203294557Y-46557434D02*
X203079057Y-46772934D01*
X203079057Y-46772934D02*
X203052120Y-46853746D01*
X203052120Y-46853746D02*
X203052120Y-46907621D01*
X203052120Y-46907621D02*
X203079057Y-46988433D01*
X203079057Y-46988433D02*
X203159870Y-47069245D01*
X203159870Y-47069245D02*
X203240682Y-47096182D01*
X203240682Y-47096182D02*
X203294557Y-47096182D01*
X203294557Y-47096182D02*
X203375369Y-47069245D01*
X203375369Y-47069245D02*
X203590868Y-46853746D01*
X202809683Y-47150057D02*
X202755809Y-47150057D01*
X202755809Y-47150057D02*
X202674996Y-47176995D01*
X202674996Y-47176995D02*
X202540309Y-47311682D01*
X202540309Y-47311682D02*
X202513372Y-47392494D01*
X202513372Y-47392494D02*
X202513372Y-47446369D01*
X202513372Y-47446369D02*
X202540309Y-47527181D01*
X202540309Y-47527181D02*
X202594184Y-47581056D01*
X202594184Y-47581056D02*
X202701934Y-47634930D01*
X202701934Y-47634930D02*
X203348431Y-47634930D01*
X203348431Y-47634930D02*
X202998245Y-47985117D01*
X202270935Y-47688805D02*
X202217060Y-47688805D01*
X202217060Y-47688805D02*
X202136248Y-47715743D01*
X202136248Y-47715743D02*
X202001561Y-47850430D01*
X202001561Y-47850430D02*
X201974624Y-47931242D01*
X201974624Y-47931242D02*
X201974624Y-47985117D01*
X201974624Y-47985117D02*
X202001561Y-48065929D01*
X202001561Y-48065929D02*
X202055436Y-48119804D01*
X202055436Y-48119804D02*
X202163186Y-48173679D01*
X202163186Y-48173679D02*
X202809683Y-48173679D01*
X202809683Y-48173679D02*
X202459497Y-48523865D01*
X208670868Y-46314998D02*
X208697805Y-46234185D01*
X208697805Y-46234185D02*
X208778618Y-46153373D01*
X208778618Y-46153373D02*
X208886367Y-46099498D01*
X208886367Y-46099498D02*
X208994117Y-46099498D01*
X208994117Y-46099498D02*
X209074929Y-46126436D01*
X209074929Y-46126436D02*
X209209616Y-46207248D01*
X209209616Y-46207248D02*
X209290428Y-46288060D01*
X209290428Y-46288060D02*
X209371241Y-46422747D01*
X209371241Y-46422747D02*
X209398178Y-46503560D01*
X209398178Y-46503560D02*
X209398178Y-46611309D01*
X209398178Y-46611309D02*
X209344303Y-46719059D01*
X209344303Y-46719059D02*
X209290428Y-46772934D01*
X209290428Y-46772934D02*
X209182679Y-46826808D01*
X209182679Y-46826808D02*
X209128804Y-46826808D01*
X209128804Y-46826808D02*
X208940242Y-46638247D01*
X208940242Y-46638247D02*
X209047992Y-46530497D01*
X208940242Y-47123120D02*
X208374557Y-46557434D01*
X208374557Y-46557434D02*
X208159057Y-46772934D01*
X208159057Y-46772934D02*
X208132120Y-46853746D01*
X208132120Y-46853746D02*
X208132120Y-46907621D01*
X208132120Y-46907621D02*
X208159057Y-46988433D01*
X208159057Y-46988433D02*
X208239870Y-47069245D01*
X208239870Y-47069245D02*
X208320682Y-47096182D01*
X208320682Y-47096182D02*
X208374557Y-47096182D01*
X208374557Y-47096182D02*
X208455369Y-47069245D01*
X208455369Y-47069245D02*
X208670868Y-46853746D01*
X207889683Y-47150057D02*
X207835809Y-47150057D01*
X207835809Y-47150057D02*
X207754996Y-47176995D01*
X207754996Y-47176995D02*
X207620309Y-47311682D01*
X207620309Y-47311682D02*
X207593372Y-47392494D01*
X207593372Y-47392494D02*
X207593372Y-47446369D01*
X207593372Y-47446369D02*
X207620309Y-47527181D01*
X207620309Y-47527181D02*
X207674184Y-47581056D01*
X207674184Y-47581056D02*
X207781934Y-47634930D01*
X207781934Y-47634930D02*
X208428431Y-47634930D01*
X208428431Y-47634930D02*
X208078245Y-47985117D01*
X207027686Y-47904305D02*
X207135436Y-47796555D01*
X207135436Y-47796555D02*
X207216248Y-47769618D01*
X207216248Y-47769618D02*
X207270123Y-47769618D01*
X207270123Y-47769618D02*
X207404810Y-47796555D01*
X207404810Y-47796555D02*
X207539497Y-47877367D01*
X207539497Y-47877367D02*
X207754996Y-48092866D01*
X207754996Y-48092866D02*
X207781934Y-48173679D01*
X207781934Y-48173679D02*
X207781934Y-48227553D01*
X207781934Y-48227553D02*
X207754996Y-48308366D01*
X207754996Y-48308366D02*
X207647247Y-48416115D01*
X207647247Y-48416115D02*
X207566434Y-48443053D01*
X207566434Y-48443053D02*
X207512560Y-48443053D01*
X207512560Y-48443053D02*
X207431747Y-48416115D01*
X207431747Y-48416115D02*
X207297060Y-48281428D01*
X207297060Y-48281428D02*
X207270123Y-48200616D01*
X207270123Y-48200616D02*
X207270123Y-48146741D01*
X207270123Y-48146741D02*
X207297060Y-48065929D01*
X207297060Y-48065929D02*
X207404810Y-47958179D01*
X207404810Y-47958179D02*
X207485622Y-47931242D01*
X207485622Y-47931242D02*
X207539497Y-47931242D01*
X207539497Y-47931242D02*
X207620309Y-47958179D01*
X190890868Y-46314998D02*
X190917805Y-46234185D01*
X190917805Y-46234185D02*
X190998618Y-46153373D01*
X190998618Y-46153373D02*
X191106367Y-46099498D01*
X191106367Y-46099498D02*
X191214117Y-46099498D01*
X191214117Y-46099498D02*
X191294929Y-46126436D01*
X191294929Y-46126436D02*
X191429616Y-46207248D01*
X191429616Y-46207248D02*
X191510428Y-46288060D01*
X191510428Y-46288060D02*
X191591241Y-46422747D01*
X191591241Y-46422747D02*
X191618178Y-46503560D01*
X191618178Y-46503560D02*
X191618178Y-46611309D01*
X191618178Y-46611309D02*
X191564303Y-46719059D01*
X191564303Y-46719059D02*
X191510428Y-46772934D01*
X191510428Y-46772934D02*
X191402679Y-46826808D01*
X191402679Y-46826808D02*
X191348804Y-46826808D01*
X191348804Y-46826808D02*
X191160242Y-46638247D01*
X191160242Y-46638247D02*
X191267992Y-46530497D01*
X191160242Y-47123120D02*
X190594557Y-46557434D01*
X190594557Y-46557434D02*
X190379057Y-46772934D01*
X190379057Y-46772934D02*
X190352120Y-46853746D01*
X190352120Y-46853746D02*
X190352120Y-46907621D01*
X190352120Y-46907621D02*
X190379057Y-46988433D01*
X190379057Y-46988433D02*
X190459870Y-47069245D01*
X190459870Y-47069245D02*
X190540682Y-47096182D01*
X190540682Y-47096182D02*
X190594557Y-47096182D01*
X190594557Y-47096182D02*
X190675369Y-47069245D01*
X190675369Y-47069245D02*
X190890868Y-46853746D01*
X190298245Y-47985117D02*
X190621494Y-47661868D01*
X190459870Y-47823492D02*
X189894184Y-47257807D01*
X189894184Y-47257807D02*
X190028871Y-47284744D01*
X190028871Y-47284744D02*
X190136621Y-47284744D01*
X190136621Y-47284744D02*
X190217433Y-47257807D01*
X189651747Y-47985117D02*
X189678685Y-47904305D01*
X189678685Y-47904305D02*
X189678685Y-47850430D01*
X189678685Y-47850430D02*
X189651747Y-47769618D01*
X189651747Y-47769618D02*
X189624810Y-47742680D01*
X189624810Y-47742680D02*
X189543998Y-47715743D01*
X189543998Y-47715743D02*
X189490123Y-47715743D01*
X189490123Y-47715743D02*
X189409311Y-47742680D01*
X189409311Y-47742680D02*
X189301561Y-47850430D01*
X189301561Y-47850430D02*
X189274624Y-47931242D01*
X189274624Y-47931242D02*
X189274624Y-47985117D01*
X189274624Y-47985117D02*
X189301561Y-48065929D01*
X189301561Y-48065929D02*
X189328499Y-48092866D01*
X189328499Y-48092866D02*
X189409311Y-48119804D01*
X189409311Y-48119804D02*
X189463186Y-48119804D01*
X189463186Y-48119804D02*
X189543998Y-48092866D01*
X189543998Y-48092866D02*
X189651747Y-47985117D01*
X189651747Y-47985117D02*
X189732560Y-47958179D01*
X189732560Y-47958179D02*
X189786434Y-47958179D01*
X189786434Y-47958179D02*
X189867247Y-47985117D01*
X189867247Y-47985117D02*
X189974996Y-48092866D01*
X189974996Y-48092866D02*
X190001934Y-48173679D01*
X190001934Y-48173679D02*
X190001934Y-48227553D01*
X190001934Y-48227553D02*
X189974996Y-48308366D01*
X189974996Y-48308366D02*
X189867247Y-48416115D01*
X189867247Y-48416115D02*
X189786434Y-48443053D01*
X189786434Y-48443053D02*
X189732560Y-48443053D01*
X189732560Y-48443053D02*
X189651747Y-48416115D01*
X189651747Y-48416115D02*
X189543998Y-48308366D01*
X189543998Y-48308366D02*
X189517060Y-48227553D01*
X189517060Y-48227553D02*
X189517060Y-48173679D01*
X189517060Y-48173679D02*
X189543998Y-48092866D01*
X221101494Y-72438372D02*
X221128431Y-72357560D01*
X221128431Y-72357560D02*
X221209243Y-72276748D01*
X221209243Y-72276748D02*
X221316993Y-72222873D01*
X221316993Y-72222873D02*
X221424742Y-72222873D01*
X221424742Y-72222873D02*
X221505555Y-72249810D01*
X221505555Y-72249810D02*
X221640242Y-72330623D01*
X221640242Y-72330623D02*
X221721054Y-72411435D01*
X221721054Y-72411435D02*
X221801866Y-72546122D01*
X221801866Y-72546122D02*
X221828803Y-72626934D01*
X221828803Y-72626934D02*
X221828803Y-72734684D01*
X221828803Y-72734684D02*
X221774929Y-72842433D01*
X221774929Y-72842433D02*
X221721054Y-72896308D01*
X221721054Y-72896308D02*
X221613304Y-72950183D01*
X221613304Y-72950183D02*
X221559429Y-72950183D01*
X221559429Y-72950183D02*
X221370868Y-72761621D01*
X221370868Y-72761621D02*
X221478617Y-72653871D01*
X221370868Y-73246494D02*
X220805182Y-72680809D01*
X220805182Y-72680809D02*
X220589683Y-72896308D01*
X220589683Y-72896308D02*
X220562746Y-72977120D01*
X220562746Y-72977120D02*
X220562746Y-73030995D01*
X220562746Y-73030995D02*
X220589683Y-73111807D01*
X220589683Y-73111807D02*
X220670495Y-73192619D01*
X220670495Y-73192619D02*
X220751307Y-73219557D01*
X220751307Y-73219557D02*
X220805182Y-73219557D01*
X220805182Y-73219557D02*
X220885994Y-73192619D01*
X220885994Y-73192619D02*
X221101494Y-72977120D01*
X220293372Y-73192619D02*
X219943185Y-73542806D01*
X219943185Y-73542806D02*
X220347246Y-73569743D01*
X220347246Y-73569743D02*
X220266434Y-73650555D01*
X220266434Y-73650555D02*
X220239497Y-73731367D01*
X220239497Y-73731367D02*
X220239497Y-73785242D01*
X220239497Y-73785242D02*
X220266434Y-73866054D01*
X220266434Y-73866054D02*
X220401121Y-74000741D01*
X220401121Y-74000741D02*
X220481933Y-74027679D01*
X220481933Y-74027679D02*
X220535808Y-74027679D01*
X220535808Y-74027679D02*
X220616620Y-74000741D01*
X220616620Y-74000741D02*
X220778245Y-73839117D01*
X220778245Y-73839117D02*
X220805182Y-73758305D01*
X220805182Y-73758305D02*
X220805182Y-73704430D01*
X188108431Y-72411435D02*
X188135368Y-72330623D01*
X188135368Y-72330623D02*
X188216180Y-72249811D01*
X188216180Y-72249811D02*
X188323930Y-72195936D01*
X188323930Y-72195936D02*
X188431680Y-72195936D01*
X188431680Y-72195936D02*
X188512492Y-72222873D01*
X188512492Y-72222873D02*
X188647179Y-72303685D01*
X188647179Y-72303685D02*
X188727991Y-72384498D01*
X188727991Y-72384498D02*
X188808803Y-72519185D01*
X188808803Y-72519185D02*
X188835741Y-72599997D01*
X188835741Y-72599997D02*
X188835741Y-72707746D01*
X188835741Y-72707746D02*
X188781866Y-72815496D01*
X188781866Y-72815496D02*
X188727991Y-72869371D01*
X188727991Y-72869371D02*
X188620241Y-72923246D01*
X188620241Y-72923246D02*
X188566367Y-72923246D01*
X188566367Y-72923246D02*
X188377805Y-72734684D01*
X188377805Y-72734684D02*
X188485554Y-72626934D01*
X188377805Y-73219557D02*
X187812119Y-72653872D01*
X187812119Y-72653872D02*
X188054556Y-73542806D01*
X188054556Y-73542806D02*
X187488871Y-72977120D01*
X187785182Y-73812180D02*
X187219497Y-73246494D01*
X187219497Y-73246494D02*
X187084810Y-73381181D01*
X187084810Y-73381181D02*
X187030935Y-73488931D01*
X187030935Y-73488931D02*
X187030935Y-73596680D01*
X187030935Y-73596680D02*
X187057872Y-73677493D01*
X187057872Y-73677493D02*
X187138685Y-73812180D01*
X187138685Y-73812180D02*
X187219497Y-73892992D01*
X187219497Y-73892992D02*
X187354184Y-73973804D01*
X187354184Y-73973804D02*
X187434996Y-74000741D01*
X187434996Y-74000741D02*
X187542746Y-74000741D01*
X187542746Y-74000741D02*
X187650495Y-73946867D01*
X187650495Y-73946867D02*
X187785182Y-73812180D01*
X223641494Y-72538372D02*
X223668431Y-72457560D01*
X223668431Y-72457560D02*
X223749243Y-72376748D01*
X223749243Y-72376748D02*
X223856993Y-72322873D01*
X223856993Y-72322873D02*
X223964742Y-72322873D01*
X223964742Y-72322873D02*
X224045555Y-72349810D01*
X224045555Y-72349810D02*
X224180242Y-72430623D01*
X224180242Y-72430623D02*
X224261054Y-72511435D01*
X224261054Y-72511435D02*
X224341866Y-72646122D01*
X224341866Y-72646122D02*
X224368803Y-72726934D01*
X224368803Y-72726934D02*
X224368803Y-72834684D01*
X224368803Y-72834684D02*
X224314929Y-72942433D01*
X224314929Y-72942433D02*
X224261054Y-72996308D01*
X224261054Y-72996308D02*
X224153304Y-73050183D01*
X224153304Y-73050183D02*
X224099429Y-73050183D01*
X224099429Y-73050183D02*
X223910868Y-72861621D01*
X223910868Y-72861621D02*
X224018617Y-72753871D01*
X223910868Y-73346494D02*
X223345182Y-72780809D01*
X223345182Y-72780809D02*
X223129683Y-72996308D01*
X223129683Y-72996308D02*
X223102746Y-73077120D01*
X223102746Y-73077120D02*
X223102746Y-73130995D01*
X223102746Y-73130995D02*
X223129683Y-73211807D01*
X223129683Y-73211807D02*
X223210495Y-73292619D01*
X223210495Y-73292619D02*
X223291307Y-73319557D01*
X223291307Y-73319557D02*
X223345182Y-73319557D01*
X223345182Y-73319557D02*
X223425994Y-73292619D01*
X223425994Y-73292619D02*
X223641494Y-73077120D01*
X222860309Y-73373432D02*
X222806434Y-73373432D01*
X222806434Y-73373432D02*
X222725622Y-73400369D01*
X222725622Y-73400369D02*
X222590935Y-73535056D01*
X222590935Y-73535056D02*
X222563998Y-73615868D01*
X222563998Y-73615868D02*
X222563998Y-73669743D01*
X222563998Y-73669743D02*
X222590935Y-73750555D01*
X222590935Y-73750555D02*
X222644810Y-73804430D01*
X222644810Y-73804430D02*
X222752559Y-73858305D01*
X222752559Y-73858305D02*
X223399057Y-73858305D01*
X223399057Y-73858305D02*
X223048871Y-74208491D01*
X198510868Y-72422998D02*
X198537805Y-72342185D01*
X198537805Y-72342185D02*
X198618618Y-72261373D01*
X198618618Y-72261373D02*
X198726367Y-72207498D01*
X198726367Y-72207498D02*
X198834117Y-72207498D01*
X198834117Y-72207498D02*
X198914929Y-72234436D01*
X198914929Y-72234436D02*
X199049616Y-72315248D01*
X199049616Y-72315248D02*
X199130428Y-72396060D01*
X199130428Y-72396060D02*
X199211241Y-72530747D01*
X199211241Y-72530747D02*
X199238178Y-72611560D01*
X199238178Y-72611560D02*
X199238178Y-72719309D01*
X199238178Y-72719309D02*
X199184303Y-72827059D01*
X199184303Y-72827059D02*
X199130428Y-72880934D01*
X199130428Y-72880934D02*
X199022679Y-72934808D01*
X199022679Y-72934808D02*
X198968804Y-72934808D01*
X198968804Y-72934808D02*
X198780242Y-72746247D01*
X198780242Y-72746247D02*
X198887992Y-72638497D01*
X198780242Y-73231120D02*
X198214557Y-72665434D01*
X198214557Y-72665434D02*
X197999057Y-72880934D01*
X197999057Y-72880934D02*
X197972120Y-72961746D01*
X197972120Y-72961746D02*
X197972120Y-73015621D01*
X197972120Y-73015621D02*
X197999057Y-73096433D01*
X197999057Y-73096433D02*
X198079870Y-73177245D01*
X198079870Y-73177245D02*
X198160682Y-73204182D01*
X198160682Y-73204182D02*
X198214557Y-73204182D01*
X198214557Y-73204182D02*
X198295369Y-73177245D01*
X198295369Y-73177245D02*
X198510868Y-72961746D01*
X197918245Y-74093117D02*
X198241494Y-73769868D01*
X198079870Y-73931492D02*
X197514184Y-73365807D01*
X197514184Y-73365807D02*
X197648871Y-73392744D01*
X197648871Y-73392744D02*
X197756621Y-73392744D01*
X197756621Y-73392744D02*
X197837433Y-73365807D01*
X197002373Y-73877618D02*
X196948499Y-73931492D01*
X196948499Y-73931492D02*
X196921561Y-74012305D01*
X196921561Y-74012305D02*
X196921561Y-74066179D01*
X196921561Y-74066179D02*
X196948499Y-74146992D01*
X196948499Y-74146992D02*
X197029311Y-74281679D01*
X197029311Y-74281679D02*
X197163998Y-74416366D01*
X197163998Y-74416366D02*
X197298685Y-74497178D01*
X197298685Y-74497178D02*
X197379497Y-74524115D01*
X197379497Y-74524115D02*
X197433372Y-74524115D01*
X197433372Y-74524115D02*
X197514184Y-74497178D01*
X197514184Y-74497178D02*
X197568059Y-74443303D01*
X197568059Y-74443303D02*
X197594996Y-74362491D01*
X197594996Y-74362491D02*
X197594996Y-74308616D01*
X197594996Y-74308616D02*
X197568059Y-74227804D01*
X197568059Y-74227804D02*
X197487247Y-74093117D01*
X197487247Y-74093117D02*
X197352560Y-73958430D01*
X197352560Y-73958430D02*
X197217873Y-73877618D01*
X197217873Y-73877618D02*
X197137060Y-73850680D01*
X197137060Y-73850680D02*
X197083186Y-73850680D01*
X197083186Y-73850680D02*
X197002373Y-73877618D01*
X229260242Y-45845749D02*
X229637366Y-46599996D01*
X229637366Y-46599996D02*
X228883118Y-46222873D01*
X229260242Y-46923245D02*
X229206367Y-47030995D01*
X229206367Y-47030995D02*
X229071680Y-47165682D01*
X229071680Y-47165682D02*
X228990868Y-47192619D01*
X228990868Y-47192619D02*
X228936993Y-47192619D01*
X228936993Y-47192619D02*
X228856181Y-47165682D01*
X228856181Y-47165682D02*
X228802306Y-47111807D01*
X228802306Y-47111807D02*
X228775369Y-47030995D01*
X228775369Y-47030995D02*
X228775369Y-46977120D01*
X228775369Y-46977120D02*
X228802306Y-46896308D01*
X228802306Y-46896308D02*
X228883118Y-46761621D01*
X228883118Y-46761621D02*
X228910056Y-46680808D01*
X228910056Y-46680808D02*
X228910056Y-46626934D01*
X228910056Y-46626934D02*
X228883118Y-46546121D01*
X228883118Y-46546121D02*
X228829244Y-46492247D01*
X228829244Y-46492247D02*
X228748431Y-46465309D01*
X228748431Y-46465309D02*
X228694557Y-46465309D01*
X228694557Y-46465309D02*
X228613744Y-46492247D01*
X228613744Y-46492247D02*
X228479057Y-46626934D01*
X228479057Y-46626934D02*
X228425183Y-46734683D01*
X228344370Y-47354244D02*
X228613744Y-47623618D01*
X228236621Y-46869370D02*
X228344370Y-47354244D01*
X228344370Y-47354244D02*
X227859497Y-47246494D01*
X228236621Y-47946866D02*
X228182746Y-48054616D01*
X228182746Y-48054616D02*
X228048059Y-48189303D01*
X228048059Y-48189303D02*
X227967247Y-48216240D01*
X227967247Y-48216240D02*
X227913372Y-48216240D01*
X227913372Y-48216240D02*
X227832560Y-48189303D01*
X227832560Y-48189303D02*
X227778685Y-48135428D01*
X227778685Y-48135428D02*
X227751748Y-48054616D01*
X227751748Y-48054616D02*
X227751748Y-48000741D01*
X227751748Y-48000741D02*
X227778685Y-47919929D01*
X227778685Y-47919929D02*
X227859497Y-47785242D01*
X227859497Y-47785242D02*
X227886435Y-47704430D01*
X227886435Y-47704430D02*
X227886435Y-47650555D01*
X227886435Y-47650555D02*
X227859497Y-47569743D01*
X227859497Y-47569743D02*
X227805622Y-47515868D01*
X227805622Y-47515868D02*
X227724810Y-47488930D01*
X227724810Y-47488930D02*
X227670935Y-47488930D01*
X227670935Y-47488930D02*
X227590123Y-47515868D01*
X227590123Y-47515868D02*
X227455436Y-47650555D01*
X227455436Y-47650555D02*
X227401561Y-47758304D01*
D11*
%TO.C,C13*%
X158889714Y-102347701D02*
X158904952Y-102362940D01*
X158904952Y-102362940D02*
X158950666Y-102378178D01*
X158950666Y-102378178D02*
X158981142Y-102378178D01*
X158981142Y-102378178D02*
X159026857Y-102362940D01*
X159026857Y-102362940D02*
X159057333Y-102332463D01*
X159057333Y-102332463D02*
X159072571Y-102301987D01*
X159072571Y-102301987D02*
X159087809Y-102241035D01*
X159087809Y-102241035D02*
X159087809Y-102195320D01*
X159087809Y-102195320D02*
X159072571Y-102134368D01*
X159072571Y-102134368D02*
X159057333Y-102103892D01*
X159057333Y-102103892D02*
X159026857Y-102073416D01*
X159026857Y-102073416D02*
X158981142Y-102058178D01*
X158981142Y-102058178D02*
X158950666Y-102058178D01*
X158950666Y-102058178D02*
X158904952Y-102073416D01*
X158904952Y-102073416D02*
X158889714Y-102088654D01*
X158584952Y-102378178D02*
X158767809Y-102378178D01*
X158676381Y-102378178D02*
X158676381Y-102058178D01*
X158676381Y-102058178D02*
X158706857Y-102103892D01*
X158706857Y-102103892D02*
X158737333Y-102134368D01*
X158737333Y-102134368D02*
X158767809Y-102149606D01*
X158478285Y-102058178D02*
X158280190Y-102058178D01*
X158280190Y-102058178D02*
X158386857Y-102180082D01*
X158386857Y-102180082D02*
X158341142Y-102180082D01*
X158341142Y-102180082D02*
X158310666Y-102195320D01*
X158310666Y-102195320D02*
X158295428Y-102210559D01*
X158295428Y-102210559D02*
X158280190Y-102241035D01*
X158280190Y-102241035D02*
X158280190Y-102317225D01*
X158280190Y-102317225D02*
X158295428Y-102347701D01*
X158295428Y-102347701D02*
X158310666Y-102362940D01*
X158310666Y-102362940D02*
X158341142Y-102378178D01*
X158341142Y-102378178D02*
X158432571Y-102378178D01*
X158432571Y-102378178D02*
X158463047Y-102362940D01*
X158463047Y-102362940D02*
X158478285Y-102347701D01*
%TO.C,C11*%
X196989714Y-115841401D02*
X197004952Y-115856640D01*
X197004952Y-115856640D02*
X197050666Y-115871878D01*
X197050666Y-115871878D02*
X197081142Y-115871878D01*
X197081142Y-115871878D02*
X197126857Y-115856640D01*
X197126857Y-115856640D02*
X197157333Y-115826163D01*
X197157333Y-115826163D02*
X197172571Y-115795687D01*
X197172571Y-115795687D02*
X197187809Y-115734735D01*
X197187809Y-115734735D02*
X197187809Y-115689020D01*
X197187809Y-115689020D02*
X197172571Y-115628068D01*
X197172571Y-115628068D02*
X197157333Y-115597592D01*
X197157333Y-115597592D02*
X197126857Y-115567116D01*
X197126857Y-115567116D02*
X197081142Y-115551878D01*
X197081142Y-115551878D02*
X197050666Y-115551878D01*
X197050666Y-115551878D02*
X197004952Y-115567116D01*
X197004952Y-115567116D02*
X196989714Y-115582354D01*
X196684952Y-115871878D02*
X196867809Y-115871878D01*
X196776381Y-115871878D02*
X196776381Y-115551878D01*
X196776381Y-115551878D02*
X196806857Y-115597592D01*
X196806857Y-115597592D02*
X196837333Y-115628068D01*
X196837333Y-115628068D02*
X196867809Y-115643306D01*
X196380190Y-115871878D02*
X196563047Y-115871878D01*
X196471619Y-115871878D02*
X196471619Y-115551878D01*
X196471619Y-115551878D02*
X196502095Y-115597592D01*
X196502095Y-115597592D02*
X196532571Y-115628068D01*
X196532571Y-115628068D02*
X196563047Y-115643306D01*
D10*
%TO.C,D12*%
X217014185Y-114122819D02*
X217014185Y-113122819D01*
X217014185Y-113122819D02*
X216776090Y-113122819D01*
X216776090Y-113122819D02*
X216633233Y-113170438D01*
X216633233Y-113170438D02*
X216537995Y-113265676D01*
X216537995Y-113265676D02*
X216490376Y-113360914D01*
X216490376Y-113360914D02*
X216442757Y-113551390D01*
X216442757Y-113551390D02*
X216442757Y-113694247D01*
X216442757Y-113694247D02*
X216490376Y-113884723D01*
X216490376Y-113884723D02*
X216537995Y-113979961D01*
X216537995Y-113979961D02*
X216633233Y-114075200D01*
X216633233Y-114075200D02*
X216776090Y-114122819D01*
X216776090Y-114122819D02*
X217014185Y-114122819D01*
X215490376Y-114122819D02*
X216061804Y-114122819D01*
X215776090Y-114122819D02*
X215776090Y-113122819D01*
X215776090Y-113122819D02*
X215871328Y-113265676D01*
X215871328Y-113265676D02*
X215966566Y-113360914D01*
X215966566Y-113360914D02*
X216061804Y-113408533D01*
X215109423Y-113218057D02*
X215061804Y-113170438D01*
X215061804Y-113170438D02*
X214966566Y-113122819D01*
X214966566Y-113122819D02*
X214728471Y-113122819D01*
X214728471Y-113122819D02*
X214633233Y-113170438D01*
X214633233Y-113170438D02*
X214585614Y-113218057D01*
X214585614Y-113218057D02*
X214537995Y-113313295D01*
X214537995Y-113313295D02*
X214537995Y-113408533D01*
X214537995Y-113408533D02*
X214585614Y-113551390D01*
X214585614Y-113551390D02*
X215157042Y-114122819D01*
X215157042Y-114122819D02*
X214537995Y-114122819D01*
%TO.C,D7*%
X100895902Y-79685176D02*
X100895902Y-78685176D01*
X100895902Y-78685176D02*
X100657807Y-78685176D01*
X100657807Y-78685176D02*
X100514950Y-78732795D01*
X100514950Y-78732795D02*
X100419712Y-78828033D01*
X100419712Y-78828033D02*
X100372093Y-78923271D01*
X100372093Y-78923271D02*
X100324474Y-79113747D01*
X100324474Y-79113747D02*
X100324474Y-79256604D01*
X100324474Y-79256604D02*
X100372093Y-79447080D01*
X100372093Y-79447080D02*
X100419712Y-79542318D01*
X100419712Y-79542318D02*
X100514950Y-79637557D01*
X100514950Y-79637557D02*
X100657807Y-79685176D01*
X100657807Y-79685176D02*
X100895902Y-79685176D01*
X99991140Y-78685176D02*
X99324474Y-78685176D01*
X99324474Y-78685176D02*
X99753045Y-79685176D01*
D11*
%TO.C,C9*%
X158737333Y-121397701D02*
X158752571Y-121412940D01*
X158752571Y-121412940D02*
X158798285Y-121428178D01*
X158798285Y-121428178D02*
X158828761Y-121428178D01*
X158828761Y-121428178D02*
X158874476Y-121412940D01*
X158874476Y-121412940D02*
X158904952Y-121382463D01*
X158904952Y-121382463D02*
X158920190Y-121351987D01*
X158920190Y-121351987D02*
X158935428Y-121291035D01*
X158935428Y-121291035D02*
X158935428Y-121245320D01*
X158935428Y-121245320D02*
X158920190Y-121184368D01*
X158920190Y-121184368D02*
X158904952Y-121153892D01*
X158904952Y-121153892D02*
X158874476Y-121123416D01*
X158874476Y-121123416D02*
X158828761Y-121108178D01*
X158828761Y-121108178D02*
X158798285Y-121108178D01*
X158798285Y-121108178D02*
X158752571Y-121123416D01*
X158752571Y-121123416D02*
X158737333Y-121138654D01*
X158584952Y-121428178D02*
X158524000Y-121428178D01*
X158524000Y-121428178D02*
X158493523Y-121412940D01*
X158493523Y-121412940D02*
X158478285Y-121397701D01*
X158478285Y-121397701D02*
X158447809Y-121351987D01*
X158447809Y-121351987D02*
X158432571Y-121291035D01*
X158432571Y-121291035D02*
X158432571Y-121169130D01*
X158432571Y-121169130D02*
X158447809Y-121138654D01*
X158447809Y-121138654D02*
X158463047Y-121123416D01*
X158463047Y-121123416D02*
X158493523Y-121108178D01*
X158493523Y-121108178D02*
X158554476Y-121108178D01*
X158554476Y-121108178D02*
X158584952Y-121123416D01*
X158584952Y-121123416D02*
X158600190Y-121138654D01*
X158600190Y-121138654D02*
X158615428Y-121169130D01*
X158615428Y-121169130D02*
X158615428Y-121245320D01*
X158615428Y-121245320D02*
X158600190Y-121275797D01*
X158600190Y-121275797D02*
X158584952Y-121291035D01*
X158584952Y-121291035D02*
X158554476Y-121306273D01*
X158554476Y-121306273D02*
X158493523Y-121306273D01*
X158493523Y-121306273D02*
X158463047Y-121291035D01*
X158463047Y-121291035D02*
X158447809Y-121275797D01*
X158447809Y-121275797D02*
X158432571Y-121245320D01*
D10*
%TO.C,D6*%
X81859696Y-79816411D02*
X81859696Y-78816411D01*
X81859696Y-78816411D02*
X81621601Y-78816411D01*
X81621601Y-78816411D02*
X81478744Y-78864030D01*
X81478744Y-78864030D02*
X81383506Y-78959268D01*
X81383506Y-78959268D02*
X81335887Y-79054506D01*
X81335887Y-79054506D02*
X81288268Y-79244982D01*
X81288268Y-79244982D02*
X81288268Y-79387839D01*
X81288268Y-79387839D02*
X81335887Y-79578315D01*
X81335887Y-79578315D02*
X81383506Y-79673553D01*
X81383506Y-79673553D02*
X81478744Y-79768792D01*
X81478744Y-79768792D02*
X81621601Y-79816411D01*
X81621601Y-79816411D02*
X81859696Y-79816411D01*
X80431125Y-78816411D02*
X80621601Y-78816411D01*
X80621601Y-78816411D02*
X80716839Y-78864030D01*
X80716839Y-78864030D02*
X80764458Y-78911649D01*
X80764458Y-78911649D02*
X80859696Y-79054506D01*
X80859696Y-79054506D02*
X80907315Y-79244982D01*
X80907315Y-79244982D02*
X80907315Y-79625934D01*
X80907315Y-79625934D02*
X80859696Y-79721172D01*
X80859696Y-79721172D02*
X80812077Y-79768792D01*
X80812077Y-79768792D02*
X80716839Y-79816411D01*
X80716839Y-79816411D02*
X80526363Y-79816411D01*
X80526363Y-79816411D02*
X80431125Y-79768792D01*
X80431125Y-79768792D02*
X80383506Y-79721172D01*
X80383506Y-79721172D02*
X80335887Y-79625934D01*
X80335887Y-79625934D02*
X80335887Y-79387839D01*
X80335887Y-79387839D02*
X80383506Y-79292601D01*
X80383506Y-79292601D02*
X80431125Y-79244982D01*
X80431125Y-79244982D02*
X80526363Y-79197363D01*
X80526363Y-79197363D02*
X80716839Y-79197363D01*
X80716839Y-79197363D02*
X80812077Y-79244982D01*
X80812077Y-79244982D02*
X80859696Y-79292601D01*
X80859696Y-79292601D02*
X80907315Y-79387839D01*
%TO.C,D5*%
X69715661Y-79722831D02*
X69923573Y-78744684D01*
X69923573Y-78744684D02*
X69690680Y-78695181D01*
X69690680Y-78695181D02*
X69541044Y-78712058D01*
X69541044Y-78712058D02*
X69428086Y-78785413D01*
X69428086Y-78785413D02*
X69361707Y-78868670D01*
X69361707Y-78868670D02*
X69275526Y-79045083D01*
X69275526Y-79045083D02*
X69245824Y-79184818D01*
X69245824Y-79184818D02*
X69252801Y-79381033D01*
X69252801Y-79381033D02*
X69279578Y-79484090D01*
X69279578Y-79484090D02*
X69352934Y-79597048D01*
X69352934Y-79597048D02*
X69482769Y-79673328D01*
X69482769Y-79673328D02*
X69715661Y-79722831D01*
X68479640Y-78437766D02*
X68945425Y-78536772D01*
X68945425Y-78536772D02*
X68892998Y-79012457D01*
X68892998Y-79012457D02*
X68856320Y-78955978D01*
X68856320Y-78955978D02*
X68773064Y-78889598D01*
X68773064Y-78889598D02*
X68540171Y-78840096D01*
X68540171Y-78840096D02*
X68437114Y-78866873D01*
X68437114Y-78866873D02*
X68380635Y-78903551D01*
X68380635Y-78903551D02*
X68314255Y-78986807D01*
X68314255Y-78986807D02*
X68264753Y-79219700D01*
X68264753Y-79219700D02*
X68291530Y-79322757D01*
X68291530Y-79322757D02*
X68328208Y-79379236D01*
X68328208Y-79379236D02*
X68411464Y-79445616D01*
X68411464Y-79445616D02*
X68644356Y-79495118D01*
X68644356Y-79495118D02*
X68747414Y-79468341D01*
X68747414Y-79468341D02*
X68803893Y-79431663D01*
D11*
%TO.C,C4*%
X64281133Y-115841401D02*
X64296371Y-115856640D01*
X64296371Y-115856640D02*
X64342085Y-115871878D01*
X64342085Y-115871878D02*
X64372561Y-115871878D01*
X64372561Y-115871878D02*
X64418276Y-115856640D01*
X64418276Y-115856640D02*
X64448752Y-115826163D01*
X64448752Y-115826163D02*
X64463990Y-115795687D01*
X64463990Y-115795687D02*
X64479228Y-115734735D01*
X64479228Y-115734735D02*
X64479228Y-115689020D01*
X64479228Y-115689020D02*
X64463990Y-115628068D01*
X64463990Y-115628068D02*
X64448752Y-115597592D01*
X64448752Y-115597592D02*
X64418276Y-115567116D01*
X64418276Y-115567116D02*
X64372561Y-115551878D01*
X64372561Y-115551878D02*
X64342085Y-115551878D01*
X64342085Y-115551878D02*
X64296371Y-115567116D01*
X64296371Y-115567116D02*
X64281133Y-115582354D01*
X64006847Y-115658544D02*
X64006847Y-115871878D01*
X64083038Y-115536640D02*
X64159228Y-115765211D01*
X64159228Y-115765211D02*
X63961133Y-115765211D01*
D10*
%TO.C,D9*%
X159750494Y-108318819D02*
X159750494Y-107318819D01*
X159750494Y-107318819D02*
X159512399Y-107318819D01*
X159512399Y-107318819D02*
X159369542Y-107366438D01*
X159369542Y-107366438D02*
X159274304Y-107461676D01*
X159274304Y-107461676D02*
X159226685Y-107556914D01*
X159226685Y-107556914D02*
X159179066Y-107747390D01*
X159179066Y-107747390D02*
X159179066Y-107890247D01*
X159179066Y-107890247D02*
X159226685Y-108080723D01*
X159226685Y-108080723D02*
X159274304Y-108175961D01*
X159274304Y-108175961D02*
X159369542Y-108271200D01*
X159369542Y-108271200D02*
X159512399Y-108318819D01*
X159512399Y-108318819D02*
X159750494Y-108318819D01*
X158702875Y-108318819D02*
X158512399Y-108318819D01*
X158512399Y-108318819D02*
X158417161Y-108271200D01*
X158417161Y-108271200D02*
X158369542Y-108223580D01*
X158369542Y-108223580D02*
X158274304Y-108080723D01*
X158274304Y-108080723D02*
X158226685Y-107890247D01*
X158226685Y-107890247D02*
X158226685Y-107509295D01*
X158226685Y-107509295D02*
X158274304Y-107414057D01*
X158274304Y-107414057D02*
X158321923Y-107366438D01*
X158321923Y-107366438D02*
X158417161Y-107318819D01*
X158417161Y-107318819D02*
X158607637Y-107318819D01*
X158607637Y-107318819D02*
X158702875Y-107366438D01*
X158702875Y-107366438D02*
X158750494Y-107414057D01*
X158750494Y-107414057D02*
X158798113Y-107509295D01*
X158798113Y-107509295D02*
X158798113Y-107747390D01*
X158798113Y-107747390D02*
X158750494Y-107842628D01*
X158750494Y-107842628D02*
X158702875Y-107890247D01*
X158702875Y-107890247D02*
X158607637Y-107937866D01*
X158607637Y-107937866D02*
X158417161Y-107937866D01*
X158417161Y-107937866D02*
X158321923Y-107890247D01*
X158321923Y-107890247D02*
X158274304Y-107842628D01*
X158274304Y-107842628D02*
X158226685Y-107747390D01*
D11*
%TO.C,C14*%
X177939714Y-96791401D02*
X177954952Y-96806640D01*
X177954952Y-96806640D02*
X178000666Y-96821878D01*
X178000666Y-96821878D02*
X178031142Y-96821878D01*
X178031142Y-96821878D02*
X178076857Y-96806640D01*
X178076857Y-96806640D02*
X178107333Y-96776163D01*
X178107333Y-96776163D02*
X178122571Y-96745687D01*
X178122571Y-96745687D02*
X178137809Y-96684735D01*
X178137809Y-96684735D02*
X178137809Y-96639020D01*
X178137809Y-96639020D02*
X178122571Y-96578068D01*
X178122571Y-96578068D02*
X178107333Y-96547592D01*
X178107333Y-96547592D02*
X178076857Y-96517116D01*
X178076857Y-96517116D02*
X178031142Y-96501878D01*
X178031142Y-96501878D02*
X178000666Y-96501878D01*
X178000666Y-96501878D02*
X177954952Y-96517116D01*
X177954952Y-96517116D02*
X177939714Y-96532354D01*
X177634952Y-96821878D02*
X177817809Y-96821878D01*
X177726381Y-96821878D02*
X177726381Y-96501878D01*
X177726381Y-96501878D02*
X177756857Y-96547592D01*
X177756857Y-96547592D02*
X177787333Y-96578068D01*
X177787333Y-96578068D02*
X177817809Y-96593306D01*
X177360666Y-96608544D02*
X177360666Y-96821878D01*
X177436857Y-96486640D02*
X177513047Y-96715211D01*
X177513047Y-96715211D02*
X177314952Y-96715211D01*
%TO.C,C5*%
X83331133Y-115841401D02*
X83346371Y-115856640D01*
X83346371Y-115856640D02*
X83392085Y-115871878D01*
X83392085Y-115871878D02*
X83422561Y-115871878D01*
X83422561Y-115871878D02*
X83468276Y-115856640D01*
X83468276Y-115856640D02*
X83498752Y-115826163D01*
X83498752Y-115826163D02*
X83513990Y-115795687D01*
X83513990Y-115795687D02*
X83529228Y-115734735D01*
X83529228Y-115734735D02*
X83529228Y-115689020D01*
X83529228Y-115689020D02*
X83513990Y-115628068D01*
X83513990Y-115628068D02*
X83498752Y-115597592D01*
X83498752Y-115597592D02*
X83468276Y-115567116D01*
X83468276Y-115567116D02*
X83422561Y-115551878D01*
X83422561Y-115551878D02*
X83392085Y-115551878D01*
X83392085Y-115551878D02*
X83346371Y-115567116D01*
X83346371Y-115567116D02*
X83331133Y-115582354D01*
X83041609Y-115551878D02*
X83193990Y-115551878D01*
X83193990Y-115551878D02*
X83209228Y-115704259D01*
X83209228Y-115704259D02*
X83193990Y-115689020D01*
X83193990Y-115689020D02*
X83163514Y-115673782D01*
X83163514Y-115673782D02*
X83087323Y-115673782D01*
X83087323Y-115673782D02*
X83056847Y-115689020D01*
X83056847Y-115689020D02*
X83041609Y-115704259D01*
X83041609Y-115704259D02*
X83026371Y-115734735D01*
X83026371Y-115734735D02*
X83026371Y-115810925D01*
X83026371Y-115810925D02*
X83041609Y-115841401D01*
X83041609Y-115841401D02*
X83056847Y-115856640D01*
X83056847Y-115856640D02*
X83087323Y-115871878D01*
X83087323Y-115871878D02*
X83163514Y-115871878D01*
X83163514Y-115871878D02*
X83193990Y-115856640D01*
X83193990Y-115856640D02*
X83209228Y-115841401D01*
D10*
%TO.C,D13*%
X159864185Y-102318819D02*
X159864185Y-101318819D01*
X159864185Y-101318819D02*
X159626090Y-101318819D01*
X159626090Y-101318819D02*
X159483233Y-101366438D01*
X159483233Y-101366438D02*
X159387995Y-101461676D01*
X159387995Y-101461676D02*
X159340376Y-101556914D01*
X159340376Y-101556914D02*
X159292757Y-101747390D01*
X159292757Y-101747390D02*
X159292757Y-101890247D01*
X159292757Y-101890247D02*
X159340376Y-102080723D01*
X159340376Y-102080723D02*
X159387995Y-102175961D01*
X159387995Y-102175961D02*
X159483233Y-102271200D01*
X159483233Y-102271200D02*
X159626090Y-102318819D01*
X159626090Y-102318819D02*
X159864185Y-102318819D01*
X158340376Y-102318819D02*
X158911804Y-102318819D01*
X158626090Y-102318819D02*
X158626090Y-101318819D01*
X158626090Y-101318819D02*
X158721328Y-101461676D01*
X158721328Y-101461676D02*
X158816566Y-101556914D01*
X158816566Y-101556914D02*
X158911804Y-101604533D01*
X158007042Y-101318819D02*
X157387995Y-101318819D01*
X157387995Y-101318819D02*
X157721328Y-101699771D01*
X157721328Y-101699771D02*
X157578471Y-101699771D01*
X157578471Y-101699771D02*
X157483233Y-101747390D01*
X157483233Y-101747390D02*
X157435614Y-101795009D01*
X157435614Y-101795009D02*
X157387995Y-101890247D01*
X157387995Y-101890247D02*
X157387995Y-102128342D01*
X157387995Y-102128342D02*
X157435614Y-102223580D01*
X157435614Y-102223580D02*
X157483233Y-102271200D01*
X157483233Y-102271200D02*
X157578471Y-102318819D01*
X157578471Y-102318819D02*
X157864185Y-102318819D01*
X157864185Y-102318819D02*
X157959423Y-102271200D01*
X157959423Y-102271200D02*
X158007042Y-102223580D01*
D11*
%TO.C,C12*%
X216039714Y-121397701D02*
X216054952Y-121412940D01*
X216054952Y-121412940D02*
X216100666Y-121428178D01*
X216100666Y-121428178D02*
X216131142Y-121428178D01*
X216131142Y-121428178D02*
X216176857Y-121412940D01*
X216176857Y-121412940D02*
X216207333Y-121382463D01*
X216207333Y-121382463D02*
X216222571Y-121351987D01*
X216222571Y-121351987D02*
X216237809Y-121291035D01*
X216237809Y-121291035D02*
X216237809Y-121245320D01*
X216237809Y-121245320D02*
X216222571Y-121184368D01*
X216222571Y-121184368D02*
X216207333Y-121153892D01*
X216207333Y-121153892D02*
X216176857Y-121123416D01*
X216176857Y-121123416D02*
X216131142Y-121108178D01*
X216131142Y-121108178D02*
X216100666Y-121108178D01*
X216100666Y-121108178D02*
X216054952Y-121123416D01*
X216054952Y-121123416D02*
X216039714Y-121138654D01*
X215734952Y-121428178D02*
X215917809Y-121428178D01*
X215826381Y-121428178D02*
X215826381Y-121108178D01*
X215826381Y-121108178D02*
X215856857Y-121153892D01*
X215856857Y-121153892D02*
X215887333Y-121184368D01*
X215887333Y-121184368D02*
X215917809Y-121199606D01*
X215613047Y-121138654D02*
X215597809Y-121123416D01*
X215597809Y-121123416D02*
X215567333Y-121108178D01*
X215567333Y-121108178D02*
X215491142Y-121108178D01*
X215491142Y-121108178D02*
X215460666Y-121123416D01*
X215460666Y-121123416D02*
X215445428Y-121138654D01*
X215445428Y-121138654D02*
X215430190Y-121169130D01*
X215430190Y-121169130D02*
X215430190Y-121199606D01*
X215430190Y-121199606D02*
X215445428Y-121245320D01*
X215445428Y-121245320D02*
X215628285Y-121428178D01*
X215628285Y-121428178D02*
X215430190Y-121428178D01*
D10*
%TO.C,D11*%
X198164185Y-103046819D02*
X198164185Y-102046819D01*
X198164185Y-102046819D02*
X197926090Y-102046819D01*
X197926090Y-102046819D02*
X197783233Y-102094438D01*
X197783233Y-102094438D02*
X197687995Y-102189676D01*
X197687995Y-102189676D02*
X197640376Y-102284914D01*
X197640376Y-102284914D02*
X197592757Y-102475390D01*
X197592757Y-102475390D02*
X197592757Y-102618247D01*
X197592757Y-102618247D02*
X197640376Y-102808723D01*
X197640376Y-102808723D02*
X197687995Y-102903961D01*
X197687995Y-102903961D02*
X197783233Y-102999200D01*
X197783233Y-102999200D02*
X197926090Y-103046819D01*
X197926090Y-103046819D02*
X198164185Y-103046819D01*
X196640376Y-103046819D02*
X197211804Y-103046819D01*
X196926090Y-103046819D02*
X196926090Y-102046819D01*
X196926090Y-102046819D02*
X197021328Y-102189676D01*
X197021328Y-102189676D02*
X197116566Y-102284914D01*
X197116566Y-102284914D02*
X197211804Y-102332533D01*
X195687995Y-103046819D02*
X196259423Y-103046819D01*
X195973709Y-103046819D02*
X195973709Y-102046819D01*
X195973709Y-102046819D02*
X196068947Y-102189676D01*
X196068947Y-102189676D02*
X196164185Y-102284914D01*
X196164185Y-102284914D02*
X196259423Y-102332533D01*
%TO.C,D10*%
X178914185Y-106118819D02*
X178914185Y-105118819D01*
X178914185Y-105118819D02*
X178676090Y-105118819D01*
X178676090Y-105118819D02*
X178533233Y-105166438D01*
X178533233Y-105166438D02*
X178437995Y-105261676D01*
X178437995Y-105261676D02*
X178390376Y-105356914D01*
X178390376Y-105356914D02*
X178342757Y-105547390D01*
X178342757Y-105547390D02*
X178342757Y-105690247D01*
X178342757Y-105690247D02*
X178390376Y-105880723D01*
X178390376Y-105880723D02*
X178437995Y-105975961D01*
X178437995Y-105975961D02*
X178533233Y-106071200D01*
X178533233Y-106071200D02*
X178676090Y-106118819D01*
X178676090Y-106118819D02*
X178914185Y-106118819D01*
X177390376Y-106118819D02*
X177961804Y-106118819D01*
X177676090Y-106118819D02*
X177676090Y-105118819D01*
X177676090Y-105118819D02*
X177771328Y-105261676D01*
X177771328Y-105261676D02*
X177866566Y-105356914D01*
X177866566Y-105356914D02*
X177961804Y-105404533D01*
X176771328Y-105118819D02*
X176676090Y-105118819D01*
X176676090Y-105118819D02*
X176580852Y-105166438D01*
X176580852Y-105166438D02*
X176533233Y-105214057D01*
X176533233Y-105214057D02*
X176485614Y-105309295D01*
X176485614Y-105309295D02*
X176437995Y-105499771D01*
X176437995Y-105499771D02*
X176437995Y-105737866D01*
X176437995Y-105737866D02*
X176485614Y-105928342D01*
X176485614Y-105928342D02*
X176533233Y-106023580D01*
X176533233Y-106023580D02*
X176580852Y-106071200D01*
X176580852Y-106071200D02*
X176676090Y-106118819D01*
X176676090Y-106118819D02*
X176771328Y-106118819D01*
X176771328Y-106118819D02*
X176866566Y-106071200D01*
X176866566Y-106071200D02*
X176914185Y-106023580D01*
X176914185Y-106023580D02*
X176961804Y-105928342D01*
X176961804Y-105928342D02*
X177009423Y-105737866D01*
X177009423Y-105737866D02*
X177009423Y-105499771D01*
X177009423Y-105499771D02*
X176961804Y-105309295D01*
X176961804Y-105309295D02*
X176914185Y-105214057D01*
X176914185Y-105214057D02*
X176866566Y-105166438D01*
X176866566Y-105166438D02*
X176771328Y-105118819D01*
%TO.C,D16*%
X216814185Y-111668819D02*
X216814185Y-110668819D01*
X216814185Y-110668819D02*
X216576090Y-110668819D01*
X216576090Y-110668819D02*
X216433233Y-110716438D01*
X216433233Y-110716438D02*
X216337995Y-110811676D01*
X216337995Y-110811676D02*
X216290376Y-110906914D01*
X216290376Y-110906914D02*
X216242757Y-111097390D01*
X216242757Y-111097390D02*
X216242757Y-111240247D01*
X216242757Y-111240247D02*
X216290376Y-111430723D01*
X216290376Y-111430723D02*
X216337995Y-111525961D01*
X216337995Y-111525961D02*
X216433233Y-111621200D01*
X216433233Y-111621200D02*
X216576090Y-111668819D01*
X216576090Y-111668819D02*
X216814185Y-111668819D01*
X215290376Y-111668819D02*
X215861804Y-111668819D01*
X215576090Y-111668819D02*
X215576090Y-110668819D01*
X215576090Y-110668819D02*
X215671328Y-110811676D01*
X215671328Y-110811676D02*
X215766566Y-110906914D01*
X215766566Y-110906914D02*
X215861804Y-110954533D01*
X214433233Y-110668819D02*
X214623709Y-110668819D01*
X214623709Y-110668819D02*
X214718947Y-110716438D01*
X214718947Y-110716438D02*
X214766566Y-110764057D01*
X214766566Y-110764057D02*
X214861804Y-110906914D01*
X214861804Y-110906914D02*
X214909423Y-111097390D01*
X214909423Y-111097390D02*
X214909423Y-111478342D01*
X214909423Y-111478342D02*
X214861804Y-111573580D01*
X214861804Y-111573580D02*
X214814185Y-111621200D01*
X214814185Y-111621200D02*
X214718947Y-111668819D01*
X214718947Y-111668819D02*
X214528471Y-111668819D01*
X214528471Y-111668819D02*
X214433233Y-111621200D01*
X214433233Y-111621200D02*
X214385614Y-111573580D01*
X214385614Y-111573580D02*
X214337995Y-111478342D01*
X214337995Y-111478342D02*
X214337995Y-111240247D01*
X214337995Y-111240247D02*
X214385614Y-111145009D01*
X214385614Y-111145009D02*
X214433233Y-111097390D01*
X214433233Y-111097390D02*
X214528471Y-111049771D01*
X214528471Y-111049771D02*
X214718947Y-111049771D01*
X214718947Y-111049771D02*
X214814185Y-111097390D01*
X214814185Y-111097390D02*
X214861804Y-111145009D01*
X214861804Y-111145009D02*
X214909423Y-111240247D01*
%TO.C,D8*%
X131823794Y-141418219D02*
X131823794Y-140418219D01*
X131823794Y-140418219D02*
X131585699Y-140418219D01*
X131585699Y-140418219D02*
X131442842Y-140465838D01*
X131442842Y-140465838D02*
X131347604Y-140561076D01*
X131347604Y-140561076D02*
X131299985Y-140656314D01*
X131299985Y-140656314D02*
X131252366Y-140846790D01*
X131252366Y-140846790D02*
X131252366Y-140989647D01*
X131252366Y-140989647D02*
X131299985Y-141180123D01*
X131299985Y-141180123D02*
X131347604Y-141275361D01*
X131347604Y-141275361D02*
X131442842Y-141370600D01*
X131442842Y-141370600D02*
X131585699Y-141418219D01*
X131585699Y-141418219D02*
X131823794Y-141418219D01*
X130680937Y-140846790D02*
X130776175Y-140799171D01*
X130776175Y-140799171D02*
X130823794Y-140751552D01*
X130823794Y-140751552D02*
X130871413Y-140656314D01*
X130871413Y-140656314D02*
X130871413Y-140608695D01*
X130871413Y-140608695D02*
X130823794Y-140513457D01*
X130823794Y-140513457D02*
X130776175Y-140465838D01*
X130776175Y-140465838D02*
X130680937Y-140418219D01*
X130680937Y-140418219D02*
X130490461Y-140418219D01*
X130490461Y-140418219D02*
X130395223Y-140465838D01*
X130395223Y-140465838D02*
X130347604Y-140513457D01*
X130347604Y-140513457D02*
X130299985Y-140608695D01*
X130299985Y-140608695D02*
X130299985Y-140656314D01*
X130299985Y-140656314D02*
X130347604Y-140751552D01*
X130347604Y-140751552D02*
X130395223Y-140799171D01*
X130395223Y-140799171D02*
X130490461Y-140846790D01*
X130490461Y-140846790D02*
X130680937Y-140846790D01*
X130680937Y-140846790D02*
X130776175Y-140894409D01*
X130776175Y-140894409D02*
X130823794Y-140942028D01*
X130823794Y-140942028D02*
X130871413Y-141037266D01*
X130871413Y-141037266D02*
X130871413Y-141227742D01*
X130871413Y-141227742D02*
X130823794Y-141322980D01*
X130823794Y-141322980D02*
X130776175Y-141370600D01*
X130776175Y-141370600D02*
X130680937Y-141418219D01*
X130680937Y-141418219D02*
X130490461Y-141418219D01*
X130490461Y-141418219D02*
X130395223Y-141370600D01*
X130395223Y-141370600D02*
X130347604Y-141322980D01*
X130347604Y-141322980D02*
X130299985Y-141227742D01*
X130299985Y-141227742D02*
X130299985Y-141037266D01*
X130299985Y-141037266D02*
X130347604Y-140942028D01*
X130347604Y-140942028D02*
X130395223Y-140894409D01*
X130395223Y-140894409D02*
X130490461Y-140846790D01*
D11*
%TO.C,C3*%
X64281133Y-69010201D02*
X64296371Y-69025440D01*
X64296371Y-69025440D02*
X64342085Y-69040678D01*
X64342085Y-69040678D02*
X64372561Y-69040678D01*
X64372561Y-69040678D02*
X64418276Y-69025440D01*
X64418276Y-69025440D02*
X64448752Y-68994963D01*
X64448752Y-68994963D02*
X64463990Y-68964487D01*
X64463990Y-68964487D02*
X64479228Y-68903535D01*
X64479228Y-68903535D02*
X64479228Y-68857820D01*
X64479228Y-68857820D02*
X64463990Y-68796868D01*
X64463990Y-68796868D02*
X64448752Y-68766392D01*
X64448752Y-68766392D02*
X64418276Y-68735916D01*
X64418276Y-68735916D02*
X64372561Y-68720678D01*
X64372561Y-68720678D02*
X64342085Y-68720678D01*
X64342085Y-68720678D02*
X64296371Y-68735916D01*
X64296371Y-68735916D02*
X64281133Y-68751154D01*
X64174466Y-68720678D02*
X63976371Y-68720678D01*
X63976371Y-68720678D02*
X64083038Y-68842582D01*
X64083038Y-68842582D02*
X64037323Y-68842582D01*
X64037323Y-68842582D02*
X64006847Y-68857820D01*
X64006847Y-68857820D02*
X63991609Y-68873059D01*
X63991609Y-68873059D02*
X63976371Y-68903535D01*
X63976371Y-68903535D02*
X63976371Y-68979725D01*
X63976371Y-68979725D02*
X63991609Y-69010201D01*
X63991609Y-69010201D02*
X64006847Y-69025440D01*
X64006847Y-69025440D02*
X64037323Y-69040678D01*
X64037323Y-69040678D02*
X64128752Y-69040678D01*
X64128752Y-69040678D02*
X64159228Y-69025440D01*
X64159228Y-69025440D02*
X64174466Y-69010201D01*
%TO.C,C7*%
X130956133Y-154735201D02*
X130971371Y-154750440D01*
X130971371Y-154750440D02*
X131017085Y-154765678D01*
X131017085Y-154765678D02*
X131047561Y-154765678D01*
X131047561Y-154765678D02*
X131093276Y-154750440D01*
X131093276Y-154750440D02*
X131123752Y-154719963D01*
X131123752Y-154719963D02*
X131138990Y-154689487D01*
X131138990Y-154689487D02*
X131154228Y-154628535D01*
X131154228Y-154628535D02*
X131154228Y-154582820D01*
X131154228Y-154582820D02*
X131138990Y-154521868D01*
X131138990Y-154521868D02*
X131123752Y-154491392D01*
X131123752Y-154491392D02*
X131093276Y-154460916D01*
X131093276Y-154460916D02*
X131047561Y-154445678D01*
X131047561Y-154445678D02*
X131017085Y-154445678D01*
X131017085Y-154445678D02*
X130971371Y-154460916D01*
X130971371Y-154460916D02*
X130956133Y-154476154D01*
X130849466Y-154445678D02*
X130636133Y-154445678D01*
X130636133Y-154445678D02*
X130773276Y-154765678D01*
D10*
%TO.C,D4*%
X84402894Y-83220519D02*
X84402894Y-82220519D01*
X84402894Y-82220519D02*
X84164799Y-82220519D01*
X84164799Y-82220519D02*
X84021942Y-82268138D01*
X84021942Y-82268138D02*
X83926704Y-82363376D01*
X83926704Y-82363376D02*
X83879085Y-82458614D01*
X83879085Y-82458614D02*
X83831466Y-82649090D01*
X83831466Y-82649090D02*
X83831466Y-82791947D01*
X83831466Y-82791947D02*
X83879085Y-82982423D01*
X83879085Y-82982423D02*
X83926704Y-83077661D01*
X83926704Y-83077661D02*
X84021942Y-83172900D01*
X84021942Y-83172900D02*
X84164799Y-83220519D01*
X84164799Y-83220519D02*
X84402894Y-83220519D01*
X82974323Y-82553852D02*
X82974323Y-83220519D01*
X83212418Y-82172900D02*
X83450513Y-82887185D01*
X83450513Y-82887185D02*
X82831466Y-82887185D01*
%TO.C,D3*%
X103331894Y-102619819D02*
X103331894Y-101619819D01*
X103331894Y-101619819D02*
X103093799Y-101619819D01*
X103093799Y-101619819D02*
X102950942Y-101667438D01*
X102950942Y-101667438D02*
X102855704Y-101762676D01*
X102855704Y-101762676D02*
X102808085Y-101857914D01*
X102808085Y-101857914D02*
X102760466Y-102048390D01*
X102760466Y-102048390D02*
X102760466Y-102191247D01*
X102760466Y-102191247D02*
X102808085Y-102381723D01*
X102808085Y-102381723D02*
X102855704Y-102476961D01*
X102855704Y-102476961D02*
X102950942Y-102572200D01*
X102950942Y-102572200D02*
X103093799Y-102619819D01*
X103093799Y-102619819D02*
X103331894Y-102619819D01*
X102427132Y-101619819D02*
X101808085Y-101619819D01*
X101808085Y-101619819D02*
X102141418Y-102000771D01*
X102141418Y-102000771D02*
X101998561Y-102000771D01*
X101998561Y-102000771D02*
X101903323Y-102048390D01*
X101903323Y-102048390D02*
X101855704Y-102096009D01*
X101855704Y-102096009D02*
X101808085Y-102191247D01*
X101808085Y-102191247D02*
X101808085Y-102429342D01*
X101808085Y-102429342D02*
X101855704Y-102524580D01*
X101855704Y-102524580D02*
X101903323Y-102572200D01*
X101903323Y-102572200D02*
X101998561Y-102619819D01*
X101998561Y-102619819D02*
X102284275Y-102619819D01*
X102284275Y-102619819D02*
X102379513Y-102572200D01*
X102379513Y-102572200D02*
X102427132Y-102524580D01*
%TO.C,D15*%
X197764185Y-106142819D02*
X197764185Y-105142819D01*
X197764185Y-105142819D02*
X197526090Y-105142819D01*
X197526090Y-105142819D02*
X197383233Y-105190438D01*
X197383233Y-105190438D02*
X197287995Y-105285676D01*
X197287995Y-105285676D02*
X197240376Y-105380914D01*
X197240376Y-105380914D02*
X197192757Y-105571390D01*
X197192757Y-105571390D02*
X197192757Y-105714247D01*
X197192757Y-105714247D02*
X197240376Y-105904723D01*
X197240376Y-105904723D02*
X197287995Y-105999961D01*
X197287995Y-105999961D02*
X197383233Y-106095200D01*
X197383233Y-106095200D02*
X197526090Y-106142819D01*
X197526090Y-106142819D02*
X197764185Y-106142819D01*
X196240376Y-106142819D02*
X196811804Y-106142819D01*
X196526090Y-106142819D02*
X196526090Y-105142819D01*
X196526090Y-105142819D02*
X196621328Y-105285676D01*
X196621328Y-105285676D02*
X196716566Y-105380914D01*
X196716566Y-105380914D02*
X196811804Y-105428533D01*
X195335614Y-105142819D02*
X195811804Y-105142819D01*
X195811804Y-105142819D02*
X195859423Y-105619009D01*
X195859423Y-105619009D02*
X195811804Y-105571390D01*
X195811804Y-105571390D02*
X195716566Y-105523771D01*
X195716566Y-105523771D02*
X195478471Y-105523771D01*
X195478471Y-105523771D02*
X195383233Y-105571390D01*
X195383233Y-105571390D02*
X195335614Y-105619009D01*
X195335614Y-105619009D02*
X195287995Y-105714247D01*
X195287995Y-105714247D02*
X195287995Y-105952342D01*
X195287995Y-105952342D02*
X195335614Y-106047580D01*
X195335614Y-106047580D02*
X195383233Y-106095200D01*
X195383233Y-106095200D02*
X195478471Y-106142819D01*
X195478471Y-106142819D02*
X195716566Y-106142819D01*
X195716566Y-106142819D02*
X195811804Y-106095200D01*
X195811804Y-106095200D02*
X195859423Y-106047580D01*
%TO.C,D1*%
X65098894Y-102524619D02*
X65098894Y-101524619D01*
X65098894Y-101524619D02*
X64860799Y-101524619D01*
X64860799Y-101524619D02*
X64717942Y-101572238D01*
X64717942Y-101572238D02*
X64622704Y-101667476D01*
X64622704Y-101667476D02*
X64575085Y-101762714D01*
X64575085Y-101762714D02*
X64527466Y-101953190D01*
X64527466Y-101953190D02*
X64527466Y-102096047D01*
X64527466Y-102096047D02*
X64575085Y-102286523D01*
X64575085Y-102286523D02*
X64622704Y-102381761D01*
X64622704Y-102381761D02*
X64717942Y-102477000D01*
X64717942Y-102477000D02*
X64860799Y-102524619D01*
X64860799Y-102524619D02*
X65098894Y-102524619D01*
X63575085Y-102524619D02*
X64146513Y-102524619D01*
X63860799Y-102524619D02*
X63860799Y-101524619D01*
X63860799Y-101524619D02*
X63956037Y-101667476D01*
X63956037Y-101667476D02*
X64051275Y-101762714D01*
X64051275Y-101762714D02*
X64146513Y-101810333D01*
D11*
%TO.C,C6*%
X102381133Y-115841401D02*
X102396371Y-115856640D01*
X102396371Y-115856640D02*
X102442085Y-115871878D01*
X102442085Y-115871878D02*
X102472561Y-115871878D01*
X102472561Y-115871878D02*
X102518276Y-115856640D01*
X102518276Y-115856640D02*
X102548752Y-115826163D01*
X102548752Y-115826163D02*
X102563990Y-115795687D01*
X102563990Y-115795687D02*
X102579228Y-115734735D01*
X102579228Y-115734735D02*
X102579228Y-115689020D01*
X102579228Y-115689020D02*
X102563990Y-115628068D01*
X102563990Y-115628068D02*
X102548752Y-115597592D01*
X102548752Y-115597592D02*
X102518276Y-115567116D01*
X102518276Y-115567116D02*
X102472561Y-115551878D01*
X102472561Y-115551878D02*
X102442085Y-115551878D01*
X102442085Y-115551878D02*
X102396371Y-115567116D01*
X102396371Y-115567116D02*
X102381133Y-115582354D01*
X102106847Y-115551878D02*
X102167800Y-115551878D01*
X102167800Y-115551878D02*
X102198276Y-115567116D01*
X102198276Y-115567116D02*
X102213514Y-115582354D01*
X102213514Y-115582354D02*
X102243990Y-115628068D01*
X102243990Y-115628068D02*
X102259228Y-115689020D01*
X102259228Y-115689020D02*
X102259228Y-115810925D01*
X102259228Y-115810925D02*
X102243990Y-115841401D01*
X102243990Y-115841401D02*
X102228752Y-115856640D01*
X102228752Y-115856640D02*
X102198276Y-115871878D01*
X102198276Y-115871878D02*
X102137323Y-115871878D01*
X102137323Y-115871878D02*
X102106847Y-115856640D01*
X102106847Y-115856640D02*
X102091609Y-115841401D01*
X102091609Y-115841401D02*
X102076371Y-115810925D01*
X102076371Y-115810925D02*
X102076371Y-115734735D01*
X102076371Y-115734735D02*
X102091609Y-115704259D01*
X102091609Y-115704259D02*
X102106847Y-115689020D01*
X102106847Y-115689020D02*
X102137323Y-115673782D01*
X102137323Y-115673782D02*
X102198276Y-115673782D01*
X102198276Y-115673782D02*
X102228752Y-115689020D01*
X102228752Y-115689020D02*
X102243990Y-115704259D01*
X102243990Y-115704259D02*
X102259228Y-115734735D01*
%TO.C,C2*%
X83331133Y-69010201D02*
X83346371Y-69025440D01*
X83346371Y-69025440D02*
X83392085Y-69040678D01*
X83392085Y-69040678D02*
X83422561Y-69040678D01*
X83422561Y-69040678D02*
X83468276Y-69025440D01*
X83468276Y-69025440D02*
X83498752Y-68994963D01*
X83498752Y-68994963D02*
X83513990Y-68964487D01*
X83513990Y-68964487D02*
X83529228Y-68903535D01*
X83529228Y-68903535D02*
X83529228Y-68857820D01*
X83529228Y-68857820D02*
X83513990Y-68796868D01*
X83513990Y-68796868D02*
X83498752Y-68766392D01*
X83498752Y-68766392D02*
X83468276Y-68735916D01*
X83468276Y-68735916D02*
X83422561Y-68720678D01*
X83422561Y-68720678D02*
X83392085Y-68720678D01*
X83392085Y-68720678D02*
X83346371Y-68735916D01*
X83346371Y-68735916D02*
X83331133Y-68751154D01*
X83209228Y-68751154D02*
X83193990Y-68735916D01*
X83193990Y-68735916D02*
X83163514Y-68720678D01*
X83163514Y-68720678D02*
X83087323Y-68720678D01*
X83087323Y-68720678D02*
X83056847Y-68735916D01*
X83056847Y-68735916D02*
X83041609Y-68751154D01*
X83041609Y-68751154D02*
X83026371Y-68781630D01*
X83026371Y-68781630D02*
X83026371Y-68812106D01*
X83026371Y-68812106D02*
X83041609Y-68857820D01*
X83041609Y-68857820D02*
X83224466Y-69040678D01*
X83224466Y-69040678D02*
X83026371Y-69040678D01*
D10*
%TO.C,D14*%
X178714185Y-106142819D02*
X178714185Y-105142819D01*
X178714185Y-105142819D02*
X178476090Y-105142819D01*
X178476090Y-105142819D02*
X178333233Y-105190438D01*
X178333233Y-105190438D02*
X178237995Y-105285676D01*
X178237995Y-105285676D02*
X178190376Y-105380914D01*
X178190376Y-105380914D02*
X178142757Y-105571390D01*
X178142757Y-105571390D02*
X178142757Y-105714247D01*
X178142757Y-105714247D02*
X178190376Y-105904723D01*
X178190376Y-105904723D02*
X178237995Y-105999961D01*
X178237995Y-105999961D02*
X178333233Y-106095200D01*
X178333233Y-106095200D02*
X178476090Y-106142819D01*
X178476090Y-106142819D02*
X178714185Y-106142819D01*
X177190376Y-106142819D02*
X177761804Y-106142819D01*
X177476090Y-106142819D02*
X177476090Y-105142819D01*
X177476090Y-105142819D02*
X177571328Y-105285676D01*
X177571328Y-105285676D02*
X177666566Y-105380914D01*
X177666566Y-105380914D02*
X177761804Y-105428533D01*
X176333233Y-105476152D02*
X176333233Y-106142819D01*
X176571328Y-105095200D02*
X176809423Y-105809485D01*
X176809423Y-105809485D02*
X176190376Y-105809485D01*
D11*
%TO.C,C10*%
X177939714Y-115841401D02*
X177954952Y-115856640D01*
X177954952Y-115856640D02*
X178000666Y-115871878D01*
X178000666Y-115871878D02*
X178031142Y-115871878D01*
X178031142Y-115871878D02*
X178076857Y-115856640D01*
X178076857Y-115856640D02*
X178107333Y-115826163D01*
X178107333Y-115826163D02*
X178122571Y-115795687D01*
X178122571Y-115795687D02*
X178137809Y-115734735D01*
X178137809Y-115734735D02*
X178137809Y-115689020D01*
X178137809Y-115689020D02*
X178122571Y-115628068D01*
X178122571Y-115628068D02*
X178107333Y-115597592D01*
X178107333Y-115597592D02*
X178076857Y-115567116D01*
X178076857Y-115567116D02*
X178031142Y-115551878D01*
X178031142Y-115551878D02*
X178000666Y-115551878D01*
X178000666Y-115551878D02*
X177954952Y-115567116D01*
X177954952Y-115567116D02*
X177939714Y-115582354D01*
X177634952Y-115871878D02*
X177817809Y-115871878D01*
X177726381Y-115871878D02*
X177726381Y-115551878D01*
X177726381Y-115551878D02*
X177756857Y-115597592D01*
X177756857Y-115597592D02*
X177787333Y-115628068D01*
X177787333Y-115628068D02*
X177817809Y-115643306D01*
X177436857Y-115551878D02*
X177406380Y-115551878D01*
X177406380Y-115551878D02*
X177375904Y-115567116D01*
X177375904Y-115567116D02*
X177360666Y-115582354D01*
X177360666Y-115582354D02*
X177345428Y-115612830D01*
X177345428Y-115612830D02*
X177330190Y-115673782D01*
X177330190Y-115673782D02*
X177330190Y-115749973D01*
X177330190Y-115749973D02*
X177345428Y-115810925D01*
X177345428Y-115810925D02*
X177360666Y-115841401D01*
X177360666Y-115841401D02*
X177375904Y-115856640D01*
X177375904Y-115856640D02*
X177406380Y-115871878D01*
X177406380Y-115871878D02*
X177436857Y-115871878D01*
X177436857Y-115871878D02*
X177467333Y-115856640D01*
X177467333Y-115856640D02*
X177482571Y-115841401D01*
X177482571Y-115841401D02*
X177497809Y-115810925D01*
X177497809Y-115810925D02*
X177513047Y-115749973D01*
X177513047Y-115749973D02*
X177513047Y-115673782D01*
X177513047Y-115673782D02*
X177497809Y-115612830D01*
X177497809Y-115612830D02*
X177482571Y-115582354D01*
X177482571Y-115582354D02*
X177467333Y-115567116D01*
X177467333Y-115567116D02*
X177436857Y-115551878D01*
D10*
%TO.C,U2*%
X219836904Y-41504819D02*
X219836904Y-42314342D01*
X219836904Y-42314342D02*
X219789285Y-42409580D01*
X219789285Y-42409580D02*
X219741666Y-42457200D01*
X219741666Y-42457200D02*
X219646428Y-42504819D01*
X219646428Y-42504819D02*
X219455952Y-42504819D01*
X219455952Y-42504819D02*
X219360714Y-42457200D01*
X219360714Y-42457200D02*
X219313095Y-42409580D01*
X219313095Y-42409580D02*
X219265476Y-42314342D01*
X219265476Y-42314342D02*
X219265476Y-41504819D01*
X218836904Y-41600057D02*
X218789285Y-41552438D01*
X218789285Y-41552438D02*
X218694047Y-41504819D01*
X218694047Y-41504819D02*
X218455952Y-41504819D01*
X218455952Y-41504819D02*
X218360714Y-41552438D01*
X218360714Y-41552438D02*
X218313095Y-41600057D01*
X218313095Y-41600057D02*
X218265476Y-41695295D01*
X218265476Y-41695295D02*
X218265476Y-41790533D01*
X218265476Y-41790533D02*
X218313095Y-41933390D01*
X218313095Y-41933390D02*
X218884523Y-42504819D01*
X218884523Y-42504819D02*
X218265476Y-42504819D01*
%TO.C,D2*%
X84281894Y-102524619D02*
X84281894Y-101524619D01*
X84281894Y-101524619D02*
X84043799Y-101524619D01*
X84043799Y-101524619D02*
X83900942Y-101572238D01*
X83900942Y-101572238D02*
X83805704Y-101667476D01*
X83805704Y-101667476D02*
X83758085Y-101762714D01*
X83758085Y-101762714D02*
X83710466Y-101953190D01*
X83710466Y-101953190D02*
X83710466Y-102096047D01*
X83710466Y-102096047D02*
X83758085Y-102286523D01*
X83758085Y-102286523D02*
X83805704Y-102381761D01*
X83805704Y-102381761D02*
X83900942Y-102477000D01*
X83900942Y-102477000D02*
X84043799Y-102524619D01*
X84043799Y-102524619D02*
X84281894Y-102524619D01*
X83329513Y-101619857D02*
X83281894Y-101572238D01*
X83281894Y-101572238D02*
X83186656Y-101524619D01*
X83186656Y-101524619D02*
X82948561Y-101524619D01*
X82948561Y-101524619D02*
X82853323Y-101572238D01*
X82853323Y-101572238D02*
X82805704Y-101619857D01*
X82805704Y-101619857D02*
X82758085Y-101715095D01*
X82758085Y-101715095D02*
X82758085Y-101810333D01*
X82758085Y-101810333D02*
X82805704Y-101953190D01*
X82805704Y-101953190D02*
X83377132Y-102524619D01*
X83377132Y-102524619D02*
X82758085Y-102524619D01*
D11*
%TO.C,C1*%
X102381133Y-69010201D02*
X102396371Y-69025440D01*
X102396371Y-69025440D02*
X102442085Y-69040678D01*
X102442085Y-69040678D02*
X102472561Y-69040678D01*
X102472561Y-69040678D02*
X102518276Y-69025440D01*
X102518276Y-69025440D02*
X102548752Y-68994963D01*
X102548752Y-68994963D02*
X102563990Y-68964487D01*
X102563990Y-68964487D02*
X102579228Y-68903535D01*
X102579228Y-68903535D02*
X102579228Y-68857820D01*
X102579228Y-68857820D02*
X102563990Y-68796868D01*
X102563990Y-68796868D02*
X102548752Y-68766392D01*
X102548752Y-68766392D02*
X102518276Y-68735916D01*
X102518276Y-68735916D02*
X102472561Y-68720678D01*
X102472561Y-68720678D02*
X102442085Y-68720678D01*
X102442085Y-68720678D02*
X102396371Y-68735916D01*
X102396371Y-68735916D02*
X102381133Y-68751154D01*
X102076371Y-69040678D02*
X102259228Y-69040678D01*
X102167800Y-69040678D02*
X102167800Y-68720678D01*
X102167800Y-68720678D02*
X102198276Y-68766392D01*
X102198276Y-68766392D02*
X102228752Y-68796868D01*
X102228752Y-68796868D02*
X102259228Y-68812106D01*
%TO.C,C15*%
X196989714Y-96791401D02*
X197004952Y-96806640D01*
X197004952Y-96806640D02*
X197050666Y-96821878D01*
X197050666Y-96821878D02*
X197081142Y-96821878D01*
X197081142Y-96821878D02*
X197126857Y-96806640D01*
X197126857Y-96806640D02*
X197157333Y-96776163D01*
X197157333Y-96776163D02*
X197172571Y-96745687D01*
X197172571Y-96745687D02*
X197187809Y-96684735D01*
X197187809Y-96684735D02*
X197187809Y-96639020D01*
X197187809Y-96639020D02*
X197172571Y-96578068D01*
X197172571Y-96578068D02*
X197157333Y-96547592D01*
X197157333Y-96547592D02*
X197126857Y-96517116D01*
X197126857Y-96517116D02*
X197081142Y-96501878D01*
X197081142Y-96501878D02*
X197050666Y-96501878D01*
X197050666Y-96501878D02*
X197004952Y-96517116D01*
X197004952Y-96517116D02*
X196989714Y-96532354D01*
X196684952Y-96821878D02*
X196867809Y-96821878D01*
X196776381Y-96821878D02*
X196776381Y-96501878D01*
X196776381Y-96501878D02*
X196806857Y-96547592D01*
X196806857Y-96547592D02*
X196837333Y-96578068D01*
X196837333Y-96578068D02*
X196867809Y-96593306D01*
X196395428Y-96501878D02*
X196547809Y-96501878D01*
X196547809Y-96501878D02*
X196563047Y-96654259D01*
X196563047Y-96654259D02*
X196547809Y-96639020D01*
X196547809Y-96639020D02*
X196517333Y-96623782D01*
X196517333Y-96623782D02*
X196441142Y-96623782D01*
X196441142Y-96623782D02*
X196410666Y-96639020D01*
X196410666Y-96639020D02*
X196395428Y-96654259D01*
X196395428Y-96654259D02*
X196380190Y-96684735D01*
X196380190Y-96684735D02*
X196380190Y-96760925D01*
X196380190Y-96760925D02*
X196395428Y-96791401D01*
X196395428Y-96791401D02*
X196410666Y-96806640D01*
X196410666Y-96806640D02*
X196441142Y-96821878D01*
X196441142Y-96821878D02*
X196517333Y-96821878D01*
X196517333Y-96821878D02*
X196547809Y-96806640D01*
X196547809Y-96806640D02*
X196563047Y-96791401D01*
%TO.C,C8*%
X83331133Y-96791401D02*
X83346371Y-96806640D01*
X83346371Y-96806640D02*
X83392085Y-96821878D01*
X83392085Y-96821878D02*
X83422561Y-96821878D01*
X83422561Y-96821878D02*
X83468276Y-96806640D01*
X83468276Y-96806640D02*
X83498752Y-96776163D01*
X83498752Y-96776163D02*
X83513990Y-96745687D01*
X83513990Y-96745687D02*
X83529228Y-96684735D01*
X83529228Y-96684735D02*
X83529228Y-96639020D01*
X83529228Y-96639020D02*
X83513990Y-96578068D01*
X83513990Y-96578068D02*
X83498752Y-96547592D01*
X83498752Y-96547592D02*
X83468276Y-96517116D01*
X83468276Y-96517116D02*
X83422561Y-96501878D01*
X83422561Y-96501878D02*
X83392085Y-96501878D01*
X83392085Y-96501878D02*
X83346371Y-96517116D01*
X83346371Y-96517116D02*
X83331133Y-96532354D01*
X83148276Y-96639020D02*
X83178752Y-96623782D01*
X83178752Y-96623782D02*
X83193990Y-96608544D01*
X83193990Y-96608544D02*
X83209228Y-96578068D01*
X83209228Y-96578068D02*
X83209228Y-96562830D01*
X83209228Y-96562830D02*
X83193990Y-96532354D01*
X83193990Y-96532354D02*
X83178752Y-96517116D01*
X83178752Y-96517116D02*
X83148276Y-96501878D01*
X83148276Y-96501878D02*
X83087323Y-96501878D01*
X83087323Y-96501878D02*
X83056847Y-96517116D01*
X83056847Y-96517116D02*
X83041609Y-96532354D01*
X83041609Y-96532354D02*
X83026371Y-96562830D01*
X83026371Y-96562830D02*
X83026371Y-96578068D01*
X83026371Y-96578068D02*
X83041609Y-96608544D01*
X83041609Y-96608544D02*
X83056847Y-96623782D01*
X83056847Y-96623782D02*
X83087323Y-96639020D01*
X83087323Y-96639020D02*
X83148276Y-96639020D01*
X83148276Y-96639020D02*
X83178752Y-96654259D01*
X83178752Y-96654259D02*
X83193990Y-96669497D01*
X83193990Y-96669497D02*
X83209228Y-96699973D01*
X83209228Y-96699973D02*
X83209228Y-96760925D01*
X83209228Y-96760925D02*
X83193990Y-96791401D01*
X83193990Y-96791401D02*
X83178752Y-96806640D01*
X83178752Y-96806640D02*
X83148276Y-96821878D01*
X83148276Y-96821878D02*
X83087323Y-96821878D01*
X83087323Y-96821878D02*
X83056847Y-96806640D01*
X83056847Y-96806640D02*
X83041609Y-96791401D01*
X83041609Y-96791401D02*
X83026371Y-96760925D01*
X83026371Y-96760925D02*
X83026371Y-96699973D01*
X83026371Y-96699973D02*
X83041609Y-96669497D01*
X83041609Y-96669497D02*
X83056847Y-96654259D01*
X83056847Y-96654259D02*
X83087323Y-96639020D01*
%TO.C,C16*%
X216039714Y-102347701D02*
X216054952Y-102362940D01*
X216054952Y-102362940D02*
X216100666Y-102378178D01*
X216100666Y-102378178D02*
X216131142Y-102378178D01*
X216131142Y-102378178D02*
X216176857Y-102362940D01*
X216176857Y-102362940D02*
X216207333Y-102332463D01*
X216207333Y-102332463D02*
X216222571Y-102301987D01*
X216222571Y-102301987D02*
X216237809Y-102241035D01*
X216237809Y-102241035D02*
X216237809Y-102195320D01*
X216237809Y-102195320D02*
X216222571Y-102134368D01*
X216222571Y-102134368D02*
X216207333Y-102103892D01*
X216207333Y-102103892D02*
X216176857Y-102073416D01*
X216176857Y-102073416D02*
X216131142Y-102058178D01*
X216131142Y-102058178D02*
X216100666Y-102058178D01*
X216100666Y-102058178D02*
X216054952Y-102073416D01*
X216054952Y-102073416D02*
X216039714Y-102088654D01*
X215734952Y-102378178D02*
X215917809Y-102378178D01*
X215826381Y-102378178D02*
X215826381Y-102058178D01*
X215826381Y-102058178D02*
X215856857Y-102103892D01*
X215856857Y-102103892D02*
X215887333Y-102134368D01*
X215887333Y-102134368D02*
X215917809Y-102149606D01*
X215460666Y-102058178D02*
X215521619Y-102058178D01*
X215521619Y-102058178D02*
X215552095Y-102073416D01*
X215552095Y-102073416D02*
X215567333Y-102088654D01*
X215567333Y-102088654D02*
X215597809Y-102134368D01*
X215597809Y-102134368D02*
X215613047Y-102195320D01*
X215613047Y-102195320D02*
X215613047Y-102317225D01*
X215613047Y-102317225D02*
X215597809Y-102347701D01*
X215597809Y-102347701D02*
X215582571Y-102362940D01*
X215582571Y-102362940D02*
X215552095Y-102378178D01*
X215552095Y-102378178D02*
X215491142Y-102378178D01*
X215491142Y-102378178D02*
X215460666Y-102362940D01*
X215460666Y-102362940D02*
X215445428Y-102347701D01*
X215445428Y-102347701D02*
X215430190Y-102317225D01*
X215430190Y-102317225D02*
X215430190Y-102241035D01*
X215430190Y-102241035D02*
X215445428Y-102210559D01*
X215445428Y-102210559D02*
X215460666Y-102195320D01*
X215460666Y-102195320D02*
X215491142Y-102180082D01*
X215491142Y-102180082D02*
X215552095Y-102180082D01*
X215552095Y-102180082D02*
X215582571Y-102195320D01*
X215582571Y-102195320D02*
X215597809Y-102210559D01*
X215597809Y-102210559D02*
X215613047Y-102241035D01*
D12*
%TO.C,MX3*%
X98241700Y-101055400D02*
X103341700Y-101055400D01*
X102141700Y-105255400D02*
X107241700Y-105255400D01*
X98241700Y-101055400D02*
G75*
G03*
X96241700Y-103055400I-1J-1999999D01*
G01*
X102141700Y-105255400D02*
G75*
G03*
X100141700Y-107255400I-1J-1999999D01*
G01*
%TO.C,MX6*%
X79243700Y-54377500D02*
X84343700Y-54377500D01*
X83143700Y-58577500D02*
X88243700Y-58577500D01*
X79243700Y-54377500D02*
G75*
G03*
X77243700Y-56377500I-1J-1999999D01*
G01*
X83143700Y-58577500D02*
G75*
G03*
X81143700Y-60577500I-1J-1999999D01*
G01*
%TO.C,MX1*%
X60141800Y-101055400D02*
X65241800Y-101055400D01*
X64041800Y-105255400D02*
X69141800Y-105255400D01*
X60141800Y-101055400D02*
G75*
G03*
X58141800Y-103055400I-1J-1999999D01*
G01*
X64041800Y-105255400D02*
G75*
G03*
X62041800Y-107255400I-1J-1999999D01*
G01*
%TO.C,MX16*%
X211641200Y-87715000D02*
X216741200Y-87715000D01*
X215541200Y-91915000D02*
X220641200Y-91915000D01*
X211641200Y-87715000D02*
G75*
G03*
X209641200Y-89715000I-1J-1999999D01*
G01*
X215541200Y-91915000D02*
G75*
G03*
X213541200Y-93915000I-1J-1999999D01*
G01*
%TO.C,MX2*%
X79243800Y-101050000D02*
X84343800Y-101050000D01*
X83143800Y-105250000D02*
X88243800Y-105250000D01*
X79243800Y-101050000D02*
G75*
G03*
X77243800Y-103050000I-1J-1999999D01*
G01*
X83143800Y-105250000D02*
G75*
G03*
X81143800Y-107250000I-1J-1999999D01*
G01*
%TO.C,MX7*%
X98293700Y-54377500D02*
X103393700Y-54377500D01*
X102193700Y-58577500D02*
X107293700Y-58577500D01*
X98293700Y-54377500D02*
G75*
G03*
X96293700Y-56377500I-1J-1999999D01*
G01*
X102193700Y-58577500D02*
G75*
G03*
X100193700Y-60577500I-1J-1999999D01*
G01*
%TO.C,MX5*%
X60193700Y-54377500D02*
X65293700Y-54377500D01*
X64093700Y-58577500D02*
X69193700Y-58577500D01*
X60193700Y-54377500D02*
G75*
G03*
X58193700Y-56377500I-1J-1999999D01*
G01*
X64093700Y-58577500D02*
G75*
G03*
X62093700Y-60577500I-1J-1999999D01*
G01*
%TO.C,MX4*%
X79243800Y-82000000D02*
X84343800Y-82000000D01*
X83143800Y-86200000D02*
X88243800Y-86200000D01*
X79243800Y-82000000D02*
G75*
G03*
X77243800Y-84000000I-1J-1999999D01*
G01*
X83143800Y-86200000D02*
G75*
G03*
X81143800Y-88200000I-1J-1999999D01*
G01*
%TO.C,MX12*%
X211641200Y-106765000D02*
X216741200Y-106765000D01*
X215541200Y-110965000D02*
X220641200Y-110965000D01*
X211641200Y-106765000D02*
G75*
G03*
X209641200Y-108765000I-1J-1999999D01*
G01*
X215541200Y-110965000D02*
G75*
G03*
X213541200Y-112965000I-1J-1999999D01*
G01*
%TO.C,MX10*%
X173541200Y-101526200D02*
X178641200Y-101526200D01*
X177441200Y-105726200D02*
X182541200Y-105726200D01*
X173541200Y-101526200D02*
G75*
G03*
X171541200Y-103526200I-1J-1999999D01*
G01*
X177441200Y-105726200D02*
G75*
G03*
X175441200Y-107726200I-1J-1999999D01*
G01*
%TO.C,MX8*%
X126710000Y-139626200D02*
X131810000Y-139626200D01*
X130610000Y-143826200D02*
X135710000Y-143826200D01*
X126710000Y-139626200D02*
G75*
G03*
X124710000Y-141626200I-1J-1999999D01*
G01*
X130610000Y-143826200D02*
G75*
G03*
X128610000Y-145826200I-1J-1999999D01*
G01*
%TO.C,MX14*%
X173541200Y-82476200D02*
X178641200Y-82476200D01*
X177441200Y-86676200D02*
X182541200Y-86676200D01*
X173541200Y-82476200D02*
G75*
G03*
X171541200Y-84476200I-1J-1999999D01*
G01*
X177441200Y-86676200D02*
G75*
G03*
X175441200Y-88676200I-1J-1999999D01*
G01*
%TO.C,MX11*%
X192591200Y-101526200D02*
X197691200Y-101526200D01*
X196491200Y-105726200D02*
X201591200Y-105726200D01*
X192591200Y-101526200D02*
G75*
G03*
X190591200Y-103526200I-1J-1999999D01*
G01*
X196491200Y-105726200D02*
G75*
G03*
X194491200Y-107726200I-1J-1999999D01*
G01*
%TO.C,MX13*%
X154491200Y-87715000D02*
X159591200Y-87715000D01*
X158391200Y-91915000D02*
X163491200Y-91915000D01*
X154491200Y-87715000D02*
G75*
G03*
X152491200Y-89715000I-1J-1999999D01*
G01*
X158391200Y-91915000D02*
G75*
G03*
X156391200Y-93915000I-1J-1999999D01*
G01*
%TO.C,MX15*%
X192591200Y-82476200D02*
X197691200Y-82476200D01*
X196491200Y-86676200D02*
X201591200Y-86676200D01*
X192591200Y-82476200D02*
G75*
G03*
X190591200Y-84476200I-1J-1999999D01*
G01*
X196491200Y-86676200D02*
G75*
G03*
X194491200Y-88676200I-1J-1999999D01*
G01*
%TO.C,MX9*%
X154491200Y-106765000D02*
X159591200Y-106765000D01*
X158391200Y-110965000D02*
X163491200Y-110965000D01*
X154491200Y-106765000D02*
G75*
G03*
X152491200Y-108765000I-1J-1999999D01*
G01*
X158391200Y-110965000D02*
G75*
G03*
X156391200Y-112965000I-1J-1999999D01*
G01*
%TO.C,U1*%
X184310000Y-70825000D02*
X183910000Y-70825000D01*
X186910000Y-70825000D02*
X186510000Y-70825000D01*
X189410000Y-70825000D02*
X189010000Y-70825000D01*
X191910000Y-70825000D02*
X191510000Y-70825000D01*
X194510000Y-70825000D02*
X194110000Y-70825000D01*
X197010000Y-70825000D02*
X196610000Y-70825000D01*
X199610000Y-70825000D02*
X199210000Y-70825000D01*
X202110000Y-70825000D02*
X201710000Y-70825000D01*
X204710000Y-70825000D02*
X204310000Y-70825000D01*
X207210000Y-70825000D02*
X206810000Y-70825000D01*
X209710000Y-70825000D02*
X209310000Y-70825000D01*
X212310000Y-70825000D02*
X211910000Y-70825000D01*
X214810000Y-70825000D02*
X214410000Y-70825000D01*
X217410000Y-70825000D02*
X217010000Y-70825000D01*
X219910000Y-70825000D02*
X219510000Y-70825000D01*
X222410000Y-70825000D02*
X222010000Y-70825000D01*
X225010000Y-70825000D02*
X224610000Y-70825000D01*
X227510000Y-70825000D02*
X227110000Y-70825000D01*
X229843000Y-70825000D02*
X229843000Y-67818000D01*
X230110000Y-70825000D02*
X229710000Y-70825000D01*
X232510000Y-70825000D02*
X232210000Y-70825000D01*
X232510000Y-70825000D02*
X232510000Y-49825000D01*
X229843000Y-67818000D02*
X232510000Y-67818000D01*
X181510000Y-64025000D02*
X181510000Y-70825000D01*
X181510000Y-61825000D02*
X181510000Y-61425000D01*
X181510000Y-59225000D02*
X181510000Y-58825000D01*
X181510000Y-49825000D02*
X181510000Y-56625000D01*
X184310000Y-49825000D02*
X183910000Y-49825000D01*
X186910000Y-49825000D02*
X186510000Y-49825000D01*
X189410000Y-49825000D02*
X189010000Y-49825000D01*
X191910000Y-49825000D02*
X191510000Y-49825000D01*
X194510000Y-49825000D02*
X194110000Y-49825000D01*
X197010000Y-49825000D02*
X196610000Y-49825000D01*
X199610000Y-49825000D02*
X199210000Y-49825000D01*
X202110000Y-49825000D02*
X201710000Y-49825000D01*
X204710000Y-49825000D02*
X204310000Y-49825000D01*
X207210000Y-49825000D02*
X206810000Y-49825000D01*
X209710000Y-49825000D02*
X209310000Y-49825000D01*
X212310000Y-49825000D02*
X211910000Y-49825000D01*
X214810000Y-49825000D02*
X214410000Y-49825000D01*
X217410000Y-49825000D02*
X217010000Y-49825000D01*
X219910000Y-49825000D02*
X219510000Y-49825000D01*
X222410000Y-49825000D02*
X222010000Y-49825000D01*
X225010000Y-49825000D02*
X224610000Y-49825000D01*
X227510000Y-49825000D02*
X227110000Y-49825000D01*
X230110000Y-49825000D02*
X229710000Y-49825000D01*
X232510000Y-49825000D02*
X232210000Y-49825000D01*
%TO.C,D12*%
X211899900Y-117214000D02*
X219699900Y-117214000D01*
X211899900Y-118814000D02*
X211899900Y-117214000D01*
X219699900Y-120914000D02*
X211899900Y-120914000D01*
%TO.C,D7*%
X106293800Y-68398000D02*
X98493800Y-68398000D01*
X106293800Y-66798000D02*
X106293800Y-68398000D01*
X98493800Y-64698000D02*
X106293800Y-64698000D01*
%TO.C,D6*%
X87243800Y-68398000D02*
X79443800Y-68398000D01*
X87243800Y-66798000D02*
X87243800Y-68398000D01*
X79443800Y-64698000D02*
X87243800Y-64698000D01*
%TO.C,D5*%
X68193800Y-68398000D02*
X60393800Y-68398000D01*
X68193800Y-66798000D02*
X68193800Y-68398000D01*
X60393800Y-64698000D02*
X68193800Y-64698000D01*
%TO.C,D9*%
X154912400Y-117214000D02*
X162712400Y-117214000D01*
X154912400Y-118814000D02*
X154912400Y-117214000D01*
X162712400Y-120914000D02*
X154912400Y-120914000D01*
%TO.C,D13*%
X162549900Y-101864000D02*
X154749900Y-101864000D01*
X162549900Y-100264000D02*
X162549900Y-101864000D01*
X154749900Y-98164000D02*
X162549900Y-98164000D01*
%TO.C,D11*%
X192849900Y-111942000D02*
X200649900Y-111942000D01*
X192849900Y-113542000D02*
X192849900Y-111942000D01*
X200649900Y-115642000D02*
X192849900Y-115642000D01*
%TO.C,D10*%
X173799900Y-111942000D02*
X181599900Y-111942000D01*
X173799900Y-113542000D02*
X173799900Y-111942000D01*
X181599900Y-115642000D02*
X173799900Y-115642000D01*
%TO.C,D16*%
X219699900Y-101864000D02*
X211899900Y-101864000D01*
X219699900Y-100264000D02*
X219699900Y-101864000D01*
X211899900Y-98164000D02*
X219699900Y-98164000D01*
%TO.C,D8*%
X126985700Y-150313400D02*
X134785700Y-150313400D01*
X126985700Y-151913400D02*
X126985700Y-150313400D01*
X134785700Y-154013400D02*
X126985700Y-154013400D01*
%TO.C,D4*%
X79564800Y-92115700D02*
X87364800Y-92115700D01*
X79564800Y-93715700D02*
X79564800Y-92115700D01*
X87364800Y-95815700D02*
X79564800Y-95815700D01*
%TO.C,D3*%
X98493800Y-111515000D02*
X106293800Y-111515000D01*
X98493800Y-113115000D02*
X98493800Y-111515000D01*
X106293800Y-115215000D02*
X98493800Y-115215000D01*
%TO.C,D15*%
X200649900Y-96338000D02*
X192849900Y-96338000D01*
X200649900Y-94738000D02*
X200649900Y-96338000D01*
X192849900Y-92638000D02*
X200649900Y-92638000D01*
%TO.C,D1*%
X60260800Y-111419800D02*
X68060800Y-111419800D01*
X60260800Y-113019800D02*
X60260800Y-111419800D01*
X68060800Y-115119800D02*
X60260800Y-115119800D01*
%TO.C,D14*%
X181599900Y-96338000D02*
X173799900Y-96338000D01*
X181599900Y-94738000D02*
X181599900Y-96338000D01*
X173799900Y-92638000D02*
X181599900Y-92638000D01*
%TO.C,U2*%
X219075000Y-46010000D02*
X219875000Y-46010000D01*
X219075000Y-46010000D02*
X218275000Y-46010000D01*
X219075000Y-42890000D02*
X220875000Y-42890000D01*
X219075000Y-42890000D02*
X218275000Y-42890000D01*
%TO.C,D2*%
X79443800Y-111419800D02*
X87243800Y-111419800D01*
X79443800Y-113019800D02*
X79443800Y-111419800D01*
X87243800Y-115119800D02*
X79443800Y-115119800D01*
%TD*%
%LPC*%
D13*
%TO.C,REF\u002A\u002A*%
X229870000Y-156210000D03*
%TD*%
%TO.C,REF\u002A\u002A*%
X50800000Y-156210000D03*
%TD*%
%TO.C,REF\u002A\u002A*%
X229870000Y-40640000D03*
%TD*%
%TO.C,REF\u002A\u002A*%
X50800000Y-40640000D03*
%TD*%
D14*
%TO.C,MX3*%
X95256700Y-105415400D03*
D15*
X97261700Y-107955400D03*
D16*
X102341700Y-107955400D03*
D15*
X107421700Y-107955400D03*
D14*
X108183700Y-102875400D03*
D17*
X98531700Y-105415400D03*
X104881700Y-102875400D03*
%TD*%
D14*
%TO.C,MX6*%
X76258700Y-58737500D03*
D15*
X78263700Y-61277500D03*
D16*
X83343700Y-61277500D03*
D15*
X88423700Y-61277500D03*
D14*
X89185700Y-56197500D03*
D17*
X79533700Y-58737500D03*
X85883700Y-56197500D03*
%TD*%
D14*
%TO.C,MX1*%
X57156800Y-105415400D03*
D15*
X59161800Y-107955400D03*
D16*
X64241800Y-107955400D03*
D15*
X69321800Y-107955400D03*
D14*
X70083800Y-102875400D03*
D17*
X60431800Y-105415400D03*
X66781800Y-102875400D03*
%TD*%
D14*
%TO.C,MX16*%
X208656200Y-92075000D03*
D15*
X210661200Y-94615000D03*
D16*
X215741200Y-94615000D03*
D15*
X220821200Y-94615000D03*
D14*
X221583200Y-89535000D03*
D17*
X211931200Y-92075000D03*
X218281200Y-89535000D03*
%TD*%
D14*
%TO.C,MX2*%
X76258800Y-105410000D03*
D15*
X78263800Y-107950000D03*
D16*
X83343800Y-107950000D03*
D15*
X88423800Y-107950000D03*
D14*
X89185800Y-102870000D03*
D17*
X79533800Y-105410000D03*
X85883800Y-102870000D03*
%TD*%
D14*
%TO.C,MX7*%
X95308700Y-58737500D03*
D15*
X97313700Y-61277500D03*
D16*
X102393700Y-61277500D03*
D15*
X107473700Y-61277500D03*
D14*
X108235700Y-56197500D03*
D17*
X98583700Y-58737500D03*
X104933700Y-56197500D03*
%TD*%
D14*
%TO.C,MX5*%
X57208700Y-58737500D03*
D15*
X59213700Y-61277500D03*
D16*
X64293700Y-61277500D03*
D15*
X69373700Y-61277500D03*
D14*
X70135700Y-56197500D03*
D17*
X60483700Y-58737500D03*
X66833700Y-56197500D03*
%TD*%
D14*
%TO.C,MX4*%
X76258800Y-86360000D03*
D15*
X78263800Y-88900000D03*
D16*
X83343800Y-88900000D03*
D15*
X88423800Y-88900000D03*
D14*
X89185800Y-83820000D03*
D17*
X79533800Y-86360000D03*
X85883800Y-83820000D03*
%TD*%
D14*
%TO.C,MX12*%
X208656200Y-111125000D03*
D15*
X210661200Y-113665000D03*
D16*
X215741200Y-113665000D03*
D15*
X220821200Y-113665000D03*
D14*
X221583200Y-108585000D03*
D17*
X211931200Y-111125000D03*
X218281200Y-108585000D03*
%TD*%
D14*
%TO.C,MX10*%
X170556200Y-105886200D03*
D15*
X172561200Y-108426200D03*
D16*
X177641200Y-108426200D03*
D15*
X182721200Y-108426200D03*
D14*
X183483200Y-103346200D03*
D17*
X173831200Y-105886200D03*
X180181200Y-103346200D03*
%TD*%
D14*
%TO.C,MX8*%
X123725000Y-143986200D03*
D15*
X125730000Y-146526200D03*
D16*
X130810000Y-146526200D03*
D15*
X135890000Y-146526200D03*
D14*
X136652000Y-141446200D03*
D17*
X127000000Y-143986200D03*
X133350000Y-141446200D03*
%TD*%
D14*
%TO.C,MX14*%
X170556200Y-86836200D03*
D15*
X172561200Y-89376200D03*
D16*
X177641200Y-89376200D03*
D15*
X182721200Y-89376200D03*
D14*
X183483200Y-84296200D03*
D17*
X173831200Y-86836200D03*
X180181200Y-84296200D03*
%TD*%
D14*
%TO.C,MX11*%
X189606200Y-105886200D03*
D15*
X191611200Y-108426200D03*
D16*
X196691200Y-108426200D03*
D15*
X201771200Y-108426200D03*
D14*
X202533200Y-103346200D03*
D17*
X192881200Y-105886200D03*
X199231200Y-103346200D03*
%TD*%
D14*
%TO.C,MX13*%
X151506200Y-92075000D03*
D15*
X153511200Y-94615000D03*
D16*
X158591200Y-94615000D03*
D15*
X163671200Y-94615000D03*
D14*
X164433200Y-89535000D03*
D17*
X154781200Y-92075000D03*
X161131200Y-89535000D03*
%TD*%
D14*
%TO.C,MX15*%
X189606200Y-86836200D03*
D15*
X191611200Y-89376200D03*
D16*
X196691200Y-89376200D03*
D15*
X201771200Y-89376200D03*
D14*
X202533200Y-84296200D03*
D17*
X192881200Y-86836200D03*
X199231200Y-84296200D03*
%TD*%
D14*
%TO.C,MX9*%
X151506200Y-111125000D03*
D15*
X153511200Y-113665000D03*
D16*
X158591200Y-113665000D03*
D15*
X163671200Y-113665000D03*
D14*
X164433200Y-108585000D03*
D17*
X154781200Y-111125000D03*
X161131200Y-108585000D03*
%TD*%
D18*
%TO.C,U1*%
X231010000Y-63050000D03*
D19*
X227980000Y-62750000D03*
X227980000Y-57900000D03*
D18*
X231010000Y-57600000D03*
D20*
X231140000Y-69215000D03*
D21*
X231140000Y-70115000D03*
D20*
X228600000Y-69215000D03*
D21*
X228600000Y-70115000D03*
D22*
X226060000Y-69215000D03*
D21*
X226060000Y-70115000D03*
D20*
X223520000Y-69215000D03*
D21*
X223520000Y-70115000D03*
D20*
X220980000Y-69215000D03*
D21*
X220980000Y-70115000D03*
D20*
X218440000Y-69215000D03*
D21*
X218440000Y-70115000D03*
D20*
X215900000Y-69215000D03*
D21*
X215900000Y-70115000D03*
D22*
X213360000Y-69215000D03*
D21*
X213360000Y-70115000D03*
D20*
X210820000Y-69215000D03*
D21*
X210820000Y-70115000D03*
D20*
X208280000Y-69215000D03*
D21*
X208280000Y-70115000D03*
D20*
X205740000Y-69215000D03*
D21*
X205740000Y-70115000D03*
D20*
X203200000Y-69215000D03*
D21*
X203200000Y-70115000D03*
D22*
X200660000Y-69215000D03*
D21*
X200660000Y-70115000D03*
D20*
X198120000Y-69215000D03*
D21*
X198120000Y-70115000D03*
D20*
X195580000Y-69215000D03*
D21*
X195580000Y-70115000D03*
D20*
X193040000Y-69215000D03*
D21*
X193040000Y-70115000D03*
D20*
X190500000Y-69215000D03*
D21*
X190500000Y-70115000D03*
D22*
X187960000Y-69215000D03*
D21*
X187960000Y-70115000D03*
D20*
X185420000Y-69215000D03*
D21*
X185420000Y-70115000D03*
D20*
X182880000Y-69215000D03*
D21*
X182880000Y-70115000D03*
D20*
X182880000Y-51435000D03*
D21*
X182880000Y-50535000D03*
D20*
X185420000Y-51435000D03*
D21*
X185420000Y-50535000D03*
D22*
X187960000Y-51435000D03*
D21*
X187960000Y-50535000D03*
D20*
X190500000Y-51435000D03*
D21*
X190500000Y-50535000D03*
D20*
X193040000Y-51435000D03*
D21*
X193040000Y-50535000D03*
D20*
X195580000Y-51435000D03*
D21*
X195580000Y-50535000D03*
D20*
X198120000Y-51435000D03*
D21*
X198120000Y-50535000D03*
D22*
X200660000Y-51435000D03*
D21*
X200660000Y-50535000D03*
D20*
X203200000Y-51435000D03*
D21*
X203200000Y-50535000D03*
D20*
X205740000Y-51435000D03*
D21*
X205740000Y-50535000D03*
D20*
X208280000Y-51435000D03*
D21*
X208280000Y-50535000D03*
D20*
X210820000Y-51435000D03*
D21*
X210820000Y-50535000D03*
D22*
X213360000Y-51435000D03*
D21*
X213360000Y-50535000D03*
D20*
X215900000Y-51435000D03*
D21*
X215900000Y-50535000D03*
D20*
X218440000Y-51435000D03*
D21*
X218440000Y-50535000D03*
D20*
X220980000Y-51435000D03*
D21*
X220980000Y-50535000D03*
D20*
X223520000Y-51435000D03*
D21*
X223520000Y-50535000D03*
D22*
X226060000Y-51435000D03*
D21*
X226060000Y-50535000D03*
D20*
X228600000Y-51435000D03*
D21*
X228600000Y-50535000D03*
D20*
X231140000Y-51435000D03*
D21*
X231140000Y-50535000D03*
D20*
X183110000Y-62865000D03*
D23*
X182210000Y-62865000D03*
D22*
X183110000Y-60325000D03*
D23*
X182210000Y-60325000D03*
D20*
X183110000Y-57785000D03*
D23*
X182210000Y-57785000D03*
%TD*%
D24*
%TO.C,C13*%
X159195000Y-103187500D03*
X158305000Y-103187500D03*
%TD*%
%TO.C,C11*%
X197295000Y-116681200D03*
X196405000Y-116681200D03*
%TD*%
D25*
%TO.C,D12*%
X218549900Y-119764000D03*
X218549900Y-118364000D03*
X213049900Y-118364000D03*
X213049900Y-119764000D03*
%TD*%
%TO.C,D7*%
X99643800Y-65848000D03*
X99643800Y-67248000D03*
X105143800Y-67248000D03*
X105143800Y-65848000D03*
%TD*%
D24*
%TO.C,C9*%
X159195000Y-122237500D03*
X158305000Y-122237500D03*
%TD*%
D25*
%TO.C,D6*%
X80593800Y-65848000D03*
X80593800Y-67248000D03*
X86093800Y-67248000D03*
X86093800Y-65848000D03*
%TD*%
%TO.C,D5*%
X61543800Y-65848000D03*
X61543800Y-67248000D03*
X67043800Y-67248000D03*
X67043800Y-65848000D03*
%TD*%
D24*
%TO.C,C4*%
X64738800Y-116681200D03*
X63848800Y-116681200D03*
%TD*%
D25*
%TO.C,D9*%
X161562400Y-119764000D03*
X161562400Y-118364000D03*
X156062400Y-118364000D03*
X156062400Y-119764000D03*
%TD*%
D24*
%TO.C,C14*%
X178245000Y-97631200D03*
X177355000Y-97631200D03*
%TD*%
%TO.C,C5*%
X83788800Y-116681200D03*
X82898800Y-116681200D03*
%TD*%
D25*
%TO.C,D13*%
X155899900Y-99314000D03*
X155899900Y-100714000D03*
X161399900Y-100714000D03*
X161399900Y-99314000D03*
%TD*%
D24*
%TO.C,C12*%
X216345000Y-122237500D03*
X215455000Y-122237500D03*
%TD*%
D25*
%TO.C,D11*%
X199499900Y-114492000D03*
X199499900Y-113092000D03*
X193999900Y-113092000D03*
X193999900Y-114492000D03*
%TD*%
%TO.C,D10*%
X180449900Y-114492000D03*
X180449900Y-113092000D03*
X174949900Y-113092000D03*
X174949900Y-114492000D03*
%TD*%
%TO.C,D16*%
X213049900Y-99314000D03*
X213049900Y-100714000D03*
X218549900Y-100714000D03*
X218549900Y-99314000D03*
%TD*%
%TO.C,D8*%
X133635700Y-152863400D03*
X133635700Y-151463400D03*
X128135700Y-151463400D03*
X128135700Y-152863400D03*
%TD*%
D24*
%TO.C,C3*%
X64738800Y-69850000D03*
X63848800Y-69850000D03*
%TD*%
%TO.C,C7*%
X131413800Y-155575000D03*
X130523800Y-155575000D03*
%TD*%
D25*
%TO.C,D4*%
X86214800Y-94665700D03*
X86214800Y-93265700D03*
X80714800Y-93265700D03*
X80714800Y-94665700D03*
%TD*%
%TO.C,D3*%
X105143800Y-114065000D03*
X105143800Y-112665000D03*
X99643800Y-112665000D03*
X99643800Y-114065000D03*
%TD*%
%TO.C,D15*%
X193999900Y-93788000D03*
X193999900Y-95188000D03*
X199499900Y-95188000D03*
X199499900Y-93788000D03*
%TD*%
%TO.C,D1*%
X66910800Y-113969800D03*
X66910800Y-112569800D03*
X61410800Y-112569800D03*
X61410800Y-113969800D03*
%TD*%
D24*
%TO.C,C6*%
X102838800Y-116681200D03*
X101948800Y-116681200D03*
%TD*%
%TO.C,C2*%
X83788800Y-69850000D03*
X82898800Y-69850000D03*
%TD*%
D25*
%TO.C,D14*%
X174949900Y-93788000D03*
X174949900Y-95188000D03*
X180449900Y-95188000D03*
X180449900Y-93788000D03*
%TD*%
D24*
%TO.C,C10*%
X178245000Y-116681200D03*
X177355000Y-116681200D03*
%TD*%
D26*
%TO.C,U2*%
X220212500Y-43500000D03*
X220212500Y-44450000D03*
X220212500Y-45400000D03*
X217937500Y-45400000D03*
X217937500Y-43500000D03*
%TD*%
D25*
%TO.C,D2*%
X86093800Y-113969800D03*
X86093800Y-112569800D03*
X80593800Y-112569800D03*
X80593800Y-113969800D03*
%TD*%
D24*
%TO.C,C1*%
X102838800Y-69850000D03*
X101948800Y-69850000D03*
%TD*%
%TO.C,C15*%
X197295000Y-97631200D03*
X196405000Y-97631200D03*
%TD*%
%TO.C,C8*%
X83788800Y-97631200D03*
X82898800Y-97631200D03*
%TD*%
%TO.C,C16*%
X216345000Y-103187500D03*
X215455000Y-103187500D03*
%TD*%
%LPD*%
M02*
