M48
; DRILL file {KiCad 7.0.5} date Wed Jun  7 11:29:58 2023
; FORMAT={-:-/ absolute / inch / decimal}
; #@! TF.CreationDate,2023-06-07T11:29:58+08:00
; #@! TF.GenerationSoftware,Kicad,Pcbnew,7.0.5
; #@! TF.FileFunction,Plated,1,2,PTH
FMAT,2
INCH
; #@! TA.AperFunction,Plated,PTH,ViaDrill
T1C0.0157
; #@! TA.AperFunction,Plated,PTH,ComponentDrill
T2C0.0402
; #@! TA.AperFunction,Plated,PTH,ComponentDrill
T3C0.1201
%
G90
G05
T1
X2.3462Y-2.778
X2.4269Y-2.778
X2.5045Y-4.6585
X2.6395Y-2.6938
X2.721Y-4.4583
X3.1373Y-4.0333
X3.1774Y-2.5481
X3.2545Y-4.6585
X3.2609Y-3.8802
X3.3566Y-4.146
X3.4524Y-3.6888
X3.49Y-4.4583
X3.9314Y-2.547
X3.9314Y-2.6929
X4.0362Y-4.6712
X4.2146Y-4.6712
X4.2954Y-2.5985
X5.0539Y-5.8847
X5.1387Y-6.1615
X5.2414Y-5.8847
X5.3207Y-5.968
X5.4086Y-2.6478
X6.251Y-4.8481
X6.2668Y-4.3506
X6.4196Y-4.6795
X6.5831Y-3.5925
X6.612Y-4.0177
X6.8508Y-3.5925
X7.0011Y-4.0177
X7.0036Y-4.6712
X7.0176Y-4.1451
X7.094Y-3.8124
X7.2316Y-4.4785
X7.5152Y-2.9099
X7.6151Y-4.0715
X7.6205Y-3.6281
X7.7285Y-4.0946
X7.7536Y-4.6296
X7.901Y-3.8659
X7.9119Y-4.3775
X7.9132Y-4.47
X8.1274Y-3.7182
X8.1363Y-4.3775
X8.2274Y-2.9099
X8.2545Y-3.8963
X8.3429Y-2.5985
X8.3429Y-4.1884
X8.3573Y-4.0397
X8.3803Y-3.8659
X8.4468Y-4.8085
X8.5122Y-4.1517
X8.6006Y-4.0186
X8.6632Y-4.6746
X8.67Y-4.0186
T2
X7.2Y-2.025
X7.2Y-2.725
X7.2091Y-2.275
X7.2091Y-2.375
X7.2091Y-2.475
X7.3Y-2.025
X7.3Y-2.725
X7.4Y-2.025
X7.4Y-2.725
X7.5Y-2.025
X7.5Y-2.725
X7.6Y-2.025
X7.6Y-2.725
X7.7Y-2.025
X7.7Y-2.725
X7.8Y-2.025
X7.8Y-2.725
X7.9Y-2.025
X7.9Y-2.725
X8.0Y-2.025
X8.0Y-2.725
X8.1Y-2.025
X8.1Y-2.725
X8.2Y-2.025
X8.2Y-2.725
X8.3Y-2.025
X8.3Y-2.725
X8.4Y-2.025
X8.4Y-2.725
X8.5Y-2.025
X8.5Y-2.725
X8.6Y-2.025
X8.6Y-2.725
X8.7Y-2.025
X8.7Y-2.725
X8.8Y-2.025
X8.8Y-2.725
X8.9Y-2.025
X8.9Y-2.725
X9.0Y-2.025
X9.0Y-2.725
X9.1Y-2.025
X9.1Y-2.725
T3
X2.3792Y-4.1502
X2.3812Y-2.3125
X2.6292Y-4.0502
X2.6312Y-2.2125
X3.1312Y-2.3125
X3.1313Y-3.4
X3.1313Y-4.15
X3.3812Y-2.2125
X3.3813Y-3.3
X3.3813Y-4.05
X3.8792Y-4.1502
X3.8812Y-2.3125
X4.1292Y-4.0502
X4.1312Y-2.2125
X5.0Y-5.6687
X5.25Y-5.5687
X6.0937Y-3.625
X6.0937Y-4.375
X6.3437Y-3.525
X6.3437Y-4.275
X6.8437Y-3.4187
X6.8437Y-4.1687
X7.0937Y-3.3187
X7.0937Y-4.0687
X7.5937Y-3.4187
X7.5937Y-4.1687
X7.8437Y-3.3187
X7.8437Y-4.0687
X8.3437Y-3.625
X8.3437Y-4.375
X8.5937Y-3.525
X8.5937Y-4.275
T0
M30
