%TF.GenerationSoftware,KiCad,Pcbnew,7.0.5*%
%TF.CreationDate,2023-06-07T11:29:59+08:00*%
%TF.ProjectId,JosEffigy-All-Keyboard-Mixbox,4a6f7345-6666-4696-9779-2d416c6c2d4b,rev?*%
%TF.SameCoordinates,Original*%
%TF.FileFunction,Drillmap*%
%TF.FilePolarity,Positive*%
%FSLAX45Y45*%
G04 Gerber Fmt 4.5, Leading zero omitted, Abs format (unit mm)*
G04 Created by KiCad (PCBNEW 7.0.5) date 2023-06-07 11:29:59*
%MOMM*%
%LPD*%
G01*
G04 APERTURE LIST*
%ADD10C,0.100000*%
%ADD11C,0.200000*%
%ADD12C,0.040000*%
%ADD13C,0.102000*%
%ADD14C,0.305000*%
G04 APERTURE END LIST*
D10*
X4699000Y-15494000D02*
G75*
G03*
X5207000Y-16002000I508000J0D01*
G01*
X5207000Y-16002000D02*
X22860000Y-16002000D01*
X5207000Y-3683000D02*
G75*
G03*
X4699000Y-4191000I0J-508000D01*
G01*
X22860000Y-16002000D02*
G75*
G03*
X23368000Y-15494000I0J508000D01*
G01*
X4699000Y-4191000D02*
X4699000Y-15494000D01*
X23368000Y-4191000D02*
G75*
G03*
X22860000Y-3683000I-508000J0D01*
G01*
X23368000Y-15494000D02*
X23368000Y-4191000D01*
X22860000Y-3683000D02*
X5207000Y-3683000D01*
D11*
D12*
X5939390Y-7036100D02*
X5979390Y-7076100D01*
X5979390Y-7036100D02*
X5939390Y-7076100D01*
X6144380Y-7036100D02*
X6184380Y-7076100D01*
X6184380Y-7036100D02*
X6144380Y-7076100D01*
X6341450Y-11812580D02*
X6381450Y-11852580D01*
X6381450Y-11812580D02*
X6341450Y-11852580D01*
X6684380Y-6822300D02*
X6724380Y-6862300D01*
X6724380Y-6822300D02*
X6684380Y-6862300D01*
X6891290Y-11304070D02*
X6931290Y-11344070D01*
X6931290Y-11304070D02*
X6891290Y-11344070D01*
X7948770Y-10224670D02*
X7988770Y-10264670D01*
X7988770Y-10224670D02*
X7948770Y-10264670D01*
X8050530Y-6452120D02*
X8090530Y-6492120D01*
X8090530Y-6452120D02*
X8050530Y-6492120D01*
X8246450Y-11812580D02*
X8286450Y-11852580D01*
X8286450Y-11812580D02*
X8246450Y-11852580D01*
X8262730Y-9835810D02*
X8302730Y-9875810D01*
X8302730Y-9835810D02*
X8262730Y-9875810D01*
X8505810Y-10510760D02*
X8545810Y-10550760D01*
X8545810Y-10510760D02*
X8505810Y-10550760D01*
X8749090Y-9349450D02*
X8789090Y-9389450D01*
X8789090Y-9349450D02*
X8749090Y-9389450D01*
X8844540Y-11304070D02*
X8884540Y-11344070D01*
X8884540Y-11304070D02*
X8844540Y-11344070D01*
X9965770Y-6449480D02*
X10005770Y-6489480D01*
X10005770Y-6449480D02*
X9965770Y-6489480D01*
X9965770Y-6819970D02*
X10005770Y-6859970D01*
X10005770Y-6819970D02*
X9965770Y-6859970D01*
X10231930Y-11844860D02*
X10271930Y-11884860D01*
X10271930Y-11844860D02*
X10231930Y-11884860D01*
X10685210Y-11844860D02*
X10725210Y-11884860D01*
X10725210Y-11844860D02*
X10685210Y-11884860D01*
X10890320Y-6580160D02*
X10930320Y-6620160D01*
X10930320Y-6580160D02*
X10890320Y-6620160D01*
X12816910Y-14927060D02*
X12856910Y-14967060D01*
X12856910Y-14927060D02*
X12816910Y-14967060D01*
X13032380Y-15630130D02*
X13072380Y-15670130D01*
X13072380Y-15630130D02*
X13032380Y-15670130D01*
X13293110Y-14927060D02*
X13333110Y-14967060D01*
X13333110Y-14927060D02*
X13293110Y-14967060D01*
X13494530Y-15138730D02*
X13534530Y-15178730D01*
X13534530Y-15138730D02*
X13494530Y-15178730D01*
X13717800Y-6705460D02*
X13757800Y-6745460D01*
X13757800Y-6705460D02*
X13717800Y-6745460D01*
X15857560Y-12294120D02*
X15897560Y-12334120D01*
X15897560Y-12294120D02*
X15857560Y-12334120D01*
X15897560Y-11030470D02*
X15937560Y-11070470D01*
X15937560Y-11030470D02*
X15897560Y-11070470D01*
X16285710Y-11865970D02*
X16325710Y-11905970D01*
X16325710Y-11865970D02*
X16285710Y-11905970D01*
X16701010Y-9105060D02*
X16741010Y-9145060D01*
X16741010Y-9105060D02*
X16701010Y-9145060D01*
X16774520Y-10185020D02*
X16814520Y-10225020D01*
X16814520Y-10185020D02*
X16774520Y-10225020D01*
X17381050Y-9105060D02*
X17421050Y-9145060D01*
X17421050Y-9105060D02*
X17381050Y-9145060D01*
X17762840Y-10185020D02*
X17802840Y-10225020D01*
X17802840Y-10185020D02*
X17762840Y-10225020D01*
X17769040Y-11844860D02*
X17809040Y-11884860D01*
X17809040Y-11844860D02*
X17769040Y-11884860D01*
X17804710Y-10508530D02*
X17844710Y-10548530D01*
X17844710Y-10508530D02*
X17804710Y-10548530D01*
X17998750Y-9663510D02*
X18038750Y-9703510D01*
X18038750Y-9663510D02*
X17998750Y-9703510D01*
X18348200Y-11355390D02*
X18388200Y-11395390D01*
X18388200Y-11355390D02*
X18348200Y-11395390D01*
X19068730Y-7371020D02*
X19108730Y-7411020D01*
X19108730Y-7371020D02*
X19068730Y-7411020D01*
X19322270Y-10321670D02*
X19362270Y-10361670D01*
X19362270Y-10321670D02*
X19322270Y-10361670D01*
X19336130Y-9195320D02*
X19376130Y-9235320D01*
X19376130Y-9195320D02*
X19336130Y-9235320D01*
X19610430Y-10380350D02*
X19650430Y-10420350D01*
X19650430Y-10380350D02*
X19610430Y-10420350D01*
X19674180Y-11739120D02*
X19714180Y-11779120D01*
X19714180Y-11739120D02*
X19674180Y-11779120D01*
X20048420Y-9799300D02*
X20088420Y-9839300D01*
X20088420Y-9799300D02*
X20048420Y-9839300D01*
X20076250Y-11098810D02*
X20116250Y-11138810D01*
X20116250Y-11098810D02*
X20076250Y-11138810D01*
X20079600Y-11333700D02*
X20119600Y-11373700D01*
X20119600Y-11333700D02*
X20079600Y-11373700D01*
X20623520Y-9424340D02*
X20663520Y-9464340D01*
X20663520Y-9424340D02*
X20623520Y-9464340D01*
X20646320Y-11098810D02*
X20686320Y-11138810D01*
X20686320Y-11098810D02*
X20646320Y-11138810D01*
X20877530Y-7371020D02*
X20917530Y-7411020D01*
X20917530Y-7371020D02*
X20877530Y-7411020D01*
X20946380Y-9876570D02*
X20986380Y-9916570D01*
X20986380Y-9876570D02*
X20946380Y-9916570D01*
X21171060Y-6580160D02*
X21211060Y-6620160D01*
X21211060Y-6580160D02*
X21171060Y-6620160D01*
X21171060Y-10618460D02*
X21211060Y-10658460D01*
X21211060Y-10618460D02*
X21171060Y-10658460D01*
X21207650Y-10240910D02*
X21247650Y-10280910D01*
X21247650Y-10240910D02*
X21207650Y-10280910D01*
X21265910Y-9799300D02*
X21305910Y-9839300D01*
X21305910Y-9799300D02*
X21265910Y-9839300D01*
X21434940Y-12193650D02*
X21474940Y-12233650D01*
X21474940Y-12193650D02*
X21434940Y-12233650D01*
X21601020Y-10525380D02*
X21641020Y-10565380D01*
X21641020Y-10525380D02*
X21601020Y-10565380D01*
X21825530Y-10187280D02*
X21865530Y-10227280D01*
X21865530Y-10187280D02*
X21825530Y-10227280D01*
X21984590Y-11853470D02*
X22024590Y-11893470D01*
X22024590Y-11853470D02*
X21984590Y-11893470D01*
X22001780Y-10187280D02*
X22041780Y-10227280D01*
X22041780Y-10187280D02*
X22001780Y-10227280D01*
D13*
X18339000Y-5143500D02*
G75*
G03*
X18339000Y-5143500I-51000J0D01*
G01*
X18339000Y-6921500D02*
G75*
G03*
X18339000Y-6921500I-51000J0D01*
G01*
X18362000Y-5778500D02*
G75*
G03*
X18362000Y-5778500I-51000J0D01*
G01*
X18362000Y-6032500D02*
G75*
G03*
X18362000Y-6032500I-51000J0D01*
G01*
X18362000Y-6286500D02*
G75*
G03*
X18362000Y-6286500I-51000J0D01*
G01*
X18593000Y-5143500D02*
G75*
G03*
X18593000Y-5143500I-51000J0D01*
G01*
X18593000Y-6921500D02*
G75*
G03*
X18593000Y-6921500I-51000J0D01*
G01*
X18847000Y-5143500D02*
G75*
G03*
X18847000Y-5143500I-51000J0D01*
G01*
X18847000Y-6921500D02*
G75*
G03*
X18847000Y-6921500I-51000J0D01*
G01*
X19101000Y-5143500D02*
G75*
G03*
X19101000Y-5143500I-51000J0D01*
G01*
X19101000Y-6921500D02*
G75*
G03*
X19101000Y-6921500I-51000J0D01*
G01*
X19355000Y-5143500D02*
G75*
G03*
X19355000Y-5143500I-51000J0D01*
G01*
X19355000Y-6921500D02*
G75*
G03*
X19355000Y-6921500I-51000J0D01*
G01*
X19609000Y-5143500D02*
G75*
G03*
X19609000Y-5143500I-51000J0D01*
G01*
X19609000Y-6921500D02*
G75*
G03*
X19609000Y-6921500I-51000J0D01*
G01*
X19863000Y-5143500D02*
G75*
G03*
X19863000Y-5143500I-51000J0D01*
G01*
X19863000Y-6921500D02*
G75*
G03*
X19863000Y-6921500I-51000J0D01*
G01*
X20117000Y-5143500D02*
G75*
G03*
X20117000Y-5143500I-51000J0D01*
G01*
X20117000Y-6921500D02*
G75*
G03*
X20117000Y-6921500I-51000J0D01*
G01*
X20371000Y-5143500D02*
G75*
G03*
X20371000Y-5143500I-51000J0D01*
G01*
X20371000Y-6921500D02*
G75*
G03*
X20371000Y-6921500I-51000J0D01*
G01*
X20625000Y-5143500D02*
G75*
G03*
X20625000Y-5143500I-51000J0D01*
G01*
X20625000Y-6921500D02*
G75*
G03*
X20625000Y-6921500I-51000J0D01*
G01*
X20879000Y-5143500D02*
G75*
G03*
X20879000Y-5143500I-51000J0D01*
G01*
X20879000Y-6921500D02*
G75*
G03*
X20879000Y-6921500I-51000J0D01*
G01*
X21133000Y-5143500D02*
G75*
G03*
X21133000Y-5143500I-51000J0D01*
G01*
X21133000Y-6921500D02*
G75*
G03*
X21133000Y-6921500I-51000J0D01*
G01*
X21387000Y-5143500D02*
G75*
G03*
X21387000Y-5143500I-51000J0D01*
G01*
X21387000Y-6921500D02*
G75*
G03*
X21387000Y-6921500I-51000J0D01*
G01*
X21641000Y-5143500D02*
G75*
G03*
X21641000Y-5143500I-51000J0D01*
G01*
X21641000Y-6921500D02*
G75*
G03*
X21641000Y-6921500I-51000J0D01*
G01*
X21895000Y-5143500D02*
G75*
G03*
X21895000Y-5143500I-51000J0D01*
G01*
X21895000Y-6921500D02*
G75*
G03*
X21895000Y-6921500I-51000J0D01*
G01*
X22149000Y-5143500D02*
G75*
G03*
X22149000Y-5143500I-51000J0D01*
G01*
X22149000Y-6921500D02*
G75*
G03*
X22149000Y-6921500I-51000J0D01*
G01*
X22403000Y-5143500D02*
G75*
G03*
X22403000Y-5143500I-51000J0D01*
G01*
X22403000Y-6921500D02*
G75*
G03*
X22403000Y-6921500I-51000J0D01*
G01*
X22657000Y-5143500D02*
G75*
G03*
X22657000Y-5143500I-51000J0D01*
G01*
X22657000Y-6921500D02*
G75*
G03*
X22657000Y-6921500I-51000J0D01*
G01*
X22911000Y-5143500D02*
G75*
G03*
X22911000Y-5143500I-51000J0D01*
G01*
X22911000Y-6921500D02*
G75*
G03*
X22911000Y-6921500I-51000J0D01*
G01*
X23165000Y-5143500D02*
G75*
G03*
X23165000Y-5143500I-51000J0D01*
G01*
X23165000Y-6921500D02*
G75*
G03*
X23165000Y-6921500I-51000J0D01*
G01*
D14*
X6043180Y-10389040D02*
X6043180Y-10694040D01*
X5890680Y-10541540D02*
X6195680Y-10541540D01*
X6048370Y-5721250D02*
X6048370Y-6026250D01*
X5895870Y-5873750D02*
X6200870Y-5873750D01*
X6678180Y-10135040D02*
X6678180Y-10440040D01*
X6525680Y-10287540D02*
X6830680Y-10287540D01*
X6683370Y-5467250D02*
X6683370Y-5772250D01*
X6530870Y-5619750D02*
X6835870Y-5619750D01*
X7953370Y-5721250D02*
X7953370Y-6026250D01*
X7800870Y-5873750D02*
X8105870Y-5873750D01*
X7953380Y-8483500D02*
X7953380Y-8788500D01*
X7800880Y-8636000D02*
X8105880Y-8636000D01*
X7953380Y-10388500D02*
X7953380Y-10693500D01*
X7800880Y-10541000D02*
X8105880Y-10541000D01*
X8588370Y-5467250D02*
X8588370Y-5772250D01*
X8435870Y-5619750D02*
X8740870Y-5619750D01*
X8588380Y-8229500D02*
X8588380Y-8534500D01*
X8435880Y-8382000D02*
X8740880Y-8382000D01*
X8588380Y-10134500D02*
X8588380Y-10439500D01*
X8435880Y-10287000D02*
X8740880Y-10287000D01*
X9853170Y-10389040D02*
X9853170Y-10694040D01*
X9700670Y-10541540D02*
X10005670Y-10541540D01*
X9858370Y-5721250D02*
X9858370Y-6026250D01*
X9705870Y-5873750D02*
X10010870Y-5873750D01*
X10488170Y-10135040D02*
X10488170Y-10440040D01*
X10335670Y-10287540D02*
X10640670Y-10287540D01*
X10493370Y-5467250D02*
X10493370Y-5772250D01*
X10340870Y-5619750D02*
X10645870Y-5619750D01*
X12700000Y-14246120D02*
X12700000Y-14551120D01*
X12547500Y-14398620D02*
X12852500Y-14398620D01*
X13335000Y-13992120D02*
X13335000Y-14297120D01*
X13182500Y-14144620D02*
X13487500Y-14144620D01*
X15478120Y-9055000D02*
X15478120Y-9360000D01*
X15325620Y-9207500D02*
X15630620Y-9207500D01*
X15478120Y-10960000D02*
X15478120Y-11265000D01*
X15325620Y-11112500D02*
X15630620Y-11112500D01*
X16113120Y-8801000D02*
X16113120Y-9106000D01*
X15960620Y-8953500D02*
X16265620Y-8953500D01*
X16113120Y-10706000D02*
X16113120Y-11011000D01*
X15960620Y-10858500D02*
X16265620Y-10858500D01*
X17383120Y-8531120D02*
X17383120Y-8836120D01*
X17230620Y-8683620D02*
X17535620Y-8683620D01*
X17383120Y-10436120D02*
X17383120Y-10741120D01*
X17230620Y-10588620D02*
X17535620Y-10588620D01*
X18018120Y-8277120D02*
X18018120Y-8582120D01*
X17865620Y-8429620D02*
X18170620Y-8429620D01*
X18018120Y-10182120D02*
X18018120Y-10487120D01*
X17865620Y-10334620D02*
X18170620Y-10334620D01*
X19288120Y-8531120D02*
X19288120Y-8836120D01*
X19135620Y-8683620D02*
X19440620Y-8683620D01*
X19288120Y-10436120D02*
X19288120Y-10741120D01*
X19135620Y-10588620D02*
X19440620Y-10588620D01*
X19923120Y-8277120D02*
X19923120Y-8582120D01*
X19770620Y-8429620D02*
X20075620Y-8429620D01*
X19923120Y-10182120D02*
X19923120Y-10487120D01*
X19770620Y-10334620D02*
X20075620Y-10334620D01*
X21193120Y-9055000D02*
X21193120Y-9360000D01*
X21040620Y-9207500D02*
X21345620Y-9207500D01*
X21193120Y-10960000D02*
X21193120Y-11265000D01*
X21040620Y-11112500D02*
X21345620Y-11112500D01*
X21828120Y-8801000D02*
X21828120Y-9106000D01*
X21675620Y-8953500D02*
X21980620Y-8953500D01*
X21828120Y-10706000D02*
X21828120Y-11011000D01*
X21675620Y-10858500D02*
X21980620Y-10858500D01*
D11*
X4954777Y-16318484D02*
X4954777Y-16118484D01*
X4954777Y-16118484D02*
X5002396Y-16118484D01*
X5002396Y-16118484D02*
X5030967Y-16128008D01*
X5030967Y-16128008D02*
X5050015Y-16147055D01*
X5050015Y-16147055D02*
X5059539Y-16166103D01*
X5059539Y-16166103D02*
X5069063Y-16204198D01*
X5069063Y-16204198D02*
X5069063Y-16232769D01*
X5069063Y-16232769D02*
X5059539Y-16270865D01*
X5059539Y-16270865D02*
X5050015Y-16289912D01*
X5050015Y-16289912D02*
X5030967Y-16308960D01*
X5030967Y-16308960D02*
X5002396Y-16318484D01*
X5002396Y-16318484D02*
X4954777Y-16318484D01*
X5154777Y-16318484D02*
X5154777Y-16185150D01*
X5154777Y-16223246D02*
X5164301Y-16204198D01*
X5164301Y-16204198D02*
X5173824Y-16194674D01*
X5173824Y-16194674D02*
X5192872Y-16185150D01*
X5192872Y-16185150D02*
X5211920Y-16185150D01*
X5278586Y-16318484D02*
X5278586Y-16185150D01*
X5278586Y-16118484D02*
X5269063Y-16128008D01*
X5269063Y-16128008D02*
X5278586Y-16137531D01*
X5278586Y-16137531D02*
X5288110Y-16128008D01*
X5288110Y-16128008D02*
X5278586Y-16118484D01*
X5278586Y-16118484D02*
X5278586Y-16137531D01*
X5402396Y-16318484D02*
X5383348Y-16308960D01*
X5383348Y-16308960D02*
X5373824Y-16289912D01*
X5373824Y-16289912D02*
X5373824Y-16118484D01*
X5507158Y-16318484D02*
X5488110Y-16308960D01*
X5488110Y-16308960D02*
X5478586Y-16289912D01*
X5478586Y-16289912D02*
X5478586Y-16118484D01*
X5735729Y-16318484D02*
X5735729Y-16118484D01*
X5735729Y-16118484D02*
X5802396Y-16261341D01*
X5802396Y-16261341D02*
X5869062Y-16118484D01*
X5869062Y-16118484D02*
X5869062Y-16318484D01*
X6050015Y-16318484D02*
X6050015Y-16213722D01*
X6050015Y-16213722D02*
X6040491Y-16194674D01*
X6040491Y-16194674D02*
X6021443Y-16185150D01*
X6021443Y-16185150D02*
X5983348Y-16185150D01*
X5983348Y-16185150D02*
X5964301Y-16194674D01*
X6050015Y-16308960D02*
X6030967Y-16318484D01*
X6030967Y-16318484D02*
X5983348Y-16318484D01*
X5983348Y-16318484D02*
X5964301Y-16308960D01*
X5964301Y-16308960D02*
X5954777Y-16289912D01*
X5954777Y-16289912D02*
X5954777Y-16270865D01*
X5954777Y-16270865D02*
X5964301Y-16251817D01*
X5964301Y-16251817D02*
X5983348Y-16242293D01*
X5983348Y-16242293D02*
X6030967Y-16242293D01*
X6030967Y-16242293D02*
X6050015Y-16232769D01*
X6145253Y-16185150D02*
X6145253Y-16385150D01*
X6145253Y-16194674D02*
X6164301Y-16185150D01*
X6164301Y-16185150D02*
X6202396Y-16185150D01*
X6202396Y-16185150D02*
X6221443Y-16194674D01*
X6221443Y-16194674D02*
X6230967Y-16204198D01*
X6230967Y-16204198D02*
X6240491Y-16223246D01*
X6240491Y-16223246D02*
X6240491Y-16280388D01*
X6240491Y-16280388D02*
X6230967Y-16299436D01*
X6230967Y-16299436D02*
X6221443Y-16308960D01*
X6221443Y-16308960D02*
X6202396Y-16318484D01*
X6202396Y-16318484D02*
X6164301Y-16318484D01*
X6164301Y-16318484D02*
X6145253Y-16308960D01*
X6326205Y-16299436D02*
X6335729Y-16308960D01*
X6335729Y-16308960D02*
X6326205Y-16318484D01*
X6326205Y-16318484D02*
X6316682Y-16308960D01*
X6316682Y-16308960D02*
X6326205Y-16299436D01*
X6326205Y-16299436D02*
X6326205Y-16318484D01*
X6326205Y-16194674D02*
X6335729Y-16204198D01*
X6335729Y-16204198D02*
X6326205Y-16213722D01*
X6326205Y-16213722D02*
X6316682Y-16204198D01*
X6316682Y-16204198D02*
X6326205Y-16194674D01*
X6326205Y-16194674D02*
X6326205Y-16213722D01*
D12*
X4654000Y-16627000D02*
X4694000Y-16667000D01*
X4694000Y-16627000D02*
X4654000Y-16667000D01*
D11*
X4992872Y-16538484D02*
X5011920Y-16538484D01*
X5011920Y-16538484D02*
X5030967Y-16548008D01*
X5030967Y-16548008D02*
X5040491Y-16557531D01*
X5040491Y-16557531D02*
X5050015Y-16576579D01*
X5050015Y-16576579D02*
X5059539Y-16614674D01*
X5059539Y-16614674D02*
X5059539Y-16662293D01*
X5059539Y-16662293D02*
X5050015Y-16700388D01*
X5050015Y-16700388D02*
X5040491Y-16719436D01*
X5040491Y-16719436D02*
X5030967Y-16728960D01*
X5030967Y-16728960D02*
X5011920Y-16738484D01*
X5011920Y-16738484D02*
X4992872Y-16738484D01*
X4992872Y-16738484D02*
X4973824Y-16728960D01*
X4973824Y-16728960D02*
X4964301Y-16719436D01*
X4964301Y-16719436D02*
X4954777Y-16700388D01*
X4954777Y-16700388D02*
X4945253Y-16662293D01*
X4945253Y-16662293D02*
X4945253Y-16614674D01*
X4945253Y-16614674D02*
X4954777Y-16576579D01*
X4954777Y-16576579D02*
X4964301Y-16557531D01*
X4964301Y-16557531D02*
X4973824Y-16548008D01*
X4973824Y-16548008D02*
X4992872Y-16538484D01*
X5145253Y-16719436D02*
X5154777Y-16728960D01*
X5154777Y-16728960D02*
X5145253Y-16738484D01*
X5145253Y-16738484D02*
X5135729Y-16728960D01*
X5135729Y-16728960D02*
X5145253Y-16719436D01*
X5145253Y-16719436D02*
X5145253Y-16738484D01*
X5326205Y-16605150D02*
X5326205Y-16738484D01*
X5278586Y-16528960D02*
X5230967Y-16671817D01*
X5230967Y-16671817D02*
X5354777Y-16671817D01*
X5469063Y-16538484D02*
X5488110Y-16538484D01*
X5488110Y-16538484D02*
X5507158Y-16548008D01*
X5507158Y-16548008D02*
X5516682Y-16557531D01*
X5516682Y-16557531D02*
X5526205Y-16576579D01*
X5526205Y-16576579D02*
X5535729Y-16614674D01*
X5535729Y-16614674D02*
X5535729Y-16662293D01*
X5535729Y-16662293D02*
X5526205Y-16700388D01*
X5526205Y-16700388D02*
X5516682Y-16719436D01*
X5516682Y-16719436D02*
X5507158Y-16728960D01*
X5507158Y-16728960D02*
X5488110Y-16738484D01*
X5488110Y-16738484D02*
X5469063Y-16738484D01*
X5469063Y-16738484D02*
X5450015Y-16728960D01*
X5450015Y-16728960D02*
X5440491Y-16719436D01*
X5440491Y-16719436D02*
X5430967Y-16700388D01*
X5430967Y-16700388D02*
X5421444Y-16662293D01*
X5421444Y-16662293D02*
X5421444Y-16614674D01*
X5421444Y-16614674D02*
X5430967Y-16576579D01*
X5430967Y-16576579D02*
X5440491Y-16557531D01*
X5440491Y-16557531D02*
X5450015Y-16548008D01*
X5450015Y-16548008D02*
X5469063Y-16538484D01*
X5659539Y-16538484D02*
X5678586Y-16538484D01*
X5678586Y-16538484D02*
X5697634Y-16548008D01*
X5697634Y-16548008D02*
X5707158Y-16557531D01*
X5707158Y-16557531D02*
X5716682Y-16576579D01*
X5716682Y-16576579D02*
X5726205Y-16614674D01*
X5726205Y-16614674D02*
X5726205Y-16662293D01*
X5726205Y-16662293D02*
X5716682Y-16700388D01*
X5716682Y-16700388D02*
X5707158Y-16719436D01*
X5707158Y-16719436D02*
X5697634Y-16728960D01*
X5697634Y-16728960D02*
X5678586Y-16738484D01*
X5678586Y-16738484D02*
X5659539Y-16738484D01*
X5659539Y-16738484D02*
X5640491Y-16728960D01*
X5640491Y-16728960D02*
X5630967Y-16719436D01*
X5630967Y-16719436D02*
X5621443Y-16700388D01*
X5621443Y-16700388D02*
X5611920Y-16662293D01*
X5611920Y-16662293D02*
X5611920Y-16614674D01*
X5611920Y-16614674D02*
X5621443Y-16576579D01*
X5621443Y-16576579D02*
X5630967Y-16557531D01*
X5630967Y-16557531D02*
X5640491Y-16548008D01*
X5640491Y-16548008D02*
X5659539Y-16538484D01*
X5811920Y-16738484D02*
X5811920Y-16605150D01*
X5811920Y-16624198D02*
X5821443Y-16614674D01*
X5821443Y-16614674D02*
X5840491Y-16605150D01*
X5840491Y-16605150D02*
X5869063Y-16605150D01*
X5869063Y-16605150D02*
X5888110Y-16614674D01*
X5888110Y-16614674D02*
X5897634Y-16633722D01*
X5897634Y-16633722D02*
X5897634Y-16738484D01*
X5897634Y-16633722D02*
X5907158Y-16614674D01*
X5907158Y-16614674D02*
X5926205Y-16605150D01*
X5926205Y-16605150D02*
X5954777Y-16605150D01*
X5954777Y-16605150D02*
X5973824Y-16614674D01*
X5973824Y-16614674D02*
X5983348Y-16633722D01*
X5983348Y-16633722D02*
X5983348Y-16738484D01*
X6078586Y-16738484D02*
X6078586Y-16605150D01*
X6078586Y-16624198D02*
X6088110Y-16614674D01*
X6088110Y-16614674D02*
X6107158Y-16605150D01*
X6107158Y-16605150D02*
X6135729Y-16605150D01*
X6135729Y-16605150D02*
X6154777Y-16614674D01*
X6154777Y-16614674D02*
X6164301Y-16633722D01*
X6164301Y-16633722D02*
X6164301Y-16738484D01*
X6164301Y-16633722D02*
X6173824Y-16614674D01*
X6173824Y-16614674D02*
X6192872Y-16605150D01*
X6192872Y-16605150D02*
X6221443Y-16605150D01*
X6221443Y-16605150D02*
X6240491Y-16614674D01*
X6240491Y-16614674D02*
X6250015Y-16633722D01*
X6250015Y-16633722D02*
X6250015Y-16738484D01*
X6640491Y-16528960D02*
X6469063Y-16786103D01*
X6897634Y-16538484D02*
X6916682Y-16538484D01*
X6916682Y-16538484D02*
X6935729Y-16548008D01*
X6935729Y-16548008D02*
X6945253Y-16557531D01*
X6945253Y-16557531D02*
X6954777Y-16576579D01*
X6954777Y-16576579D02*
X6964301Y-16614674D01*
X6964301Y-16614674D02*
X6964301Y-16662293D01*
X6964301Y-16662293D02*
X6954777Y-16700388D01*
X6954777Y-16700388D02*
X6945253Y-16719436D01*
X6945253Y-16719436D02*
X6935729Y-16728960D01*
X6935729Y-16728960D02*
X6916682Y-16738484D01*
X6916682Y-16738484D02*
X6897634Y-16738484D01*
X6897634Y-16738484D02*
X6878586Y-16728960D01*
X6878586Y-16728960D02*
X6869063Y-16719436D01*
X6869063Y-16719436D02*
X6859539Y-16700388D01*
X6859539Y-16700388D02*
X6850015Y-16662293D01*
X6850015Y-16662293D02*
X6850015Y-16614674D01*
X6850015Y-16614674D02*
X6859539Y-16576579D01*
X6859539Y-16576579D02*
X6869063Y-16557531D01*
X6869063Y-16557531D02*
X6878586Y-16548008D01*
X6878586Y-16548008D02*
X6897634Y-16538484D01*
X7050015Y-16719436D02*
X7059539Y-16728960D01*
X7059539Y-16728960D02*
X7050015Y-16738484D01*
X7050015Y-16738484D02*
X7040491Y-16728960D01*
X7040491Y-16728960D02*
X7050015Y-16719436D01*
X7050015Y-16719436D02*
X7050015Y-16738484D01*
X7183348Y-16538484D02*
X7202396Y-16538484D01*
X7202396Y-16538484D02*
X7221444Y-16548008D01*
X7221444Y-16548008D02*
X7230967Y-16557531D01*
X7230967Y-16557531D02*
X7240491Y-16576579D01*
X7240491Y-16576579D02*
X7250015Y-16614674D01*
X7250015Y-16614674D02*
X7250015Y-16662293D01*
X7250015Y-16662293D02*
X7240491Y-16700388D01*
X7240491Y-16700388D02*
X7230967Y-16719436D01*
X7230967Y-16719436D02*
X7221444Y-16728960D01*
X7221444Y-16728960D02*
X7202396Y-16738484D01*
X7202396Y-16738484D02*
X7183348Y-16738484D01*
X7183348Y-16738484D02*
X7164301Y-16728960D01*
X7164301Y-16728960D02*
X7154777Y-16719436D01*
X7154777Y-16719436D02*
X7145253Y-16700388D01*
X7145253Y-16700388D02*
X7135729Y-16662293D01*
X7135729Y-16662293D02*
X7135729Y-16614674D01*
X7135729Y-16614674D02*
X7145253Y-16576579D01*
X7145253Y-16576579D02*
X7154777Y-16557531D01*
X7154777Y-16557531D02*
X7164301Y-16548008D01*
X7164301Y-16548008D02*
X7183348Y-16538484D01*
X7440491Y-16738484D02*
X7326206Y-16738484D01*
X7383348Y-16738484D02*
X7383348Y-16538484D01*
X7383348Y-16538484D02*
X7364301Y-16567055D01*
X7364301Y-16567055D02*
X7345253Y-16586103D01*
X7345253Y-16586103D02*
X7326206Y-16595627D01*
X7621444Y-16538484D02*
X7526206Y-16538484D01*
X7526206Y-16538484D02*
X7516682Y-16633722D01*
X7516682Y-16633722D02*
X7526206Y-16624198D01*
X7526206Y-16624198D02*
X7545253Y-16614674D01*
X7545253Y-16614674D02*
X7592872Y-16614674D01*
X7592872Y-16614674D02*
X7611920Y-16624198D01*
X7611920Y-16624198D02*
X7621444Y-16633722D01*
X7621444Y-16633722D02*
X7630967Y-16652769D01*
X7630967Y-16652769D02*
X7630967Y-16700388D01*
X7630967Y-16700388D02*
X7621444Y-16719436D01*
X7621444Y-16719436D02*
X7611920Y-16728960D01*
X7611920Y-16728960D02*
X7592872Y-16738484D01*
X7592872Y-16738484D02*
X7545253Y-16738484D01*
X7545253Y-16738484D02*
X7526206Y-16728960D01*
X7526206Y-16728960D02*
X7516682Y-16719436D01*
X7697634Y-16538484D02*
X7830967Y-16538484D01*
X7830967Y-16538484D02*
X7745253Y-16738484D01*
X7897634Y-16538484D02*
X7897634Y-16576579D01*
X7973825Y-16538484D02*
X7973825Y-16576579D01*
X8269063Y-16814674D02*
X8259539Y-16805150D01*
X8259539Y-16805150D02*
X8240491Y-16776579D01*
X8240491Y-16776579D02*
X8230968Y-16757531D01*
X8230968Y-16757531D02*
X8221444Y-16728960D01*
X8221444Y-16728960D02*
X8211920Y-16681341D01*
X8211920Y-16681341D02*
X8211920Y-16643246D01*
X8211920Y-16643246D02*
X8221444Y-16595627D01*
X8221444Y-16595627D02*
X8230968Y-16567055D01*
X8230968Y-16567055D02*
X8240491Y-16548008D01*
X8240491Y-16548008D02*
X8259539Y-16519436D01*
X8259539Y-16519436D02*
X8269063Y-16509912D01*
X8440491Y-16538484D02*
X8345253Y-16538484D01*
X8345253Y-16538484D02*
X8335729Y-16633722D01*
X8335729Y-16633722D02*
X8345253Y-16624198D01*
X8345253Y-16624198D02*
X8364301Y-16614674D01*
X8364301Y-16614674D02*
X8411920Y-16614674D01*
X8411920Y-16614674D02*
X8430968Y-16624198D01*
X8430968Y-16624198D02*
X8440491Y-16633722D01*
X8440491Y-16633722D02*
X8450015Y-16652769D01*
X8450015Y-16652769D02*
X8450015Y-16700388D01*
X8450015Y-16700388D02*
X8440491Y-16719436D01*
X8440491Y-16719436D02*
X8430968Y-16728960D01*
X8430968Y-16728960D02*
X8411920Y-16738484D01*
X8411920Y-16738484D02*
X8364301Y-16738484D01*
X8364301Y-16738484D02*
X8345253Y-16728960D01*
X8345253Y-16728960D02*
X8335729Y-16719436D01*
X8621444Y-16605150D02*
X8621444Y-16738484D01*
X8573825Y-16528960D02*
X8526206Y-16671817D01*
X8526206Y-16671817D02*
X8650015Y-16671817D01*
X8878587Y-16738484D02*
X8878587Y-16538484D01*
X8964301Y-16738484D02*
X8964301Y-16633722D01*
X8964301Y-16633722D02*
X8954777Y-16614674D01*
X8954777Y-16614674D02*
X8935730Y-16605150D01*
X8935730Y-16605150D02*
X8907158Y-16605150D01*
X8907158Y-16605150D02*
X8888111Y-16614674D01*
X8888111Y-16614674D02*
X8878587Y-16624198D01*
X9088111Y-16738484D02*
X9069063Y-16728960D01*
X9069063Y-16728960D02*
X9059539Y-16719436D01*
X9059539Y-16719436D02*
X9050015Y-16700388D01*
X9050015Y-16700388D02*
X9050015Y-16643246D01*
X9050015Y-16643246D02*
X9059539Y-16624198D01*
X9059539Y-16624198D02*
X9069063Y-16614674D01*
X9069063Y-16614674D02*
X9088111Y-16605150D01*
X9088111Y-16605150D02*
X9116682Y-16605150D01*
X9116682Y-16605150D02*
X9135730Y-16614674D01*
X9135730Y-16614674D02*
X9145253Y-16624198D01*
X9145253Y-16624198D02*
X9154777Y-16643246D01*
X9154777Y-16643246D02*
X9154777Y-16700388D01*
X9154777Y-16700388D02*
X9145253Y-16719436D01*
X9145253Y-16719436D02*
X9135730Y-16728960D01*
X9135730Y-16728960D02*
X9116682Y-16738484D01*
X9116682Y-16738484D02*
X9088111Y-16738484D01*
X9269063Y-16738484D02*
X9250015Y-16728960D01*
X9250015Y-16728960D02*
X9240492Y-16709912D01*
X9240492Y-16709912D02*
X9240492Y-16538484D01*
X9421444Y-16728960D02*
X9402396Y-16738484D01*
X9402396Y-16738484D02*
X9364301Y-16738484D01*
X9364301Y-16738484D02*
X9345253Y-16728960D01*
X9345253Y-16728960D02*
X9335730Y-16709912D01*
X9335730Y-16709912D02*
X9335730Y-16633722D01*
X9335730Y-16633722D02*
X9345253Y-16614674D01*
X9345253Y-16614674D02*
X9364301Y-16605150D01*
X9364301Y-16605150D02*
X9402396Y-16605150D01*
X9402396Y-16605150D02*
X9421444Y-16614674D01*
X9421444Y-16614674D02*
X9430968Y-16633722D01*
X9430968Y-16633722D02*
X9430968Y-16652769D01*
X9430968Y-16652769D02*
X9335730Y-16671817D01*
X9507158Y-16728960D02*
X9526206Y-16738484D01*
X9526206Y-16738484D02*
X9564301Y-16738484D01*
X9564301Y-16738484D02*
X9583349Y-16728960D01*
X9583349Y-16728960D02*
X9592873Y-16709912D01*
X9592873Y-16709912D02*
X9592873Y-16700388D01*
X9592873Y-16700388D02*
X9583349Y-16681341D01*
X9583349Y-16681341D02*
X9564301Y-16671817D01*
X9564301Y-16671817D02*
X9535730Y-16671817D01*
X9535730Y-16671817D02*
X9516682Y-16662293D01*
X9516682Y-16662293D02*
X9507158Y-16643246D01*
X9507158Y-16643246D02*
X9507158Y-16633722D01*
X9507158Y-16633722D02*
X9516682Y-16614674D01*
X9516682Y-16614674D02*
X9535730Y-16605150D01*
X9535730Y-16605150D02*
X9564301Y-16605150D01*
X9564301Y-16605150D02*
X9583349Y-16614674D01*
X9659539Y-16814674D02*
X9669063Y-16805150D01*
X9669063Y-16805150D02*
X9688111Y-16776579D01*
X9688111Y-16776579D02*
X9697634Y-16757531D01*
X9697634Y-16757531D02*
X9707158Y-16728960D01*
X9707158Y-16728960D02*
X9716682Y-16681341D01*
X9716682Y-16681341D02*
X9716682Y-16643246D01*
X9716682Y-16643246D02*
X9707158Y-16595627D01*
X9707158Y-16595627D02*
X9697634Y-16567055D01*
X9697634Y-16567055D02*
X9688111Y-16548008D01*
X9688111Y-16548008D02*
X9669063Y-16519436D01*
X9669063Y-16519436D02*
X9659539Y-16509912D01*
D13*
X4694000Y-16911000D02*
G75*
G03*
X4694000Y-16911000I-51000J0D01*
G01*
D11*
X5059539Y-17002484D02*
X4945253Y-17002484D01*
X5002396Y-17002484D02*
X5002396Y-16802484D01*
X5002396Y-16802484D02*
X4983348Y-16831055D01*
X4983348Y-16831055D02*
X4964301Y-16850103D01*
X4964301Y-16850103D02*
X4945253Y-16859627D01*
X5145253Y-16983436D02*
X5154777Y-16992960D01*
X5154777Y-16992960D02*
X5145253Y-17002484D01*
X5145253Y-17002484D02*
X5135729Y-16992960D01*
X5135729Y-16992960D02*
X5145253Y-16983436D01*
X5145253Y-16983436D02*
X5145253Y-17002484D01*
X5278586Y-16802484D02*
X5297634Y-16802484D01*
X5297634Y-16802484D02*
X5316682Y-16812008D01*
X5316682Y-16812008D02*
X5326205Y-16821531D01*
X5326205Y-16821531D02*
X5335729Y-16840579D01*
X5335729Y-16840579D02*
X5345253Y-16878674D01*
X5345253Y-16878674D02*
X5345253Y-16926293D01*
X5345253Y-16926293D02*
X5335729Y-16964389D01*
X5335729Y-16964389D02*
X5326205Y-16983436D01*
X5326205Y-16983436D02*
X5316682Y-16992960D01*
X5316682Y-16992960D02*
X5297634Y-17002484D01*
X5297634Y-17002484D02*
X5278586Y-17002484D01*
X5278586Y-17002484D02*
X5259539Y-16992960D01*
X5259539Y-16992960D02*
X5250015Y-16983436D01*
X5250015Y-16983436D02*
X5240491Y-16964389D01*
X5240491Y-16964389D02*
X5230967Y-16926293D01*
X5230967Y-16926293D02*
X5230967Y-16878674D01*
X5230967Y-16878674D02*
X5240491Y-16840579D01*
X5240491Y-16840579D02*
X5250015Y-16821531D01*
X5250015Y-16821531D02*
X5259539Y-16812008D01*
X5259539Y-16812008D02*
X5278586Y-16802484D01*
X5421444Y-16821531D02*
X5430967Y-16812008D01*
X5430967Y-16812008D02*
X5450015Y-16802484D01*
X5450015Y-16802484D02*
X5497634Y-16802484D01*
X5497634Y-16802484D02*
X5516682Y-16812008D01*
X5516682Y-16812008D02*
X5526205Y-16821531D01*
X5526205Y-16821531D02*
X5535729Y-16840579D01*
X5535729Y-16840579D02*
X5535729Y-16859627D01*
X5535729Y-16859627D02*
X5526205Y-16888198D01*
X5526205Y-16888198D02*
X5411920Y-17002484D01*
X5411920Y-17002484D02*
X5535729Y-17002484D01*
X5659539Y-16802484D02*
X5678586Y-16802484D01*
X5678586Y-16802484D02*
X5697634Y-16812008D01*
X5697634Y-16812008D02*
X5707158Y-16821531D01*
X5707158Y-16821531D02*
X5716682Y-16840579D01*
X5716682Y-16840579D02*
X5726205Y-16878674D01*
X5726205Y-16878674D02*
X5726205Y-16926293D01*
X5726205Y-16926293D02*
X5716682Y-16964389D01*
X5716682Y-16964389D02*
X5707158Y-16983436D01*
X5707158Y-16983436D02*
X5697634Y-16992960D01*
X5697634Y-16992960D02*
X5678586Y-17002484D01*
X5678586Y-17002484D02*
X5659539Y-17002484D01*
X5659539Y-17002484D02*
X5640491Y-16992960D01*
X5640491Y-16992960D02*
X5630967Y-16983436D01*
X5630967Y-16983436D02*
X5621443Y-16964389D01*
X5621443Y-16964389D02*
X5611920Y-16926293D01*
X5611920Y-16926293D02*
X5611920Y-16878674D01*
X5611920Y-16878674D02*
X5621443Y-16840579D01*
X5621443Y-16840579D02*
X5630967Y-16821531D01*
X5630967Y-16821531D02*
X5640491Y-16812008D01*
X5640491Y-16812008D02*
X5659539Y-16802484D01*
X5811920Y-17002484D02*
X5811920Y-16869150D01*
X5811920Y-16888198D02*
X5821443Y-16878674D01*
X5821443Y-16878674D02*
X5840491Y-16869150D01*
X5840491Y-16869150D02*
X5869063Y-16869150D01*
X5869063Y-16869150D02*
X5888110Y-16878674D01*
X5888110Y-16878674D02*
X5897634Y-16897722D01*
X5897634Y-16897722D02*
X5897634Y-17002484D01*
X5897634Y-16897722D02*
X5907158Y-16878674D01*
X5907158Y-16878674D02*
X5926205Y-16869150D01*
X5926205Y-16869150D02*
X5954777Y-16869150D01*
X5954777Y-16869150D02*
X5973824Y-16878674D01*
X5973824Y-16878674D02*
X5983348Y-16897722D01*
X5983348Y-16897722D02*
X5983348Y-17002484D01*
X6078586Y-17002484D02*
X6078586Y-16869150D01*
X6078586Y-16888198D02*
X6088110Y-16878674D01*
X6088110Y-16878674D02*
X6107158Y-16869150D01*
X6107158Y-16869150D02*
X6135729Y-16869150D01*
X6135729Y-16869150D02*
X6154777Y-16878674D01*
X6154777Y-16878674D02*
X6164301Y-16897722D01*
X6164301Y-16897722D02*
X6164301Y-17002484D01*
X6164301Y-16897722D02*
X6173824Y-16878674D01*
X6173824Y-16878674D02*
X6192872Y-16869150D01*
X6192872Y-16869150D02*
X6221443Y-16869150D01*
X6221443Y-16869150D02*
X6240491Y-16878674D01*
X6240491Y-16878674D02*
X6250015Y-16897722D01*
X6250015Y-16897722D02*
X6250015Y-17002484D01*
X6640491Y-16792960D02*
X6469063Y-17050103D01*
X6897634Y-16802484D02*
X6916682Y-16802484D01*
X6916682Y-16802484D02*
X6935729Y-16812008D01*
X6935729Y-16812008D02*
X6945253Y-16821531D01*
X6945253Y-16821531D02*
X6954777Y-16840579D01*
X6954777Y-16840579D02*
X6964301Y-16878674D01*
X6964301Y-16878674D02*
X6964301Y-16926293D01*
X6964301Y-16926293D02*
X6954777Y-16964389D01*
X6954777Y-16964389D02*
X6945253Y-16983436D01*
X6945253Y-16983436D02*
X6935729Y-16992960D01*
X6935729Y-16992960D02*
X6916682Y-17002484D01*
X6916682Y-17002484D02*
X6897634Y-17002484D01*
X6897634Y-17002484D02*
X6878586Y-16992960D01*
X6878586Y-16992960D02*
X6869063Y-16983436D01*
X6869063Y-16983436D02*
X6859539Y-16964389D01*
X6859539Y-16964389D02*
X6850015Y-16926293D01*
X6850015Y-16926293D02*
X6850015Y-16878674D01*
X6850015Y-16878674D02*
X6859539Y-16840579D01*
X6859539Y-16840579D02*
X6869063Y-16821531D01*
X6869063Y-16821531D02*
X6878586Y-16812008D01*
X6878586Y-16812008D02*
X6897634Y-16802484D01*
X7050015Y-16983436D02*
X7059539Y-16992960D01*
X7059539Y-16992960D02*
X7050015Y-17002484D01*
X7050015Y-17002484D02*
X7040491Y-16992960D01*
X7040491Y-16992960D02*
X7050015Y-16983436D01*
X7050015Y-16983436D02*
X7050015Y-17002484D01*
X7183348Y-16802484D02*
X7202396Y-16802484D01*
X7202396Y-16802484D02*
X7221444Y-16812008D01*
X7221444Y-16812008D02*
X7230967Y-16821531D01*
X7230967Y-16821531D02*
X7240491Y-16840579D01*
X7240491Y-16840579D02*
X7250015Y-16878674D01*
X7250015Y-16878674D02*
X7250015Y-16926293D01*
X7250015Y-16926293D02*
X7240491Y-16964389D01*
X7240491Y-16964389D02*
X7230967Y-16983436D01*
X7230967Y-16983436D02*
X7221444Y-16992960D01*
X7221444Y-16992960D02*
X7202396Y-17002484D01*
X7202396Y-17002484D02*
X7183348Y-17002484D01*
X7183348Y-17002484D02*
X7164301Y-16992960D01*
X7164301Y-16992960D02*
X7154777Y-16983436D01*
X7154777Y-16983436D02*
X7145253Y-16964389D01*
X7145253Y-16964389D02*
X7135729Y-16926293D01*
X7135729Y-16926293D02*
X7135729Y-16878674D01*
X7135729Y-16878674D02*
X7145253Y-16840579D01*
X7145253Y-16840579D02*
X7154777Y-16821531D01*
X7154777Y-16821531D02*
X7164301Y-16812008D01*
X7164301Y-16812008D02*
X7183348Y-16802484D01*
X7421444Y-16869150D02*
X7421444Y-17002484D01*
X7373825Y-16792960D02*
X7326206Y-16935817D01*
X7326206Y-16935817D02*
X7450015Y-16935817D01*
X7564301Y-16802484D02*
X7583348Y-16802484D01*
X7583348Y-16802484D02*
X7602396Y-16812008D01*
X7602396Y-16812008D02*
X7611920Y-16821531D01*
X7611920Y-16821531D02*
X7621444Y-16840579D01*
X7621444Y-16840579D02*
X7630967Y-16878674D01*
X7630967Y-16878674D02*
X7630967Y-16926293D01*
X7630967Y-16926293D02*
X7621444Y-16964389D01*
X7621444Y-16964389D02*
X7611920Y-16983436D01*
X7611920Y-16983436D02*
X7602396Y-16992960D01*
X7602396Y-16992960D02*
X7583348Y-17002484D01*
X7583348Y-17002484D02*
X7564301Y-17002484D01*
X7564301Y-17002484D02*
X7545253Y-16992960D01*
X7545253Y-16992960D02*
X7535729Y-16983436D01*
X7535729Y-16983436D02*
X7526206Y-16964389D01*
X7526206Y-16964389D02*
X7516682Y-16926293D01*
X7516682Y-16926293D02*
X7516682Y-16878674D01*
X7516682Y-16878674D02*
X7526206Y-16840579D01*
X7526206Y-16840579D02*
X7535729Y-16821531D01*
X7535729Y-16821531D02*
X7545253Y-16812008D01*
X7545253Y-16812008D02*
X7564301Y-16802484D01*
X7707158Y-16821531D02*
X7716682Y-16812008D01*
X7716682Y-16812008D02*
X7735729Y-16802484D01*
X7735729Y-16802484D02*
X7783348Y-16802484D01*
X7783348Y-16802484D02*
X7802396Y-16812008D01*
X7802396Y-16812008D02*
X7811920Y-16821531D01*
X7811920Y-16821531D02*
X7821444Y-16840579D01*
X7821444Y-16840579D02*
X7821444Y-16859627D01*
X7821444Y-16859627D02*
X7811920Y-16888198D01*
X7811920Y-16888198D02*
X7697634Y-17002484D01*
X7697634Y-17002484D02*
X7821444Y-17002484D01*
X7897634Y-16802484D02*
X7897634Y-16840579D01*
X7973825Y-16802484D02*
X7973825Y-16840579D01*
X8269063Y-17078674D02*
X8259539Y-17069150D01*
X8259539Y-17069150D02*
X8240491Y-17040579D01*
X8240491Y-17040579D02*
X8230968Y-17021531D01*
X8230968Y-17021531D02*
X8221444Y-16992960D01*
X8221444Y-16992960D02*
X8211920Y-16945341D01*
X8211920Y-16945341D02*
X8211920Y-16907246D01*
X8211920Y-16907246D02*
X8221444Y-16859627D01*
X8221444Y-16859627D02*
X8230968Y-16831055D01*
X8230968Y-16831055D02*
X8240491Y-16812008D01*
X8240491Y-16812008D02*
X8259539Y-16783436D01*
X8259539Y-16783436D02*
X8269063Y-16773912D01*
X8430968Y-16869150D02*
X8430968Y-17002484D01*
X8383348Y-16792960D02*
X8335729Y-16935817D01*
X8335729Y-16935817D02*
X8459539Y-16935817D01*
X8516682Y-16802484D02*
X8640491Y-16802484D01*
X8640491Y-16802484D02*
X8573825Y-16878674D01*
X8573825Y-16878674D02*
X8602396Y-16878674D01*
X8602396Y-16878674D02*
X8621444Y-16888198D01*
X8621444Y-16888198D02*
X8630968Y-16897722D01*
X8630968Y-16897722D02*
X8640491Y-16916770D01*
X8640491Y-16916770D02*
X8640491Y-16964389D01*
X8640491Y-16964389D02*
X8630968Y-16983436D01*
X8630968Y-16983436D02*
X8621444Y-16992960D01*
X8621444Y-16992960D02*
X8602396Y-17002484D01*
X8602396Y-17002484D02*
X8545253Y-17002484D01*
X8545253Y-17002484D02*
X8526206Y-16992960D01*
X8526206Y-16992960D02*
X8516682Y-16983436D01*
X8878587Y-17002484D02*
X8878587Y-16802484D01*
X8964301Y-17002484D02*
X8964301Y-16897722D01*
X8964301Y-16897722D02*
X8954777Y-16878674D01*
X8954777Y-16878674D02*
X8935730Y-16869150D01*
X8935730Y-16869150D02*
X8907158Y-16869150D01*
X8907158Y-16869150D02*
X8888111Y-16878674D01*
X8888111Y-16878674D02*
X8878587Y-16888198D01*
X9088111Y-17002484D02*
X9069063Y-16992960D01*
X9069063Y-16992960D02*
X9059539Y-16983436D01*
X9059539Y-16983436D02*
X9050015Y-16964389D01*
X9050015Y-16964389D02*
X9050015Y-16907246D01*
X9050015Y-16907246D02*
X9059539Y-16888198D01*
X9059539Y-16888198D02*
X9069063Y-16878674D01*
X9069063Y-16878674D02*
X9088111Y-16869150D01*
X9088111Y-16869150D02*
X9116682Y-16869150D01*
X9116682Y-16869150D02*
X9135730Y-16878674D01*
X9135730Y-16878674D02*
X9145253Y-16888198D01*
X9145253Y-16888198D02*
X9154777Y-16907246D01*
X9154777Y-16907246D02*
X9154777Y-16964389D01*
X9154777Y-16964389D02*
X9145253Y-16983436D01*
X9145253Y-16983436D02*
X9135730Y-16992960D01*
X9135730Y-16992960D02*
X9116682Y-17002484D01*
X9116682Y-17002484D02*
X9088111Y-17002484D01*
X9269063Y-17002484D02*
X9250015Y-16992960D01*
X9250015Y-16992960D02*
X9240492Y-16973912D01*
X9240492Y-16973912D02*
X9240492Y-16802484D01*
X9421444Y-16992960D02*
X9402396Y-17002484D01*
X9402396Y-17002484D02*
X9364301Y-17002484D01*
X9364301Y-17002484D02*
X9345253Y-16992960D01*
X9345253Y-16992960D02*
X9335730Y-16973912D01*
X9335730Y-16973912D02*
X9335730Y-16897722D01*
X9335730Y-16897722D02*
X9345253Y-16878674D01*
X9345253Y-16878674D02*
X9364301Y-16869150D01*
X9364301Y-16869150D02*
X9402396Y-16869150D01*
X9402396Y-16869150D02*
X9421444Y-16878674D01*
X9421444Y-16878674D02*
X9430968Y-16897722D01*
X9430968Y-16897722D02*
X9430968Y-16916770D01*
X9430968Y-16916770D02*
X9335730Y-16935817D01*
X9507158Y-16992960D02*
X9526206Y-17002484D01*
X9526206Y-17002484D02*
X9564301Y-17002484D01*
X9564301Y-17002484D02*
X9583349Y-16992960D01*
X9583349Y-16992960D02*
X9592873Y-16973912D01*
X9592873Y-16973912D02*
X9592873Y-16964389D01*
X9592873Y-16964389D02*
X9583349Y-16945341D01*
X9583349Y-16945341D02*
X9564301Y-16935817D01*
X9564301Y-16935817D02*
X9535730Y-16935817D01*
X9535730Y-16935817D02*
X9516682Y-16926293D01*
X9516682Y-16926293D02*
X9507158Y-16907246D01*
X9507158Y-16907246D02*
X9507158Y-16897722D01*
X9507158Y-16897722D02*
X9516682Y-16878674D01*
X9516682Y-16878674D02*
X9535730Y-16869150D01*
X9535730Y-16869150D02*
X9564301Y-16869150D01*
X9564301Y-16869150D02*
X9583349Y-16878674D01*
X9659539Y-17078674D02*
X9669063Y-17069150D01*
X9669063Y-17069150D02*
X9688111Y-17040579D01*
X9688111Y-17040579D02*
X9697634Y-17021531D01*
X9697634Y-17021531D02*
X9707158Y-16992960D01*
X9707158Y-16992960D02*
X9716682Y-16945341D01*
X9716682Y-16945341D02*
X9716682Y-16907246D01*
X9716682Y-16907246D02*
X9707158Y-16859627D01*
X9707158Y-16859627D02*
X9697634Y-16831055D01*
X9697634Y-16831055D02*
X9688111Y-16812008D01*
X9688111Y-16812008D02*
X9669063Y-16783436D01*
X9669063Y-16783436D02*
X9659539Y-16773912D01*
X4594000Y-17075000D02*
X4594000Y-17275000D01*
X4494000Y-17175000D02*
X4694000Y-17175000D01*
X4935729Y-17066484D02*
X5059539Y-17066484D01*
X5059539Y-17066484D02*
X4992872Y-17142674D01*
X4992872Y-17142674D02*
X5021444Y-17142674D01*
X5021444Y-17142674D02*
X5040491Y-17152198D01*
X5040491Y-17152198D02*
X5050015Y-17161722D01*
X5050015Y-17161722D02*
X5059539Y-17180770D01*
X5059539Y-17180770D02*
X5059539Y-17228389D01*
X5059539Y-17228389D02*
X5050015Y-17247436D01*
X5050015Y-17247436D02*
X5040491Y-17256960D01*
X5040491Y-17256960D02*
X5021444Y-17266484D01*
X5021444Y-17266484D02*
X4964301Y-17266484D01*
X4964301Y-17266484D02*
X4945253Y-17256960D01*
X4945253Y-17256960D02*
X4935729Y-17247436D01*
X5145253Y-17247436D02*
X5154777Y-17256960D01*
X5154777Y-17256960D02*
X5145253Y-17266484D01*
X5145253Y-17266484D02*
X5135729Y-17256960D01*
X5135729Y-17256960D02*
X5145253Y-17247436D01*
X5145253Y-17247436D02*
X5145253Y-17266484D01*
X5278586Y-17066484D02*
X5297634Y-17066484D01*
X5297634Y-17066484D02*
X5316682Y-17076008D01*
X5316682Y-17076008D02*
X5326205Y-17085531D01*
X5326205Y-17085531D02*
X5335729Y-17104579D01*
X5335729Y-17104579D02*
X5345253Y-17142674D01*
X5345253Y-17142674D02*
X5345253Y-17190293D01*
X5345253Y-17190293D02*
X5335729Y-17228389D01*
X5335729Y-17228389D02*
X5326205Y-17247436D01*
X5326205Y-17247436D02*
X5316682Y-17256960D01*
X5316682Y-17256960D02*
X5297634Y-17266484D01*
X5297634Y-17266484D02*
X5278586Y-17266484D01*
X5278586Y-17266484D02*
X5259539Y-17256960D01*
X5259539Y-17256960D02*
X5250015Y-17247436D01*
X5250015Y-17247436D02*
X5240491Y-17228389D01*
X5240491Y-17228389D02*
X5230967Y-17190293D01*
X5230967Y-17190293D02*
X5230967Y-17142674D01*
X5230967Y-17142674D02*
X5240491Y-17104579D01*
X5240491Y-17104579D02*
X5250015Y-17085531D01*
X5250015Y-17085531D02*
X5259539Y-17076008D01*
X5259539Y-17076008D02*
X5278586Y-17066484D01*
X5526205Y-17066484D02*
X5430967Y-17066484D01*
X5430967Y-17066484D02*
X5421444Y-17161722D01*
X5421444Y-17161722D02*
X5430967Y-17152198D01*
X5430967Y-17152198D02*
X5450015Y-17142674D01*
X5450015Y-17142674D02*
X5497634Y-17142674D01*
X5497634Y-17142674D02*
X5516682Y-17152198D01*
X5516682Y-17152198D02*
X5526205Y-17161722D01*
X5526205Y-17161722D02*
X5535729Y-17180770D01*
X5535729Y-17180770D02*
X5535729Y-17228389D01*
X5535729Y-17228389D02*
X5526205Y-17247436D01*
X5526205Y-17247436D02*
X5516682Y-17256960D01*
X5516682Y-17256960D02*
X5497634Y-17266484D01*
X5497634Y-17266484D02*
X5450015Y-17266484D01*
X5450015Y-17266484D02*
X5430967Y-17256960D01*
X5430967Y-17256960D02*
X5421444Y-17247436D01*
X5659539Y-17066484D02*
X5678586Y-17066484D01*
X5678586Y-17066484D02*
X5697634Y-17076008D01*
X5697634Y-17076008D02*
X5707158Y-17085531D01*
X5707158Y-17085531D02*
X5716682Y-17104579D01*
X5716682Y-17104579D02*
X5726205Y-17142674D01*
X5726205Y-17142674D02*
X5726205Y-17190293D01*
X5726205Y-17190293D02*
X5716682Y-17228389D01*
X5716682Y-17228389D02*
X5707158Y-17247436D01*
X5707158Y-17247436D02*
X5697634Y-17256960D01*
X5697634Y-17256960D02*
X5678586Y-17266484D01*
X5678586Y-17266484D02*
X5659539Y-17266484D01*
X5659539Y-17266484D02*
X5640491Y-17256960D01*
X5640491Y-17256960D02*
X5630967Y-17247436D01*
X5630967Y-17247436D02*
X5621443Y-17228389D01*
X5621443Y-17228389D02*
X5611920Y-17190293D01*
X5611920Y-17190293D02*
X5611920Y-17142674D01*
X5611920Y-17142674D02*
X5621443Y-17104579D01*
X5621443Y-17104579D02*
X5630967Y-17085531D01*
X5630967Y-17085531D02*
X5640491Y-17076008D01*
X5640491Y-17076008D02*
X5659539Y-17066484D01*
X5811920Y-17266484D02*
X5811920Y-17133150D01*
X5811920Y-17152198D02*
X5821443Y-17142674D01*
X5821443Y-17142674D02*
X5840491Y-17133150D01*
X5840491Y-17133150D02*
X5869063Y-17133150D01*
X5869063Y-17133150D02*
X5888110Y-17142674D01*
X5888110Y-17142674D02*
X5897634Y-17161722D01*
X5897634Y-17161722D02*
X5897634Y-17266484D01*
X5897634Y-17161722D02*
X5907158Y-17142674D01*
X5907158Y-17142674D02*
X5926205Y-17133150D01*
X5926205Y-17133150D02*
X5954777Y-17133150D01*
X5954777Y-17133150D02*
X5973824Y-17142674D01*
X5973824Y-17142674D02*
X5983348Y-17161722D01*
X5983348Y-17161722D02*
X5983348Y-17266484D01*
X6078586Y-17266484D02*
X6078586Y-17133150D01*
X6078586Y-17152198D02*
X6088110Y-17142674D01*
X6088110Y-17142674D02*
X6107158Y-17133150D01*
X6107158Y-17133150D02*
X6135729Y-17133150D01*
X6135729Y-17133150D02*
X6154777Y-17142674D01*
X6154777Y-17142674D02*
X6164301Y-17161722D01*
X6164301Y-17161722D02*
X6164301Y-17266484D01*
X6164301Y-17161722D02*
X6173824Y-17142674D01*
X6173824Y-17142674D02*
X6192872Y-17133150D01*
X6192872Y-17133150D02*
X6221443Y-17133150D01*
X6221443Y-17133150D02*
X6240491Y-17142674D01*
X6240491Y-17142674D02*
X6250015Y-17161722D01*
X6250015Y-17161722D02*
X6250015Y-17266484D01*
X6640491Y-17056960D02*
X6469063Y-17314103D01*
X6897634Y-17066484D02*
X6916682Y-17066484D01*
X6916682Y-17066484D02*
X6935729Y-17076008D01*
X6935729Y-17076008D02*
X6945253Y-17085531D01*
X6945253Y-17085531D02*
X6954777Y-17104579D01*
X6954777Y-17104579D02*
X6964301Y-17142674D01*
X6964301Y-17142674D02*
X6964301Y-17190293D01*
X6964301Y-17190293D02*
X6954777Y-17228389D01*
X6954777Y-17228389D02*
X6945253Y-17247436D01*
X6945253Y-17247436D02*
X6935729Y-17256960D01*
X6935729Y-17256960D02*
X6916682Y-17266484D01*
X6916682Y-17266484D02*
X6897634Y-17266484D01*
X6897634Y-17266484D02*
X6878586Y-17256960D01*
X6878586Y-17256960D02*
X6869063Y-17247436D01*
X6869063Y-17247436D02*
X6859539Y-17228389D01*
X6859539Y-17228389D02*
X6850015Y-17190293D01*
X6850015Y-17190293D02*
X6850015Y-17142674D01*
X6850015Y-17142674D02*
X6859539Y-17104579D01*
X6859539Y-17104579D02*
X6869063Y-17085531D01*
X6869063Y-17085531D02*
X6878586Y-17076008D01*
X6878586Y-17076008D02*
X6897634Y-17066484D01*
X7050015Y-17247436D02*
X7059539Y-17256960D01*
X7059539Y-17256960D02*
X7050015Y-17266484D01*
X7050015Y-17266484D02*
X7040491Y-17256960D01*
X7040491Y-17256960D02*
X7050015Y-17247436D01*
X7050015Y-17247436D02*
X7050015Y-17266484D01*
X7250015Y-17266484D02*
X7135729Y-17266484D01*
X7192872Y-17266484D02*
X7192872Y-17066484D01*
X7192872Y-17066484D02*
X7173825Y-17095055D01*
X7173825Y-17095055D02*
X7154777Y-17114103D01*
X7154777Y-17114103D02*
X7135729Y-17123627D01*
X7326206Y-17085531D02*
X7335729Y-17076008D01*
X7335729Y-17076008D02*
X7354777Y-17066484D01*
X7354777Y-17066484D02*
X7402396Y-17066484D01*
X7402396Y-17066484D02*
X7421444Y-17076008D01*
X7421444Y-17076008D02*
X7430967Y-17085531D01*
X7430967Y-17085531D02*
X7440491Y-17104579D01*
X7440491Y-17104579D02*
X7440491Y-17123627D01*
X7440491Y-17123627D02*
X7430967Y-17152198D01*
X7430967Y-17152198D02*
X7316682Y-17266484D01*
X7316682Y-17266484D02*
X7440491Y-17266484D01*
X7564301Y-17066484D02*
X7583348Y-17066484D01*
X7583348Y-17066484D02*
X7602396Y-17076008D01*
X7602396Y-17076008D02*
X7611920Y-17085531D01*
X7611920Y-17085531D02*
X7621444Y-17104579D01*
X7621444Y-17104579D02*
X7630967Y-17142674D01*
X7630967Y-17142674D02*
X7630967Y-17190293D01*
X7630967Y-17190293D02*
X7621444Y-17228389D01*
X7621444Y-17228389D02*
X7611920Y-17247436D01*
X7611920Y-17247436D02*
X7602396Y-17256960D01*
X7602396Y-17256960D02*
X7583348Y-17266484D01*
X7583348Y-17266484D02*
X7564301Y-17266484D01*
X7564301Y-17266484D02*
X7545253Y-17256960D01*
X7545253Y-17256960D02*
X7535729Y-17247436D01*
X7535729Y-17247436D02*
X7526206Y-17228389D01*
X7526206Y-17228389D02*
X7516682Y-17190293D01*
X7516682Y-17190293D02*
X7516682Y-17142674D01*
X7516682Y-17142674D02*
X7526206Y-17104579D01*
X7526206Y-17104579D02*
X7535729Y-17085531D01*
X7535729Y-17085531D02*
X7545253Y-17076008D01*
X7545253Y-17076008D02*
X7564301Y-17066484D01*
X7821444Y-17266484D02*
X7707158Y-17266484D01*
X7764301Y-17266484D02*
X7764301Y-17066484D01*
X7764301Y-17066484D02*
X7745253Y-17095055D01*
X7745253Y-17095055D02*
X7726206Y-17114103D01*
X7726206Y-17114103D02*
X7707158Y-17123627D01*
X7897634Y-17066484D02*
X7897634Y-17104579D01*
X7973825Y-17066484D02*
X7973825Y-17104579D01*
X8269063Y-17342674D02*
X8259539Y-17333150D01*
X8259539Y-17333150D02*
X8240491Y-17304579D01*
X8240491Y-17304579D02*
X8230968Y-17285531D01*
X8230968Y-17285531D02*
X8221444Y-17256960D01*
X8221444Y-17256960D02*
X8211920Y-17209341D01*
X8211920Y-17209341D02*
X8211920Y-17171246D01*
X8211920Y-17171246D02*
X8221444Y-17123627D01*
X8221444Y-17123627D02*
X8230968Y-17095055D01*
X8230968Y-17095055D02*
X8240491Y-17076008D01*
X8240491Y-17076008D02*
X8259539Y-17047436D01*
X8259539Y-17047436D02*
X8269063Y-17037912D01*
X8326206Y-17066484D02*
X8450015Y-17066484D01*
X8450015Y-17066484D02*
X8383348Y-17142674D01*
X8383348Y-17142674D02*
X8411920Y-17142674D01*
X8411920Y-17142674D02*
X8430968Y-17152198D01*
X8430968Y-17152198D02*
X8440491Y-17161722D01*
X8440491Y-17161722D02*
X8450015Y-17180770D01*
X8450015Y-17180770D02*
X8450015Y-17228389D01*
X8450015Y-17228389D02*
X8440491Y-17247436D01*
X8440491Y-17247436D02*
X8430968Y-17256960D01*
X8430968Y-17256960D02*
X8411920Y-17266484D01*
X8411920Y-17266484D02*
X8354777Y-17266484D01*
X8354777Y-17266484D02*
X8335729Y-17256960D01*
X8335729Y-17256960D02*
X8326206Y-17247436D01*
X8526206Y-17085531D02*
X8535730Y-17076008D01*
X8535730Y-17076008D02*
X8554777Y-17066484D01*
X8554777Y-17066484D02*
X8602396Y-17066484D01*
X8602396Y-17066484D02*
X8621444Y-17076008D01*
X8621444Y-17076008D02*
X8630968Y-17085531D01*
X8630968Y-17085531D02*
X8640491Y-17104579D01*
X8640491Y-17104579D02*
X8640491Y-17123627D01*
X8640491Y-17123627D02*
X8630968Y-17152198D01*
X8630968Y-17152198D02*
X8516682Y-17266484D01*
X8516682Y-17266484D02*
X8640491Y-17266484D01*
X8878587Y-17266484D02*
X8878587Y-17066484D01*
X8964301Y-17266484D02*
X8964301Y-17161722D01*
X8964301Y-17161722D02*
X8954777Y-17142674D01*
X8954777Y-17142674D02*
X8935730Y-17133150D01*
X8935730Y-17133150D02*
X8907158Y-17133150D01*
X8907158Y-17133150D02*
X8888111Y-17142674D01*
X8888111Y-17142674D02*
X8878587Y-17152198D01*
X9088111Y-17266484D02*
X9069063Y-17256960D01*
X9069063Y-17256960D02*
X9059539Y-17247436D01*
X9059539Y-17247436D02*
X9050015Y-17228389D01*
X9050015Y-17228389D02*
X9050015Y-17171246D01*
X9050015Y-17171246D02*
X9059539Y-17152198D01*
X9059539Y-17152198D02*
X9069063Y-17142674D01*
X9069063Y-17142674D02*
X9088111Y-17133150D01*
X9088111Y-17133150D02*
X9116682Y-17133150D01*
X9116682Y-17133150D02*
X9135730Y-17142674D01*
X9135730Y-17142674D02*
X9145253Y-17152198D01*
X9145253Y-17152198D02*
X9154777Y-17171246D01*
X9154777Y-17171246D02*
X9154777Y-17228389D01*
X9154777Y-17228389D02*
X9145253Y-17247436D01*
X9145253Y-17247436D02*
X9135730Y-17256960D01*
X9135730Y-17256960D02*
X9116682Y-17266484D01*
X9116682Y-17266484D02*
X9088111Y-17266484D01*
X9269063Y-17266484D02*
X9250015Y-17256960D01*
X9250015Y-17256960D02*
X9240492Y-17237912D01*
X9240492Y-17237912D02*
X9240492Y-17066484D01*
X9421444Y-17256960D02*
X9402396Y-17266484D01*
X9402396Y-17266484D02*
X9364301Y-17266484D01*
X9364301Y-17266484D02*
X9345253Y-17256960D01*
X9345253Y-17256960D02*
X9335730Y-17237912D01*
X9335730Y-17237912D02*
X9335730Y-17161722D01*
X9335730Y-17161722D02*
X9345253Y-17142674D01*
X9345253Y-17142674D02*
X9364301Y-17133150D01*
X9364301Y-17133150D02*
X9402396Y-17133150D01*
X9402396Y-17133150D02*
X9421444Y-17142674D01*
X9421444Y-17142674D02*
X9430968Y-17161722D01*
X9430968Y-17161722D02*
X9430968Y-17180770D01*
X9430968Y-17180770D02*
X9335730Y-17199817D01*
X9507158Y-17256960D02*
X9526206Y-17266484D01*
X9526206Y-17266484D02*
X9564301Y-17266484D01*
X9564301Y-17266484D02*
X9583349Y-17256960D01*
X9583349Y-17256960D02*
X9592873Y-17237912D01*
X9592873Y-17237912D02*
X9592873Y-17228389D01*
X9592873Y-17228389D02*
X9583349Y-17209341D01*
X9583349Y-17209341D02*
X9564301Y-17199817D01*
X9564301Y-17199817D02*
X9535730Y-17199817D01*
X9535730Y-17199817D02*
X9516682Y-17190293D01*
X9516682Y-17190293D02*
X9507158Y-17171246D01*
X9507158Y-17171246D02*
X9507158Y-17161722D01*
X9507158Y-17161722D02*
X9516682Y-17142674D01*
X9516682Y-17142674D02*
X9535730Y-17133150D01*
X9535730Y-17133150D02*
X9564301Y-17133150D01*
X9564301Y-17133150D02*
X9583349Y-17142674D01*
X9659539Y-17342674D02*
X9669063Y-17333150D01*
X9669063Y-17333150D02*
X9688111Y-17304579D01*
X9688111Y-17304579D02*
X9697634Y-17285531D01*
X9697634Y-17285531D02*
X9707158Y-17256960D01*
X9707158Y-17256960D02*
X9716682Y-17209341D01*
X9716682Y-17209341D02*
X9716682Y-17171246D01*
X9716682Y-17171246D02*
X9707158Y-17123627D01*
X9707158Y-17123627D02*
X9697634Y-17095055D01*
X9697634Y-17095055D02*
X9688111Y-17076008D01*
X9688111Y-17076008D02*
X9669063Y-17047436D01*
X9669063Y-17047436D02*
X9659539Y-17037912D01*
M02*
